G04 #@! TF.GenerationSoftware,KiCad,Pcbnew,8.0.5*
G04 #@! TF.CreationDate,2024-11-21T16:22:07-05:00*
G04 #@! TF.ProjectId,PCB_Order3,5043425f-4f72-4646-9572-332e6b696361,rev?*
G04 #@! TF.SameCoordinates,Original*
G04 #@! TF.FileFunction,Legend,Top*
G04 #@! TF.FilePolarity,Positive*
%FSLAX46Y46*%
G04 Gerber Fmt 4.6, Leading zero omitted, Abs format (unit mm)*
G04 Created by KiCad (PCBNEW 8.0.5) date 2024-11-21 16:22:07*
%MOMM*%
%LPD*%
G01*
G04 APERTURE LIST*
G04 Aperture macros list*
%AMRoundRect*
0 Rectangle with rounded corners*
0 $1 Rounding radius*
0 $2 $3 $4 $5 $6 $7 $8 $9 X,Y pos of 4 corners*
0 Add a 4 corners polygon primitive as box body*
4,1,4,$2,$3,$4,$5,$6,$7,$8,$9,$2,$3,0*
0 Add four circle primitives for the rounded corners*
1,1,$1+$1,$2,$3*
1,1,$1+$1,$4,$5*
1,1,$1+$1,$6,$7*
1,1,$1+$1,$8,$9*
0 Add four rect primitives between the rounded corners*
20,1,$1+$1,$2,$3,$4,$5,0*
20,1,$1+$1,$4,$5,$6,$7,0*
20,1,$1+$1,$6,$7,$8,$9,0*
20,1,$1+$1,$8,$9,$2,$3,0*%
G04 Aperture macros list end*
%ADD10C,0.150000*%
%ADD11C,0.300000*%
%ADD12C,0.254000*%
%ADD13C,0.120000*%
%ADD14C,0.100000*%
%ADD15C,0.127000*%
%ADD16C,0.200000*%
%ADD17C,0.152400*%
%ADD18C,0.508000*%
%ADD19C,0.000000*%
%ADD20C,1.295400*%
%ADD21C,0.900000*%
%ADD22RoundRect,0.250000X0.337500X0.475000X-0.337500X0.475000X-0.337500X-0.475000X0.337500X-0.475000X0*%
%ADD23C,1.303000*%
%ADD24C,1.300000*%
%ADD25RoundRect,0.250000X0.475000X-0.337500X0.475000X0.337500X-0.475000X0.337500X-0.475000X-0.337500X0*%
%ADD26RoundRect,0.060500X-0.821500X-0.181500X0.821500X-0.181500X0.821500X0.181500X-0.821500X0.181500X0*%
%ADD27RoundRect,0.060500X-0.181500X-0.821500X0.181500X-0.821500X0.181500X0.821500X-0.181500X0.821500X0*%
%ADD28RoundRect,0.250000X-0.475000X0.337500X-0.475000X-0.337500X0.475000X-0.337500X0.475000X0.337500X0*%
%ADD29R,1.100000X0.650001*%
%ADD30RoundRect,0.250000X-0.337500X-0.475000X0.337500X-0.475000X0.337500X0.475000X-0.337500X0.475000X0*%
%ADD31R,1.700000X1.700000*%
%ADD32O,1.700000X1.700000*%
%ADD33C,1.600000*%
%ADD34R,2.209800X0.863600*%
%ADD35R,0.300000X1.300000*%
%ADD36RoundRect,0.100000X0.100000X-0.637500X0.100000X0.637500X-0.100000X0.637500X-0.100000X-0.637500X0*%
%ADD37C,1.574800*%
%ADD38R,1.600000X1.600000*%
%ADD39R,0.500000X2.250000*%
%ADD40R,2.000000X2.500000*%
%ADD41RoundRect,0.250000X-1.450000X0.400000X-1.450000X-0.400000X1.450000X-0.400000X1.450000X0.400000X0*%
%ADD42RoundRect,0.237500X0.237500X-0.250000X0.237500X0.250000X-0.237500X0.250000X-0.237500X-0.250000X0*%
%ADD43R,1.409700X0.254000*%
%ADD44R,1.320800X1.320800*%
%ADD45C,1.320800*%
%ADD46R,3.765000X3.765000*%
%ADD47C,3.765000*%
%ADD48R,0.600000X1.295000*%
%ADD49C,0.450000*%
%ADD50C,0.550000*%
G04 APERTURE END LIST*
D10*
X184522969Y-112779819D02*
X184046779Y-112779819D01*
X184046779Y-112779819D02*
X184046779Y-111779819D01*
X185046779Y-111779819D02*
X185237255Y-111779819D01*
X185237255Y-111779819D02*
X185332493Y-111827438D01*
X185332493Y-111827438D02*
X185427731Y-111922676D01*
X185427731Y-111922676D02*
X185475350Y-112113152D01*
X185475350Y-112113152D02*
X185475350Y-112446485D01*
X185475350Y-112446485D02*
X185427731Y-112636961D01*
X185427731Y-112636961D02*
X185332493Y-112732200D01*
X185332493Y-112732200D02*
X185237255Y-112779819D01*
X185237255Y-112779819D02*
X185046779Y-112779819D01*
X185046779Y-112779819D02*
X184951541Y-112732200D01*
X184951541Y-112732200D02*
X184856303Y-112636961D01*
X184856303Y-112636961D02*
X184808684Y-112446485D01*
X184808684Y-112446485D02*
X184808684Y-112113152D01*
X184808684Y-112113152D02*
X184856303Y-111922676D01*
X184856303Y-111922676D02*
X184951541Y-111827438D01*
X184951541Y-111827438D02*
X185046779Y-111779819D01*
X211825350Y-103093152D02*
X211825350Y-103759819D01*
X211587255Y-102712200D02*
X211349160Y-103426485D01*
X211349160Y-103426485D02*
X211968207Y-103426485D01*
X212253922Y-102759819D02*
X212920588Y-102759819D01*
X212920588Y-102759819D02*
X212492017Y-103759819D01*
X213301541Y-103093152D02*
X213301541Y-104093152D01*
X213777731Y-103616961D02*
X213825350Y-103712200D01*
X213825350Y-103712200D02*
X213920588Y-103759819D01*
X213301541Y-103616961D02*
X213349160Y-103712200D01*
X213349160Y-103712200D02*
X213444398Y-103759819D01*
X213444398Y-103759819D02*
X213634874Y-103759819D01*
X213634874Y-103759819D02*
X213730112Y-103712200D01*
X213730112Y-103712200D02*
X213777731Y-103616961D01*
X213777731Y-103616961D02*
X213777731Y-103093152D01*
X188733152Y-49024649D02*
X189399819Y-49024649D01*
X188352200Y-49262744D02*
X189066485Y-49500839D01*
X189066485Y-49500839D02*
X189066485Y-48881792D01*
X189304580Y-48500839D02*
X189352200Y-48453220D01*
X189352200Y-48453220D02*
X189399819Y-48500839D01*
X189399819Y-48500839D02*
X189352200Y-48548458D01*
X189352200Y-48548458D02*
X189304580Y-48500839D01*
X189304580Y-48500839D02*
X189399819Y-48500839D01*
X188399819Y-48119887D02*
X188399819Y-47453221D01*
X188399819Y-47453221D02*
X189399819Y-47881792D01*
X188733152Y-47072268D02*
X189733152Y-47072268D01*
X189256961Y-46596078D02*
X189352200Y-46548459D01*
X189352200Y-46548459D02*
X189399819Y-46453221D01*
X189256961Y-47072268D02*
X189352200Y-47024649D01*
X189352200Y-47024649D02*
X189399819Y-46929411D01*
X189399819Y-46929411D02*
X189399819Y-46738935D01*
X189399819Y-46738935D02*
X189352200Y-46643697D01*
X189352200Y-46643697D02*
X189256961Y-46596078D01*
X189256961Y-46596078D02*
X188733152Y-46596078D01*
X143851595Y-29107804D02*
X143784251Y-29107804D01*
X143784251Y-29107804D02*
X143649564Y-29040461D01*
X143649564Y-29040461D02*
X143582221Y-28973117D01*
X143582221Y-28973117D02*
X143514877Y-28838430D01*
X143514877Y-28838430D02*
X143514877Y-28703743D01*
X143514877Y-28703743D02*
X143548549Y-28602728D01*
X143548549Y-28602728D02*
X143649564Y-28434369D01*
X143649564Y-28434369D02*
X143750579Y-28333354D01*
X143750579Y-28333354D02*
X143918938Y-28232339D01*
X143918938Y-28232339D02*
X144019953Y-28198667D01*
X144019953Y-28198667D02*
X144154641Y-28198667D01*
X144154641Y-28198667D02*
X144289328Y-28266010D01*
X144289328Y-28266010D02*
X144356671Y-28333354D01*
X144356671Y-28333354D02*
X144424015Y-28468041D01*
X144424015Y-28468041D02*
X144424015Y-28535384D01*
X144457686Y-29848583D02*
X144053625Y-29444522D01*
X144255656Y-29646552D02*
X144962763Y-28939445D01*
X144962763Y-28939445D02*
X144794404Y-28973117D01*
X144794404Y-28973117D02*
X144659717Y-28973117D01*
X144659717Y-28973117D02*
X144558702Y-28939445D01*
X211209819Y-122296077D02*
X212209819Y-121962744D01*
X212209819Y-121962744D02*
X211209819Y-121629411D01*
X212209819Y-121296077D02*
X211209819Y-121296077D01*
X211209819Y-121296077D02*
X211209819Y-121057982D01*
X211209819Y-121057982D02*
X211257438Y-120915125D01*
X211257438Y-120915125D02*
X211352676Y-120819887D01*
X211352676Y-120819887D02*
X211447914Y-120772268D01*
X211447914Y-120772268D02*
X211638390Y-120724649D01*
X211638390Y-120724649D02*
X211781247Y-120724649D01*
X211781247Y-120724649D02*
X211971723Y-120772268D01*
X211971723Y-120772268D02*
X212066961Y-120819887D01*
X212066961Y-120819887D02*
X212162200Y-120915125D01*
X212162200Y-120915125D02*
X212209819Y-121057982D01*
X212209819Y-121057982D02*
X212209819Y-121296077D01*
X212209819Y-120296077D02*
X211209819Y-120296077D01*
X211209819Y-120296077D02*
X211209819Y-120057982D01*
X211209819Y-120057982D02*
X211257438Y-119915125D01*
X211257438Y-119915125D02*
X211352676Y-119819887D01*
X211352676Y-119819887D02*
X211447914Y-119772268D01*
X211447914Y-119772268D02*
X211638390Y-119724649D01*
X211638390Y-119724649D02*
X211781247Y-119724649D01*
X211781247Y-119724649D02*
X211971723Y-119772268D01*
X211971723Y-119772268D02*
X212066961Y-119819887D01*
X212066961Y-119819887D02*
X212162200Y-119915125D01*
X212162200Y-119915125D02*
X212209819Y-120057982D01*
X212209819Y-120057982D02*
X212209819Y-120296077D01*
X151709251Y-29100148D02*
X151810266Y-28527728D01*
X151305190Y-28696087D02*
X152012297Y-27988980D01*
X152012297Y-27988980D02*
X152281671Y-28258354D01*
X152281671Y-28258354D02*
X152315343Y-28359369D01*
X152315343Y-28359369D02*
X152315343Y-28426713D01*
X152315343Y-28426713D02*
X152281671Y-28527728D01*
X152281671Y-28527728D02*
X152180656Y-28628743D01*
X152180656Y-28628743D02*
X152079641Y-28662415D01*
X152079641Y-28662415D02*
X152012297Y-28662415D01*
X152012297Y-28662415D02*
X151911282Y-28628743D01*
X151911282Y-28628743D02*
X151641908Y-28359369D01*
X152618389Y-28729758D02*
X152685732Y-28729758D01*
X152685732Y-28729758D02*
X152786747Y-28763430D01*
X152786747Y-28763430D02*
X152955106Y-28931789D01*
X152955106Y-28931789D02*
X152988778Y-29032804D01*
X152988778Y-29032804D02*
X152988778Y-29100148D01*
X152988778Y-29100148D02*
X152955106Y-29201163D01*
X152955106Y-29201163D02*
X152887763Y-29268506D01*
X152887763Y-29268506D02*
X152753076Y-29335850D01*
X152753076Y-29335850D02*
X151944953Y-29335850D01*
X151944953Y-29335850D02*
X152382686Y-29773583D01*
X146626595Y-29032804D02*
X146559251Y-29032804D01*
X146559251Y-29032804D02*
X146424564Y-28965461D01*
X146424564Y-28965461D02*
X146357221Y-28898117D01*
X146357221Y-28898117D02*
X146289877Y-28763430D01*
X146289877Y-28763430D02*
X146289877Y-28628743D01*
X146289877Y-28628743D02*
X146323549Y-28527728D01*
X146323549Y-28527728D02*
X146424564Y-28359369D01*
X146424564Y-28359369D02*
X146525579Y-28258354D01*
X146525579Y-28258354D02*
X146693938Y-28157339D01*
X146693938Y-28157339D02*
X146794953Y-28123667D01*
X146794953Y-28123667D02*
X146929641Y-28123667D01*
X146929641Y-28123667D02*
X147064328Y-28191010D01*
X147064328Y-28191010D02*
X147131671Y-28258354D01*
X147131671Y-28258354D02*
X147199015Y-28393041D01*
X147199015Y-28393041D02*
X147199015Y-28460384D01*
X147468389Y-28729758D02*
X147535732Y-28729758D01*
X147535732Y-28729758D02*
X147636747Y-28763430D01*
X147636747Y-28763430D02*
X147805106Y-28931789D01*
X147805106Y-28931789D02*
X147838778Y-29032804D01*
X147838778Y-29032804D02*
X147838778Y-29100148D01*
X147838778Y-29100148D02*
X147805106Y-29201163D01*
X147805106Y-29201163D02*
X147737763Y-29268506D01*
X147737763Y-29268506D02*
X147603076Y-29335850D01*
X147603076Y-29335850D02*
X146794953Y-29335850D01*
X146794953Y-29335850D02*
X147232686Y-29773583D01*
X206622200Y-124050839D02*
X206669819Y-123907982D01*
X206669819Y-123907982D02*
X206669819Y-123669887D01*
X206669819Y-123669887D02*
X206622200Y-123574649D01*
X206622200Y-123574649D02*
X206574580Y-123527030D01*
X206574580Y-123527030D02*
X206479342Y-123479411D01*
X206479342Y-123479411D02*
X206384104Y-123479411D01*
X206384104Y-123479411D02*
X206288866Y-123527030D01*
X206288866Y-123527030D02*
X206241247Y-123574649D01*
X206241247Y-123574649D02*
X206193628Y-123669887D01*
X206193628Y-123669887D02*
X206146009Y-123860363D01*
X206146009Y-123860363D02*
X206098390Y-123955601D01*
X206098390Y-123955601D02*
X206050771Y-124003220D01*
X206050771Y-124003220D02*
X205955533Y-124050839D01*
X205955533Y-124050839D02*
X205860295Y-124050839D01*
X205860295Y-124050839D02*
X205765057Y-124003220D01*
X205765057Y-124003220D02*
X205717438Y-123955601D01*
X205717438Y-123955601D02*
X205669819Y-123860363D01*
X205669819Y-123860363D02*
X205669819Y-123622268D01*
X205669819Y-123622268D02*
X205717438Y-123479411D01*
X205669819Y-123146077D02*
X206669819Y-122907982D01*
X206669819Y-122907982D02*
X205955533Y-122717506D01*
X205955533Y-122717506D02*
X206669819Y-122527030D01*
X206669819Y-122527030D02*
X205669819Y-122288935D01*
X206669819Y-121907982D02*
X205669819Y-121907982D01*
X205669819Y-121907982D02*
X205669819Y-121669887D01*
X205669819Y-121669887D02*
X205717438Y-121527030D01*
X205717438Y-121527030D02*
X205812676Y-121431792D01*
X205812676Y-121431792D02*
X205907914Y-121384173D01*
X205907914Y-121384173D02*
X206098390Y-121336554D01*
X206098390Y-121336554D02*
X206241247Y-121336554D01*
X206241247Y-121336554D02*
X206431723Y-121384173D01*
X206431723Y-121384173D02*
X206526961Y-121431792D01*
X206526961Y-121431792D02*
X206622200Y-121527030D01*
X206622200Y-121527030D02*
X206669819Y-121669887D01*
X206669819Y-121669887D02*
X206669819Y-121907982D01*
X206669819Y-120907982D02*
X205669819Y-120907982D01*
X205669819Y-120241316D02*
X205669819Y-120050840D01*
X205669819Y-120050840D02*
X205717438Y-119955602D01*
X205717438Y-119955602D02*
X205812676Y-119860364D01*
X205812676Y-119860364D02*
X206003152Y-119812745D01*
X206003152Y-119812745D02*
X206336485Y-119812745D01*
X206336485Y-119812745D02*
X206526961Y-119860364D01*
X206526961Y-119860364D02*
X206622200Y-119955602D01*
X206622200Y-119955602D02*
X206669819Y-120050840D01*
X206669819Y-120050840D02*
X206669819Y-120241316D01*
X206669819Y-120241316D02*
X206622200Y-120336554D01*
X206622200Y-120336554D02*
X206526961Y-120431792D01*
X206526961Y-120431792D02*
X206336485Y-120479411D01*
X206336485Y-120479411D02*
X206003152Y-120479411D01*
X206003152Y-120479411D02*
X205812676Y-120431792D01*
X205812676Y-120431792D02*
X205717438Y-120336554D01*
X205717438Y-120336554D02*
X205669819Y-120241316D01*
X93487255Y-111659819D02*
X93582493Y-111659819D01*
X93582493Y-111659819D02*
X93677731Y-111707438D01*
X93677731Y-111707438D02*
X93725350Y-111755057D01*
X93725350Y-111755057D02*
X93772969Y-111850295D01*
X93772969Y-111850295D02*
X93820588Y-112040771D01*
X93820588Y-112040771D02*
X93820588Y-112278866D01*
X93820588Y-112278866D02*
X93772969Y-112469342D01*
X93772969Y-112469342D02*
X93725350Y-112564580D01*
X93725350Y-112564580D02*
X93677731Y-112612200D01*
X93677731Y-112612200D02*
X93582493Y-112659819D01*
X93582493Y-112659819D02*
X93487255Y-112659819D01*
X93487255Y-112659819D02*
X93392017Y-112612200D01*
X93392017Y-112612200D02*
X93344398Y-112564580D01*
X93344398Y-112564580D02*
X93296779Y-112469342D01*
X93296779Y-112469342D02*
X93249160Y-112278866D01*
X93249160Y-112278866D02*
X93249160Y-112040771D01*
X93249160Y-112040771D02*
X93296779Y-111850295D01*
X93296779Y-111850295D02*
X93344398Y-111755057D01*
X93344398Y-111755057D02*
X93392017Y-111707438D01*
X93392017Y-111707438D02*
X93487255Y-111659819D01*
X94249160Y-112564580D02*
X94296779Y-112612200D01*
X94296779Y-112612200D02*
X94249160Y-112659819D01*
X94249160Y-112659819D02*
X94201541Y-112612200D01*
X94201541Y-112612200D02*
X94249160Y-112564580D01*
X94249160Y-112564580D02*
X94249160Y-112659819D01*
X95153921Y-111993152D02*
X95153921Y-112659819D01*
X94915826Y-111612200D02*
X94677731Y-112326485D01*
X94677731Y-112326485D02*
X95296778Y-112326485D01*
X95582493Y-111659819D02*
X96249159Y-111659819D01*
X96249159Y-111659819D02*
X95820588Y-112659819D01*
X96630112Y-111993152D02*
X96630112Y-112993152D01*
X97106302Y-112516961D02*
X97153921Y-112612200D01*
X97153921Y-112612200D02*
X97249159Y-112659819D01*
X96630112Y-112516961D02*
X96677731Y-112612200D01*
X96677731Y-112612200D02*
X96772969Y-112659819D01*
X96772969Y-112659819D02*
X96963445Y-112659819D01*
X96963445Y-112659819D02*
X97058683Y-112612200D01*
X97058683Y-112612200D02*
X97106302Y-112516961D01*
X97106302Y-112516961D02*
X97106302Y-111993152D01*
X122815057Y-107910839D02*
X122767438Y-107863220D01*
X122767438Y-107863220D02*
X122719819Y-107767982D01*
X122719819Y-107767982D02*
X122719819Y-107529887D01*
X122719819Y-107529887D02*
X122767438Y-107434649D01*
X122767438Y-107434649D02*
X122815057Y-107387030D01*
X122815057Y-107387030D02*
X122910295Y-107339411D01*
X122910295Y-107339411D02*
X123005533Y-107339411D01*
X123005533Y-107339411D02*
X123148390Y-107387030D01*
X123148390Y-107387030D02*
X123719819Y-107958458D01*
X123719819Y-107958458D02*
X123719819Y-107339411D01*
X122815057Y-106958458D02*
X122767438Y-106910839D01*
X122767438Y-106910839D02*
X122719819Y-106815601D01*
X122719819Y-106815601D02*
X122719819Y-106577506D01*
X122719819Y-106577506D02*
X122767438Y-106482268D01*
X122767438Y-106482268D02*
X122815057Y-106434649D01*
X122815057Y-106434649D02*
X122910295Y-106387030D01*
X122910295Y-106387030D02*
X123005533Y-106387030D01*
X123005533Y-106387030D02*
X123148390Y-106434649D01*
X123148390Y-106434649D02*
X123719819Y-107006077D01*
X123719819Y-107006077D02*
X123719819Y-106387030D01*
X122719819Y-105767982D02*
X122719819Y-105672744D01*
X122719819Y-105672744D02*
X122767438Y-105577506D01*
X122767438Y-105577506D02*
X122815057Y-105529887D01*
X122815057Y-105529887D02*
X122910295Y-105482268D01*
X122910295Y-105482268D02*
X123100771Y-105434649D01*
X123100771Y-105434649D02*
X123338866Y-105434649D01*
X123338866Y-105434649D02*
X123529342Y-105482268D01*
X123529342Y-105482268D02*
X123624580Y-105529887D01*
X123624580Y-105529887D02*
X123672200Y-105577506D01*
X123672200Y-105577506D02*
X123719819Y-105672744D01*
X123719819Y-105672744D02*
X123719819Y-105767982D01*
X123719819Y-105767982D02*
X123672200Y-105863220D01*
X123672200Y-105863220D02*
X123624580Y-105910839D01*
X123624580Y-105910839D02*
X123529342Y-105958458D01*
X123529342Y-105958458D02*
X123338866Y-106006077D01*
X123338866Y-106006077D02*
X123100771Y-106006077D01*
X123100771Y-106006077D02*
X122910295Y-105958458D01*
X122910295Y-105958458D02*
X122815057Y-105910839D01*
X122815057Y-105910839D02*
X122767438Y-105863220D01*
X122767438Y-105863220D02*
X122719819Y-105767982D01*
X123053152Y-105006077D02*
X123719819Y-105006077D01*
X123148390Y-105006077D02*
X123100771Y-104958458D01*
X123100771Y-104958458D02*
X123053152Y-104863220D01*
X123053152Y-104863220D02*
X123053152Y-104720363D01*
X123053152Y-104720363D02*
X123100771Y-104625125D01*
X123100771Y-104625125D02*
X123196009Y-104577506D01*
X123196009Y-104577506D02*
X123719819Y-104577506D01*
X99339819Y-101309411D02*
X99339819Y-101880839D01*
X99339819Y-101595125D02*
X98339819Y-101595125D01*
X98339819Y-101595125D02*
X98482676Y-101690363D01*
X98482676Y-101690363D02*
X98577914Y-101785601D01*
X98577914Y-101785601D02*
X98625533Y-101880839D01*
X98339819Y-100690363D02*
X98339819Y-100595125D01*
X98339819Y-100595125D02*
X98387438Y-100499887D01*
X98387438Y-100499887D02*
X98435057Y-100452268D01*
X98435057Y-100452268D02*
X98530295Y-100404649D01*
X98530295Y-100404649D02*
X98720771Y-100357030D01*
X98720771Y-100357030D02*
X98958866Y-100357030D01*
X98958866Y-100357030D02*
X99149342Y-100404649D01*
X99149342Y-100404649D02*
X99244580Y-100452268D01*
X99244580Y-100452268D02*
X99292200Y-100499887D01*
X99292200Y-100499887D02*
X99339819Y-100595125D01*
X99339819Y-100595125D02*
X99339819Y-100690363D01*
X99339819Y-100690363D02*
X99292200Y-100785601D01*
X99292200Y-100785601D02*
X99244580Y-100833220D01*
X99244580Y-100833220D02*
X99149342Y-100880839D01*
X99149342Y-100880839D02*
X98958866Y-100928458D01*
X98958866Y-100928458D02*
X98720771Y-100928458D01*
X98720771Y-100928458D02*
X98530295Y-100880839D01*
X98530295Y-100880839D02*
X98435057Y-100833220D01*
X98435057Y-100833220D02*
X98387438Y-100785601D01*
X98387438Y-100785601D02*
X98339819Y-100690363D01*
X98339819Y-99737982D02*
X98339819Y-99642744D01*
X98339819Y-99642744D02*
X98387438Y-99547506D01*
X98387438Y-99547506D02*
X98435057Y-99499887D01*
X98435057Y-99499887D02*
X98530295Y-99452268D01*
X98530295Y-99452268D02*
X98720771Y-99404649D01*
X98720771Y-99404649D02*
X98958866Y-99404649D01*
X98958866Y-99404649D02*
X99149342Y-99452268D01*
X99149342Y-99452268D02*
X99244580Y-99499887D01*
X99244580Y-99499887D02*
X99292200Y-99547506D01*
X99292200Y-99547506D02*
X99339819Y-99642744D01*
X99339819Y-99642744D02*
X99339819Y-99737982D01*
X99339819Y-99737982D02*
X99292200Y-99833220D01*
X99292200Y-99833220D02*
X99244580Y-99880839D01*
X99244580Y-99880839D02*
X99149342Y-99928458D01*
X99149342Y-99928458D02*
X98958866Y-99976077D01*
X98958866Y-99976077D02*
X98720771Y-99976077D01*
X98720771Y-99976077D02*
X98530295Y-99928458D01*
X98530295Y-99928458D02*
X98435057Y-99880839D01*
X98435057Y-99880839D02*
X98387438Y-99833220D01*
X98387438Y-99833220D02*
X98339819Y-99737982D01*
X99339819Y-98976077D02*
X98339819Y-98976077D01*
X98958866Y-98880839D02*
X99339819Y-98595125D01*
X98673152Y-98595125D02*
X99054104Y-98976077D01*
X172726779Y-115549819D02*
X172726779Y-114549819D01*
X172726779Y-115026009D02*
X173298207Y-115026009D01*
X173298207Y-115549819D02*
X173298207Y-114549819D01*
X173774398Y-115549819D02*
X173774398Y-114549819D01*
D11*
X112691203Y-56483919D02*
X113405489Y-56483919D01*
X113405489Y-56483919D02*
X113405489Y-57983919D01*
X112191203Y-56483919D02*
X112191203Y-57483919D01*
X112191203Y-57983919D02*
X112262631Y-57912490D01*
X112262631Y-57912490D02*
X112191203Y-57841062D01*
X112191203Y-57841062D02*
X112119774Y-57912490D01*
X112119774Y-57912490D02*
X112191203Y-57983919D01*
X112191203Y-57983919D02*
X112191203Y-57841062D01*
X110834060Y-56483919D02*
X110834060Y-57269633D01*
X110834060Y-57269633D02*
X110905488Y-57412490D01*
X110905488Y-57412490D02*
X111048345Y-57483919D01*
X111048345Y-57483919D02*
X111334060Y-57483919D01*
X111334060Y-57483919D02*
X111476917Y-57412490D01*
X110834060Y-56555348D02*
X110976917Y-56483919D01*
X110976917Y-56483919D02*
X111334060Y-56483919D01*
X111334060Y-56483919D02*
X111476917Y-56555348D01*
X111476917Y-56555348D02*
X111548345Y-56698205D01*
X111548345Y-56698205D02*
X111548345Y-56841062D01*
X111548345Y-56841062D02*
X111476917Y-56983919D01*
X111476917Y-56983919D02*
X111334060Y-57055348D01*
X111334060Y-57055348D02*
X110976917Y-57055348D01*
X110976917Y-57055348D02*
X110834060Y-57126776D01*
X110119774Y-56483919D02*
X110119774Y-57483919D01*
X110119774Y-57341062D02*
X110048345Y-57412490D01*
X110048345Y-57412490D02*
X109905488Y-57483919D01*
X109905488Y-57483919D02*
X109691202Y-57483919D01*
X109691202Y-57483919D02*
X109548345Y-57412490D01*
X109548345Y-57412490D02*
X109476917Y-57269633D01*
X109476917Y-57269633D02*
X109476917Y-56483919D01*
X109476917Y-57269633D02*
X109405488Y-57412490D01*
X109405488Y-57412490D02*
X109262631Y-57483919D01*
X109262631Y-57483919D02*
X109048345Y-57483919D01*
X109048345Y-57483919D02*
X108905488Y-57412490D01*
X108905488Y-57412490D02*
X108834059Y-57269633D01*
X108834059Y-57269633D02*
X108834059Y-56483919D01*
X106119774Y-56626776D02*
X106191202Y-56555348D01*
X106191202Y-56555348D02*
X106405488Y-56483919D01*
X106405488Y-56483919D02*
X106548345Y-56483919D01*
X106548345Y-56483919D02*
X106762631Y-56555348D01*
X106762631Y-56555348D02*
X106905488Y-56698205D01*
X106905488Y-56698205D02*
X106976917Y-56841062D01*
X106976917Y-56841062D02*
X107048345Y-57126776D01*
X107048345Y-57126776D02*
X107048345Y-57341062D01*
X107048345Y-57341062D02*
X106976917Y-57626776D01*
X106976917Y-57626776D02*
X106905488Y-57769633D01*
X106905488Y-57769633D02*
X106762631Y-57912490D01*
X106762631Y-57912490D02*
X106548345Y-57983919D01*
X106548345Y-57983919D02*
X106405488Y-57983919D01*
X106405488Y-57983919D02*
X106191202Y-57912490D01*
X106191202Y-57912490D02*
X106119774Y-57841062D01*
X105476917Y-56483919D02*
X105476917Y-57483919D01*
X105476917Y-57198205D02*
X105405488Y-57341062D01*
X105405488Y-57341062D02*
X105334060Y-57412490D01*
X105334060Y-57412490D02*
X105191202Y-57483919D01*
X105191202Y-57483919D02*
X105048345Y-57483919D01*
X104548346Y-56483919D02*
X104548346Y-57483919D01*
X104548346Y-57983919D02*
X104619774Y-57912490D01*
X104619774Y-57912490D02*
X104548346Y-57841062D01*
X104548346Y-57841062D02*
X104476917Y-57912490D01*
X104476917Y-57912490D02*
X104548346Y-57983919D01*
X104548346Y-57983919D02*
X104548346Y-57841062D01*
X103834060Y-57483919D02*
X103834060Y-56483919D01*
X103834060Y-57341062D02*
X103762631Y-57412490D01*
X103762631Y-57412490D02*
X103619774Y-57483919D01*
X103619774Y-57483919D02*
X103405488Y-57483919D01*
X103405488Y-57483919D02*
X103262631Y-57412490D01*
X103262631Y-57412490D02*
X103191203Y-57269633D01*
X103191203Y-57269633D02*
X103191203Y-56483919D01*
X101834060Y-57483919D02*
X101834060Y-56269633D01*
X101834060Y-56269633D02*
X101905488Y-56126776D01*
X101905488Y-56126776D02*
X101976917Y-56055348D01*
X101976917Y-56055348D02*
X102119774Y-55983919D01*
X102119774Y-55983919D02*
X102334060Y-55983919D01*
X102334060Y-55983919D02*
X102476917Y-56055348D01*
X101834060Y-56555348D02*
X101976917Y-56483919D01*
X101976917Y-56483919D02*
X102262631Y-56483919D01*
X102262631Y-56483919D02*
X102405488Y-56555348D01*
X102405488Y-56555348D02*
X102476917Y-56626776D01*
X102476917Y-56626776D02*
X102548345Y-56769633D01*
X102548345Y-56769633D02*
X102548345Y-57198205D01*
X102548345Y-57198205D02*
X102476917Y-57341062D01*
X102476917Y-57341062D02*
X102405488Y-57412490D01*
X102405488Y-57412490D02*
X102262631Y-57483919D01*
X102262631Y-57483919D02*
X101976917Y-57483919D01*
X101976917Y-57483919D02*
X101834060Y-57412490D01*
X100905488Y-56483919D02*
X101048345Y-56555348D01*
X101048345Y-56555348D02*
X101119774Y-56698205D01*
X101119774Y-56698205D02*
X101119774Y-57983919D01*
X99762631Y-56555348D02*
X99905488Y-56483919D01*
X99905488Y-56483919D02*
X100191203Y-56483919D01*
X100191203Y-56483919D02*
X100334060Y-56555348D01*
X100334060Y-56555348D02*
X100405488Y-56698205D01*
X100405488Y-56698205D02*
X100405488Y-57269633D01*
X100405488Y-57269633D02*
X100334060Y-57412490D01*
X100334060Y-57412490D02*
X100191203Y-57483919D01*
X100191203Y-57483919D02*
X99905488Y-57483919D01*
X99905488Y-57483919D02*
X99762631Y-57412490D01*
X99762631Y-57412490D02*
X99691203Y-57269633D01*
X99691203Y-57269633D02*
X99691203Y-57126776D01*
X99691203Y-57126776D02*
X100405488Y-56983919D01*
X97048346Y-56626776D02*
X97119774Y-56555348D01*
X97119774Y-56555348D02*
X97334060Y-56483919D01*
X97334060Y-56483919D02*
X97476917Y-56483919D01*
X97476917Y-56483919D02*
X97691203Y-56555348D01*
X97691203Y-56555348D02*
X97834060Y-56698205D01*
X97834060Y-56698205D02*
X97905489Y-56841062D01*
X97905489Y-56841062D02*
X97976917Y-57126776D01*
X97976917Y-57126776D02*
X97976917Y-57341062D01*
X97976917Y-57341062D02*
X97905489Y-57626776D01*
X97905489Y-57626776D02*
X97834060Y-57769633D01*
X97834060Y-57769633D02*
X97691203Y-57912490D01*
X97691203Y-57912490D02*
X97476917Y-57983919D01*
X97476917Y-57983919D02*
X97334060Y-57983919D01*
X97334060Y-57983919D02*
X97119774Y-57912490D01*
X97119774Y-57912490D02*
X97048346Y-57841062D01*
X96405489Y-57269633D02*
X95905489Y-57269633D01*
X95691203Y-56483919D02*
X96405489Y-56483919D01*
X96405489Y-56483919D02*
X96405489Y-57983919D01*
X96405489Y-57983919D02*
X95691203Y-57983919D01*
X113405489Y-54069003D02*
X113405489Y-55569003D01*
X112762631Y-54140432D02*
X112619774Y-54069003D01*
X112619774Y-54069003D02*
X112334060Y-54069003D01*
X112334060Y-54069003D02*
X112191203Y-54140432D01*
X112191203Y-54140432D02*
X112119774Y-54283289D01*
X112119774Y-54283289D02*
X112119774Y-54354717D01*
X112119774Y-54354717D02*
X112191203Y-54497574D01*
X112191203Y-54497574D02*
X112334060Y-54569003D01*
X112334060Y-54569003D02*
X112548346Y-54569003D01*
X112548346Y-54569003D02*
X112691203Y-54640432D01*
X112691203Y-54640432D02*
X112762631Y-54783289D01*
X112762631Y-54783289D02*
X112762631Y-54854717D01*
X112762631Y-54854717D02*
X112691203Y-54997574D01*
X112691203Y-54997574D02*
X112548346Y-55069003D01*
X112548346Y-55069003D02*
X112334060Y-55069003D01*
X112334060Y-55069003D02*
X112191203Y-54997574D01*
X110834060Y-54069003D02*
X110834060Y-54854717D01*
X110834060Y-54854717D02*
X110905488Y-54997574D01*
X110905488Y-54997574D02*
X111048345Y-55069003D01*
X111048345Y-55069003D02*
X111334060Y-55069003D01*
X111334060Y-55069003D02*
X111476917Y-54997574D01*
X110834060Y-54140432D02*
X110976917Y-54069003D01*
X110976917Y-54069003D02*
X111334060Y-54069003D01*
X111334060Y-54069003D02*
X111476917Y-54140432D01*
X111476917Y-54140432D02*
X111548345Y-54283289D01*
X111548345Y-54283289D02*
X111548345Y-54426146D01*
X111548345Y-54426146D02*
X111476917Y-54569003D01*
X111476917Y-54569003D02*
X111334060Y-54640432D01*
X111334060Y-54640432D02*
X110976917Y-54640432D01*
X110976917Y-54640432D02*
X110834060Y-54711860D01*
X109476917Y-54069003D02*
X109476917Y-54854717D01*
X109476917Y-54854717D02*
X109548345Y-54997574D01*
X109548345Y-54997574D02*
X109691202Y-55069003D01*
X109691202Y-55069003D02*
X109976917Y-55069003D01*
X109976917Y-55069003D02*
X110119774Y-54997574D01*
X109476917Y-54140432D02*
X109619774Y-54069003D01*
X109619774Y-54069003D02*
X109976917Y-54069003D01*
X109976917Y-54069003D02*
X110119774Y-54140432D01*
X110119774Y-54140432D02*
X110191202Y-54283289D01*
X110191202Y-54283289D02*
X110191202Y-54426146D01*
X110191202Y-54426146D02*
X110119774Y-54569003D01*
X110119774Y-54569003D02*
X109976917Y-54640432D01*
X109976917Y-54640432D02*
X109619774Y-54640432D01*
X109619774Y-54640432D02*
X109476917Y-54711860D01*
X108119774Y-54140432D02*
X108262631Y-54069003D01*
X108262631Y-54069003D02*
X108548345Y-54069003D01*
X108548345Y-54069003D02*
X108691202Y-54140432D01*
X108691202Y-54140432D02*
X108762631Y-54211860D01*
X108762631Y-54211860D02*
X108834059Y-54354717D01*
X108834059Y-54354717D02*
X108834059Y-54783289D01*
X108834059Y-54783289D02*
X108762631Y-54926146D01*
X108762631Y-54926146D02*
X108691202Y-54997574D01*
X108691202Y-54997574D02*
X108548345Y-55069003D01*
X108548345Y-55069003D02*
X108262631Y-55069003D01*
X108262631Y-55069003D02*
X108119774Y-54997574D01*
X106548345Y-55569003D02*
X105691203Y-55569003D01*
X106119774Y-54069003D02*
X106119774Y-55569003D01*
X104619774Y-54140432D02*
X104762631Y-54069003D01*
X104762631Y-54069003D02*
X105048346Y-54069003D01*
X105048346Y-54069003D02*
X105191203Y-54140432D01*
X105191203Y-54140432D02*
X105262631Y-54283289D01*
X105262631Y-54283289D02*
X105262631Y-54854717D01*
X105262631Y-54854717D02*
X105191203Y-54997574D01*
X105191203Y-54997574D02*
X105048346Y-55069003D01*
X105048346Y-55069003D02*
X104762631Y-55069003D01*
X104762631Y-55069003D02*
X104619774Y-54997574D01*
X104619774Y-54997574D02*
X104548346Y-54854717D01*
X104548346Y-54854717D02*
X104548346Y-54711860D01*
X104548346Y-54711860D02*
X105262631Y-54569003D01*
X103905489Y-54069003D02*
X103905489Y-55069003D01*
X103905489Y-54783289D02*
X103834060Y-54926146D01*
X103834060Y-54926146D02*
X103762632Y-54997574D01*
X103762632Y-54997574D02*
X103619774Y-55069003D01*
X103619774Y-55069003D02*
X103476917Y-55069003D01*
X102976918Y-54069003D02*
X102976918Y-55069003D01*
X102976918Y-54783289D02*
X102905489Y-54926146D01*
X102905489Y-54926146D02*
X102834061Y-54997574D01*
X102834061Y-54997574D02*
X102691203Y-55069003D01*
X102691203Y-55069003D02*
X102548346Y-55069003D01*
X101476918Y-54140432D02*
X101619775Y-54069003D01*
X101619775Y-54069003D02*
X101905490Y-54069003D01*
X101905490Y-54069003D02*
X102048347Y-54140432D01*
X102048347Y-54140432D02*
X102119775Y-54283289D01*
X102119775Y-54283289D02*
X102119775Y-54854717D01*
X102119775Y-54854717D02*
X102048347Y-54997574D01*
X102048347Y-54997574D02*
X101905490Y-55069003D01*
X101905490Y-55069003D02*
X101619775Y-55069003D01*
X101619775Y-55069003D02*
X101476918Y-54997574D01*
X101476918Y-54997574D02*
X101405490Y-54854717D01*
X101405490Y-54854717D02*
X101405490Y-54711860D01*
X101405490Y-54711860D02*
X102119775Y-54569003D01*
X100548347Y-54069003D02*
X100691204Y-54140432D01*
X100691204Y-54140432D02*
X100762633Y-54283289D01*
X100762633Y-54283289D02*
X100762633Y-55569003D01*
X99762633Y-54069003D02*
X99905490Y-54140432D01*
X99905490Y-54140432D02*
X99976919Y-54283289D01*
X99976919Y-54283289D02*
X99976919Y-55569003D01*
X98048348Y-54854717D02*
X97548348Y-54854717D01*
X97334062Y-54069003D02*
X98048348Y-54069003D01*
X98048348Y-54069003D02*
X98048348Y-55569003D01*
X98048348Y-55569003D02*
X97334062Y-55569003D01*
X96691205Y-54854717D02*
X96191205Y-54854717D01*
X95976919Y-54069003D02*
X96691205Y-54069003D01*
X96691205Y-54069003D02*
X96691205Y-55569003D01*
X96691205Y-55569003D02*
X95976919Y-55569003D01*
X113476917Y-52082658D02*
X112762632Y-52082658D01*
X113619774Y-51654087D02*
X113119774Y-53154087D01*
X113119774Y-53154087D02*
X112619774Y-51654087D01*
X111476918Y-52654087D02*
X111476918Y-51654087D01*
X112119775Y-52654087D02*
X112119775Y-51868373D01*
X112119775Y-51868373D02*
X112048346Y-51725516D01*
X112048346Y-51725516D02*
X111905489Y-51654087D01*
X111905489Y-51654087D02*
X111691203Y-51654087D01*
X111691203Y-51654087D02*
X111548346Y-51725516D01*
X111548346Y-51725516D02*
X111476918Y-51796944D01*
X110119775Y-51654087D02*
X110119775Y-53154087D01*
X110119775Y-51725516D02*
X110262632Y-51654087D01*
X110262632Y-51654087D02*
X110548346Y-51654087D01*
X110548346Y-51654087D02*
X110691203Y-51725516D01*
X110691203Y-51725516D02*
X110762632Y-51796944D01*
X110762632Y-51796944D02*
X110834060Y-51939801D01*
X110834060Y-51939801D02*
X110834060Y-52368373D01*
X110834060Y-52368373D02*
X110762632Y-52511230D01*
X110762632Y-52511230D02*
X110691203Y-52582658D01*
X110691203Y-52582658D02*
X110548346Y-52654087D01*
X110548346Y-52654087D02*
X110262632Y-52654087D01*
X110262632Y-52654087D02*
X110119775Y-52582658D01*
X109405489Y-51654087D02*
X109405489Y-52654087D01*
X109405489Y-53154087D02*
X109476917Y-53082658D01*
X109476917Y-53082658D02*
X109405489Y-53011230D01*
X109405489Y-53011230D02*
X109334060Y-53082658D01*
X109334060Y-53082658D02*
X109405489Y-53154087D01*
X109405489Y-53154087D02*
X109405489Y-53011230D01*
X108476917Y-51654087D02*
X108619774Y-51725516D01*
X108619774Y-51725516D02*
X108691203Y-51796944D01*
X108691203Y-51796944D02*
X108762631Y-51939801D01*
X108762631Y-51939801D02*
X108762631Y-52368373D01*
X108762631Y-52368373D02*
X108691203Y-52511230D01*
X108691203Y-52511230D02*
X108619774Y-52582658D01*
X108619774Y-52582658D02*
X108476917Y-52654087D01*
X108476917Y-52654087D02*
X108262631Y-52654087D01*
X108262631Y-52654087D02*
X108119774Y-52582658D01*
X108119774Y-52582658D02*
X108048346Y-52511230D01*
X108048346Y-52511230D02*
X107976917Y-52368373D01*
X107976917Y-52368373D02*
X107976917Y-51939801D01*
X107976917Y-51939801D02*
X108048346Y-51796944D01*
X108048346Y-51796944D02*
X108119774Y-51725516D01*
X108119774Y-51725516D02*
X108262631Y-51654087D01*
X108262631Y-51654087D02*
X108476917Y-51654087D01*
X106262631Y-51725516D02*
X106119774Y-51654087D01*
X106119774Y-51654087D02*
X105834060Y-51654087D01*
X105834060Y-51654087D02*
X105691203Y-51725516D01*
X105691203Y-51725516D02*
X105619774Y-51868373D01*
X105619774Y-51868373D02*
X105619774Y-51939801D01*
X105619774Y-51939801D02*
X105691203Y-52082658D01*
X105691203Y-52082658D02*
X105834060Y-52154087D01*
X105834060Y-52154087D02*
X106048346Y-52154087D01*
X106048346Y-52154087D02*
X106191203Y-52225516D01*
X106191203Y-52225516D02*
X106262631Y-52368373D01*
X106262631Y-52368373D02*
X106262631Y-52439801D01*
X106262631Y-52439801D02*
X106191203Y-52582658D01*
X106191203Y-52582658D02*
X106048346Y-52654087D01*
X106048346Y-52654087D02*
X105834060Y-52654087D01*
X105834060Y-52654087D02*
X105691203Y-52582658D01*
X104334060Y-51654087D02*
X104334060Y-52439801D01*
X104334060Y-52439801D02*
X104405488Y-52582658D01*
X104405488Y-52582658D02*
X104548345Y-52654087D01*
X104548345Y-52654087D02*
X104834060Y-52654087D01*
X104834060Y-52654087D02*
X104976917Y-52582658D01*
X104334060Y-51725516D02*
X104476917Y-51654087D01*
X104476917Y-51654087D02*
X104834060Y-51654087D01*
X104834060Y-51654087D02*
X104976917Y-51725516D01*
X104976917Y-51725516D02*
X105048345Y-51868373D01*
X105048345Y-51868373D02*
X105048345Y-52011230D01*
X105048345Y-52011230D02*
X104976917Y-52154087D01*
X104976917Y-52154087D02*
X104834060Y-52225516D01*
X104834060Y-52225516D02*
X104476917Y-52225516D01*
X104476917Y-52225516D02*
X104334060Y-52296944D01*
X103619774Y-51654087D02*
X103619774Y-52654087D01*
X103619774Y-52511230D02*
X103548345Y-52582658D01*
X103548345Y-52582658D02*
X103405488Y-52654087D01*
X103405488Y-52654087D02*
X103191202Y-52654087D01*
X103191202Y-52654087D02*
X103048345Y-52582658D01*
X103048345Y-52582658D02*
X102976917Y-52439801D01*
X102976917Y-52439801D02*
X102976917Y-51654087D01*
X102976917Y-52439801D02*
X102905488Y-52582658D01*
X102905488Y-52582658D02*
X102762631Y-52654087D01*
X102762631Y-52654087D02*
X102548345Y-52654087D01*
X102548345Y-52654087D02*
X102405488Y-52582658D01*
X102405488Y-52582658D02*
X102334059Y-52439801D01*
X102334059Y-52439801D02*
X102334059Y-51654087D01*
X101619774Y-52654087D02*
X101619774Y-51154087D01*
X101619774Y-52582658D02*
X101476917Y-52654087D01*
X101476917Y-52654087D02*
X101191202Y-52654087D01*
X101191202Y-52654087D02*
X101048345Y-52582658D01*
X101048345Y-52582658D02*
X100976917Y-52511230D01*
X100976917Y-52511230D02*
X100905488Y-52368373D01*
X100905488Y-52368373D02*
X100905488Y-51939801D01*
X100905488Y-51939801D02*
X100976917Y-51796944D01*
X100976917Y-51796944D02*
X101048345Y-51725516D01*
X101048345Y-51725516D02*
X101191202Y-51654087D01*
X101191202Y-51654087D02*
X101476917Y-51654087D01*
X101476917Y-51654087D02*
X101619774Y-51725516D01*
X100048345Y-51654087D02*
X100191202Y-51725516D01*
X100191202Y-51725516D02*
X100262631Y-51868373D01*
X100262631Y-51868373D02*
X100262631Y-53154087D01*
X98905488Y-51725516D02*
X99048345Y-51654087D01*
X99048345Y-51654087D02*
X99334060Y-51654087D01*
X99334060Y-51654087D02*
X99476917Y-51725516D01*
X99476917Y-51725516D02*
X99548345Y-51868373D01*
X99548345Y-51868373D02*
X99548345Y-52439801D01*
X99548345Y-52439801D02*
X99476917Y-52582658D01*
X99476917Y-52582658D02*
X99334060Y-52654087D01*
X99334060Y-52654087D02*
X99048345Y-52654087D01*
X99048345Y-52654087D02*
X98905488Y-52582658D01*
X98905488Y-52582658D02*
X98834060Y-52439801D01*
X98834060Y-52439801D02*
X98834060Y-52296944D01*
X98834060Y-52296944D02*
X99548345Y-52154087D01*
X98191203Y-51654087D02*
X98191203Y-52654087D01*
X98191203Y-52368373D02*
X98119774Y-52511230D01*
X98119774Y-52511230D02*
X98048346Y-52582658D01*
X98048346Y-52582658D02*
X97905488Y-52654087D01*
X97905488Y-52654087D02*
X97762631Y-52654087D01*
X91834063Y-48667742D02*
X91762634Y-48739171D01*
X91762634Y-48739171D02*
X91619777Y-48953457D01*
X91619777Y-48953457D02*
X91548349Y-49096314D01*
X91548349Y-49096314D02*
X91476920Y-49310600D01*
X91476920Y-49310600D02*
X91405491Y-49667742D01*
X91405491Y-49667742D02*
X91405491Y-49953457D01*
X91405491Y-49953457D02*
X91476920Y-50310600D01*
X91476920Y-50310600D02*
X91548349Y-50524885D01*
X91548349Y-50524885D02*
X91619777Y-50667742D01*
X91619777Y-50667742D02*
X91762634Y-50882028D01*
X91762634Y-50882028D02*
X91834063Y-50953457D01*
D10*
X177749819Y-110139411D02*
X177749819Y-110710839D01*
X177749819Y-110425125D02*
X176749819Y-110425125D01*
X176749819Y-110425125D02*
X176892676Y-110520363D01*
X176892676Y-110520363D02*
X176987914Y-110615601D01*
X176987914Y-110615601D02*
X177035533Y-110710839D01*
X176749819Y-109520363D02*
X176749819Y-109425125D01*
X176749819Y-109425125D02*
X176797438Y-109329887D01*
X176797438Y-109329887D02*
X176845057Y-109282268D01*
X176845057Y-109282268D02*
X176940295Y-109234649D01*
X176940295Y-109234649D02*
X177130771Y-109187030D01*
X177130771Y-109187030D02*
X177368866Y-109187030D01*
X177368866Y-109187030D02*
X177559342Y-109234649D01*
X177559342Y-109234649D02*
X177654580Y-109282268D01*
X177654580Y-109282268D02*
X177702200Y-109329887D01*
X177702200Y-109329887D02*
X177749819Y-109425125D01*
X177749819Y-109425125D02*
X177749819Y-109520363D01*
X177749819Y-109520363D02*
X177702200Y-109615601D01*
X177702200Y-109615601D02*
X177654580Y-109663220D01*
X177654580Y-109663220D02*
X177559342Y-109710839D01*
X177559342Y-109710839D02*
X177368866Y-109758458D01*
X177368866Y-109758458D02*
X177130771Y-109758458D01*
X177130771Y-109758458D02*
X176940295Y-109710839D01*
X176940295Y-109710839D02*
X176845057Y-109663220D01*
X176845057Y-109663220D02*
X176797438Y-109615601D01*
X176797438Y-109615601D02*
X176749819Y-109520363D01*
X177749819Y-108758458D02*
X176749819Y-108758458D01*
X177368866Y-108663220D02*
X177749819Y-108377506D01*
X177083152Y-108377506D02*
X177464104Y-108758458D01*
X182095350Y-126743152D02*
X182095350Y-127409819D01*
X181857255Y-126362200D02*
X181619160Y-127076485D01*
X181619160Y-127076485D02*
X182238207Y-127076485D01*
X182619160Y-127314580D02*
X182666779Y-127362200D01*
X182666779Y-127362200D02*
X182619160Y-127409819D01*
X182619160Y-127409819D02*
X182571541Y-127362200D01*
X182571541Y-127362200D02*
X182619160Y-127314580D01*
X182619160Y-127314580D02*
X182619160Y-127409819D01*
X183000112Y-126409819D02*
X183666778Y-126409819D01*
X183666778Y-126409819D02*
X183238207Y-127409819D01*
X184047731Y-126743152D02*
X184047731Y-127743152D01*
X184523921Y-127266961D02*
X184571540Y-127362200D01*
X184571540Y-127362200D02*
X184666778Y-127409819D01*
X184047731Y-127266961D02*
X184095350Y-127362200D01*
X184095350Y-127362200D02*
X184190588Y-127409819D01*
X184190588Y-127409819D02*
X184381064Y-127409819D01*
X184381064Y-127409819D02*
X184476302Y-127362200D01*
X184476302Y-127362200D02*
X184523921Y-127266961D01*
X184523921Y-127266961D02*
X184523921Y-126743152D01*
X156145350Y-70203152D02*
X156145350Y-70869819D01*
X155907255Y-69822200D02*
X155669160Y-70536485D01*
X155669160Y-70536485D02*
X156288207Y-70536485D01*
X156669160Y-70774580D02*
X156716779Y-70822200D01*
X156716779Y-70822200D02*
X156669160Y-70869819D01*
X156669160Y-70869819D02*
X156621541Y-70822200D01*
X156621541Y-70822200D02*
X156669160Y-70774580D01*
X156669160Y-70774580D02*
X156669160Y-70869819D01*
X157050112Y-69869819D02*
X157716778Y-69869819D01*
X157716778Y-69869819D02*
X157288207Y-70869819D01*
X158097731Y-70203152D02*
X158097731Y-71203152D01*
X158573921Y-70726961D02*
X158621540Y-70822200D01*
X158621540Y-70822200D02*
X158716778Y-70869819D01*
X158097731Y-70726961D02*
X158145350Y-70822200D01*
X158145350Y-70822200D02*
X158240588Y-70869819D01*
X158240588Y-70869819D02*
X158431064Y-70869819D01*
X158431064Y-70869819D02*
X158526302Y-70822200D01*
X158526302Y-70822200D02*
X158573921Y-70726961D01*
X158573921Y-70726961D02*
X158573921Y-70203152D01*
X213867438Y-121749411D02*
X213819819Y-121844649D01*
X213819819Y-121844649D02*
X213819819Y-121987506D01*
X213819819Y-121987506D02*
X213867438Y-122130363D01*
X213867438Y-122130363D02*
X213962676Y-122225601D01*
X213962676Y-122225601D02*
X214057914Y-122273220D01*
X214057914Y-122273220D02*
X214248390Y-122320839D01*
X214248390Y-122320839D02*
X214391247Y-122320839D01*
X214391247Y-122320839D02*
X214581723Y-122273220D01*
X214581723Y-122273220D02*
X214676961Y-122225601D01*
X214676961Y-122225601D02*
X214772200Y-122130363D01*
X214772200Y-122130363D02*
X214819819Y-121987506D01*
X214819819Y-121987506D02*
X214819819Y-121892268D01*
X214819819Y-121892268D02*
X214772200Y-121749411D01*
X214772200Y-121749411D02*
X214724580Y-121701792D01*
X214724580Y-121701792D02*
X214391247Y-121701792D01*
X214391247Y-121701792D02*
X214391247Y-121892268D01*
X214819819Y-121273220D02*
X213819819Y-121273220D01*
X213819819Y-121273220D02*
X214819819Y-120701792D01*
X214819819Y-120701792D02*
X213819819Y-120701792D01*
X214819819Y-120225601D02*
X213819819Y-120225601D01*
X213819819Y-120225601D02*
X213819819Y-119987506D01*
X213819819Y-119987506D02*
X213867438Y-119844649D01*
X213867438Y-119844649D02*
X213962676Y-119749411D01*
X213962676Y-119749411D02*
X214057914Y-119701792D01*
X214057914Y-119701792D02*
X214248390Y-119654173D01*
X214248390Y-119654173D02*
X214391247Y-119654173D01*
X214391247Y-119654173D02*
X214581723Y-119701792D01*
X214581723Y-119701792D02*
X214676961Y-119749411D01*
X214676961Y-119749411D02*
X214772200Y-119844649D01*
X214772200Y-119844649D02*
X214819819Y-119987506D01*
X214819819Y-119987506D02*
X214819819Y-120225601D01*
X220401738Y-97975838D02*
X220306500Y-97928219D01*
X220306500Y-97928219D02*
X220163643Y-97928219D01*
X220163643Y-97928219D02*
X220020786Y-97975838D01*
X220020786Y-97975838D02*
X219925548Y-98071076D01*
X219925548Y-98071076D02*
X219877929Y-98166314D01*
X219877929Y-98166314D02*
X219830310Y-98356790D01*
X219830310Y-98356790D02*
X219830310Y-98499647D01*
X219830310Y-98499647D02*
X219877929Y-98690123D01*
X219877929Y-98690123D02*
X219925548Y-98785361D01*
X219925548Y-98785361D02*
X220020786Y-98880600D01*
X220020786Y-98880600D02*
X220163643Y-98928219D01*
X220163643Y-98928219D02*
X220258881Y-98928219D01*
X220258881Y-98928219D02*
X220401738Y-98880600D01*
X220401738Y-98880600D02*
X220449357Y-98832980D01*
X220449357Y-98832980D02*
X220449357Y-98499647D01*
X220449357Y-98499647D02*
X220258881Y-98499647D01*
X220877929Y-98928219D02*
X220877929Y-97928219D01*
X220877929Y-97928219D02*
X221449357Y-98928219D01*
X221449357Y-98928219D02*
X221449357Y-97928219D01*
X221925548Y-98928219D02*
X221925548Y-97928219D01*
X221925548Y-97928219D02*
X222163643Y-97928219D01*
X222163643Y-97928219D02*
X222306500Y-97975838D01*
X222306500Y-97975838D02*
X222401738Y-98071076D01*
X222401738Y-98071076D02*
X222449357Y-98166314D01*
X222449357Y-98166314D02*
X222496976Y-98356790D01*
X222496976Y-98356790D02*
X222496976Y-98499647D01*
X222496976Y-98499647D02*
X222449357Y-98690123D01*
X222449357Y-98690123D02*
X222401738Y-98785361D01*
X222401738Y-98785361D02*
X222306500Y-98880600D01*
X222306500Y-98880600D02*
X222163643Y-98928219D01*
X222163643Y-98928219D02*
X221925548Y-98928219D01*
X124525350Y-112153152D02*
X124525350Y-112819819D01*
X124287255Y-111772200D02*
X124049160Y-112486485D01*
X124049160Y-112486485D02*
X124668207Y-112486485D01*
X125049160Y-112724580D02*
X125096779Y-112772200D01*
X125096779Y-112772200D02*
X125049160Y-112819819D01*
X125049160Y-112819819D02*
X125001541Y-112772200D01*
X125001541Y-112772200D02*
X125049160Y-112724580D01*
X125049160Y-112724580D02*
X125049160Y-112819819D01*
X125430112Y-111819819D02*
X126096778Y-111819819D01*
X126096778Y-111819819D02*
X125668207Y-112819819D01*
X126477731Y-112153152D02*
X126477731Y-113153152D01*
X126953921Y-112676961D02*
X127001540Y-112772200D01*
X127001540Y-112772200D02*
X127096778Y-112819819D01*
X126477731Y-112676961D02*
X126525350Y-112772200D01*
X126525350Y-112772200D02*
X126620588Y-112819819D01*
X126620588Y-112819819D02*
X126811064Y-112819819D01*
X126811064Y-112819819D02*
X126906302Y-112772200D01*
X126906302Y-112772200D02*
X126953921Y-112676961D01*
X126953921Y-112676961D02*
X126953921Y-112153152D01*
X105640588Y-112239819D02*
X105069160Y-112239819D01*
X105354874Y-112239819D02*
X105354874Y-111239819D01*
X105354874Y-111239819D02*
X105259636Y-111382676D01*
X105259636Y-111382676D02*
X105164398Y-111477914D01*
X105164398Y-111477914D02*
X105069160Y-111525533D01*
X106069160Y-111573152D02*
X106069160Y-112573152D01*
X106545350Y-112096961D02*
X106592969Y-112192200D01*
X106592969Y-112192200D02*
X106688207Y-112239819D01*
X106069160Y-112096961D02*
X106116779Y-112192200D01*
X106116779Y-112192200D02*
X106212017Y-112239819D01*
X106212017Y-112239819D02*
X106402493Y-112239819D01*
X106402493Y-112239819D02*
X106497731Y-112192200D01*
X106497731Y-112192200D02*
X106545350Y-112096961D01*
X106545350Y-112096961D02*
X106545350Y-111573152D01*
X163951595Y-29007804D02*
X163884251Y-29007804D01*
X163884251Y-29007804D02*
X163749564Y-28940461D01*
X163749564Y-28940461D02*
X163682221Y-28873117D01*
X163682221Y-28873117D02*
X163614877Y-28738430D01*
X163614877Y-28738430D02*
X163614877Y-28603743D01*
X163614877Y-28603743D02*
X163648549Y-28502728D01*
X163648549Y-28502728D02*
X163749564Y-28334369D01*
X163749564Y-28334369D02*
X163850579Y-28233354D01*
X163850579Y-28233354D02*
X164018938Y-28132339D01*
X164018938Y-28132339D02*
X164119953Y-28098667D01*
X164119953Y-28098667D02*
X164254641Y-28098667D01*
X164254641Y-28098667D02*
X164389328Y-28166010D01*
X164389328Y-28166010D02*
X164456671Y-28233354D01*
X164456671Y-28233354D02*
X164524015Y-28368041D01*
X164524015Y-28368041D02*
X164524015Y-28435384D01*
X165231121Y-29007804D02*
X164894404Y-28671087D01*
X164894404Y-28671087D02*
X164524015Y-28974132D01*
X164524015Y-28974132D02*
X164591358Y-28974132D01*
X164591358Y-28974132D02*
X164692373Y-29007804D01*
X164692373Y-29007804D02*
X164860732Y-29176163D01*
X164860732Y-29176163D02*
X164894404Y-29277178D01*
X164894404Y-29277178D02*
X164894404Y-29344522D01*
X164894404Y-29344522D02*
X164860732Y-29445537D01*
X164860732Y-29445537D02*
X164692373Y-29613896D01*
X164692373Y-29613896D02*
X164591358Y-29647567D01*
X164591358Y-29647567D02*
X164524015Y-29647567D01*
X164524015Y-29647567D02*
X164422999Y-29613896D01*
X164422999Y-29613896D02*
X164254641Y-29445537D01*
X164254641Y-29445537D02*
X164220969Y-29344522D01*
X164220969Y-29344522D02*
X164220969Y-29277178D01*
X161126595Y-28982804D02*
X161059251Y-28982804D01*
X161059251Y-28982804D02*
X160924564Y-28915461D01*
X160924564Y-28915461D02*
X160857221Y-28848117D01*
X160857221Y-28848117D02*
X160789877Y-28713430D01*
X160789877Y-28713430D02*
X160789877Y-28578743D01*
X160789877Y-28578743D02*
X160823549Y-28477728D01*
X160823549Y-28477728D02*
X160924564Y-28309369D01*
X160924564Y-28309369D02*
X161025579Y-28208354D01*
X161025579Y-28208354D02*
X161193938Y-28107339D01*
X161193938Y-28107339D02*
X161294953Y-28073667D01*
X161294953Y-28073667D02*
X161429641Y-28073667D01*
X161429641Y-28073667D02*
X161564328Y-28141010D01*
X161564328Y-28141010D02*
X161631671Y-28208354D01*
X161631671Y-28208354D02*
X161699015Y-28343041D01*
X161699015Y-28343041D02*
X161699015Y-28410384D01*
X162136747Y-29184835D02*
X161665343Y-29656239D01*
X162237763Y-28747102D02*
X161564328Y-29083819D01*
X161564328Y-29083819D02*
X162002060Y-29521552D01*
X154151595Y-29007804D02*
X154084251Y-29007804D01*
X154084251Y-29007804D02*
X153949564Y-28940461D01*
X153949564Y-28940461D02*
X153882221Y-28873117D01*
X153882221Y-28873117D02*
X153814877Y-28738430D01*
X153814877Y-28738430D02*
X153814877Y-28603743D01*
X153814877Y-28603743D02*
X153848549Y-28502728D01*
X153848549Y-28502728D02*
X153949564Y-28334369D01*
X153949564Y-28334369D02*
X154050579Y-28233354D01*
X154050579Y-28233354D02*
X154218938Y-28132339D01*
X154218938Y-28132339D02*
X154319953Y-28098667D01*
X154319953Y-28098667D02*
X154454641Y-28098667D01*
X154454641Y-28098667D02*
X154589328Y-28166010D01*
X154589328Y-28166010D02*
X154656671Y-28233354D01*
X154656671Y-28233354D02*
X154724015Y-28368041D01*
X154724015Y-28368041D02*
X154724015Y-28435384D01*
X155027060Y-28603743D02*
X155464793Y-29041476D01*
X155464793Y-29041476D02*
X154959717Y-29075148D01*
X154959717Y-29075148D02*
X155060732Y-29176163D01*
X155060732Y-29176163D02*
X155094404Y-29277178D01*
X155094404Y-29277178D02*
X155094404Y-29344522D01*
X155094404Y-29344522D02*
X155060732Y-29445537D01*
X155060732Y-29445537D02*
X154892373Y-29613896D01*
X154892373Y-29613896D02*
X154791358Y-29647567D01*
X154791358Y-29647567D02*
X154724015Y-29647567D01*
X154724015Y-29647567D02*
X154622999Y-29613896D01*
X154622999Y-29613896D02*
X154420969Y-29411865D01*
X154420969Y-29411865D02*
X154387297Y-29310850D01*
X154387297Y-29310850D02*
X154387297Y-29243506D01*
X216825072Y-99818219D02*
X217158405Y-100818219D01*
X217158405Y-100818219D02*
X217491738Y-99818219D01*
X217825072Y-100818219D02*
X217825072Y-99818219D01*
X217825072Y-99818219D02*
X218063167Y-99818219D01*
X218063167Y-99818219D02*
X218206024Y-99865838D01*
X218206024Y-99865838D02*
X218301262Y-99961076D01*
X218301262Y-99961076D02*
X218348881Y-100056314D01*
X218348881Y-100056314D02*
X218396500Y-100246790D01*
X218396500Y-100246790D02*
X218396500Y-100389647D01*
X218396500Y-100389647D02*
X218348881Y-100580123D01*
X218348881Y-100580123D02*
X218301262Y-100675361D01*
X218301262Y-100675361D02*
X218206024Y-100770600D01*
X218206024Y-100770600D02*
X218063167Y-100818219D01*
X218063167Y-100818219D02*
X217825072Y-100818219D01*
X218825072Y-100818219D02*
X218825072Y-99818219D01*
X218825072Y-99818219D02*
X219063167Y-99818219D01*
X219063167Y-99818219D02*
X219206024Y-99865838D01*
X219206024Y-99865838D02*
X219301262Y-99961076D01*
X219301262Y-99961076D02*
X219348881Y-100056314D01*
X219348881Y-100056314D02*
X219396500Y-100246790D01*
X219396500Y-100246790D02*
X219396500Y-100389647D01*
X219396500Y-100389647D02*
X219348881Y-100580123D01*
X219348881Y-100580123D02*
X219301262Y-100675361D01*
X219301262Y-100675361D02*
X219206024Y-100770600D01*
X219206024Y-100770600D02*
X219063167Y-100818219D01*
X219063167Y-100818219D02*
X218825072Y-100818219D01*
X165819819Y-66989411D02*
X165819819Y-67560839D01*
X165819819Y-67275125D02*
X164819819Y-67275125D01*
X164819819Y-67275125D02*
X164962676Y-67370363D01*
X164962676Y-67370363D02*
X165057914Y-67465601D01*
X165057914Y-67465601D02*
X165105533Y-67560839D01*
X165153152Y-66560839D02*
X166153152Y-66560839D01*
X165676961Y-66084649D02*
X165772200Y-66037030D01*
X165772200Y-66037030D02*
X165819819Y-65941792D01*
X165676961Y-66560839D02*
X165772200Y-66513220D01*
X165772200Y-66513220D02*
X165819819Y-66417982D01*
X165819819Y-66417982D02*
X165819819Y-66227506D01*
X165819819Y-66227506D02*
X165772200Y-66132268D01*
X165772200Y-66132268D02*
X165676961Y-66084649D01*
X165676961Y-66084649D02*
X165153152Y-66084649D01*
X101953152Y-97374649D02*
X102619819Y-97374649D01*
X101572200Y-97612744D02*
X102286485Y-97850839D01*
X102286485Y-97850839D02*
X102286485Y-97231792D01*
X102524580Y-96850839D02*
X102572200Y-96803220D01*
X102572200Y-96803220D02*
X102619819Y-96850839D01*
X102619819Y-96850839D02*
X102572200Y-96898458D01*
X102572200Y-96898458D02*
X102524580Y-96850839D01*
X102524580Y-96850839D02*
X102619819Y-96850839D01*
X101619819Y-96469887D02*
X101619819Y-95803221D01*
X101619819Y-95803221D02*
X102619819Y-96231792D01*
X101953152Y-95422268D02*
X102953152Y-95422268D01*
X102476961Y-94946078D02*
X102572200Y-94898459D01*
X102572200Y-94898459D02*
X102619819Y-94803221D01*
X102476961Y-95422268D02*
X102572200Y-95374649D01*
X102572200Y-95374649D02*
X102619819Y-95279411D01*
X102619819Y-95279411D02*
X102619819Y-95088935D01*
X102619819Y-95088935D02*
X102572200Y-94993697D01*
X102572200Y-94993697D02*
X102476961Y-94946078D01*
X102476961Y-94946078D02*
X101953152Y-94946078D01*
X140599160Y-123335057D02*
X140646779Y-123287438D01*
X140646779Y-123287438D02*
X140742017Y-123239819D01*
X140742017Y-123239819D02*
X140980112Y-123239819D01*
X140980112Y-123239819D02*
X141075350Y-123287438D01*
X141075350Y-123287438D02*
X141122969Y-123335057D01*
X141122969Y-123335057D02*
X141170588Y-123430295D01*
X141170588Y-123430295D02*
X141170588Y-123525533D01*
X141170588Y-123525533D02*
X141122969Y-123668390D01*
X141122969Y-123668390D02*
X140551541Y-124239819D01*
X140551541Y-124239819D02*
X141170588Y-124239819D01*
X141599160Y-124144580D02*
X141646779Y-124192200D01*
X141646779Y-124192200D02*
X141599160Y-124239819D01*
X141599160Y-124239819D02*
X141551541Y-124192200D01*
X141551541Y-124192200D02*
X141599160Y-124144580D01*
X141599160Y-124144580D02*
X141599160Y-124239819D01*
X141980112Y-123239819D02*
X142646778Y-123239819D01*
X142646778Y-123239819D02*
X142218207Y-124239819D01*
X143027731Y-123573152D02*
X143027731Y-124239819D01*
X143027731Y-123668390D02*
X143075350Y-123620771D01*
X143075350Y-123620771D02*
X143170588Y-123573152D01*
X143170588Y-123573152D02*
X143313445Y-123573152D01*
X143313445Y-123573152D02*
X143408683Y-123620771D01*
X143408683Y-123620771D02*
X143456302Y-123716009D01*
X143456302Y-123716009D02*
X143456302Y-124239819D01*
X149059251Y-29075148D02*
X149160266Y-28502728D01*
X148655190Y-28671087D02*
X149362297Y-27963980D01*
X149362297Y-27963980D02*
X149631671Y-28233354D01*
X149631671Y-28233354D02*
X149665343Y-28334369D01*
X149665343Y-28334369D02*
X149665343Y-28401713D01*
X149665343Y-28401713D02*
X149631671Y-28502728D01*
X149631671Y-28502728D02*
X149530656Y-28603743D01*
X149530656Y-28603743D02*
X149429641Y-28637415D01*
X149429641Y-28637415D02*
X149362297Y-28637415D01*
X149362297Y-28637415D02*
X149261282Y-28603743D01*
X149261282Y-28603743D02*
X148991908Y-28334369D01*
X150002060Y-28603743D02*
X150439793Y-29041476D01*
X150439793Y-29041476D02*
X149934717Y-29075148D01*
X149934717Y-29075148D02*
X150035732Y-29176163D01*
X150035732Y-29176163D02*
X150069404Y-29277178D01*
X150069404Y-29277178D02*
X150069404Y-29344522D01*
X150069404Y-29344522D02*
X150035732Y-29445537D01*
X150035732Y-29445537D02*
X149867373Y-29613896D01*
X149867373Y-29613896D02*
X149766358Y-29647567D01*
X149766358Y-29647567D02*
X149699015Y-29647567D01*
X149699015Y-29647567D02*
X149597999Y-29613896D01*
X149597999Y-29613896D02*
X149395969Y-29411865D01*
X149395969Y-29411865D02*
X149362297Y-29310850D01*
X149362297Y-29310850D02*
X149362297Y-29243506D01*
X158334251Y-29100148D02*
X158435266Y-28527728D01*
X157930190Y-28696087D02*
X158637297Y-27988980D01*
X158637297Y-27988980D02*
X158906671Y-28258354D01*
X158906671Y-28258354D02*
X158940343Y-28359369D01*
X158940343Y-28359369D02*
X158940343Y-28426713D01*
X158940343Y-28426713D02*
X158906671Y-28527728D01*
X158906671Y-28527728D02*
X158805656Y-28628743D01*
X158805656Y-28628743D02*
X158704641Y-28662415D01*
X158704641Y-28662415D02*
X158637297Y-28662415D01*
X158637297Y-28662415D02*
X158536282Y-28628743D01*
X158536282Y-28628743D02*
X158266908Y-28359369D01*
X159411747Y-29234835D02*
X158940343Y-29706239D01*
X159512763Y-28797102D02*
X158839328Y-29133819D01*
X158839328Y-29133819D02*
X159277060Y-29571552D01*
X209482200Y-124240839D02*
X209529819Y-124097982D01*
X209529819Y-124097982D02*
X209529819Y-123859887D01*
X209529819Y-123859887D02*
X209482200Y-123764649D01*
X209482200Y-123764649D02*
X209434580Y-123717030D01*
X209434580Y-123717030D02*
X209339342Y-123669411D01*
X209339342Y-123669411D02*
X209244104Y-123669411D01*
X209244104Y-123669411D02*
X209148866Y-123717030D01*
X209148866Y-123717030D02*
X209101247Y-123764649D01*
X209101247Y-123764649D02*
X209053628Y-123859887D01*
X209053628Y-123859887D02*
X209006009Y-124050363D01*
X209006009Y-124050363D02*
X208958390Y-124145601D01*
X208958390Y-124145601D02*
X208910771Y-124193220D01*
X208910771Y-124193220D02*
X208815533Y-124240839D01*
X208815533Y-124240839D02*
X208720295Y-124240839D01*
X208720295Y-124240839D02*
X208625057Y-124193220D01*
X208625057Y-124193220D02*
X208577438Y-124145601D01*
X208577438Y-124145601D02*
X208529819Y-124050363D01*
X208529819Y-124050363D02*
X208529819Y-123812268D01*
X208529819Y-123812268D02*
X208577438Y-123669411D01*
X208529819Y-123336077D02*
X209529819Y-123097982D01*
X209529819Y-123097982D02*
X208815533Y-122907506D01*
X208815533Y-122907506D02*
X209529819Y-122717030D01*
X209529819Y-122717030D02*
X208529819Y-122478935D01*
X209434580Y-121526554D02*
X209482200Y-121574173D01*
X209482200Y-121574173D02*
X209529819Y-121717030D01*
X209529819Y-121717030D02*
X209529819Y-121812268D01*
X209529819Y-121812268D02*
X209482200Y-121955125D01*
X209482200Y-121955125D02*
X209386961Y-122050363D01*
X209386961Y-122050363D02*
X209291723Y-122097982D01*
X209291723Y-122097982D02*
X209101247Y-122145601D01*
X209101247Y-122145601D02*
X208958390Y-122145601D01*
X208958390Y-122145601D02*
X208767914Y-122097982D01*
X208767914Y-122097982D02*
X208672676Y-122050363D01*
X208672676Y-122050363D02*
X208577438Y-121955125D01*
X208577438Y-121955125D02*
X208529819Y-121812268D01*
X208529819Y-121812268D02*
X208529819Y-121717030D01*
X208529819Y-121717030D02*
X208577438Y-121574173D01*
X208577438Y-121574173D02*
X208625057Y-121526554D01*
X209529819Y-120621792D02*
X209529819Y-121097982D01*
X209529819Y-121097982D02*
X208529819Y-121097982D01*
X209529819Y-120288458D02*
X208529819Y-120288458D01*
X209529819Y-119717030D02*
X208958390Y-120145601D01*
X208529819Y-119717030D02*
X209101247Y-120288458D01*
X156159251Y-29050148D02*
X156260266Y-28477728D01*
X155755190Y-28646087D02*
X156462297Y-27938980D01*
X156462297Y-27938980D02*
X156731671Y-28208354D01*
X156731671Y-28208354D02*
X156765343Y-28309369D01*
X156765343Y-28309369D02*
X156765343Y-28376713D01*
X156765343Y-28376713D02*
X156731671Y-28477728D01*
X156731671Y-28477728D02*
X156630656Y-28578743D01*
X156630656Y-28578743D02*
X156529641Y-28612415D01*
X156529641Y-28612415D02*
X156462297Y-28612415D01*
X156462297Y-28612415D02*
X156361282Y-28578743D01*
X156361282Y-28578743D02*
X156091908Y-28309369D01*
X156832686Y-29723583D02*
X156428625Y-29319522D01*
X156630656Y-29521552D02*
X157337763Y-28814445D01*
X157337763Y-28814445D02*
X157169404Y-28848117D01*
X157169404Y-28848117D02*
X157034717Y-28848117D01*
X157034717Y-28848117D02*
X156933702Y-28814445D01*
X118949160Y-123135057D02*
X118996779Y-123087438D01*
X118996779Y-123087438D02*
X119092017Y-123039819D01*
X119092017Y-123039819D02*
X119330112Y-123039819D01*
X119330112Y-123039819D02*
X119425350Y-123087438D01*
X119425350Y-123087438D02*
X119472969Y-123135057D01*
X119472969Y-123135057D02*
X119520588Y-123230295D01*
X119520588Y-123230295D02*
X119520588Y-123325533D01*
X119520588Y-123325533D02*
X119472969Y-123468390D01*
X119472969Y-123468390D02*
X118901541Y-124039819D01*
X118901541Y-124039819D02*
X119520588Y-124039819D01*
X119949160Y-123944580D02*
X119996779Y-123992200D01*
X119996779Y-123992200D02*
X119949160Y-124039819D01*
X119949160Y-124039819D02*
X119901541Y-123992200D01*
X119901541Y-123992200D02*
X119949160Y-123944580D01*
X119949160Y-123944580D02*
X119949160Y-124039819D01*
X120330112Y-123039819D02*
X120996778Y-123039819D01*
X120996778Y-123039819D02*
X120568207Y-124039819D01*
X121377731Y-123373152D02*
X121377731Y-124039819D01*
X121377731Y-123468390D02*
X121425350Y-123420771D01*
X121425350Y-123420771D02*
X121520588Y-123373152D01*
X121520588Y-123373152D02*
X121663445Y-123373152D01*
X121663445Y-123373152D02*
X121758683Y-123420771D01*
X121758683Y-123420771D02*
X121806302Y-123516009D01*
X121806302Y-123516009D02*
X121806302Y-124039819D01*
D12*
X161393809Y-129924318D02*
X161393809Y-128654318D01*
X161393809Y-128654318D02*
X161696190Y-128654318D01*
X161696190Y-128654318D02*
X161877619Y-128714794D01*
X161877619Y-128714794D02*
X161998571Y-128835746D01*
X161998571Y-128835746D02*
X162059048Y-128956699D01*
X162059048Y-128956699D02*
X162119524Y-129198603D01*
X162119524Y-129198603D02*
X162119524Y-129380032D01*
X162119524Y-129380032D02*
X162059048Y-129621937D01*
X162059048Y-129621937D02*
X161998571Y-129742889D01*
X161998571Y-129742889D02*
X161877619Y-129863842D01*
X161877619Y-129863842D02*
X161696190Y-129924318D01*
X161696190Y-129924318D02*
X161393809Y-129924318D01*
X162663809Y-129924318D02*
X162663809Y-129077651D01*
X162663809Y-128654318D02*
X162603333Y-128714794D01*
X162603333Y-128714794D02*
X162663809Y-128775270D01*
X162663809Y-128775270D02*
X162724286Y-128714794D01*
X162724286Y-128714794D02*
X162663809Y-128654318D01*
X162663809Y-128654318D02*
X162663809Y-128775270D01*
X163812857Y-129077651D02*
X163812857Y-130105746D01*
X163812857Y-130105746D02*
X163752381Y-130226699D01*
X163752381Y-130226699D02*
X163691905Y-130287175D01*
X163691905Y-130287175D02*
X163570952Y-130347651D01*
X163570952Y-130347651D02*
X163389524Y-130347651D01*
X163389524Y-130347651D02*
X163268571Y-130287175D01*
X163812857Y-129863842D02*
X163691905Y-129924318D01*
X163691905Y-129924318D02*
X163450000Y-129924318D01*
X163450000Y-129924318D02*
X163329048Y-129863842D01*
X163329048Y-129863842D02*
X163268571Y-129803365D01*
X163268571Y-129803365D02*
X163208095Y-129682413D01*
X163208095Y-129682413D02*
X163208095Y-129319556D01*
X163208095Y-129319556D02*
X163268571Y-129198603D01*
X163268571Y-129198603D02*
X163329048Y-129138127D01*
X163329048Y-129138127D02*
X163450000Y-129077651D01*
X163450000Y-129077651D02*
X163691905Y-129077651D01*
X163691905Y-129077651D02*
X163812857Y-129138127D01*
X164417619Y-129924318D02*
X164417619Y-129077651D01*
X164417619Y-128654318D02*
X164357143Y-128714794D01*
X164357143Y-128714794D02*
X164417619Y-128775270D01*
X164417619Y-128775270D02*
X164478096Y-128714794D01*
X164478096Y-128714794D02*
X164417619Y-128654318D01*
X164417619Y-128654318D02*
X164417619Y-128775270D01*
X164840953Y-129077651D02*
X165324762Y-129077651D01*
X165022381Y-128654318D02*
X165022381Y-129742889D01*
X165022381Y-129742889D02*
X165082858Y-129863842D01*
X165082858Y-129863842D02*
X165203810Y-129924318D01*
X165203810Y-129924318D02*
X165324762Y-129924318D01*
X166292381Y-129924318D02*
X166292381Y-129259080D01*
X166292381Y-129259080D02*
X166231905Y-129138127D01*
X166231905Y-129138127D02*
X166110953Y-129077651D01*
X166110953Y-129077651D02*
X165869048Y-129077651D01*
X165869048Y-129077651D02*
X165748095Y-129138127D01*
X166292381Y-129863842D02*
X166171429Y-129924318D01*
X166171429Y-129924318D02*
X165869048Y-129924318D01*
X165869048Y-129924318D02*
X165748095Y-129863842D01*
X165748095Y-129863842D02*
X165687619Y-129742889D01*
X165687619Y-129742889D02*
X165687619Y-129621937D01*
X165687619Y-129621937D02*
X165748095Y-129500984D01*
X165748095Y-129500984D02*
X165869048Y-129440508D01*
X165869048Y-129440508D02*
X166171429Y-129440508D01*
X166171429Y-129440508D02*
X166292381Y-129380032D01*
X167078572Y-129924318D02*
X166957620Y-129863842D01*
X166957620Y-129863842D02*
X166897143Y-129742889D01*
X166897143Y-129742889D02*
X166897143Y-128654318D01*
X167804286Y-128654318D02*
X168046191Y-128654318D01*
X168046191Y-128654318D02*
X168167143Y-128714794D01*
X168167143Y-128714794D02*
X168288096Y-128835746D01*
X168288096Y-128835746D02*
X168348572Y-129077651D01*
X168348572Y-129077651D02*
X168348572Y-129500984D01*
X168348572Y-129500984D02*
X168288096Y-129742889D01*
X168288096Y-129742889D02*
X168167143Y-129863842D01*
X168167143Y-129863842D02*
X168046191Y-129924318D01*
X168046191Y-129924318D02*
X167804286Y-129924318D01*
X167804286Y-129924318D02*
X167683334Y-129863842D01*
X167683334Y-129863842D02*
X167562381Y-129742889D01*
X167562381Y-129742889D02*
X167501905Y-129500984D01*
X167501905Y-129500984D02*
X167501905Y-129077651D01*
X167501905Y-129077651D02*
X167562381Y-128835746D01*
X167562381Y-128835746D02*
X167683334Y-128714794D01*
X167683334Y-128714794D02*
X167804286Y-128654318D01*
X168892857Y-128654318D02*
X168892857Y-129682413D01*
X168892857Y-129682413D02*
X168953334Y-129803365D01*
X168953334Y-129803365D02*
X169013810Y-129863842D01*
X169013810Y-129863842D02*
X169134762Y-129924318D01*
X169134762Y-129924318D02*
X169376667Y-129924318D01*
X169376667Y-129924318D02*
X169497619Y-129863842D01*
X169497619Y-129863842D02*
X169558096Y-129803365D01*
X169558096Y-129803365D02*
X169618572Y-129682413D01*
X169618572Y-129682413D02*
X169618572Y-128654318D01*
X170041905Y-128654318D02*
X170767619Y-128654318D01*
X170404762Y-129924318D02*
X170404762Y-128654318D01*
D10*
X161130476Y-104287200D02*
X161273333Y-104334819D01*
X161273333Y-104334819D02*
X161511428Y-104334819D01*
X161511428Y-104334819D02*
X161606666Y-104287200D01*
X161606666Y-104287200D02*
X161654285Y-104239580D01*
X161654285Y-104239580D02*
X161701904Y-104144342D01*
X161701904Y-104144342D02*
X161701904Y-104049104D01*
X161701904Y-104049104D02*
X161654285Y-103953866D01*
X161654285Y-103953866D02*
X161606666Y-103906247D01*
X161606666Y-103906247D02*
X161511428Y-103858628D01*
X161511428Y-103858628D02*
X161320952Y-103811009D01*
X161320952Y-103811009D02*
X161225714Y-103763390D01*
X161225714Y-103763390D02*
X161178095Y-103715771D01*
X161178095Y-103715771D02*
X161130476Y-103620533D01*
X161130476Y-103620533D02*
X161130476Y-103525295D01*
X161130476Y-103525295D02*
X161178095Y-103430057D01*
X161178095Y-103430057D02*
X161225714Y-103382438D01*
X161225714Y-103382438D02*
X161320952Y-103334819D01*
X161320952Y-103334819D02*
X161559047Y-103334819D01*
X161559047Y-103334819D02*
X161701904Y-103382438D01*
X162130476Y-104334819D02*
X162130476Y-103334819D01*
X162130476Y-103334819D02*
X162511428Y-103334819D01*
X162511428Y-103334819D02*
X162606666Y-103382438D01*
X162606666Y-103382438D02*
X162654285Y-103430057D01*
X162654285Y-103430057D02*
X162701904Y-103525295D01*
X162701904Y-103525295D02*
X162701904Y-103668152D01*
X162701904Y-103668152D02*
X162654285Y-103763390D01*
X162654285Y-103763390D02*
X162606666Y-103811009D01*
X162606666Y-103811009D02*
X162511428Y-103858628D01*
X162511428Y-103858628D02*
X162130476Y-103858628D01*
X163130476Y-104334819D02*
X163130476Y-103334819D01*
X163130476Y-103334819D02*
X163368571Y-103334819D01*
X163368571Y-103334819D02*
X163511428Y-103382438D01*
X163511428Y-103382438D02*
X163606666Y-103477676D01*
X163606666Y-103477676D02*
X163654285Y-103572914D01*
X163654285Y-103572914D02*
X163701904Y-103763390D01*
X163701904Y-103763390D02*
X163701904Y-103906247D01*
X163701904Y-103906247D02*
X163654285Y-104096723D01*
X163654285Y-104096723D02*
X163606666Y-104191961D01*
X163606666Y-104191961D02*
X163511428Y-104287200D01*
X163511428Y-104287200D02*
X163368571Y-104334819D01*
X163368571Y-104334819D02*
X163130476Y-104334819D01*
X164130476Y-104334819D02*
X164130476Y-103334819D01*
X164939999Y-103811009D02*
X164606666Y-103811009D01*
X164606666Y-104334819D02*
X164606666Y-103334819D01*
X164606666Y-103334819D02*
X165082856Y-103334819D01*
X165320952Y-103334819D02*
X165892380Y-103334819D01*
X165606666Y-104334819D02*
X165606666Y-103334819D01*
X166130476Y-103334819D02*
X166797142Y-104334819D01*
X166797142Y-103334819D02*
X166130476Y-104334819D01*
X164449999Y-122194819D02*
X163973809Y-122194819D01*
X163973809Y-122194819D02*
X163973809Y-121194819D01*
X165259523Y-122194819D02*
X164783333Y-122194819D01*
X164783333Y-122194819D02*
X164783333Y-121194819D01*
X165545238Y-122147200D02*
X165688095Y-122194819D01*
X165688095Y-122194819D02*
X165926190Y-122194819D01*
X165926190Y-122194819D02*
X166021428Y-122147200D01*
X166021428Y-122147200D02*
X166069047Y-122099580D01*
X166069047Y-122099580D02*
X166116666Y-122004342D01*
X166116666Y-122004342D02*
X166116666Y-121909104D01*
X166116666Y-121909104D02*
X166069047Y-121813866D01*
X166069047Y-121813866D02*
X166021428Y-121766247D01*
X166021428Y-121766247D02*
X165926190Y-121718628D01*
X165926190Y-121718628D02*
X165735714Y-121671009D01*
X165735714Y-121671009D02*
X165640476Y-121623390D01*
X165640476Y-121623390D02*
X165592857Y-121575771D01*
X165592857Y-121575771D02*
X165545238Y-121480533D01*
X165545238Y-121480533D02*
X165545238Y-121385295D01*
X165545238Y-121385295D02*
X165592857Y-121290057D01*
X165592857Y-121290057D02*
X165640476Y-121242438D01*
X165640476Y-121242438D02*
X165735714Y-121194819D01*
X165735714Y-121194819D02*
X165973809Y-121194819D01*
X165973809Y-121194819D02*
X166116666Y-121242438D01*
X166735714Y-121194819D02*
X166926190Y-121194819D01*
X166926190Y-121194819D02*
X167021428Y-121242438D01*
X167021428Y-121242438D02*
X167116666Y-121337676D01*
X167116666Y-121337676D02*
X167164285Y-121528152D01*
X167164285Y-121528152D02*
X167164285Y-121861485D01*
X167164285Y-121861485D02*
X167116666Y-122051961D01*
X167116666Y-122051961D02*
X167021428Y-122147200D01*
X167021428Y-122147200D02*
X166926190Y-122194819D01*
X166926190Y-122194819D02*
X166735714Y-122194819D01*
X166735714Y-122194819D02*
X166640476Y-122147200D01*
X166640476Y-122147200D02*
X166545238Y-122051961D01*
X166545238Y-122051961D02*
X166497619Y-121861485D01*
X166497619Y-121861485D02*
X166497619Y-121528152D01*
X166497619Y-121528152D02*
X166545238Y-121337676D01*
X166545238Y-121337676D02*
X166640476Y-121242438D01*
X166640476Y-121242438D02*
X166735714Y-121194819D01*
X167592857Y-121194819D02*
X167592857Y-122004342D01*
X167592857Y-122004342D02*
X167640476Y-122099580D01*
X167640476Y-122099580D02*
X167688095Y-122147200D01*
X167688095Y-122147200D02*
X167783333Y-122194819D01*
X167783333Y-122194819D02*
X167973809Y-122194819D01*
X167973809Y-122194819D02*
X168069047Y-122147200D01*
X168069047Y-122147200D02*
X168116666Y-122099580D01*
X168116666Y-122099580D02*
X168164285Y-122004342D01*
X168164285Y-122004342D02*
X168164285Y-121194819D01*
X168497619Y-121194819D02*
X169069047Y-121194819D01*
X168783333Y-122194819D02*
X168783333Y-121194819D01*
X209912857Y-114637200D02*
X210055714Y-114684819D01*
X210055714Y-114684819D02*
X210293809Y-114684819D01*
X210293809Y-114684819D02*
X210389047Y-114637200D01*
X210389047Y-114637200D02*
X210436666Y-114589580D01*
X210436666Y-114589580D02*
X210484285Y-114494342D01*
X210484285Y-114494342D02*
X210484285Y-114399104D01*
X210484285Y-114399104D02*
X210436666Y-114303866D01*
X210436666Y-114303866D02*
X210389047Y-114256247D01*
X210389047Y-114256247D02*
X210293809Y-114208628D01*
X210293809Y-114208628D02*
X210103333Y-114161009D01*
X210103333Y-114161009D02*
X210008095Y-114113390D01*
X210008095Y-114113390D02*
X209960476Y-114065771D01*
X209960476Y-114065771D02*
X209912857Y-113970533D01*
X209912857Y-113970533D02*
X209912857Y-113875295D01*
X209912857Y-113875295D02*
X209960476Y-113780057D01*
X209960476Y-113780057D02*
X210008095Y-113732438D01*
X210008095Y-113732438D02*
X210103333Y-113684819D01*
X210103333Y-113684819D02*
X210341428Y-113684819D01*
X210341428Y-113684819D02*
X210484285Y-113732438D01*
X210817619Y-113684819D02*
X211055714Y-114684819D01*
X211055714Y-114684819D02*
X211246190Y-113970533D01*
X211246190Y-113970533D02*
X211436666Y-114684819D01*
X211436666Y-114684819D02*
X211674762Y-113684819D01*
X212055714Y-114684819D02*
X212055714Y-113684819D01*
X212055714Y-113684819D02*
X212293809Y-113684819D01*
X212293809Y-113684819D02*
X212436666Y-113732438D01*
X212436666Y-113732438D02*
X212531904Y-113827676D01*
X212531904Y-113827676D02*
X212579523Y-113922914D01*
X212579523Y-113922914D02*
X212627142Y-114113390D01*
X212627142Y-114113390D02*
X212627142Y-114256247D01*
X212627142Y-114256247D02*
X212579523Y-114446723D01*
X212579523Y-114446723D02*
X212531904Y-114541961D01*
X212531904Y-114541961D02*
X212436666Y-114637200D01*
X212436666Y-114637200D02*
X212293809Y-114684819D01*
X212293809Y-114684819D02*
X212055714Y-114684819D01*
D12*
X146620475Y-130244318D02*
X146620475Y-128974318D01*
X146620475Y-128974318D02*
X146922856Y-128974318D01*
X146922856Y-128974318D02*
X147104285Y-129034794D01*
X147104285Y-129034794D02*
X147225237Y-129155746D01*
X147225237Y-129155746D02*
X147285714Y-129276699D01*
X147285714Y-129276699D02*
X147346190Y-129518603D01*
X147346190Y-129518603D02*
X147346190Y-129700032D01*
X147346190Y-129700032D02*
X147285714Y-129941937D01*
X147285714Y-129941937D02*
X147225237Y-130062889D01*
X147225237Y-130062889D02*
X147104285Y-130183842D01*
X147104285Y-130183842D02*
X146922856Y-130244318D01*
X146922856Y-130244318D02*
X146620475Y-130244318D01*
X147890475Y-130244318D02*
X147890475Y-129397651D01*
X147890475Y-128974318D02*
X147829999Y-129034794D01*
X147829999Y-129034794D02*
X147890475Y-129095270D01*
X147890475Y-129095270D02*
X147950952Y-129034794D01*
X147950952Y-129034794D02*
X147890475Y-128974318D01*
X147890475Y-128974318D02*
X147890475Y-129095270D01*
X149039523Y-129397651D02*
X149039523Y-130425746D01*
X149039523Y-130425746D02*
X148979047Y-130546699D01*
X148979047Y-130546699D02*
X148918571Y-130607175D01*
X148918571Y-130607175D02*
X148797618Y-130667651D01*
X148797618Y-130667651D02*
X148616190Y-130667651D01*
X148616190Y-130667651D02*
X148495237Y-130607175D01*
X149039523Y-130183842D02*
X148918571Y-130244318D01*
X148918571Y-130244318D02*
X148676666Y-130244318D01*
X148676666Y-130244318D02*
X148555714Y-130183842D01*
X148555714Y-130183842D02*
X148495237Y-130123365D01*
X148495237Y-130123365D02*
X148434761Y-130002413D01*
X148434761Y-130002413D02*
X148434761Y-129639556D01*
X148434761Y-129639556D02*
X148495237Y-129518603D01*
X148495237Y-129518603D02*
X148555714Y-129458127D01*
X148555714Y-129458127D02*
X148676666Y-129397651D01*
X148676666Y-129397651D02*
X148918571Y-129397651D01*
X148918571Y-129397651D02*
X149039523Y-129458127D01*
X149644285Y-130244318D02*
X149644285Y-129397651D01*
X149644285Y-128974318D02*
X149583809Y-129034794D01*
X149583809Y-129034794D02*
X149644285Y-129095270D01*
X149644285Y-129095270D02*
X149704762Y-129034794D01*
X149704762Y-129034794D02*
X149644285Y-128974318D01*
X149644285Y-128974318D02*
X149644285Y-129095270D01*
X150067619Y-129397651D02*
X150551428Y-129397651D01*
X150249047Y-128974318D02*
X150249047Y-130062889D01*
X150249047Y-130062889D02*
X150309524Y-130183842D01*
X150309524Y-130183842D02*
X150430476Y-130244318D01*
X150430476Y-130244318D02*
X150551428Y-130244318D01*
X151519047Y-130244318D02*
X151519047Y-129579080D01*
X151519047Y-129579080D02*
X151458571Y-129458127D01*
X151458571Y-129458127D02*
X151337619Y-129397651D01*
X151337619Y-129397651D02*
X151095714Y-129397651D01*
X151095714Y-129397651D02*
X150974761Y-129458127D01*
X151519047Y-130183842D02*
X151398095Y-130244318D01*
X151398095Y-130244318D02*
X151095714Y-130244318D01*
X151095714Y-130244318D02*
X150974761Y-130183842D01*
X150974761Y-130183842D02*
X150914285Y-130062889D01*
X150914285Y-130062889D02*
X150914285Y-129941937D01*
X150914285Y-129941937D02*
X150974761Y-129820984D01*
X150974761Y-129820984D02*
X151095714Y-129760508D01*
X151095714Y-129760508D02*
X151398095Y-129760508D01*
X151398095Y-129760508D02*
X151519047Y-129700032D01*
X152305238Y-130244318D02*
X152184286Y-130183842D01*
X152184286Y-130183842D02*
X152123809Y-130062889D01*
X152123809Y-130062889D02*
X152123809Y-128974318D01*
X152789047Y-130244318D02*
X152789047Y-128974318D01*
X153393809Y-130244318D02*
X153393809Y-128974318D01*
X153393809Y-128974318D02*
X154119524Y-130244318D01*
X154119524Y-130244318D02*
X154119524Y-128974318D01*
D10*
X192757618Y-109454819D02*
X192424285Y-108978628D01*
X192186190Y-109454819D02*
X192186190Y-108454819D01*
X192186190Y-108454819D02*
X192567142Y-108454819D01*
X192567142Y-108454819D02*
X192662380Y-108502438D01*
X192662380Y-108502438D02*
X192709999Y-108550057D01*
X192709999Y-108550057D02*
X192757618Y-108645295D01*
X192757618Y-108645295D02*
X192757618Y-108788152D01*
X192757618Y-108788152D02*
X192709999Y-108883390D01*
X192709999Y-108883390D02*
X192662380Y-108931009D01*
X192662380Y-108931009D02*
X192567142Y-108978628D01*
X192567142Y-108978628D02*
X192186190Y-108978628D01*
X193186190Y-108931009D02*
X193519523Y-108931009D01*
X193662380Y-109454819D02*
X193186190Y-109454819D01*
X193186190Y-109454819D02*
X193186190Y-108454819D01*
X193186190Y-108454819D02*
X193662380Y-108454819D01*
X194043333Y-109407200D02*
X194186190Y-109454819D01*
X194186190Y-109454819D02*
X194424285Y-109454819D01*
X194424285Y-109454819D02*
X194519523Y-109407200D01*
X194519523Y-109407200D02*
X194567142Y-109359580D01*
X194567142Y-109359580D02*
X194614761Y-109264342D01*
X194614761Y-109264342D02*
X194614761Y-109169104D01*
X194614761Y-109169104D02*
X194567142Y-109073866D01*
X194567142Y-109073866D02*
X194519523Y-109026247D01*
X194519523Y-109026247D02*
X194424285Y-108978628D01*
X194424285Y-108978628D02*
X194233809Y-108931009D01*
X194233809Y-108931009D02*
X194138571Y-108883390D01*
X194138571Y-108883390D02*
X194090952Y-108835771D01*
X194090952Y-108835771D02*
X194043333Y-108740533D01*
X194043333Y-108740533D02*
X194043333Y-108645295D01*
X194043333Y-108645295D02*
X194090952Y-108550057D01*
X194090952Y-108550057D02*
X194138571Y-108502438D01*
X194138571Y-108502438D02*
X194233809Y-108454819D01*
X194233809Y-108454819D02*
X194471904Y-108454819D01*
X194471904Y-108454819D02*
X194614761Y-108502438D01*
X195043333Y-108931009D02*
X195376666Y-108931009D01*
X195519523Y-109454819D02*
X195043333Y-109454819D01*
X195043333Y-109454819D02*
X195043333Y-108454819D01*
X195043333Y-108454819D02*
X195519523Y-108454819D01*
X195805238Y-108454819D02*
X196376666Y-108454819D01*
X196090952Y-109454819D02*
X196090952Y-108454819D01*
X187500000Y-108844819D02*
X187500000Y-109082914D01*
X187261905Y-108987676D02*
X187500000Y-109082914D01*
X187500000Y-109082914D02*
X187738095Y-108987676D01*
X187357143Y-109273390D02*
X187500000Y-109082914D01*
X187500000Y-109082914D02*
X187642857Y-109273390D01*
D12*
X206599080Y-62086903D02*
X206599080Y-62510237D01*
X207264318Y-62510237D02*
X205994318Y-62510237D01*
X205994318Y-62510237D02*
X205994318Y-61905475D01*
X207264318Y-60816904D02*
X207264318Y-61421666D01*
X207264318Y-61421666D02*
X205994318Y-61421666D01*
X206901461Y-60454047D02*
X206901461Y-59849285D01*
X207264318Y-60574999D02*
X205994318Y-60151666D01*
X205994318Y-60151666D02*
X207264318Y-59728332D01*
X207203842Y-59365476D02*
X207264318Y-59184047D01*
X207264318Y-59184047D02*
X207264318Y-58881666D01*
X207264318Y-58881666D02*
X207203842Y-58760714D01*
X207203842Y-58760714D02*
X207143365Y-58700238D01*
X207143365Y-58700238D02*
X207022413Y-58639761D01*
X207022413Y-58639761D02*
X206901461Y-58639761D01*
X206901461Y-58639761D02*
X206780508Y-58700238D01*
X206780508Y-58700238D02*
X206720032Y-58760714D01*
X206720032Y-58760714D02*
X206659556Y-58881666D01*
X206659556Y-58881666D02*
X206599080Y-59123571D01*
X206599080Y-59123571D02*
X206538603Y-59244523D01*
X206538603Y-59244523D02*
X206478127Y-59305000D01*
X206478127Y-59305000D02*
X206357175Y-59365476D01*
X206357175Y-59365476D02*
X206236222Y-59365476D01*
X206236222Y-59365476D02*
X206115270Y-59305000D01*
X206115270Y-59305000D02*
X206054794Y-59244523D01*
X206054794Y-59244523D02*
X205994318Y-59123571D01*
X205994318Y-59123571D02*
X205994318Y-58821190D01*
X205994318Y-58821190D02*
X206054794Y-58639761D01*
X207264318Y-58095476D02*
X205994318Y-58095476D01*
X206599080Y-58095476D02*
X206599080Y-57369761D01*
X207264318Y-57369761D02*
X205994318Y-57369761D01*
D10*
X103931905Y-101869104D02*
X104408095Y-101869104D01*
X103836667Y-102154819D02*
X104170000Y-101154819D01*
X104170000Y-101154819D02*
X104503333Y-102154819D01*
X104836667Y-102154819D02*
X104836667Y-101154819D01*
X104836667Y-101154819D02*
X105074762Y-101154819D01*
X105074762Y-101154819D02*
X105217619Y-101202438D01*
X105217619Y-101202438D02*
X105312857Y-101297676D01*
X105312857Y-101297676D02*
X105360476Y-101392914D01*
X105360476Y-101392914D02*
X105408095Y-101583390D01*
X105408095Y-101583390D02*
X105408095Y-101726247D01*
X105408095Y-101726247D02*
X105360476Y-101916723D01*
X105360476Y-101916723D02*
X105312857Y-102011961D01*
X105312857Y-102011961D02*
X105217619Y-102107200D01*
X105217619Y-102107200D02*
X105074762Y-102154819D01*
X105074762Y-102154819D02*
X104836667Y-102154819D01*
X106408095Y-102059580D02*
X106360476Y-102107200D01*
X106360476Y-102107200D02*
X106217619Y-102154819D01*
X106217619Y-102154819D02*
X106122381Y-102154819D01*
X106122381Y-102154819D02*
X105979524Y-102107200D01*
X105979524Y-102107200D02*
X105884286Y-102011961D01*
X105884286Y-102011961D02*
X105836667Y-101916723D01*
X105836667Y-101916723D02*
X105789048Y-101726247D01*
X105789048Y-101726247D02*
X105789048Y-101583390D01*
X105789048Y-101583390D02*
X105836667Y-101392914D01*
X105836667Y-101392914D02*
X105884286Y-101297676D01*
X105884286Y-101297676D02*
X105979524Y-101202438D01*
X105979524Y-101202438D02*
X106122381Y-101154819D01*
X106122381Y-101154819D02*
X106217619Y-101154819D01*
X106217619Y-101154819D02*
X106360476Y-101202438D01*
X106360476Y-101202438D02*
X106408095Y-101250057D01*
X224100436Y-108123219D02*
X224100436Y-107123219D01*
X224100436Y-107123219D02*
X224338531Y-107123219D01*
X224338531Y-107123219D02*
X224481388Y-107170838D01*
X224481388Y-107170838D02*
X224576626Y-107266076D01*
X224576626Y-107266076D02*
X224624245Y-107361314D01*
X224624245Y-107361314D02*
X224671864Y-107551790D01*
X224671864Y-107551790D02*
X224671864Y-107694647D01*
X224671864Y-107694647D02*
X224624245Y-107885123D01*
X224624245Y-107885123D02*
X224576626Y-107980361D01*
X224576626Y-107980361D02*
X224481388Y-108075600D01*
X224481388Y-108075600D02*
X224338531Y-108123219D01*
X224338531Y-108123219D02*
X224100436Y-108123219D01*
X225671864Y-108027980D02*
X225624245Y-108075600D01*
X225624245Y-108075600D02*
X225481388Y-108123219D01*
X225481388Y-108123219D02*
X225386150Y-108123219D01*
X225386150Y-108123219D02*
X225243293Y-108075600D01*
X225243293Y-108075600D02*
X225148055Y-107980361D01*
X225148055Y-107980361D02*
X225100436Y-107885123D01*
X225100436Y-107885123D02*
X225052817Y-107694647D01*
X225052817Y-107694647D02*
X225052817Y-107551790D01*
X225052817Y-107551790D02*
X225100436Y-107361314D01*
X225100436Y-107361314D02*
X225148055Y-107266076D01*
X225148055Y-107266076D02*
X225243293Y-107170838D01*
X225243293Y-107170838D02*
X225386150Y-107123219D01*
X225386150Y-107123219D02*
X225481388Y-107123219D01*
X225481388Y-107123219D02*
X225624245Y-107170838D01*
X225624245Y-107170838D02*
X225671864Y-107218457D01*
X226100436Y-108123219D02*
X226100436Y-107123219D01*
X226100436Y-107123219D02*
X226481388Y-107123219D01*
X226481388Y-107123219D02*
X226576626Y-107170838D01*
X226576626Y-107170838D02*
X226624245Y-107218457D01*
X226624245Y-107218457D02*
X226671864Y-107313695D01*
X226671864Y-107313695D02*
X226671864Y-107456552D01*
X226671864Y-107456552D02*
X226624245Y-107551790D01*
X226624245Y-107551790D02*
X226576626Y-107599409D01*
X226576626Y-107599409D02*
X226481388Y-107647028D01*
X226481388Y-107647028D02*
X226100436Y-107647028D01*
X227100436Y-107599409D02*
X227433769Y-107599409D01*
X227576626Y-108123219D02*
X227100436Y-108123219D01*
X227100436Y-108123219D02*
X227100436Y-107123219D01*
X227100436Y-107123219D02*
X227576626Y-107123219D01*
X228005198Y-108123219D02*
X228005198Y-107123219D01*
X228005198Y-107123219D02*
X228338531Y-107837504D01*
X228338531Y-107837504D02*
X228671864Y-107123219D01*
X228671864Y-107123219D02*
X228671864Y-108123219D01*
D12*
X189357380Y-139824318D02*
X189357380Y-140852413D01*
X189357380Y-140852413D02*
X189417857Y-140973365D01*
X189417857Y-140973365D02*
X189478333Y-141033842D01*
X189478333Y-141033842D02*
X189599285Y-141094318D01*
X189599285Y-141094318D02*
X189841190Y-141094318D01*
X189841190Y-141094318D02*
X189962142Y-141033842D01*
X189962142Y-141033842D02*
X190022619Y-140973365D01*
X190022619Y-140973365D02*
X190083095Y-140852413D01*
X190083095Y-140852413D02*
X190083095Y-139824318D01*
X190627380Y-141033842D02*
X190808809Y-141094318D01*
X190808809Y-141094318D02*
X191111190Y-141094318D01*
X191111190Y-141094318D02*
X191232142Y-141033842D01*
X191232142Y-141033842D02*
X191292618Y-140973365D01*
X191292618Y-140973365D02*
X191353095Y-140852413D01*
X191353095Y-140852413D02*
X191353095Y-140731461D01*
X191353095Y-140731461D02*
X191292618Y-140610508D01*
X191292618Y-140610508D02*
X191232142Y-140550032D01*
X191232142Y-140550032D02*
X191111190Y-140489556D01*
X191111190Y-140489556D02*
X190869285Y-140429080D01*
X190869285Y-140429080D02*
X190748333Y-140368603D01*
X190748333Y-140368603D02*
X190687856Y-140308127D01*
X190687856Y-140308127D02*
X190627380Y-140187175D01*
X190627380Y-140187175D02*
X190627380Y-140066222D01*
X190627380Y-140066222D02*
X190687856Y-139945270D01*
X190687856Y-139945270D02*
X190748333Y-139884794D01*
X190748333Y-139884794D02*
X190869285Y-139824318D01*
X190869285Y-139824318D02*
X191171666Y-139824318D01*
X191171666Y-139824318D02*
X191353095Y-139884794D01*
X192320714Y-140429080D02*
X192502142Y-140489556D01*
X192502142Y-140489556D02*
X192562619Y-140550032D01*
X192562619Y-140550032D02*
X192623095Y-140670984D01*
X192623095Y-140670984D02*
X192623095Y-140852413D01*
X192623095Y-140852413D02*
X192562619Y-140973365D01*
X192562619Y-140973365D02*
X192502142Y-141033842D01*
X192502142Y-141033842D02*
X192381190Y-141094318D01*
X192381190Y-141094318D02*
X191897380Y-141094318D01*
X191897380Y-141094318D02*
X191897380Y-139824318D01*
X191897380Y-139824318D02*
X192320714Y-139824318D01*
X192320714Y-139824318D02*
X192441666Y-139884794D01*
X192441666Y-139884794D02*
X192502142Y-139945270D01*
X192502142Y-139945270D02*
X192562619Y-140066222D01*
X192562619Y-140066222D02*
X192562619Y-140187175D01*
X192562619Y-140187175D02*
X192502142Y-140308127D01*
X192502142Y-140308127D02*
X192441666Y-140368603D01*
X192441666Y-140368603D02*
X192320714Y-140429080D01*
X192320714Y-140429080D02*
X191897380Y-140429080D01*
D10*
X157994819Y-125696666D02*
X157994819Y-126172856D01*
X157994819Y-126172856D02*
X156994819Y-126172856D01*
X157994819Y-124839523D02*
X157994819Y-125410951D01*
X157994819Y-125125237D02*
X156994819Y-125125237D01*
X156994819Y-125125237D02*
X157137676Y-125220475D01*
X157137676Y-125220475D02*
X157232914Y-125315713D01*
X157232914Y-125315713D02*
X157280533Y-125410951D01*
X131889524Y-112234819D02*
X131889524Y-111234819D01*
X131889524Y-111234819D02*
X132127619Y-111234819D01*
X132127619Y-111234819D02*
X132270476Y-111282438D01*
X132270476Y-111282438D02*
X132365714Y-111377676D01*
X132365714Y-111377676D02*
X132413333Y-111472914D01*
X132413333Y-111472914D02*
X132460952Y-111663390D01*
X132460952Y-111663390D02*
X132460952Y-111806247D01*
X132460952Y-111806247D02*
X132413333Y-111996723D01*
X132413333Y-111996723D02*
X132365714Y-112091961D01*
X132365714Y-112091961D02*
X132270476Y-112187200D01*
X132270476Y-112187200D02*
X132127619Y-112234819D01*
X132127619Y-112234819D02*
X131889524Y-112234819D01*
X132841905Y-111949104D02*
X133318095Y-111949104D01*
X132746667Y-112234819D02*
X133080000Y-111234819D01*
X133080000Y-111234819D02*
X133413333Y-112234819D01*
X134318095Y-112139580D02*
X134270476Y-112187200D01*
X134270476Y-112187200D02*
X134127619Y-112234819D01*
X134127619Y-112234819D02*
X134032381Y-112234819D01*
X134032381Y-112234819D02*
X133889524Y-112187200D01*
X133889524Y-112187200D02*
X133794286Y-112091961D01*
X133794286Y-112091961D02*
X133746667Y-111996723D01*
X133746667Y-111996723D02*
X133699048Y-111806247D01*
X133699048Y-111806247D02*
X133699048Y-111663390D01*
X133699048Y-111663390D02*
X133746667Y-111472914D01*
X133746667Y-111472914D02*
X133794286Y-111377676D01*
X133794286Y-111377676D02*
X133889524Y-111282438D01*
X133889524Y-111282438D02*
X134032381Y-111234819D01*
X134032381Y-111234819D02*
X134127619Y-111234819D01*
X134127619Y-111234819D02*
X134270476Y-111282438D01*
X134270476Y-111282438D02*
X134318095Y-111330057D01*
X135180000Y-110954819D02*
X135180000Y-111192914D01*
X134941905Y-111097676D02*
X135180000Y-111192914D01*
X135180000Y-111192914D02*
X135418095Y-111097676D01*
X135037143Y-111383390D02*
X135180000Y-111192914D01*
X135180000Y-111192914D02*
X135322857Y-111383390D01*
X135189999Y-112055180D02*
X135189999Y-111817085D01*
X135428094Y-111912323D02*
X135189999Y-111817085D01*
X135189999Y-111817085D02*
X134951904Y-111912323D01*
X135332856Y-111626609D02*
X135189999Y-111817085D01*
X135189999Y-111817085D02*
X135047142Y-111626609D01*
X178162857Y-116831009D02*
X178305714Y-116878628D01*
X178305714Y-116878628D02*
X178353333Y-116926247D01*
X178353333Y-116926247D02*
X178400952Y-117021485D01*
X178400952Y-117021485D02*
X178400952Y-117164342D01*
X178400952Y-117164342D02*
X178353333Y-117259580D01*
X178353333Y-117259580D02*
X178305714Y-117307200D01*
X178305714Y-117307200D02*
X178210476Y-117354819D01*
X178210476Y-117354819D02*
X177829524Y-117354819D01*
X177829524Y-117354819D02*
X177829524Y-116354819D01*
X177829524Y-116354819D02*
X178162857Y-116354819D01*
X178162857Y-116354819D02*
X178258095Y-116402438D01*
X178258095Y-116402438D02*
X178305714Y-116450057D01*
X178305714Y-116450057D02*
X178353333Y-116545295D01*
X178353333Y-116545295D02*
X178353333Y-116640533D01*
X178353333Y-116640533D02*
X178305714Y-116735771D01*
X178305714Y-116735771D02*
X178258095Y-116783390D01*
X178258095Y-116783390D02*
X178162857Y-116831009D01*
X178162857Y-116831009D02*
X177829524Y-116831009D01*
X179020000Y-116354819D02*
X179210476Y-116354819D01*
X179210476Y-116354819D02*
X179305714Y-116402438D01*
X179305714Y-116402438D02*
X179400952Y-116497676D01*
X179400952Y-116497676D02*
X179448571Y-116688152D01*
X179448571Y-116688152D02*
X179448571Y-117021485D01*
X179448571Y-117021485D02*
X179400952Y-117211961D01*
X179400952Y-117211961D02*
X179305714Y-117307200D01*
X179305714Y-117307200D02*
X179210476Y-117354819D01*
X179210476Y-117354819D02*
X179020000Y-117354819D01*
X179020000Y-117354819D02*
X178924762Y-117307200D01*
X178924762Y-117307200D02*
X178829524Y-117211961D01*
X178829524Y-117211961D02*
X178781905Y-117021485D01*
X178781905Y-117021485D02*
X178781905Y-116688152D01*
X178781905Y-116688152D02*
X178829524Y-116497676D01*
X178829524Y-116497676D02*
X178924762Y-116402438D01*
X178924762Y-116402438D02*
X179020000Y-116354819D01*
X180067619Y-116354819D02*
X180258095Y-116354819D01*
X180258095Y-116354819D02*
X180353333Y-116402438D01*
X180353333Y-116402438D02*
X180448571Y-116497676D01*
X180448571Y-116497676D02*
X180496190Y-116688152D01*
X180496190Y-116688152D02*
X180496190Y-117021485D01*
X180496190Y-117021485D02*
X180448571Y-117211961D01*
X180448571Y-117211961D02*
X180353333Y-117307200D01*
X180353333Y-117307200D02*
X180258095Y-117354819D01*
X180258095Y-117354819D02*
X180067619Y-117354819D01*
X180067619Y-117354819D02*
X179972381Y-117307200D01*
X179972381Y-117307200D02*
X179877143Y-117211961D01*
X179877143Y-117211961D02*
X179829524Y-117021485D01*
X179829524Y-117021485D02*
X179829524Y-116688152D01*
X179829524Y-116688152D02*
X179877143Y-116497676D01*
X179877143Y-116497676D02*
X179972381Y-116402438D01*
X179972381Y-116402438D02*
X180067619Y-116354819D01*
X180781905Y-116354819D02*
X181353333Y-116354819D01*
X181067619Y-117354819D02*
X181067619Y-116354819D01*
X175404819Y-116529999D02*
X175642914Y-116529999D01*
X175547676Y-116768094D02*
X175642914Y-116529999D01*
X175642914Y-116529999D02*
X175547676Y-116291904D01*
X175833390Y-116672856D02*
X175642914Y-116529999D01*
X175642914Y-116529999D02*
X175833390Y-116387142D01*
D12*
X104049285Y-145301461D02*
X104654047Y-145301461D01*
X103928333Y-145664318D02*
X104351666Y-144394318D01*
X104351666Y-144394318D02*
X104775000Y-145664318D01*
X105198332Y-144817651D02*
X105198332Y-145664318D01*
X105198332Y-144938603D02*
X105258809Y-144878127D01*
X105258809Y-144878127D02*
X105379761Y-144817651D01*
X105379761Y-144817651D02*
X105561190Y-144817651D01*
X105561190Y-144817651D02*
X105682142Y-144878127D01*
X105682142Y-144878127D02*
X105742618Y-144999080D01*
X105742618Y-144999080D02*
X105742618Y-145664318D01*
X106891666Y-145664318D02*
X106891666Y-144999080D01*
X106891666Y-144999080D02*
X106831190Y-144878127D01*
X106831190Y-144878127D02*
X106710238Y-144817651D01*
X106710238Y-144817651D02*
X106468333Y-144817651D01*
X106468333Y-144817651D02*
X106347380Y-144878127D01*
X106891666Y-145603842D02*
X106770714Y-145664318D01*
X106770714Y-145664318D02*
X106468333Y-145664318D01*
X106468333Y-145664318D02*
X106347380Y-145603842D01*
X106347380Y-145603842D02*
X106286904Y-145482889D01*
X106286904Y-145482889D02*
X106286904Y-145361937D01*
X106286904Y-145361937D02*
X106347380Y-145240984D01*
X106347380Y-145240984D02*
X106468333Y-145180508D01*
X106468333Y-145180508D02*
X106770714Y-145180508D01*
X106770714Y-145180508D02*
X106891666Y-145120032D01*
X107677857Y-145664318D02*
X107556905Y-145603842D01*
X107556905Y-145603842D02*
X107496428Y-145482889D01*
X107496428Y-145482889D02*
X107496428Y-144394318D01*
X108343095Y-145664318D02*
X108222143Y-145603842D01*
X108222143Y-145603842D02*
X108161666Y-145543365D01*
X108161666Y-145543365D02*
X108101190Y-145422413D01*
X108101190Y-145422413D02*
X108101190Y-145059556D01*
X108101190Y-145059556D02*
X108161666Y-144938603D01*
X108161666Y-144938603D02*
X108222143Y-144878127D01*
X108222143Y-144878127D02*
X108343095Y-144817651D01*
X108343095Y-144817651D02*
X108524524Y-144817651D01*
X108524524Y-144817651D02*
X108645476Y-144878127D01*
X108645476Y-144878127D02*
X108705952Y-144938603D01*
X108705952Y-144938603D02*
X108766428Y-145059556D01*
X108766428Y-145059556D02*
X108766428Y-145422413D01*
X108766428Y-145422413D02*
X108705952Y-145543365D01*
X108705952Y-145543365D02*
X108645476Y-145603842D01*
X108645476Y-145603842D02*
X108524524Y-145664318D01*
X108524524Y-145664318D02*
X108343095Y-145664318D01*
X109855000Y-144817651D02*
X109855000Y-145845746D01*
X109855000Y-145845746D02*
X109794524Y-145966699D01*
X109794524Y-145966699D02*
X109734048Y-146027175D01*
X109734048Y-146027175D02*
X109613095Y-146087651D01*
X109613095Y-146087651D02*
X109431667Y-146087651D01*
X109431667Y-146087651D02*
X109310714Y-146027175D01*
X109855000Y-145603842D02*
X109734048Y-145664318D01*
X109734048Y-145664318D02*
X109492143Y-145664318D01*
X109492143Y-145664318D02*
X109371191Y-145603842D01*
X109371191Y-145603842D02*
X109310714Y-145543365D01*
X109310714Y-145543365D02*
X109250238Y-145422413D01*
X109250238Y-145422413D02*
X109250238Y-145059556D01*
X109250238Y-145059556D02*
X109310714Y-144938603D01*
X109310714Y-144938603D02*
X109371191Y-144878127D01*
X109371191Y-144878127D02*
X109492143Y-144817651D01*
X109492143Y-144817651D02*
X109734048Y-144817651D01*
X109734048Y-144817651D02*
X109855000Y-144878127D01*
X110459762Y-145664318D02*
X110459762Y-144394318D01*
X111064524Y-145664318D02*
X111064524Y-144394318D01*
X111064524Y-144394318D02*
X111790239Y-145664318D01*
X111790239Y-145664318D02*
X111790239Y-144394318D01*
X134527618Y-144976461D02*
X135132380Y-144976461D01*
X134406666Y-145339318D02*
X134829999Y-144069318D01*
X134829999Y-144069318D02*
X135253333Y-145339318D01*
X135676665Y-144492651D02*
X135676665Y-145339318D01*
X135676665Y-144613603D02*
X135737142Y-144553127D01*
X135737142Y-144553127D02*
X135858094Y-144492651D01*
X135858094Y-144492651D02*
X136039523Y-144492651D01*
X136039523Y-144492651D02*
X136160475Y-144553127D01*
X136160475Y-144553127D02*
X136220951Y-144674080D01*
X136220951Y-144674080D02*
X136220951Y-145339318D01*
X137369999Y-145339318D02*
X137369999Y-144674080D01*
X137369999Y-144674080D02*
X137309523Y-144553127D01*
X137309523Y-144553127D02*
X137188571Y-144492651D01*
X137188571Y-144492651D02*
X136946666Y-144492651D01*
X136946666Y-144492651D02*
X136825713Y-144553127D01*
X137369999Y-145278842D02*
X137249047Y-145339318D01*
X137249047Y-145339318D02*
X136946666Y-145339318D01*
X136946666Y-145339318D02*
X136825713Y-145278842D01*
X136825713Y-145278842D02*
X136765237Y-145157889D01*
X136765237Y-145157889D02*
X136765237Y-145036937D01*
X136765237Y-145036937D02*
X136825713Y-144915984D01*
X136825713Y-144915984D02*
X136946666Y-144855508D01*
X136946666Y-144855508D02*
X137249047Y-144855508D01*
X137249047Y-144855508D02*
X137369999Y-144795032D01*
X138156190Y-145339318D02*
X138035238Y-145278842D01*
X138035238Y-145278842D02*
X137974761Y-145157889D01*
X137974761Y-145157889D02*
X137974761Y-144069318D01*
X138821428Y-145339318D02*
X138700476Y-145278842D01*
X138700476Y-145278842D02*
X138639999Y-145218365D01*
X138639999Y-145218365D02*
X138579523Y-145097413D01*
X138579523Y-145097413D02*
X138579523Y-144734556D01*
X138579523Y-144734556D02*
X138639999Y-144613603D01*
X138639999Y-144613603D02*
X138700476Y-144553127D01*
X138700476Y-144553127D02*
X138821428Y-144492651D01*
X138821428Y-144492651D02*
X139002857Y-144492651D01*
X139002857Y-144492651D02*
X139123809Y-144553127D01*
X139123809Y-144553127D02*
X139184285Y-144613603D01*
X139184285Y-144613603D02*
X139244761Y-144734556D01*
X139244761Y-144734556D02*
X139244761Y-145097413D01*
X139244761Y-145097413D02*
X139184285Y-145218365D01*
X139184285Y-145218365D02*
X139123809Y-145278842D01*
X139123809Y-145278842D02*
X139002857Y-145339318D01*
X139002857Y-145339318D02*
X138821428Y-145339318D01*
X140333333Y-144492651D02*
X140333333Y-145520746D01*
X140333333Y-145520746D02*
X140272857Y-145641699D01*
X140272857Y-145641699D02*
X140212381Y-145702175D01*
X140212381Y-145702175D02*
X140091428Y-145762651D01*
X140091428Y-145762651D02*
X139910000Y-145762651D01*
X139910000Y-145762651D02*
X139789047Y-145702175D01*
X140333333Y-145278842D02*
X140212381Y-145339318D01*
X140212381Y-145339318D02*
X139970476Y-145339318D01*
X139970476Y-145339318D02*
X139849524Y-145278842D01*
X139849524Y-145278842D02*
X139789047Y-145218365D01*
X139789047Y-145218365D02*
X139728571Y-145097413D01*
X139728571Y-145097413D02*
X139728571Y-144734556D01*
X139728571Y-144734556D02*
X139789047Y-144613603D01*
X139789047Y-144613603D02*
X139849524Y-144553127D01*
X139849524Y-144553127D02*
X139970476Y-144492651D01*
X139970476Y-144492651D02*
X140212381Y-144492651D01*
X140212381Y-144492651D02*
X140333333Y-144553127D01*
X141180000Y-144069318D02*
X141421905Y-144069318D01*
X141421905Y-144069318D02*
X141542857Y-144129794D01*
X141542857Y-144129794D02*
X141663810Y-144250746D01*
X141663810Y-144250746D02*
X141724286Y-144492651D01*
X141724286Y-144492651D02*
X141724286Y-144915984D01*
X141724286Y-144915984D02*
X141663810Y-145157889D01*
X141663810Y-145157889D02*
X141542857Y-145278842D01*
X141542857Y-145278842D02*
X141421905Y-145339318D01*
X141421905Y-145339318D02*
X141180000Y-145339318D01*
X141180000Y-145339318D02*
X141059048Y-145278842D01*
X141059048Y-145278842D02*
X140938095Y-145157889D01*
X140938095Y-145157889D02*
X140877619Y-144915984D01*
X140877619Y-144915984D02*
X140877619Y-144492651D01*
X140877619Y-144492651D02*
X140938095Y-144250746D01*
X140938095Y-144250746D02*
X141059048Y-144129794D01*
X141059048Y-144129794D02*
X141180000Y-144069318D01*
X142268571Y-144069318D02*
X142268571Y-145097413D01*
X142268571Y-145097413D02*
X142329048Y-145218365D01*
X142329048Y-145218365D02*
X142389524Y-145278842D01*
X142389524Y-145278842D02*
X142510476Y-145339318D01*
X142510476Y-145339318D02*
X142752381Y-145339318D01*
X142752381Y-145339318D02*
X142873333Y-145278842D01*
X142873333Y-145278842D02*
X142933810Y-145218365D01*
X142933810Y-145218365D02*
X142994286Y-145097413D01*
X142994286Y-145097413D02*
X142994286Y-144069318D01*
X143417619Y-144069318D02*
X144143333Y-144069318D01*
X143780476Y-145339318D02*
X143780476Y-144069318D01*
D10*
X170798571Y-25885180D02*
X170798571Y-26885180D01*
X170227143Y-25885180D02*
X170655714Y-26456609D01*
X170227143Y-26885180D02*
X170798571Y-26313752D01*
X169417619Y-25932800D02*
X169512857Y-25885180D01*
X169512857Y-25885180D02*
X169703333Y-25885180D01*
X169703333Y-25885180D02*
X169798571Y-25932800D01*
X169798571Y-25932800D02*
X169846190Y-26028038D01*
X169846190Y-26028038D02*
X169846190Y-26408990D01*
X169846190Y-26408990D02*
X169798571Y-26504228D01*
X169798571Y-26504228D02*
X169703333Y-26551847D01*
X169703333Y-26551847D02*
X169512857Y-26551847D01*
X169512857Y-26551847D02*
X169417619Y-26504228D01*
X169417619Y-26504228D02*
X169370000Y-26408990D01*
X169370000Y-26408990D02*
X169370000Y-26313752D01*
X169370000Y-26313752D02*
X169846190Y-26218514D01*
X169036666Y-26551847D02*
X168798571Y-25885180D01*
X168560476Y-26551847D02*
X168798571Y-25885180D01*
X168798571Y-25885180D02*
X168893809Y-25647085D01*
X168893809Y-25647085D02*
X168941428Y-25599466D01*
X168941428Y-25599466D02*
X169036666Y-25551847D01*
X168179523Y-26551847D02*
X168179523Y-25551847D01*
X168179523Y-26504228D02*
X168084285Y-26551847D01*
X168084285Y-26551847D02*
X167893809Y-26551847D01*
X167893809Y-26551847D02*
X167798571Y-26504228D01*
X167798571Y-26504228D02*
X167750952Y-26456609D01*
X167750952Y-26456609D02*
X167703333Y-26361371D01*
X167703333Y-26361371D02*
X167703333Y-26075657D01*
X167703333Y-26075657D02*
X167750952Y-25980419D01*
X167750952Y-25980419D02*
X167798571Y-25932800D01*
X167798571Y-25932800D02*
X167893809Y-25885180D01*
X167893809Y-25885180D02*
X168084285Y-25885180D01*
X168084285Y-25885180D02*
X168179523Y-25932800D01*
X166846190Y-25885180D02*
X166846190Y-26408990D01*
X166846190Y-26408990D02*
X166893809Y-26504228D01*
X166893809Y-26504228D02*
X166989047Y-26551847D01*
X166989047Y-26551847D02*
X167179523Y-26551847D01*
X167179523Y-26551847D02*
X167274761Y-26504228D01*
X166846190Y-25932800D02*
X166941428Y-25885180D01*
X166941428Y-25885180D02*
X167179523Y-25885180D01*
X167179523Y-25885180D02*
X167274761Y-25932800D01*
X167274761Y-25932800D02*
X167322380Y-26028038D01*
X167322380Y-26028038D02*
X167322380Y-26123276D01*
X167322380Y-26123276D02*
X167274761Y-26218514D01*
X167274761Y-26218514D02*
X167179523Y-26266133D01*
X167179523Y-26266133D02*
X166941428Y-26266133D01*
X166941428Y-26266133D02*
X166846190Y-26313752D01*
X165941428Y-25885180D02*
X165941428Y-26885180D01*
X165941428Y-25932800D02*
X166036666Y-25885180D01*
X166036666Y-25885180D02*
X166227142Y-25885180D01*
X166227142Y-25885180D02*
X166322380Y-25932800D01*
X166322380Y-25932800D02*
X166369999Y-25980419D01*
X166369999Y-25980419D02*
X166417618Y-26075657D01*
X166417618Y-26075657D02*
X166417618Y-26361371D01*
X166417618Y-26361371D02*
X166369999Y-26456609D01*
X166369999Y-26456609D02*
X166322380Y-26504228D01*
X166322380Y-26504228D02*
X166227142Y-26551847D01*
X166227142Y-26551847D02*
X166036666Y-26551847D01*
X166036666Y-26551847D02*
X165941428Y-26504228D01*
X188790476Y-25775180D02*
X189266666Y-25775180D01*
X189266666Y-25775180D02*
X189266666Y-26775180D01*
X187885714Y-25870419D02*
X187933333Y-25822800D01*
X187933333Y-25822800D02*
X188076190Y-25775180D01*
X188076190Y-25775180D02*
X188171428Y-25775180D01*
X188171428Y-25775180D02*
X188314285Y-25822800D01*
X188314285Y-25822800D02*
X188409523Y-25918038D01*
X188409523Y-25918038D02*
X188457142Y-26013276D01*
X188457142Y-26013276D02*
X188504761Y-26203752D01*
X188504761Y-26203752D02*
X188504761Y-26346609D01*
X188504761Y-26346609D02*
X188457142Y-26537085D01*
X188457142Y-26537085D02*
X188409523Y-26632323D01*
X188409523Y-26632323D02*
X188314285Y-26727561D01*
X188314285Y-26727561D02*
X188171428Y-26775180D01*
X188171428Y-26775180D02*
X188076190Y-26775180D01*
X188076190Y-26775180D02*
X187933333Y-26727561D01*
X187933333Y-26727561D02*
X187885714Y-26679942D01*
X187457142Y-25775180D02*
X187457142Y-26775180D01*
X187457142Y-26775180D02*
X187219047Y-26775180D01*
X187219047Y-26775180D02*
X187076190Y-26727561D01*
X187076190Y-26727561D02*
X186980952Y-26632323D01*
X186980952Y-26632323D02*
X186933333Y-26537085D01*
X186933333Y-26537085D02*
X186885714Y-26346609D01*
X186885714Y-26346609D02*
X186885714Y-26203752D01*
X186885714Y-26203752D02*
X186933333Y-26013276D01*
X186933333Y-26013276D02*
X186980952Y-25918038D01*
X186980952Y-25918038D02*
X187076190Y-25822800D01*
X187076190Y-25822800D02*
X187219047Y-25775180D01*
X187219047Y-25775180D02*
X187457142Y-25775180D01*
X151876666Y-113654819D02*
X151400476Y-113654819D01*
X151400476Y-113654819D02*
X151400476Y-112654819D01*
X152686190Y-113654819D02*
X152210000Y-113654819D01*
X152210000Y-113654819D02*
X152210000Y-112654819D01*
X152971905Y-113607200D02*
X153114762Y-113654819D01*
X153114762Y-113654819D02*
X153352857Y-113654819D01*
X153352857Y-113654819D02*
X153448095Y-113607200D01*
X153448095Y-113607200D02*
X153495714Y-113559580D01*
X153495714Y-113559580D02*
X153543333Y-113464342D01*
X153543333Y-113464342D02*
X153543333Y-113369104D01*
X153543333Y-113369104D02*
X153495714Y-113273866D01*
X153495714Y-113273866D02*
X153448095Y-113226247D01*
X153448095Y-113226247D02*
X153352857Y-113178628D01*
X153352857Y-113178628D02*
X153162381Y-113131009D01*
X153162381Y-113131009D02*
X153067143Y-113083390D01*
X153067143Y-113083390D02*
X153019524Y-113035771D01*
X153019524Y-113035771D02*
X152971905Y-112940533D01*
X152971905Y-112940533D02*
X152971905Y-112845295D01*
X152971905Y-112845295D02*
X153019524Y-112750057D01*
X153019524Y-112750057D02*
X153067143Y-112702438D01*
X153067143Y-112702438D02*
X153162381Y-112654819D01*
X153162381Y-112654819D02*
X153400476Y-112654819D01*
X153400476Y-112654819D02*
X153543333Y-112702438D01*
X153971905Y-113654819D02*
X153971905Y-112654819D01*
X154448095Y-113654819D02*
X154448095Y-112654819D01*
X154448095Y-112654819D02*
X155019523Y-113654819D01*
X155019523Y-113654819D02*
X155019523Y-112654819D01*
D12*
X146614318Y-60626904D02*
X146009556Y-61050238D01*
X146614318Y-61352619D02*
X145344318Y-61352619D01*
X145344318Y-61352619D02*
X145344318Y-60868809D01*
X145344318Y-60868809D02*
X145404794Y-60747857D01*
X145404794Y-60747857D02*
X145465270Y-60687380D01*
X145465270Y-60687380D02*
X145586222Y-60626904D01*
X145586222Y-60626904D02*
X145767651Y-60626904D01*
X145767651Y-60626904D02*
X145888603Y-60687380D01*
X145888603Y-60687380D02*
X145949080Y-60747857D01*
X145949080Y-60747857D02*
X146009556Y-60868809D01*
X146009556Y-60868809D02*
X146009556Y-61352619D01*
X146251461Y-60143095D02*
X146251461Y-59538333D01*
X146614318Y-60264047D02*
X145344318Y-59840714D01*
X145344318Y-59840714D02*
X146614318Y-59417380D01*
X146614318Y-58994048D02*
X145344318Y-58994048D01*
X145344318Y-58994048D02*
X146251461Y-58570714D01*
X146251461Y-58570714D02*
X145344318Y-58147381D01*
X145344318Y-58147381D02*
X146614318Y-58147381D01*
D13*
X172798752Y-50865000D02*
X172276248Y-50865000D01*
X172798752Y-52335000D02*
X172276248Y-52335000D01*
D14*
X161380000Y-140850000D02*
X161380000Y-140850000D01*
X161480000Y-140850000D02*
X161480000Y-140850000D01*
X161990000Y-130850000D02*
X174990000Y-130850000D01*
X161990000Y-146350000D02*
X161990000Y-130850000D01*
X174990000Y-130850000D02*
X174990000Y-146350000D01*
X174990000Y-146350000D02*
X161990000Y-146350000D01*
X161380000Y-140850000D02*
G75*
G02*
X161480000Y-140850000I50000J0D01*
G01*
X161480000Y-140850000D02*
G75*
G02*
X161380000Y-140850000I-50000J0D01*
G01*
D13*
X182640000Y-67686252D02*
X182640000Y-67163748D01*
X184110000Y-67686252D02*
X184110000Y-67163748D01*
D15*
X162925000Y-106725000D02*
X162925000Y-107015000D01*
X162925000Y-106725000D02*
X163215000Y-106725000D01*
X162925000Y-113725000D02*
X162925000Y-113435000D01*
X162925000Y-113725000D02*
X163215000Y-113725000D01*
X169925000Y-106725000D02*
X169635000Y-106725000D01*
X169925000Y-106725000D02*
X169925000Y-107015000D01*
X169925000Y-113725000D02*
X169635000Y-113725000D01*
X169925000Y-113725000D02*
X169925000Y-113435000D01*
D16*
X160585000Y-107475000D02*
G75*
G02*
X160385000Y-107475000I-100000J0D01*
G01*
X160385000Y-107475000D02*
G75*
G02*
X160585000Y-107475000I100000J0D01*
G01*
D13*
X171165000Y-59013748D02*
X171165000Y-59536252D01*
X172635000Y-59013748D02*
X172635000Y-59536252D01*
D16*
X165950000Y-122600001D02*
X168124999Y-122600001D01*
X167150000Y-125699999D02*
X168124999Y-125699999D01*
D13*
X105888748Y-109315000D02*
X106411252Y-109315000D01*
X105888748Y-110785000D02*
X106411252Y-110785000D01*
X176515000Y-61088748D02*
X176515000Y-61611252D01*
X177985000Y-61088748D02*
X177985000Y-61611252D01*
X205150000Y-115380000D02*
X206480000Y-115380000D01*
X205150000Y-116710000D02*
X205150000Y-115380000D01*
X207750000Y-115380000D02*
X215430000Y-115380000D01*
X207750000Y-118040000D02*
X207750000Y-115380000D01*
X207750000Y-118040000D02*
X215430000Y-118040000D01*
X215430000Y-118040000D02*
X215430000Y-115380000D01*
X139670000Y-125160000D02*
X139670000Y-125865000D01*
X139670000Y-125160000D02*
X143910000Y-125160000D01*
X139670000Y-127195000D02*
X139670000Y-127900000D01*
X139670000Y-127900000D02*
X143910000Y-127900000D01*
X143910000Y-125160000D02*
X143910000Y-125865000D01*
X143910000Y-127195000D02*
X143910000Y-127900000D01*
X162065000Y-117113748D02*
X162065000Y-117636252D01*
X163535000Y-117113748D02*
X163535000Y-117636252D01*
D14*
X146180000Y-140925000D02*
X146180000Y-140925000D01*
X146280000Y-140925000D02*
X146280000Y-140925000D01*
D16*
X146790000Y-130925000D02*
X146790000Y-146425000D01*
X146790000Y-146425000D02*
X159790000Y-146425000D01*
X159790000Y-130925000D02*
X146790000Y-130925000D01*
X159790000Y-146425000D02*
X159790000Y-130925000D01*
D14*
X146180000Y-140925000D02*
G75*
G02*
X146280000Y-140925000I50000J0D01*
G01*
X146280000Y-140925000D02*
G75*
G02*
X146180000Y-140925000I-50000J0D01*
G01*
D13*
X124515000Y-107636252D02*
X124515000Y-107113748D01*
X125985000Y-107636252D02*
X125985000Y-107113748D01*
D17*
X187200800Y-111489539D02*
X187200800Y-114460461D01*
X187200800Y-116099200D02*
X193449200Y-116099200D01*
X193449200Y-109850800D02*
X187200800Y-109850800D01*
X193449200Y-114460461D02*
X193449200Y-111489539D01*
X192077600Y-112975000D02*
G75*
G02*
X188572400Y-112975000I-1752600J0D01*
G01*
X188572400Y-112975000D02*
G75*
G02*
X192077600Y-112975000I1752600J0D01*
G01*
D13*
X190335000Y-47001252D02*
X190335000Y-46478748D01*
X191805000Y-47001252D02*
X191805000Y-46478748D01*
X175540000Y-55263748D02*
X175540000Y-55786252D01*
X177010000Y-55263748D02*
X177010000Y-55786252D01*
X172811252Y-53765000D02*
X172288748Y-53765000D01*
X172811252Y-55235000D02*
X172288748Y-55235000D01*
D16*
X207820000Y-70765000D02*
X207820000Y-69465000D01*
X207870000Y-51415000D02*
X220270000Y-51415000D01*
X207870000Y-69115000D02*
X207870000Y-51415000D01*
X220270000Y-51415000D02*
X220270000Y-69115000D01*
X220270000Y-69115000D02*
X207870000Y-69115000D01*
D13*
X98415000Y-107110000D02*
X98415000Y-104910000D01*
X98415000Y-107110000D02*
X98415000Y-109310000D01*
X103885000Y-107110000D02*
X103885000Y-104910000D01*
X103885000Y-107110000D02*
X103885000Y-109310000D01*
X99115000Y-111300000D02*
X98635000Y-111300000D01*
X98875000Y-110970000D01*
X99115000Y-111300000D01*
G36*
X99115000Y-111300000D02*
G01*
X98635000Y-111300000D01*
X98875000Y-110970000D01*
X99115000Y-111300000D01*
G37*
D17*
X223409149Y-96101000D02*
X223409149Y-106565800D01*
X223409149Y-106565800D02*
X229505149Y-106565800D01*
X229505149Y-96101000D02*
X223409149Y-96101000D01*
X229505149Y-101765437D02*
X229505149Y-96101000D01*
X229505149Y-106565800D02*
X229505149Y-103441363D01*
D18*
X227217150Y-95466000D02*
G75*
G02*
X226455150Y-95466000I-381000J0D01*
G01*
X226455150Y-95466000D02*
G75*
G02*
X227217150Y-95466000I381000J0D01*
G01*
D13*
X175694113Y-127434000D02*
X175694113Y-126866000D01*
X175734113Y-127668000D02*
X175734113Y-126632000D01*
X175774113Y-127827000D02*
X175774113Y-126473000D01*
X175814113Y-127955000D02*
X175814113Y-126345000D01*
X175854113Y-128065000D02*
X175854113Y-126235000D01*
X175894113Y-128161000D02*
X175894113Y-126139000D01*
X175934113Y-128248000D02*
X175934113Y-126052000D01*
X175974113Y-128328000D02*
X175974113Y-125972000D01*
X176014113Y-128401000D02*
X176014113Y-125899000D01*
X176054113Y-128469000D02*
X176054113Y-125831000D01*
X176094113Y-128533000D02*
X176094113Y-125767000D01*
X176134113Y-128593000D02*
X176134113Y-125707000D01*
X176174113Y-128650000D02*
X176174113Y-125650000D01*
X176214113Y-128704000D02*
X176214113Y-125596000D01*
X176254113Y-128755000D02*
X176254113Y-125545000D01*
X176294113Y-126110000D02*
X176294113Y-125497000D01*
X176294113Y-128803000D02*
X176294113Y-128190000D01*
X176334113Y-126110000D02*
X176334113Y-125451000D01*
X176334113Y-128849000D02*
X176334113Y-128190000D01*
X176374113Y-126110000D02*
X176374113Y-125407000D01*
X176374113Y-128893000D02*
X176374113Y-128190000D01*
X176414113Y-126110000D02*
X176414113Y-125365000D01*
X176414113Y-128935000D02*
X176414113Y-128190000D01*
X176454113Y-126110000D02*
X176454113Y-125324000D01*
X176454113Y-128976000D02*
X176454113Y-128190000D01*
X176494113Y-126110000D02*
X176494113Y-125286000D01*
X176494113Y-129014000D02*
X176494113Y-128190000D01*
X176534113Y-126110000D02*
X176534113Y-125249000D01*
X176534113Y-129051000D02*
X176534113Y-128190000D01*
X176574113Y-126110000D02*
X176574113Y-125213000D01*
X176574113Y-129087000D02*
X176574113Y-128190000D01*
X176614113Y-126110000D02*
X176614113Y-125179000D01*
X176614113Y-129121000D02*
X176614113Y-128190000D01*
X176654113Y-126110000D02*
X176654113Y-125146000D01*
X176654113Y-129154000D02*
X176654113Y-128190000D01*
X176694113Y-126110000D02*
X176694113Y-125115000D01*
X176694113Y-129185000D02*
X176694113Y-128190000D01*
X176734113Y-126110000D02*
X176734113Y-125085000D01*
X176734113Y-129215000D02*
X176734113Y-128190000D01*
X176774113Y-126110000D02*
X176774113Y-125055000D01*
X176774113Y-129245000D02*
X176774113Y-128190000D01*
X176814113Y-126110000D02*
X176814113Y-125028000D01*
X176814113Y-129272000D02*
X176814113Y-128190000D01*
X176854113Y-126110000D02*
X176854113Y-125001000D01*
X176854113Y-129299000D02*
X176854113Y-128190000D01*
X176894113Y-126110000D02*
X176894113Y-124975000D01*
X176894113Y-129325000D02*
X176894113Y-128190000D01*
X176934113Y-126110000D02*
X176934113Y-124950000D01*
X176934113Y-129350000D02*
X176934113Y-128190000D01*
X176974113Y-126110000D02*
X176974113Y-124926000D01*
X176974113Y-129374000D02*
X176974113Y-128190000D01*
X177014113Y-126110000D02*
X177014113Y-124903000D01*
X177014113Y-129397000D02*
X177014113Y-128190000D01*
X177054113Y-126110000D02*
X177054113Y-124882000D01*
X177054113Y-129418000D02*
X177054113Y-128190000D01*
X177094113Y-126110000D02*
X177094113Y-124860000D01*
X177094113Y-129440000D02*
X177094113Y-128190000D01*
X177134113Y-126110000D02*
X177134113Y-124840000D01*
X177134113Y-129460000D02*
X177134113Y-128190000D01*
X177174113Y-126110000D02*
X177174113Y-124821000D01*
X177174113Y-129479000D02*
X177174113Y-128190000D01*
X177214113Y-126110000D02*
X177214113Y-124802000D01*
X177214113Y-129498000D02*
X177214113Y-128190000D01*
X177254113Y-126110000D02*
X177254113Y-124785000D01*
X177254113Y-129515000D02*
X177254113Y-128190000D01*
X177294113Y-126110000D02*
X177294113Y-124768000D01*
X177294113Y-129532000D02*
X177294113Y-128190000D01*
X177334113Y-126110000D02*
X177334113Y-124752000D01*
X177334113Y-129548000D02*
X177334113Y-128190000D01*
X177374113Y-126110000D02*
X177374113Y-124736000D01*
X177374113Y-129564000D02*
X177374113Y-128190000D01*
X177414113Y-126110000D02*
X177414113Y-124722000D01*
X177414113Y-129578000D02*
X177414113Y-128190000D01*
X177454113Y-126110000D02*
X177454113Y-124708000D01*
X177454113Y-129592000D02*
X177454113Y-128190000D01*
X177494113Y-126110000D02*
X177494113Y-124695000D01*
X177494113Y-129605000D02*
X177494113Y-128190000D01*
X177534113Y-126110000D02*
X177534113Y-124682000D01*
X177534113Y-129618000D02*
X177534113Y-128190000D01*
X177574113Y-126110000D02*
X177574113Y-124670000D01*
X177574113Y-129630000D02*
X177574113Y-128190000D01*
X177615113Y-126110000D02*
X177615113Y-124659000D01*
X177615113Y-129641000D02*
X177615113Y-128190000D01*
X177655113Y-126110000D02*
X177655113Y-124649000D01*
X177655113Y-129651000D02*
X177655113Y-128190000D01*
X177695113Y-126110000D02*
X177695113Y-124639000D01*
X177695113Y-129661000D02*
X177695113Y-128190000D01*
X177735113Y-126110000D02*
X177735113Y-124630000D01*
X177735113Y-129670000D02*
X177735113Y-128190000D01*
X177775113Y-126110000D02*
X177775113Y-124622000D01*
X177775113Y-129678000D02*
X177775113Y-128190000D01*
X177815113Y-126110000D02*
X177815113Y-124614000D01*
X177815113Y-129686000D02*
X177815113Y-128190000D01*
X177855113Y-126110000D02*
X177855113Y-124607000D01*
X177855113Y-129693000D02*
X177855113Y-128190000D01*
X177895113Y-126110000D02*
X177895113Y-124600000D01*
X177895113Y-129700000D02*
X177895113Y-128190000D01*
X177935113Y-126110000D02*
X177935113Y-124594000D01*
X177935113Y-129706000D02*
X177935113Y-128190000D01*
X177975113Y-126110000D02*
X177975113Y-124589000D01*
X177975113Y-129711000D02*
X177975113Y-128190000D01*
X178015113Y-126110000D02*
X178015113Y-124585000D01*
X178015113Y-129715000D02*
X178015113Y-128190000D01*
X178055113Y-126110000D02*
X178055113Y-124581000D01*
X178055113Y-129719000D02*
X178055113Y-128190000D01*
X178095113Y-126110000D02*
X178095113Y-124577000D01*
X178095113Y-129723000D02*
X178095113Y-128190000D01*
X178135113Y-126110000D02*
X178135113Y-124574000D01*
X178135113Y-129726000D02*
X178135113Y-128190000D01*
X178175113Y-126110000D02*
X178175113Y-124572000D01*
X178175113Y-129728000D02*
X178175113Y-128190000D01*
X178215113Y-126110000D02*
X178215113Y-124571000D01*
X178215113Y-129729000D02*
X178215113Y-128190000D01*
X178255113Y-126110000D02*
X178255113Y-124570000D01*
X178255113Y-129730000D02*
X178255113Y-128190000D01*
X178295113Y-126110000D02*
X178295113Y-124570000D01*
X178295113Y-129730000D02*
X178295113Y-128190000D01*
X180849888Y-128875000D02*
X180849888Y-128375000D01*
X181099888Y-128625000D02*
X180599888Y-128625000D01*
X180915113Y-127150000D02*
G75*
G02*
X175675113Y-127150000I-2620000J0D01*
G01*
X175675113Y-127150000D02*
G75*
G02*
X180915113Y-127150000I2620000J0D01*
G01*
X182465000Y-61211252D02*
X182465000Y-60688748D01*
X183935000Y-61211252D02*
X183935000Y-60688748D01*
X209021150Y-98790780D02*
X215481150Y-98790780D01*
X209021150Y-98830780D02*
X215481150Y-98830780D01*
X209021150Y-98870780D02*
X215481150Y-98870780D01*
X209023150Y-98750780D02*
X215479150Y-98750780D01*
X209024150Y-98710780D02*
X215478150Y-98710780D01*
X209027150Y-98670780D02*
X215475150Y-98670780D01*
X209029150Y-98630780D02*
X211211150Y-98630780D01*
X209033150Y-98590780D02*
X211211150Y-98590780D01*
X209036150Y-98550780D02*
X211211150Y-98550780D01*
X209040150Y-98510780D02*
X211211150Y-98510780D01*
X209045150Y-98470780D02*
X211211150Y-98470780D01*
X209050150Y-98430780D02*
X211211150Y-98430780D01*
X209056150Y-98390780D02*
X211211150Y-98390780D01*
X209062150Y-98350780D02*
X211211150Y-98350780D01*
X209069150Y-98310780D02*
X211211150Y-98310780D01*
X209076150Y-98270780D02*
X211211150Y-98270780D01*
X209084150Y-98230780D02*
X211211150Y-98230780D01*
X209092150Y-98190780D02*
X211211150Y-98190780D01*
X209101150Y-98149780D02*
X211211150Y-98149780D01*
X209110150Y-98109780D02*
X211211150Y-98109780D01*
X209120150Y-98069780D02*
X211211150Y-98069780D01*
X209130150Y-98029780D02*
X211211150Y-98029780D01*
X209141150Y-97989780D02*
X211211150Y-97989780D01*
X209153150Y-97949780D02*
X211211150Y-97949780D01*
X209165150Y-97909780D02*
X211211150Y-97909780D01*
X209177150Y-97869780D02*
X211211150Y-97869780D01*
X209190150Y-97829780D02*
X211211150Y-97829780D01*
X209204150Y-97789780D02*
X211211150Y-97789780D01*
X209218150Y-97749780D02*
X211211150Y-97749780D01*
X209233150Y-97709780D02*
X211211150Y-97709780D01*
X209249150Y-97669780D02*
X211211150Y-97669780D01*
X209265150Y-97629780D02*
X211211150Y-97629780D01*
X209281150Y-97589780D02*
X211211150Y-97589780D01*
X209299150Y-97549780D02*
X211211150Y-97549780D01*
X209317150Y-97509780D02*
X211211150Y-97509780D01*
X209335150Y-97469780D02*
X211211150Y-97469780D01*
X209355150Y-97429780D02*
X211211150Y-97429780D01*
X209375150Y-97389780D02*
X211211150Y-97389780D01*
X209395150Y-97349780D02*
X211211150Y-97349780D01*
X209417150Y-97309780D02*
X211211150Y-97309780D01*
X209439150Y-97269780D02*
X211211150Y-97269780D01*
X209461150Y-97229780D02*
X211211150Y-97229780D01*
X209485150Y-97189780D02*
X211211150Y-97189780D01*
X209509150Y-97149780D02*
X211211150Y-97149780D01*
X209535150Y-97109780D02*
X211211150Y-97109780D01*
X209561150Y-97069780D02*
X211211150Y-97069780D01*
X209587150Y-97029780D02*
X211211150Y-97029780D01*
X209615150Y-96989780D02*
X211211150Y-96989780D01*
X209644150Y-96949780D02*
X211211150Y-96949780D01*
X209673150Y-96909780D02*
X211211150Y-96909780D01*
X209703150Y-96869780D02*
X211211150Y-96869780D01*
X209735150Y-96829780D02*
X211211150Y-96829780D01*
X209767150Y-96789780D02*
X211211150Y-96789780D01*
X209801150Y-96749780D02*
X211211150Y-96749780D01*
X209835150Y-96709780D02*
X211211150Y-96709780D01*
X209871150Y-96669780D02*
X211211150Y-96669780D01*
X209908150Y-96629780D02*
X211211150Y-96629780D01*
X209946150Y-96589780D02*
X211211150Y-96589780D01*
X209986150Y-96549780D02*
X214516150Y-96549780D01*
X210027150Y-96509780D02*
X214475150Y-96509780D01*
X210069150Y-96469780D02*
X214433150Y-96469780D01*
X210097150Y-102056021D02*
X210727150Y-102056021D01*
X210114150Y-96429780D02*
X214388150Y-96429780D01*
X210159150Y-96389780D02*
X214343150Y-96389780D01*
X210207150Y-96349780D02*
X214295150Y-96349780D01*
X210256150Y-96309780D02*
X214246150Y-96309780D01*
X210307150Y-96269780D02*
X214195150Y-96269780D01*
X210361150Y-96229780D02*
X214141150Y-96229780D01*
X210412150Y-102371021D02*
X210412150Y-101741021D01*
X210417150Y-96189780D02*
X214085150Y-96189780D01*
X210475150Y-96149780D02*
X214027150Y-96149780D01*
X210537150Y-96109780D02*
X213965150Y-96109780D01*
X210601150Y-96069780D02*
X213901150Y-96069780D01*
X210670150Y-96029780D02*
X213832150Y-96029780D01*
X210742150Y-95989780D02*
X213760150Y-95989780D01*
X210819150Y-95949780D02*
X213683150Y-95949780D01*
X210901150Y-95909780D02*
X213601150Y-95909780D01*
X210989150Y-95869780D02*
X213513150Y-95869780D01*
X211086150Y-95829780D02*
X213416150Y-95829780D01*
X211192150Y-95789780D02*
X213310150Y-95789780D01*
X211311150Y-95749780D02*
X213191150Y-95749780D01*
X211449150Y-95709780D02*
X213053150Y-95709780D01*
X211618150Y-95669780D02*
X212884150Y-95669780D01*
X211849150Y-95629780D02*
X212653150Y-95629780D01*
X213291150Y-96589780D02*
X214556150Y-96589780D01*
X213291150Y-96629780D02*
X214594150Y-96629780D01*
X213291150Y-96669780D02*
X214631150Y-96669780D01*
X213291150Y-96709780D02*
X214667150Y-96709780D01*
X213291150Y-96749780D02*
X214701150Y-96749780D01*
X213291150Y-96789780D02*
X214735150Y-96789780D01*
X213291150Y-96829780D02*
X214767150Y-96829780D01*
X213291150Y-96869780D02*
X214799150Y-96869780D01*
X213291150Y-96909780D02*
X214829150Y-96909780D01*
X213291150Y-96949780D02*
X214858150Y-96949780D01*
X213291150Y-96989780D02*
X214887150Y-96989780D01*
X213291150Y-97029780D02*
X214915150Y-97029780D01*
X213291150Y-97069780D02*
X214941150Y-97069780D01*
X213291150Y-97109780D02*
X214967150Y-97109780D01*
X213291150Y-97149780D02*
X214993150Y-97149780D01*
X213291150Y-97189780D02*
X215017150Y-97189780D01*
X213291150Y-97229780D02*
X215041150Y-97229780D01*
X213291150Y-97269780D02*
X215063150Y-97269780D01*
X213291150Y-97309780D02*
X215085150Y-97309780D01*
X213291150Y-97349780D02*
X215107150Y-97349780D01*
X213291150Y-97389780D02*
X215127150Y-97389780D01*
X213291150Y-97429780D02*
X215147150Y-97429780D01*
X213291150Y-97469780D02*
X215167150Y-97469780D01*
X213291150Y-97509780D02*
X215185150Y-97509780D01*
X213291150Y-97549780D02*
X215203150Y-97549780D01*
X213291150Y-97589780D02*
X215221150Y-97589780D01*
X213291150Y-97629780D02*
X215237150Y-97629780D01*
X213291150Y-97669780D02*
X215253150Y-97669780D01*
X213291150Y-97709780D02*
X215269150Y-97709780D01*
X213291150Y-97749780D02*
X215284150Y-97749780D01*
X213291150Y-97789780D02*
X215298150Y-97789780D01*
X213291150Y-97829780D02*
X215312150Y-97829780D01*
X213291150Y-97869780D02*
X215325150Y-97869780D01*
X213291150Y-97909780D02*
X215337150Y-97909780D01*
X213291150Y-97949780D02*
X215349150Y-97949780D01*
X213291150Y-97989780D02*
X215361150Y-97989780D01*
X213291150Y-98029780D02*
X215372150Y-98029780D01*
X213291150Y-98069780D02*
X215382150Y-98069780D01*
X213291150Y-98109780D02*
X215392150Y-98109780D01*
X213291150Y-98149780D02*
X215401150Y-98149780D01*
X213291150Y-98190780D02*
X215410150Y-98190780D01*
X213291150Y-98230780D02*
X215418150Y-98230780D01*
X213291150Y-98270780D02*
X215426150Y-98270780D01*
X213291150Y-98310780D02*
X215433150Y-98310780D01*
X213291150Y-98350780D02*
X215440150Y-98350780D01*
X213291150Y-98390780D02*
X215446150Y-98390780D01*
X213291150Y-98430780D02*
X215452150Y-98430780D01*
X213291150Y-98470780D02*
X215457150Y-98470780D01*
X213291150Y-98510780D02*
X215462150Y-98510780D01*
X213291150Y-98550780D02*
X215466150Y-98550780D01*
X213291150Y-98590780D02*
X215469150Y-98590780D01*
X213291150Y-98630780D02*
X215473150Y-98630780D01*
X215521150Y-98870780D02*
G75*
G02*
X208981150Y-98870780I-3270000J0D01*
G01*
X208981150Y-98870780D02*
G75*
G02*
X215521150Y-98870780I3270000J0D01*
G01*
X178438748Y-66315000D02*
X178961252Y-66315000D01*
X178438748Y-67785000D02*
X178961252Y-67785000D01*
D16*
X179200000Y-139575000D02*
X179200000Y-141575000D01*
X179200000Y-145100000D02*
X179200000Y-146325000D01*
X179200000Y-146325000D02*
X186900000Y-146325000D01*
D14*
X181450000Y-136175000D02*
X181450000Y-136175000D01*
X181450000Y-136275000D02*
X181450000Y-136275000D01*
D16*
X186900000Y-139575000D02*
X186900000Y-141575000D01*
X186900000Y-146325000D02*
X186900000Y-145100000D01*
D14*
X181450000Y-136175000D02*
G75*
G02*
X181450000Y-136275000I0J-50000D01*
G01*
X181450000Y-136275000D02*
G75*
G02*
X181450000Y-136175000I0J50000D01*
G01*
D13*
X158391248Y-71685000D02*
X158913752Y-71685000D01*
X158391248Y-73155000D02*
X158913752Y-73155000D01*
X153180000Y-124143748D02*
X153180000Y-126916252D01*
X156600000Y-124143748D02*
X156600000Y-126916252D01*
X178377500Y-109954724D02*
X178377500Y-109445276D01*
X179422500Y-109954724D02*
X179422500Y-109445276D01*
X182440000Y-55961252D02*
X182440000Y-55438748D01*
X183910000Y-55961252D02*
X183910000Y-55438748D01*
X99977500Y-100254724D02*
X99977500Y-99745276D01*
X101022500Y-100254724D02*
X101022500Y-99745276D01*
D17*
X130793978Y-110414300D02*
X134856022Y-110414300D01*
X134856022Y-105105700D02*
X130793978Y-105105700D01*
D19*
G36*
X128913400Y-106325535D02*
G01*
X128659400Y-106325535D01*
X128659400Y-105944535D01*
X128913400Y-105944535D01*
X128913400Y-106325535D01*
G37*
D13*
X95586252Y-109290000D02*
X95063748Y-109290000D01*
X95586252Y-110760000D02*
X95063748Y-110760000D01*
D17*
X174303800Y-111667200D02*
X174303800Y-115832800D01*
X174303800Y-115832800D02*
X183346200Y-115832800D01*
X183346200Y-111667200D02*
X174303800Y-111667200D01*
X183346200Y-115832800D02*
X183346200Y-111667200D01*
D13*
X171215000Y-63586252D02*
X171215000Y-63063748D01*
X172685000Y-63586252D02*
X172685000Y-63063748D01*
D14*
X86475000Y-135975000D02*
X86475000Y-135975000D01*
X86575000Y-135975000D02*
X86575000Y-135975000D01*
D16*
X87675000Y-129225000D02*
X114675000Y-129225000D01*
X87675000Y-132725000D02*
X87675000Y-129225000D01*
X87675000Y-142725000D02*
X87675000Y-139225000D01*
X99175000Y-144225000D02*
X99175000Y-142725000D01*
X103175000Y-142725000D02*
X103175000Y-144225000D01*
X103175000Y-144225000D02*
X103175000Y-144225000D01*
X114675000Y-129225000D02*
X114675000Y-142725000D01*
X114675000Y-142725000D02*
X87675000Y-142725000D01*
D14*
X86475000Y-135975000D02*
G75*
G02*
X86575000Y-135975000I50000J0D01*
G01*
X86575000Y-135975000D02*
G75*
G02*
X86475000Y-135975000I-50000J0D01*
G01*
D16*
X103175000Y-144225000D02*
G75*
G02*
X99175000Y-144225000I-2000000J0D01*
G01*
D13*
X166990000Y-54411252D02*
X166990000Y-53888748D01*
X168460000Y-54411252D02*
X168460000Y-53888748D01*
D14*
X116300000Y-136000000D02*
X116300000Y-136000000D01*
X116400000Y-136000000D02*
X116400000Y-136000000D01*
D16*
X117500000Y-129250000D02*
X144500000Y-129250000D01*
X117500000Y-132750000D02*
X117500000Y-129250000D01*
X117500000Y-142750000D02*
X117500000Y-139250000D01*
X129000000Y-144250000D02*
X129000000Y-142750000D01*
X133000000Y-142750000D02*
X133000000Y-144250000D01*
X133000000Y-144250000D02*
X133000000Y-144250000D01*
X144500000Y-129250000D02*
X144500000Y-142750000D01*
X144500000Y-142750000D02*
X117500000Y-142750000D01*
D14*
X116300000Y-136000000D02*
G75*
G02*
X116400000Y-136000000I50000J0D01*
G01*
X116400000Y-136000000D02*
G75*
G02*
X116300000Y-136000000I-50000J0D01*
G01*
D16*
X133000000Y-144250000D02*
G75*
G02*
X129000000Y-144250000I-2000000J0D01*
G01*
D13*
X124311252Y-109640000D02*
X123788748Y-109640000D01*
X124311252Y-111110000D02*
X123788748Y-111110000D01*
X173438748Y-66540000D02*
X173961252Y-66540000D01*
X173438748Y-68010000D02*
X173961252Y-68010000D01*
X99490000Y-96686252D02*
X99490000Y-96163748D01*
X100960000Y-96686252D02*
X100960000Y-96163748D01*
X166965000Y-62811252D02*
X166965000Y-62288748D01*
X168435000Y-62811252D02*
X168435000Y-62288748D01*
X166965000Y-66238748D02*
X166965000Y-66761252D01*
X168435000Y-66238748D02*
X168435000Y-66761252D01*
X171188748Y-120415000D02*
X171711252Y-120415000D01*
X171188748Y-121885000D02*
X171711252Y-121885000D01*
X118010000Y-125585000D02*
X118010000Y-124880000D01*
X118010000Y-127620000D02*
X118010000Y-126915000D01*
X122250000Y-124880000D02*
X118010000Y-124880000D01*
X122250000Y-125585000D02*
X122250000Y-124880000D01*
X122250000Y-127620000D02*
X118010000Y-127620000D01*
X122250000Y-127620000D02*
X122250000Y-126915000D01*
X179361252Y-50840000D02*
X178838748Y-50840000D01*
X179361252Y-52310000D02*
X178838748Y-52310000D01*
X141950000Y-24870000D02*
X141950000Y-27530000D01*
X162330000Y-24870000D02*
X141950000Y-24870000D01*
X162330000Y-24870000D02*
X162330000Y-27530000D01*
X162330000Y-27530000D02*
X141950000Y-27530000D01*
X164930000Y-26200000D02*
X164930000Y-27530000D01*
X164930000Y-27530000D02*
X163600000Y-27530000D01*
X176100000Y-24870000D02*
X176100000Y-27530000D01*
X183780000Y-24870000D02*
X176100000Y-24870000D01*
X183780000Y-24870000D02*
X183780000Y-27530000D01*
X183780000Y-27530000D02*
X176100000Y-27530000D01*
X186380000Y-26200000D02*
X186380000Y-27530000D01*
X186380000Y-27530000D02*
X185050000Y-27530000D01*
D16*
X154975000Y-114250001D02*
X154000001Y-114250001D01*
X156175000Y-117349999D02*
X154000001Y-117349999D01*
X122640000Y-55383000D02*
X144860000Y-55383000D01*
X122640000Y-64843000D02*
X122640000Y-55383000D01*
X122700000Y-66488000D02*
X122700000Y-65193000D01*
X144860000Y-55383000D02*
X144860000Y-64843000D01*
X144860000Y-64843000D02*
X122640000Y-64843000D01*
D13*
X184111252Y-28365000D02*
X183588748Y-28365000D01*
X184111252Y-29835000D02*
X183588748Y-29835000D01*
X178335000Y-133251252D02*
X178335000Y-132728748D01*
X179805000Y-133251252D02*
X179805000Y-132728748D01*
X188613748Y-107065000D02*
X189136252Y-107065000D01*
X188613748Y-108535000D02*
X189136252Y-108535000D01*
D20*
X228996150Y-102603400D03*
D21*
X180850000Y-140425000D03*
X185250000Y-140425000D03*
%LPC*%
D22*
X173575000Y-51600000D03*
X171500000Y-51600000D03*
D23*
X164680000Y-140850000D03*
X167220000Y-140850000D03*
X169760000Y-140850000D03*
X172300000Y-140850000D03*
D24*
X173690000Y-136650000D03*
X163290000Y-136650000D03*
D25*
X183375000Y-68462500D03*
X183375000Y-66387500D03*
D26*
X162245000Y-107475000D03*
X162245000Y-107975000D03*
X162245000Y-108475000D03*
X162245000Y-108975000D03*
X162245000Y-109475000D03*
X162245000Y-109975000D03*
X162245000Y-110475000D03*
X162245000Y-110975000D03*
X162245000Y-111475000D03*
X162245000Y-111975000D03*
X162245000Y-112475000D03*
X162245000Y-112975000D03*
D27*
X163675000Y-114405000D03*
X164175000Y-114405000D03*
X164675000Y-114405000D03*
X165175000Y-114405000D03*
X165675000Y-114405000D03*
X166175000Y-114405000D03*
X166675000Y-114405000D03*
X167175000Y-114405000D03*
X167675000Y-114405000D03*
X168175000Y-114405000D03*
X168675000Y-114405000D03*
X169175000Y-114405000D03*
D26*
X170605000Y-112975000D03*
X170605000Y-112475000D03*
X170605000Y-111975000D03*
X170605000Y-111475000D03*
X170605000Y-110975000D03*
X170605000Y-110475000D03*
X170605000Y-109975000D03*
X170605000Y-109475000D03*
X170605000Y-108975000D03*
X170605000Y-108475000D03*
X170605000Y-107975000D03*
X170605000Y-107475000D03*
D27*
X169175000Y-106045000D03*
X168675000Y-106045000D03*
X168175000Y-106045000D03*
X167675000Y-106045000D03*
X167175000Y-106045000D03*
X166675000Y-106045000D03*
X166175000Y-106045000D03*
X165675000Y-106045000D03*
X165175000Y-106045000D03*
X164675000Y-106045000D03*
X164175000Y-106045000D03*
X163675000Y-106045000D03*
D28*
X171900000Y-58237500D03*
X171900000Y-60312500D03*
D29*
X166425000Y-123199999D03*
X166425000Y-124150000D03*
X166425000Y-125099998D03*
X168825000Y-125099998D03*
X168825000Y-124150000D03*
X168825000Y-123199999D03*
D30*
X105112500Y-110050000D03*
X107187500Y-110050000D03*
D28*
X177250000Y-60312500D03*
X177250000Y-62387500D03*
D31*
X206480000Y-116710000D03*
D32*
X209020000Y-116710000D03*
X211560000Y-116710000D03*
X214100000Y-116710000D03*
D33*
X140540000Y-126530000D03*
X143040000Y-126530000D03*
D28*
X162800000Y-116337500D03*
X162800000Y-118412500D03*
D23*
X149480000Y-140925000D03*
X152020000Y-140925000D03*
X154560000Y-140925000D03*
X157100000Y-140925000D03*
D24*
X148090000Y-136725000D03*
X158490000Y-136725000D03*
D25*
X125250000Y-108412500D03*
X125250000Y-106337500D03*
D34*
X186578500Y-110724999D03*
X194071500Y-110724999D03*
X186578500Y-115225001D03*
X194071500Y-115225001D03*
D25*
X191070000Y-47777500D03*
X191070000Y-45702500D03*
D28*
X176275000Y-54487500D03*
X176275000Y-56562500D03*
D22*
X173587500Y-54500000D03*
X171512500Y-54500000D03*
D35*
X208320000Y-70115000D03*
X208820000Y-70115000D03*
X209320000Y-70115000D03*
X209820000Y-70115000D03*
X210320000Y-70115000D03*
X210820000Y-70115000D03*
X211320000Y-70115000D03*
X211820000Y-70115000D03*
X212320000Y-70115000D03*
X212820000Y-70115000D03*
X213320000Y-70115000D03*
X213820000Y-70115000D03*
X214320000Y-70115000D03*
X214820000Y-70115000D03*
X215320000Y-70115000D03*
X215820000Y-70115000D03*
X216320000Y-70115000D03*
X216820000Y-70115000D03*
X217320000Y-70115000D03*
X217820000Y-70115000D03*
X218320000Y-70115000D03*
X218820000Y-70115000D03*
X219320000Y-70115000D03*
X219820000Y-70115000D03*
X219820000Y-50415000D03*
X219320000Y-50415000D03*
X218820000Y-50415000D03*
X218320000Y-50415000D03*
X217820000Y-50415000D03*
X217320000Y-50415000D03*
X216820000Y-50415000D03*
X216320000Y-50415000D03*
X215820000Y-50415000D03*
X215320000Y-50415000D03*
X214820000Y-50415000D03*
X214320000Y-50415000D03*
X213820000Y-50415000D03*
X213320000Y-50415000D03*
X212820000Y-50415000D03*
X212320000Y-50415000D03*
X211820000Y-50415000D03*
X211320000Y-50415000D03*
X210820000Y-50415000D03*
X210320000Y-50415000D03*
X209820000Y-50415000D03*
X209320000Y-50415000D03*
X208820000Y-50415000D03*
X208320000Y-50415000D03*
D36*
X98875000Y-109972500D03*
X99525000Y-109972500D03*
X100175000Y-109972500D03*
X100825000Y-109972500D03*
X101475000Y-109972500D03*
X102125000Y-109972500D03*
X102775000Y-109972500D03*
X103425000Y-109972500D03*
X103425000Y-104247500D03*
X102775000Y-104247500D03*
X102125000Y-104247500D03*
X101475000Y-104247500D03*
X100825000Y-104247500D03*
X100175000Y-104247500D03*
X99525000Y-104247500D03*
X98875000Y-104247500D03*
D37*
X226836150Y-97523400D03*
X226836150Y-100063400D03*
X226836150Y-102603400D03*
X226836150Y-105143400D03*
D38*
X179295113Y-127150000D03*
D33*
X177295113Y-127150000D03*
D25*
X183200000Y-61987500D03*
X183200000Y-59912500D03*
D38*
X212251150Y-100120780D03*
D33*
X212251150Y-97620780D03*
D30*
X177662500Y-67050000D03*
X179737500Y-67050000D03*
D39*
X181450000Y-137750000D03*
X182250000Y-137750000D03*
X183050000Y-137750000D03*
X183850000Y-137750000D03*
X184650000Y-137750000D03*
D40*
X178600000Y-137875000D03*
X187500000Y-137875000D03*
X178600000Y-143375000D03*
X187500000Y-143375000D03*
D30*
X157615000Y-72420000D03*
X159690000Y-72420000D03*
D41*
X154890000Y-123305000D03*
X154890000Y-127755000D03*
D42*
X178900000Y-110612500D03*
X178900000Y-108787500D03*
D25*
X183175000Y-56737500D03*
X183175000Y-54662500D03*
D42*
X100500000Y-100912500D03*
X100500000Y-99087500D03*
D43*
X135777750Y-110034951D03*
X135777750Y-109384965D03*
X135777750Y-108734979D03*
X135777750Y-108084993D03*
X135777750Y-107435007D03*
X135777750Y-106785021D03*
X135777750Y-106135035D03*
X135777750Y-105485049D03*
X129872250Y-105485049D03*
X129872250Y-106135035D03*
X129872250Y-106785021D03*
X129872250Y-107435007D03*
X129872250Y-108084993D03*
X129872250Y-108734979D03*
X129872250Y-109384965D03*
X129872250Y-110034951D03*
D22*
X96362500Y-110025000D03*
X94287500Y-110025000D03*
D44*
X176325000Y-113750000D03*
D45*
X178825000Y-113750000D03*
X181325000Y-113750000D03*
D25*
X171950000Y-64362500D03*
X171950000Y-62287500D03*
D46*
X88875000Y-135975000D03*
D47*
X94175000Y-135975000D03*
X108175000Y-135975000D03*
D25*
X167725000Y-55187500D03*
X167725000Y-53112500D03*
D46*
X118700000Y-136000000D03*
D47*
X124000000Y-136000000D03*
X138000000Y-136000000D03*
D22*
X125087500Y-110375000D03*
X123012500Y-110375000D03*
D30*
X172662500Y-67275000D03*
X174737500Y-67275000D03*
D25*
X100225000Y-97462500D03*
X100225000Y-95387500D03*
X167700000Y-63587500D03*
X167700000Y-61512500D03*
D28*
X167700000Y-65462500D03*
X167700000Y-67537500D03*
D30*
X170412500Y-121150000D03*
X172487500Y-121150000D03*
D33*
X121380000Y-126250000D03*
X118880000Y-126250000D03*
D22*
X180137500Y-51575000D03*
X178062500Y-51575000D03*
D31*
X163600000Y-26200000D03*
D32*
X161060000Y-26200000D03*
X158520000Y-26200000D03*
X155980000Y-26200000D03*
X153440000Y-26200000D03*
X150900000Y-26200000D03*
X148360000Y-26200000D03*
X145820000Y-26200000D03*
X143280000Y-26200000D03*
D31*
X185050000Y-26200000D03*
D32*
X182510000Y-26200000D03*
X179970000Y-26200000D03*
X177430000Y-26200000D03*
D29*
X155700000Y-116750001D03*
X155700000Y-115800000D03*
X155700000Y-114850002D03*
X153300000Y-114850002D03*
X153300000Y-115800000D03*
X153300000Y-116750001D03*
D48*
X123350000Y-65841000D03*
X124150000Y-65841000D03*
X124950000Y-65841000D03*
X125750000Y-65841000D03*
X126550000Y-65841000D03*
X127350000Y-65841000D03*
X128150000Y-65841000D03*
X128950000Y-65841000D03*
X129750000Y-65841000D03*
X130550000Y-65841000D03*
X131350000Y-65841000D03*
X132150000Y-65841000D03*
X132950000Y-65841000D03*
X133750000Y-65841000D03*
X134550000Y-65841000D03*
X135350000Y-65841000D03*
X136150000Y-65841000D03*
X136950000Y-65841000D03*
X137750000Y-65841000D03*
X138550000Y-65841000D03*
X139350000Y-65841000D03*
X140150000Y-65841000D03*
X140950000Y-65841000D03*
X141750000Y-65841000D03*
X142550000Y-65841000D03*
X143350000Y-65841000D03*
X144150000Y-65841000D03*
X144150000Y-54385000D03*
X143350000Y-54385000D03*
X142550000Y-54385000D03*
X141750000Y-54385000D03*
X140950000Y-54385000D03*
X140150000Y-54385000D03*
X139350000Y-54385000D03*
X138550000Y-54385000D03*
X137750000Y-54385000D03*
X136950000Y-54385000D03*
X136150000Y-54385000D03*
X135350000Y-54385000D03*
X134550000Y-54385000D03*
X133750000Y-54385000D03*
X132950000Y-54385000D03*
X132150000Y-54385000D03*
X131350000Y-54385000D03*
X130550000Y-54385000D03*
X129750000Y-54385000D03*
X128950000Y-54385000D03*
X128150000Y-54385000D03*
X127350000Y-54385000D03*
X126550000Y-54385000D03*
X125750000Y-54385000D03*
X124950000Y-54385000D03*
X124150000Y-54385000D03*
X123350000Y-54385000D03*
D22*
X184887500Y-29100000D03*
X182812500Y-29100000D03*
D25*
X179070000Y-134027500D03*
X179070000Y-131952500D03*
D30*
X187837500Y-107800000D03*
X189912500Y-107800000D03*
D49*
X162775000Y-119500000D03*
X181500000Y-119500000D03*
X158975000Y-119500000D03*
X181500000Y-135600000D03*
X168825000Y-119500000D03*
X102825000Y-93400000D03*
X184725000Y-93375000D03*
X184725000Y-71400000D03*
X166325000Y-63600000D03*
X219591150Y-101348400D03*
X134187500Y-61550000D03*
X159725000Y-117900000D03*
X105350000Y-103000000D03*
X100175000Y-102700000D03*
X177925000Y-54400000D03*
X174920000Y-51570000D03*
X213100000Y-52060000D03*
X131275000Y-105250000D03*
X176550000Y-67050000D03*
X96110000Y-100870000D03*
X133900000Y-64225000D03*
X166250000Y-54250000D03*
X134475000Y-108075000D03*
X168600000Y-109400000D03*
X166450000Y-59150000D03*
X105350000Y-107950000D03*
X144200000Y-64275000D03*
X179725000Y-49985000D03*
X143850000Y-61450000D03*
X171900000Y-56975000D03*
X121950000Y-63050000D03*
X127250000Y-58750000D03*
X129812500Y-61550000D03*
X132250000Y-55975000D03*
X221061150Y-101088400D03*
X128675000Y-103725000D03*
X156190000Y-72400000D03*
X102175000Y-107400000D03*
X164525000Y-123200000D03*
X171450000Y-67250000D03*
X211920000Y-53880000D03*
X168200000Y-49960000D03*
X170325000Y-124100000D03*
X213595000Y-68705000D03*
X127475000Y-55800000D03*
X131275000Y-106275000D03*
X128070000Y-102350000D03*
X166280000Y-64830000D03*
X166250000Y-65534999D03*
X162675000Y-121025000D03*
X171950000Y-108425000D03*
X166350000Y-51760000D03*
X163700000Y-108775000D03*
X98775000Y-97425000D03*
X213290000Y-111790000D03*
X156950000Y-116750001D03*
X184900000Y-68300000D03*
X172850000Y-68675000D03*
X165950000Y-108150000D03*
X184875000Y-61825000D03*
X222581150Y-99728400D03*
X218091150Y-102818400D03*
X177250000Y-59150000D03*
X136075000Y-98100000D03*
X173600000Y-53150000D03*
X174890000Y-49940000D03*
X168025000Y-68650000D03*
X125137500Y-61462500D03*
X211620000Y-66780000D03*
X181950000Y-68450000D03*
X181650000Y-51550000D03*
X133350000Y-57350000D03*
X134390000Y-96730000D03*
X181630000Y-29000000D03*
X213840000Y-71670000D03*
X173450000Y-62200000D03*
X166425000Y-68700000D03*
X183250000Y-63150000D03*
X159400000Y-50360000D03*
X172025000Y-107425000D03*
X181750000Y-56850000D03*
X184425000Y-49975000D03*
X177775000Y-68475000D03*
X213810000Y-48850000D03*
X124950000Y-64425000D03*
X97390000Y-102220000D03*
X166325000Y-55150000D03*
X129850000Y-64325000D03*
X166210000Y-107430000D03*
X184900000Y-56525000D03*
X191070000Y-49210000D03*
X168160000Y-115940000D03*
X123350000Y-64450000D03*
X103650000Y-87785000D03*
X169375000Y-87785000D03*
X169375000Y-49960000D03*
X101125000Y-108325000D03*
X99502775Y-111477223D03*
X101475000Y-88610000D03*
X168750000Y-88560000D03*
X168800000Y-50585000D03*
X102125000Y-86435000D03*
X170312500Y-86422500D03*
X170375000Y-49985000D03*
X121850000Y-60960000D03*
X198570000Y-123040000D03*
X168650000Y-104600000D03*
X168420000Y-107530000D03*
X177570000Y-131900000D03*
X178030000Y-49980000D03*
X101550000Y-111450000D03*
X172250000Y-110975000D03*
X191900000Y-67625000D03*
X167170000Y-115960000D03*
X164250000Y-116275000D03*
X100260000Y-108610000D03*
X131000000Y-103930000D03*
X127150000Y-61450000D03*
X131300000Y-107450000D03*
X98790000Y-95390000D03*
X172470000Y-122710000D03*
X132340000Y-67790000D03*
X189590000Y-45680000D03*
X167750000Y-51750000D03*
X159740000Y-73910000D03*
X131887500Y-61650000D03*
X92820000Y-102210000D03*
X174750000Y-56625000D03*
X167180000Y-104480000D03*
X173995727Y-47263513D03*
X177260000Y-63880000D03*
X187950000Y-55550000D03*
X130050000Y-58750000D03*
X171510000Y-56030000D03*
X94040000Y-100870000D03*
X107170000Y-108540000D03*
X133730000Y-52620000D03*
X183250000Y-58650000D03*
X123010000Y-111880000D03*
X166410000Y-60900000D03*
X133850000Y-55650000D03*
X167250000Y-112900000D03*
X161425000Y-48110000D03*
X162575000Y-126200000D03*
X131120000Y-98080000D03*
X121970000Y-54390000D03*
X160970000Y-124630000D03*
X132320000Y-99440000D03*
X216820000Y-53780000D03*
X141730000Y-61570000D03*
X140400000Y-110110000D03*
X174750000Y-65850000D03*
X128320000Y-107440000D03*
X218081150Y-97958400D03*
X219561150Y-97688400D03*
X214780000Y-71620000D03*
X169790000Y-130280000D03*
X167325000Y-111550000D03*
X172105913Y-112380913D03*
X214750000Y-48890000D03*
X184975000Y-67275000D03*
X141670000Y-108730000D03*
X184900000Y-30420000D03*
X107420000Y-107890000D03*
X173375000Y-64400000D03*
X165100000Y-124125000D03*
X184875000Y-60525000D03*
X108500000Y-110050000D03*
X103000000Y-108400000D03*
X123275000Y-59650000D03*
X128170000Y-100290000D03*
X191050000Y-44330000D03*
D50*
X96530000Y-75100000D03*
D49*
X123375000Y-55850000D03*
X222641150Y-97658400D03*
X166250000Y-47750000D03*
X108740000Y-104550000D03*
X166280000Y-61620000D03*
X179060000Y-130530000D03*
X123970000Y-103690000D03*
X121650000Y-110360000D03*
X94160000Y-106690000D03*
X171525000Y-50150000D03*
X171940000Y-65750000D03*
X107410000Y-103160000D03*
X173650000Y-49850000D03*
X100240000Y-94070000D03*
X154510000Y-115800000D03*
X161070000Y-72420000D03*
X92910000Y-110030000D03*
X214519448Y-51926175D03*
X137300000Y-62875000D03*
X165200000Y-107400000D03*
X125250000Y-58750000D03*
X98500000Y-102975000D03*
X168250000Y-131875000D03*
X199940000Y-124230000D03*
X166450000Y-67537500D03*
X132300000Y-96750000D03*
X128620000Y-57280000D03*
X94050000Y-103590000D03*
X215110000Y-65350000D03*
X140700000Y-63000000D03*
X179730000Y-65570000D03*
X219591150Y-99298400D03*
X184750000Y-55150000D03*
X132270000Y-102580000D03*
X163800000Y-111475000D03*
X132225000Y-64325000D03*
X186130000Y-29110000D03*
X137270000Y-110060000D03*
X190375000Y-116350000D03*
D50*
X220210000Y-28620000D03*
D49*
X181560000Y-54690000D03*
X159720000Y-113370000D03*
X164350000Y-48150000D03*
X168350000Y-113000000D03*
X174670000Y-71580000D03*
X127470000Y-67650000D03*
X216440000Y-66770000D03*
X183350000Y-65150000D03*
X177890000Y-56540000D03*
D50*
X97380000Y-31570000D03*
D49*
X176850000Y-51550000D03*
X173600000Y-60250000D03*
X168600000Y-111025000D03*
X99430339Y-102610641D03*
X171475000Y-53050000D03*
X92930000Y-108040000D03*
X129750000Y-56000000D03*
D50*
X111570000Y-40730000D03*
D49*
X181750000Y-66360000D03*
X151850000Y-115800000D03*
X107190000Y-111470000D03*
X178850000Y-62350000D03*
X172150000Y-111850000D03*
X161320000Y-116320000D03*
X189930000Y-106210000D03*
X179560000Y-68350000D03*
X188150000Y-61200000D03*
X186200000Y-44160000D03*
X190630000Y-69100000D03*
X164525000Y-107375000D03*
X175730000Y-68540000D03*
X136270000Y-61440000D03*
X130900000Y-100280000D03*
X192660000Y-45660000D03*
X166460000Y-53060000D03*
X167200000Y-107450000D03*
X129760000Y-52580000D03*
X125150000Y-52570000D03*
X123840000Y-57190000D03*
X125180000Y-102380000D03*
X214620000Y-68630000D03*
X144250000Y-56025000D03*
X167700000Y-60300000D03*
D50*
X114220000Y-68390000D03*
D49*
X191375000Y-107800000D03*
X125200000Y-105060000D03*
X161340000Y-114670000D03*
X94280000Y-111470000D03*
X129560000Y-99080000D03*
D50*
X92880000Y-49300000D03*
D49*
X181560000Y-59920000D03*
X180710000Y-131960000D03*
X221041150Y-96298400D03*
X123000000Y-108910000D03*
X183910000Y-139860000D03*
D50*
X203480000Y-143020000D03*
D49*
X166950000Y-49950000D03*
X145540000Y-54370000D03*
X125012500Y-55812500D03*
X157175000Y-115800000D03*
X173900000Y-121200000D03*
D50*
X92890000Y-50100000D03*
D49*
X180950000Y-67050000D03*
X127450000Y-64325000D03*
X178655736Y-49940736D03*
D50*
X222700000Y-129610000D03*
D49*
X174450000Y-68650000D03*
X108780000Y-106550000D03*
X183150000Y-53450000D03*
X184640000Y-135520000D03*
X135800000Y-110920000D03*
X216541150Y-99288400D03*
X159680000Y-70950000D03*
X215400000Y-55230000D03*
X165620000Y-112850000D03*
X100225000Y-111275000D03*
X154500000Y-96560000D03*
X186575000Y-96560000D03*
X154500000Y-56110001D03*
X138800000Y-127010000D03*
X137200000Y-108700000D03*
X159050000Y-105375000D03*
X159050000Y-98875000D03*
X193050000Y-62075000D03*
X138225000Y-105425000D03*
X193050000Y-98850000D03*
X153800000Y-55050000D03*
X137675000Y-106800000D03*
X153700000Y-106800000D03*
X193650000Y-50475000D03*
X157900000Y-99600000D03*
X157900000Y-107450000D03*
X193600000Y-99475000D03*
X138475000Y-107475000D03*
X123170000Y-126660000D03*
X139175000Y-106175000D03*
X158475000Y-106125000D03*
X194300000Y-51050000D03*
X194300000Y-100350000D03*
X158475000Y-100275000D03*
X133850000Y-109400000D03*
X128150000Y-110000000D03*
X129900000Y-110875000D03*
X198175000Y-35225000D03*
X198175000Y-56525000D03*
X217645000Y-35355000D03*
X121310000Y-69150000D03*
X124250000Y-69140000D03*
X121410000Y-35225000D03*
X210445000Y-41765000D03*
X148650000Y-75860000D03*
X178700000Y-41735000D03*
X178700000Y-47185000D03*
X131450000Y-75860000D03*
X148650000Y-41700000D03*
X178275000Y-83525000D03*
X178275000Y-71300000D03*
X211095000Y-83555000D03*
X179550000Y-41085000D03*
X179550000Y-47160000D03*
X209863388Y-41190000D03*
X149200000Y-41050000D03*
X149200000Y-76435000D03*
X133050000Y-76435000D03*
X120700000Y-70120000D03*
X217020000Y-34630000D03*
X120700000Y-34620000D03*
X125740000Y-70080000D03*
X198775000Y-57125000D03*
X198750000Y-34625000D03*
X211670000Y-82205000D03*
X180350000Y-82125000D03*
X180325000Y-71425000D03*
X178100000Y-42335000D03*
X211095000Y-42365000D03*
X178100000Y-46335000D03*
X130650000Y-75335000D03*
X148000000Y-42335000D03*
X148050000Y-75335000D03*
X179450000Y-82800000D03*
X179475000Y-71525000D03*
X216745000Y-82830000D03*
X211845000Y-43015000D03*
X129050000Y-74585000D03*
X177475000Y-42935000D03*
X177500000Y-47210000D03*
X147400000Y-42950000D03*
X147550000Y-74585000D03*
X216270000Y-76755000D03*
X197550000Y-54500000D03*
X197550000Y-76725000D03*
X212295000Y-75105000D03*
X204700000Y-75075000D03*
X204650000Y-63050000D03*
X163525000Y-79110000D03*
X163453435Y-59808096D03*
X217370000Y-79140000D03*
X128250000Y-81525000D03*
X203200000Y-39050000D03*
X181375000Y-71425000D03*
X203150000Y-81600000D03*
X216045000Y-39105000D03*
X181400000Y-81525000D03*
X196850000Y-54025000D03*
X196925000Y-76050000D03*
X215770000Y-76005000D03*
X216620000Y-39730000D03*
X126650000Y-80925000D03*
X204065000Y-80925000D03*
X182675000Y-71450000D03*
X204200000Y-39700000D03*
X182700000Y-80925000D03*
X151650000Y-69585000D03*
X151809128Y-61614040D03*
X143450000Y-69460000D03*
X182975000Y-47010000D03*
X183125000Y-31250000D03*
X139450000Y-44985000D03*
X181900000Y-38360000D03*
X129050000Y-38360000D03*
X181875000Y-44935000D03*
X181300000Y-39060000D03*
X130650000Y-39060000D03*
X181300000Y-45435000D03*
X168225000Y-71600000D03*
X146450000Y-78550000D03*
X146427085Y-49075000D03*
X135450000Y-49075000D03*
X168225000Y-78535000D03*
X141050000Y-46150000D03*
X152300000Y-62150000D03*
X152200000Y-70325000D03*
X142650000Y-70085000D03*
X152800000Y-62600000D03*
X152750000Y-70900000D03*
X141850000Y-70685000D03*
X154850000Y-53900000D03*
X137050000Y-51610000D03*
X154800000Y-51610000D03*
X196225000Y-53575000D03*
X124250000Y-36025000D03*
X196225000Y-36100000D03*
X153275000Y-71500000D03*
X153250000Y-63300000D03*
X141050000Y-71435000D03*
X141860000Y-46760000D03*
X180150000Y-46635000D03*
X180150000Y-40510000D03*
X133050000Y-40535000D03*
X199750000Y-59075000D03*
X139450000Y-80325000D03*
X199750000Y-80325000D03*
X140250000Y-45585000D03*
X182450000Y-44435654D03*
X128250000Y-37785000D03*
X182550000Y-37760000D03*
X195575000Y-36700000D03*
X125850000Y-36625000D03*
X195600000Y-53025000D03*
X149750000Y-77210000D03*
X149800000Y-47300000D03*
X137050000Y-77210000D03*
X137850000Y-68060000D03*
X150775000Y-68060000D03*
X151043332Y-54475000D03*
X180725000Y-46135000D03*
X131450000Y-39810000D03*
X180700000Y-39810000D03*
X143350000Y-52885000D03*
X158650000Y-52885000D03*
X158635533Y-60964467D03*
X167477588Y-71662285D03*
X167550000Y-77960000D03*
X134650000Y-77925000D03*
X199150000Y-79685000D03*
X199200000Y-58535000D03*
X138650000Y-79685000D03*
X142650000Y-52185000D03*
X157950000Y-60350000D03*
X157950000Y-52185000D03*
X135425000Y-68735000D03*
X151250000Y-68935000D03*
X151500000Y-55625000D03*
X136250000Y-34050000D03*
X200680000Y-34050000D03*
X200780000Y-60430000D03*
X172925000Y-82100000D03*
X172925000Y-71475000D03*
X136250000Y-82100000D03*
X126660000Y-37185000D03*
X194850000Y-37185000D03*
X194875000Y-52550000D03*
X146950000Y-44385000D03*
X147000000Y-73585000D03*
X140250000Y-73585000D03*
X202364522Y-69947500D03*
X171545758Y-72015153D03*
X201746827Y-66535000D03*
X172175552Y-71446175D03*
X155675000Y-111700000D03*
X177475000Y-98175000D03*
X177450000Y-71425000D03*
X152900000Y-98175000D03*
X152875000Y-111675000D03*
X183700000Y-32650000D03*
X183700000Y-46494468D03*
X160825000Y-66285000D03*
X160600000Y-33475000D03*
X178850000Y-72550000D03*
X200300000Y-64535001D03*
X200300000Y-119500000D03*
X201250000Y-117475000D03*
X201246827Y-66010000D03*
X183050000Y-117500000D03*
X159849997Y-33475000D03*
X159875000Y-65770542D03*
X182275000Y-118075000D03*
X200825000Y-65510000D03*
X200825000Y-118075000D03*
X162125000Y-67460000D03*
X162125000Y-31400000D03*
X157025000Y-33475000D03*
X157000000Y-65185000D03*
X161550000Y-66869370D03*
X161550000Y-33475000D03*
X156425000Y-64585000D03*
X156274997Y-33475000D03*
X138650000Y-43585000D03*
X155524994Y-33475000D03*
X155550000Y-64110000D03*
X156540000Y-131710000D03*
X162950000Y-67985000D03*
X162851000Y-31211778D03*
X163400000Y-59060000D03*
X163400000Y-33475000D03*
%LPD*%
M02*
