G04 #@! TF.GenerationSoftware,KiCad,Pcbnew,8.0.5*
G04 #@! TF.CreationDate,2024-11-21T16:22:07-05:00*
G04 #@! TF.ProjectId,PCB_Order3,5043425f-4f72-4646-9572-332e6b696361,rev?*
G04 #@! TF.SameCoordinates,Original*
G04 #@! TF.FileFunction,Legend,Bot*
G04 #@! TF.FilePolarity,Positive*
%FSLAX46Y46*%
G04 Gerber Fmt 4.6, Leading zero omitted, Abs format (unit mm)*
G04 Created by KiCad (PCBNEW 8.0.5) date 2024-11-21 16:22:07*
%MOMM*%
%LPD*%
G01*
G04 APERTURE LIST*
G04 Aperture macros list*
%AMRoundRect*
0 Rectangle with rounded corners*
0 $1 Rounding radius*
0 $2 $3 $4 $5 $6 $7 $8 $9 X,Y pos of 4 corners*
0 Add a 4 corners polygon primitive as box body*
4,1,4,$2,$3,$4,$5,$6,$7,$8,$9,$2,$3,0*
0 Add four circle primitives for the rounded corners*
1,1,$1+$1,$2,$3*
1,1,$1+$1,$4,$5*
1,1,$1+$1,$6,$7*
1,1,$1+$1,$8,$9*
0 Add four rect primitives between the rounded corners*
20,1,$1+$1,$2,$3,$4,$5,0*
20,1,$1+$1,$4,$5,$6,$7,0*
20,1,$1+$1,$6,$7,$8,$9,0*
20,1,$1+$1,$8,$9,$2,$3,0*%
G04 Aperture macros list end*
%ADD10C,0.150000*%
%ADD11C,0.300000*%
%ADD12C,0.508000*%
%ADD13C,0.120000*%
%ADD14C,0.100000*%
%ADD15C,1.295400*%
%ADD16C,0.900000*%
%ADD17C,1.303000*%
%ADD18C,1.300000*%
%ADD19R,1.700000X1.700000*%
%ADD20O,1.700000X1.700000*%
%ADD21C,1.600000*%
%ADD22C,1.574800*%
%ADD23R,1.600000X1.600000*%
%ADD24R,1.320800X1.320800*%
%ADD25C,1.320800*%
%ADD26R,3.765000X3.765000*%
%ADD27C,3.765000*%
%ADD28RoundRect,0.250000X0.337500X0.475000X-0.337500X0.475000X-0.337500X-0.475000X0.337500X-0.475000X0*%
%ADD29RoundRect,0.100000X0.100000X-0.217500X0.100000X0.217500X-0.100000X0.217500X-0.100000X-0.217500X0*%
%ADD30RoundRect,0.237500X0.250000X0.237500X-0.250000X0.237500X-0.250000X-0.237500X0.250000X-0.237500X0*%
%ADD31RoundRect,0.250000X0.475000X-0.337500X0.475000X0.337500X-0.475000X0.337500X-0.475000X-0.337500X0*%
%ADD32RoundRect,0.237500X-0.237500X0.300000X-0.237500X-0.300000X0.237500X-0.300000X0.237500X0.300000X0*%
%ADD33RoundRect,0.237500X-0.237500X0.250000X-0.237500X-0.250000X0.237500X-0.250000X0.237500X0.250000X0*%
%ADD34RoundRect,0.250000X-0.337500X-0.475000X0.337500X-0.475000X0.337500X0.475000X-0.337500X0.475000X0*%
%ADD35RoundRect,0.237500X-0.250000X-0.237500X0.250000X-0.237500X0.250000X0.237500X-0.250000X0.237500X0*%
%ADD36RoundRect,0.250000X-0.475000X0.337500X-0.475000X-0.337500X0.475000X-0.337500X0.475000X0.337500X0*%
%ADD37RoundRect,0.075000X-0.662500X-0.075000X0.662500X-0.075000X0.662500X0.075000X-0.662500X0.075000X0*%
%ADD38RoundRect,0.075000X-0.075000X-0.662500X0.075000X-0.662500X0.075000X0.662500X-0.075000X0.662500X0*%
%ADD39RoundRect,0.237500X0.237500X-0.250000X0.237500X0.250000X-0.237500X0.250000X-0.237500X-0.250000X0*%
%ADD40C,0.450000*%
%ADD41C,0.550000*%
G04 APERTURE END LIST*
D10*
X128060180Y-125787030D02*
X128060180Y-126263220D01*
X128060180Y-126263220D02*
X127583990Y-126310839D01*
X127583990Y-126310839D02*
X127631609Y-126263220D01*
X127631609Y-126263220D02*
X127679228Y-126167982D01*
X127679228Y-126167982D02*
X127679228Y-125929887D01*
X127679228Y-125929887D02*
X127631609Y-125834649D01*
X127631609Y-125834649D02*
X127583990Y-125787030D01*
X127583990Y-125787030D02*
X127488752Y-125739411D01*
X127488752Y-125739411D02*
X127250657Y-125739411D01*
X127250657Y-125739411D02*
X127155419Y-125787030D01*
X127155419Y-125787030D02*
X127107800Y-125834649D01*
X127107800Y-125834649D02*
X127060180Y-125929887D01*
X127060180Y-125929887D02*
X127060180Y-126167982D01*
X127060180Y-126167982D02*
X127107800Y-126263220D01*
X127107800Y-126263220D02*
X127155419Y-126310839D01*
X127060180Y-124787030D02*
X127060180Y-125358458D01*
X127060180Y-125072744D02*
X128060180Y-125072744D01*
X128060180Y-125072744D02*
X127917323Y-125167982D01*
X127917323Y-125167982D02*
X127822085Y-125263220D01*
X127822085Y-125263220D02*
X127774466Y-125358458D01*
X128060180Y-124167982D02*
X128060180Y-124072744D01*
X128060180Y-124072744D02*
X128012561Y-123977506D01*
X128012561Y-123977506D02*
X127964942Y-123929887D01*
X127964942Y-123929887D02*
X127869704Y-123882268D01*
X127869704Y-123882268D02*
X127679228Y-123834649D01*
X127679228Y-123834649D02*
X127441133Y-123834649D01*
X127441133Y-123834649D02*
X127250657Y-123882268D01*
X127250657Y-123882268D02*
X127155419Y-123929887D01*
X127155419Y-123929887D02*
X127107800Y-123977506D01*
X127107800Y-123977506D02*
X127060180Y-124072744D01*
X127060180Y-124072744D02*
X127060180Y-124167982D01*
X127060180Y-124167982D02*
X127107800Y-124263220D01*
X127107800Y-124263220D02*
X127155419Y-124310839D01*
X127155419Y-124310839D02*
X127250657Y-124358458D01*
X127250657Y-124358458D02*
X127441133Y-124406077D01*
X127441133Y-124406077D02*
X127679228Y-124406077D01*
X127679228Y-124406077D02*
X127869704Y-124358458D01*
X127869704Y-124358458D02*
X127964942Y-124310839D01*
X127964942Y-124310839D02*
X128012561Y-124263220D01*
X128012561Y-124263220D02*
X128060180Y-124167982D01*
X95929411Y-124779819D02*
X96500839Y-124779819D01*
X96215125Y-124779819D02*
X96215125Y-123779819D01*
X96215125Y-123779819D02*
X96310363Y-123922676D01*
X96310363Y-123922676D02*
X96405601Y-124017914D01*
X96405601Y-124017914D02*
X96500839Y-124065533D01*
X95310363Y-123779819D02*
X95215125Y-123779819D01*
X95215125Y-123779819D02*
X95119887Y-123827438D01*
X95119887Y-123827438D02*
X95072268Y-123875057D01*
X95072268Y-123875057D02*
X95024649Y-123970295D01*
X95024649Y-123970295D02*
X94977030Y-124160771D01*
X94977030Y-124160771D02*
X94977030Y-124398866D01*
X94977030Y-124398866D02*
X95024649Y-124589342D01*
X95024649Y-124589342D02*
X95072268Y-124684580D01*
X95072268Y-124684580D02*
X95119887Y-124732200D01*
X95119887Y-124732200D02*
X95215125Y-124779819D01*
X95215125Y-124779819D02*
X95310363Y-124779819D01*
X95310363Y-124779819D02*
X95405601Y-124732200D01*
X95405601Y-124732200D02*
X95453220Y-124684580D01*
X95453220Y-124684580D02*
X95500839Y-124589342D01*
X95500839Y-124589342D02*
X95548458Y-124398866D01*
X95548458Y-124398866D02*
X95548458Y-124160771D01*
X95548458Y-124160771D02*
X95500839Y-123970295D01*
X95500839Y-123970295D02*
X95453220Y-123875057D01*
X95453220Y-123875057D02*
X95405601Y-123827438D01*
X95405601Y-123827438D02*
X95310363Y-123779819D01*
X94548458Y-124113152D02*
X94548458Y-125113152D01*
X94072268Y-124636961D02*
X94024649Y-124732200D01*
X94024649Y-124732200D02*
X93929411Y-124779819D01*
X94548458Y-124636961D02*
X94500839Y-124732200D01*
X94500839Y-124732200D02*
X94405601Y-124779819D01*
X94405601Y-124779819D02*
X94215125Y-124779819D01*
X94215125Y-124779819D02*
X94119887Y-124732200D01*
X94119887Y-124732200D02*
X94072268Y-124636961D01*
X94072268Y-124636961D02*
X94072268Y-124113152D01*
X164609819Y-136192969D02*
X164609819Y-135716779D01*
X164609819Y-135716779D02*
X165086009Y-135669160D01*
X165086009Y-135669160D02*
X165038390Y-135716779D01*
X165038390Y-135716779D02*
X164990771Y-135812017D01*
X164990771Y-135812017D02*
X164990771Y-136050112D01*
X164990771Y-136050112D02*
X165038390Y-136145350D01*
X165038390Y-136145350D02*
X165086009Y-136192969D01*
X165086009Y-136192969D02*
X165181247Y-136240588D01*
X165181247Y-136240588D02*
X165419342Y-136240588D01*
X165419342Y-136240588D02*
X165514580Y-136192969D01*
X165514580Y-136192969D02*
X165562200Y-136145350D01*
X165562200Y-136145350D02*
X165609819Y-136050112D01*
X165609819Y-136050112D02*
X165609819Y-135812017D01*
X165609819Y-135812017D02*
X165562200Y-135716779D01*
X165562200Y-135716779D02*
X165514580Y-135669160D01*
X165514580Y-136669160D02*
X165562200Y-136716779D01*
X165562200Y-136716779D02*
X165609819Y-136669160D01*
X165609819Y-136669160D02*
X165562200Y-136621541D01*
X165562200Y-136621541D02*
X165514580Y-136669160D01*
X165514580Y-136669160D02*
X165609819Y-136669160D01*
X164609819Y-137573921D02*
X164609819Y-137383445D01*
X164609819Y-137383445D02*
X164657438Y-137288207D01*
X164657438Y-137288207D02*
X164705057Y-137240588D01*
X164705057Y-137240588D02*
X164847914Y-137145350D01*
X164847914Y-137145350D02*
X165038390Y-137097731D01*
X165038390Y-137097731D02*
X165419342Y-137097731D01*
X165419342Y-137097731D02*
X165514580Y-137145350D01*
X165514580Y-137145350D02*
X165562200Y-137192969D01*
X165562200Y-137192969D02*
X165609819Y-137288207D01*
X165609819Y-137288207D02*
X165609819Y-137478683D01*
X165609819Y-137478683D02*
X165562200Y-137573921D01*
X165562200Y-137573921D02*
X165514580Y-137621540D01*
X165514580Y-137621540D02*
X165419342Y-137669159D01*
X165419342Y-137669159D02*
X165181247Y-137669159D01*
X165181247Y-137669159D02*
X165086009Y-137621540D01*
X165086009Y-137621540D02*
X165038390Y-137573921D01*
X165038390Y-137573921D02*
X164990771Y-137478683D01*
X164990771Y-137478683D02*
X164990771Y-137288207D01*
X164990771Y-137288207D02*
X165038390Y-137192969D01*
X165038390Y-137192969D02*
X165086009Y-137145350D01*
X165086009Y-137145350D02*
X165181247Y-137097731D01*
X165609819Y-138097731D02*
X164609819Y-138097731D01*
X165228866Y-138192969D02*
X165609819Y-138478683D01*
X164943152Y-138478683D02*
X165324104Y-138097731D01*
X107609411Y-124809819D02*
X108180839Y-124809819D01*
X107895125Y-124809819D02*
X107895125Y-123809819D01*
X107895125Y-123809819D02*
X107990363Y-123952676D01*
X107990363Y-123952676D02*
X108085601Y-124047914D01*
X108085601Y-124047914D02*
X108180839Y-124095533D01*
X106990363Y-123809819D02*
X106895125Y-123809819D01*
X106895125Y-123809819D02*
X106799887Y-123857438D01*
X106799887Y-123857438D02*
X106752268Y-123905057D01*
X106752268Y-123905057D02*
X106704649Y-124000295D01*
X106704649Y-124000295D02*
X106657030Y-124190771D01*
X106657030Y-124190771D02*
X106657030Y-124428866D01*
X106657030Y-124428866D02*
X106704649Y-124619342D01*
X106704649Y-124619342D02*
X106752268Y-124714580D01*
X106752268Y-124714580D02*
X106799887Y-124762200D01*
X106799887Y-124762200D02*
X106895125Y-124809819D01*
X106895125Y-124809819D02*
X106990363Y-124809819D01*
X106990363Y-124809819D02*
X107085601Y-124762200D01*
X107085601Y-124762200D02*
X107133220Y-124714580D01*
X107133220Y-124714580D02*
X107180839Y-124619342D01*
X107180839Y-124619342D02*
X107228458Y-124428866D01*
X107228458Y-124428866D02*
X107228458Y-124190771D01*
X107228458Y-124190771D02*
X107180839Y-124000295D01*
X107180839Y-124000295D02*
X107133220Y-123905057D01*
X107133220Y-123905057D02*
X107085601Y-123857438D01*
X107085601Y-123857438D02*
X106990363Y-123809819D01*
X106228458Y-124143152D02*
X106228458Y-125143152D01*
X105752268Y-124666961D02*
X105704649Y-124762200D01*
X105704649Y-124762200D02*
X105609411Y-124809819D01*
X106228458Y-124666961D02*
X106180839Y-124762200D01*
X106180839Y-124762200D02*
X106085601Y-124809819D01*
X106085601Y-124809819D02*
X105895125Y-124809819D01*
X105895125Y-124809819D02*
X105799887Y-124762200D01*
X105799887Y-124762200D02*
X105752268Y-124666961D01*
X105752268Y-124666961D02*
X105752268Y-124143152D01*
X216409819Y-100740588D02*
X216409819Y-100169160D01*
X216409819Y-100454874D02*
X215409819Y-100454874D01*
X215409819Y-100454874D02*
X215552676Y-100359636D01*
X215552676Y-100359636D02*
X215647914Y-100264398D01*
X215647914Y-100264398D02*
X215695533Y-100169160D01*
X215743152Y-101169160D02*
X216743152Y-101169160D01*
X216266961Y-101645350D02*
X216362200Y-101692969D01*
X216362200Y-101692969D02*
X216409819Y-101788207D01*
X216266961Y-101169160D02*
X216362200Y-101216779D01*
X216362200Y-101216779D02*
X216409819Y-101312017D01*
X216409819Y-101312017D02*
X216409819Y-101502493D01*
X216409819Y-101502493D02*
X216362200Y-101597731D01*
X216362200Y-101597731D02*
X216266961Y-101645350D01*
X216266961Y-101645350D02*
X215743152Y-101645350D01*
X132689411Y-96289819D02*
X133260839Y-96289819D01*
X132975125Y-96289819D02*
X132975125Y-95289819D01*
X132975125Y-95289819D02*
X133070363Y-95432676D01*
X133070363Y-95432676D02*
X133165601Y-95527914D01*
X133165601Y-95527914D02*
X133260839Y-95575533D01*
X132070363Y-95289819D02*
X131975125Y-95289819D01*
X131975125Y-95289819D02*
X131879887Y-95337438D01*
X131879887Y-95337438D02*
X131832268Y-95385057D01*
X131832268Y-95385057D02*
X131784649Y-95480295D01*
X131784649Y-95480295D02*
X131737030Y-95670771D01*
X131737030Y-95670771D02*
X131737030Y-95908866D01*
X131737030Y-95908866D02*
X131784649Y-96099342D01*
X131784649Y-96099342D02*
X131832268Y-96194580D01*
X131832268Y-96194580D02*
X131879887Y-96242200D01*
X131879887Y-96242200D02*
X131975125Y-96289819D01*
X131975125Y-96289819D02*
X132070363Y-96289819D01*
X132070363Y-96289819D02*
X132165601Y-96242200D01*
X132165601Y-96242200D02*
X132213220Y-96194580D01*
X132213220Y-96194580D02*
X132260839Y-96099342D01*
X132260839Y-96099342D02*
X132308458Y-95908866D01*
X132308458Y-95908866D02*
X132308458Y-95670771D01*
X132308458Y-95670771D02*
X132260839Y-95480295D01*
X132260839Y-95480295D02*
X132213220Y-95385057D01*
X132213220Y-95385057D02*
X132165601Y-95337438D01*
X132165601Y-95337438D02*
X132070363Y-95289819D01*
X131308458Y-95623152D02*
X131308458Y-96623152D01*
X130832268Y-96146961D02*
X130784649Y-96242200D01*
X130784649Y-96242200D02*
X130689411Y-96289819D01*
X131308458Y-96146961D02*
X131260839Y-96242200D01*
X131260839Y-96242200D02*
X131165601Y-96289819D01*
X131165601Y-96289819D02*
X130975125Y-96289819D01*
X130975125Y-96289819D02*
X130879887Y-96242200D01*
X130879887Y-96242200D02*
X130832268Y-96146961D01*
X130832268Y-96146961D02*
X130832268Y-95623152D01*
X187314942Y-47850839D02*
X187362561Y-47803220D01*
X187362561Y-47803220D02*
X187410180Y-47707982D01*
X187410180Y-47707982D02*
X187410180Y-47469887D01*
X187410180Y-47469887D02*
X187362561Y-47374649D01*
X187362561Y-47374649D02*
X187314942Y-47327030D01*
X187314942Y-47327030D02*
X187219704Y-47279411D01*
X187219704Y-47279411D02*
X187124466Y-47279411D01*
X187124466Y-47279411D02*
X186981609Y-47327030D01*
X186981609Y-47327030D02*
X186410180Y-47898458D01*
X186410180Y-47898458D02*
X186410180Y-47279411D01*
X186505419Y-46850839D02*
X186457800Y-46803220D01*
X186457800Y-46803220D02*
X186410180Y-46850839D01*
X186410180Y-46850839D02*
X186457800Y-46898458D01*
X186457800Y-46898458D02*
X186505419Y-46850839D01*
X186505419Y-46850839D02*
X186410180Y-46850839D01*
X187314942Y-46422268D02*
X187362561Y-46374649D01*
X187362561Y-46374649D02*
X187410180Y-46279411D01*
X187410180Y-46279411D02*
X187410180Y-46041316D01*
X187410180Y-46041316D02*
X187362561Y-45946078D01*
X187362561Y-45946078D02*
X187314942Y-45898459D01*
X187314942Y-45898459D02*
X187219704Y-45850840D01*
X187219704Y-45850840D02*
X187124466Y-45850840D01*
X187124466Y-45850840D02*
X186981609Y-45898459D01*
X186981609Y-45898459D02*
X186410180Y-46469887D01*
X186410180Y-46469887D02*
X186410180Y-45850840D01*
X187076847Y-45422268D02*
X186076847Y-45422268D01*
X186553038Y-44946078D02*
X186457800Y-44898459D01*
X186457800Y-44898459D02*
X186410180Y-44803221D01*
X186553038Y-45422268D02*
X186457800Y-45374649D01*
X186457800Y-45374649D02*
X186410180Y-45279411D01*
X186410180Y-45279411D02*
X186410180Y-45088935D01*
X186410180Y-45088935D02*
X186457800Y-44993697D01*
X186457800Y-44993697D02*
X186553038Y-44946078D01*
X186553038Y-44946078D02*
X187076847Y-44946078D01*
X133949819Y-124802969D02*
X133949819Y-124326779D01*
X133949819Y-124326779D02*
X134426009Y-124279160D01*
X134426009Y-124279160D02*
X134378390Y-124326779D01*
X134378390Y-124326779D02*
X134330771Y-124422017D01*
X134330771Y-124422017D02*
X134330771Y-124660112D01*
X134330771Y-124660112D02*
X134378390Y-124755350D01*
X134378390Y-124755350D02*
X134426009Y-124802969D01*
X134426009Y-124802969D02*
X134521247Y-124850588D01*
X134521247Y-124850588D02*
X134759342Y-124850588D01*
X134759342Y-124850588D02*
X134854580Y-124802969D01*
X134854580Y-124802969D02*
X134902200Y-124755350D01*
X134902200Y-124755350D02*
X134949819Y-124660112D01*
X134949819Y-124660112D02*
X134949819Y-124422017D01*
X134949819Y-124422017D02*
X134902200Y-124326779D01*
X134902200Y-124326779D02*
X134854580Y-124279160D01*
X134949819Y-125802969D02*
X134949819Y-125231541D01*
X134949819Y-125517255D02*
X133949819Y-125517255D01*
X133949819Y-125517255D02*
X134092676Y-125422017D01*
X134092676Y-125422017D02*
X134187914Y-125326779D01*
X134187914Y-125326779D02*
X134235533Y-125231541D01*
X133949819Y-126422017D02*
X133949819Y-126517255D01*
X133949819Y-126517255D02*
X133997438Y-126612493D01*
X133997438Y-126612493D02*
X134045057Y-126660112D01*
X134045057Y-126660112D02*
X134140295Y-126707731D01*
X134140295Y-126707731D02*
X134330771Y-126755350D01*
X134330771Y-126755350D02*
X134568866Y-126755350D01*
X134568866Y-126755350D02*
X134759342Y-126707731D01*
X134759342Y-126707731D02*
X134854580Y-126660112D01*
X134854580Y-126660112D02*
X134902200Y-126612493D01*
X134902200Y-126612493D02*
X134949819Y-126517255D01*
X134949819Y-126517255D02*
X134949819Y-126422017D01*
X134949819Y-126422017D02*
X134902200Y-126326779D01*
X134902200Y-126326779D02*
X134854580Y-126279160D01*
X134854580Y-126279160D02*
X134759342Y-126231541D01*
X134759342Y-126231541D02*
X134568866Y-126183922D01*
X134568866Y-126183922D02*
X134330771Y-126183922D01*
X134330771Y-126183922D02*
X134140295Y-126231541D01*
X134140295Y-126231541D02*
X134045057Y-126279160D01*
X134045057Y-126279160D02*
X133997438Y-126326779D01*
X133997438Y-126326779D02*
X133949819Y-126422017D01*
X201711609Y-123300363D02*
X201759228Y-123395601D01*
X201759228Y-123395601D02*
X201806847Y-123443220D01*
X201806847Y-123443220D02*
X201902085Y-123490839D01*
X201902085Y-123490839D02*
X201949704Y-123490839D01*
X201949704Y-123490839D02*
X202044942Y-123443220D01*
X202044942Y-123443220D02*
X202092561Y-123395601D01*
X202092561Y-123395601D02*
X202140180Y-123300363D01*
X202140180Y-123300363D02*
X202140180Y-123109887D01*
X202140180Y-123109887D02*
X202092561Y-123014649D01*
X202092561Y-123014649D02*
X202044942Y-122967030D01*
X202044942Y-122967030D02*
X201949704Y-122919411D01*
X201949704Y-122919411D02*
X201902085Y-122919411D01*
X201902085Y-122919411D02*
X201806847Y-122967030D01*
X201806847Y-122967030D02*
X201759228Y-123014649D01*
X201759228Y-123014649D02*
X201711609Y-123109887D01*
X201711609Y-123109887D02*
X201711609Y-123300363D01*
X201711609Y-123300363D02*
X201663990Y-123395601D01*
X201663990Y-123395601D02*
X201616371Y-123443220D01*
X201616371Y-123443220D02*
X201521133Y-123490839D01*
X201521133Y-123490839D02*
X201330657Y-123490839D01*
X201330657Y-123490839D02*
X201235419Y-123443220D01*
X201235419Y-123443220D02*
X201187800Y-123395601D01*
X201187800Y-123395601D02*
X201140180Y-123300363D01*
X201140180Y-123300363D02*
X201140180Y-123109887D01*
X201140180Y-123109887D02*
X201187800Y-123014649D01*
X201187800Y-123014649D02*
X201235419Y-122967030D01*
X201235419Y-122967030D02*
X201330657Y-122919411D01*
X201330657Y-122919411D02*
X201521133Y-122919411D01*
X201521133Y-122919411D02*
X201616371Y-122967030D01*
X201616371Y-122967030D02*
X201663990Y-123014649D01*
X201663990Y-123014649D02*
X201711609Y-123109887D01*
X202044942Y-122538458D02*
X202092561Y-122490839D01*
X202092561Y-122490839D02*
X202140180Y-122395601D01*
X202140180Y-122395601D02*
X202140180Y-122157506D01*
X202140180Y-122157506D02*
X202092561Y-122062268D01*
X202092561Y-122062268D02*
X202044942Y-122014649D01*
X202044942Y-122014649D02*
X201949704Y-121967030D01*
X201949704Y-121967030D02*
X201854466Y-121967030D01*
X201854466Y-121967030D02*
X201711609Y-122014649D01*
X201711609Y-122014649D02*
X201140180Y-122586077D01*
X201140180Y-122586077D02*
X201140180Y-121967030D01*
X201140180Y-121538458D02*
X202140180Y-121538458D01*
X201521133Y-121443220D02*
X201140180Y-121157506D01*
X201806847Y-121157506D02*
X201425895Y-121538458D01*
X161439819Y-49330588D02*
X161439819Y-48759160D01*
X161439819Y-49044874D02*
X160439819Y-49044874D01*
X160439819Y-49044874D02*
X160582676Y-48949636D01*
X160582676Y-48949636D02*
X160677914Y-48854398D01*
X160677914Y-48854398D02*
X160725533Y-48759160D01*
X160773152Y-49759160D02*
X161773152Y-49759160D01*
X161296961Y-50235350D02*
X161392200Y-50282969D01*
X161392200Y-50282969D02*
X161439819Y-50378207D01*
X161296961Y-49759160D02*
X161392200Y-49806779D01*
X161392200Y-49806779D02*
X161439819Y-49902017D01*
X161439819Y-49902017D02*
X161439819Y-50092493D01*
X161439819Y-50092493D02*
X161392200Y-50187731D01*
X161392200Y-50187731D02*
X161296961Y-50235350D01*
X161296961Y-50235350D02*
X160773152Y-50235350D01*
X191000839Y-65215057D02*
X190953220Y-65167438D01*
X190953220Y-65167438D02*
X190857982Y-65119819D01*
X190857982Y-65119819D02*
X190619887Y-65119819D01*
X190619887Y-65119819D02*
X190524649Y-65167438D01*
X190524649Y-65167438D02*
X190477030Y-65215057D01*
X190477030Y-65215057D02*
X190429411Y-65310295D01*
X190429411Y-65310295D02*
X190429411Y-65405533D01*
X190429411Y-65405533D02*
X190477030Y-65548390D01*
X190477030Y-65548390D02*
X191048458Y-66119819D01*
X191048458Y-66119819D02*
X190429411Y-66119819D01*
X190000839Y-66024580D02*
X189953220Y-66072200D01*
X189953220Y-66072200D02*
X190000839Y-66119819D01*
X190000839Y-66119819D02*
X190048458Y-66072200D01*
X190048458Y-66072200D02*
X190000839Y-66024580D01*
X190000839Y-66024580D02*
X190000839Y-66119819D01*
X189572268Y-65215057D02*
X189524649Y-65167438D01*
X189524649Y-65167438D02*
X189429411Y-65119819D01*
X189429411Y-65119819D02*
X189191316Y-65119819D01*
X189191316Y-65119819D02*
X189096078Y-65167438D01*
X189096078Y-65167438D02*
X189048459Y-65215057D01*
X189048459Y-65215057D02*
X189000840Y-65310295D01*
X189000840Y-65310295D02*
X189000840Y-65405533D01*
X189000840Y-65405533D02*
X189048459Y-65548390D01*
X189048459Y-65548390D02*
X189619887Y-66119819D01*
X189619887Y-66119819D02*
X189000840Y-66119819D01*
X188572268Y-65453152D02*
X188572268Y-66453152D01*
X188096078Y-65976961D02*
X188048459Y-66072200D01*
X188048459Y-66072200D02*
X187953221Y-66119819D01*
X188572268Y-65976961D02*
X188524649Y-66072200D01*
X188524649Y-66072200D02*
X188429411Y-66119819D01*
X188429411Y-66119819D02*
X188238935Y-66119819D01*
X188238935Y-66119819D02*
X188143697Y-66072200D01*
X188143697Y-66072200D02*
X188096078Y-65976961D01*
X188096078Y-65976961D02*
X188096078Y-65453152D01*
X110059411Y-103279819D02*
X110630839Y-103279819D01*
X110345125Y-103279819D02*
X110345125Y-102279819D01*
X110345125Y-102279819D02*
X110440363Y-102422676D01*
X110440363Y-102422676D02*
X110535601Y-102517914D01*
X110535601Y-102517914D02*
X110630839Y-102565533D01*
X109440363Y-102279819D02*
X109345125Y-102279819D01*
X109345125Y-102279819D02*
X109249887Y-102327438D01*
X109249887Y-102327438D02*
X109202268Y-102375057D01*
X109202268Y-102375057D02*
X109154649Y-102470295D01*
X109154649Y-102470295D02*
X109107030Y-102660771D01*
X109107030Y-102660771D02*
X109107030Y-102898866D01*
X109107030Y-102898866D02*
X109154649Y-103089342D01*
X109154649Y-103089342D02*
X109202268Y-103184580D01*
X109202268Y-103184580D02*
X109249887Y-103232200D01*
X109249887Y-103232200D02*
X109345125Y-103279819D01*
X109345125Y-103279819D02*
X109440363Y-103279819D01*
X109440363Y-103279819D02*
X109535601Y-103232200D01*
X109535601Y-103232200D02*
X109583220Y-103184580D01*
X109583220Y-103184580D02*
X109630839Y-103089342D01*
X109630839Y-103089342D02*
X109678458Y-102898866D01*
X109678458Y-102898866D02*
X109678458Y-102660771D01*
X109678458Y-102660771D02*
X109630839Y-102470295D01*
X109630839Y-102470295D02*
X109583220Y-102375057D01*
X109583220Y-102375057D02*
X109535601Y-102327438D01*
X109535601Y-102327438D02*
X109440363Y-102279819D01*
X108678458Y-102613152D02*
X108678458Y-103613152D01*
X108202268Y-103136961D02*
X108154649Y-103232200D01*
X108154649Y-103232200D02*
X108059411Y-103279819D01*
X108678458Y-103136961D02*
X108630839Y-103232200D01*
X108630839Y-103232200D02*
X108535601Y-103279819D01*
X108535601Y-103279819D02*
X108345125Y-103279819D01*
X108345125Y-103279819D02*
X108249887Y-103232200D01*
X108249887Y-103232200D02*
X108202268Y-103136961D01*
X108202268Y-103136961D02*
X108202268Y-102613152D01*
X141150839Y-110585057D02*
X141103220Y-110537438D01*
X141103220Y-110537438D02*
X141007982Y-110489819D01*
X141007982Y-110489819D02*
X140769887Y-110489819D01*
X140769887Y-110489819D02*
X140674649Y-110537438D01*
X140674649Y-110537438D02*
X140627030Y-110585057D01*
X140627030Y-110585057D02*
X140579411Y-110680295D01*
X140579411Y-110680295D02*
X140579411Y-110775533D01*
X140579411Y-110775533D02*
X140627030Y-110918390D01*
X140627030Y-110918390D02*
X141198458Y-111489819D01*
X141198458Y-111489819D02*
X140579411Y-111489819D01*
X140150839Y-111394580D02*
X140103220Y-111442200D01*
X140103220Y-111442200D02*
X140150839Y-111489819D01*
X140150839Y-111489819D02*
X140198458Y-111442200D01*
X140198458Y-111442200D02*
X140150839Y-111394580D01*
X140150839Y-111394580D02*
X140150839Y-111489819D01*
X139722268Y-110585057D02*
X139674649Y-110537438D01*
X139674649Y-110537438D02*
X139579411Y-110489819D01*
X139579411Y-110489819D02*
X139341316Y-110489819D01*
X139341316Y-110489819D02*
X139246078Y-110537438D01*
X139246078Y-110537438D02*
X139198459Y-110585057D01*
X139198459Y-110585057D02*
X139150840Y-110680295D01*
X139150840Y-110680295D02*
X139150840Y-110775533D01*
X139150840Y-110775533D02*
X139198459Y-110918390D01*
X139198459Y-110918390D02*
X139769887Y-111489819D01*
X139769887Y-111489819D02*
X139150840Y-111489819D01*
X138722268Y-110823152D02*
X138722268Y-111823152D01*
X138246078Y-111346961D02*
X138198459Y-111442200D01*
X138198459Y-111442200D02*
X138103221Y-111489819D01*
X138722268Y-111346961D02*
X138674649Y-111442200D01*
X138674649Y-111442200D02*
X138579411Y-111489819D01*
X138579411Y-111489819D02*
X138388935Y-111489819D01*
X138388935Y-111489819D02*
X138293697Y-111442200D01*
X138293697Y-111442200D02*
X138246078Y-111346961D01*
X138246078Y-111346961D02*
X138246078Y-110823152D01*
X197458458Y-120729819D02*
X196839411Y-120729819D01*
X196839411Y-120729819D02*
X197172744Y-121110771D01*
X197172744Y-121110771D02*
X197029887Y-121110771D01*
X197029887Y-121110771D02*
X196934649Y-121158390D01*
X196934649Y-121158390D02*
X196887030Y-121206009D01*
X196887030Y-121206009D02*
X196839411Y-121301247D01*
X196839411Y-121301247D02*
X196839411Y-121539342D01*
X196839411Y-121539342D02*
X196887030Y-121634580D01*
X196887030Y-121634580D02*
X196934649Y-121682200D01*
X196934649Y-121682200D02*
X197029887Y-121729819D01*
X197029887Y-121729819D02*
X197315601Y-121729819D01*
X197315601Y-121729819D02*
X197410839Y-121682200D01*
X197410839Y-121682200D02*
X197458458Y-121634580D01*
X196506077Y-120729819D02*
X195887030Y-120729819D01*
X195887030Y-120729819D02*
X196220363Y-121110771D01*
X196220363Y-121110771D02*
X196077506Y-121110771D01*
X196077506Y-121110771D02*
X195982268Y-121158390D01*
X195982268Y-121158390D02*
X195934649Y-121206009D01*
X195934649Y-121206009D02*
X195887030Y-121301247D01*
X195887030Y-121301247D02*
X195887030Y-121539342D01*
X195887030Y-121539342D02*
X195934649Y-121634580D01*
X195934649Y-121634580D02*
X195982268Y-121682200D01*
X195982268Y-121682200D02*
X196077506Y-121729819D01*
X196077506Y-121729819D02*
X196363220Y-121729819D01*
X196363220Y-121729819D02*
X196458458Y-121682200D01*
X196458458Y-121682200D02*
X196506077Y-121634580D01*
X195458458Y-121729819D02*
X195458458Y-120729819D01*
X195363220Y-121348866D02*
X195077506Y-121729819D01*
X195077506Y-121063152D02*
X195458458Y-121444104D01*
D11*
X139798346Y-28570828D02*
X139441203Y-30070828D01*
X139441203Y-30070828D02*
X139155489Y-28999400D01*
X139155489Y-28999400D02*
X138869774Y-30070828D01*
X138869774Y-30070828D02*
X138512632Y-28570828D01*
X137941203Y-30070828D02*
X137941203Y-29070828D01*
X137941203Y-28570828D02*
X138012631Y-28642257D01*
X138012631Y-28642257D02*
X137941203Y-28713685D01*
X137941203Y-28713685D02*
X137869774Y-28642257D01*
X137869774Y-28642257D02*
X137941203Y-28570828D01*
X137941203Y-28570828D02*
X137941203Y-28713685D01*
X137441202Y-29070828D02*
X136869774Y-29070828D01*
X137226917Y-28570828D02*
X137226917Y-29856542D01*
X137226917Y-29856542D02*
X137155488Y-29999400D01*
X137155488Y-29999400D02*
X137012631Y-30070828D01*
X137012631Y-30070828D02*
X136869774Y-30070828D01*
X136369774Y-30070828D02*
X136369774Y-28570828D01*
X135726917Y-30070828D02*
X135726917Y-29285114D01*
X135726917Y-29285114D02*
X135798345Y-29142257D01*
X135798345Y-29142257D02*
X135941202Y-29070828D01*
X135941202Y-29070828D02*
X136155488Y-29070828D01*
X136155488Y-29070828D02*
X136298345Y-29142257D01*
X136298345Y-29142257D02*
X136369774Y-29213685D01*
X134084059Y-29070828D02*
X133512631Y-29070828D01*
X133869774Y-28570828D02*
X133869774Y-29856542D01*
X133869774Y-29856542D02*
X133798345Y-29999400D01*
X133798345Y-29999400D02*
X133655488Y-30070828D01*
X133655488Y-30070828D02*
X133512631Y-30070828D01*
X133012631Y-30070828D02*
X133012631Y-28570828D01*
X132369774Y-30070828D02*
X132369774Y-29285114D01*
X132369774Y-29285114D02*
X132441202Y-29142257D01*
X132441202Y-29142257D02*
X132584059Y-29070828D01*
X132584059Y-29070828D02*
X132798345Y-29070828D01*
X132798345Y-29070828D02*
X132941202Y-29142257D01*
X132941202Y-29142257D02*
X133012631Y-29213685D01*
X131012631Y-30070828D02*
X131012631Y-29285114D01*
X131012631Y-29285114D02*
X131084059Y-29142257D01*
X131084059Y-29142257D02*
X131226916Y-29070828D01*
X131226916Y-29070828D02*
X131512631Y-29070828D01*
X131512631Y-29070828D02*
X131655488Y-29142257D01*
X131012631Y-29999400D02*
X131155488Y-30070828D01*
X131155488Y-30070828D02*
X131512631Y-30070828D01*
X131512631Y-30070828D02*
X131655488Y-29999400D01*
X131655488Y-29999400D02*
X131726916Y-29856542D01*
X131726916Y-29856542D02*
X131726916Y-29713685D01*
X131726916Y-29713685D02*
X131655488Y-29570828D01*
X131655488Y-29570828D02*
X131512631Y-29499400D01*
X131512631Y-29499400D02*
X131155488Y-29499400D01*
X131155488Y-29499400D02*
X131012631Y-29427971D01*
X130298345Y-29070828D02*
X130298345Y-30070828D01*
X130298345Y-29213685D02*
X130226916Y-29142257D01*
X130226916Y-29142257D02*
X130084059Y-29070828D01*
X130084059Y-29070828D02*
X129869773Y-29070828D01*
X129869773Y-29070828D02*
X129726916Y-29142257D01*
X129726916Y-29142257D02*
X129655488Y-29285114D01*
X129655488Y-29285114D02*
X129655488Y-30070828D01*
X128941202Y-30070828D02*
X128941202Y-28570828D01*
X128798345Y-29499400D02*
X128369773Y-30070828D01*
X128369773Y-29070828D02*
X128941202Y-29642257D01*
X127798344Y-29999400D02*
X127655487Y-30070828D01*
X127655487Y-30070828D02*
X127369773Y-30070828D01*
X127369773Y-30070828D02*
X127226916Y-29999400D01*
X127226916Y-29999400D02*
X127155487Y-29856542D01*
X127155487Y-29856542D02*
X127155487Y-29785114D01*
X127155487Y-29785114D02*
X127226916Y-29642257D01*
X127226916Y-29642257D02*
X127369773Y-29570828D01*
X127369773Y-29570828D02*
X127584059Y-29570828D01*
X127584059Y-29570828D02*
X127726916Y-29499400D01*
X127726916Y-29499400D02*
X127798344Y-29356542D01*
X127798344Y-29356542D02*
X127798344Y-29285114D01*
X127798344Y-29285114D02*
X127726916Y-29142257D01*
X127726916Y-29142257D02*
X127584059Y-29070828D01*
X127584059Y-29070828D02*
X127369773Y-29070828D01*
X127369773Y-29070828D02*
X127226916Y-29142257D01*
X125584058Y-29070828D02*
X125012630Y-29070828D01*
X125369773Y-28570828D02*
X125369773Y-29856542D01*
X125369773Y-29856542D02*
X125298344Y-29999400D01*
X125298344Y-29999400D02*
X125155487Y-30070828D01*
X125155487Y-30070828D02*
X125012630Y-30070828D01*
X124298344Y-30070828D02*
X124441201Y-29999400D01*
X124441201Y-29999400D02*
X124512630Y-29927971D01*
X124512630Y-29927971D02*
X124584058Y-29785114D01*
X124584058Y-29785114D02*
X124584058Y-29356542D01*
X124584058Y-29356542D02*
X124512630Y-29213685D01*
X124512630Y-29213685D02*
X124441201Y-29142257D01*
X124441201Y-29142257D02*
X124298344Y-29070828D01*
X124298344Y-29070828D02*
X124084058Y-29070828D01*
X124084058Y-29070828D02*
X123941201Y-29142257D01*
X123941201Y-29142257D02*
X123869773Y-29213685D01*
X123869773Y-29213685D02*
X123798344Y-29356542D01*
X123798344Y-29356542D02*
X123798344Y-29785114D01*
X123798344Y-29785114D02*
X123869773Y-29927971D01*
X123869773Y-29927971D02*
X123941201Y-29999400D01*
X123941201Y-29999400D02*
X124084058Y-30070828D01*
X124084058Y-30070828D02*
X124298344Y-30070828D01*
X121584058Y-28570828D02*
X121584058Y-29642257D01*
X121584058Y-29642257D02*
X121655487Y-29856542D01*
X121655487Y-29856542D02*
X121798344Y-29999400D01*
X121798344Y-29999400D02*
X122012630Y-30070828D01*
X122012630Y-30070828D02*
X122155487Y-30070828D01*
X120298344Y-29999400D02*
X120441201Y-30070828D01*
X120441201Y-30070828D02*
X120726916Y-30070828D01*
X120726916Y-30070828D02*
X120869773Y-29999400D01*
X120869773Y-29999400D02*
X120941201Y-29856542D01*
X120941201Y-29856542D02*
X120941201Y-29285114D01*
X120941201Y-29285114D02*
X120869773Y-29142257D01*
X120869773Y-29142257D02*
X120726916Y-29070828D01*
X120726916Y-29070828D02*
X120441201Y-29070828D01*
X120441201Y-29070828D02*
X120298344Y-29142257D01*
X120298344Y-29142257D02*
X120226916Y-29285114D01*
X120226916Y-29285114D02*
X120226916Y-29427971D01*
X120226916Y-29427971D02*
X120941201Y-29570828D01*
X119655487Y-29999400D02*
X119512630Y-30070828D01*
X119512630Y-30070828D02*
X119226916Y-30070828D01*
X119226916Y-30070828D02*
X119084059Y-29999400D01*
X119084059Y-29999400D02*
X119012630Y-29856542D01*
X119012630Y-29856542D02*
X119012630Y-29785114D01*
X119012630Y-29785114D02*
X119084059Y-29642257D01*
X119084059Y-29642257D02*
X119226916Y-29570828D01*
X119226916Y-29570828D02*
X119441202Y-29570828D01*
X119441202Y-29570828D02*
X119584059Y-29499400D01*
X119584059Y-29499400D02*
X119655487Y-29356542D01*
X119655487Y-29356542D02*
X119655487Y-29285114D01*
X119655487Y-29285114D02*
X119584059Y-29142257D01*
X119584059Y-29142257D02*
X119441202Y-29070828D01*
X119441202Y-29070828D02*
X119226916Y-29070828D01*
X119226916Y-29070828D02*
X119084059Y-29142257D01*
X117726916Y-29070828D02*
X117726916Y-30070828D01*
X118369773Y-29070828D02*
X118369773Y-29856542D01*
X118369773Y-29856542D02*
X118298344Y-29999400D01*
X118298344Y-29999400D02*
X118155487Y-30070828D01*
X118155487Y-30070828D02*
X117941201Y-30070828D01*
X117941201Y-30070828D02*
X117798344Y-29999400D01*
X117798344Y-29999400D02*
X117726916Y-29927971D01*
X117084058Y-29999400D02*
X116941201Y-30070828D01*
X116941201Y-30070828D02*
X116655487Y-30070828D01*
X116655487Y-30070828D02*
X116512630Y-29999400D01*
X116512630Y-29999400D02*
X116441201Y-29856542D01*
X116441201Y-29856542D02*
X116441201Y-29785114D01*
X116441201Y-29785114D02*
X116512630Y-29642257D01*
X116512630Y-29642257D02*
X116655487Y-29570828D01*
X116655487Y-29570828D02*
X116869773Y-29570828D01*
X116869773Y-29570828D02*
X117012630Y-29499400D01*
X117012630Y-29499400D02*
X117084058Y-29356542D01*
X117084058Y-29356542D02*
X117084058Y-29285114D01*
X117084058Y-29285114D02*
X117012630Y-29142257D01*
X117012630Y-29142257D02*
X116869773Y-29070828D01*
X116869773Y-29070828D02*
X116655487Y-29070828D01*
X116655487Y-29070828D02*
X116512630Y-29142257D01*
X113798344Y-29927971D02*
X113869772Y-29999400D01*
X113869772Y-29999400D02*
X114084058Y-30070828D01*
X114084058Y-30070828D02*
X114226915Y-30070828D01*
X114226915Y-30070828D02*
X114441201Y-29999400D01*
X114441201Y-29999400D02*
X114584058Y-29856542D01*
X114584058Y-29856542D02*
X114655487Y-29713685D01*
X114655487Y-29713685D02*
X114726915Y-29427971D01*
X114726915Y-29427971D02*
X114726915Y-29213685D01*
X114726915Y-29213685D02*
X114655487Y-28927971D01*
X114655487Y-28927971D02*
X114584058Y-28785114D01*
X114584058Y-28785114D02*
X114441201Y-28642257D01*
X114441201Y-28642257D02*
X114226915Y-28570828D01*
X114226915Y-28570828D02*
X114084058Y-28570828D01*
X114084058Y-28570828D02*
X113869772Y-28642257D01*
X113869772Y-28642257D02*
X113798344Y-28713685D01*
X113155487Y-30070828D02*
X113155487Y-28570828D01*
X112512630Y-30070828D02*
X112512630Y-29285114D01*
X112512630Y-29285114D02*
X112584058Y-29142257D01*
X112584058Y-29142257D02*
X112726915Y-29070828D01*
X112726915Y-29070828D02*
X112941201Y-29070828D01*
X112941201Y-29070828D02*
X113084058Y-29142257D01*
X113084058Y-29142257D02*
X113155487Y-29213685D01*
X111798344Y-30070828D02*
X111798344Y-29070828D01*
X111798344Y-29356542D02*
X111726915Y-29213685D01*
X111726915Y-29213685D02*
X111655487Y-29142257D01*
X111655487Y-29142257D02*
X111512629Y-29070828D01*
X111512629Y-29070828D02*
X111369772Y-29070828D01*
X110869773Y-30070828D02*
X110869773Y-29070828D01*
X110869773Y-28570828D02*
X110941201Y-28642257D01*
X110941201Y-28642257D02*
X110869773Y-28713685D01*
X110869773Y-28713685D02*
X110798344Y-28642257D01*
X110798344Y-28642257D02*
X110869773Y-28570828D01*
X110869773Y-28570828D02*
X110869773Y-28713685D01*
X110226915Y-29999400D02*
X110084058Y-30070828D01*
X110084058Y-30070828D02*
X109798344Y-30070828D01*
X109798344Y-30070828D02*
X109655487Y-29999400D01*
X109655487Y-29999400D02*
X109584058Y-29856542D01*
X109584058Y-29856542D02*
X109584058Y-29785114D01*
X109584058Y-29785114D02*
X109655487Y-29642257D01*
X109655487Y-29642257D02*
X109798344Y-29570828D01*
X109798344Y-29570828D02*
X110012630Y-29570828D01*
X110012630Y-29570828D02*
X110155487Y-29499400D01*
X110155487Y-29499400D02*
X110226915Y-29356542D01*
X110226915Y-29356542D02*
X110226915Y-29285114D01*
X110226915Y-29285114D02*
X110155487Y-29142257D01*
X110155487Y-29142257D02*
X110012630Y-29070828D01*
X110012630Y-29070828D02*
X109798344Y-29070828D01*
X109798344Y-29070828D02*
X109655487Y-29142257D01*
X109155486Y-29070828D02*
X108584058Y-29070828D01*
X108941201Y-28570828D02*
X108941201Y-29856542D01*
X108941201Y-29856542D02*
X108869772Y-29999400D01*
X108869772Y-29999400D02*
X108726915Y-30070828D01*
X108726915Y-30070828D02*
X108584058Y-30070828D01*
X106298344Y-30070828D02*
X106298344Y-29285114D01*
X106298344Y-29285114D02*
X106369772Y-29142257D01*
X106369772Y-29142257D02*
X106512629Y-29070828D01*
X106512629Y-29070828D02*
X106798344Y-29070828D01*
X106798344Y-29070828D02*
X106941201Y-29142257D01*
X106298344Y-29999400D02*
X106441201Y-30070828D01*
X106441201Y-30070828D02*
X106798344Y-30070828D01*
X106798344Y-30070828D02*
X106941201Y-29999400D01*
X106941201Y-29999400D02*
X107012629Y-29856542D01*
X107012629Y-29856542D02*
X107012629Y-29713685D01*
X107012629Y-29713685D02*
X106941201Y-29570828D01*
X106941201Y-29570828D02*
X106798344Y-29499400D01*
X106798344Y-29499400D02*
X106441201Y-29499400D01*
X106441201Y-29499400D02*
X106298344Y-29427971D01*
X105584058Y-29070828D02*
X105584058Y-30070828D01*
X105584058Y-29213685D02*
X105512629Y-29142257D01*
X105512629Y-29142257D02*
X105369772Y-29070828D01*
X105369772Y-29070828D02*
X105155486Y-29070828D01*
X105155486Y-29070828D02*
X105012629Y-29142257D01*
X105012629Y-29142257D02*
X104941201Y-29285114D01*
X104941201Y-29285114D02*
X104941201Y-30070828D01*
X103584058Y-30070828D02*
X103584058Y-28570828D01*
X103584058Y-29999400D02*
X103726915Y-30070828D01*
X103726915Y-30070828D02*
X104012629Y-30070828D01*
X104012629Y-30070828D02*
X104155486Y-29999400D01*
X104155486Y-29999400D02*
X104226915Y-29927971D01*
X104226915Y-29927971D02*
X104298343Y-29785114D01*
X104298343Y-29785114D02*
X104298343Y-29356542D01*
X104298343Y-29356542D02*
X104226915Y-29213685D01*
X104226915Y-29213685D02*
X104155486Y-29142257D01*
X104155486Y-29142257D02*
X104012629Y-29070828D01*
X104012629Y-29070828D02*
X103726915Y-29070828D01*
X103726915Y-29070828D02*
X103584058Y-29142257D01*
X101798343Y-29642257D02*
X101084058Y-29642257D01*
X101941200Y-30070828D02*
X101441200Y-28570828D01*
X101441200Y-28570828D02*
X100941200Y-30070828D01*
X100441201Y-29070828D02*
X100441201Y-30070828D01*
X100441201Y-29213685D02*
X100369772Y-29142257D01*
X100369772Y-29142257D02*
X100226915Y-29070828D01*
X100226915Y-29070828D02*
X100012629Y-29070828D01*
X100012629Y-29070828D02*
X99869772Y-29142257D01*
X99869772Y-29142257D02*
X99798344Y-29285114D01*
X99798344Y-29285114D02*
X99798344Y-30070828D01*
X98441201Y-30070828D02*
X98441201Y-28570828D01*
X98441201Y-29999400D02*
X98584058Y-30070828D01*
X98584058Y-30070828D02*
X98869772Y-30070828D01*
X98869772Y-30070828D02*
X99012629Y-29999400D01*
X99012629Y-29999400D02*
X99084058Y-29927971D01*
X99084058Y-29927971D02*
X99155486Y-29785114D01*
X99155486Y-29785114D02*
X99155486Y-29356542D01*
X99155486Y-29356542D02*
X99084058Y-29213685D01*
X99084058Y-29213685D02*
X99012629Y-29142257D01*
X99012629Y-29142257D02*
X98869772Y-29070828D01*
X98869772Y-29070828D02*
X98584058Y-29070828D01*
X98584058Y-29070828D02*
X98441201Y-29142257D01*
X97726915Y-30070828D02*
X97726915Y-29070828D01*
X97726915Y-29356542D02*
X97655486Y-29213685D01*
X97655486Y-29213685D02*
X97584058Y-29142257D01*
X97584058Y-29142257D02*
X97441200Y-29070828D01*
X97441200Y-29070828D02*
X97298343Y-29070828D01*
X96226915Y-29999400D02*
X96369772Y-30070828D01*
X96369772Y-30070828D02*
X96655487Y-30070828D01*
X96655487Y-30070828D02*
X96798344Y-29999400D01*
X96798344Y-29999400D02*
X96869772Y-29856542D01*
X96869772Y-29856542D02*
X96869772Y-29285114D01*
X96869772Y-29285114D02*
X96798344Y-29142257D01*
X96798344Y-29142257D02*
X96655487Y-29070828D01*
X96655487Y-29070828D02*
X96369772Y-29070828D01*
X96369772Y-29070828D02*
X96226915Y-29142257D01*
X96226915Y-29142257D02*
X96155487Y-29285114D01*
X96155487Y-29285114D02*
X96155487Y-29427971D01*
X96155487Y-29427971D02*
X96869772Y-29570828D01*
X95655487Y-29070828D02*
X95369773Y-30070828D01*
X95369773Y-30070828D02*
X95084058Y-29356542D01*
X95084058Y-29356542D02*
X94798344Y-30070828D01*
X94798344Y-30070828D02*
X94512630Y-29070828D01*
X92869772Y-29999400D02*
X92655487Y-30070828D01*
X92655487Y-30070828D02*
X92298344Y-30070828D01*
X92298344Y-30070828D02*
X92155487Y-29999400D01*
X92155487Y-29999400D02*
X92084058Y-29927971D01*
X92084058Y-29927971D02*
X92012629Y-29785114D01*
X92012629Y-29785114D02*
X92012629Y-29642257D01*
X92012629Y-29642257D02*
X92084058Y-29499400D01*
X92084058Y-29499400D02*
X92155487Y-29427971D01*
X92155487Y-29427971D02*
X92298344Y-29356542D01*
X92298344Y-29356542D02*
X92584058Y-29285114D01*
X92584058Y-29285114D02*
X92726915Y-29213685D01*
X92726915Y-29213685D02*
X92798344Y-29142257D01*
X92798344Y-29142257D02*
X92869772Y-28999400D01*
X92869772Y-28999400D02*
X92869772Y-28856542D01*
X92869772Y-28856542D02*
X92798344Y-28713685D01*
X92798344Y-28713685D02*
X92726915Y-28642257D01*
X92726915Y-28642257D02*
X92584058Y-28570828D01*
X92584058Y-28570828D02*
X92226915Y-28570828D01*
X92226915Y-28570828D02*
X92012629Y-28642257D01*
X91369773Y-30070828D02*
X91369773Y-28570828D01*
X90726916Y-30070828D02*
X90726916Y-29285114D01*
X90726916Y-29285114D02*
X90798344Y-29142257D01*
X90798344Y-29142257D02*
X90941201Y-29070828D01*
X90941201Y-29070828D02*
X91155487Y-29070828D01*
X91155487Y-29070828D02*
X91298344Y-29142257D01*
X91298344Y-29142257D02*
X91369773Y-29213685D01*
X89441201Y-29999400D02*
X89584058Y-30070828D01*
X89584058Y-30070828D02*
X89869773Y-30070828D01*
X89869773Y-30070828D02*
X90012630Y-29999400D01*
X90012630Y-29999400D02*
X90084058Y-29856542D01*
X90084058Y-29856542D02*
X90084058Y-29285114D01*
X90084058Y-29285114D02*
X90012630Y-29142257D01*
X90012630Y-29142257D02*
X89869773Y-29070828D01*
X89869773Y-29070828D02*
X89584058Y-29070828D01*
X89584058Y-29070828D02*
X89441201Y-29142257D01*
X89441201Y-29142257D02*
X89369773Y-29285114D01*
X89369773Y-29285114D02*
X89369773Y-29427971D01*
X89369773Y-29427971D02*
X90084058Y-29570828D01*
X88084059Y-30070828D02*
X88084059Y-29285114D01*
X88084059Y-29285114D02*
X88155487Y-29142257D01*
X88155487Y-29142257D02*
X88298344Y-29070828D01*
X88298344Y-29070828D02*
X88584059Y-29070828D01*
X88584059Y-29070828D02*
X88726916Y-29142257D01*
X88084059Y-29999400D02*
X88226916Y-30070828D01*
X88226916Y-30070828D02*
X88584059Y-30070828D01*
X88584059Y-30070828D02*
X88726916Y-29999400D01*
X88726916Y-29999400D02*
X88798344Y-29856542D01*
X88798344Y-29856542D02*
X88798344Y-29713685D01*
X88798344Y-29713685D02*
X88726916Y-29570828D01*
X88726916Y-29570828D02*
X88584059Y-29499400D01*
X88584059Y-29499400D02*
X88226916Y-29499400D01*
X88226916Y-29499400D02*
X88084059Y-29427971D01*
X87584058Y-29070828D02*
X87012630Y-29070828D01*
X87369773Y-30070828D02*
X87369773Y-28785114D01*
X87369773Y-28785114D02*
X87298344Y-28642257D01*
X87298344Y-28642257D02*
X87155487Y-28570828D01*
X87155487Y-28570828D02*
X87012630Y-28570828D01*
X86726915Y-29070828D02*
X86155487Y-29070828D01*
X86512630Y-30070828D02*
X86512630Y-28785114D01*
X86512630Y-28785114D02*
X86441201Y-28642257D01*
X86441201Y-28642257D02*
X86298344Y-28570828D01*
X86298344Y-28570828D02*
X86155487Y-28570828D01*
D10*
X94629411Y-100389819D02*
X95200839Y-100389819D01*
X94915125Y-100389819D02*
X94915125Y-99389819D01*
X94915125Y-99389819D02*
X95010363Y-99532676D01*
X95010363Y-99532676D02*
X95105601Y-99627914D01*
X95105601Y-99627914D02*
X95200839Y-99675533D01*
X94010363Y-99389819D02*
X93915125Y-99389819D01*
X93915125Y-99389819D02*
X93819887Y-99437438D01*
X93819887Y-99437438D02*
X93772268Y-99485057D01*
X93772268Y-99485057D02*
X93724649Y-99580295D01*
X93724649Y-99580295D02*
X93677030Y-99770771D01*
X93677030Y-99770771D02*
X93677030Y-100008866D01*
X93677030Y-100008866D02*
X93724649Y-100199342D01*
X93724649Y-100199342D02*
X93772268Y-100294580D01*
X93772268Y-100294580D02*
X93819887Y-100342200D01*
X93819887Y-100342200D02*
X93915125Y-100389819D01*
X93915125Y-100389819D02*
X94010363Y-100389819D01*
X94010363Y-100389819D02*
X94105601Y-100342200D01*
X94105601Y-100342200D02*
X94153220Y-100294580D01*
X94153220Y-100294580D02*
X94200839Y-100199342D01*
X94200839Y-100199342D02*
X94248458Y-100008866D01*
X94248458Y-100008866D02*
X94248458Y-99770771D01*
X94248458Y-99770771D02*
X94200839Y-99580295D01*
X94200839Y-99580295D02*
X94153220Y-99485057D01*
X94153220Y-99485057D02*
X94105601Y-99437438D01*
X94105601Y-99437438D02*
X94010363Y-99389819D01*
X93248458Y-99723152D02*
X93248458Y-100723152D01*
X92772268Y-100246961D02*
X92724649Y-100342200D01*
X92724649Y-100342200D02*
X92629411Y-100389819D01*
X93248458Y-100246961D02*
X93200839Y-100342200D01*
X93200839Y-100342200D02*
X93105601Y-100389819D01*
X93105601Y-100389819D02*
X92915125Y-100389819D01*
X92915125Y-100389819D02*
X92819887Y-100342200D01*
X92819887Y-100342200D02*
X92772268Y-100246961D01*
X92772268Y-100246961D02*
X92772268Y-99723152D01*
X210839819Y-112160588D02*
X210839819Y-111589160D01*
X210839819Y-111874874D02*
X209839819Y-111874874D01*
X209839819Y-111874874D02*
X209982676Y-111779636D01*
X209982676Y-111779636D02*
X210077914Y-111684398D01*
X210077914Y-111684398D02*
X210125533Y-111589160D01*
X209839819Y-112779636D02*
X209839819Y-112874874D01*
X209839819Y-112874874D02*
X209887438Y-112970112D01*
X209887438Y-112970112D02*
X209935057Y-113017731D01*
X209935057Y-113017731D02*
X210030295Y-113065350D01*
X210030295Y-113065350D02*
X210220771Y-113112969D01*
X210220771Y-113112969D02*
X210458866Y-113112969D01*
X210458866Y-113112969D02*
X210649342Y-113065350D01*
X210649342Y-113065350D02*
X210744580Y-113017731D01*
X210744580Y-113017731D02*
X210792200Y-112970112D01*
X210792200Y-112970112D02*
X210839819Y-112874874D01*
X210839819Y-112874874D02*
X210839819Y-112779636D01*
X210839819Y-112779636D02*
X210792200Y-112684398D01*
X210792200Y-112684398D02*
X210744580Y-112636779D01*
X210744580Y-112636779D02*
X210649342Y-112589160D01*
X210649342Y-112589160D02*
X210458866Y-112541541D01*
X210458866Y-112541541D02*
X210220771Y-112541541D01*
X210220771Y-112541541D02*
X210030295Y-112589160D01*
X210030295Y-112589160D02*
X209935057Y-112636779D01*
X209935057Y-112636779D02*
X209887438Y-112684398D01*
X209887438Y-112684398D02*
X209839819Y-112779636D01*
X210839819Y-113541541D02*
X209839819Y-113541541D01*
X210458866Y-113636779D02*
X210839819Y-113922493D01*
X210173152Y-113922493D02*
X210554104Y-113541541D01*
X228553220Y-138469987D02*
X228553220Y-139279510D01*
X228553220Y-139279510D02*
X228505601Y-139374748D01*
X228505601Y-139374748D02*
X228457982Y-139422368D01*
X228457982Y-139422368D02*
X228362744Y-139469987D01*
X228362744Y-139469987D02*
X228172268Y-139469987D01*
X228172268Y-139469987D02*
X228077030Y-139422368D01*
X228077030Y-139422368D02*
X228029411Y-139374748D01*
X228029411Y-139374748D02*
X227981792Y-139279510D01*
X227981792Y-139279510D02*
X227981792Y-138469987D01*
X227505601Y-138803320D02*
X227505601Y-139469987D01*
X227505601Y-138898558D02*
X227457982Y-138850939D01*
X227457982Y-138850939D02*
X227362744Y-138803320D01*
X227362744Y-138803320D02*
X227219887Y-138803320D01*
X227219887Y-138803320D02*
X227124649Y-138850939D01*
X227124649Y-138850939D02*
X227077030Y-138946177D01*
X227077030Y-138946177D02*
X227077030Y-139469987D01*
X226457982Y-139469987D02*
X226553220Y-139422368D01*
X226553220Y-139422368D02*
X226600839Y-139327129D01*
X226600839Y-139327129D02*
X226600839Y-138469987D01*
X225696077Y-139422368D02*
X225791315Y-139469987D01*
X225791315Y-139469987D02*
X225981791Y-139469987D01*
X225981791Y-139469987D02*
X226077029Y-139422368D01*
X226077029Y-139422368D02*
X226124648Y-139327129D01*
X226124648Y-139327129D02*
X226124648Y-138946177D01*
X226124648Y-138946177D02*
X226077029Y-138850939D01*
X226077029Y-138850939D02*
X225981791Y-138803320D01*
X225981791Y-138803320D02*
X225791315Y-138803320D01*
X225791315Y-138803320D02*
X225696077Y-138850939D01*
X225696077Y-138850939D02*
X225648458Y-138946177D01*
X225648458Y-138946177D02*
X225648458Y-139041415D01*
X225648458Y-139041415D02*
X226124648Y-139136653D01*
X225267505Y-139422368D02*
X225172267Y-139469987D01*
X225172267Y-139469987D02*
X224981791Y-139469987D01*
X224981791Y-139469987D02*
X224886553Y-139422368D01*
X224886553Y-139422368D02*
X224838934Y-139327129D01*
X224838934Y-139327129D02*
X224838934Y-139279510D01*
X224838934Y-139279510D02*
X224886553Y-139184272D01*
X224886553Y-139184272D02*
X224981791Y-139136653D01*
X224981791Y-139136653D02*
X225124648Y-139136653D01*
X225124648Y-139136653D02*
X225219886Y-139089034D01*
X225219886Y-139089034D02*
X225267505Y-138993796D01*
X225267505Y-138993796D02*
X225267505Y-138946177D01*
X225267505Y-138946177D02*
X225219886Y-138850939D01*
X225219886Y-138850939D02*
X225124648Y-138803320D01*
X225124648Y-138803320D02*
X224981791Y-138803320D01*
X224981791Y-138803320D02*
X224886553Y-138850939D01*
X224457981Y-139422368D02*
X224362743Y-139469987D01*
X224362743Y-139469987D02*
X224172267Y-139469987D01*
X224172267Y-139469987D02*
X224077029Y-139422368D01*
X224077029Y-139422368D02*
X224029410Y-139327129D01*
X224029410Y-139327129D02*
X224029410Y-139279510D01*
X224029410Y-139279510D02*
X224077029Y-139184272D01*
X224077029Y-139184272D02*
X224172267Y-139136653D01*
X224172267Y-139136653D02*
X224315124Y-139136653D01*
X224315124Y-139136653D02*
X224410362Y-139089034D01*
X224410362Y-139089034D02*
X224457981Y-138993796D01*
X224457981Y-138993796D02*
X224457981Y-138946177D01*
X224457981Y-138946177D02*
X224410362Y-138850939D01*
X224410362Y-138850939D02*
X224315124Y-138803320D01*
X224315124Y-138803320D02*
X224172267Y-138803320D01*
X224172267Y-138803320D02*
X224077029Y-138850939D01*
X222696076Y-139469987D02*
X222791314Y-139422368D01*
X222791314Y-139422368D02*
X222838933Y-139374748D01*
X222838933Y-139374748D02*
X222886552Y-139279510D01*
X222886552Y-139279510D02*
X222886552Y-138993796D01*
X222886552Y-138993796D02*
X222838933Y-138898558D01*
X222838933Y-138898558D02*
X222791314Y-138850939D01*
X222791314Y-138850939D02*
X222696076Y-138803320D01*
X222696076Y-138803320D02*
X222553219Y-138803320D01*
X222553219Y-138803320D02*
X222457981Y-138850939D01*
X222457981Y-138850939D02*
X222410362Y-138898558D01*
X222410362Y-138898558D02*
X222362743Y-138993796D01*
X222362743Y-138993796D02*
X222362743Y-139279510D01*
X222362743Y-139279510D02*
X222410362Y-139374748D01*
X222410362Y-139374748D02*
X222457981Y-139422368D01*
X222457981Y-139422368D02*
X222553219Y-139469987D01*
X222553219Y-139469987D02*
X222696076Y-139469987D01*
X222077028Y-138803320D02*
X221696076Y-138803320D01*
X221934171Y-138469987D02*
X221934171Y-139327129D01*
X221934171Y-139327129D02*
X221886552Y-139422368D01*
X221886552Y-139422368D02*
X221791314Y-139469987D01*
X221791314Y-139469987D02*
X221696076Y-139469987D01*
X221362742Y-139469987D02*
X221362742Y-138469987D01*
X220934171Y-139469987D02*
X220934171Y-138946177D01*
X220934171Y-138946177D02*
X220981790Y-138850939D01*
X220981790Y-138850939D02*
X221077028Y-138803320D01*
X221077028Y-138803320D02*
X221219885Y-138803320D01*
X221219885Y-138803320D02*
X221315123Y-138850939D01*
X221315123Y-138850939D02*
X221362742Y-138898558D01*
X220077028Y-139422368D02*
X220172266Y-139469987D01*
X220172266Y-139469987D02*
X220362742Y-139469987D01*
X220362742Y-139469987D02*
X220457980Y-139422368D01*
X220457980Y-139422368D02*
X220505599Y-139327129D01*
X220505599Y-139327129D02*
X220505599Y-138946177D01*
X220505599Y-138946177D02*
X220457980Y-138850939D01*
X220457980Y-138850939D02*
X220362742Y-138803320D01*
X220362742Y-138803320D02*
X220172266Y-138803320D01*
X220172266Y-138803320D02*
X220077028Y-138850939D01*
X220077028Y-138850939D02*
X220029409Y-138946177D01*
X220029409Y-138946177D02*
X220029409Y-139041415D01*
X220029409Y-139041415D02*
X220505599Y-139136653D01*
X219600837Y-139469987D02*
X219600837Y-138803320D01*
X219600837Y-138993796D02*
X219553218Y-138898558D01*
X219553218Y-138898558D02*
X219505599Y-138850939D01*
X219505599Y-138850939D02*
X219410361Y-138803320D01*
X219410361Y-138803320D02*
X219315123Y-138803320D01*
X219077027Y-138803320D02*
X218886551Y-139469987D01*
X218886551Y-139469987D02*
X218696075Y-138993796D01*
X218696075Y-138993796D02*
X218505599Y-139469987D01*
X218505599Y-139469987D02*
X218315123Y-138803320D01*
X217934170Y-139469987D02*
X217934170Y-138803320D01*
X217934170Y-138469987D02*
X217981789Y-138517606D01*
X217981789Y-138517606D02*
X217934170Y-138565225D01*
X217934170Y-138565225D02*
X217886551Y-138517606D01*
X217886551Y-138517606D02*
X217934170Y-138469987D01*
X217934170Y-138469987D02*
X217934170Y-138565225D01*
X217505599Y-139422368D02*
X217410361Y-139469987D01*
X217410361Y-139469987D02*
X217219885Y-139469987D01*
X217219885Y-139469987D02*
X217124647Y-139422368D01*
X217124647Y-139422368D02*
X217077028Y-139327129D01*
X217077028Y-139327129D02*
X217077028Y-139279510D01*
X217077028Y-139279510D02*
X217124647Y-139184272D01*
X217124647Y-139184272D02*
X217219885Y-139136653D01*
X217219885Y-139136653D02*
X217362742Y-139136653D01*
X217362742Y-139136653D02*
X217457980Y-139089034D01*
X217457980Y-139089034D02*
X217505599Y-138993796D01*
X217505599Y-138993796D02*
X217505599Y-138946177D01*
X217505599Y-138946177D02*
X217457980Y-138850939D01*
X217457980Y-138850939D02*
X217362742Y-138803320D01*
X217362742Y-138803320D02*
X217219885Y-138803320D01*
X217219885Y-138803320D02*
X217124647Y-138850939D01*
X216267504Y-139422368D02*
X216362742Y-139469987D01*
X216362742Y-139469987D02*
X216553218Y-139469987D01*
X216553218Y-139469987D02*
X216648456Y-139422368D01*
X216648456Y-139422368D02*
X216696075Y-139327129D01*
X216696075Y-139327129D02*
X216696075Y-138946177D01*
X216696075Y-138946177D02*
X216648456Y-138850939D01*
X216648456Y-138850939D02*
X216553218Y-138803320D01*
X216553218Y-138803320D02*
X216362742Y-138803320D01*
X216362742Y-138803320D02*
X216267504Y-138850939D01*
X216267504Y-138850939D02*
X216219885Y-138946177D01*
X216219885Y-138946177D02*
X216219885Y-139041415D01*
X216219885Y-139041415D02*
X216696075Y-139136653D01*
X215029408Y-138803320D02*
X215029408Y-139469987D01*
X215029408Y-138898558D02*
X214981789Y-138850939D01*
X214981789Y-138850939D02*
X214886551Y-138803320D01*
X214886551Y-138803320D02*
X214743694Y-138803320D01*
X214743694Y-138803320D02*
X214648456Y-138850939D01*
X214648456Y-138850939D02*
X214600837Y-138946177D01*
X214600837Y-138946177D02*
X214600837Y-139469987D01*
X213981789Y-139469987D02*
X214077027Y-139422368D01*
X214077027Y-139422368D02*
X214124646Y-139374748D01*
X214124646Y-139374748D02*
X214172265Y-139279510D01*
X214172265Y-139279510D02*
X214172265Y-138993796D01*
X214172265Y-138993796D02*
X214124646Y-138898558D01*
X214124646Y-138898558D02*
X214077027Y-138850939D01*
X214077027Y-138850939D02*
X213981789Y-138803320D01*
X213981789Y-138803320D02*
X213838932Y-138803320D01*
X213838932Y-138803320D02*
X213743694Y-138850939D01*
X213743694Y-138850939D02*
X213696075Y-138898558D01*
X213696075Y-138898558D02*
X213648456Y-138993796D01*
X213648456Y-138993796D02*
X213648456Y-139279510D01*
X213648456Y-139279510D02*
X213696075Y-139374748D01*
X213696075Y-139374748D02*
X213743694Y-139422368D01*
X213743694Y-139422368D02*
X213838932Y-139469987D01*
X213838932Y-139469987D02*
X213981789Y-139469987D01*
X213362741Y-138803320D02*
X212981789Y-138803320D01*
X213219884Y-138469987D02*
X213219884Y-139327129D01*
X213219884Y-139327129D02*
X213172265Y-139422368D01*
X213172265Y-139422368D02*
X213077027Y-139469987D01*
X213077027Y-139469987D02*
X212981789Y-139469987D01*
X212267503Y-139422368D02*
X212362741Y-139469987D01*
X212362741Y-139469987D02*
X212553217Y-139469987D01*
X212553217Y-139469987D02*
X212648455Y-139422368D01*
X212648455Y-139422368D02*
X212696074Y-139327129D01*
X212696074Y-139327129D02*
X212696074Y-138946177D01*
X212696074Y-138946177D02*
X212648455Y-138850939D01*
X212648455Y-138850939D02*
X212553217Y-138803320D01*
X212553217Y-138803320D02*
X212362741Y-138803320D01*
X212362741Y-138803320D02*
X212267503Y-138850939D01*
X212267503Y-138850939D02*
X212219884Y-138946177D01*
X212219884Y-138946177D02*
X212219884Y-139041415D01*
X212219884Y-139041415D02*
X212696074Y-139136653D01*
X211362741Y-139469987D02*
X211362741Y-138469987D01*
X211362741Y-139422368D02*
X211457979Y-139469987D01*
X211457979Y-139469987D02*
X211648455Y-139469987D01*
X211648455Y-139469987D02*
X211743693Y-139422368D01*
X211743693Y-139422368D02*
X211791312Y-139374748D01*
X211791312Y-139374748D02*
X211838931Y-139279510D01*
X211838931Y-139279510D02*
X211838931Y-138993796D01*
X211838931Y-138993796D02*
X211791312Y-138898558D01*
X211791312Y-138898558D02*
X211743693Y-138850939D01*
X211743693Y-138850939D02*
X211648455Y-138803320D01*
X211648455Y-138803320D02*
X211457979Y-138803320D01*
X211457979Y-138803320D02*
X211362741Y-138850939D01*
X210838931Y-139422368D02*
X210838931Y-139469987D01*
X210838931Y-139469987D02*
X210886550Y-139565225D01*
X210886550Y-139565225D02*
X210934169Y-139612844D01*
X228553220Y-141079931D02*
X228553220Y-140413264D01*
X228553220Y-140603740D02*
X228505601Y-140508502D01*
X228505601Y-140508502D02*
X228457982Y-140460883D01*
X228457982Y-140460883D02*
X228362744Y-140413264D01*
X228362744Y-140413264D02*
X228267506Y-140413264D01*
X227553220Y-141032312D02*
X227648458Y-141079931D01*
X227648458Y-141079931D02*
X227838934Y-141079931D01*
X227838934Y-141079931D02*
X227934172Y-141032312D01*
X227934172Y-141032312D02*
X227981791Y-140937073D01*
X227981791Y-140937073D02*
X227981791Y-140556121D01*
X227981791Y-140556121D02*
X227934172Y-140460883D01*
X227934172Y-140460883D02*
X227838934Y-140413264D01*
X227838934Y-140413264D02*
X227648458Y-140413264D01*
X227648458Y-140413264D02*
X227553220Y-140460883D01*
X227553220Y-140460883D02*
X227505601Y-140556121D01*
X227505601Y-140556121D02*
X227505601Y-140651359D01*
X227505601Y-140651359D02*
X227981791Y-140746597D01*
X227124648Y-141032312D02*
X227029410Y-141079931D01*
X227029410Y-141079931D02*
X226838934Y-141079931D01*
X226838934Y-141079931D02*
X226743696Y-141032312D01*
X226743696Y-141032312D02*
X226696077Y-140937073D01*
X226696077Y-140937073D02*
X226696077Y-140889454D01*
X226696077Y-140889454D02*
X226743696Y-140794216D01*
X226743696Y-140794216D02*
X226838934Y-140746597D01*
X226838934Y-140746597D02*
X226981791Y-140746597D01*
X226981791Y-140746597D02*
X227077029Y-140698978D01*
X227077029Y-140698978D02*
X227124648Y-140603740D01*
X227124648Y-140603740D02*
X227124648Y-140556121D01*
X227124648Y-140556121D02*
X227077029Y-140460883D01*
X227077029Y-140460883D02*
X226981791Y-140413264D01*
X226981791Y-140413264D02*
X226838934Y-140413264D01*
X226838934Y-140413264D02*
X226743696Y-140460883D01*
X226267505Y-141079931D02*
X226267505Y-140413264D01*
X226267505Y-140079931D02*
X226315124Y-140127550D01*
X226315124Y-140127550D02*
X226267505Y-140175169D01*
X226267505Y-140175169D02*
X226219886Y-140127550D01*
X226219886Y-140127550D02*
X226267505Y-140079931D01*
X226267505Y-140079931D02*
X226267505Y-140175169D01*
X225838934Y-141032312D02*
X225743696Y-141079931D01*
X225743696Y-141079931D02*
X225553220Y-141079931D01*
X225553220Y-141079931D02*
X225457982Y-141032312D01*
X225457982Y-141032312D02*
X225410363Y-140937073D01*
X225410363Y-140937073D02*
X225410363Y-140889454D01*
X225410363Y-140889454D02*
X225457982Y-140794216D01*
X225457982Y-140794216D02*
X225553220Y-140746597D01*
X225553220Y-140746597D02*
X225696077Y-140746597D01*
X225696077Y-140746597D02*
X225791315Y-140698978D01*
X225791315Y-140698978D02*
X225838934Y-140603740D01*
X225838934Y-140603740D02*
X225838934Y-140556121D01*
X225838934Y-140556121D02*
X225791315Y-140460883D01*
X225791315Y-140460883D02*
X225696077Y-140413264D01*
X225696077Y-140413264D02*
X225553220Y-140413264D01*
X225553220Y-140413264D02*
X225457982Y-140460883D01*
X225124648Y-140413264D02*
X224743696Y-140413264D01*
X224981791Y-140079931D02*
X224981791Y-140937073D01*
X224981791Y-140937073D02*
X224934172Y-141032312D01*
X224934172Y-141032312D02*
X224838934Y-141079931D01*
X224838934Y-141079931D02*
X224743696Y-141079931D01*
X224267505Y-141079931D02*
X224362743Y-141032312D01*
X224362743Y-141032312D02*
X224410362Y-140984692D01*
X224410362Y-140984692D02*
X224457981Y-140889454D01*
X224457981Y-140889454D02*
X224457981Y-140603740D01*
X224457981Y-140603740D02*
X224410362Y-140508502D01*
X224410362Y-140508502D02*
X224362743Y-140460883D01*
X224362743Y-140460883D02*
X224267505Y-140413264D01*
X224267505Y-140413264D02*
X224124648Y-140413264D01*
X224124648Y-140413264D02*
X224029410Y-140460883D01*
X224029410Y-140460883D02*
X223981791Y-140508502D01*
X223981791Y-140508502D02*
X223934172Y-140603740D01*
X223934172Y-140603740D02*
X223934172Y-140889454D01*
X223934172Y-140889454D02*
X223981791Y-140984692D01*
X223981791Y-140984692D02*
X224029410Y-141032312D01*
X224029410Y-141032312D02*
X224124648Y-141079931D01*
X224124648Y-141079931D02*
X224267505Y-141079931D01*
X223505600Y-141079931D02*
X223505600Y-140413264D01*
X223505600Y-140603740D02*
X223457981Y-140508502D01*
X223457981Y-140508502D02*
X223410362Y-140460883D01*
X223410362Y-140460883D02*
X223315124Y-140413264D01*
X223315124Y-140413264D02*
X223219886Y-140413264D01*
X222934171Y-141032312D02*
X222838933Y-141079931D01*
X222838933Y-141079931D02*
X222648457Y-141079931D01*
X222648457Y-141079931D02*
X222553219Y-141032312D01*
X222553219Y-141032312D02*
X222505600Y-140937073D01*
X222505600Y-140937073D02*
X222505600Y-140889454D01*
X222505600Y-140889454D02*
X222553219Y-140794216D01*
X222553219Y-140794216D02*
X222648457Y-140746597D01*
X222648457Y-140746597D02*
X222791314Y-140746597D01*
X222791314Y-140746597D02*
X222886552Y-140698978D01*
X222886552Y-140698978D02*
X222934171Y-140603740D01*
X222934171Y-140603740D02*
X222934171Y-140556121D01*
X222934171Y-140556121D02*
X222886552Y-140460883D01*
X222886552Y-140460883D02*
X222791314Y-140413264D01*
X222791314Y-140413264D02*
X222648457Y-140413264D01*
X222648457Y-140413264D02*
X222553219Y-140460883D01*
X220505599Y-141079931D02*
X220553219Y-141079931D01*
X220553219Y-141079931D02*
X220648457Y-141032312D01*
X220648457Y-141032312D02*
X220791314Y-140889454D01*
X220791314Y-140889454D02*
X221029409Y-140603740D01*
X221029409Y-140603740D02*
X221124647Y-140460883D01*
X221124647Y-140460883D02*
X221172266Y-140318026D01*
X221172266Y-140318026D02*
X221172266Y-140222788D01*
X221172266Y-140222788D02*
X221124647Y-140127550D01*
X221124647Y-140127550D02*
X221029409Y-140079931D01*
X221029409Y-140079931D02*
X220981790Y-140079931D01*
X220981790Y-140079931D02*
X220886552Y-140127550D01*
X220886552Y-140127550D02*
X220838933Y-140222788D01*
X220838933Y-140222788D02*
X220838933Y-140270407D01*
X220838933Y-140270407D02*
X220886552Y-140365645D01*
X220886552Y-140365645D02*
X220934171Y-140413264D01*
X220934171Y-140413264D02*
X221219885Y-140603740D01*
X221219885Y-140603740D02*
X221267504Y-140651359D01*
X221267504Y-140651359D02*
X221315123Y-140746597D01*
X221315123Y-140746597D02*
X221315123Y-140889454D01*
X221315123Y-140889454D02*
X221267504Y-140984692D01*
X221267504Y-140984692D02*
X221219885Y-141032312D01*
X221219885Y-141032312D02*
X221124647Y-141079931D01*
X221124647Y-141079931D02*
X220981790Y-141079931D01*
X220981790Y-141079931D02*
X220886552Y-141032312D01*
X220886552Y-141032312D02*
X220838933Y-140984692D01*
X220838933Y-140984692D02*
X220696076Y-140794216D01*
X220696076Y-140794216D02*
X220648457Y-140651359D01*
X220648457Y-140651359D02*
X220648457Y-140556121D01*
X219457980Y-140413264D02*
X219077028Y-140413264D01*
X219315123Y-141079931D02*
X219315123Y-140222788D01*
X219315123Y-140222788D02*
X219267504Y-140127550D01*
X219267504Y-140127550D02*
X219172266Y-140079931D01*
X219172266Y-140079931D02*
X219077028Y-140079931D01*
X218362742Y-141032312D02*
X218457980Y-141079931D01*
X218457980Y-141079931D02*
X218648456Y-141079931D01*
X218648456Y-141079931D02*
X218743694Y-141032312D01*
X218743694Y-141032312D02*
X218791313Y-140937073D01*
X218791313Y-140937073D02*
X218791313Y-140556121D01*
X218791313Y-140556121D02*
X218743694Y-140460883D01*
X218743694Y-140460883D02*
X218648456Y-140413264D01*
X218648456Y-140413264D02*
X218457980Y-140413264D01*
X218457980Y-140413264D02*
X218362742Y-140460883D01*
X218362742Y-140460883D02*
X218315123Y-140556121D01*
X218315123Y-140556121D02*
X218315123Y-140651359D01*
X218315123Y-140651359D02*
X218791313Y-140746597D01*
X217886551Y-141079931D02*
X217886551Y-140413264D01*
X217886551Y-140603740D02*
X217838932Y-140508502D01*
X217838932Y-140508502D02*
X217791313Y-140460883D01*
X217791313Y-140460883D02*
X217696075Y-140413264D01*
X217696075Y-140413264D02*
X217600837Y-140413264D01*
X217267503Y-141079931D02*
X217267503Y-140413264D01*
X217267503Y-140603740D02*
X217219884Y-140508502D01*
X217219884Y-140508502D02*
X217172265Y-140460883D01*
X217172265Y-140460883D02*
X217077027Y-140413264D01*
X217077027Y-140413264D02*
X216981789Y-140413264D01*
X216648455Y-141079931D02*
X216648455Y-140413264D01*
X216648455Y-140079931D02*
X216696074Y-140127550D01*
X216696074Y-140127550D02*
X216648455Y-140175169D01*
X216648455Y-140175169D02*
X216600836Y-140127550D01*
X216600836Y-140127550D02*
X216648455Y-140079931D01*
X216648455Y-140079931D02*
X216648455Y-140175169D01*
X216315122Y-140413264D02*
X215934170Y-140413264D01*
X216172265Y-140079931D02*
X216172265Y-140937073D01*
X216172265Y-140937073D02*
X216124646Y-141032312D01*
X216124646Y-141032312D02*
X216029408Y-141079931D01*
X216029408Y-141079931D02*
X215934170Y-141079931D01*
X215219884Y-141032312D02*
X215315122Y-141079931D01*
X215315122Y-141079931D02*
X215505598Y-141079931D01*
X215505598Y-141079931D02*
X215600836Y-141032312D01*
X215600836Y-141032312D02*
X215648455Y-140937073D01*
X215648455Y-140937073D02*
X215648455Y-140556121D01*
X215648455Y-140556121D02*
X215600836Y-140460883D01*
X215600836Y-140460883D02*
X215505598Y-140413264D01*
X215505598Y-140413264D02*
X215315122Y-140413264D01*
X215315122Y-140413264D02*
X215219884Y-140460883D01*
X215219884Y-140460883D02*
X215172265Y-140556121D01*
X215172265Y-140556121D02*
X215172265Y-140651359D01*
X215172265Y-140651359D02*
X215648455Y-140746597D01*
X213981788Y-141079931D02*
X213981788Y-140079931D01*
X213981788Y-140460883D02*
X213886550Y-140413264D01*
X213886550Y-140413264D02*
X213696074Y-140413264D01*
X213696074Y-140413264D02*
X213600836Y-140460883D01*
X213600836Y-140460883D02*
X213553217Y-140508502D01*
X213553217Y-140508502D02*
X213505598Y-140603740D01*
X213505598Y-140603740D02*
X213505598Y-140889454D01*
X213505598Y-140889454D02*
X213553217Y-140984692D01*
X213553217Y-140984692D02*
X213600836Y-141032312D01*
X213600836Y-141032312D02*
X213696074Y-141079931D01*
X213696074Y-141079931D02*
X213886550Y-141079931D01*
X213886550Y-141079931D02*
X213981788Y-141032312D01*
X212696074Y-141032312D02*
X212791312Y-141079931D01*
X212791312Y-141079931D02*
X212981788Y-141079931D01*
X212981788Y-141079931D02*
X213077026Y-141032312D01*
X213077026Y-141032312D02*
X213124645Y-140937073D01*
X213124645Y-140937073D02*
X213124645Y-140556121D01*
X213124645Y-140556121D02*
X213077026Y-140460883D01*
X213077026Y-140460883D02*
X212981788Y-140413264D01*
X212981788Y-140413264D02*
X212791312Y-140413264D01*
X212791312Y-140413264D02*
X212696074Y-140460883D01*
X212696074Y-140460883D02*
X212648455Y-140556121D01*
X212648455Y-140556121D02*
X212648455Y-140651359D01*
X212648455Y-140651359D02*
X213124645Y-140746597D01*
X211791312Y-141079931D02*
X211791312Y-140556121D01*
X211791312Y-140556121D02*
X211838931Y-140460883D01*
X211838931Y-140460883D02*
X211934169Y-140413264D01*
X211934169Y-140413264D02*
X212124645Y-140413264D01*
X212124645Y-140413264D02*
X212219883Y-140460883D01*
X211791312Y-141032312D02*
X211886550Y-141079931D01*
X211886550Y-141079931D02*
X212124645Y-141079931D01*
X212124645Y-141079931D02*
X212219883Y-141032312D01*
X212219883Y-141032312D02*
X212267502Y-140937073D01*
X212267502Y-140937073D02*
X212267502Y-140841835D01*
X212267502Y-140841835D02*
X212219883Y-140746597D01*
X212219883Y-140746597D02*
X212124645Y-140698978D01*
X212124645Y-140698978D02*
X211886550Y-140698978D01*
X211886550Y-140698978D02*
X211791312Y-140651359D01*
X210886550Y-141079931D02*
X210886550Y-140079931D01*
X210886550Y-141032312D02*
X210981788Y-141079931D01*
X210981788Y-141079931D02*
X211172264Y-141079931D01*
X211172264Y-141079931D02*
X211267502Y-141032312D01*
X211267502Y-141032312D02*
X211315121Y-140984692D01*
X211315121Y-140984692D02*
X211362740Y-140889454D01*
X211362740Y-140889454D02*
X211362740Y-140603740D01*
X211362740Y-140603740D02*
X211315121Y-140508502D01*
X211315121Y-140508502D02*
X211267502Y-140460883D01*
X211267502Y-140460883D02*
X211172264Y-140413264D01*
X211172264Y-140413264D02*
X210981788Y-140413264D01*
X210981788Y-140413264D02*
X210886550Y-140460883D01*
X210457978Y-141032312D02*
X210362740Y-141079931D01*
X210362740Y-141079931D02*
X210172264Y-141079931D01*
X210172264Y-141079931D02*
X210077026Y-141032312D01*
X210077026Y-141032312D02*
X210029407Y-140937073D01*
X210029407Y-140937073D02*
X210029407Y-140889454D01*
X210029407Y-140889454D02*
X210077026Y-140794216D01*
X210077026Y-140794216D02*
X210172264Y-140746597D01*
X210172264Y-140746597D02*
X210315121Y-140746597D01*
X210315121Y-140746597D02*
X210410359Y-140698978D01*
X210410359Y-140698978D02*
X210457978Y-140603740D01*
X210457978Y-140603740D02*
X210457978Y-140556121D01*
X210457978Y-140556121D02*
X210410359Y-140460883D01*
X210410359Y-140460883D02*
X210315121Y-140413264D01*
X210315121Y-140413264D02*
X210172264Y-140413264D01*
X210172264Y-140413264D02*
X210077026Y-140460883D01*
X208648454Y-140079931D02*
X208553216Y-140079931D01*
X208553216Y-140079931D02*
X208457978Y-140127550D01*
X208457978Y-140127550D02*
X208410359Y-140175169D01*
X208410359Y-140175169D02*
X208362740Y-140270407D01*
X208362740Y-140270407D02*
X208315121Y-140460883D01*
X208315121Y-140460883D02*
X208315121Y-140698978D01*
X208315121Y-140698978D02*
X208362740Y-140889454D01*
X208362740Y-140889454D02*
X208410359Y-140984692D01*
X208410359Y-140984692D02*
X208457978Y-141032312D01*
X208457978Y-141032312D02*
X208553216Y-141079931D01*
X208553216Y-141079931D02*
X208648454Y-141079931D01*
X208648454Y-141079931D02*
X208743692Y-141032312D01*
X208743692Y-141032312D02*
X208791311Y-140984692D01*
X208791311Y-140984692D02*
X208838930Y-140889454D01*
X208838930Y-140889454D02*
X208886549Y-140698978D01*
X208886549Y-140698978D02*
X208886549Y-140460883D01*
X208886549Y-140460883D02*
X208838930Y-140270407D01*
X208838930Y-140270407D02*
X208791311Y-140175169D01*
X208791311Y-140175169D02*
X208743692Y-140127550D01*
X208743692Y-140127550D02*
X208648454Y-140079931D01*
X207457978Y-140079931D02*
X207648454Y-140079931D01*
X207648454Y-140079931D02*
X207743692Y-140127550D01*
X207743692Y-140127550D02*
X207791311Y-140175169D01*
X207791311Y-140175169D02*
X207886549Y-140318026D01*
X207886549Y-140318026D02*
X207934168Y-140508502D01*
X207934168Y-140508502D02*
X207934168Y-140889454D01*
X207934168Y-140889454D02*
X207886549Y-140984692D01*
X207886549Y-140984692D02*
X207838930Y-141032312D01*
X207838930Y-141032312D02*
X207743692Y-141079931D01*
X207743692Y-141079931D02*
X207553216Y-141079931D01*
X207553216Y-141079931D02*
X207457978Y-141032312D01*
X207457978Y-141032312D02*
X207410359Y-140984692D01*
X207410359Y-140984692D02*
X207362740Y-140889454D01*
X207362740Y-140889454D02*
X207362740Y-140651359D01*
X207362740Y-140651359D02*
X207410359Y-140556121D01*
X207410359Y-140556121D02*
X207457978Y-140508502D01*
X207457978Y-140508502D02*
X207553216Y-140460883D01*
X207553216Y-140460883D02*
X207743692Y-140460883D01*
X207743692Y-140460883D02*
X207838930Y-140508502D01*
X207838930Y-140508502D02*
X207886549Y-140556121D01*
X207886549Y-140556121D02*
X207934168Y-140651359D01*
X206743692Y-140079931D02*
X206648454Y-140079931D01*
X206648454Y-140079931D02*
X206553216Y-140127550D01*
X206553216Y-140127550D02*
X206505597Y-140175169D01*
X206505597Y-140175169D02*
X206457978Y-140270407D01*
X206457978Y-140270407D02*
X206410359Y-140460883D01*
X206410359Y-140460883D02*
X206410359Y-140698978D01*
X206410359Y-140698978D02*
X206457978Y-140889454D01*
X206457978Y-140889454D02*
X206505597Y-140984692D01*
X206505597Y-140984692D02*
X206553216Y-141032312D01*
X206553216Y-141032312D02*
X206648454Y-141079931D01*
X206648454Y-141079931D02*
X206743692Y-141079931D01*
X206743692Y-141079931D02*
X206838930Y-141032312D01*
X206838930Y-141032312D02*
X206886549Y-140984692D01*
X206886549Y-140984692D02*
X206934168Y-140889454D01*
X206934168Y-140889454D02*
X206981787Y-140698978D01*
X206981787Y-140698978D02*
X206981787Y-140460883D01*
X206981787Y-140460883D02*
X206934168Y-140270407D01*
X206934168Y-140270407D02*
X206886549Y-140175169D01*
X206886549Y-140175169D02*
X206838930Y-140127550D01*
X206838930Y-140127550D02*
X206743692Y-140079931D01*
X206077025Y-140079931D02*
X205457978Y-140079931D01*
X205457978Y-140079931D02*
X205791311Y-140460883D01*
X205791311Y-140460883D02*
X205648454Y-140460883D01*
X205648454Y-140460883D02*
X205553216Y-140508502D01*
X205553216Y-140508502D02*
X205505597Y-140556121D01*
X205505597Y-140556121D02*
X205457978Y-140651359D01*
X205457978Y-140651359D02*
X205457978Y-140889454D01*
X205457978Y-140889454D02*
X205505597Y-140984692D01*
X205505597Y-140984692D02*
X205553216Y-141032312D01*
X205553216Y-141032312D02*
X205648454Y-141079931D01*
X205648454Y-141079931D02*
X205934168Y-141079931D01*
X205934168Y-141079931D02*
X206029406Y-141032312D01*
X206029406Y-141032312D02*
X206077025Y-140984692D01*
X204981787Y-141032312D02*
X204981787Y-141079931D01*
X204981787Y-141079931D02*
X205029406Y-141175169D01*
X205029406Y-141175169D02*
X205077025Y-141222788D01*
X228124649Y-142642256D02*
X228219887Y-142689875D01*
X228219887Y-142689875D02*
X228410363Y-142689875D01*
X228410363Y-142689875D02*
X228505601Y-142642256D01*
X228505601Y-142642256D02*
X228553220Y-142594636D01*
X228553220Y-142594636D02*
X228600839Y-142499398D01*
X228600839Y-142499398D02*
X228600839Y-142213684D01*
X228600839Y-142213684D02*
X228553220Y-142118446D01*
X228553220Y-142118446D02*
X228505601Y-142070827D01*
X228505601Y-142070827D02*
X228410363Y-142023208D01*
X228410363Y-142023208D02*
X228219887Y-142023208D01*
X228219887Y-142023208D02*
X228124649Y-142070827D01*
X227267506Y-142689875D02*
X227267506Y-142166065D01*
X227267506Y-142166065D02*
X227315125Y-142070827D01*
X227315125Y-142070827D02*
X227410363Y-142023208D01*
X227410363Y-142023208D02*
X227600839Y-142023208D01*
X227600839Y-142023208D02*
X227696077Y-142070827D01*
X227267506Y-142642256D02*
X227362744Y-142689875D01*
X227362744Y-142689875D02*
X227600839Y-142689875D01*
X227600839Y-142689875D02*
X227696077Y-142642256D01*
X227696077Y-142642256D02*
X227743696Y-142547017D01*
X227743696Y-142547017D02*
X227743696Y-142451779D01*
X227743696Y-142451779D02*
X227696077Y-142356541D01*
X227696077Y-142356541D02*
X227600839Y-142308922D01*
X227600839Y-142308922D02*
X227362744Y-142308922D01*
X227362744Y-142308922D02*
X227267506Y-142261303D01*
X226791315Y-142023208D02*
X226791315Y-143023208D01*
X226791315Y-142070827D02*
X226696077Y-142023208D01*
X226696077Y-142023208D02*
X226505601Y-142023208D01*
X226505601Y-142023208D02*
X226410363Y-142070827D01*
X226410363Y-142070827D02*
X226362744Y-142118446D01*
X226362744Y-142118446D02*
X226315125Y-142213684D01*
X226315125Y-142213684D02*
X226315125Y-142499398D01*
X226315125Y-142499398D02*
X226362744Y-142594636D01*
X226362744Y-142594636D02*
X226410363Y-142642256D01*
X226410363Y-142642256D02*
X226505601Y-142689875D01*
X226505601Y-142689875D02*
X226696077Y-142689875D01*
X226696077Y-142689875D02*
X226791315Y-142642256D01*
X225457982Y-142689875D02*
X225457982Y-142166065D01*
X225457982Y-142166065D02*
X225505601Y-142070827D01*
X225505601Y-142070827D02*
X225600839Y-142023208D01*
X225600839Y-142023208D02*
X225791315Y-142023208D01*
X225791315Y-142023208D02*
X225886553Y-142070827D01*
X225457982Y-142642256D02*
X225553220Y-142689875D01*
X225553220Y-142689875D02*
X225791315Y-142689875D01*
X225791315Y-142689875D02*
X225886553Y-142642256D01*
X225886553Y-142642256D02*
X225934172Y-142547017D01*
X225934172Y-142547017D02*
X225934172Y-142451779D01*
X225934172Y-142451779D02*
X225886553Y-142356541D01*
X225886553Y-142356541D02*
X225791315Y-142308922D01*
X225791315Y-142308922D02*
X225553220Y-142308922D01*
X225553220Y-142308922D02*
X225457982Y-142261303D01*
X224553220Y-142642256D02*
X224648458Y-142689875D01*
X224648458Y-142689875D02*
X224838934Y-142689875D01*
X224838934Y-142689875D02*
X224934172Y-142642256D01*
X224934172Y-142642256D02*
X224981791Y-142594636D01*
X224981791Y-142594636D02*
X225029410Y-142499398D01*
X225029410Y-142499398D02*
X225029410Y-142213684D01*
X225029410Y-142213684D02*
X224981791Y-142118446D01*
X224981791Y-142118446D02*
X224934172Y-142070827D01*
X224934172Y-142070827D02*
X224838934Y-142023208D01*
X224838934Y-142023208D02*
X224648458Y-142023208D01*
X224648458Y-142023208D02*
X224553220Y-142070827D01*
X224124648Y-142689875D02*
X224124648Y-142023208D01*
X224124648Y-141689875D02*
X224172267Y-141737494D01*
X224172267Y-141737494D02*
X224124648Y-141785113D01*
X224124648Y-141785113D02*
X224077029Y-141737494D01*
X224077029Y-141737494D02*
X224124648Y-141689875D01*
X224124648Y-141689875D02*
X224124648Y-141785113D01*
X223791315Y-142023208D02*
X223410363Y-142023208D01*
X223648458Y-141689875D02*
X223648458Y-142547017D01*
X223648458Y-142547017D02*
X223600839Y-142642256D01*
X223600839Y-142642256D02*
X223505601Y-142689875D01*
X223505601Y-142689875D02*
X223410363Y-142689875D01*
X222934172Y-142689875D02*
X223029410Y-142642256D01*
X223029410Y-142642256D02*
X223077029Y-142594636D01*
X223077029Y-142594636D02*
X223124648Y-142499398D01*
X223124648Y-142499398D02*
X223124648Y-142213684D01*
X223124648Y-142213684D02*
X223077029Y-142118446D01*
X223077029Y-142118446D02*
X223029410Y-142070827D01*
X223029410Y-142070827D02*
X222934172Y-142023208D01*
X222934172Y-142023208D02*
X222791315Y-142023208D01*
X222791315Y-142023208D02*
X222696077Y-142070827D01*
X222696077Y-142070827D02*
X222648458Y-142118446D01*
X222648458Y-142118446D02*
X222600839Y-142213684D01*
X222600839Y-142213684D02*
X222600839Y-142499398D01*
X222600839Y-142499398D02*
X222648458Y-142594636D01*
X222648458Y-142594636D02*
X222696077Y-142642256D01*
X222696077Y-142642256D02*
X222791315Y-142689875D01*
X222791315Y-142689875D02*
X222934172Y-142689875D01*
X222172267Y-142689875D02*
X222172267Y-142023208D01*
X222172267Y-142213684D02*
X222124648Y-142118446D01*
X222124648Y-142118446D02*
X222077029Y-142070827D01*
X222077029Y-142070827D02*
X221981791Y-142023208D01*
X221981791Y-142023208D02*
X221886553Y-142023208D01*
X221600838Y-142642256D02*
X221505600Y-142689875D01*
X221505600Y-142689875D02*
X221315124Y-142689875D01*
X221315124Y-142689875D02*
X221219886Y-142642256D01*
X221219886Y-142642256D02*
X221172267Y-142547017D01*
X221172267Y-142547017D02*
X221172267Y-142499398D01*
X221172267Y-142499398D02*
X221219886Y-142404160D01*
X221219886Y-142404160D02*
X221315124Y-142356541D01*
X221315124Y-142356541D02*
X221457981Y-142356541D01*
X221457981Y-142356541D02*
X221553219Y-142308922D01*
X221553219Y-142308922D02*
X221600838Y-142213684D01*
X221600838Y-142213684D02*
X221600838Y-142166065D01*
X221600838Y-142166065D02*
X221553219Y-142070827D01*
X221553219Y-142070827D02*
X221457981Y-142023208D01*
X221457981Y-142023208D02*
X221315124Y-142023208D01*
X221315124Y-142023208D02*
X221219886Y-142070827D01*
X219791314Y-141689875D02*
X219696076Y-141689875D01*
X219696076Y-141689875D02*
X219600838Y-141737494D01*
X219600838Y-141737494D02*
X219553219Y-141785113D01*
X219553219Y-141785113D02*
X219505600Y-141880351D01*
X219505600Y-141880351D02*
X219457981Y-142070827D01*
X219457981Y-142070827D02*
X219457981Y-142308922D01*
X219457981Y-142308922D02*
X219505600Y-142499398D01*
X219505600Y-142499398D02*
X219553219Y-142594636D01*
X219553219Y-142594636D02*
X219600838Y-142642256D01*
X219600838Y-142642256D02*
X219696076Y-142689875D01*
X219696076Y-142689875D02*
X219791314Y-142689875D01*
X219791314Y-142689875D02*
X219886552Y-142642256D01*
X219886552Y-142642256D02*
X219934171Y-142594636D01*
X219934171Y-142594636D02*
X219981790Y-142499398D01*
X219981790Y-142499398D02*
X220029409Y-142308922D01*
X220029409Y-142308922D02*
X220029409Y-142070827D01*
X220029409Y-142070827D02*
X219981790Y-141880351D01*
X219981790Y-141880351D02*
X219934171Y-141785113D01*
X219934171Y-141785113D02*
X219886552Y-141737494D01*
X219886552Y-141737494D02*
X219791314Y-141689875D01*
X218886552Y-142118446D02*
X218981790Y-142070827D01*
X218981790Y-142070827D02*
X219029409Y-142023208D01*
X219029409Y-142023208D02*
X219077028Y-141927970D01*
X219077028Y-141927970D02*
X219077028Y-141880351D01*
X219077028Y-141880351D02*
X219029409Y-141785113D01*
X219029409Y-141785113D02*
X218981790Y-141737494D01*
X218981790Y-141737494D02*
X218886552Y-141689875D01*
X218886552Y-141689875D02*
X218696076Y-141689875D01*
X218696076Y-141689875D02*
X218600838Y-141737494D01*
X218600838Y-141737494D02*
X218553219Y-141785113D01*
X218553219Y-141785113D02*
X218505600Y-141880351D01*
X218505600Y-141880351D02*
X218505600Y-141927970D01*
X218505600Y-141927970D02*
X218553219Y-142023208D01*
X218553219Y-142023208D02*
X218600838Y-142070827D01*
X218600838Y-142070827D02*
X218696076Y-142118446D01*
X218696076Y-142118446D02*
X218886552Y-142118446D01*
X218886552Y-142118446D02*
X218981790Y-142166065D01*
X218981790Y-142166065D02*
X219029409Y-142213684D01*
X219029409Y-142213684D02*
X219077028Y-142308922D01*
X219077028Y-142308922D02*
X219077028Y-142499398D01*
X219077028Y-142499398D02*
X219029409Y-142594636D01*
X219029409Y-142594636D02*
X218981790Y-142642256D01*
X218981790Y-142642256D02*
X218886552Y-142689875D01*
X218886552Y-142689875D02*
X218696076Y-142689875D01*
X218696076Y-142689875D02*
X218600838Y-142642256D01*
X218600838Y-142642256D02*
X218553219Y-142594636D01*
X218553219Y-142594636D02*
X218505600Y-142499398D01*
X218505600Y-142499398D02*
X218505600Y-142308922D01*
X218505600Y-142308922D02*
X218553219Y-142213684D01*
X218553219Y-142213684D02*
X218600838Y-142166065D01*
X218600838Y-142166065D02*
X218696076Y-142118446D01*
X217886552Y-141689875D02*
X217791314Y-141689875D01*
X217791314Y-141689875D02*
X217696076Y-141737494D01*
X217696076Y-141737494D02*
X217648457Y-141785113D01*
X217648457Y-141785113D02*
X217600838Y-141880351D01*
X217600838Y-141880351D02*
X217553219Y-142070827D01*
X217553219Y-142070827D02*
X217553219Y-142308922D01*
X217553219Y-142308922D02*
X217600838Y-142499398D01*
X217600838Y-142499398D02*
X217648457Y-142594636D01*
X217648457Y-142594636D02*
X217696076Y-142642256D01*
X217696076Y-142642256D02*
X217791314Y-142689875D01*
X217791314Y-142689875D02*
X217886552Y-142689875D01*
X217886552Y-142689875D02*
X217981790Y-142642256D01*
X217981790Y-142642256D02*
X218029409Y-142594636D01*
X218029409Y-142594636D02*
X218077028Y-142499398D01*
X218077028Y-142499398D02*
X218124647Y-142308922D01*
X218124647Y-142308922D02*
X218124647Y-142070827D01*
X218124647Y-142070827D02*
X218077028Y-141880351D01*
X218077028Y-141880351D02*
X218029409Y-141785113D01*
X218029409Y-141785113D02*
X217981790Y-141737494D01*
X217981790Y-141737494D02*
X217886552Y-141689875D01*
X216648457Y-141689875D02*
X217124647Y-141689875D01*
X217124647Y-141689875D02*
X217172266Y-142166065D01*
X217172266Y-142166065D02*
X217124647Y-142118446D01*
X217124647Y-142118446D02*
X217029409Y-142070827D01*
X217029409Y-142070827D02*
X216791314Y-142070827D01*
X216791314Y-142070827D02*
X216696076Y-142118446D01*
X216696076Y-142118446D02*
X216648457Y-142166065D01*
X216648457Y-142166065D02*
X216600838Y-142261303D01*
X216600838Y-142261303D02*
X216600838Y-142499398D01*
X216600838Y-142499398D02*
X216648457Y-142594636D01*
X216648457Y-142594636D02*
X216696076Y-142642256D01*
X216696076Y-142642256D02*
X216791314Y-142689875D01*
X216791314Y-142689875D02*
X217029409Y-142689875D01*
X217029409Y-142689875D02*
X217124647Y-142642256D01*
X217124647Y-142642256D02*
X217172266Y-142594636D01*
X228600839Y-144014104D02*
X228124649Y-144014104D01*
X228696077Y-144299819D02*
X228362744Y-143299819D01*
X228362744Y-143299819D02*
X228029411Y-144299819D01*
X227553220Y-144299819D02*
X227648458Y-144252200D01*
X227648458Y-144252200D02*
X227696077Y-144156961D01*
X227696077Y-144156961D02*
X227696077Y-143299819D01*
X227029410Y-144299819D02*
X227124648Y-144252200D01*
X227124648Y-144252200D02*
X227172267Y-144156961D01*
X227172267Y-144156961D02*
X227172267Y-143299819D01*
X225457981Y-144252200D02*
X225553219Y-144299819D01*
X225553219Y-144299819D02*
X225743695Y-144299819D01*
X225743695Y-144299819D02*
X225838933Y-144252200D01*
X225838933Y-144252200D02*
X225886552Y-144204580D01*
X225886552Y-144204580D02*
X225934171Y-144109342D01*
X225934171Y-144109342D02*
X225934171Y-143823628D01*
X225934171Y-143823628D02*
X225886552Y-143728390D01*
X225886552Y-143728390D02*
X225838933Y-143680771D01*
X225838933Y-143680771D02*
X225743695Y-143633152D01*
X225743695Y-143633152D02*
X225553219Y-143633152D01*
X225553219Y-143633152D02*
X225457981Y-143680771D01*
X224600838Y-144299819D02*
X224600838Y-143776009D01*
X224600838Y-143776009D02*
X224648457Y-143680771D01*
X224648457Y-143680771D02*
X224743695Y-143633152D01*
X224743695Y-143633152D02*
X224934171Y-143633152D01*
X224934171Y-143633152D02*
X225029409Y-143680771D01*
X224600838Y-144252200D02*
X224696076Y-144299819D01*
X224696076Y-144299819D02*
X224934171Y-144299819D01*
X224934171Y-144299819D02*
X225029409Y-144252200D01*
X225029409Y-144252200D02*
X225077028Y-144156961D01*
X225077028Y-144156961D02*
X225077028Y-144061723D01*
X225077028Y-144061723D02*
X225029409Y-143966485D01*
X225029409Y-143966485D02*
X224934171Y-143918866D01*
X224934171Y-143918866D02*
X224696076Y-143918866D01*
X224696076Y-143918866D02*
X224600838Y-143871247D01*
X224124647Y-143633152D02*
X224124647Y-144633152D01*
X224124647Y-143680771D02*
X224029409Y-143633152D01*
X224029409Y-143633152D02*
X223838933Y-143633152D01*
X223838933Y-143633152D02*
X223743695Y-143680771D01*
X223743695Y-143680771D02*
X223696076Y-143728390D01*
X223696076Y-143728390D02*
X223648457Y-143823628D01*
X223648457Y-143823628D02*
X223648457Y-144109342D01*
X223648457Y-144109342D02*
X223696076Y-144204580D01*
X223696076Y-144204580D02*
X223743695Y-144252200D01*
X223743695Y-144252200D02*
X223838933Y-144299819D01*
X223838933Y-144299819D02*
X224029409Y-144299819D01*
X224029409Y-144299819D02*
X224124647Y-144252200D01*
X222791314Y-144299819D02*
X222791314Y-143776009D01*
X222791314Y-143776009D02*
X222838933Y-143680771D01*
X222838933Y-143680771D02*
X222934171Y-143633152D01*
X222934171Y-143633152D02*
X223124647Y-143633152D01*
X223124647Y-143633152D02*
X223219885Y-143680771D01*
X222791314Y-144252200D02*
X222886552Y-144299819D01*
X222886552Y-144299819D02*
X223124647Y-144299819D01*
X223124647Y-144299819D02*
X223219885Y-144252200D01*
X223219885Y-144252200D02*
X223267504Y-144156961D01*
X223267504Y-144156961D02*
X223267504Y-144061723D01*
X223267504Y-144061723D02*
X223219885Y-143966485D01*
X223219885Y-143966485D02*
X223124647Y-143918866D01*
X223124647Y-143918866D02*
X222886552Y-143918866D01*
X222886552Y-143918866D02*
X222791314Y-143871247D01*
X221886552Y-144252200D02*
X221981790Y-144299819D01*
X221981790Y-144299819D02*
X222172266Y-144299819D01*
X222172266Y-144299819D02*
X222267504Y-144252200D01*
X222267504Y-144252200D02*
X222315123Y-144204580D01*
X222315123Y-144204580D02*
X222362742Y-144109342D01*
X222362742Y-144109342D02*
X222362742Y-143823628D01*
X222362742Y-143823628D02*
X222315123Y-143728390D01*
X222315123Y-143728390D02*
X222267504Y-143680771D01*
X222267504Y-143680771D02*
X222172266Y-143633152D01*
X222172266Y-143633152D02*
X221981790Y-143633152D01*
X221981790Y-143633152D02*
X221886552Y-143680771D01*
X221457980Y-144299819D02*
X221457980Y-143633152D01*
X221457980Y-143299819D02*
X221505599Y-143347438D01*
X221505599Y-143347438D02*
X221457980Y-143395057D01*
X221457980Y-143395057D02*
X221410361Y-143347438D01*
X221410361Y-143347438D02*
X221457980Y-143299819D01*
X221457980Y-143299819D02*
X221457980Y-143395057D01*
X221124647Y-143633152D02*
X220743695Y-143633152D01*
X220981790Y-143299819D02*
X220981790Y-144156961D01*
X220981790Y-144156961D02*
X220934171Y-144252200D01*
X220934171Y-144252200D02*
X220838933Y-144299819D01*
X220838933Y-144299819D02*
X220743695Y-144299819D01*
X220267504Y-144299819D02*
X220362742Y-144252200D01*
X220362742Y-144252200D02*
X220410361Y-144204580D01*
X220410361Y-144204580D02*
X220457980Y-144109342D01*
X220457980Y-144109342D02*
X220457980Y-143823628D01*
X220457980Y-143823628D02*
X220410361Y-143728390D01*
X220410361Y-143728390D02*
X220362742Y-143680771D01*
X220362742Y-143680771D02*
X220267504Y-143633152D01*
X220267504Y-143633152D02*
X220124647Y-143633152D01*
X220124647Y-143633152D02*
X220029409Y-143680771D01*
X220029409Y-143680771D02*
X219981790Y-143728390D01*
X219981790Y-143728390D02*
X219934171Y-143823628D01*
X219934171Y-143823628D02*
X219934171Y-144109342D01*
X219934171Y-144109342D02*
X219981790Y-144204580D01*
X219981790Y-144204580D02*
X220029409Y-144252200D01*
X220029409Y-144252200D02*
X220124647Y-144299819D01*
X220124647Y-144299819D02*
X220267504Y-144299819D01*
X219505599Y-144299819D02*
X219505599Y-143633152D01*
X219505599Y-143823628D02*
X219457980Y-143728390D01*
X219457980Y-143728390D02*
X219410361Y-143680771D01*
X219410361Y-143680771D02*
X219315123Y-143633152D01*
X219315123Y-143633152D02*
X219219885Y-143633152D01*
X218934170Y-144252200D02*
X218838932Y-144299819D01*
X218838932Y-144299819D02*
X218648456Y-144299819D01*
X218648456Y-144299819D02*
X218553218Y-144252200D01*
X218553218Y-144252200D02*
X218505599Y-144156961D01*
X218505599Y-144156961D02*
X218505599Y-144109342D01*
X218505599Y-144109342D02*
X218553218Y-144014104D01*
X218553218Y-144014104D02*
X218648456Y-143966485D01*
X218648456Y-143966485D02*
X218791313Y-143966485D01*
X218791313Y-143966485D02*
X218886551Y-143918866D01*
X218886551Y-143918866D02*
X218934170Y-143823628D01*
X218934170Y-143823628D02*
X218934170Y-143776009D01*
X218934170Y-143776009D02*
X218886551Y-143680771D01*
X218886551Y-143680771D02*
X218791313Y-143633152D01*
X218791313Y-143633152D02*
X218648456Y-143633152D01*
X218648456Y-143633152D02*
X218553218Y-143680771D01*
X217315122Y-143633152D02*
X217315122Y-144299819D01*
X217315122Y-143728390D02*
X217267503Y-143680771D01*
X217267503Y-143680771D02*
X217172265Y-143633152D01*
X217172265Y-143633152D02*
X217029408Y-143633152D01*
X217029408Y-143633152D02*
X216934170Y-143680771D01*
X216934170Y-143680771D02*
X216886551Y-143776009D01*
X216886551Y-143776009D02*
X216886551Y-144299819D01*
X216267503Y-144299819D02*
X216362741Y-144252200D01*
X216362741Y-144252200D02*
X216410360Y-144204580D01*
X216410360Y-144204580D02*
X216457979Y-144109342D01*
X216457979Y-144109342D02*
X216457979Y-143823628D01*
X216457979Y-143823628D02*
X216410360Y-143728390D01*
X216410360Y-143728390D02*
X216362741Y-143680771D01*
X216362741Y-143680771D02*
X216267503Y-143633152D01*
X216267503Y-143633152D02*
X216124646Y-143633152D01*
X216124646Y-143633152D02*
X216029408Y-143680771D01*
X216029408Y-143680771D02*
X215981789Y-143728390D01*
X215981789Y-143728390D02*
X215934170Y-143823628D01*
X215934170Y-143823628D02*
X215934170Y-144109342D01*
X215934170Y-144109342D02*
X215981789Y-144204580D01*
X215981789Y-144204580D02*
X216029408Y-144252200D01*
X216029408Y-144252200D02*
X216124646Y-144299819D01*
X216124646Y-144299819D02*
X216267503Y-144299819D01*
X215648455Y-143633152D02*
X215267503Y-143633152D01*
X215505598Y-143299819D02*
X215505598Y-144156961D01*
X215505598Y-144156961D02*
X215457979Y-144252200D01*
X215457979Y-144252200D02*
X215362741Y-144299819D01*
X215362741Y-144299819D02*
X215267503Y-144299819D01*
X213791312Y-144252200D02*
X213886550Y-144299819D01*
X213886550Y-144299819D02*
X214077026Y-144299819D01*
X214077026Y-144299819D02*
X214172264Y-144252200D01*
X214172264Y-144252200D02*
X214219883Y-144156961D01*
X214219883Y-144156961D02*
X214219883Y-143776009D01*
X214219883Y-143776009D02*
X214172264Y-143680771D01*
X214172264Y-143680771D02*
X214077026Y-143633152D01*
X214077026Y-143633152D02*
X213886550Y-143633152D01*
X213886550Y-143633152D02*
X213791312Y-143680771D01*
X213791312Y-143680771D02*
X213743693Y-143776009D01*
X213743693Y-143776009D02*
X213743693Y-143871247D01*
X213743693Y-143871247D02*
X214219883Y-143966485D01*
X213410359Y-144299819D02*
X212886550Y-143633152D01*
X213410359Y-143633152D02*
X212886550Y-144299819D01*
X212505597Y-143633152D02*
X212505597Y-144633152D01*
X212505597Y-143680771D02*
X212410359Y-143633152D01*
X212410359Y-143633152D02*
X212219883Y-143633152D01*
X212219883Y-143633152D02*
X212124645Y-143680771D01*
X212124645Y-143680771D02*
X212077026Y-143728390D01*
X212077026Y-143728390D02*
X212029407Y-143823628D01*
X212029407Y-143823628D02*
X212029407Y-144109342D01*
X212029407Y-144109342D02*
X212077026Y-144204580D01*
X212077026Y-144204580D02*
X212124645Y-144252200D01*
X212124645Y-144252200D02*
X212219883Y-144299819D01*
X212219883Y-144299819D02*
X212410359Y-144299819D01*
X212410359Y-144299819D02*
X212505597Y-144252200D01*
X211457978Y-144299819D02*
X211553216Y-144252200D01*
X211553216Y-144252200D02*
X211600835Y-144156961D01*
X211600835Y-144156961D02*
X211600835Y-143299819D01*
X211077025Y-144299819D02*
X211077025Y-143633152D01*
X211077025Y-143299819D02*
X211124644Y-143347438D01*
X211124644Y-143347438D02*
X211077025Y-143395057D01*
X211077025Y-143395057D02*
X211029406Y-143347438D01*
X211029406Y-143347438D02*
X211077025Y-143299819D01*
X211077025Y-143299819D02*
X211077025Y-143395057D01*
X210172264Y-144252200D02*
X210267502Y-144299819D01*
X210267502Y-144299819D02*
X210457978Y-144299819D01*
X210457978Y-144299819D02*
X210553216Y-144252200D01*
X210553216Y-144252200D02*
X210600835Y-144204580D01*
X210600835Y-144204580D02*
X210648454Y-144109342D01*
X210648454Y-144109342D02*
X210648454Y-143823628D01*
X210648454Y-143823628D02*
X210600835Y-143728390D01*
X210600835Y-143728390D02*
X210553216Y-143680771D01*
X210553216Y-143680771D02*
X210457978Y-143633152D01*
X210457978Y-143633152D02*
X210267502Y-143633152D01*
X210267502Y-143633152D02*
X210172264Y-143680771D01*
X209315121Y-144299819D02*
X209315121Y-143776009D01*
X209315121Y-143776009D02*
X209362740Y-143680771D01*
X209362740Y-143680771D02*
X209457978Y-143633152D01*
X209457978Y-143633152D02*
X209648454Y-143633152D01*
X209648454Y-143633152D02*
X209743692Y-143680771D01*
X209315121Y-144252200D02*
X209410359Y-144299819D01*
X209410359Y-144299819D02*
X209648454Y-144299819D01*
X209648454Y-144299819D02*
X209743692Y-144252200D01*
X209743692Y-144252200D02*
X209791311Y-144156961D01*
X209791311Y-144156961D02*
X209791311Y-144061723D01*
X209791311Y-144061723D02*
X209743692Y-143966485D01*
X209743692Y-143966485D02*
X209648454Y-143918866D01*
X209648454Y-143918866D02*
X209410359Y-143918866D01*
X209410359Y-143918866D02*
X209315121Y-143871247D01*
X208981787Y-143633152D02*
X208600835Y-143633152D01*
X208838930Y-143299819D02*
X208838930Y-144156961D01*
X208838930Y-144156961D02*
X208791311Y-144252200D01*
X208791311Y-144252200D02*
X208696073Y-144299819D01*
X208696073Y-144299819D02*
X208600835Y-144299819D01*
X207886549Y-144252200D02*
X207981787Y-144299819D01*
X207981787Y-144299819D02*
X208172263Y-144299819D01*
X208172263Y-144299819D02*
X208267501Y-144252200D01*
X208267501Y-144252200D02*
X208315120Y-144156961D01*
X208315120Y-144156961D02*
X208315120Y-143776009D01*
X208315120Y-143776009D02*
X208267501Y-143680771D01*
X208267501Y-143680771D02*
X208172263Y-143633152D01*
X208172263Y-143633152D02*
X207981787Y-143633152D01*
X207981787Y-143633152D02*
X207886549Y-143680771D01*
X207886549Y-143680771D02*
X207838930Y-143776009D01*
X207838930Y-143776009D02*
X207838930Y-143871247D01*
X207838930Y-143871247D02*
X208315120Y-143966485D01*
X206981787Y-144299819D02*
X206981787Y-143299819D01*
X206981787Y-144252200D02*
X207077025Y-144299819D01*
X207077025Y-144299819D02*
X207267501Y-144299819D01*
X207267501Y-144299819D02*
X207362739Y-144252200D01*
X207362739Y-144252200D02*
X207410358Y-144204580D01*
X207410358Y-144204580D02*
X207457977Y-144109342D01*
X207457977Y-144109342D02*
X207457977Y-143823628D01*
X207457977Y-143823628D02*
X207410358Y-143728390D01*
X207410358Y-143728390D02*
X207362739Y-143680771D01*
X207362739Y-143680771D02*
X207267501Y-143633152D01*
X207267501Y-143633152D02*
X207077025Y-143633152D01*
X207077025Y-143633152D02*
X206981787Y-143680771D01*
X205315120Y-144299819D02*
X205315120Y-143776009D01*
X205315120Y-143776009D02*
X205362739Y-143680771D01*
X205362739Y-143680771D02*
X205457977Y-143633152D01*
X205457977Y-143633152D02*
X205648453Y-143633152D01*
X205648453Y-143633152D02*
X205743691Y-143680771D01*
X205315120Y-144252200D02*
X205410358Y-144299819D01*
X205410358Y-144299819D02*
X205648453Y-144299819D01*
X205648453Y-144299819D02*
X205743691Y-144252200D01*
X205743691Y-144252200D02*
X205791310Y-144156961D01*
X205791310Y-144156961D02*
X205791310Y-144061723D01*
X205791310Y-144061723D02*
X205743691Y-143966485D01*
X205743691Y-143966485D02*
X205648453Y-143918866D01*
X205648453Y-143918866D02*
X205410358Y-143918866D01*
X205410358Y-143918866D02*
X205315120Y-143871247D01*
X204838929Y-144299819D02*
X204838929Y-143633152D01*
X204838929Y-143823628D02*
X204791310Y-143728390D01*
X204791310Y-143728390D02*
X204743691Y-143680771D01*
X204743691Y-143680771D02*
X204648453Y-143633152D01*
X204648453Y-143633152D02*
X204553215Y-143633152D01*
X203838929Y-144252200D02*
X203934167Y-144299819D01*
X203934167Y-144299819D02*
X204124643Y-144299819D01*
X204124643Y-144299819D02*
X204219881Y-144252200D01*
X204219881Y-144252200D02*
X204267500Y-144156961D01*
X204267500Y-144156961D02*
X204267500Y-143776009D01*
X204267500Y-143776009D02*
X204219881Y-143680771D01*
X204219881Y-143680771D02*
X204124643Y-143633152D01*
X204124643Y-143633152D02*
X203934167Y-143633152D01*
X203934167Y-143633152D02*
X203838929Y-143680771D01*
X203838929Y-143680771D02*
X203791310Y-143776009D01*
X203791310Y-143776009D02*
X203791310Y-143871247D01*
X203791310Y-143871247D02*
X204267500Y-143966485D01*
X202410357Y-143299819D02*
X202315119Y-143299819D01*
X202315119Y-143299819D02*
X202219881Y-143347438D01*
X202219881Y-143347438D02*
X202172262Y-143395057D01*
X202172262Y-143395057D02*
X202124643Y-143490295D01*
X202124643Y-143490295D02*
X202077024Y-143680771D01*
X202077024Y-143680771D02*
X202077024Y-143918866D01*
X202077024Y-143918866D02*
X202124643Y-144109342D01*
X202124643Y-144109342D02*
X202172262Y-144204580D01*
X202172262Y-144204580D02*
X202219881Y-144252200D01*
X202219881Y-144252200D02*
X202315119Y-144299819D01*
X202315119Y-144299819D02*
X202410357Y-144299819D01*
X202410357Y-144299819D02*
X202505595Y-144252200D01*
X202505595Y-144252200D02*
X202553214Y-144204580D01*
X202553214Y-144204580D02*
X202600833Y-144109342D01*
X202600833Y-144109342D02*
X202648452Y-143918866D01*
X202648452Y-143918866D02*
X202648452Y-143680771D01*
X202648452Y-143680771D02*
X202600833Y-143490295D01*
X202600833Y-143490295D02*
X202553214Y-143395057D01*
X202553214Y-143395057D02*
X202505595Y-143347438D01*
X202505595Y-143347438D02*
X202410357Y-143299819D01*
X201648452Y-144204580D02*
X201600833Y-144252200D01*
X201600833Y-144252200D02*
X201648452Y-144299819D01*
X201648452Y-144299819D02*
X201696071Y-144252200D01*
X201696071Y-144252200D02*
X201648452Y-144204580D01*
X201648452Y-144204580D02*
X201648452Y-144299819D01*
X200648453Y-144299819D02*
X201219881Y-144299819D01*
X200934167Y-144299819D02*
X200934167Y-143299819D01*
X200934167Y-143299819D02*
X201029405Y-143442676D01*
X201029405Y-143442676D02*
X201124643Y-143537914D01*
X201124643Y-143537914D02*
X201219881Y-143585533D01*
X200219881Y-143633152D02*
X200219881Y-144633152D01*
X199743691Y-144156961D02*
X199696072Y-144252200D01*
X199696072Y-144252200D02*
X199600834Y-144299819D01*
X200219881Y-144156961D02*
X200172262Y-144252200D01*
X200172262Y-144252200D02*
X200077024Y-144299819D01*
X200077024Y-144299819D02*
X199886548Y-144299819D01*
X199886548Y-144299819D02*
X199791310Y-144252200D01*
X199791310Y-144252200D02*
X199743691Y-144156961D01*
X199743691Y-144156961D02*
X199743691Y-143633152D01*
X157889411Y-51799819D02*
X158460839Y-51799819D01*
X158175125Y-51799819D02*
X158175125Y-50799819D01*
X158175125Y-50799819D02*
X158270363Y-50942676D01*
X158270363Y-50942676D02*
X158365601Y-51037914D01*
X158365601Y-51037914D02*
X158460839Y-51085533D01*
X157270363Y-50799819D02*
X157175125Y-50799819D01*
X157175125Y-50799819D02*
X157079887Y-50847438D01*
X157079887Y-50847438D02*
X157032268Y-50895057D01*
X157032268Y-50895057D02*
X156984649Y-50990295D01*
X156984649Y-50990295D02*
X156937030Y-51180771D01*
X156937030Y-51180771D02*
X156937030Y-51418866D01*
X156937030Y-51418866D02*
X156984649Y-51609342D01*
X156984649Y-51609342D02*
X157032268Y-51704580D01*
X157032268Y-51704580D02*
X157079887Y-51752200D01*
X157079887Y-51752200D02*
X157175125Y-51799819D01*
X157175125Y-51799819D02*
X157270363Y-51799819D01*
X157270363Y-51799819D02*
X157365601Y-51752200D01*
X157365601Y-51752200D02*
X157413220Y-51704580D01*
X157413220Y-51704580D02*
X157460839Y-51609342D01*
X157460839Y-51609342D02*
X157508458Y-51418866D01*
X157508458Y-51418866D02*
X157508458Y-51180771D01*
X157508458Y-51180771D02*
X157460839Y-50990295D01*
X157460839Y-50990295D02*
X157413220Y-50895057D01*
X157413220Y-50895057D02*
X157365601Y-50847438D01*
X157365601Y-50847438D02*
X157270363Y-50799819D01*
X156317982Y-50799819D02*
X156222744Y-50799819D01*
X156222744Y-50799819D02*
X156127506Y-50847438D01*
X156127506Y-50847438D02*
X156079887Y-50895057D01*
X156079887Y-50895057D02*
X156032268Y-50990295D01*
X156032268Y-50990295D02*
X155984649Y-51180771D01*
X155984649Y-51180771D02*
X155984649Y-51418866D01*
X155984649Y-51418866D02*
X156032268Y-51609342D01*
X156032268Y-51609342D02*
X156079887Y-51704580D01*
X156079887Y-51704580D02*
X156127506Y-51752200D01*
X156127506Y-51752200D02*
X156222744Y-51799819D01*
X156222744Y-51799819D02*
X156317982Y-51799819D01*
X156317982Y-51799819D02*
X156413220Y-51752200D01*
X156413220Y-51752200D02*
X156460839Y-51704580D01*
X156460839Y-51704580D02*
X156508458Y-51609342D01*
X156508458Y-51609342D02*
X156556077Y-51418866D01*
X156556077Y-51418866D02*
X156556077Y-51180771D01*
X156556077Y-51180771D02*
X156508458Y-50990295D01*
X156508458Y-50990295D02*
X156460839Y-50895057D01*
X156460839Y-50895057D02*
X156413220Y-50847438D01*
X156413220Y-50847438D02*
X156317982Y-50799819D01*
X155556077Y-51799819D02*
X155556077Y-50799819D01*
X155460839Y-51418866D02*
X155175125Y-51799819D01*
X155175125Y-51133152D02*
X155556077Y-51514104D01*
X95039104Y-103910714D02*
X95039104Y-104386904D01*
X95324819Y-103815476D02*
X94324819Y-104148809D01*
X94324819Y-104148809D02*
X95324819Y-104482142D01*
X94801009Y-105148809D02*
X94848628Y-105291666D01*
X94848628Y-105291666D02*
X94896247Y-105339285D01*
X94896247Y-105339285D02*
X94991485Y-105386904D01*
X94991485Y-105386904D02*
X95134342Y-105386904D01*
X95134342Y-105386904D02*
X95229580Y-105339285D01*
X95229580Y-105339285D02*
X95277200Y-105291666D01*
X95277200Y-105291666D02*
X95324819Y-105196428D01*
X95324819Y-105196428D02*
X95324819Y-104815476D01*
X95324819Y-104815476D02*
X94324819Y-104815476D01*
X94324819Y-104815476D02*
X94324819Y-105148809D01*
X94324819Y-105148809D02*
X94372438Y-105244047D01*
X94372438Y-105244047D02*
X94420057Y-105291666D01*
X94420057Y-105291666D02*
X94515295Y-105339285D01*
X94515295Y-105339285D02*
X94610533Y-105339285D01*
X94610533Y-105339285D02*
X94705771Y-105291666D01*
X94705771Y-105291666D02*
X94753390Y-105244047D01*
X94753390Y-105244047D02*
X94801009Y-105148809D01*
X94801009Y-105148809D02*
X94801009Y-104815476D01*
X95324819Y-106339285D02*
X95324819Y-105767857D01*
X95324819Y-106053571D02*
X94324819Y-106053571D01*
X94324819Y-106053571D02*
X94467676Y-105958333D01*
X94467676Y-105958333D02*
X94562914Y-105863095D01*
X94562914Y-105863095D02*
X94610533Y-105767857D01*
X181104762Y-73944819D02*
X181104762Y-72944819D01*
X181104762Y-72944819D02*
X180771429Y-73659104D01*
X180771429Y-73659104D02*
X180438096Y-72944819D01*
X180438096Y-72944819D02*
X180438096Y-73944819D01*
X179961905Y-73944819D02*
X179961905Y-73278152D01*
X179961905Y-72944819D02*
X180009524Y-72992438D01*
X180009524Y-72992438D02*
X179961905Y-73040057D01*
X179961905Y-73040057D02*
X179914286Y-72992438D01*
X179914286Y-72992438D02*
X179961905Y-72944819D01*
X179961905Y-72944819D02*
X179961905Y-73040057D01*
X179057144Y-73897200D02*
X179152382Y-73944819D01*
X179152382Y-73944819D02*
X179342858Y-73944819D01*
X179342858Y-73944819D02*
X179438096Y-73897200D01*
X179438096Y-73897200D02*
X179485715Y-73849580D01*
X179485715Y-73849580D02*
X179533334Y-73754342D01*
X179533334Y-73754342D02*
X179533334Y-73468628D01*
X179533334Y-73468628D02*
X179485715Y-73373390D01*
X179485715Y-73373390D02*
X179438096Y-73325771D01*
X179438096Y-73325771D02*
X179342858Y-73278152D01*
X179342858Y-73278152D02*
X179152382Y-73278152D01*
X179152382Y-73278152D02*
X179057144Y-73325771D01*
X178628572Y-73944819D02*
X178628572Y-73278152D01*
X178628572Y-73468628D02*
X178580953Y-73373390D01*
X178580953Y-73373390D02*
X178533334Y-73325771D01*
X178533334Y-73325771D02*
X178438096Y-73278152D01*
X178438096Y-73278152D02*
X178342858Y-73278152D01*
X177866667Y-73944819D02*
X177961905Y-73897200D01*
X177961905Y-73897200D02*
X178009524Y-73849580D01*
X178009524Y-73849580D02*
X178057143Y-73754342D01*
X178057143Y-73754342D02*
X178057143Y-73468628D01*
X178057143Y-73468628D02*
X178009524Y-73373390D01*
X178009524Y-73373390D02*
X177961905Y-73325771D01*
X177961905Y-73325771D02*
X177866667Y-73278152D01*
X177866667Y-73278152D02*
X177723810Y-73278152D01*
X177723810Y-73278152D02*
X177628572Y-73325771D01*
X177628572Y-73325771D02*
X177580953Y-73373390D01*
X177580953Y-73373390D02*
X177533334Y-73468628D01*
X177533334Y-73468628D02*
X177533334Y-73754342D01*
X177533334Y-73754342D02*
X177580953Y-73849580D01*
X177580953Y-73849580D02*
X177628572Y-73897200D01*
X177628572Y-73897200D02*
X177723810Y-73944819D01*
X177723810Y-73944819D02*
X177866667Y-73944819D01*
X176676191Y-73897200D02*
X176771429Y-73944819D01*
X176771429Y-73944819D02*
X176961905Y-73944819D01*
X176961905Y-73944819D02*
X177057143Y-73897200D01*
X177057143Y-73897200D02*
X177104762Y-73849580D01*
X177104762Y-73849580D02*
X177152381Y-73754342D01*
X177152381Y-73754342D02*
X177152381Y-73468628D01*
X177152381Y-73468628D02*
X177104762Y-73373390D01*
X177104762Y-73373390D02*
X177057143Y-73325771D01*
X177057143Y-73325771D02*
X176961905Y-73278152D01*
X176961905Y-73278152D02*
X176771429Y-73278152D01*
X176771429Y-73278152D02*
X176676191Y-73325771D01*
X176104762Y-73944819D02*
X176200000Y-73897200D01*
X176200000Y-73897200D02*
X176247619Y-73849580D01*
X176247619Y-73849580D02*
X176295238Y-73754342D01*
X176295238Y-73754342D02*
X176295238Y-73468628D01*
X176295238Y-73468628D02*
X176247619Y-73373390D01*
X176247619Y-73373390D02*
X176200000Y-73325771D01*
X176200000Y-73325771D02*
X176104762Y-73278152D01*
X176104762Y-73278152D02*
X175961905Y-73278152D01*
X175961905Y-73278152D02*
X175866667Y-73325771D01*
X175866667Y-73325771D02*
X175819048Y-73373390D01*
X175819048Y-73373390D02*
X175771429Y-73468628D01*
X175771429Y-73468628D02*
X175771429Y-73754342D01*
X175771429Y-73754342D02*
X175819048Y-73849580D01*
X175819048Y-73849580D02*
X175866667Y-73897200D01*
X175866667Y-73897200D02*
X175961905Y-73944819D01*
X175961905Y-73944819D02*
X176104762Y-73944819D01*
X175342857Y-73278152D02*
X175342857Y-73944819D01*
X175342857Y-73373390D02*
X175295238Y-73325771D01*
X175295238Y-73325771D02*
X175200000Y-73278152D01*
X175200000Y-73278152D02*
X175057143Y-73278152D01*
X175057143Y-73278152D02*
X174961905Y-73325771D01*
X174961905Y-73325771D02*
X174914286Y-73421009D01*
X174914286Y-73421009D02*
X174914286Y-73944819D01*
X174580952Y-73278152D02*
X174200000Y-73278152D01*
X174438095Y-72944819D02*
X174438095Y-73801961D01*
X174438095Y-73801961D02*
X174390476Y-73897200D01*
X174390476Y-73897200D02*
X174295238Y-73944819D01*
X174295238Y-73944819D02*
X174200000Y-73944819D01*
X173866666Y-73944819D02*
X173866666Y-73278152D01*
X173866666Y-73468628D02*
X173819047Y-73373390D01*
X173819047Y-73373390D02*
X173771428Y-73325771D01*
X173771428Y-73325771D02*
X173676190Y-73278152D01*
X173676190Y-73278152D02*
X173580952Y-73278152D01*
X173104761Y-73944819D02*
X173199999Y-73897200D01*
X173199999Y-73897200D02*
X173247618Y-73849580D01*
X173247618Y-73849580D02*
X173295237Y-73754342D01*
X173295237Y-73754342D02*
X173295237Y-73468628D01*
X173295237Y-73468628D02*
X173247618Y-73373390D01*
X173247618Y-73373390D02*
X173199999Y-73325771D01*
X173199999Y-73325771D02*
X173104761Y-73278152D01*
X173104761Y-73278152D02*
X172961904Y-73278152D01*
X172961904Y-73278152D02*
X172866666Y-73325771D01*
X172866666Y-73325771D02*
X172819047Y-73373390D01*
X172819047Y-73373390D02*
X172771428Y-73468628D01*
X172771428Y-73468628D02*
X172771428Y-73754342D01*
X172771428Y-73754342D02*
X172819047Y-73849580D01*
X172819047Y-73849580D02*
X172866666Y-73897200D01*
X172866666Y-73897200D02*
X172961904Y-73944819D01*
X172961904Y-73944819D02*
X173104761Y-73944819D01*
X172199999Y-73944819D02*
X172295237Y-73897200D01*
X172295237Y-73897200D02*
X172342856Y-73801961D01*
X172342856Y-73801961D02*
X172342856Y-72944819D01*
X171676189Y-73944819D02*
X171771427Y-73897200D01*
X171771427Y-73897200D02*
X171819046Y-73801961D01*
X171819046Y-73801961D02*
X171819046Y-72944819D01*
X170914284Y-73897200D02*
X171009522Y-73944819D01*
X171009522Y-73944819D02*
X171199998Y-73944819D01*
X171199998Y-73944819D02*
X171295236Y-73897200D01*
X171295236Y-73897200D02*
X171342855Y-73801961D01*
X171342855Y-73801961D02*
X171342855Y-73421009D01*
X171342855Y-73421009D02*
X171295236Y-73325771D01*
X171295236Y-73325771D02*
X171199998Y-73278152D01*
X171199998Y-73278152D02*
X171009522Y-73278152D01*
X171009522Y-73278152D02*
X170914284Y-73325771D01*
X170914284Y-73325771D02*
X170866665Y-73421009D01*
X170866665Y-73421009D02*
X170866665Y-73516247D01*
X170866665Y-73516247D02*
X171342855Y-73611485D01*
X170438093Y-73944819D02*
X170438093Y-73278152D01*
X170438093Y-73468628D02*
X170390474Y-73373390D01*
X170390474Y-73373390D02*
X170342855Y-73325771D01*
X170342855Y-73325771D02*
X170247617Y-73278152D01*
X170247617Y-73278152D02*
X170152379Y-73278152D01*
X135425180Y-102228094D02*
X136425180Y-102228094D01*
X136425180Y-102228094D02*
X136425180Y-101989999D01*
X136425180Y-101989999D02*
X136377561Y-101847142D01*
X136377561Y-101847142D02*
X136282323Y-101751904D01*
X136282323Y-101751904D02*
X136187085Y-101704285D01*
X136187085Y-101704285D02*
X135996609Y-101656666D01*
X135996609Y-101656666D02*
X135853752Y-101656666D01*
X135853752Y-101656666D02*
X135663276Y-101704285D01*
X135663276Y-101704285D02*
X135568038Y-101751904D01*
X135568038Y-101751904D02*
X135472800Y-101847142D01*
X135472800Y-101847142D02*
X135425180Y-101989999D01*
X135425180Y-101989999D02*
X135425180Y-102228094D01*
X135948990Y-100894761D02*
X135901371Y-100751904D01*
X135901371Y-100751904D02*
X135853752Y-100704285D01*
X135853752Y-100704285D02*
X135758514Y-100656666D01*
X135758514Y-100656666D02*
X135615657Y-100656666D01*
X135615657Y-100656666D02*
X135520419Y-100704285D01*
X135520419Y-100704285D02*
X135472800Y-100751904D01*
X135472800Y-100751904D02*
X135425180Y-100847142D01*
X135425180Y-100847142D02*
X135425180Y-101228094D01*
X135425180Y-101228094D02*
X136425180Y-101228094D01*
X136425180Y-101228094D02*
X136425180Y-100894761D01*
X136425180Y-100894761D02*
X136377561Y-100799523D01*
X136377561Y-100799523D02*
X136329942Y-100751904D01*
X136329942Y-100751904D02*
X136234704Y-100704285D01*
X136234704Y-100704285D02*
X136139466Y-100704285D01*
X136139466Y-100704285D02*
X136044228Y-100751904D01*
X136044228Y-100751904D02*
X135996609Y-100799523D01*
X135996609Y-100799523D02*
X135948990Y-100894761D01*
X135948990Y-100894761D02*
X135948990Y-101228094D01*
X135425180Y-99704285D02*
X135425180Y-100275713D01*
X135425180Y-99989999D02*
X136425180Y-99989999D01*
X136425180Y-99989999D02*
X136282323Y-100085237D01*
X136282323Y-100085237D02*
X136187085Y-100180475D01*
X136187085Y-100180475D02*
X136139466Y-100275713D01*
D12*
X227217150Y-95466000D02*
G75*
G02*
X226455150Y-95466000I-381000J0D01*
G01*
X226455150Y-95466000D02*
G75*
G02*
X227217150Y-95466000I381000J0D01*
G01*
D13*
X133088748Y-97365000D02*
X133611252Y-97365000D01*
X133088748Y-98835000D02*
X133611252Y-98835000D01*
D14*
X224431150Y-99833400D02*
G75*
G02*
X224331150Y-99833400I-50000J0D01*
G01*
X224331150Y-99833400D02*
G75*
G02*
X224431150Y-99833400I50000J0D01*
G01*
D13*
X197270276Y-118977500D02*
X197779724Y-118977500D01*
X197270276Y-120022500D02*
X197779724Y-120022500D01*
X162215000Y-48948748D02*
X162215000Y-49471252D01*
X163685000Y-48948748D02*
X163685000Y-49471252D01*
X166390000Y-136796267D02*
X166390000Y-136503733D01*
X167410000Y-136796267D02*
X167410000Y-136503733D01*
X161865000Y-123338748D02*
X161865000Y-123861252D01*
X163335000Y-123338748D02*
X163335000Y-123861252D01*
X125352500Y-125429724D02*
X125352500Y-124920276D01*
X126397500Y-125429724D02*
X126397500Y-124920276D01*
X125913748Y-62215000D02*
X126436252Y-62215000D01*
X125913748Y-63685000D02*
X126436252Y-63685000D01*
X130788748Y-56615000D02*
X131311252Y-56615000D01*
X130788748Y-58085000D02*
X131311252Y-58085000D01*
X106636252Y-105840000D02*
X106113748Y-105840000D01*
X106636252Y-107310000D02*
X106113748Y-107310000D01*
X95777500Y-105379724D02*
X95777500Y-104870276D01*
X96822500Y-105379724D02*
X96822500Y-104870276D01*
X165140000Y-110213748D02*
X165140000Y-110736252D01*
X166610000Y-110213748D02*
X166610000Y-110736252D01*
X214058748Y-53095000D02*
X214581252Y-53095000D01*
X214058748Y-54565000D02*
X214581252Y-54565000D01*
X160554724Y-51037500D02*
X160045276Y-51037500D01*
X160554724Y-52082500D02*
X160045276Y-52082500D01*
X189848752Y-66890000D02*
X189326248Y-66890000D01*
X189848752Y-68360000D02*
X189326248Y-68360000D01*
X135627500Y-125629724D02*
X135627500Y-125120276D01*
X136672500Y-125629724D02*
X136672500Y-125120276D01*
X128815000Y-101088748D02*
X128815000Y-101611252D01*
X130285000Y-101088748D02*
X130285000Y-101611252D01*
X130588748Y-62240000D02*
X131111252Y-62240000D01*
X130588748Y-63710000D02*
X131111252Y-63710000D01*
X157565000Y-132911252D02*
X157565000Y-132388748D01*
X159035000Y-132911252D02*
X159035000Y-132388748D01*
X158990000Y-115463748D02*
X158990000Y-115986252D01*
X160460000Y-115463748D02*
X160460000Y-115986252D01*
X139088748Y-108015000D02*
X139611252Y-108015000D01*
X139088748Y-109485000D02*
X139611252Y-109485000D01*
X125963748Y-102990000D02*
X126486252Y-102990000D01*
X125963748Y-104460000D02*
X126486252Y-104460000D01*
X94813748Y-101515000D02*
X95336252Y-101515000D01*
X94813748Y-102985000D02*
X95336252Y-102985000D01*
X122440000Y-62261252D02*
X122440000Y-61738748D01*
X123910000Y-62261252D02*
X123910000Y-61738748D01*
X106636252Y-103840000D02*
X106113748Y-103840000D01*
X106636252Y-105310000D02*
X106113748Y-105310000D01*
X165540000Y-49175000D02*
X166489999Y-49175000D01*
X165540000Y-50124999D02*
X165540000Y-49175000D01*
X165540000Y-68445001D02*
X165540000Y-69395000D01*
X165540000Y-69395000D02*
X166489999Y-69395000D01*
X185760000Y-49175000D02*
X184810001Y-49175000D01*
X185760000Y-50124999D02*
X185760000Y-49175000D01*
X185760000Y-68445001D02*
X185760000Y-69395000D01*
X185760000Y-69395000D02*
X184810001Y-69395000D01*
X165290000Y-68915000D02*
X164610000Y-68915000D01*
X164950000Y-68445001D01*
X165290000Y-68915000D01*
G36*
X165290000Y-68915000D02*
G01*
X164610000Y-68915000D01*
X164950000Y-68445001D01*
X165290000Y-68915000D01*
G37*
X213833748Y-66045000D02*
X214356252Y-66045000D01*
X213833748Y-67515000D02*
X214356252Y-67515000D01*
X169065000Y-132663748D02*
X169065000Y-133186252D01*
X170535000Y-132663748D02*
X170535000Y-133186252D01*
X169890000Y-110611252D02*
X169890000Y-110088748D01*
X171360000Y-110611252D02*
X171360000Y-110088748D01*
X217346150Y-100619652D02*
X217346150Y-100097148D01*
X218816150Y-100619652D02*
X218816150Y-100097148D01*
X133561252Y-103215000D02*
X133038748Y-103215000D01*
X133561252Y-104685000D02*
X133038748Y-104685000D01*
X161615000Y-110686252D02*
X161615000Y-110163748D01*
X163085000Y-110686252D02*
X163085000Y-110163748D01*
X184140000Y-44948748D02*
X184140000Y-45471252D01*
X185610000Y-44948748D02*
X185610000Y-45471252D01*
X220316150Y-98969652D02*
X220316150Y-98447148D01*
X221786150Y-98969652D02*
X221786150Y-98447148D01*
X95461252Y-107340000D02*
X94938748Y-107340000D01*
X95461252Y-108810000D02*
X94938748Y-108810000D01*
X133852500Y-101229724D02*
X133852500Y-100720276D01*
X134897500Y-101229724D02*
X134897500Y-100720276D01*
X142513748Y-62265000D02*
X143036252Y-62265000D01*
X142513748Y-63735000D02*
X143036252Y-63735000D01*
X126486252Y-56465000D02*
X125963748Y-56465000D01*
X126486252Y-57935000D02*
X125963748Y-57935000D01*
X95451252Y-125605000D02*
X94928748Y-125605000D01*
X95451252Y-127075000D02*
X94928748Y-127075000D01*
X199402500Y-121870276D02*
X199402500Y-122379724D01*
X200447500Y-121870276D02*
X200447500Y-122379724D01*
X211397500Y-112974724D02*
X211397500Y-112465276D01*
X212442500Y-112974724D02*
X212442500Y-112465276D01*
X134963748Y-62140000D02*
X135486252Y-62140000D01*
X134963748Y-63610000D02*
X135486252Y-63610000D01*
X106928748Y-125575000D02*
X107451252Y-125575000D01*
X106928748Y-127045000D02*
X107451252Y-127045000D01*
D15*
X228996150Y-102603400D03*
D16*
X180850000Y-140425000D03*
X185250000Y-140425000D03*
%LPC*%
D17*
X164680000Y-140850000D03*
X167220000Y-140850000D03*
X169760000Y-140850000D03*
X172300000Y-140850000D03*
D18*
X173690000Y-136650000D03*
X163290000Y-136650000D03*
D19*
X206480000Y-116710000D03*
D20*
X209020000Y-116710000D03*
X211560000Y-116710000D03*
X214100000Y-116710000D03*
D21*
X140540000Y-126530000D03*
X143040000Y-126530000D03*
D17*
X149480000Y-140925000D03*
X152020000Y-140925000D03*
X154560000Y-140925000D03*
X157100000Y-140925000D03*
D18*
X148090000Y-136725000D03*
X158490000Y-136725000D03*
D22*
X226836150Y-97523400D03*
X226836150Y-100063400D03*
X226836150Y-102603400D03*
X226836150Y-105143400D03*
D23*
X179295113Y-127150000D03*
D21*
X177295113Y-127150000D03*
D23*
X212251150Y-100120780D03*
D21*
X212251150Y-97620780D03*
D24*
X176325000Y-113750000D03*
D25*
X178825000Y-113750000D03*
X181325000Y-113750000D03*
D26*
X88875000Y-135975000D03*
D27*
X94175000Y-135975000D03*
X108175000Y-135975000D03*
D26*
X118700000Y-136000000D03*
D27*
X124000000Y-136000000D03*
X138000000Y-136000000D03*
D21*
X121380000Y-126250000D03*
X118880000Y-126250000D03*
D19*
X163600000Y-26200000D03*
D20*
X161060000Y-26200000D03*
X158520000Y-26200000D03*
X155980000Y-26200000D03*
X153440000Y-26200000D03*
X150900000Y-26200000D03*
X148360000Y-26200000D03*
X145820000Y-26200000D03*
X143280000Y-26200000D03*
D19*
X185050000Y-26200000D03*
D20*
X182510000Y-26200000D03*
X179970000Y-26200000D03*
X177430000Y-26200000D03*
D28*
X134387500Y-98100000D03*
X132312500Y-98100000D03*
D29*
X224381150Y-99205900D03*
X224381150Y-98390900D03*
D30*
X198437500Y-119500000D03*
X196612500Y-119500000D03*
D31*
X162950000Y-50247500D03*
X162950000Y-48172500D03*
D32*
X166900000Y-135787500D03*
X166900000Y-137512500D03*
D31*
X162600000Y-124637500D03*
X162600000Y-122562500D03*
D33*
X125875000Y-124262500D03*
X125875000Y-126087500D03*
D28*
X127212500Y-62950000D03*
X125137500Y-62950000D03*
X132087500Y-57350000D03*
X130012500Y-57350000D03*
D34*
X105337500Y-106575000D03*
X107412500Y-106575000D03*
D33*
X96300000Y-104212500D03*
X96300000Y-106037500D03*
D31*
X165875000Y-111512500D03*
X165875000Y-109437500D03*
D28*
X215357500Y-53830000D03*
X213282500Y-53830000D03*
D35*
X159387500Y-51560000D03*
X161212500Y-51560000D03*
D34*
X188550000Y-67625000D03*
X190625000Y-67625000D03*
D33*
X136150000Y-124462500D03*
X136150000Y-126287500D03*
D31*
X129550000Y-102387500D03*
X129550000Y-100312500D03*
D28*
X131887500Y-62975000D03*
X129812500Y-62975000D03*
D36*
X158300000Y-131612500D03*
X158300000Y-133687500D03*
D31*
X159725000Y-116762500D03*
X159725000Y-114687500D03*
D28*
X140387500Y-108750000D03*
X138312500Y-108750000D03*
X127262500Y-103725000D03*
X125187500Y-103725000D03*
X96112500Y-102250000D03*
X94037500Y-102250000D03*
D36*
X123175000Y-60962500D03*
X123175000Y-63037500D03*
D34*
X105337500Y-104575000D03*
X107412500Y-104575000D03*
D37*
X164987500Y-68035000D03*
X164987500Y-67535000D03*
X164987499Y-67035000D03*
X164987500Y-66535000D03*
X164987500Y-66035000D03*
X164987500Y-65534999D03*
X164987500Y-65035000D03*
X164987500Y-64535001D03*
X164987500Y-64035000D03*
X164987500Y-63535000D03*
X164987500Y-63034999D03*
X164987500Y-62535000D03*
X164987500Y-62035000D03*
X164987500Y-61535000D03*
X164987500Y-61035000D03*
X164987499Y-60535000D03*
X164987500Y-60035000D03*
X164987500Y-59535000D03*
X164987500Y-59035000D03*
X164987500Y-58535000D03*
X164987499Y-58035000D03*
X164987500Y-57535000D03*
X164987500Y-57035000D03*
X164987500Y-56535000D03*
X164987500Y-56035000D03*
X164987500Y-55535001D03*
X164987500Y-55035000D03*
X164987500Y-54535000D03*
X164987500Y-54034999D03*
X164987500Y-53535000D03*
X164987500Y-53035001D03*
X164987500Y-52535000D03*
X164987500Y-52035000D03*
X164987499Y-51535000D03*
X164987500Y-51035000D03*
X164987500Y-50535000D03*
D38*
X166900000Y-48622500D03*
X167400000Y-48622500D03*
X167900000Y-48622499D03*
X168400000Y-48622500D03*
X168900000Y-48622500D03*
X169400001Y-48622500D03*
X169900000Y-48622500D03*
X170399999Y-48622500D03*
X170900000Y-48622500D03*
X171400000Y-48622500D03*
X171900001Y-48622500D03*
X172400000Y-48622500D03*
X172900000Y-48622500D03*
X173400000Y-48622500D03*
X173900000Y-48622500D03*
X174400000Y-48622499D03*
X174900000Y-48622500D03*
X175400000Y-48622500D03*
X175900000Y-48622500D03*
X176400000Y-48622500D03*
X176900000Y-48622499D03*
X177400000Y-48622500D03*
X177900000Y-48622500D03*
X178400000Y-48622500D03*
X178900000Y-48622500D03*
X179399999Y-48622500D03*
X179900000Y-48622500D03*
X180400000Y-48622500D03*
X180900001Y-48622500D03*
X181400000Y-48622500D03*
X181899999Y-48622500D03*
X182400000Y-48622500D03*
X182900000Y-48622500D03*
X183400000Y-48622499D03*
X183900000Y-48622500D03*
X184400000Y-48622500D03*
D37*
X186312500Y-50535000D03*
X186312500Y-51035000D03*
X186312501Y-51535000D03*
X186312500Y-52035000D03*
X186312500Y-52535000D03*
X186312500Y-53035001D03*
X186312500Y-53535000D03*
X186312500Y-54034999D03*
X186312500Y-54535000D03*
X186312500Y-55035000D03*
X186312500Y-55535001D03*
X186312500Y-56035000D03*
X186312500Y-56535000D03*
X186312500Y-57035000D03*
X186312500Y-57535000D03*
X186312501Y-58035000D03*
X186312500Y-58535000D03*
X186312500Y-59035000D03*
X186312500Y-59535000D03*
X186312500Y-60035000D03*
X186312501Y-60535000D03*
X186312500Y-61035000D03*
X186312500Y-61535000D03*
X186312500Y-62035000D03*
X186312500Y-62535000D03*
X186312500Y-63034999D03*
X186312500Y-63535000D03*
X186312500Y-64035000D03*
X186312500Y-64535001D03*
X186312500Y-65035000D03*
X186312500Y-65534999D03*
X186312500Y-66035000D03*
X186312500Y-66535000D03*
X186312501Y-67035000D03*
X186312500Y-67535000D03*
X186312500Y-68035000D03*
D38*
X184400000Y-69947500D03*
X183900000Y-69947500D03*
X183400000Y-69947501D03*
X182900000Y-69947500D03*
X182400000Y-69947500D03*
X181899999Y-69947500D03*
X181400000Y-69947500D03*
X180900001Y-69947500D03*
X180400000Y-69947500D03*
X179900000Y-69947500D03*
X179399999Y-69947500D03*
X178900000Y-69947500D03*
X178400000Y-69947500D03*
X177900000Y-69947500D03*
X177400000Y-69947500D03*
X176900000Y-69947501D03*
X176400000Y-69947500D03*
X175900000Y-69947500D03*
X175400000Y-69947500D03*
X174900000Y-69947500D03*
X174400000Y-69947501D03*
X173900000Y-69947500D03*
X173400000Y-69947500D03*
X172900000Y-69947500D03*
X172400000Y-69947500D03*
X171900001Y-69947500D03*
X171400000Y-69947500D03*
X170900000Y-69947500D03*
X170399999Y-69947500D03*
X169900000Y-69947500D03*
X169400001Y-69947500D03*
X168900000Y-69947500D03*
X168400000Y-69947500D03*
X167900000Y-69947501D03*
X167400000Y-69947500D03*
X166900000Y-69947500D03*
D28*
X215132500Y-66780000D03*
X213057500Y-66780000D03*
D31*
X169800000Y-133962500D03*
X169800000Y-131887500D03*
D36*
X170625000Y-109312500D03*
X170625000Y-111387500D03*
X218081150Y-99320900D03*
X218081150Y-101395900D03*
D34*
X132262500Y-103950000D03*
X134337500Y-103950000D03*
D36*
X162350000Y-109387500D03*
X162350000Y-111462500D03*
D31*
X184875000Y-46247500D03*
X184875000Y-44172500D03*
D36*
X221051150Y-97670900D03*
X221051150Y-99745900D03*
D34*
X94162500Y-108075000D03*
X96237500Y-108075000D03*
D33*
X134375000Y-100062500D03*
X134375000Y-101887500D03*
D28*
X143812500Y-63000000D03*
X141737500Y-63000000D03*
D34*
X125187500Y-57200000D03*
X127262500Y-57200000D03*
X94152500Y-126340000D03*
X96227500Y-126340000D03*
D39*
X199925000Y-123037500D03*
X199925000Y-121212500D03*
D33*
X211920000Y-111807500D03*
X211920000Y-113632500D03*
D28*
X136262500Y-62875000D03*
X134187500Y-62875000D03*
X108227500Y-126310000D03*
X106152500Y-126310000D03*
D40*
X162775000Y-119500000D03*
X181500000Y-119500000D03*
X158975000Y-119500000D03*
X181500000Y-135600000D03*
X168825000Y-119500000D03*
X102825000Y-93400000D03*
X184725000Y-93375000D03*
X184725000Y-71400000D03*
X166325000Y-63600000D03*
X219591150Y-101348400D03*
X134187500Y-61550000D03*
X159725000Y-117900000D03*
X105350000Y-103000000D03*
X100175000Y-102700000D03*
X177925000Y-54400000D03*
X174920000Y-51570000D03*
X213100000Y-52060000D03*
X131275000Y-105250000D03*
X176550000Y-67050000D03*
X96110000Y-100870000D03*
X133900000Y-64225000D03*
X166250000Y-54250000D03*
X134475000Y-108075000D03*
X168600000Y-109400000D03*
X166450000Y-59150000D03*
X105350000Y-107950000D03*
X144200000Y-64275000D03*
X179725000Y-49985000D03*
X143850000Y-61450000D03*
X171900000Y-56975000D03*
X121950000Y-63050000D03*
X127250000Y-58750000D03*
X129812500Y-61550000D03*
X132250000Y-55975000D03*
X221061150Y-101088400D03*
X128675000Y-103725000D03*
X156190000Y-72400000D03*
X102175000Y-107400000D03*
X164525000Y-123200000D03*
X171450000Y-67250000D03*
X211920000Y-53880000D03*
X168200000Y-49960000D03*
X170325000Y-124100000D03*
X213595000Y-68705000D03*
X127475000Y-55800000D03*
X131275000Y-106275000D03*
X128070000Y-102350000D03*
X166280000Y-64830000D03*
X166250000Y-65534999D03*
X162675000Y-121025000D03*
X171950000Y-108425000D03*
X166350000Y-51760000D03*
X163700000Y-108775000D03*
X98775000Y-97425000D03*
X213290000Y-111790000D03*
X156950000Y-116750001D03*
X184900000Y-68300000D03*
X172850000Y-68675000D03*
X165950000Y-108150000D03*
X184875000Y-61825000D03*
X222581150Y-99728400D03*
X218091150Y-102818400D03*
X177250000Y-59150000D03*
X136075000Y-98100000D03*
X173600000Y-53150000D03*
X174890000Y-49940000D03*
X168025000Y-68650000D03*
X125137500Y-61462500D03*
X211620000Y-66780000D03*
X181950000Y-68450000D03*
X181650000Y-51550000D03*
X133350000Y-57350000D03*
X134390000Y-96730000D03*
X181630000Y-29000000D03*
X213840000Y-71670000D03*
X173450000Y-62200000D03*
X166425000Y-68700000D03*
X183250000Y-63150000D03*
X159400000Y-50360000D03*
X172025000Y-107425000D03*
X181750000Y-56850000D03*
X184425000Y-49975000D03*
X177775000Y-68475000D03*
X213810000Y-48850000D03*
X124950000Y-64425000D03*
X97390000Y-102220000D03*
X166325000Y-55150000D03*
X129850000Y-64325000D03*
X166210000Y-107430000D03*
X184900000Y-56525000D03*
X191070000Y-49210000D03*
X168160000Y-115940000D03*
X123350000Y-64450000D03*
X103650000Y-87785000D03*
X169375000Y-87785000D03*
X169375000Y-49960000D03*
X101125000Y-108325000D03*
X99502775Y-111477223D03*
X101475000Y-88610000D03*
X168750000Y-88560000D03*
X168800000Y-50585000D03*
X102125000Y-86435000D03*
X170312500Y-86422500D03*
X170375000Y-49985000D03*
X121850000Y-60960000D03*
X198570000Y-123040000D03*
X168650000Y-104600000D03*
X168420000Y-107530000D03*
X177570000Y-131900000D03*
X178030000Y-49980000D03*
X101550000Y-111450000D03*
X172250000Y-110975000D03*
X191900000Y-67625000D03*
X167170000Y-115960000D03*
X164250000Y-116275000D03*
X100260000Y-108610000D03*
X131000000Y-103930000D03*
X127150000Y-61450000D03*
X131300000Y-107450000D03*
X98790000Y-95390000D03*
X172470000Y-122710000D03*
X132340000Y-67790000D03*
X189590000Y-45680000D03*
X167750000Y-51750000D03*
X159740000Y-73910000D03*
X131887500Y-61650000D03*
X92820000Y-102210000D03*
X174750000Y-56625000D03*
X167180000Y-104480000D03*
X173995727Y-47263513D03*
X177260000Y-63880000D03*
X187950000Y-55550000D03*
X130050000Y-58750000D03*
X171510000Y-56030000D03*
X94040000Y-100870000D03*
X107170000Y-108540000D03*
X133730000Y-52620000D03*
X183250000Y-58650000D03*
X123010000Y-111880000D03*
X166410000Y-60900000D03*
X133850000Y-55650000D03*
X167250000Y-112900000D03*
X161425000Y-48110000D03*
X162575000Y-126200000D03*
X131120000Y-98080000D03*
X121970000Y-54390000D03*
X160970000Y-124630000D03*
X132320000Y-99440000D03*
X216820000Y-53780000D03*
X141730000Y-61570000D03*
X140400000Y-110110000D03*
X174750000Y-65850000D03*
X128320000Y-107440000D03*
X218081150Y-97958400D03*
X219561150Y-97688400D03*
X214780000Y-71620000D03*
X169790000Y-130280000D03*
X167325000Y-111550000D03*
X172105913Y-112380913D03*
X214750000Y-48890000D03*
X184975000Y-67275000D03*
X141670000Y-108730000D03*
X184900000Y-30420000D03*
X107420000Y-107890000D03*
X173375000Y-64400000D03*
X165100000Y-124125000D03*
X184875000Y-60525000D03*
X108500000Y-110050000D03*
X103000000Y-108400000D03*
X123275000Y-59650000D03*
X128170000Y-100290000D03*
X191050000Y-44330000D03*
D41*
X96530000Y-75100000D03*
D40*
X123375000Y-55850000D03*
X222641150Y-97658400D03*
X166250000Y-47750000D03*
X108740000Y-104550000D03*
X166280000Y-61620000D03*
X179060000Y-130530000D03*
X123970000Y-103690000D03*
X121650000Y-110360000D03*
X94160000Y-106690000D03*
X171525000Y-50150000D03*
X171940000Y-65750000D03*
X107410000Y-103160000D03*
X173650000Y-49850000D03*
X100240000Y-94070000D03*
X154510000Y-115800000D03*
X161070000Y-72420000D03*
X92910000Y-110030000D03*
X214519448Y-51926175D03*
X137300000Y-62875000D03*
X165200000Y-107400000D03*
X125250000Y-58750000D03*
X98500000Y-102975000D03*
X168250000Y-131875000D03*
X199940000Y-124230000D03*
X166450000Y-67537500D03*
X132300000Y-96750000D03*
X128620000Y-57280000D03*
X94050000Y-103590000D03*
X215110000Y-65350000D03*
X140700000Y-63000000D03*
X179730000Y-65570000D03*
X219591150Y-99298400D03*
X184750000Y-55150000D03*
X132270000Y-102580000D03*
X163800000Y-111475000D03*
X132225000Y-64325000D03*
X186130000Y-29110000D03*
X137270000Y-110060000D03*
X190375000Y-116350000D03*
D41*
X220210000Y-28620000D03*
D40*
X181560000Y-54690000D03*
X159720000Y-113370000D03*
X164350000Y-48150000D03*
X168350000Y-113000000D03*
X174670000Y-71580000D03*
X127470000Y-67650000D03*
X216440000Y-66770000D03*
X183350000Y-65150000D03*
X177890000Y-56540000D03*
D41*
X97380000Y-31570000D03*
D40*
X176850000Y-51550000D03*
X173600000Y-60250000D03*
X168600000Y-111025000D03*
X99430339Y-102610641D03*
X171475000Y-53050000D03*
X92930000Y-108040000D03*
X129750000Y-56000000D03*
D41*
X111570000Y-40730000D03*
D40*
X181750000Y-66360000D03*
X151850000Y-115800000D03*
X107190000Y-111470000D03*
X178850000Y-62350000D03*
X172150000Y-111850000D03*
X161320000Y-116320000D03*
X189930000Y-106210000D03*
X179560000Y-68350000D03*
X188150000Y-61200000D03*
X186200000Y-44160000D03*
X190630000Y-69100000D03*
X164525000Y-107375000D03*
X175730000Y-68540000D03*
X136270000Y-61440000D03*
X130900000Y-100280000D03*
X192660000Y-45660000D03*
X166460000Y-53060000D03*
X167200000Y-107450000D03*
X129760000Y-52580000D03*
X125150000Y-52570000D03*
X123840000Y-57190000D03*
X125180000Y-102380000D03*
X214620000Y-68630000D03*
X144250000Y-56025000D03*
X167700000Y-60300000D03*
D41*
X114220000Y-68390000D03*
D40*
X191375000Y-107800000D03*
X125200000Y-105060000D03*
X161340000Y-114670000D03*
X94280000Y-111470000D03*
X129560000Y-99080000D03*
D41*
X92880000Y-49300000D03*
D40*
X181560000Y-59920000D03*
X180710000Y-131960000D03*
X221041150Y-96298400D03*
X123000000Y-108910000D03*
X183910000Y-139860000D03*
D41*
X203480000Y-143020000D03*
D40*
X166950000Y-49950000D03*
X145540000Y-54370000D03*
X125012500Y-55812500D03*
X157175000Y-115800000D03*
X173900000Y-121200000D03*
D41*
X92890000Y-50100000D03*
D40*
X180950000Y-67050000D03*
X127450000Y-64325000D03*
X178655736Y-49940736D03*
D41*
X222700000Y-129610000D03*
D40*
X174450000Y-68650000D03*
X108780000Y-106550000D03*
X183150000Y-53450000D03*
X184640000Y-135520000D03*
X135800000Y-110920000D03*
X216541150Y-99288400D03*
X159680000Y-70950000D03*
X215400000Y-55230000D03*
X165620000Y-112850000D03*
X100225000Y-111275000D03*
X154500000Y-96560000D03*
X186575000Y-96560000D03*
X154500000Y-56110001D03*
X138800000Y-127010000D03*
X137200000Y-108700000D03*
X159050000Y-105375000D03*
X159050000Y-98875000D03*
X193050000Y-62075000D03*
X138225000Y-105425000D03*
X193050000Y-98850000D03*
X153800000Y-55050000D03*
X137675000Y-106800000D03*
X153700000Y-106800000D03*
X193650000Y-50475000D03*
X157900000Y-99600000D03*
X157900000Y-107450000D03*
X193600000Y-99475000D03*
X138475000Y-107475000D03*
X123170000Y-126660000D03*
X139175000Y-106175000D03*
X158475000Y-106125000D03*
X194300000Y-51050000D03*
X194300000Y-100350000D03*
X158475000Y-100275000D03*
X133850000Y-109400000D03*
X128150000Y-110000000D03*
X129900000Y-110875000D03*
X198175000Y-35225000D03*
X198175000Y-56525000D03*
X217645000Y-35355000D03*
X121310000Y-69150000D03*
X124250000Y-69140000D03*
X121410000Y-35225000D03*
X210445000Y-41765000D03*
X148650000Y-75860000D03*
X178700000Y-41735000D03*
X178700000Y-47185000D03*
X131450000Y-75860000D03*
X148650000Y-41700000D03*
X178275000Y-83525000D03*
X178275000Y-71300000D03*
X211095000Y-83555000D03*
X179550000Y-41085000D03*
X179550000Y-47160000D03*
X209863388Y-41190000D03*
X149200000Y-41050000D03*
X149200000Y-76435000D03*
X133050000Y-76435000D03*
X120700000Y-70120000D03*
X217020000Y-34630000D03*
X120700000Y-34620000D03*
X125740000Y-70080000D03*
X198775000Y-57125000D03*
X198750000Y-34625000D03*
X211670000Y-82205000D03*
X180350000Y-82125000D03*
X180325000Y-71425000D03*
X178100000Y-42335000D03*
X211095000Y-42365000D03*
X178100000Y-46335000D03*
X130650000Y-75335000D03*
X148000000Y-42335000D03*
X148050000Y-75335000D03*
X179450000Y-82800000D03*
X179475000Y-71525000D03*
X216745000Y-82830000D03*
X211845000Y-43015000D03*
X129050000Y-74585000D03*
X177475000Y-42935000D03*
X177500000Y-47210000D03*
X147400000Y-42950000D03*
X147550000Y-74585000D03*
X216270000Y-76755000D03*
X197550000Y-54500000D03*
X197550000Y-76725000D03*
X212295000Y-75105000D03*
X204700000Y-75075000D03*
X204650000Y-63050000D03*
X163525000Y-79110000D03*
X163453435Y-59808096D03*
X217370000Y-79140000D03*
X128250000Y-81525000D03*
X203200000Y-39050000D03*
X181375000Y-71425000D03*
X203150000Y-81600000D03*
X216045000Y-39105000D03*
X181400000Y-81525000D03*
X196850000Y-54025000D03*
X196925000Y-76050000D03*
X215770000Y-76005000D03*
X216620000Y-39730000D03*
X126650000Y-80925000D03*
X204065000Y-80925000D03*
X182675000Y-71450000D03*
X204200000Y-39700000D03*
X182700000Y-80925000D03*
X151650000Y-69585000D03*
X151809128Y-61614040D03*
X143450000Y-69460000D03*
X182975000Y-47010000D03*
X183125000Y-31250000D03*
X139450000Y-44985000D03*
X181900000Y-38360000D03*
X129050000Y-38360000D03*
X181875000Y-44935000D03*
X181300000Y-39060000D03*
X130650000Y-39060000D03*
X181300000Y-45435000D03*
X168225000Y-71600000D03*
X146450000Y-78550000D03*
X146427085Y-49075000D03*
X135450000Y-49075000D03*
X168225000Y-78535000D03*
X141050000Y-46150000D03*
X152300000Y-62150000D03*
X152200000Y-70325000D03*
X142650000Y-70085000D03*
X152800000Y-62600000D03*
X152750000Y-70900000D03*
X141850000Y-70685000D03*
X154850000Y-53900000D03*
X137050000Y-51610000D03*
X154800000Y-51610000D03*
X196225000Y-53575000D03*
X124250000Y-36025000D03*
X196225000Y-36100000D03*
X153275000Y-71500000D03*
X153250000Y-63300000D03*
X141050000Y-71435000D03*
X141860000Y-46760000D03*
X180150000Y-46635000D03*
X180150000Y-40510000D03*
X133050000Y-40535000D03*
X199750000Y-59075000D03*
X139450000Y-80325000D03*
X199750000Y-80325000D03*
X140250000Y-45585000D03*
X182450000Y-44435654D03*
X128250000Y-37785000D03*
X182550000Y-37760000D03*
X195575000Y-36700000D03*
X125850000Y-36625000D03*
X195600000Y-53025000D03*
X149750000Y-77210000D03*
X149800000Y-47300000D03*
X137050000Y-77210000D03*
X137850000Y-68060000D03*
X150775000Y-68060000D03*
X151043332Y-54475000D03*
X180725000Y-46135000D03*
X131450000Y-39810000D03*
X180700000Y-39810000D03*
X143350000Y-52885000D03*
X158650000Y-52885000D03*
X158635533Y-60964467D03*
X167477588Y-71662285D03*
X167550000Y-77960000D03*
X134650000Y-77925000D03*
X199150000Y-79685000D03*
X199200000Y-58535000D03*
X138650000Y-79685000D03*
X142650000Y-52185000D03*
X157950000Y-60350000D03*
X157950000Y-52185000D03*
X135425000Y-68735000D03*
X151250000Y-68935000D03*
X151500000Y-55625000D03*
X136250000Y-34050000D03*
X200680000Y-34050000D03*
X200780000Y-60430000D03*
X172925000Y-82100000D03*
X172925000Y-71475000D03*
X136250000Y-82100000D03*
X126660000Y-37185000D03*
X194850000Y-37185000D03*
X194875000Y-52550000D03*
X146950000Y-44385000D03*
X147000000Y-73585000D03*
X140250000Y-73585000D03*
X202364522Y-69947500D03*
X171545758Y-72015153D03*
X201746827Y-66535000D03*
X172175552Y-71446175D03*
X155675000Y-111700000D03*
X177475000Y-98175000D03*
X177450000Y-71425000D03*
X152900000Y-98175000D03*
X152875000Y-111675000D03*
X183700000Y-32650000D03*
X183700000Y-46494468D03*
X160825000Y-66285000D03*
X160600000Y-33475000D03*
X178850000Y-72550000D03*
X200300000Y-64535001D03*
X200300000Y-119500000D03*
X201250000Y-117475000D03*
X201246827Y-66010000D03*
X183050000Y-117500000D03*
X159849997Y-33475000D03*
X159875000Y-65770542D03*
X182275000Y-118075000D03*
X200825000Y-65510000D03*
X200825000Y-118075000D03*
X162125000Y-67460000D03*
X162125000Y-31400000D03*
X157025000Y-33475000D03*
X157000000Y-65185000D03*
X161550000Y-66869370D03*
X161550000Y-33475000D03*
X156425000Y-64585000D03*
X156274997Y-33475000D03*
X138650000Y-43585000D03*
X155524994Y-33475000D03*
X155550000Y-64110000D03*
X156540000Y-131710000D03*
X162950000Y-67985000D03*
X162851000Y-31211778D03*
X163400000Y-59060000D03*
X163400000Y-33475000D03*
%LPD*%
M02*
