G04 #@! TF.GenerationSoftware,KiCad,Pcbnew,8.0.5*
G04 #@! TF.CreationDate,2024-11-21T04:32:58-05:00*
G04 #@! TF.ProjectId,PCB_Order3,5043425f-4f72-4646-9572-332e6b696361,rev?*
G04 #@! TF.SameCoordinates,Original*
G04 #@! TF.FileFunction,Legend,Bot*
G04 #@! TF.FilePolarity,Positive*
%FSLAX46Y46*%
G04 Gerber Fmt 4.6, Leading zero omitted, Abs format (unit mm)*
G04 Created by KiCad (PCBNEW 8.0.5) date 2024-11-21 04:32:58*
%MOMM*%
%LPD*%
G01*
G04 APERTURE LIST*
G04 Aperture macros list*
%AMRoundRect*
0 Rectangle with rounded corners*
0 $1 Rounding radius*
0 $2 $3 $4 $5 $6 $7 $8 $9 X,Y pos of 4 corners*
0 Add a 4 corners polygon primitive as box body*
4,1,4,$2,$3,$4,$5,$6,$7,$8,$9,$2,$3,0*
0 Add four circle primitives for the rounded corners*
1,1,$1+$1,$2,$3*
1,1,$1+$1,$4,$5*
1,1,$1+$1,$6,$7*
1,1,$1+$1,$8,$9*
0 Add four rect primitives between the rounded corners*
20,1,$1+$1,$2,$3,$4,$5,0*
20,1,$1+$1,$4,$5,$6,$7,0*
20,1,$1+$1,$6,$7,$8,$9,0*
20,1,$1+$1,$8,$9,$2,$3,0*%
G04 Aperture macros list end*
%ADD10C,0.300000*%
%ADD11C,0.150000*%
%ADD12C,0.120000*%
%ADD13C,0.508000*%
%ADD14C,0.100000*%
%ADD15C,1.295400*%
%ADD16C,0.900000*%
%ADD17RoundRect,0.237500X-0.237500X0.250000X-0.237500X-0.250000X0.237500X-0.250000X0.237500X0.250000X0*%
%ADD18C,1.303000*%
%ADD19C,1.300000*%
%ADD20R,1.700000X1.700000*%
%ADD21O,1.700000X1.700000*%
%ADD22C,1.600000*%
%ADD23C,1.574800*%
%ADD24R,1.600000X1.600000*%
%ADD25R,1.320800X1.320800*%
%ADD26C,1.320800*%
%ADD27R,3.765000X3.765000*%
%ADD28C,3.765000*%
%ADD29RoundRect,0.250000X0.337500X0.475000X-0.337500X0.475000X-0.337500X-0.475000X0.337500X-0.475000X0*%
%ADD30RoundRect,0.100000X0.100000X-0.217500X0.100000X0.217500X-0.100000X0.217500X-0.100000X-0.217500X0*%
%ADD31RoundRect,0.237500X0.250000X0.237500X-0.250000X0.237500X-0.250000X-0.237500X0.250000X-0.237500X0*%
%ADD32RoundRect,0.250000X0.475000X-0.337500X0.475000X0.337500X-0.475000X0.337500X-0.475000X-0.337500X0*%
%ADD33RoundRect,0.237500X-0.237500X0.300000X-0.237500X-0.300000X0.237500X-0.300000X0.237500X0.300000X0*%
%ADD34RoundRect,0.250000X-0.337500X-0.475000X0.337500X-0.475000X0.337500X0.475000X-0.337500X0.475000X0*%
%ADD35RoundRect,0.237500X-0.250000X-0.237500X0.250000X-0.237500X0.250000X0.237500X-0.250000X0.237500X0*%
%ADD36RoundRect,0.250000X-0.475000X0.337500X-0.475000X-0.337500X0.475000X-0.337500X0.475000X0.337500X0*%
%ADD37RoundRect,0.075000X-0.075000X-0.662500X0.075000X-0.662500X0.075000X0.662500X-0.075000X0.662500X0*%
%ADD38RoundRect,0.075000X-0.662500X-0.075000X0.662500X-0.075000X0.662500X0.075000X-0.662500X0.075000X0*%
%ADD39RoundRect,0.237500X0.237500X-0.250000X0.237500X0.250000X-0.237500X0.250000X-0.237500X-0.250000X0*%
%ADD40C,0.350000*%
%ADD41C,0.450000*%
%ADD42C,0.600000*%
G04 APERTURE END LIST*
D10*
X33871653Y-65079171D02*
X34228796Y-63579171D01*
X34228796Y-63579171D02*
X34514510Y-64650600D01*
X34514510Y-64650600D02*
X34800225Y-63579171D01*
X34800225Y-63579171D02*
X35157368Y-65079171D01*
X35728796Y-63579171D02*
X35728796Y-64579171D01*
X35728796Y-65079171D02*
X35657368Y-65007742D01*
X35657368Y-65007742D02*
X35728796Y-64936314D01*
X35728796Y-64936314D02*
X35800225Y-65007742D01*
X35800225Y-65007742D02*
X35728796Y-65079171D01*
X35728796Y-65079171D02*
X35728796Y-64936314D01*
X36228797Y-64579171D02*
X36800225Y-64579171D01*
X36443082Y-65079171D02*
X36443082Y-63793457D01*
X36443082Y-63793457D02*
X36514511Y-63650600D01*
X36514511Y-63650600D02*
X36657368Y-63579171D01*
X36657368Y-63579171D02*
X36800225Y-63579171D01*
X37300225Y-63579171D02*
X37300225Y-65079171D01*
X37943083Y-63579171D02*
X37943083Y-64364885D01*
X37943083Y-64364885D02*
X37871654Y-64507742D01*
X37871654Y-64507742D02*
X37728797Y-64579171D01*
X37728797Y-64579171D02*
X37514511Y-64579171D01*
X37514511Y-64579171D02*
X37371654Y-64507742D01*
X37371654Y-64507742D02*
X37300225Y-64436314D01*
X39585940Y-64579171D02*
X40157368Y-64579171D01*
X39800225Y-65079171D02*
X39800225Y-63793457D01*
X39800225Y-63793457D02*
X39871654Y-63650600D01*
X39871654Y-63650600D02*
X40014511Y-63579171D01*
X40014511Y-63579171D02*
X40157368Y-63579171D01*
X40657368Y-63579171D02*
X40657368Y-65079171D01*
X41300226Y-63579171D02*
X41300226Y-64364885D01*
X41300226Y-64364885D02*
X41228797Y-64507742D01*
X41228797Y-64507742D02*
X41085940Y-64579171D01*
X41085940Y-64579171D02*
X40871654Y-64579171D01*
X40871654Y-64579171D02*
X40728797Y-64507742D01*
X40728797Y-64507742D02*
X40657368Y-64436314D01*
X42657369Y-63579171D02*
X42657369Y-64364885D01*
X42657369Y-64364885D02*
X42585940Y-64507742D01*
X42585940Y-64507742D02*
X42443083Y-64579171D01*
X42443083Y-64579171D02*
X42157369Y-64579171D01*
X42157369Y-64579171D02*
X42014511Y-64507742D01*
X42657369Y-63650600D02*
X42514511Y-63579171D01*
X42514511Y-63579171D02*
X42157369Y-63579171D01*
X42157369Y-63579171D02*
X42014511Y-63650600D01*
X42014511Y-63650600D02*
X41943083Y-63793457D01*
X41943083Y-63793457D02*
X41943083Y-63936314D01*
X41943083Y-63936314D02*
X42014511Y-64079171D01*
X42014511Y-64079171D02*
X42157369Y-64150600D01*
X42157369Y-64150600D02*
X42514511Y-64150600D01*
X42514511Y-64150600D02*
X42657369Y-64222028D01*
X43371654Y-64579171D02*
X43371654Y-63579171D01*
X43371654Y-64436314D02*
X43443083Y-64507742D01*
X43443083Y-64507742D02*
X43585940Y-64579171D01*
X43585940Y-64579171D02*
X43800226Y-64579171D01*
X43800226Y-64579171D02*
X43943083Y-64507742D01*
X43943083Y-64507742D02*
X44014512Y-64364885D01*
X44014512Y-64364885D02*
X44014512Y-63579171D01*
X44728797Y-63579171D02*
X44728797Y-65079171D01*
X44871655Y-64150600D02*
X45300226Y-63579171D01*
X45300226Y-64579171D02*
X44728797Y-64007742D01*
X45871655Y-63650600D02*
X46014512Y-63579171D01*
X46014512Y-63579171D02*
X46300226Y-63579171D01*
X46300226Y-63579171D02*
X46443083Y-63650600D01*
X46443083Y-63650600D02*
X46514512Y-63793457D01*
X46514512Y-63793457D02*
X46514512Y-63864885D01*
X46514512Y-63864885D02*
X46443083Y-64007742D01*
X46443083Y-64007742D02*
X46300226Y-64079171D01*
X46300226Y-64079171D02*
X46085941Y-64079171D01*
X46085941Y-64079171D02*
X45943083Y-64150600D01*
X45943083Y-64150600D02*
X45871655Y-64293457D01*
X45871655Y-64293457D02*
X45871655Y-64364885D01*
X45871655Y-64364885D02*
X45943083Y-64507742D01*
X45943083Y-64507742D02*
X46085941Y-64579171D01*
X46085941Y-64579171D02*
X46300226Y-64579171D01*
X46300226Y-64579171D02*
X46443083Y-64507742D01*
X48085941Y-64579171D02*
X48657369Y-64579171D01*
X48300226Y-65079171D02*
X48300226Y-63793457D01*
X48300226Y-63793457D02*
X48371655Y-63650600D01*
X48371655Y-63650600D02*
X48514512Y-63579171D01*
X48514512Y-63579171D02*
X48657369Y-63579171D01*
X49371655Y-63579171D02*
X49228798Y-63650600D01*
X49228798Y-63650600D02*
X49157369Y-63722028D01*
X49157369Y-63722028D02*
X49085941Y-63864885D01*
X49085941Y-63864885D02*
X49085941Y-64293457D01*
X49085941Y-64293457D02*
X49157369Y-64436314D01*
X49157369Y-64436314D02*
X49228798Y-64507742D01*
X49228798Y-64507742D02*
X49371655Y-64579171D01*
X49371655Y-64579171D02*
X49585941Y-64579171D01*
X49585941Y-64579171D02*
X49728798Y-64507742D01*
X49728798Y-64507742D02*
X49800227Y-64436314D01*
X49800227Y-64436314D02*
X49871655Y-64293457D01*
X49871655Y-64293457D02*
X49871655Y-63864885D01*
X49871655Y-63864885D02*
X49800227Y-63722028D01*
X49800227Y-63722028D02*
X49728798Y-63650600D01*
X49728798Y-63650600D02*
X49585941Y-63579171D01*
X49585941Y-63579171D02*
X49371655Y-63579171D01*
X52085941Y-65079171D02*
X52085941Y-64007742D01*
X52085941Y-64007742D02*
X52014512Y-63793457D01*
X52014512Y-63793457D02*
X51871655Y-63650600D01*
X51871655Y-63650600D02*
X51657369Y-63579171D01*
X51657369Y-63579171D02*
X51514512Y-63579171D01*
X53371655Y-63650600D02*
X53228798Y-63579171D01*
X53228798Y-63579171D02*
X52943084Y-63579171D01*
X52943084Y-63579171D02*
X52800226Y-63650600D01*
X52800226Y-63650600D02*
X52728798Y-63793457D01*
X52728798Y-63793457D02*
X52728798Y-64364885D01*
X52728798Y-64364885D02*
X52800226Y-64507742D01*
X52800226Y-64507742D02*
X52943084Y-64579171D01*
X52943084Y-64579171D02*
X53228798Y-64579171D01*
X53228798Y-64579171D02*
X53371655Y-64507742D01*
X53371655Y-64507742D02*
X53443084Y-64364885D01*
X53443084Y-64364885D02*
X53443084Y-64222028D01*
X53443084Y-64222028D02*
X52728798Y-64079171D01*
X54014512Y-63650600D02*
X54157369Y-63579171D01*
X54157369Y-63579171D02*
X54443083Y-63579171D01*
X54443083Y-63579171D02*
X54585940Y-63650600D01*
X54585940Y-63650600D02*
X54657369Y-63793457D01*
X54657369Y-63793457D02*
X54657369Y-63864885D01*
X54657369Y-63864885D02*
X54585940Y-64007742D01*
X54585940Y-64007742D02*
X54443083Y-64079171D01*
X54443083Y-64079171D02*
X54228798Y-64079171D01*
X54228798Y-64079171D02*
X54085940Y-64150600D01*
X54085940Y-64150600D02*
X54014512Y-64293457D01*
X54014512Y-64293457D02*
X54014512Y-64364885D01*
X54014512Y-64364885D02*
X54085940Y-64507742D01*
X54085940Y-64507742D02*
X54228798Y-64579171D01*
X54228798Y-64579171D02*
X54443083Y-64579171D01*
X54443083Y-64579171D02*
X54585940Y-64507742D01*
X55943084Y-64579171D02*
X55943084Y-63579171D01*
X55300226Y-64579171D02*
X55300226Y-63793457D01*
X55300226Y-63793457D02*
X55371655Y-63650600D01*
X55371655Y-63650600D02*
X55514512Y-63579171D01*
X55514512Y-63579171D02*
X55728798Y-63579171D01*
X55728798Y-63579171D02*
X55871655Y-63650600D01*
X55871655Y-63650600D02*
X55943084Y-63722028D01*
X56585941Y-63650600D02*
X56728798Y-63579171D01*
X56728798Y-63579171D02*
X57014512Y-63579171D01*
X57014512Y-63579171D02*
X57157369Y-63650600D01*
X57157369Y-63650600D02*
X57228798Y-63793457D01*
X57228798Y-63793457D02*
X57228798Y-63864885D01*
X57228798Y-63864885D02*
X57157369Y-64007742D01*
X57157369Y-64007742D02*
X57014512Y-64079171D01*
X57014512Y-64079171D02*
X56800227Y-64079171D01*
X56800227Y-64079171D02*
X56657369Y-64150600D01*
X56657369Y-64150600D02*
X56585941Y-64293457D01*
X56585941Y-64293457D02*
X56585941Y-64364885D01*
X56585941Y-64364885D02*
X56657369Y-64507742D01*
X56657369Y-64507742D02*
X56800227Y-64579171D01*
X56800227Y-64579171D02*
X57014512Y-64579171D01*
X57014512Y-64579171D02*
X57157369Y-64507742D01*
X59871655Y-63722028D02*
X59800227Y-63650600D01*
X59800227Y-63650600D02*
X59585941Y-63579171D01*
X59585941Y-63579171D02*
X59443084Y-63579171D01*
X59443084Y-63579171D02*
X59228798Y-63650600D01*
X59228798Y-63650600D02*
X59085941Y-63793457D01*
X59085941Y-63793457D02*
X59014512Y-63936314D01*
X59014512Y-63936314D02*
X58943084Y-64222028D01*
X58943084Y-64222028D02*
X58943084Y-64436314D01*
X58943084Y-64436314D02*
X59014512Y-64722028D01*
X59014512Y-64722028D02*
X59085941Y-64864885D01*
X59085941Y-64864885D02*
X59228798Y-65007742D01*
X59228798Y-65007742D02*
X59443084Y-65079171D01*
X59443084Y-65079171D02*
X59585941Y-65079171D01*
X59585941Y-65079171D02*
X59800227Y-65007742D01*
X59800227Y-65007742D02*
X59871655Y-64936314D01*
X60514512Y-63579171D02*
X60514512Y-65079171D01*
X61157370Y-63579171D02*
X61157370Y-64364885D01*
X61157370Y-64364885D02*
X61085941Y-64507742D01*
X61085941Y-64507742D02*
X60943084Y-64579171D01*
X60943084Y-64579171D02*
X60728798Y-64579171D01*
X60728798Y-64579171D02*
X60585941Y-64507742D01*
X60585941Y-64507742D02*
X60514512Y-64436314D01*
X61871655Y-63579171D02*
X61871655Y-64579171D01*
X61871655Y-64293457D02*
X61943084Y-64436314D01*
X61943084Y-64436314D02*
X62014513Y-64507742D01*
X62014513Y-64507742D02*
X62157370Y-64579171D01*
X62157370Y-64579171D02*
X62300227Y-64579171D01*
X62800226Y-63579171D02*
X62800226Y-64579171D01*
X62800226Y-65079171D02*
X62728798Y-65007742D01*
X62728798Y-65007742D02*
X62800226Y-64936314D01*
X62800226Y-64936314D02*
X62871655Y-65007742D01*
X62871655Y-65007742D02*
X62800226Y-65079171D01*
X62800226Y-65079171D02*
X62800226Y-64936314D01*
X63443084Y-63650600D02*
X63585941Y-63579171D01*
X63585941Y-63579171D02*
X63871655Y-63579171D01*
X63871655Y-63579171D02*
X64014512Y-63650600D01*
X64014512Y-63650600D02*
X64085941Y-63793457D01*
X64085941Y-63793457D02*
X64085941Y-63864885D01*
X64085941Y-63864885D02*
X64014512Y-64007742D01*
X64014512Y-64007742D02*
X63871655Y-64079171D01*
X63871655Y-64079171D02*
X63657370Y-64079171D01*
X63657370Y-64079171D02*
X63514512Y-64150600D01*
X63514512Y-64150600D02*
X63443084Y-64293457D01*
X63443084Y-64293457D02*
X63443084Y-64364885D01*
X63443084Y-64364885D02*
X63514512Y-64507742D01*
X63514512Y-64507742D02*
X63657370Y-64579171D01*
X63657370Y-64579171D02*
X63871655Y-64579171D01*
X63871655Y-64579171D02*
X64014512Y-64507742D01*
X64514513Y-64579171D02*
X65085941Y-64579171D01*
X64728798Y-65079171D02*
X64728798Y-63793457D01*
X64728798Y-63793457D02*
X64800227Y-63650600D01*
X64800227Y-63650600D02*
X64943084Y-63579171D01*
X64943084Y-63579171D02*
X65085941Y-63579171D01*
X67371656Y-63579171D02*
X67371656Y-64364885D01*
X67371656Y-64364885D02*
X67300227Y-64507742D01*
X67300227Y-64507742D02*
X67157370Y-64579171D01*
X67157370Y-64579171D02*
X66871656Y-64579171D01*
X66871656Y-64579171D02*
X66728798Y-64507742D01*
X67371656Y-63650600D02*
X67228798Y-63579171D01*
X67228798Y-63579171D02*
X66871656Y-63579171D01*
X66871656Y-63579171D02*
X66728798Y-63650600D01*
X66728798Y-63650600D02*
X66657370Y-63793457D01*
X66657370Y-63793457D02*
X66657370Y-63936314D01*
X66657370Y-63936314D02*
X66728798Y-64079171D01*
X66728798Y-64079171D02*
X66871656Y-64150600D01*
X66871656Y-64150600D02*
X67228798Y-64150600D01*
X67228798Y-64150600D02*
X67371656Y-64222028D01*
X68085941Y-64579171D02*
X68085941Y-63579171D01*
X68085941Y-64436314D02*
X68157370Y-64507742D01*
X68157370Y-64507742D02*
X68300227Y-64579171D01*
X68300227Y-64579171D02*
X68514513Y-64579171D01*
X68514513Y-64579171D02*
X68657370Y-64507742D01*
X68657370Y-64507742D02*
X68728799Y-64364885D01*
X68728799Y-64364885D02*
X68728799Y-63579171D01*
X70085942Y-63579171D02*
X70085942Y-65079171D01*
X70085942Y-63650600D02*
X69943084Y-63579171D01*
X69943084Y-63579171D02*
X69657370Y-63579171D01*
X69657370Y-63579171D02*
X69514513Y-63650600D01*
X69514513Y-63650600D02*
X69443084Y-63722028D01*
X69443084Y-63722028D02*
X69371656Y-63864885D01*
X69371656Y-63864885D02*
X69371656Y-64293457D01*
X69371656Y-64293457D02*
X69443084Y-64436314D01*
X69443084Y-64436314D02*
X69514513Y-64507742D01*
X69514513Y-64507742D02*
X69657370Y-64579171D01*
X69657370Y-64579171D02*
X69943084Y-64579171D01*
X69943084Y-64579171D02*
X70085942Y-64507742D01*
X71871656Y-64007742D02*
X72585942Y-64007742D01*
X71728799Y-63579171D02*
X72228799Y-65079171D01*
X72228799Y-65079171D02*
X72728799Y-63579171D01*
X73228798Y-64579171D02*
X73228798Y-63579171D01*
X73228798Y-64436314D02*
X73300227Y-64507742D01*
X73300227Y-64507742D02*
X73443084Y-64579171D01*
X73443084Y-64579171D02*
X73657370Y-64579171D01*
X73657370Y-64579171D02*
X73800227Y-64507742D01*
X73800227Y-64507742D02*
X73871656Y-64364885D01*
X73871656Y-64364885D02*
X73871656Y-63579171D01*
X75228799Y-63579171D02*
X75228799Y-65079171D01*
X75228799Y-63650600D02*
X75085941Y-63579171D01*
X75085941Y-63579171D02*
X74800227Y-63579171D01*
X74800227Y-63579171D02*
X74657370Y-63650600D01*
X74657370Y-63650600D02*
X74585941Y-63722028D01*
X74585941Y-63722028D02*
X74514513Y-63864885D01*
X74514513Y-63864885D02*
X74514513Y-64293457D01*
X74514513Y-64293457D02*
X74585941Y-64436314D01*
X74585941Y-64436314D02*
X74657370Y-64507742D01*
X74657370Y-64507742D02*
X74800227Y-64579171D01*
X74800227Y-64579171D02*
X75085941Y-64579171D01*
X75085941Y-64579171D02*
X75228799Y-64507742D01*
X75943084Y-63579171D02*
X75943084Y-64579171D01*
X75943084Y-64293457D02*
X76014513Y-64436314D01*
X76014513Y-64436314D02*
X76085942Y-64507742D01*
X76085942Y-64507742D02*
X76228799Y-64579171D01*
X76228799Y-64579171D02*
X76371656Y-64579171D01*
X77443084Y-63650600D02*
X77300227Y-63579171D01*
X77300227Y-63579171D02*
X77014513Y-63579171D01*
X77014513Y-63579171D02*
X76871655Y-63650600D01*
X76871655Y-63650600D02*
X76800227Y-63793457D01*
X76800227Y-63793457D02*
X76800227Y-64364885D01*
X76800227Y-64364885D02*
X76871655Y-64507742D01*
X76871655Y-64507742D02*
X77014513Y-64579171D01*
X77014513Y-64579171D02*
X77300227Y-64579171D01*
X77300227Y-64579171D02*
X77443084Y-64507742D01*
X77443084Y-64507742D02*
X77514513Y-64364885D01*
X77514513Y-64364885D02*
X77514513Y-64222028D01*
X77514513Y-64222028D02*
X76800227Y-64079171D01*
X78014512Y-64579171D02*
X78300227Y-63579171D01*
X78300227Y-63579171D02*
X78585941Y-64293457D01*
X78585941Y-64293457D02*
X78871655Y-63579171D01*
X78871655Y-63579171D02*
X79157369Y-64579171D01*
X80800227Y-63650600D02*
X81014513Y-63579171D01*
X81014513Y-63579171D02*
X81371655Y-63579171D01*
X81371655Y-63579171D02*
X81514513Y-63650600D01*
X81514513Y-63650600D02*
X81585941Y-63722028D01*
X81585941Y-63722028D02*
X81657370Y-63864885D01*
X81657370Y-63864885D02*
X81657370Y-64007742D01*
X81657370Y-64007742D02*
X81585941Y-64150600D01*
X81585941Y-64150600D02*
X81514513Y-64222028D01*
X81514513Y-64222028D02*
X81371655Y-64293457D01*
X81371655Y-64293457D02*
X81085941Y-64364885D01*
X81085941Y-64364885D02*
X80943084Y-64436314D01*
X80943084Y-64436314D02*
X80871655Y-64507742D01*
X80871655Y-64507742D02*
X80800227Y-64650600D01*
X80800227Y-64650600D02*
X80800227Y-64793457D01*
X80800227Y-64793457D02*
X80871655Y-64936314D01*
X80871655Y-64936314D02*
X80943084Y-65007742D01*
X80943084Y-65007742D02*
X81085941Y-65079171D01*
X81085941Y-65079171D02*
X81443084Y-65079171D01*
X81443084Y-65079171D02*
X81657370Y-65007742D01*
X82300226Y-63579171D02*
X82300226Y-65079171D01*
X82943084Y-63579171D02*
X82943084Y-64364885D01*
X82943084Y-64364885D02*
X82871655Y-64507742D01*
X82871655Y-64507742D02*
X82728798Y-64579171D01*
X82728798Y-64579171D02*
X82514512Y-64579171D01*
X82514512Y-64579171D02*
X82371655Y-64507742D01*
X82371655Y-64507742D02*
X82300226Y-64436314D01*
X84228798Y-63650600D02*
X84085941Y-63579171D01*
X84085941Y-63579171D02*
X83800227Y-63579171D01*
X83800227Y-63579171D02*
X83657369Y-63650600D01*
X83657369Y-63650600D02*
X83585941Y-63793457D01*
X83585941Y-63793457D02*
X83585941Y-64364885D01*
X83585941Y-64364885D02*
X83657369Y-64507742D01*
X83657369Y-64507742D02*
X83800227Y-64579171D01*
X83800227Y-64579171D02*
X84085941Y-64579171D01*
X84085941Y-64579171D02*
X84228798Y-64507742D01*
X84228798Y-64507742D02*
X84300227Y-64364885D01*
X84300227Y-64364885D02*
X84300227Y-64222028D01*
X84300227Y-64222028D02*
X83585941Y-64079171D01*
X85585941Y-63579171D02*
X85585941Y-64364885D01*
X85585941Y-64364885D02*
X85514512Y-64507742D01*
X85514512Y-64507742D02*
X85371655Y-64579171D01*
X85371655Y-64579171D02*
X85085941Y-64579171D01*
X85085941Y-64579171D02*
X84943083Y-64507742D01*
X85585941Y-63650600D02*
X85443083Y-63579171D01*
X85443083Y-63579171D02*
X85085941Y-63579171D01*
X85085941Y-63579171D02*
X84943083Y-63650600D01*
X84943083Y-63650600D02*
X84871655Y-63793457D01*
X84871655Y-63793457D02*
X84871655Y-63936314D01*
X84871655Y-63936314D02*
X84943083Y-64079171D01*
X84943083Y-64079171D02*
X85085941Y-64150600D01*
X85085941Y-64150600D02*
X85443083Y-64150600D01*
X85443083Y-64150600D02*
X85585941Y-64222028D01*
X86085941Y-64579171D02*
X86657369Y-64579171D01*
X86300226Y-63579171D02*
X86300226Y-64864885D01*
X86300226Y-64864885D02*
X86371655Y-65007742D01*
X86371655Y-65007742D02*
X86514512Y-65079171D01*
X86514512Y-65079171D02*
X86657369Y-65079171D01*
X86943084Y-64579171D02*
X87514512Y-64579171D01*
X87157369Y-63579171D02*
X87157369Y-64864885D01*
X87157369Y-64864885D02*
X87228798Y-65007742D01*
X87228798Y-65007742D02*
X87371655Y-65079171D01*
X87371655Y-65079171D02*
X87514512Y-65079171D01*
D11*
X39389104Y-128160714D02*
X39389104Y-128636904D01*
X39674819Y-128065476D02*
X38674819Y-128398809D01*
X38674819Y-128398809D02*
X39674819Y-128732142D01*
X39151009Y-129398809D02*
X39198628Y-129541666D01*
X39198628Y-129541666D02*
X39246247Y-129589285D01*
X39246247Y-129589285D02*
X39341485Y-129636904D01*
X39341485Y-129636904D02*
X39484342Y-129636904D01*
X39484342Y-129636904D02*
X39579580Y-129589285D01*
X39579580Y-129589285D02*
X39627200Y-129541666D01*
X39627200Y-129541666D02*
X39674819Y-129446428D01*
X39674819Y-129446428D02*
X39674819Y-129065476D01*
X39674819Y-129065476D02*
X38674819Y-129065476D01*
X38674819Y-129065476D02*
X38674819Y-129398809D01*
X38674819Y-129398809D02*
X38722438Y-129494047D01*
X38722438Y-129494047D02*
X38770057Y-129541666D01*
X38770057Y-129541666D02*
X38865295Y-129589285D01*
X38865295Y-129589285D02*
X38960533Y-129589285D01*
X38960533Y-129589285D02*
X39055771Y-129541666D01*
X39055771Y-129541666D02*
X39103390Y-129494047D01*
X39103390Y-129494047D02*
X39151009Y-129398809D01*
X39151009Y-129398809D02*
X39151009Y-129065476D01*
X39674819Y-130589285D02*
X39674819Y-130017857D01*
X39674819Y-130303571D02*
X38674819Y-130303571D01*
X38674819Y-130303571D02*
X38817676Y-130208333D01*
X38817676Y-130208333D02*
X38912914Y-130113095D01*
X38912914Y-130113095D02*
X38960533Y-130017857D01*
X125404762Y-96339819D02*
X125404762Y-95339819D01*
X125404762Y-95339819D02*
X125071429Y-96054104D01*
X125071429Y-96054104D02*
X124738096Y-95339819D01*
X124738096Y-95339819D02*
X124738096Y-96339819D01*
X124261905Y-96339819D02*
X124261905Y-95673152D01*
X124261905Y-95339819D02*
X124309524Y-95387438D01*
X124309524Y-95387438D02*
X124261905Y-95435057D01*
X124261905Y-95435057D02*
X124214286Y-95387438D01*
X124214286Y-95387438D02*
X124261905Y-95339819D01*
X124261905Y-95339819D02*
X124261905Y-95435057D01*
X123357144Y-96292200D02*
X123452382Y-96339819D01*
X123452382Y-96339819D02*
X123642858Y-96339819D01*
X123642858Y-96339819D02*
X123738096Y-96292200D01*
X123738096Y-96292200D02*
X123785715Y-96244580D01*
X123785715Y-96244580D02*
X123833334Y-96149342D01*
X123833334Y-96149342D02*
X123833334Y-95863628D01*
X123833334Y-95863628D02*
X123785715Y-95768390D01*
X123785715Y-95768390D02*
X123738096Y-95720771D01*
X123738096Y-95720771D02*
X123642858Y-95673152D01*
X123642858Y-95673152D02*
X123452382Y-95673152D01*
X123452382Y-95673152D02*
X123357144Y-95720771D01*
X122928572Y-96339819D02*
X122928572Y-95673152D01*
X122928572Y-95863628D02*
X122880953Y-95768390D01*
X122880953Y-95768390D02*
X122833334Y-95720771D01*
X122833334Y-95720771D02*
X122738096Y-95673152D01*
X122738096Y-95673152D02*
X122642858Y-95673152D01*
X122166667Y-96339819D02*
X122261905Y-96292200D01*
X122261905Y-96292200D02*
X122309524Y-96244580D01*
X122309524Y-96244580D02*
X122357143Y-96149342D01*
X122357143Y-96149342D02*
X122357143Y-95863628D01*
X122357143Y-95863628D02*
X122309524Y-95768390D01*
X122309524Y-95768390D02*
X122261905Y-95720771D01*
X122261905Y-95720771D02*
X122166667Y-95673152D01*
X122166667Y-95673152D02*
X122023810Y-95673152D01*
X122023810Y-95673152D02*
X121928572Y-95720771D01*
X121928572Y-95720771D02*
X121880953Y-95768390D01*
X121880953Y-95768390D02*
X121833334Y-95863628D01*
X121833334Y-95863628D02*
X121833334Y-96149342D01*
X121833334Y-96149342D02*
X121880953Y-96244580D01*
X121880953Y-96244580D02*
X121928572Y-96292200D01*
X121928572Y-96292200D02*
X122023810Y-96339819D01*
X122023810Y-96339819D02*
X122166667Y-96339819D01*
X120976191Y-96292200D02*
X121071429Y-96339819D01*
X121071429Y-96339819D02*
X121261905Y-96339819D01*
X121261905Y-96339819D02*
X121357143Y-96292200D01*
X121357143Y-96292200D02*
X121404762Y-96244580D01*
X121404762Y-96244580D02*
X121452381Y-96149342D01*
X121452381Y-96149342D02*
X121452381Y-95863628D01*
X121452381Y-95863628D02*
X121404762Y-95768390D01*
X121404762Y-95768390D02*
X121357143Y-95720771D01*
X121357143Y-95720771D02*
X121261905Y-95673152D01*
X121261905Y-95673152D02*
X121071429Y-95673152D01*
X121071429Y-95673152D02*
X120976191Y-95720771D01*
X120404762Y-96339819D02*
X120500000Y-96292200D01*
X120500000Y-96292200D02*
X120547619Y-96244580D01*
X120547619Y-96244580D02*
X120595238Y-96149342D01*
X120595238Y-96149342D02*
X120595238Y-95863628D01*
X120595238Y-95863628D02*
X120547619Y-95768390D01*
X120547619Y-95768390D02*
X120500000Y-95720771D01*
X120500000Y-95720771D02*
X120404762Y-95673152D01*
X120404762Y-95673152D02*
X120261905Y-95673152D01*
X120261905Y-95673152D02*
X120166667Y-95720771D01*
X120166667Y-95720771D02*
X120119048Y-95768390D01*
X120119048Y-95768390D02*
X120071429Y-95863628D01*
X120071429Y-95863628D02*
X120071429Y-96149342D01*
X120071429Y-96149342D02*
X120119048Y-96244580D01*
X120119048Y-96244580D02*
X120166667Y-96292200D01*
X120166667Y-96292200D02*
X120261905Y-96339819D01*
X120261905Y-96339819D02*
X120404762Y-96339819D01*
X119642857Y-95673152D02*
X119642857Y-96339819D01*
X119642857Y-95768390D02*
X119595238Y-95720771D01*
X119595238Y-95720771D02*
X119500000Y-95673152D01*
X119500000Y-95673152D02*
X119357143Y-95673152D01*
X119357143Y-95673152D02*
X119261905Y-95720771D01*
X119261905Y-95720771D02*
X119214286Y-95816009D01*
X119214286Y-95816009D02*
X119214286Y-96339819D01*
X118880952Y-95673152D02*
X118500000Y-95673152D01*
X118738095Y-95339819D02*
X118738095Y-96196961D01*
X118738095Y-96196961D02*
X118690476Y-96292200D01*
X118690476Y-96292200D02*
X118595238Y-96339819D01*
X118595238Y-96339819D02*
X118500000Y-96339819D01*
X118166666Y-96339819D02*
X118166666Y-95673152D01*
X118166666Y-95863628D02*
X118119047Y-95768390D01*
X118119047Y-95768390D02*
X118071428Y-95720771D01*
X118071428Y-95720771D02*
X117976190Y-95673152D01*
X117976190Y-95673152D02*
X117880952Y-95673152D01*
X117404761Y-96339819D02*
X117499999Y-96292200D01*
X117499999Y-96292200D02*
X117547618Y-96244580D01*
X117547618Y-96244580D02*
X117595237Y-96149342D01*
X117595237Y-96149342D02*
X117595237Y-95863628D01*
X117595237Y-95863628D02*
X117547618Y-95768390D01*
X117547618Y-95768390D02*
X117499999Y-95720771D01*
X117499999Y-95720771D02*
X117404761Y-95673152D01*
X117404761Y-95673152D02*
X117261904Y-95673152D01*
X117261904Y-95673152D02*
X117166666Y-95720771D01*
X117166666Y-95720771D02*
X117119047Y-95768390D01*
X117119047Y-95768390D02*
X117071428Y-95863628D01*
X117071428Y-95863628D02*
X117071428Y-96149342D01*
X117071428Y-96149342D02*
X117119047Y-96244580D01*
X117119047Y-96244580D02*
X117166666Y-96292200D01*
X117166666Y-96292200D02*
X117261904Y-96339819D01*
X117261904Y-96339819D02*
X117404761Y-96339819D01*
X116499999Y-96339819D02*
X116595237Y-96292200D01*
X116595237Y-96292200D02*
X116642856Y-96196961D01*
X116642856Y-96196961D02*
X116642856Y-95339819D01*
X115976189Y-96339819D02*
X116071427Y-96292200D01*
X116071427Y-96292200D02*
X116119046Y-96196961D01*
X116119046Y-96196961D02*
X116119046Y-95339819D01*
X115214284Y-96292200D02*
X115309522Y-96339819D01*
X115309522Y-96339819D02*
X115499998Y-96339819D01*
X115499998Y-96339819D02*
X115595236Y-96292200D01*
X115595236Y-96292200D02*
X115642855Y-96196961D01*
X115642855Y-96196961D02*
X115642855Y-95816009D01*
X115642855Y-95816009D02*
X115595236Y-95720771D01*
X115595236Y-95720771D02*
X115499998Y-95673152D01*
X115499998Y-95673152D02*
X115309522Y-95673152D01*
X115309522Y-95673152D02*
X115214284Y-95720771D01*
X115214284Y-95720771D02*
X115166665Y-95816009D01*
X115166665Y-95816009D02*
X115166665Y-95911247D01*
X115166665Y-95911247D02*
X115642855Y-96006485D01*
X114738093Y-96339819D02*
X114738093Y-95673152D01*
X114738093Y-95863628D02*
X114690474Y-95768390D01*
X114690474Y-95768390D02*
X114642855Y-95720771D01*
X114642855Y-95720771D02*
X114547617Y-95673152D01*
X114547617Y-95673152D02*
X114452379Y-95673152D01*
X79775180Y-126478094D02*
X80775180Y-126478094D01*
X80775180Y-126478094D02*
X80775180Y-126239999D01*
X80775180Y-126239999D02*
X80727561Y-126097142D01*
X80727561Y-126097142D02*
X80632323Y-126001904D01*
X80632323Y-126001904D02*
X80537085Y-125954285D01*
X80537085Y-125954285D02*
X80346609Y-125906666D01*
X80346609Y-125906666D02*
X80203752Y-125906666D01*
X80203752Y-125906666D02*
X80013276Y-125954285D01*
X80013276Y-125954285D02*
X79918038Y-126001904D01*
X79918038Y-126001904D02*
X79822800Y-126097142D01*
X79822800Y-126097142D02*
X79775180Y-126239999D01*
X79775180Y-126239999D02*
X79775180Y-126478094D01*
X80298990Y-125144761D02*
X80251371Y-125001904D01*
X80251371Y-125001904D02*
X80203752Y-124954285D01*
X80203752Y-124954285D02*
X80108514Y-124906666D01*
X80108514Y-124906666D02*
X79965657Y-124906666D01*
X79965657Y-124906666D02*
X79870419Y-124954285D01*
X79870419Y-124954285D02*
X79822800Y-125001904D01*
X79822800Y-125001904D02*
X79775180Y-125097142D01*
X79775180Y-125097142D02*
X79775180Y-125478094D01*
X79775180Y-125478094D02*
X80775180Y-125478094D01*
X80775180Y-125478094D02*
X80775180Y-125144761D01*
X80775180Y-125144761D02*
X80727561Y-125049523D01*
X80727561Y-125049523D02*
X80679942Y-125001904D01*
X80679942Y-125001904D02*
X80584704Y-124954285D01*
X80584704Y-124954285D02*
X80489466Y-124954285D01*
X80489466Y-124954285D02*
X80394228Y-125001904D01*
X80394228Y-125001904D02*
X80346609Y-125049523D01*
X80346609Y-125049523D02*
X80298990Y-125144761D01*
X80298990Y-125144761D02*
X80298990Y-125478094D01*
X79775180Y-123954285D02*
X79775180Y-124525713D01*
X79775180Y-124239999D02*
X80775180Y-124239999D01*
X80775180Y-124239999D02*
X80632323Y-124335237D01*
X80632323Y-124335237D02*
X80537085Y-124430475D01*
X80537085Y-124430475D02*
X80489466Y-124525713D01*
D12*
X155747500Y-137224724D02*
X155747500Y-136715276D01*
X156792500Y-137224724D02*
X156792500Y-136715276D01*
D13*
X171567150Y-119716000D02*
G75*
G02*
X170805150Y-119716000I-381000J0D01*
G01*
X170805150Y-119716000D02*
G75*
G02*
X171567150Y-119716000I381000J0D01*
G01*
D12*
X77438748Y-121615000D02*
X77961252Y-121615000D01*
X77438748Y-123085000D02*
X77961252Y-123085000D01*
D14*
X168781150Y-124083400D02*
G75*
G02*
X168681150Y-124083400I-50000J0D01*
G01*
X168681150Y-124083400D02*
G75*
G02*
X168781150Y-124083400I50000J0D01*
G01*
D12*
X141620276Y-143227500D02*
X142129724Y-143227500D01*
X141620276Y-144272500D02*
X142129724Y-144272500D01*
X106565000Y-73198748D02*
X106565000Y-73721252D01*
X108035000Y-73198748D02*
X108035000Y-73721252D01*
X110740000Y-161046267D02*
X110740000Y-160753733D01*
X111760000Y-161046267D02*
X111760000Y-160753733D01*
X106215000Y-147588748D02*
X106215000Y-148111252D01*
X107685000Y-147588748D02*
X107685000Y-148111252D01*
X69702500Y-149679724D02*
X69702500Y-149170276D01*
X70747500Y-149679724D02*
X70747500Y-149170276D01*
X70263748Y-86465000D02*
X70786252Y-86465000D01*
X70263748Y-87935000D02*
X70786252Y-87935000D01*
X75138748Y-80865000D02*
X75661252Y-80865000D01*
X75138748Y-82335000D02*
X75661252Y-82335000D01*
X50986252Y-130090000D02*
X50463748Y-130090000D01*
X50986252Y-131560000D02*
X50463748Y-131560000D01*
X40127500Y-129629724D02*
X40127500Y-129120276D01*
X41172500Y-129629724D02*
X41172500Y-129120276D01*
X109490000Y-134463748D02*
X109490000Y-134986252D01*
X110960000Y-134463748D02*
X110960000Y-134986252D01*
X158408748Y-77345000D02*
X158931252Y-77345000D01*
X158408748Y-78815000D02*
X158931252Y-78815000D01*
X104904724Y-75287500D02*
X104395276Y-75287500D01*
X104904724Y-76332500D02*
X104395276Y-76332500D01*
X134198752Y-91140000D02*
X133676248Y-91140000D01*
X134198752Y-92610000D02*
X133676248Y-92610000D01*
X79977500Y-149879724D02*
X79977500Y-149370276D01*
X81022500Y-149879724D02*
X81022500Y-149370276D01*
X73165000Y-125338748D02*
X73165000Y-125861252D01*
X74635000Y-125338748D02*
X74635000Y-125861252D01*
X74938748Y-86490000D02*
X75461252Y-86490000D01*
X74938748Y-87960000D02*
X75461252Y-87960000D01*
X101915000Y-157161252D02*
X101915000Y-156638748D01*
X103385000Y-157161252D02*
X103385000Y-156638748D01*
X103340000Y-139713748D02*
X103340000Y-140236252D01*
X104810000Y-139713748D02*
X104810000Y-140236252D01*
X83438748Y-132265000D02*
X83961252Y-132265000D01*
X83438748Y-133735000D02*
X83961252Y-133735000D01*
X70313748Y-127240000D02*
X70836252Y-127240000D01*
X70313748Y-128710000D02*
X70836252Y-128710000D01*
X39163748Y-125765000D02*
X39686252Y-125765000D01*
X39163748Y-127235000D02*
X39686252Y-127235000D01*
X66790000Y-86511252D02*
X66790000Y-85988748D01*
X68260000Y-86511252D02*
X68260000Y-85988748D01*
X50986252Y-128090000D02*
X50463748Y-128090000D01*
X50986252Y-129560000D02*
X50463748Y-129560000D01*
X109640000Y-93165000D02*
X108960000Y-93165000D01*
X109300000Y-92695001D01*
X109640000Y-93165000D01*
G36*
X109640000Y-93165000D02*
G01*
X108960000Y-93165000D01*
X109300000Y-92695001D01*
X109640000Y-93165000D01*
G37*
X130110000Y-93645000D02*
X129160001Y-93645000D01*
X130110000Y-92695001D02*
X130110000Y-93645000D01*
X130110000Y-74374999D02*
X130110000Y-73425000D01*
X130110000Y-73425000D02*
X129160001Y-73425000D01*
X109890000Y-93645000D02*
X110839999Y-93645000D01*
X109890000Y-92695001D02*
X109890000Y-93645000D01*
X109890000Y-74374999D02*
X109890000Y-73425000D01*
X109890000Y-73425000D02*
X110839999Y-73425000D01*
X158183748Y-90295000D02*
X158706252Y-90295000D01*
X158183748Y-91765000D02*
X158706252Y-91765000D01*
X113415000Y-156913748D02*
X113415000Y-157436252D01*
X114885000Y-156913748D02*
X114885000Y-157436252D01*
X114240000Y-134861252D02*
X114240000Y-134338748D01*
X115710000Y-134861252D02*
X115710000Y-134338748D01*
X161696150Y-124869652D02*
X161696150Y-124347148D01*
X163166150Y-124869652D02*
X163166150Y-124347148D01*
X77911252Y-127465000D02*
X77388748Y-127465000D01*
X77911252Y-128935000D02*
X77388748Y-128935000D01*
X105965000Y-134936252D02*
X105965000Y-134413748D01*
X107435000Y-134936252D02*
X107435000Y-134413748D01*
X128490000Y-69198748D02*
X128490000Y-69721252D01*
X129960000Y-69198748D02*
X129960000Y-69721252D01*
X164666150Y-123219652D02*
X164666150Y-122697148D01*
X166136150Y-123219652D02*
X166136150Y-122697148D01*
X39811252Y-131590000D02*
X39288748Y-131590000D01*
X39811252Y-133060000D02*
X39288748Y-133060000D01*
X78202500Y-125479724D02*
X78202500Y-124970276D01*
X79247500Y-125479724D02*
X79247500Y-124970276D01*
X86863748Y-86515000D02*
X87386252Y-86515000D01*
X86863748Y-87985000D02*
X87386252Y-87985000D01*
X70836252Y-80715000D02*
X70313748Y-80715000D01*
X70836252Y-82185000D02*
X70313748Y-82185000D01*
X39801252Y-149855000D02*
X39278748Y-149855000D01*
X39801252Y-151325000D02*
X39278748Y-151325000D01*
X143752500Y-146120276D02*
X143752500Y-146629724D01*
X144797500Y-146120276D02*
X144797500Y-146629724D01*
X79313748Y-86390000D02*
X79836252Y-86390000D01*
X79313748Y-87860000D02*
X79836252Y-87860000D01*
X51278748Y-151295000D02*
X51801252Y-151295000D01*
X51278748Y-149825000D02*
X51801252Y-149825000D01*
D15*
X173346150Y-126853400D03*
D16*
X125200000Y-164675000D03*
X129600000Y-164675000D03*
%LPC*%
D17*
X156270000Y-136057500D03*
X156270000Y-137882500D03*
D18*
X109030000Y-165100000D03*
X111570000Y-165100000D03*
X114110000Y-165100000D03*
X116650000Y-165100000D03*
D19*
X118040000Y-160900000D03*
X107640000Y-160900000D03*
D20*
X150830000Y-140960000D03*
D21*
X153370000Y-140960000D03*
X155910000Y-140960000D03*
X158450000Y-140960000D03*
D22*
X84890000Y-150780000D03*
X87390000Y-150780000D03*
D18*
X93830000Y-165175000D03*
X96370000Y-165175000D03*
X98910000Y-165175000D03*
X101450000Y-165175000D03*
D19*
X92440000Y-160975000D03*
X102840000Y-160975000D03*
D23*
X171186150Y-121773400D03*
X171186150Y-124313400D03*
X171186150Y-126853400D03*
X171186150Y-129393400D03*
D24*
X123645113Y-151400000D03*
D22*
X121645113Y-151400000D03*
D25*
X120675000Y-138000000D03*
D26*
X123175000Y-138000000D03*
X125675000Y-138000000D03*
D27*
X33225000Y-160225000D03*
D28*
X38525000Y-160225000D03*
X52525000Y-160225000D03*
D27*
X63050000Y-160250000D03*
D28*
X68350000Y-160250000D03*
X82350000Y-160250000D03*
D22*
X65730000Y-150500000D03*
X63230000Y-150500000D03*
D20*
X107950000Y-50450000D03*
D21*
X105410000Y-50450000D03*
X102870000Y-50450000D03*
X100330000Y-50450000D03*
X97790000Y-50450000D03*
X95250000Y-50450000D03*
X92710000Y-50450000D03*
X90170000Y-50450000D03*
X87630000Y-50450000D03*
D20*
X129400000Y-50450000D03*
D21*
X126860000Y-50450000D03*
X124320000Y-50450000D03*
X121780000Y-50450000D03*
D29*
X78737500Y-122350000D03*
X76662500Y-122350000D03*
D30*
X168731150Y-123455900D03*
X168731150Y-122640900D03*
D31*
X142787500Y-143750000D03*
X140962500Y-143750000D03*
D32*
X107300000Y-74497500D03*
X107300000Y-72422500D03*
D33*
X111250000Y-160037500D03*
X111250000Y-161762500D03*
D32*
X106950000Y-148887500D03*
X106950000Y-146812500D03*
D17*
X70225000Y-148512500D03*
X70225000Y-150337500D03*
D29*
X71562500Y-87200000D03*
X69487500Y-87200000D03*
X76437500Y-81600000D03*
X74362500Y-81600000D03*
D34*
X49687500Y-130825000D03*
X51762500Y-130825000D03*
D17*
X40650000Y-128462500D03*
X40650000Y-130287500D03*
D32*
X110225000Y-135762500D03*
X110225000Y-133687500D03*
D29*
X159707500Y-78080000D03*
X157632500Y-78080000D03*
D35*
X103737500Y-75810000D03*
X105562500Y-75810000D03*
D34*
X132900000Y-91875000D03*
X134975000Y-91875000D03*
D24*
X156601150Y-124370780D03*
D22*
X156601150Y-121870780D03*
D17*
X80500000Y-148712500D03*
X80500000Y-150537500D03*
D32*
X73900000Y-126637500D03*
X73900000Y-124562500D03*
D29*
X76237500Y-87225000D03*
X74162500Y-87225000D03*
D36*
X102650000Y-155862500D03*
X102650000Y-157937500D03*
D32*
X104075000Y-141012500D03*
X104075000Y-138937500D03*
D29*
X84737500Y-133000000D03*
X82662500Y-133000000D03*
X71612500Y-127975000D03*
X69537500Y-127975000D03*
X40462500Y-126500000D03*
X38387500Y-126500000D03*
D36*
X67525000Y-85212500D03*
X67525000Y-87287500D03*
D34*
X49687500Y-128825000D03*
X51762500Y-128825000D03*
D37*
X111250000Y-94197500D03*
X111750000Y-94197500D03*
X112250000Y-94197501D03*
X112750000Y-94197500D03*
X113250000Y-94197500D03*
X113750001Y-94197500D03*
X114250000Y-94197500D03*
X114749999Y-94197500D03*
X115250000Y-94197500D03*
X115750000Y-94197500D03*
X116250001Y-94197500D03*
X116750000Y-94197500D03*
X117250000Y-94197500D03*
X117750000Y-94197500D03*
X118250000Y-94197500D03*
X118750000Y-94197501D03*
X119250000Y-94197500D03*
X119750000Y-94197500D03*
X120250000Y-94197500D03*
X120750000Y-94197500D03*
X121250000Y-94197501D03*
X121750000Y-94197500D03*
X122250000Y-94197500D03*
X122750000Y-94197500D03*
X123250000Y-94197500D03*
X123749999Y-94197500D03*
X124250000Y-94197500D03*
X124750000Y-94197500D03*
X125250001Y-94197500D03*
X125750000Y-94197500D03*
X126249999Y-94197500D03*
X126750000Y-94197500D03*
X127250000Y-94197500D03*
X127750000Y-94197501D03*
X128250000Y-94197500D03*
X128750000Y-94197500D03*
D38*
X130662500Y-92285000D03*
X130662500Y-91785000D03*
X130662501Y-91285000D03*
X130662500Y-90785000D03*
X130662500Y-90285000D03*
X130662500Y-89784999D03*
X130662500Y-89285000D03*
X130662500Y-88785001D03*
X130662500Y-88285000D03*
X130662500Y-87785000D03*
X130662500Y-87284999D03*
X130662500Y-86785000D03*
X130662500Y-86285000D03*
X130662500Y-85785000D03*
X130662500Y-85285000D03*
X130662501Y-84785000D03*
X130662500Y-84285000D03*
X130662500Y-83785000D03*
X130662500Y-83285000D03*
X130662500Y-82785000D03*
X130662501Y-82285000D03*
X130662500Y-81785000D03*
X130662500Y-81285000D03*
X130662500Y-80785000D03*
X130662500Y-80285000D03*
X130662500Y-79785001D03*
X130662500Y-79285000D03*
X130662500Y-78785000D03*
X130662500Y-78284999D03*
X130662500Y-77785000D03*
X130662500Y-77285001D03*
X130662500Y-76785000D03*
X130662500Y-76285000D03*
X130662501Y-75785000D03*
X130662500Y-75285000D03*
X130662500Y-74785000D03*
D37*
X128750000Y-72872500D03*
X128250000Y-72872500D03*
X127750000Y-72872499D03*
X127250000Y-72872500D03*
X126750000Y-72872500D03*
X126249999Y-72872500D03*
X125750000Y-72872500D03*
X125250001Y-72872500D03*
X124750000Y-72872500D03*
X124250000Y-72872500D03*
X123749999Y-72872500D03*
X123250000Y-72872500D03*
X122750000Y-72872500D03*
X122250000Y-72872500D03*
X121750000Y-72872500D03*
X121250000Y-72872499D03*
X120750000Y-72872500D03*
X120250000Y-72872500D03*
X119750000Y-72872500D03*
X119250000Y-72872500D03*
X118750000Y-72872499D03*
X118250000Y-72872500D03*
X117750000Y-72872500D03*
X117250000Y-72872500D03*
X116750000Y-72872500D03*
X116250001Y-72872500D03*
X115750000Y-72872500D03*
X115250000Y-72872500D03*
X114749999Y-72872500D03*
X114250000Y-72872500D03*
X113750001Y-72872500D03*
X113250000Y-72872500D03*
X112750000Y-72872500D03*
X112250000Y-72872499D03*
X111750000Y-72872500D03*
X111250000Y-72872500D03*
D38*
X109337500Y-74785000D03*
X109337500Y-75285000D03*
X109337499Y-75785000D03*
X109337500Y-76285000D03*
X109337500Y-76785000D03*
X109337500Y-77285001D03*
X109337500Y-77785000D03*
X109337500Y-78284999D03*
X109337500Y-78785000D03*
X109337500Y-79285000D03*
X109337500Y-79785001D03*
X109337500Y-80285000D03*
X109337500Y-80785000D03*
X109337500Y-81285000D03*
X109337500Y-81785000D03*
X109337499Y-82285000D03*
X109337500Y-82785000D03*
X109337500Y-83285000D03*
X109337500Y-83785000D03*
X109337500Y-84285000D03*
X109337499Y-84785000D03*
X109337500Y-85285000D03*
X109337500Y-85785000D03*
X109337500Y-86285000D03*
X109337500Y-86785000D03*
X109337500Y-87284999D03*
X109337500Y-87785000D03*
X109337500Y-88285000D03*
X109337500Y-88785001D03*
X109337500Y-89285000D03*
X109337500Y-89784999D03*
X109337500Y-90285000D03*
X109337500Y-90785000D03*
X109337499Y-91285000D03*
X109337500Y-91785000D03*
X109337500Y-92285000D03*
D29*
X159482500Y-91030000D03*
X157407500Y-91030000D03*
D32*
X114150000Y-158212500D03*
X114150000Y-156137500D03*
D36*
X114975000Y-133562500D03*
X114975000Y-135637500D03*
X162431150Y-123570900D03*
X162431150Y-125645900D03*
D34*
X76612500Y-128200000D03*
X78687500Y-128200000D03*
D36*
X106700000Y-133637500D03*
X106700000Y-135712500D03*
D32*
X129225000Y-70497500D03*
X129225000Y-68422500D03*
D36*
X165401150Y-121920900D03*
X165401150Y-123995900D03*
D34*
X38512500Y-132325000D03*
X40587500Y-132325000D03*
D17*
X78725000Y-124312500D03*
X78725000Y-126137500D03*
D29*
X88162500Y-87250000D03*
X86087500Y-87250000D03*
D34*
X69537500Y-81450000D03*
X71612500Y-81450000D03*
X38502500Y-150590000D03*
X40577500Y-150590000D03*
D39*
X144275000Y-147287500D03*
X144275000Y-145462500D03*
D29*
X80612500Y-87125000D03*
X78537500Y-87125000D03*
X52577500Y-150560000D03*
X50502500Y-150560000D03*
D40*
X134280000Y-130460000D03*
X157640000Y-136040000D03*
X105320000Y-148880000D03*
X116820000Y-146960000D03*
X110630000Y-85870000D03*
X122380000Y-74230000D03*
X125910000Y-78940000D03*
X122240000Y-80790000D03*
X115860000Y-80280000D03*
X116290000Y-90000000D03*
X121610000Y-88130000D03*
X125910000Y-84170000D03*
X126100000Y-90610000D03*
X124080000Y-89820000D03*
X120080000Y-92790000D03*
X119020000Y-95830000D03*
X134980000Y-93350000D03*
X109970000Y-137100000D03*
X111520000Y-140210000D03*
X111530000Y-128730000D03*
X112770000Y-131780000D03*
X144290000Y-148480000D03*
X142920000Y-147290000D03*
X105690000Y-138920000D03*
D41*
X128260000Y-164110000D03*
X128990000Y-159770000D03*
D40*
X114140000Y-154530000D03*
X105670000Y-140570000D03*
X104070000Y-137620000D03*
X98860000Y-140050000D03*
X72970000Y-81530000D03*
X68190000Y-81440000D03*
X80620000Y-85690000D03*
X86080000Y-85820000D03*
X76690000Y-92040000D03*
X71820000Y-91900000D03*
X66320000Y-78640000D03*
X69500000Y-76820000D03*
X74110000Y-76830000D03*
X78080000Y-76870000D03*
X89890000Y-78620000D03*
X66200000Y-85210000D03*
X157450000Y-76310000D03*
X159100000Y-73140000D03*
X158160000Y-73100000D03*
X159750000Y-79480000D03*
X159130000Y-95870000D03*
X158190000Y-95920000D03*
X160790000Y-91020000D03*
X159460000Y-89600000D03*
X44610000Y-132860000D03*
X45420000Y-135650000D03*
X51770000Y-132140000D03*
X53130000Y-130800000D03*
X53090000Y-128800000D03*
X51760000Y-127410000D03*
X51540000Y-135720000D03*
X52850000Y-134300000D03*
X51520000Y-132790000D03*
X38630000Y-135720000D03*
X37260000Y-134280000D03*
X37280000Y-132290000D03*
X38510000Y-130940000D03*
X41740000Y-126470000D03*
X40460000Y-125120000D03*
X38400000Y-127840000D03*
X37170000Y-126460000D03*
X38390000Y-125120000D03*
X43140000Y-119640000D03*
X44590000Y-118320000D03*
X75650000Y-131700000D03*
X72670000Y-131690000D03*
X80150000Y-135170000D03*
X81620000Y-134310000D03*
X67360000Y-136130000D03*
X66000000Y-134610000D03*
X67350000Y-133160000D03*
X84750000Y-134360000D03*
X86020000Y-132980000D03*
X69550000Y-129310000D03*
X68320000Y-127940000D03*
X69530000Y-126630000D03*
X76620000Y-126830000D03*
X75350000Y-128180000D03*
X72420000Y-126600000D03*
X75250000Y-124530000D03*
X72520000Y-124540000D03*
X73910000Y-123330000D03*
X78740000Y-120980000D03*
X76670000Y-123690000D03*
X76650000Y-121000000D03*
X75470000Y-122330000D03*
X130480000Y-53360000D03*
X129250000Y-54670000D03*
X125980000Y-53250000D03*
D41*
X137010000Y-69910000D03*
X135400000Y-68580000D03*
X133940000Y-69930000D03*
X135420000Y-73460000D03*
X104090000Y-98160000D03*
X105420000Y-96670000D03*
X104030000Y-95200000D03*
X100540000Y-96650000D03*
X107125000Y-143750000D03*
D40*
X125850000Y-143750000D03*
D41*
X103325000Y-143750000D03*
X125850000Y-159850000D03*
X113175000Y-143750000D03*
D40*
X47175000Y-117650000D03*
X129075000Y-117625000D03*
X129075000Y-95650000D03*
X110675000Y-87850000D03*
D41*
X163941150Y-125598400D03*
D40*
X78537500Y-85800000D03*
X104075000Y-142150000D03*
X49700000Y-127250000D03*
X44525000Y-126950000D03*
X122275000Y-78650000D03*
X119270000Y-75820000D03*
X75625000Y-129500000D03*
X120900000Y-91300000D03*
X78250000Y-88475000D03*
X110600000Y-78500000D03*
X78825000Y-132325000D03*
X112950000Y-133650000D03*
X110800000Y-83400000D03*
X49700000Y-132200000D03*
X88550000Y-88525000D03*
X124075000Y-74235000D03*
X88200000Y-85700000D03*
X116250000Y-81225000D03*
X66300000Y-87300000D03*
X71600000Y-83000000D03*
X74162500Y-85800000D03*
X76600000Y-80225000D03*
D41*
X165411150Y-125338400D03*
D40*
X73025000Y-127975000D03*
X46525000Y-131650000D03*
X108875000Y-147450000D03*
X115800000Y-91500000D03*
X156270000Y-78130000D03*
X112550000Y-74210000D03*
X114675000Y-148350000D03*
X157945000Y-92955000D03*
X71825000Y-80050000D03*
X75625000Y-130525000D03*
X110630000Y-89080000D03*
X110600000Y-89784999D03*
X107025000Y-145275000D03*
X116300000Y-132675000D03*
X110700000Y-76010000D03*
X108050000Y-133025000D03*
X43125000Y-121675000D03*
X101300000Y-141000001D03*
X129250000Y-92550000D03*
X117200000Y-92925000D03*
X110300000Y-132400000D03*
X129225000Y-86075000D03*
D41*
X166931150Y-123978400D03*
X162441150Y-127068400D03*
D40*
X121600000Y-83400000D03*
X80425000Y-122350000D03*
X117950000Y-77400000D03*
X119240000Y-74190000D03*
X112375000Y-92900000D03*
X69487500Y-85712500D03*
X155970000Y-91030000D03*
X126300000Y-92700000D03*
X126000000Y-75800000D03*
X77700000Y-81600000D03*
X117800000Y-86450000D03*
X110775000Y-92950000D03*
X127600000Y-87400000D03*
X103750000Y-74610000D03*
X116375000Y-131675000D03*
X126100000Y-81100000D03*
X128775000Y-74225000D03*
X122125000Y-92725000D03*
X69300000Y-88675000D03*
X110675000Y-79400000D03*
X74200000Y-88575000D03*
X110560000Y-131680000D03*
X129250000Y-80775000D03*
X112510000Y-140190000D03*
X67700000Y-88700000D03*
X48000000Y-112035000D03*
X113725000Y-112035000D03*
X113725000Y-74210000D03*
X45475000Y-132575000D03*
X43852775Y-135727223D03*
X45825000Y-112860000D03*
X113100000Y-112810000D03*
X113150000Y-74835000D03*
X46475000Y-110685000D03*
X114662500Y-110672500D03*
X114725000Y-74235000D03*
X113000000Y-128850000D03*
D41*
X121920000Y-156150000D03*
D40*
X116600000Y-135225000D03*
X136250000Y-91875000D03*
X108600000Y-140525000D03*
D41*
X71500000Y-85700000D03*
X112100000Y-76000000D03*
X76237500Y-85900000D03*
D40*
X119100000Y-80875000D03*
X118345727Y-71513513D03*
X132300000Y-79800000D03*
X74400000Y-83000000D03*
X127600000Y-82900000D03*
D41*
X110760000Y-85150000D03*
D40*
X78200000Y-79900000D03*
X112000000Y-137125000D03*
X105775000Y-72360000D03*
X106925000Y-150450000D03*
X161170000Y-78030000D03*
X119100000Y-90100000D03*
D41*
X162431150Y-122208400D03*
X163911150Y-121938400D03*
D40*
X111675000Y-135800000D03*
X116455913Y-136630913D03*
D41*
X129325000Y-91525000D03*
D40*
X117725000Y-88650000D03*
D41*
X109450000Y-148375000D03*
D40*
X129225000Y-84775000D03*
X47350000Y-132650000D03*
X67625000Y-83900000D03*
X67725000Y-80100000D03*
D41*
X166991150Y-121908400D03*
D40*
X110600000Y-72000000D03*
D41*
X123410000Y-154780000D03*
X115875000Y-74400000D03*
D40*
X118000000Y-74100000D03*
X158869448Y-76176175D03*
X81650000Y-87125000D03*
X109550000Y-131650000D03*
X69600000Y-83000000D03*
X42850000Y-127225000D03*
X112600000Y-156125000D03*
D41*
X110800000Y-91787500D03*
D40*
X85050000Y-87250000D03*
D41*
X163941150Y-123548400D03*
D40*
X129100000Y-79400000D03*
D41*
X108150000Y-135725000D03*
D40*
X76575000Y-88575000D03*
X134725000Y-140600000D03*
X108700000Y-72400000D03*
X113025000Y-137250000D03*
X127700000Y-89400000D03*
X121200000Y-75800000D03*
D41*
X117950000Y-84500000D03*
D40*
X112950000Y-135275000D03*
X43780339Y-126860641D03*
X115825000Y-77300000D03*
X74100000Y-80250000D03*
X96200000Y-140050000D03*
X123200000Y-86600000D03*
X116500000Y-136100000D03*
D41*
X123910000Y-92600000D03*
D40*
X132400000Y-85300000D03*
D41*
X130550000Y-68410000D03*
D40*
X108875000Y-131625000D03*
D41*
X110810000Y-77310000D03*
D40*
X111550000Y-131700000D03*
X158970000Y-92880000D03*
X88600000Y-80275000D03*
X112050000Y-84550000D03*
X135725000Y-132050000D03*
D41*
X125060000Y-156210000D03*
X165391150Y-120548400D03*
D40*
X111300000Y-74200000D03*
X69362500Y-80062500D03*
X101525000Y-140050000D03*
X118250000Y-145450000D03*
X125300000Y-91300000D03*
X71800000Y-88575000D03*
D41*
X123005736Y-74190736D03*
D40*
X118800000Y-92900000D03*
X127500000Y-77700000D03*
D41*
X160891150Y-123538400D03*
D40*
X44575000Y-135525000D03*
X98850000Y-120810000D03*
X130925000Y-120810000D03*
X98850000Y-80360001D03*
D42*
X83150000Y-151260000D03*
D40*
X81550000Y-132950000D03*
X103400000Y-129625000D03*
X103400000Y-123125000D03*
X137400000Y-86325000D03*
X82575000Y-129675000D03*
X137400000Y-123100000D03*
X98050000Y-79300000D03*
X82025000Y-131050000D03*
X98050000Y-131050000D03*
X138000000Y-74725000D03*
X102250000Y-123850000D03*
X102250000Y-131700000D03*
X137950000Y-123725000D03*
X82825000Y-131725000D03*
D42*
X67520000Y-150910000D03*
D40*
X83525000Y-130425000D03*
X102825000Y-130375000D03*
X138650000Y-75300000D03*
X138650000Y-124600000D03*
X102825000Y-124525000D03*
X78200000Y-133650000D03*
X72500000Y-134250000D03*
X74250000Y-135125000D03*
X142525000Y-59475000D03*
X142525000Y-80775000D03*
X161995000Y-59605000D03*
X65660000Y-93400000D03*
X68600000Y-93390000D03*
X65760000Y-59475000D03*
X154795000Y-66015000D03*
X93680000Y-100100000D03*
X123050000Y-65985000D03*
X123050000Y-71435000D03*
X75800000Y-100110000D03*
X93680000Y-65985000D03*
X122625000Y-107775000D03*
X122625000Y-95550000D03*
X155445000Y-107805000D03*
X123900000Y-65335000D03*
X123900000Y-71410000D03*
X154213388Y-65440000D03*
X94160000Y-65335000D03*
X94160000Y-100710000D03*
X77400000Y-100685000D03*
X65190000Y-94370000D03*
X161370000Y-58880000D03*
X65260000Y-58870000D03*
X70090000Y-94330000D03*
X143125000Y-81375000D03*
X143100000Y-58875000D03*
X156020000Y-106455000D03*
X124700000Y-106375000D03*
X124675000Y-95675000D03*
X122450000Y-66585000D03*
X155445000Y-66615000D03*
X122450000Y-70585000D03*
X75000000Y-99585000D03*
X93205000Y-66585000D03*
X93205000Y-99590000D03*
X123800000Y-107050000D03*
X123825000Y-95775000D03*
X161095000Y-107080000D03*
X156195000Y-67265000D03*
X73400000Y-98835000D03*
X121825000Y-67185000D03*
X121850000Y-71460000D03*
X92720000Y-67310000D03*
X92730000Y-98830000D03*
X160620000Y-101005000D03*
X141900000Y-78750000D03*
X141900000Y-100975000D03*
X156645000Y-99355000D03*
X148885000Y-99325000D03*
X148885000Y-87284999D03*
X107875000Y-103360000D03*
X107803435Y-84058096D03*
X161720000Y-103390000D03*
X72600000Y-105775000D03*
X147940000Y-63325000D03*
X125725000Y-95675000D03*
X147900000Y-105850000D03*
X160395000Y-63355000D03*
X125750000Y-105775000D03*
X141200000Y-78275000D03*
X141275000Y-100300000D03*
X160120000Y-100255000D03*
X160970000Y-63980000D03*
X71000000Y-105175000D03*
X148415000Y-105175000D03*
X127025000Y-95700000D03*
X148415000Y-63990000D03*
X127050000Y-105175000D03*
X96075000Y-93710000D03*
X96080000Y-86190000D03*
X87800000Y-93710000D03*
X127325000Y-71260000D03*
X127475000Y-55500000D03*
X83800000Y-69235000D03*
X126250000Y-62610000D03*
X73400000Y-62610000D03*
X126225000Y-69185000D03*
X125650000Y-63310000D03*
X75000000Y-63310000D03*
X125650000Y-69685000D03*
X112575000Y-95850000D03*
X91770000Y-102670000D03*
X91770000Y-73325000D03*
X79800000Y-73325000D03*
X112575000Y-102785000D03*
X85400000Y-70535000D03*
X96550000Y-86785000D03*
X96550000Y-94360000D03*
X87000000Y-94335000D03*
X97030000Y-87284999D03*
X97025000Y-94985000D03*
X86200000Y-94935000D03*
X99425000Y-78250000D03*
X81400000Y-75860000D03*
X99425000Y-75870000D03*
X140575000Y-77825000D03*
X68600000Y-60275000D03*
X140575000Y-60350000D03*
X97500000Y-95685000D03*
X97500000Y-87950000D03*
X85400000Y-95685000D03*
X86210000Y-71010000D03*
X124500000Y-70885000D03*
X124500000Y-64760000D03*
X77400000Y-64785000D03*
X144550000Y-83300000D03*
X83800000Y-104575000D03*
X144550000Y-104575000D03*
X84600000Y-69835000D03*
X126800000Y-68685654D03*
X72600000Y-62035000D03*
X126900000Y-62010000D03*
X139925000Y-60950000D03*
X70200000Y-60875000D03*
X139950000Y-77275000D03*
X94640000Y-101460000D03*
X94630000Y-71435000D03*
X81400000Y-101460000D03*
X82200000Y-92310000D03*
X95125000Y-92310000D03*
X95110000Y-79008332D03*
X125075000Y-70385000D03*
X75800000Y-64060000D03*
X125050000Y-64060000D03*
X87700000Y-77135000D03*
X103400000Y-77135000D03*
X103400000Y-85735000D03*
X111827588Y-95912285D03*
X111900000Y-102210000D03*
X79000000Y-102175000D03*
X143900000Y-103935000D03*
X143900000Y-82750000D03*
X83000000Y-103935000D03*
X87000000Y-76435000D03*
X102300000Y-85235000D03*
X102300000Y-76435000D03*
X79775000Y-92985000D03*
X95600000Y-92990000D03*
X95600000Y-79735000D03*
X80600000Y-58300000D03*
X145030000Y-58300000D03*
X145025000Y-84785000D03*
X117275000Y-106350000D03*
X117275000Y-95725000D03*
X80600000Y-106350000D03*
X71010000Y-61435000D03*
X139200000Y-61435000D03*
X139225000Y-76800000D03*
X92245000Y-68635000D03*
X92245000Y-97840000D03*
X84600000Y-97835000D03*
X147425000Y-94197500D03*
X115895758Y-96265153D03*
X146950000Y-90925000D03*
X116525552Y-95696175D03*
X100025000Y-135950000D03*
X121825000Y-122425000D03*
X121800000Y-95675000D03*
X97250000Y-122425000D03*
X97225000Y-135925000D03*
X128050000Y-56900000D03*
X128050000Y-70744468D03*
X105175000Y-90535000D03*
X104950000Y-57725000D03*
X123200000Y-96800000D03*
X145300000Y-88750000D03*
X145325000Y-143750000D03*
X146475000Y-141725000D03*
X146475000Y-90350000D03*
X127400000Y-141750000D03*
X104199997Y-57725000D03*
X104225000Y-90020542D03*
X126625000Y-142325000D03*
X145900000Y-89775000D03*
X145875000Y-142325000D03*
X106475000Y-91710000D03*
X106475000Y-55650000D03*
X101375000Y-57725000D03*
X101350000Y-89435000D03*
X105900000Y-91119370D03*
X105900000Y-57725000D03*
X100775000Y-88835000D03*
X100624997Y-57725000D03*
X83000000Y-67835000D03*
X99874994Y-57725000D03*
X99900000Y-88360000D03*
D41*
X100890000Y-155960000D03*
D40*
X107300000Y-92235000D03*
X107201000Y-55461778D03*
X107750000Y-83310000D03*
X107750000Y-57725000D03*
%LPD*%
M02*
