G04 #@! TF.GenerationSoftware,KiCad,Pcbnew,8.0.5*
G04 #@! TF.CreationDate,2024-11-21T04:32:58-05:00*
G04 #@! TF.ProjectId,PCB_Order3,5043425f-4f72-4646-9572-332e6b696361,rev?*
G04 #@! TF.SameCoordinates,Original*
G04 #@! TF.FileFunction,Soldermask,Bot*
G04 #@! TF.FilePolarity,Negative*
%FSLAX46Y46*%
G04 Gerber Fmt 4.6, Leading zero omitted, Abs format (unit mm)*
G04 Created by KiCad (PCBNEW 8.0.5) date 2024-11-21 04:32:58*
%MOMM*%
%LPD*%
G01*
G04 APERTURE LIST*
G04 Aperture macros list*
%AMRoundRect*
0 Rectangle with rounded corners*
0 $1 Rounding radius*
0 $2 $3 $4 $5 $6 $7 $8 $9 X,Y pos of 4 corners*
0 Add a 4 corners polygon primitive as box body*
4,1,4,$2,$3,$4,$5,$6,$7,$8,$9,$2,$3,0*
0 Add four circle primitives for the rounded corners*
1,1,$1+$1,$2,$3*
1,1,$1+$1,$4,$5*
1,1,$1+$1,$6,$7*
1,1,$1+$1,$8,$9*
0 Add four rect primitives between the rounded corners*
20,1,$1+$1,$2,$3,$4,$5,0*
20,1,$1+$1,$4,$5,$6,$7,0*
20,1,$1+$1,$6,$7,$8,$9,0*
20,1,$1+$1,$8,$9,$2,$3,0*%
G04 Aperture macros list end*
%ADD10RoundRect,0.237500X-0.237500X0.250000X-0.237500X-0.250000X0.237500X-0.250000X0.237500X0.250000X0*%
%ADD11C,1.303000*%
%ADD12C,1.300000*%
%ADD13R,1.700000X1.700000*%
%ADD14O,1.700000X1.700000*%
%ADD15C,1.600000*%
%ADD16C,1.574800*%
%ADD17R,1.600000X1.600000*%
%ADD18R,1.320800X1.320800*%
%ADD19C,1.320800*%
%ADD20R,3.765000X3.765000*%
%ADD21C,3.765000*%
%ADD22RoundRect,0.250000X0.337500X0.475000X-0.337500X0.475000X-0.337500X-0.475000X0.337500X-0.475000X0*%
%ADD23RoundRect,0.100000X0.100000X-0.217500X0.100000X0.217500X-0.100000X0.217500X-0.100000X-0.217500X0*%
%ADD24RoundRect,0.237500X0.250000X0.237500X-0.250000X0.237500X-0.250000X-0.237500X0.250000X-0.237500X0*%
%ADD25RoundRect,0.250000X0.475000X-0.337500X0.475000X0.337500X-0.475000X0.337500X-0.475000X-0.337500X0*%
%ADD26RoundRect,0.237500X-0.237500X0.300000X-0.237500X-0.300000X0.237500X-0.300000X0.237500X0.300000X0*%
%ADD27RoundRect,0.250000X-0.337500X-0.475000X0.337500X-0.475000X0.337500X0.475000X-0.337500X0.475000X0*%
%ADD28RoundRect,0.237500X-0.250000X-0.237500X0.250000X-0.237500X0.250000X0.237500X-0.250000X0.237500X0*%
%ADD29RoundRect,0.250000X-0.475000X0.337500X-0.475000X-0.337500X0.475000X-0.337500X0.475000X0.337500X0*%
%ADD30RoundRect,0.075000X-0.075000X-0.662500X0.075000X-0.662500X0.075000X0.662500X-0.075000X0.662500X0*%
%ADD31RoundRect,0.075000X-0.662500X-0.075000X0.662500X-0.075000X0.662500X0.075000X-0.662500X0.075000X0*%
%ADD32RoundRect,0.237500X0.237500X-0.250000X0.237500X0.250000X-0.237500X0.250000X-0.237500X-0.250000X0*%
%ADD33C,0.350000*%
%ADD34C,0.450000*%
%ADD35C,0.600000*%
G04 APERTURE END LIST*
D10*
X156270000Y-136057500D03*
X156270000Y-137882500D03*
D11*
X109030000Y-165100000D03*
X111570000Y-165100000D03*
X114110000Y-165100000D03*
X116650000Y-165100000D03*
D12*
X118040000Y-160900000D03*
X107640000Y-160900000D03*
D13*
X150830000Y-140960000D03*
D14*
X153370000Y-140960000D03*
X155910000Y-140960000D03*
X158450000Y-140960000D03*
D15*
X84890000Y-150780000D03*
X87390000Y-150780000D03*
D11*
X93830000Y-165175000D03*
X96370000Y-165175000D03*
X98910000Y-165175000D03*
X101450000Y-165175000D03*
D12*
X92440000Y-160975000D03*
X102840000Y-160975000D03*
D16*
X171186150Y-121773400D03*
X171186150Y-124313400D03*
X171186150Y-126853400D03*
X171186150Y-129393400D03*
D17*
X123645113Y-151400000D03*
D15*
X121645113Y-151400000D03*
D18*
X120675000Y-138000000D03*
D19*
X123175000Y-138000000D03*
X125675000Y-138000000D03*
D20*
X33225000Y-160225000D03*
D21*
X38525000Y-160225000D03*
X52525000Y-160225000D03*
D20*
X63050000Y-160250000D03*
D21*
X68350000Y-160250000D03*
X82350000Y-160250000D03*
D15*
X65730000Y-150500000D03*
X63230000Y-150500000D03*
D13*
X107950000Y-50450000D03*
D14*
X105410000Y-50450000D03*
X102870000Y-50450000D03*
X100330000Y-50450000D03*
X97790000Y-50450000D03*
X95250000Y-50450000D03*
X92710000Y-50450000D03*
X90170000Y-50450000D03*
X87630000Y-50450000D03*
D13*
X129400000Y-50450000D03*
D14*
X126860000Y-50450000D03*
X124320000Y-50450000D03*
X121780000Y-50450000D03*
D22*
X78737500Y-122350000D03*
X76662500Y-122350000D03*
D23*
X168731150Y-123455900D03*
X168731150Y-122640900D03*
D24*
X142787500Y-143750000D03*
X140962500Y-143750000D03*
D25*
X107300000Y-74497500D03*
X107300000Y-72422500D03*
D26*
X111250000Y-160037500D03*
X111250000Y-161762500D03*
D25*
X106950000Y-148887500D03*
X106950000Y-146812500D03*
D10*
X70225000Y-148512500D03*
X70225000Y-150337500D03*
D22*
X71562500Y-87200000D03*
X69487500Y-87200000D03*
X76437500Y-81600000D03*
X74362500Y-81600000D03*
D27*
X49687500Y-130825000D03*
X51762500Y-130825000D03*
D10*
X40650000Y-128462500D03*
X40650000Y-130287500D03*
D25*
X110225000Y-135762500D03*
X110225000Y-133687500D03*
D22*
X159707500Y-78080000D03*
X157632500Y-78080000D03*
D28*
X103737500Y-75810000D03*
X105562500Y-75810000D03*
D27*
X132900000Y-91875000D03*
X134975000Y-91875000D03*
D17*
X156601150Y-124370780D03*
D15*
X156601150Y-121870780D03*
D10*
X80500000Y-148712500D03*
X80500000Y-150537500D03*
D25*
X73900000Y-126637500D03*
X73900000Y-124562500D03*
D22*
X76237500Y-87225000D03*
X74162500Y-87225000D03*
D29*
X102650000Y-155862500D03*
X102650000Y-157937500D03*
D25*
X104075000Y-141012500D03*
X104075000Y-138937500D03*
D22*
X84737500Y-133000000D03*
X82662500Y-133000000D03*
X71612500Y-127975000D03*
X69537500Y-127975000D03*
X40462500Y-126500000D03*
X38387500Y-126500000D03*
D29*
X67525000Y-85212500D03*
X67525000Y-87287500D03*
D27*
X49687500Y-128825000D03*
X51762500Y-128825000D03*
D30*
X111250000Y-94197500D03*
X111750000Y-94197500D03*
X112250000Y-94197501D03*
X112750000Y-94197500D03*
X113250000Y-94197500D03*
X113750001Y-94197500D03*
X114250000Y-94197500D03*
X114749999Y-94197500D03*
X115250000Y-94197500D03*
X115750000Y-94197500D03*
X116250001Y-94197500D03*
X116750000Y-94197500D03*
X117250000Y-94197500D03*
X117750000Y-94197500D03*
X118250000Y-94197500D03*
X118750000Y-94197501D03*
X119250000Y-94197500D03*
X119750000Y-94197500D03*
X120250000Y-94197500D03*
X120750000Y-94197500D03*
X121250000Y-94197501D03*
X121750000Y-94197500D03*
X122250000Y-94197500D03*
X122750000Y-94197500D03*
X123250000Y-94197500D03*
X123749999Y-94197500D03*
X124250000Y-94197500D03*
X124750000Y-94197500D03*
X125250001Y-94197500D03*
X125750000Y-94197500D03*
X126249999Y-94197500D03*
X126750000Y-94197500D03*
X127250000Y-94197500D03*
X127750000Y-94197501D03*
X128250000Y-94197500D03*
X128750000Y-94197500D03*
D31*
X130662500Y-92285000D03*
X130662500Y-91785000D03*
X130662501Y-91285000D03*
X130662500Y-90785000D03*
X130662500Y-90285000D03*
X130662500Y-89784999D03*
X130662500Y-89285000D03*
X130662500Y-88785001D03*
X130662500Y-88285000D03*
X130662500Y-87785000D03*
X130662500Y-87284999D03*
X130662500Y-86785000D03*
X130662500Y-86285000D03*
X130662500Y-85785000D03*
X130662500Y-85285000D03*
X130662501Y-84785000D03*
X130662500Y-84285000D03*
X130662500Y-83785000D03*
X130662500Y-83285000D03*
X130662500Y-82785000D03*
X130662501Y-82285000D03*
X130662500Y-81785000D03*
X130662500Y-81285000D03*
X130662500Y-80785000D03*
X130662500Y-80285000D03*
X130662500Y-79785001D03*
X130662500Y-79285000D03*
X130662500Y-78785000D03*
X130662500Y-78284999D03*
X130662500Y-77785000D03*
X130662500Y-77285001D03*
X130662500Y-76785000D03*
X130662500Y-76285000D03*
X130662501Y-75785000D03*
X130662500Y-75285000D03*
X130662500Y-74785000D03*
D30*
X128750000Y-72872500D03*
X128250000Y-72872500D03*
X127750000Y-72872499D03*
X127250000Y-72872500D03*
X126750000Y-72872500D03*
X126249999Y-72872500D03*
X125750000Y-72872500D03*
X125250001Y-72872500D03*
X124750000Y-72872500D03*
X124250000Y-72872500D03*
X123749999Y-72872500D03*
X123250000Y-72872500D03*
X122750000Y-72872500D03*
X122250000Y-72872500D03*
X121750000Y-72872500D03*
X121250000Y-72872499D03*
X120750000Y-72872500D03*
X120250000Y-72872500D03*
X119750000Y-72872500D03*
X119250000Y-72872500D03*
X118750000Y-72872499D03*
X118250000Y-72872500D03*
X117750000Y-72872500D03*
X117250000Y-72872500D03*
X116750000Y-72872500D03*
X116250001Y-72872500D03*
X115750000Y-72872500D03*
X115250000Y-72872500D03*
X114749999Y-72872500D03*
X114250000Y-72872500D03*
X113750001Y-72872500D03*
X113250000Y-72872500D03*
X112750000Y-72872500D03*
X112250000Y-72872499D03*
X111750000Y-72872500D03*
X111250000Y-72872500D03*
D31*
X109337500Y-74785000D03*
X109337500Y-75285000D03*
X109337499Y-75785000D03*
X109337500Y-76285000D03*
X109337500Y-76785000D03*
X109337500Y-77285001D03*
X109337500Y-77785000D03*
X109337500Y-78284999D03*
X109337500Y-78785000D03*
X109337500Y-79285000D03*
X109337500Y-79785001D03*
X109337500Y-80285000D03*
X109337500Y-80785000D03*
X109337500Y-81285000D03*
X109337500Y-81785000D03*
X109337499Y-82285000D03*
X109337500Y-82785000D03*
X109337500Y-83285000D03*
X109337500Y-83785000D03*
X109337500Y-84285000D03*
X109337499Y-84785000D03*
X109337500Y-85285000D03*
X109337500Y-85785000D03*
X109337500Y-86285000D03*
X109337500Y-86785000D03*
X109337500Y-87284999D03*
X109337500Y-87785000D03*
X109337500Y-88285000D03*
X109337500Y-88785001D03*
X109337500Y-89285000D03*
X109337500Y-89784999D03*
X109337500Y-90285000D03*
X109337500Y-90785000D03*
X109337499Y-91285000D03*
X109337500Y-91785000D03*
X109337500Y-92285000D03*
D22*
X159482500Y-91030000D03*
X157407500Y-91030000D03*
D25*
X114150000Y-158212500D03*
X114150000Y-156137500D03*
D29*
X114975000Y-133562500D03*
X114975000Y-135637500D03*
X162431150Y-123570900D03*
X162431150Y-125645900D03*
D27*
X76612500Y-128200000D03*
X78687500Y-128200000D03*
D29*
X106700000Y-133637500D03*
X106700000Y-135712500D03*
D25*
X129225000Y-70497500D03*
X129225000Y-68422500D03*
D29*
X165401150Y-121920900D03*
X165401150Y-123995900D03*
D27*
X38512500Y-132325000D03*
X40587500Y-132325000D03*
D10*
X78725000Y-124312500D03*
X78725000Y-126137500D03*
D22*
X88162500Y-87250000D03*
X86087500Y-87250000D03*
D27*
X69537500Y-81450000D03*
X71612500Y-81450000D03*
X38502500Y-150590000D03*
X40577500Y-150590000D03*
D32*
X144275000Y-147287500D03*
X144275000Y-145462500D03*
D22*
X80612500Y-87125000D03*
X78537500Y-87125000D03*
X52577500Y-150560000D03*
X50502500Y-150560000D03*
D33*
X134280000Y-130460000D03*
X157640000Y-136040000D03*
X105320000Y-148880000D03*
X116820000Y-146960000D03*
X110630000Y-85870000D03*
X122380000Y-74230000D03*
X125910000Y-78940000D03*
X122240000Y-80790000D03*
X115860000Y-80280000D03*
X116290000Y-90000000D03*
X121610000Y-88130000D03*
X125910000Y-84170000D03*
X126100000Y-90610000D03*
X124080000Y-89820000D03*
X120080000Y-92790000D03*
X119020000Y-95830000D03*
X134980000Y-93350000D03*
X109970000Y-137100000D03*
X111520000Y-140210000D03*
X111530000Y-128730000D03*
X112770000Y-131780000D03*
X144290000Y-148480000D03*
X142920000Y-147290000D03*
X105690000Y-138920000D03*
D34*
X128260000Y-164110000D03*
X128990000Y-159770000D03*
D33*
X114140000Y-154530000D03*
X105670000Y-140570000D03*
X104070000Y-137620000D03*
X98860000Y-140050000D03*
X72970000Y-81530000D03*
X68190000Y-81440000D03*
X80620000Y-85690000D03*
X86080000Y-85820000D03*
X76690000Y-92040000D03*
X71820000Y-91900000D03*
X66320000Y-78640000D03*
X69500000Y-76820000D03*
X74110000Y-76830000D03*
X78080000Y-76870000D03*
X89890000Y-78620000D03*
X66200000Y-85210000D03*
X157450000Y-76310000D03*
X159100000Y-73140000D03*
X158160000Y-73100000D03*
X159750000Y-79480000D03*
X159130000Y-95870000D03*
X158190000Y-95920000D03*
X160790000Y-91020000D03*
X159460000Y-89600000D03*
X44610000Y-132860000D03*
X45420000Y-135650000D03*
X51770000Y-132140000D03*
X53130000Y-130800000D03*
X53090000Y-128800000D03*
X51760000Y-127410000D03*
X51540000Y-135720000D03*
X52850000Y-134300000D03*
X51520000Y-132790000D03*
X38630000Y-135720000D03*
X37260000Y-134280000D03*
X37280000Y-132290000D03*
X38510000Y-130940000D03*
X41740000Y-126470000D03*
X40460000Y-125120000D03*
X38400000Y-127840000D03*
X37170000Y-126460000D03*
X38390000Y-125120000D03*
X43140000Y-119640000D03*
X44590000Y-118320000D03*
X75650000Y-131700000D03*
X72670000Y-131690000D03*
X80150000Y-135170000D03*
X81620000Y-134310000D03*
X67360000Y-136130000D03*
X66000000Y-134610000D03*
X67350000Y-133160000D03*
X84750000Y-134360000D03*
X86020000Y-132980000D03*
X69550000Y-129310000D03*
X68320000Y-127940000D03*
X69530000Y-126630000D03*
X76620000Y-126830000D03*
X75350000Y-128180000D03*
X72420000Y-126600000D03*
X75250000Y-124530000D03*
X72520000Y-124540000D03*
X73910000Y-123330000D03*
X78740000Y-120980000D03*
X76670000Y-123690000D03*
X76650000Y-121000000D03*
X75470000Y-122330000D03*
X130480000Y-53360000D03*
X129250000Y-54670000D03*
X125980000Y-53250000D03*
D34*
X137010000Y-69910000D03*
X135400000Y-68580000D03*
X133940000Y-69930000D03*
X135420000Y-73460000D03*
X104090000Y-98160000D03*
X105420000Y-96670000D03*
X104030000Y-95200000D03*
X100540000Y-96650000D03*
X107125000Y-143750000D03*
D33*
X125850000Y-143750000D03*
D34*
X103325000Y-143750000D03*
X125850000Y-159850000D03*
X113175000Y-143750000D03*
D33*
X47175000Y-117650000D03*
X129075000Y-117625000D03*
X129075000Y-95650000D03*
X110675000Y-87850000D03*
D34*
X163941150Y-125598400D03*
D33*
X78537500Y-85800000D03*
X104075000Y-142150000D03*
X49700000Y-127250000D03*
X44525000Y-126950000D03*
X122275000Y-78650000D03*
X119270000Y-75820000D03*
X75625000Y-129500000D03*
X120900000Y-91300000D03*
X78250000Y-88475000D03*
X110600000Y-78500000D03*
X78825000Y-132325000D03*
X112950000Y-133650000D03*
X110800000Y-83400000D03*
X49700000Y-132200000D03*
X88550000Y-88525000D03*
X124075000Y-74235000D03*
X88200000Y-85700000D03*
X116250000Y-81225000D03*
X66300000Y-87300000D03*
X71600000Y-83000000D03*
X74162500Y-85800000D03*
X76600000Y-80225000D03*
D34*
X165411150Y-125338400D03*
D33*
X73025000Y-127975000D03*
X46525000Y-131650000D03*
X108875000Y-147450000D03*
X115800000Y-91500000D03*
X156270000Y-78130000D03*
X112550000Y-74210000D03*
X114675000Y-148350000D03*
X157945000Y-92955000D03*
X71825000Y-80050000D03*
X75625000Y-130525000D03*
X110630000Y-89080000D03*
X110600000Y-89784999D03*
X107025000Y-145275000D03*
X116300000Y-132675000D03*
X110700000Y-76010000D03*
X108050000Y-133025000D03*
X43125000Y-121675000D03*
X101300000Y-141000001D03*
X129250000Y-92550000D03*
X117200000Y-92925000D03*
X110300000Y-132400000D03*
X129225000Y-86075000D03*
D34*
X166931150Y-123978400D03*
X162441150Y-127068400D03*
D33*
X121600000Y-83400000D03*
X80425000Y-122350000D03*
X117950000Y-77400000D03*
X119240000Y-74190000D03*
X112375000Y-92900000D03*
X69487500Y-85712500D03*
X155970000Y-91030000D03*
X126300000Y-92700000D03*
X126000000Y-75800000D03*
X77700000Y-81600000D03*
X117800000Y-86450000D03*
X110775000Y-92950000D03*
X127600000Y-87400000D03*
X103750000Y-74610000D03*
X116375000Y-131675000D03*
X126100000Y-81100000D03*
X128775000Y-74225000D03*
X122125000Y-92725000D03*
X69300000Y-88675000D03*
X110675000Y-79400000D03*
X74200000Y-88575000D03*
X110560000Y-131680000D03*
X129250000Y-80775000D03*
X112510000Y-140190000D03*
X67700000Y-88700000D03*
X48000000Y-112035000D03*
X113725000Y-112035000D03*
X113725000Y-74210000D03*
X45475000Y-132575000D03*
X43852775Y-135727223D03*
X45825000Y-112860000D03*
X113100000Y-112810000D03*
X113150000Y-74835000D03*
X46475000Y-110685000D03*
X114662500Y-110672500D03*
X114725000Y-74235000D03*
X113000000Y-128850000D03*
D34*
X121920000Y-156150000D03*
D33*
X116600000Y-135225000D03*
X136250000Y-91875000D03*
X108600000Y-140525000D03*
D34*
X71500000Y-85700000D03*
X112100000Y-76000000D03*
X76237500Y-85900000D03*
D33*
X119100000Y-80875000D03*
X118345727Y-71513513D03*
X132300000Y-79800000D03*
X74400000Y-83000000D03*
X127600000Y-82900000D03*
D34*
X110760000Y-85150000D03*
D33*
X78200000Y-79900000D03*
X112000000Y-137125000D03*
X105775000Y-72360000D03*
X106925000Y-150450000D03*
X161170000Y-78030000D03*
X119100000Y-90100000D03*
D34*
X162431150Y-122208400D03*
X163911150Y-121938400D03*
D33*
X111675000Y-135800000D03*
X116455913Y-136630913D03*
D34*
X129325000Y-91525000D03*
D33*
X117725000Y-88650000D03*
D34*
X109450000Y-148375000D03*
D33*
X129225000Y-84775000D03*
X47350000Y-132650000D03*
X67625000Y-83900000D03*
X67725000Y-80100000D03*
D34*
X166991150Y-121908400D03*
D33*
X110600000Y-72000000D03*
D34*
X123410000Y-154780000D03*
X115875000Y-74400000D03*
D33*
X118000000Y-74100000D03*
X158869448Y-76176175D03*
X81650000Y-87125000D03*
X109550000Y-131650000D03*
X69600000Y-83000000D03*
X42850000Y-127225000D03*
X112600000Y-156125000D03*
D34*
X110800000Y-91787500D03*
D33*
X85050000Y-87250000D03*
D34*
X163941150Y-123548400D03*
D33*
X129100000Y-79400000D03*
D34*
X108150000Y-135725000D03*
D33*
X76575000Y-88575000D03*
X134725000Y-140600000D03*
X108700000Y-72400000D03*
X113025000Y-137250000D03*
X127700000Y-89400000D03*
X121200000Y-75800000D03*
D34*
X117950000Y-84500000D03*
D33*
X112950000Y-135275000D03*
X43780339Y-126860641D03*
X115825000Y-77300000D03*
X74100000Y-80250000D03*
X96200000Y-140050000D03*
X123200000Y-86600000D03*
X116500000Y-136100000D03*
D34*
X123910000Y-92600000D03*
D33*
X132400000Y-85300000D03*
D34*
X130550000Y-68410000D03*
D33*
X108875000Y-131625000D03*
D34*
X110810000Y-77310000D03*
D33*
X111550000Y-131700000D03*
X158970000Y-92880000D03*
X88600000Y-80275000D03*
X112050000Y-84550000D03*
X135725000Y-132050000D03*
D34*
X125060000Y-156210000D03*
X165391150Y-120548400D03*
D33*
X111300000Y-74200000D03*
X69362500Y-80062500D03*
X101525000Y-140050000D03*
X118250000Y-145450000D03*
X125300000Y-91300000D03*
X71800000Y-88575000D03*
D34*
X123005736Y-74190736D03*
D33*
X118800000Y-92900000D03*
X127500000Y-77700000D03*
D34*
X160891150Y-123538400D03*
D33*
X44575000Y-135525000D03*
X98850000Y-120810000D03*
X130925000Y-120810000D03*
X98850000Y-80360001D03*
D35*
X83150000Y-151260000D03*
D33*
X81550000Y-132950000D03*
X103400000Y-129625000D03*
X103400000Y-123125000D03*
X137400000Y-86325000D03*
X82575000Y-129675000D03*
X137400000Y-123100000D03*
X98050000Y-79300000D03*
X82025000Y-131050000D03*
X98050000Y-131050000D03*
X138000000Y-74725000D03*
X102250000Y-123850000D03*
X102250000Y-131700000D03*
X137950000Y-123725000D03*
X82825000Y-131725000D03*
D35*
X67520000Y-150910000D03*
D33*
X83525000Y-130425000D03*
X102825000Y-130375000D03*
X138650000Y-75300000D03*
X138650000Y-124600000D03*
X102825000Y-124525000D03*
X78200000Y-133650000D03*
X72500000Y-134250000D03*
X74250000Y-135125000D03*
X142525000Y-59475000D03*
X142525000Y-80775000D03*
X161995000Y-59605000D03*
X65660000Y-93400000D03*
X68600000Y-93390000D03*
X65760000Y-59475000D03*
X154795000Y-66015000D03*
X93680000Y-100100000D03*
X123050000Y-65985000D03*
X123050000Y-71435000D03*
X75800000Y-100110000D03*
X93680000Y-65985000D03*
X122625000Y-107775000D03*
X122625000Y-95550000D03*
X155445000Y-107805000D03*
X123900000Y-65335000D03*
X123900000Y-71410000D03*
X154213388Y-65440000D03*
X94160000Y-65335000D03*
X94160000Y-100710000D03*
X77400000Y-100685000D03*
X65190000Y-94370000D03*
X161370000Y-58880000D03*
X65260000Y-58870000D03*
X70090000Y-94330000D03*
X143125000Y-81375000D03*
X143100000Y-58875000D03*
X156020000Y-106455000D03*
X124700000Y-106375000D03*
X124675000Y-95675000D03*
X122450000Y-66585000D03*
X155445000Y-66615000D03*
X122450000Y-70585000D03*
X75000000Y-99585000D03*
X93205000Y-66585000D03*
X93205000Y-99590000D03*
X123800000Y-107050000D03*
X123825000Y-95775000D03*
X161095000Y-107080000D03*
X156195000Y-67265000D03*
X73400000Y-98835000D03*
X121825000Y-67185000D03*
X121850000Y-71460000D03*
X92720000Y-67310000D03*
X92730000Y-98830000D03*
X160620000Y-101005000D03*
X141900000Y-78750000D03*
X141900000Y-100975000D03*
X156645000Y-99355000D03*
X148885000Y-99325000D03*
X148885000Y-87284999D03*
X107875000Y-103360000D03*
X107803435Y-84058096D03*
X161720000Y-103390000D03*
X72600000Y-105775000D03*
X147940000Y-63325000D03*
X125725000Y-95675000D03*
X147900000Y-105850000D03*
X160395000Y-63355000D03*
X125750000Y-105775000D03*
X141200000Y-78275000D03*
X141275000Y-100300000D03*
X160120000Y-100255000D03*
X160970000Y-63980000D03*
X71000000Y-105175000D03*
X148415000Y-105175000D03*
X127025000Y-95700000D03*
X148415000Y-63990000D03*
X127050000Y-105175000D03*
X96075000Y-93710000D03*
X96080000Y-86190000D03*
X87800000Y-93710000D03*
X127325000Y-71260000D03*
X127475000Y-55500000D03*
X83800000Y-69235000D03*
X126250000Y-62610000D03*
X73400000Y-62610000D03*
X126225000Y-69185000D03*
X125650000Y-63310000D03*
X75000000Y-63310000D03*
X125650000Y-69685000D03*
X112575000Y-95850000D03*
X91770000Y-102670000D03*
X91770000Y-73325000D03*
X79800000Y-73325000D03*
X112575000Y-102785000D03*
X85400000Y-70535000D03*
X96550000Y-86785000D03*
X96550000Y-94360000D03*
X87000000Y-94335000D03*
X97030000Y-87284999D03*
X97025000Y-94985000D03*
X86200000Y-94935000D03*
X99425000Y-78250000D03*
X81400000Y-75860000D03*
X99425000Y-75870000D03*
X140575000Y-77825000D03*
X68600000Y-60275000D03*
X140575000Y-60350000D03*
X97500000Y-95685000D03*
X97500000Y-87950000D03*
X85400000Y-95685000D03*
X86210000Y-71010000D03*
X124500000Y-70885000D03*
X124500000Y-64760000D03*
X77400000Y-64785000D03*
X144550000Y-83300000D03*
X83800000Y-104575000D03*
X144550000Y-104575000D03*
X84600000Y-69835000D03*
X126800000Y-68685654D03*
X72600000Y-62035000D03*
X126900000Y-62010000D03*
X139925000Y-60950000D03*
X70200000Y-60875000D03*
X139950000Y-77275000D03*
X94640000Y-101460000D03*
X94630000Y-71435000D03*
X81400000Y-101460000D03*
X82200000Y-92310000D03*
X95125000Y-92310000D03*
X95110000Y-79008332D03*
X125075000Y-70385000D03*
X75800000Y-64060000D03*
X125050000Y-64060000D03*
X87700000Y-77135000D03*
X103400000Y-77135000D03*
X103400000Y-85735000D03*
X111827588Y-95912285D03*
X111900000Y-102210000D03*
X79000000Y-102175000D03*
X143900000Y-103935000D03*
X143900000Y-82750000D03*
X83000000Y-103935000D03*
X87000000Y-76435000D03*
X102300000Y-85235000D03*
X102300000Y-76435000D03*
X79775000Y-92985000D03*
X95600000Y-92990000D03*
X95600000Y-79735000D03*
X80600000Y-58300000D03*
X145030000Y-58300000D03*
X145025000Y-84785000D03*
X117275000Y-106350000D03*
X117275000Y-95725000D03*
X80600000Y-106350000D03*
X71010000Y-61435000D03*
X139200000Y-61435000D03*
X139225000Y-76800000D03*
X92245000Y-68635000D03*
X92245000Y-97840000D03*
X84600000Y-97835000D03*
X147425000Y-94197500D03*
X115895758Y-96265153D03*
X146950000Y-90925000D03*
X116525552Y-95696175D03*
X100025000Y-135950000D03*
X121825000Y-122425000D03*
X121800000Y-95675000D03*
X97250000Y-122425000D03*
X97225000Y-135925000D03*
X128050000Y-56900000D03*
X128050000Y-70744468D03*
X105175000Y-90535000D03*
X104950000Y-57725000D03*
X123200000Y-96800000D03*
X145300000Y-88750000D03*
X145325000Y-143750000D03*
X146475000Y-141725000D03*
X146475000Y-90350000D03*
X127400000Y-141750000D03*
X104199997Y-57725000D03*
X104225000Y-90020542D03*
X126625000Y-142325000D03*
X145900000Y-89775000D03*
X145875000Y-142325000D03*
X106475000Y-91710000D03*
X106475000Y-55650000D03*
X101375000Y-57725000D03*
X101350000Y-89435000D03*
X105900000Y-91119370D03*
X105900000Y-57725000D03*
X100775000Y-88835000D03*
X100624997Y-57725000D03*
X83000000Y-67835000D03*
X99874994Y-57725000D03*
X99900000Y-88360000D03*
D34*
X100890000Y-155960000D03*
D33*
X107300000Y-92235000D03*
X107201000Y-55461778D03*
X107750000Y-83310000D03*
X107750000Y-57725000D03*
M02*
