G04 #@! TF.GenerationSoftware,KiCad,Pcbnew,8.0.5*
G04 #@! TF.CreationDate,2024-11-21T04:32:58-05:00*
G04 #@! TF.ProjectId,PCB_Order3,5043425f-4f72-4646-9572-332e6b696361,rev?*
G04 #@! TF.SameCoordinates,Original*
G04 #@! TF.FileFunction,Copper,L1,Top*
G04 #@! TF.FilePolarity,Positive*
%FSLAX46Y46*%
G04 Gerber Fmt 4.6, Leading zero omitted, Abs format (unit mm)*
G04 Created by KiCad (PCBNEW 8.0.5) date 2024-11-21 04:32:58*
%MOMM*%
%LPD*%
G01*
G04 APERTURE LIST*
G04 Aperture macros list*
%AMRoundRect*
0 Rectangle with rounded corners*
0 $1 Rounding radius*
0 $2 $3 $4 $5 $6 $7 $8 $9 X,Y pos of 4 corners*
0 Add a 4 corners polygon primitive as box body*
4,1,4,$2,$3,$4,$5,$6,$7,$8,$9,$2,$3,0*
0 Add four circle primitives for the rounded corners*
1,1,$1+$1,$2,$3*
1,1,$1+$1,$4,$5*
1,1,$1+$1,$6,$7*
1,1,$1+$1,$8,$9*
0 Add four rect primitives between the rounded corners*
20,1,$1+$1,$2,$3,$4,$5,0*
20,1,$1+$1,$4,$5,$6,$7,0*
20,1,$1+$1,$6,$7,$8,$9,0*
20,1,$1+$1,$8,$9,$2,$3,0*%
G04 Aperture macros list end*
G04 #@! TA.AperFunction,SMDPad,CuDef*
%ADD10RoundRect,0.250000X0.475000X-0.337500X0.475000X0.337500X-0.475000X0.337500X-0.475000X-0.337500X0*%
G04 #@! TD*
G04 #@! TA.AperFunction,SMDPad,CuDef*
%ADD11RoundRect,0.250000X0.337500X0.475000X-0.337500X0.475000X-0.337500X-0.475000X0.337500X-0.475000X0*%
G04 #@! TD*
G04 #@! TA.AperFunction,ComponentPad*
%ADD12C,1.303000*%
G04 #@! TD*
G04 #@! TA.AperFunction,ComponentPad*
%ADD13C,1.300000*%
G04 #@! TD*
G04 #@! TA.AperFunction,SMDPad,CuDef*
%ADD14RoundRect,0.035000X-0.745000X-0.105000X0.745000X-0.105000X0.745000X0.105000X-0.745000X0.105000X0*%
G04 #@! TD*
G04 #@! TA.AperFunction,SMDPad,CuDef*
%ADD15RoundRect,0.035000X-0.105000X-0.745000X0.105000X-0.745000X0.105000X0.745000X-0.105000X0.745000X0*%
G04 #@! TD*
G04 #@! TA.AperFunction,SMDPad,CuDef*
%ADD16RoundRect,0.250000X-0.475000X0.337500X-0.475000X-0.337500X0.475000X-0.337500X0.475000X0.337500X0*%
G04 #@! TD*
G04 #@! TA.AperFunction,SMDPad,CuDef*
%ADD17R,1.100000X0.650001*%
G04 #@! TD*
G04 #@! TA.AperFunction,SMDPad,CuDef*
%ADD18RoundRect,0.250000X-0.337500X-0.475000X0.337500X-0.475000X0.337500X0.475000X-0.337500X0.475000X0*%
G04 #@! TD*
G04 #@! TA.AperFunction,ComponentPad*
%ADD19R,1.700000X1.700000*%
G04 #@! TD*
G04 #@! TA.AperFunction,ComponentPad*
%ADD20O,1.700000X1.700000*%
G04 #@! TD*
G04 #@! TA.AperFunction,ComponentPad*
%ADD21C,1.600000*%
G04 #@! TD*
G04 #@! TA.AperFunction,SMDPad,CuDef*
%ADD22R,2.209800X0.863600*%
G04 #@! TD*
G04 #@! TA.AperFunction,SMDPad,CuDef*
%ADD23R,0.300000X1.300000*%
G04 #@! TD*
G04 #@! TA.AperFunction,SMDPad,CuDef*
%ADD24RoundRect,0.100000X0.100000X-0.637500X0.100000X0.637500X-0.100000X0.637500X-0.100000X-0.637500X0*%
G04 #@! TD*
G04 #@! TA.AperFunction,ComponentPad*
%ADD25C,1.574800*%
G04 #@! TD*
G04 #@! TA.AperFunction,ComponentPad*
%ADD26R,1.600000X1.600000*%
G04 #@! TD*
G04 #@! TA.AperFunction,SMDPad,CuDef*
%ADD27R,0.500000X2.250000*%
G04 #@! TD*
G04 #@! TA.AperFunction,SMDPad,CuDef*
%ADD28R,2.000000X2.500000*%
G04 #@! TD*
G04 #@! TA.AperFunction,SMDPad,CuDef*
%ADD29RoundRect,0.250000X-1.450000X0.400000X-1.450000X-0.400000X1.450000X-0.400000X1.450000X0.400000X0*%
G04 #@! TD*
G04 #@! TA.AperFunction,SMDPad,CuDef*
%ADD30RoundRect,0.237500X0.237500X-0.250000X0.237500X0.250000X-0.237500X0.250000X-0.237500X-0.250000X0*%
G04 #@! TD*
G04 #@! TA.AperFunction,SMDPad,CuDef*
%ADD31R,1.409700X0.254000*%
G04 #@! TD*
G04 #@! TA.AperFunction,ComponentPad*
%ADD32R,1.320800X1.320800*%
G04 #@! TD*
G04 #@! TA.AperFunction,ComponentPad*
%ADD33C,1.320800*%
G04 #@! TD*
G04 #@! TA.AperFunction,ComponentPad*
%ADD34R,3.765000X3.765000*%
G04 #@! TD*
G04 #@! TA.AperFunction,ComponentPad*
%ADD35C,3.765000*%
G04 #@! TD*
G04 #@! TA.AperFunction,SMDPad,CuDef*
%ADD36R,0.600000X1.295000*%
G04 #@! TD*
G04 #@! TA.AperFunction,ViaPad*
%ADD37C,0.350000*%
G04 #@! TD*
G04 #@! TA.AperFunction,ViaPad*
%ADD38C,0.450000*%
G04 #@! TD*
G04 #@! TA.AperFunction,ViaPad*
%ADD39C,0.600000*%
G04 #@! TD*
G04 #@! TA.AperFunction,Conductor*
%ADD40C,0.200000*%
G04 #@! TD*
G04 #@! TA.AperFunction,Conductor*
%ADD41C,0.400000*%
G04 #@! TD*
G04 APERTURE END LIST*
D10*
X135420000Y-72027500D03*
X135420000Y-69952500D03*
D11*
X117925000Y-75850000D03*
X115850000Y-75850000D03*
D12*
X109030000Y-165100000D03*
X111570000Y-165100000D03*
X114110000Y-165100000D03*
X116650000Y-165100000D03*
D13*
X118040000Y-160900000D03*
X107640000Y-160900000D03*
D10*
X127725000Y-92712500D03*
X127725000Y-90637500D03*
D14*
X106595000Y-131725000D03*
X106595000Y-132225000D03*
X106595000Y-132725000D03*
X106595000Y-133225000D03*
X106595000Y-133725000D03*
X106595000Y-134225000D03*
X106595000Y-134725000D03*
X106595000Y-135225000D03*
X106595000Y-135725000D03*
X106595000Y-136225000D03*
X106595000Y-136725000D03*
X106595000Y-137225000D03*
D15*
X108025000Y-138655000D03*
X108525000Y-138655000D03*
X109025000Y-138655000D03*
X109525000Y-138655000D03*
X110025000Y-138655000D03*
X110525000Y-138655000D03*
X111025000Y-138655000D03*
X111525000Y-138655000D03*
X112025000Y-138655000D03*
X112525000Y-138655000D03*
X113025000Y-138655000D03*
X113525000Y-138655000D03*
D14*
X114955000Y-137225000D03*
X114955000Y-136725000D03*
X114955000Y-136225000D03*
X114955000Y-135725000D03*
X114955000Y-135225000D03*
X114955000Y-134725000D03*
X114955000Y-134225000D03*
X114955000Y-133725000D03*
X114955000Y-133225000D03*
X114955000Y-132725000D03*
X114955000Y-132225000D03*
X114955000Y-131725000D03*
D15*
X113525000Y-130295000D03*
X113025000Y-130295000D03*
X112525000Y-130295000D03*
X112025000Y-130295000D03*
X111525000Y-130295000D03*
X111025000Y-130295000D03*
X110525000Y-130295000D03*
X110025000Y-130295000D03*
X109525000Y-130295000D03*
X109025000Y-130295000D03*
X108525000Y-130295000D03*
X108025000Y-130295000D03*
D16*
X116250000Y-82487500D03*
X116250000Y-84562500D03*
D17*
X110775000Y-147449999D03*
X110775000Y-148400000D03*
X110775000Y-149349998D03*
X113175000Y-149349998D03*
X113175000Y-148400000D03*
X113175000Y-147449999D03*
D18*
X49462500Y-134300000D03*
X51537500Y-134300000D03*
D16*
X121600000Y-84562500D03*
X121600000Y-86637500D03*
D19*
X150830000Y-140960000D03*
D20*
X153370000Y-140960000D03*
X155910000Y-140960000D03*
X158450000Y-140960000D03*
D21*
X84890000Y-150780000D03*
X87390000Y-150780000D03*
D16*
X107150000Y-140587500D03*
X107150000Y-142662500D03*
D12*
X93830000Y-165175000D03*
X96370000Y-165175000D03*
X98910000Y-165175000D03*
X101450000Y-165175000D03*
D13*
X92440000Y-160975000D03*
X102840000Y-160975000D03*
D10*
X69600000Y-132662500D03*
X69600000Y-130587500D03*
D22*
X130928500Y-134974999D03*
X138421500Y-134974999D03*
X130928500Y-139475001D03*
X138421500Y-139475001D03*
D16*
X120625000Y-78737500D03*
X120625000Y-80812500D03*
D11*
X117937500Y-78750000D03*
X115862500Y-78750000D03*
D23*
X152670000Y-94365000D03*
X153170000Y-94365000D03*
X153670000Y-94365000D03*
X154170000Y-94365000D03*
X154670000Y-94365000D03*
X155170000Y-94365000D03*
X155670000Y-94365000D03*
X156170000Y-94365000D03*
X156670000Y-94365000D03*
X157170000Y-94365000D03*
X157670000Y-94365000D03*
X158170000Y-94365000D03*
X158670000Y-94365000D03*
X159170000Y-94365000D03*
X159670000Y-94365000D03*
X160170000Y-94365000D03*
X160670000Y-94365000D03*
X161170000Y-94365000D03*
X161670000Y-94365000D03*
X162170000Y-94365000D03*
X162670000Y-94365000D03*
X163170000Y-94365000D03*
X163670000Y-94365000D03*
X164170000Y-94365000D03*
X164170000Y-74665000D03*
X163670000Y-74665000D03*
X163170000Y-74665000D03*
X162670000Y-74665000D03*
X162170000Y-74665000D03*
X161670000Y-74665000D03*
X161170000Y-74665000D03*
X160670000Y-74665000D03*
X160170000Y-74665000D03*
X159670000Y-74665000D03*
X159170000Y-74665000D03*
X158670000Y-74665000D03*
X158170000Y-74665000D03*
X157670000Y-74665000D03*
X157170000Y-74665000D03*
X156670000Y-74665000D03*
X156170000Y-74665000D03*
X155670000Y-74665000D03*
X155170000Y-74665000D03*
X154670000Y-74665000D03*
X154170000Y-74665000D03*
X153670000Y-74665000D03*
X153170000Y-74665000D03*
X152670000Y-74665000D03*
D24*
X43225000Y-128497500D03*
X43875000Y-128497500D03*
X44525000Y-128497500D03*
X45175000Y-128497500D03*
X45825000Y-128497500D03*
X46475000Y-128497500D03*
X47125000Y-128497500D03*
X47775000Y-128497500D03*
X47775000Y-134222500D03*
X47125000Y-134222500D03*
X46475000Y-134222500D03*
X45825000Y-134222500D03*
X45175000Y-134222500D03*
X44525000Y-134222500D03*
X43875000Y-134222500D03*
X43225000Y-134222500D03*
D25*
X171186150Y-121773400D03*
X171186150Y-124313400D03*
X171186150Y-126853400D03*
X171186150Y-129393400D03*
D26*
X123645113Y-151400000D03*
D21*
X121645113Y-151400000D03*
D10*
X127550000Y-86237500D03*
X127550000Y-84162500D03*
D18*
X122012500Y-91300000D03*
X124087500Y-91300000D03*
D27*
X125800000Y-162000000D03*
X126600000Y-162000000D03*
X127400000Y-162000000D03*
X128200000Y-162000000D03*
X129000000Y-162000000D03*
D28*
X122950000Y-162125000D03*
X131850000Y-162125000D03*
X122950000Y-167625000D03*
X131850000Y-167625000D03*
D18*
X101965000Y-96670000D03*
X104040000Y-96670000D03*
D29*
X99240000Y-147555000D03*
X99240000Y-152005000D03*
D30*
X123250000Y-134862500D03*
X123250000Y-133037500D03*
D10*
X127525000Y-80987500D03*
X127525000Y-78912500D03*
D30*
X44850000Y-125162500D03*
X44850000Y-123337500D03*
D31*
X80127750Y-134284951D03*
X80127750Y-133634965D03*
X80127750Y-132984979D03*
X80127750Y-132334993D03*
X80127750Y-131685007D03*
X80127750Y-131035021D03*
X80127750Y-130385035D03*
X80127750Y-129735049D03*
X74222250Y-129735049D03*
X74222250Y-130385035D03*
X74222250Y-131035021D03*
X74222250Y-131685007D03*
X74222250Y-132334993D03*
X74222250Y-132984979D03*
X74222250Y-133634965D03*
X74222250Y-134284951D03*
D11*
X40712500Y-134275000D03*
X38637500Y-134275000D03*
D32*
X120675000Y-138000000D03*
D33*
X123175000Y-138000000D03*
X125675000Y-138000000D03*
D10*
X116300000Y-88612500D03*
X116300000Y-86537500D03*
D34*
X33225000Y-160225000D03*
D35*
X38525000Y-160225000D03*
X52525000Y-160225000D03*
D10*
X112075000Y-79437500D03*
X112075000Y-77362500D03*
D34*
X63050000Y-160250000D03*
D35*
X68350000Y-160250000D03*
X82350000Y-160250000D03*
D11*
X69437500Y-134625000D03*
X67362500Y-134625000D03*
D18*
X117012500Y-91525000D03*
X119087500Y-91525000D03*
D10*
X44575000Y-121712500D03*
X44575000Y-119637500D03*
X112050000Y-87837500D03*
X112050000Y-85762500D03*
D16*
X112050000Y-89712500D03*
X112050000Y-91787500D03*
D18*
X114762500Y-145400000D03*
X116837500Y-145400000D03*
D21*
X65730000Y-150500000D03*
X63230000Y-150500000D03*
D11*
X124487500Y-75825000D03*
X122412500Y-75825000D03*
D19*
X107950000Y-50450000D03*
D20*
X105410000Y-50450000D03*
X102870000Y-50450000D03*
X100330000Y-50450000D03*
X97790000Y-50450000D03*
X95250000Y-50450000D03*
X92710000Y-50450000D03*
X90170000Y-50450000D03*
X87630000Y-50450000D03*
D19*
X129400000Y-50450000D03*
D20*
X126860000Y-50450000D03*
X124320000Y-50450000D03*
X121780000Y-50450000D03*
D17*
X100050000Y-141000001D03*
X100050000Y-140050000D03*
X100050000Y-139100002D03*
X97650000Y-139100002D03*
X97650000Y-140050000D03*
X97650000Y-141000001D03*
D36*
X67700000Y-90091000D03*
X68500000Y-90091000D03*
X69300000Y-90091000D03*
X70100000Y-90091000D03*
X70900000Y-90091000D03*
X71700000Y-90091000D03*
X72500000Y-90091000D03*
X73300000Y-90091000D03*
X74100000Y-90091000D03*
X74900000Y-90091000D03*
X75700000Y-90091000D03*
X76500000Y-90091000D03*
X77300000Y-90091000D03*
X78100000Y-90091000D03*
X78900000Y-90091000D03*
X79700000Y-90091000D03*
X80500000Y-90091000D03*
X81300000Y-90091000D03*
X82100000Y-90091000D03*
X82900000Y-90091000D03*
X83700000Y-90091000D03*
X84500000Y-90091000D03*
X85300000Y-90091000D03*
X86100000Y-90091000D03*
X86900000Y-90091000D03*
X87700000Y-90091000D03*
X88500000Y-90091000D03*
X88500000Y-78635000D03*
X87700000Y-78635000D03*
X86900000Y-78635000D03*
X86100000Y-78635000D03*
X85300000Y-78635000D03*
X84500000Y-78635000D03*
X83700000Y-78635000D03*
X82900000Y-78635000D03*
X82100000Y-78635000D03*
X81300000Y-78635000D03*
X80500000Y-78635000D03*
X79700000Y-78635000D03*
X78900000Y-78635000D03*
X78100000Y-78635000D03*
X77300000Y-78635000D03*
X76500000Y-78635000D03*
X75700000Y-78635000D03*
X74900000Y-78635000D03*
X74100000Y-78635000D03*
X73300000Y-78635000D03*
X72500000Y-78635000D03*
X71700000Y-78635000D03*
X70900000Y-78635000D03*
X70100000Y-78635000D03*
X69300000Y-78635000D03*
X68500000Y-78635000D03*
X67700000Y-78635000D03*
D11*
X127162500Y-53350000D03*
X129237500Y-53350000D03*
D10*
X123420000Y-158277500D03*
X123420000Y-156202500D03*
D18*
X132187500Y-132050000D03*
X134262500Y-132050000D03*
D26*
X156601150Y-124370780D03*
D21*
X156601150Y-121870780D03*
D37*
X134280000Y-130460000D03*
X157640000Y-136040000D03*
X105320000Y-148880000D03*
X116820000Y-146960000D03*
X110630000Y-85870000D03*
X122380000Y-74230000D03*
X125910000Y-78940000D03*
X122240000Y-80790000D03*
X115860000Y-80280000D03*
X116290000Y-90000000D03*
X121610000Y-88130000D03*
X125910000Y-84170000D03*
X126100000Y-90610000D03*
X124080000Y-89820000D03*
X120080000Y-92790000D03*
X119020000Y-95830000D03*
X134980000Y-93350000D03*
X109970000Y-137100000D03*
X111520000Y-140210000D03*
X111530000Y-128730000D03*
X112770000Y-131780000D03*
X144290000Y-148480000D03*
X142920000Y-147290000D03*
X105690000Y-138920000D03*
D38*
X128260000Y-164110000D03*
X128990000Y-159770000D03*
D37*
X114140000Y-154530000D03*
X105670000Y-140570000D03*
X104070000Y-137620000D03*
X98860000Y-140050000D03*
X72970000Y-81530000D03*
X68190000Y-81440000D03*
X80620000Y-85690000D03*
X86080000Y-85820000D03*
X76690000Y-92040000D03*
X71820000Y-91900000D03*
X66320000Y-78640000D03*
X69500000Y-76820000D03*
X74110000Y-76830000D03*
X78080000Y-76870000D03*
X89890000Y-78620000D03*
X66200000Y-85210000D03*
X157450000Y-76310000D03*
X159100000Y-73140000D03*
X158160000Y-73100000D03*
X159750000Y-79480000D03*
X159130000Y-95870000D03*
X158190000Y-95920000D03*
X160790000Y-91020000D03*
X159460000Y-89600000D03*
X44610000Y-132860000D03*
X45420000Y-135650000D03*
X51770000Y-132140000D03*
X53130000Y-130800000D03*
X53090000Y-128800000D03*
X51760000Y-127410000D03*
X51540000Y-135720000D03*
X52850000Y-134300000D03*
X51520000Y-132790000D03*
X38630000Y-135720000D03*
X37260000Y-134280000D03*
X37280000Y-132290000D03*
X38510000Y-130940000D03*
X41740000Y-126470000D03*
X40460000Y-125120000D03*
X38400000Y-127840000D03*
X37170000Y-126460000D03*
X38390000Y-125120000D03*
X43140000Y-119640000D03*
X44590000Y-118320000D03*
X75650000Y-131700000D03*
X72670000Y-131690000D03*
X80150000Y-135170000D03*
X81620000Y-134310000D03*
X67360000Y-136130000D03*
X66000000Y-134610000D03*
X67350000Y-133160000D03*
X84750000Y-134360000D03*
X86020000Y-132980000D03*
X69550000Y-129310000D03*
X68320000Y-127940000D03*
X69530000Y-126630000D03*
X76620000Y-126830000D03*
X75350000Y-128180000D03*
X72420000Y-126600000D03*
X75250000Y-124530000D03*
X72520000Y-124540000D03*
X73910000Y-123330000D03*
X78740000Y-120980000D03*
X76670000Y-123690000D03*
X76650000Y-121000000D03*
X75470000Y-122330000D03*
X130480000Y-53360000D03*
X129250000Y-54670000D03*
X125980000Y-53250000D03*
D38*
X137010000Y-69910000D03*
X135400000Y-68580000D03*
X133940000Y-69930000D03*
X135420000Y-73460000D03*
X104090000Y-98160000D03*
X105420000Y-96670000D03*
X104030000Y-95200000D03*
X100540000Y-96650000D03*
X107125000Y-143750000D03*
D37*
X125850000Y-143750000D03*
D38*
X103325000Y-143750000D03*
X125850000Y-159850000D03*
X113175000Y-143750000D03*
D37*
X47175000Y-117650000D03*
X129075000Y-117625000D03*
X129075000Y-95650000D03*
X110675000Y-87850000D03*
D38*
X163941150Y-125598400D03*
D37*
X78537500Y-85800000D03*
X104075000Y-142150000D03*
X49700000Y-127250000D03*
X44525000Y-126950000D03*
X122275000Y-78650000D03*
X119270000Y-75820000D03*
X75625000Y-129500000D03*
X120900000Y-91300000D03*
X78250000Y-88475000D03*
X110600000Y-78500000D03*
X78825000Y-132325000D03*
X112950000Y-133650000D03*
X110800000Y-83400000D03*
X49700000Y-132200000D03*
X88550000Y-88525000D03*
X124075000Y-74235000D03*
X88200000Y-85700000D03*
X116250000Y-81225000D03*
X66300000Y-87300000D03*
X71600000Y-83000000D03*
X74162500Y-85800000D03*
X76600000Y-80225000D03*
D38*
X165411150Y-125338400D03*
D37*
X73025000Y-127975000D03*
X46525000Y-131650000D03*
X108875000Y-147450000D03*
X115800000Y-91500000D03*
X156270000Y-78130000D03*
X112550000Y-74210000D03*
X114675000Y-148350000D03*
X157945000Y-92955000D03*
X71825000Y-80050000D03*
X75625000Y-130525000D03*
X110630000Y-89080000D03*
X110600000Y-89784999D03*
X107025000Y-145275000D03*
X116300000Y-132675000D03*
X110700000Y-76010000D03*
X108050000Y-133025000D03*
X43125000Y-121675000D03*
X101300000Y-141000001D03*
X129250000Y-92550000D03*
X117200000Y-92925000D03*
X110300000Y-132400000D03*
X129225000Y-86075000D03*
D38*
X166931150Y-123978400D03*
X162441150Y-127068400D03*
D37*
X121600000Y-83400000D03*
X80425000Y-122350000D03*
X117950000Y-77400000D03*
X119240000Y-74190000D03*
X112375000Y-92900000D03*
X69487500Y-85712500D03*
X155970000Y-91030000D03*
X126300000Y-92700000D03*
X126000000Y-75800000D03*
X77700000Y-81600000D03*
X117800000Y-86450000D03*
X110775000Y-92950000D03*
X127600000Y-87400000D03*
X103750000Y-74610000D03*
X116375000Y-131675000D03*
X126100000Y-81100000D03*
X128775000Y-74225000D03*
X122125000Y-92725000D03*
X69300000Y-88675000D03*
X110675000Y-79400000D03*
X74200000Y-88575000D03*
X110560000Y-131680000D03*
X129250000Y-80775000D03*
X112510000Y-140190000D03*
X67700000Y-88700000D03*
X48000000Y-112035000D03*
X113725000Y-112035000D03*
X113725000Y-74210000D03*
X45475000Y-132575000D03*
X43852775Y-135727223D03*
X45825000Y-112860000D03*
X113100000Y-112810000D03*
X113150000Y-74835000D03*
X46475000Y-110685000D03*
X114662500Y-110672500D03*
X114725000Y-74235000D03*
X113000000Y-128850000D03*
D38*
X121920000Y-156150000D03*
D37*
X116600000Y-135225000D03*
X136250000Y-91875000D03*
X108600000Y-140525000D03*
D38*
X71500000Y-85700000D03*
X112100000Y-76000000D03*
X76237500Y-85900000D03*
D37*
X119100000Y-80875000D03*
X118345727Y-71513513D03*
X132300000Y-79800000D03*
X74400000Y-83000000D03*
X127600000Y-82900000D03*
D38*
X110760000Y-85150000D03*
D37*
X78200000Y-79900000D03*
X112000000Y-137125000D03*
X105775000Y-72360000D03*
X106925000Y-150450000D03*
X161170000Y-78030000D03*
X119100000Y-90100000D03*
D38*
X162431150Y-122208400D03*
X163911150Y-121938400D03*
D37*
X111675000Y-135800000D03*
X116455913Y-136630913D03*
D38*
X129325000Y-91525000D03*
D37*
X117725000Y-88650000D03*
D38*
X109450000Y-148375000D03*
D37*
X129225000Y-84775000D03*
X47350000Y-132650000D03*
X67625000Y-83900000D03*
X67725000Y-80100000D03*
D38*
X166991150Y-121908400D03*
D37*
X110600000Y-72000000D03*
D38*
X123410000Y-154780000D03*
X115875000Y-74400000D03*
D37*
X118000000Y-74100000D03*
X158869448Y-76176175D03*
X81650000Y-87125000D03*
X109550000Y-131650000D03*
X69600000Y-83000000D03*
X42850000Y-127225000D03*
X112600000Y-156125000D03*
D38*
X110800000Y-91787500D03*
D37*
X85050000Y-87250000D03*
D38*
X163941150Y-123548400D03*
D37*
X129100000Y-79400000D03*
D38*
X108150000Y-135725000D03*
D37*
X76575000Y-88575000D03*
X134725000Y-140600000D03*
X108700000Y-72400000D03*
X113025000Y-137250000D03*
X127700000Y-89400000D03*
X121200000Y-75800000D03*
D38*
X117950000Y-84500000D03*
D37*
X112950000Y-135275000D03*
X43780339Y-126860641D03*
X115825000Y-77300000D03*
X74100000Y-80250000D03*
X96200000Y-140050000D03*
X123200000Y-86600000D03*
X116500000Y-136100000D03*
D38*
X123910000Y-92600000D03*
D37*
X132400000Y-85300000D03*
D38*
X130550000Y-68410000D03*
D37*
X108875000Y-131625000D03*
D38*
X110810000Y-77310000D03*
D37*
X111550000Y-131700000D03*
X158970000Y-92880000D03*
X88600000Y-80275000D03*
X112050000Y-84550000D03*
X135725000Y-132050000D03*
D38*
X125060000Y-156210000D03*
X165391150Y-120548400D03*
D37*
X111300000Y-74200000D03*
X69362500Y-80062500D03*
X101525000Y-140050000D03*
X118250000Y-145450000D03*
X125300000Y-91300000D03*
X71800000Y-88575000D03*
D38*
X123005736Y-74190736D03*
D37*
X118800000Y-92900000D03*
X127500000Y-77700000D03*
D38*
X160891150Y-123538400D03*
D37*
X44575000Y-135525000D03*
X98850000Y-120810000D03*
X130925000Y-120810000D03*
X98850000Y-80360001D03*
D39*
X83150000Y-151260000D03*
D37*
X81550000Y-132950000D03*
X103400000Y-129625000D03*
X103400000Y-123125000D03*
X137400000Y-86325000D03*
X82575000Y-129675000D03*
X137400000Y-123100000D03*
X98050000Y-79300000D03*
X82025000Y-131050000D03*
X98050000Y-131050000D03*
X138000000Y-74725000D03*
X102250000Y-123850000D03*
X102250000Y-131700000D03*
X137950000Y-123725000D03*
X82825000Y-131725000D03*
D39*
X67520000Y-150910000D03*
D37*
X83525000Y-130425000D03*
X102825000Y-130375000D03*
X138650000Y-75300000D03*
X138650000Y-124600000D03*
X102825000Y-124525000D03*
X78200000Y-133650000D03*
X72500000Y-134250000D03*
X74250000Y-135125000D03*
X142525000Y-59475000D03*
X142525000Y-80775000D03*
X161995000Y-59605000D03*
X65660000Y-93400000D03*
X68600000Y-93390000D03*
X65760000Y-59475000D03*
X154795000Y-66015000D03*
X93680000Y-100100000D03*
X123050000Y-65985000D03*
X123050000Y-71435000D03*
X75800000Y-100110000D03*
X93680000Y-65985000D03*
X122625000Y-107775000D03*
X122625000Y-95550000D03*
X155445000Y-107805000D03*
X123900000Y-65335000D03*
X123900000Y-71410000D03*
X154213388Y-65440000D03*
X94160000Y-65335000D03*
X94160000Y-100710000D03*
X77400000Y-100685000D03*
X65190000Y-94370000D03*
X161370000Y-58880000D03*
X65260000Y-58870000D03*
X70090000Y-94330000D03*
X143125000Y-81375000D03*
X143100000Y-58875000D03*
X156020000Y-106455000D03*
X124700000Y-106375000D03*
X124675000Y-95675000D03*
X122450000Y-66585000D03*
X155445000Y-66615000D03*
X122450000Y-70585000D03*
X75000000Y-99585000D03*
X93205000Y-66585000D03*
X93205000Y-99590000D03*
X123800000Y-107050000D03*
X123825000Y-95775000D03*
X161095000Y-107080000D03*
X156195000Y-67265000D03*
X73400000Y-98835000D03*
X121825000Y-67185000D03*
X121850000Y-71460000D03*
X92720000Y-67310000D03*
X92730000Y-98830000D03*
X160620000Y-101005000D03*
X141900000Y-78750000D03*
X141900000Y-100975000D03*
X156645000Y-99355000D03*
X148885000Y-99325000D03*
X148885000Y-87284999D03*
X107875000Y-103360000D03*
X107803435Y-84058096D03*
X161720000Y-103390000D03*
X72600000Y-105775000D03*
X147940000Y-63325000D03*
X125725000Y-95675000D03*
X147900000Y-105850000D03*
X160395000Y-63355000D03*
X125750000Y-105775000D03*
X141200000Y-78275000D03*
X141275000Y-100300000D03*
X160120000Y-100255000D03*
X160970000Y-63980000D03*
X71000000Y-105175000D03*
X148415000Y-105175000D03*
X127025000Y-95700000D03*
X148415000Y-63990000D03*
X127050000Y-105175000D03*
X96075000Y-93710000D03*
X96080000Y-86190000D03*
X87800000Y-93710000D03*
X127325000Y-71260000D03*
X127475000Y-55500000D03*
X83800000Y-69235000D03*
X126250000Y-62610000D03*
X73400000Y-62610000D03*
X126225000Y-69185000D03*
X125650000Y-63310000D03*
X75000000Y-63310000D03*
X125650000Y-69685000D03*
X112575000Y-95850000D03*
X91770000Y-102670000D03*
X91770000Y-73325000D03*
X79800000Y-73325000D03*
X112575000Y-102785000D03*
X85400000Y-70535000D03*
X96550000Y-86785000D03*
X96550000Y-94360000D03*
X87000000Y-94335000D03*
X97030000Y-87284999D03*
X97025000Y-94985000D03*
X86200000Y-94935000D03*
X99425000Y-78250000D03*
X81400000Y-75860000D03*
X99425000Y-75870000D03*
X140575000Y-77825000D03*
X68600000Y-60275000D03*
X140575000Y-60350000D03*
X97500000Y-95685000D03*
X97500000Y-87950000D03*
X85400000Y-95685000D03*
X86210000Y-71010000D03*
X124500000Y-70885000D03*
X124500000Y-64760000D03*
X77400000Y-64785000D03*
X144550000Y-83300000D03*
X83800000Y-104575000D03*
X144550000Y-104575000D03*
X84600000Y-69835000D03*
X126800000Y-68685654D03*
X72600000Y-62035000D03*
X126900000Y-62010000D03*
X139925000Y-60950000D03*
X70200000Y-60875000D03*
X139950000Y-77275000D03*
X94640000Y-101460000D03*
X94630000Y-71435000D03*
X81400000Y-101460000D03*
X82200000Y-92310000D03*
X95125000Y-92310000D03*
X95110000Y-79008332D03*
X125075000Y-70385000D03*
X75800000Y-64060000D03*
X125050000Y-64060000D03*
X87700000Y-77135000D03*
X103400000Y-77135000D03*
X103400000Y-85735000D03*
X111827588Y-95912285D03*
X111900000Y-102210000D03*
X79000000Y-102175000D03*
X143900000Y-103935000D03*
X143900000Y-82750000D03*
X83000000Y-103935000D03*
X87000000Y-76435000D03*
X102300000Y-85235000D03*
X102300000Y-76435000D03*
X79775000Y-92985000D03*
X95600000Y-92990000D03*
X95600000Y-79735000D03*
X80600000Y-58300000D03*
X145030000Y-58300000D03*
X145025000Y-84785000D03*
X117275000Y-106350000D03*
X117275000Y-95725000D03*
X80600000Y-106350000D03*
X71010000Y-61435000D03*
X139200000Y-61435000D03*
X139225000Y-76800000D03*
X92245000Y-68635000D03*
X92245000Y-97840000D03*
X84600000Y-97835000D03*
X147425000Y-94197500D03*
X115895758Y-96265153D03*
X146950000Y-90925000D03*
X116525552Y-95696175D03*
X100025000Y-135950000D03*
X121825000Y-122425000D03*
X121800000Y-95675000D03*
X97250000Y-122425000D03*
X97225000Y-135925000D03*
X128050000Y-56900000D03*
X128050000Y-70744468D03*
X105175000Y-90535000D03*
X104950000Y-57725000D03*
X123200000Y-96800000D03*
X145300000Y-88750000D03*
X145325000Y-143750000D03*
X146475000Y-141725000D03*
X146475000Y-90350000D03*
X127400000Y-141750000D03*
X104199997Y-57725000D03*
X104225000Y-90020542D03*
X126625000Y-142325000D03*
X145900000Y-89775000D03*
X145875000Y-142325000D03*
X106475000Y-91710000D03*
X106475000Y-55650000D03*
X101375000Y-57725000D03*
X101350000Y-89435000D03*
X105900000Y-91119370D03*
X105900000Y-57725000D03*
X100775000Y-88835000D03*
X100624997Y-57725000D03*
X83000000Y-67835000D03*
X99874994Y-57725000D03*
X99900000Y-88360000D03*
D38*
X100890000Y-155960000D03*
D37*
X107300000Y-92235000D03*
X107201000Y-55461778D03*
X107750000Y-83310000D03*
X107750000Y-57725000D03*
D40*
X134262500Y-130477500D02*
X134280000Y-130460000D01*
X134262500Y-132050000D02*
X134262500Y-130477500D01*
X116837500Y-146942500D02*
X116820000Y-146960000D01*
X116837500Y-145400000D02*
X116837500Y-146942500D01*
X110737500Y-85762500D02*
X110630000Y-85870000D01*
X112050000Y-85762500D02*
X110737500Y-85762500D01*
X122412500Y-74262500D02*
X122380000Y-74230000D01*
X122412500Y-75825000D02*
X122412500Y-74262500D01*
X125937500Y-78912500D02*
X125910000Y-78940000D01*
X127525000Y-78912500D02*
X125937500Y-78912500D01*
X122217500Y-80812500D02*
X122240000Y-80790000D01*
X120625000Y-80812500D02*
X122217500Y-80812500D01*
X115862500Y-80277500D02*
X115860000Y-80280000D01*
X115862500Y-78750000D02*
X115862500Y-80277500D01*
X116300000Y-89990000D02*
X116290000Y-90000000D01*
X116300000Y-88612500D02*
X116300000Y-89990000D01*
X121600000Y-88120000D02*
X121610000Y-88130000D01*
X121600000Y-86637500D02*
X121600000Y-88120000D01*
X125917500Y-84162500D02*
X125910000Y-84170000D01*
X127550000Y-84162500D02*
X125917500Y-84162500D01*
X126127500Y-90637500D02*
X126100000Y-90610000D01*
X127725000Y-90637500D02*
X126127500Y-90637500D01*
X124087500Y-89827500D02*
X124080000Y-89820000D01*
X124087500Y-91300000D02*
X124087500Y-89827500D01*
X119087500Y-91797500D02*
X120080000Y-92790000D01*
X119087500Y-91525000D02*
X119087500Y-91797500D01*
X111025000Y-131215000D02*
X111025000Y-130295000D01*
X110560000Y-131680000D02*
X111025000Y-131215000D01*
X112025000Y-139705000D02*
X111520000Y-140210000D01*
X112025000Y-138655000D02*
X112025000Y-139705000D01*
X111525000Y-128735000D02*
X111530000Y-128730000D01*
X111525000Y-130295000D02*
X111525000Y-128735000D01*
X113025000Y-131525000D02*
X112770000Y-131780000D01*
X113025000Y-130295000D02*
X113025000Y-131525000D01*
D41*
X129000000Y-163370000D02*
X128260000Y-164110000D01*
X129000000Y-162000000D02*
X129000000Y-163370000D01*
X129000000Y-159780000D02*
X128990000Y-159770000D01*
X129000000Y-162000000D02*
X129000000Y-159780000D01*
D40*
X105687500Y-140587500D02*
X105670000Y-140570000D01*
X107150000Y-140587500D02*
X105687500Y-140587500D01*
X99240000Y-144340000D02*
X99100000Y-144200000D01*
D41*
X99240000Y-147555000D02*
X99240000Y-144340000D01*
X97650000Y-142750000D02*
X97650000Y-141000001D01*
X99100000Y-144200000D02*
X97650000Y-142750000D01*
D40*
X100050000Y-140050000D02*
X98860000Y-140050000D01*
X76500000Y-91850000D02*
X76690000Y-92040000D01*
X76500000Y-90091000D02*
X76500000Y-91850000D01*
X71700000Y-91780000D02*
X71820000Y-91900000D01*
X71700000Y-90091000D02*
X71700000Y-91780000D01*
X66325000Y-78635000D02*
X66320000Y-78640000D01*
X67700000Y-78635000D02*
X66325000Y-78635000D01*
X69300000Y-77020000D02*
X69500000Y-76820000D01*
X69300000Y-78635000D02*
X69300000Y-77020000D01*
X74100000Y-76840000D02*
X74110000Y-76830000D01*
X74100000Y-78635000D02*
X74100000Y-76840000D01*
X78100000Y-76890000D02*
X78080000Y-76870000D01*
X78100000Y-78635000D02*
X78100000Y-76890000D01*
X89875000Y-78635000D02*
X89890000Y-78620000D01*
X88500000Y-78635000D02*
X89875000Y-78635000D01*
X158170000Y-75590000D02*
X157450000Y-76310000D01*
X158170000Y-74665000D02*
X158170000Y-75590000D01*
X158670000Y-73570000D02*
X159100000Y-73140000D01*
X158670000Y-74665000D02*
X158670000Y-73570000D01*
X158170000Y-73110000D02*
X158160000Y-73100000D01*
X158170000Y-74665000D02*
X158170000Y-73110000D01*
X158670000Y-95410000D02*
X159130000Y-95870000D01*
X158670000Y-94365000D02*
X158670000Y-95410000D01*
X158170000Y-95900000D02*
X158190000Y-95920000D01*
X158170000Y-94365000D02*
X158170000Y-95900000D01*
X45175000Y-133425000D02*
X44610000Y-132860000D01*
X45175000Y-134222500D02*
X45175000Y-133425000D01*
X45175000Y-135405000D02*
X45420000Y-135650000D01*
X45175000Y-134222500D02*
X45175000Y-135405000D01*
X51537500Y-135717500D02*
X51540000Y-135720000D01*
X51537500Y-134300000D02*
X51537500Y-135717500D01*
X51537500Y-134300000D02*
X52850000Y-134300000D01*
X51537500Y-132807500D02*
X51520000Y-132790000D01*
X51537500Y-134300000D02*
X51537500Y-132807500D01*
X38637500Y-135712500D02*
X38630000Y-135720000D01*
X38637500Y-134275000D02*
X38637500Y-135712500D01*
X37265000Y-134275000D02*
X37260000Y-134280000D01*
X38637500Y-134275000D02*
X37265000Y-134275000D01*
X43142500Y-119637500D02*
X43140000Y-119640000D01*
X44575000Y-119637500D02*
X43142500Y-119637500D01*
X44575000Y-118335000D02*
X44590000Y-118320000D01*
X44575000Y-119637500D02*
X44575000Y-118335000D01*
X83150000Y-151260000D02*
X84410000Y-151260000D01*
X84410000Y-151260000D02*
X84890000Y-150780000D01*
X75635007Y-131685007D02*
X75650000Y-131700000D01*
X74222250Y-131685007D02*
X75635007Y-131685007D01*
X72674993Y-131685007D02*
X72670000Y-131690000D01*
X74222250Y-131685007D02*
X72674993Y-131685007D01*
X80127750Y-135147750D02*
X80150000Y-135170000D01*
X80127750Y-134284951D02*
X80127750Y-135147750D01*
X81594951Y-134284951D02*
X81620000Y-134310000D01*
X80127750Y-134284951D02*
X81594951Y-134284951D01*
X67362500Y-136127500D02*
X67360000Y-136130000D01*
X67362500Y-134625000D02*
X67362500Y-136127500D01*
X66015000Y-134625000D02*
X66000000Y-134610000D01*
X67362500Y-134625000D02*
X66015000Y-134625000D01*
X67362500Y-133172500D02*
X67350000Y-133160000D01*
X67362500Y-134625000D02*
X67362500Y-133172500D01*
X130470000Y-53350000D02*
X130480000Y-53360000D01*
X129237500Y-53350000D02*
X130470000Y-53350000D01*
X129237500Y-54657500D02*
X129250000Y-54670000D01*
X129237500Y-53350000D02*
X129237500Y-54657500D01*
X126080000Y-53350000D02*
X125980000Y-53250000D01*
X127162500Y-53350000D02*
X126080000Y-53350000D01*
D41*
X136967500Y-69952500D02*
X137010000Y-69910000D01*
X135420000Y-69952500D02*
X136967500Y-69952500D01*
X135420000Y-68600000D02*
X135400000Y-68580000D01*
X135420000Y-69952500D02*
X135420000Y-68600000D01*
X133962500Y-69952500D02*
X133940000Y-69930000D01*
X135420000Y-69952500D02*
X133962500Y-69952500D01*
X135420000Y-72027500D02*
X135420000Y-73460000D01*
X104040000Y-98110000D02*
X104090000Y-98160000D01*
X104040000Y-96670000D02*
X104040000Y-98110000D01*
X104040000Y-96670000D02*
X105420000Y-96670000D01*
X104040000Y-95210000D02*
X104030000Y-95200000D01*
X104040000Y-96670000D02*
X104040000Y-95210000D01*
X100560000Y-96670000D02*
X100540000Y-96650000D01*
X101965000Y-96670000D02*
X100560000Y-96670000D01*
X125850000Y-158240000D02*
X125850000Y-159850000D01*
X125850000Y-157850000D02*
X125850000Y-158240000D01*
D40*
X113200000Y-145400000D02*
X113175000Y-145375000D01*
D41*
X114762500Y-145400000D02*
X113200000Y-145400000D01*
X113175000Y-145375000D02*
X113175000Y-143750000D01*
X123645113Y-151400000D02*
X125800000Y-151400000D01*
X102875000Y-144200000D02*
X99100000Y-144200000D01*
X107150000Y-142662500D02*
X107150000Y-143725000D01*
X103325000Y-143750000D02*
X102875000Y-144200000D01*
X125850000Y-151450000D02*
X125850000Y-157850000D01*
X107150000Y-143725000D02*
X107125000Y-143750000D01*
X113175000Y-147449999D02*
X113175000Y-145375000D01*
X123420000Y-158277500D02*
X125812500Y-158277500D01*
D40*
X125850000Y-161950000D02*
X125800000Y-162000000D01*
D41*
X125800000Y-151400000D02*
X125850000Y-151450000D01*
X125812500Y-158277500D02*
X125850000Y-158240000D01*
X125850000Y-159850000D02*
X125850000Y-161950000D01*
X125850000Y-143750000D02*
X125850000Y-151450000D01*
D40*
X47175000Y-117650000D02*
X47125000Y-117700000D01*
X47125000Y-117700000D02*
X47125000Y-128497500D01*
X129075000Y-95650000D02*
X129075000Y-117625000D01*
X112050000Y-87837500D02*
X110687500Y-87837500D01*
X110675000Y-79400000D02*
X110712500Y-79437500D01*
X117937500Y-78750000D02*
X117937500Y-77412500D01*
X110712500Y-79437500D02*
X112075000Y-79437500D01*
X126212500Y-80987500D02*
X126100000Y-81100000D01*
X75485035Y-130385035D02*
X75625000Y-130525000D01*
X126312500Y-92712500D02*
X126300000Y-92700000D01*
X116250000Y-132725000D02*
X116300000Y-132675000D01*
X108875001Y-147449999D02*
X108875000Y-147450000D01*
X67700000Y-88700000D02*
X67700000Y-90091000D01*
X127550000Y-86237500D02*
X127550000Y-87350000D01*
X110687500Y-87837500D02*
X110675000Y-87850000D01*
X127525000Y-80987500D02*
X126212500Y-80987500D01*
X112050000Y-89712500D02*
X111262500Y-89712500D01*
X119240000Y-75850000D02*
X119270000Y-75820000D01*
X129237500Y-50612500D02*
X129400000Y-50450000D01*
X122187500Y-78737500D02*
X122275000Y-78650000D01*
X115825000Y-91525000D02*
X115800000Y-91500000D01*
X44575000Y-121712500D02*
X44575000Y-123062500D01*
X69300000Y-88675000D02*
X69300000Y-90091000D01*
X117012500Y-91525000D02*
X115825000Y-91525000D01*
X78100000Y-88625000D02*
X78250000Y-88475000D01*
X111262500Y-89712500D02*
X110630000Y-89080000D01*
X88500000Y-90091000D02*
X88550000Y-90041000D01*
X74222250Y-129735049D02*
X75389951Y-129735049D01*
X125975000Y-75825000D02*
X126000000Y-75800000D01*
X127725000Y-92712500D02*
X126312500Y-92712500D01*
X116325000Y-131725000D02*
X116375000Y-131675000D01*
X44575000Y-123062500D02*
X44850000Y-123337500D01*
X121600000Y-84562500D02*
X121600000Y-83400000D01*
X127550000Y-87350000D02*
X127600000Y-87400000D01*
X116300000Y-86537500D02*
X117712500Y-86537500D01*
X158170000Y-93180000D02*
X157945000Y-92955000D01*
X76600000Y-78735000D02*
X76600000Y-80225000D01*
X101300000Y-141000001D02*
X100050000Y-141000001D01*
X71700000Y-79925000D02*
X71825000Y-80050000D01*
X44575000Y-121712500D02*
X43162500Y-121712500D01*
X120625000Y-78737500D02*
X122187500Y-78737500D01*
X78100000Y-90091000D02*
X78100000Y-88625000D01*
X114955000Y-132725000D02*
X116250000Y-132725000D01*
X112525000Y-140175000D02*
X112510000Y-140190000D01*
X158170000Y-94365000D02*
X158170000Y-93180000D01*
X44525000Y-128497500D02*
X44525000Y-126950000D01*
X88550000Y-90041000D02*
X88550000Y-88525000D01*
X76500000Y-78635000D02*
X76600000Y-78735000D01*
X80127750Y-132334993D02*
X78834993Y-132334993D01*
X117937500Y-77412500D02*
X117950000Y-77400000D01*
X116250000Y-82487500D02*
X116250000Y-81225000D01*
X110775000Y-147449999D02*
X108875001Y-147449999D01*
X114955000Y-131725000D02*
X116325000Y-131725000D01*
X113175000Y-148400000D02*
X114625000Y-148400000D01*
X74100000Y-90091000D02*
X74200000Y-89991000D01*
X46475000Y-131700000D02*
X46525000Y-131650000D01*
X43162500Y-121712500D02*
X43125000Y-121675000D01*
X74200000Y-89991000D02*
X74200000Y-88575000D01*
X75389951Y-129735049D02*
X75625000Y-129500000D01*
X71700000Y-78635000D02*
X71700000Y-79925000D01*
X117712500Y-86537500D02*
X117800000Y-86450000D01*
X122012500Y-91300000D02*
X120900000Y-91300000D01*
X124487500Y-75825000D02*
X125975000Y-75825000D01*
X114625000Y-148400000D02*
X114675000Y-148350000D01*
X78834993Y-132334993D02*
X78825000Y-132325000D01*
X74222250Y-130385035D02*
X75485035Y-130385035D01*
X117925000Y-75850000D02*
X119240000Y-75850000D01*
X46475000Y-134222500D02*
X46475000Y-131700000D01*
X112525000Y-138655000D02*
X112525000Y-140175000D01*
X113725000Y-112035000D02*
X113725000Y-74210000D01*
X48000000Y-112035000D02*
X47775000Y-112260000D01*
X47775000Y-112260000D02*
X47775000Y-128497500D01*
X45475000Y-133135001D02*
X45825000Y-133485001D01*
X45825000Y-133485001D02*
X45825000Y-134222500D01*
X45475000Y-132575000D02*
X45475000Y-133135001D01*
X43875000Y-135704998D02*
X43852775Y-135727223D01*
X43875000Y-134222500D02*
X43875000Y-135704998D01*
X47852500Y-134300000D02*
X47775000Y-134222500D01*
X49462500Y-134300000D02*
X47852500Y-134300000D01*
X113150000Y-112760000D02*
X113150000Y-74835000D01*
X45825000Y-112860000D02*
X45825000Y-128497500D01*
X113100000Y-112810000D02*
X113150000Y-112760000D01*
X114662500Y-110672500D02*
X114725000Y-110610000D01*
X46475000Y-110685000D02*
X46500000Y-110710000D01*
X46500000Y-110710000D02*
X46500000Y-128472500D01*
X46500000Y-128472500D02*
X46475000Y-128497500D01*
X114725000Y-110610000D02*
X114725000Y-74235000D01*
X43225000Y-134222500D02*
X40765000Y-134222500D01*
X40765000Y-134222500D02*
X40712500Y-134275000D01*
X113000000Y-128850000D02*
X113000000Y-130270000D01*
X109025000Y-131475000D02*
X108875000Y-131625000D01*
X116050000Y-136225000D02*
X116375000Y-136225000D01*
D41*
X112075000Y-77362500D02*
X112075000Y-76025000D01*
D40*
X78200000Y-78735000D02*
X78100000Y-78635000D01*
D41*
X110775000Y-148400000D02*
X109475000Y-148400000D01*
D40*
X134800000Y-139475001D02*
X138421500Y-139475001D01*
X76500000Y-90091000D02*
X76575000Y-90016000D01*
X107150000Y-140587500D02*
X108537500Y-140587500D01*
X76575000Y-90016000D02*
X76575000Y-88575000D01*
X116300000Y-88612500D02*
X117687500Y-88612500D01*
X127550000Y-82950000D02*
X127600000Y-82900000D01*
X112025000Y-138655000D02*
X112025000Y-137150000D01*
D41*
X115850000Y-75850000D02*
X115850000Y-74425000D01*
D40*
X71700000Y-90091000D02*
X71800000Y-89991000D01*
X158670000Y-75976727D02*
X158869448Y-76176175D01*
X127550000Y-84162500D02*
X127550000Y-82950000D01*
X115862500Y-77337500D02*
X115825000Y-77300000D01*
X114955000Y-136225000D02*
X116050000Y-136225000D01*
D41*
X116250000Y-84562500D02*
X117887500Y-84562500D01*
X115850000Y-74425000D02*
X115875000Y-74400000D01*
D40*
X67725000Y-78660000D02*
X67700000Y-78635000D01*
X113025000Y-137250000D02*
X113025000Y-138655000D01*
X69300000Y-80000000D02*
X69300000Y-78635000D01*
X134725000Y-139550001D02*
X134800000Y-139475001D01*
X127725000Y-89425000D02*
X127700000Y-89400000D01*
X124087500Y-91300000D02*
X125300000Y-91300000D01*
D41*
X112075000Y-76025000D02*
X112100000Y-76000000D01*
D40*
X97650000Y-140050000D02*
X96200000Y-140050000D01*
X120625000Y-80812500D02*
X119162500Y-80812500D01*
X43225000Y-128497500D02*
X43225000Y-127600000D01*
X134262500Y-132050000D02*
X135725000Y-132050000D01*
X47125000Y-134222500D02*
X47125000Y-132875000D01*
D41*
X121972500Y-156202500D02*
X121920000Y-156150000D01*
D40*
X100050000Y-140050000D02*
X101525000Y-140050000D01*
X117687500Y-88612500D02*
X117725000Y-88650000D01*
X127525000Y-77725000D02*
X127500000Y-77700000D01*
X109525000Y-131625000D02*
X109525000Y-130295000D01*
X74100000Y-80250000D02*
X74100000Y-78635000D01*
X158670000Y-74665000D02*
X158670000Y-75976727D01*
X121600000Y-86637500D02*
X123162500Y-86637500D01*
X118200000Y-145400000D02*
X118250000Y-145450000D01*
X43875000Y-128497500D02*
X43875000Y-126955302D01*
X67725000Y-80100000D02*
X67725000Y-78660000D01*
X119087500Y-90112500D02*
X119100000Y-90100000D01*
X78200000Y-79900000D02*
X78200000Y-78735000D01*
X127525000Y-78912500D02*
X127525000Y-77725000D01*
X71800000Y-89991000D02*
X71800000Y-88575000D01*
D41*
X109475000Y-148400000D02*
X109450000Y-148375000D01*
D40*
X43875000Y-126955302D02*
X43780339Y-126860641D01*
X113000000Y-130270000D02*
X113025000Y-130295000D01*
D41*
X110800000Y-91787500D02*
X112050000Y-91787500D01*
X123420000Y-156202500D02*
X123420000Y-154790000D01*
D40*
X116837500Y-145400000D02*
X118200000Y-145400000D01*
D41*
X123420000Y-156202500D02*
X121972500Y-156202500D01*
D40*
X129125000Y-162125000D02*
X129000000Y-162000000D01*
X111525000Y-131675000D02*
X111525000Y-130295000D01*
X158670000Y-94365000D02*
X158670000Y-93180000D01*
X119087500Y-91525000D02*
X119087500Y-90112500D01*
X109550000Y-131650000D02*
X109525000Y-131625000D01*
X109025000Y-130295000D02*
X109025000Y-131475000D01*
D41*
X117887500Y-84562500D02*
X117950000Y-84500000D01*
D40*
X127162500Y-50752500D02*
X126860000Y-50450000D01*
X119162500Y-80812500D02*
X119100000Y-80875000D01*
D41*
X125052500Y-156202500D02*
X125060000Y-156210000D01*
D40*
X116375000Y-136225000D02*
X116500000Y-136100000D01*
X134725000Y-140600000D02*
X134725000Y-139550001D01*
X122412500Y-75825000D02*
X121225000Y-75825000D01*
X121225000Y-75825000D02*
X121200000Y-75800000D01*
D41*
X123420000Y-156202500D02*
X125052500Y-156202500D01*
D40*
X158670000Y-93180000D02*
X158970000Y-92880000D01*
X88600000Y-78735000D02*
X88600000Y-80275000D01*
X130928500Y-139475001D02*
X138421500Y-139475001D01*
X111550000Y-131700000D02*
X111525000Y-131675000D01*
X88500000Y-78635000D02*
X88600000Y-78735000D01*
X123162500Y-86637500D02*
X123200000Y-86600000D01*
X69362500Y-80062500D02*
X69300000Y-80000000D01*
X108537500Y-140587500D02*
X108600000Y-140525000D01*
X47125000Y-132875000D02*
X47350000Y-132650000D01*
X43225000Y-127600000D02*
X42850000Y-127225000D01*
X112025000Y-137150000D02*
X112000000Y-137125000D01*
X115862500Y-78750000D02*
X115862500Y-77337500D01*
X127725000Y-90637500D02*
X127725000Y-89425000D01*
D41*
X123420000Y-154790000D02*
X123410000Y-154780000D01*
D40*
X112050000Y-85762500D02*
X111602500Y-85762500D01*
X112050000Y-84550000D02*
X112050000Y-85762500D01*
X114955000Y-136725000D02*
X116361826Y-136725000D01*
X116361826Y-136725000D02*
X116455913Y-136630913D01*
X44525000Y-135475000D02*
X44575000Y-135525000D01*
X44525000Y-134222500D02*
X44525000Y-135475000D01*
X138421500Y-134974999D02*
X130928500Y-134974999D01*
X130925000Y-132050000D02*
X130925000Y-133660000D01*
X130928500Y-133663500D02*
X130928500Y-134974999D01*
X130925000Y-120810000D02*
X130925000Y-132050000D01*
X98850000Y-80360001D02*
X98850000Y-120810000D01*
X130925000Y-133660000D02*
X130928500Y-133663500D01*
X132187500Y-132050000D02*
X130925000Y-132050000D01*
X81515021Y-132984979D02*
X81550000Y-132950000D01*
X80127750Y-132984979D02*
X81515021Y-132984979D01*
X74222250Y-132334993D02*
X69927507Y-132334993D01*
X69927507Y-132334993D02*
X69600000Y-132662500D01*
X70725000Y-134625000D02*
X69437500Y-134625000D01*
X74222250Y-132984979D02*
X72365021Y-132984979D01*
X72365021Y-132984979D02*
X70725000Y-134625000D01*
X82514951Y-129735049D02*
X80127750Y-129735049D01*
X137400000Y-86325000D02*
X137400000Y-123100000D01*
X103400000Y-123125000D02*
X103400000Y-129625000D01*
X103400000Y-129625000D02*
X103400000Y-133775000D01*
X82575000Y-129675000D02*
X82514951Y-129735049D01*
X104350000Y-134725000D02*
X106595000Y-134725000D01*
X103400000Y-133775000D02*
X104350000Y-134725000D01*
X98050000Y-79300000D02*
X98050000Y-131050000D01*
X98050000Y-131050000D02*
X98050000Y-131365686D01*
X80142729Y-131050000D02*
X80127750Y-131035021D01*
X98050000Y-131365686D02*
X102909314Y-136225000D01*
X102909314Y-136225000D02*
X106595000Y-136225000D01*
X82025000Y-131050000D02*
X80142729Y-131050000D01*
X102250000Y-135000000D02*
X102975000Y-135725000D01*
X137975000Y-123700000D02*
X137950000Y-123725000D01*
X102975000Y-135725000D02*
X106595000Y-135725000D01*
X137975000Y-74750000D02*
X137975000Y-123700000D01*
X82825000Y-131725000D02*
X82785007Y-131685007D01*
X138000000Y-74725000D02*
X137975000Y-74750000D01*
X82785007Y-131685007D02*
X80127750Y-131685007D01*
X102250000Y-131700000D02*
X102250000Y-135000000D01*
X102250000Y-123850000D02*
X102250000Y-131700000D01*
X67520000Y-150910000D02*
X66140000Y-150910000D01*
X66140000Y-150910000D02*
X65730000Y-150500000D01*
X138650000Y-75300000D02*
X138650000Y-124600000D01*
X103500000Y-135225000D02*
X106595000Y-135225000D01*
X102825000Y-124525000D02*
X102825000Y-130375000D01*
X102825000Y-134550000D02*
X103500000Y-135225000D01*
X83525000Y-130425000D02*
X83485035Y-130385035D01*
X83485035Y-130385035D02*
X80127750Y-130385035D01*
X102825000Y-130375000D02*
X102825000Y-134550000D01*
X70047521Y-131035021D02*
X69600000Y-130587500D01*
X74222250Y-131035021D02*
X70047521Y-131035021D01*
X78215035Y-133634965D02*
X78200000Y-133650000D01*
X80127750Y-133634965D02*
X78215035Y-133634965D01*
X73115035Y-133634965D02*
X74222250Y-133634965D01*
X72500000Y-134250000D02*
X73115035Y-133634965D01*
X74222250Y-135097250D02*
X74250000Y-135125000D01*
X74222250Y-134284951D02*
X74222250Y-135097250D01*
X162170000Y-59780000D02*
X162170000Y-74665000D01*
X142525000Y-80775000D02*
X142525000Y-59475000D01*
X65660000Y-59575000D02*
X65760000Y-59475000D01*
X68600000Y-90191000D02*
X68500000Y-90091000D01*
X65660000Y-93400000D02*
X65660000Y-59575000D01*
X161995000Y-59605000D02*
X162170000Y-59780000D01*
X68600000Y-93390000D02*
X68600000Y-90191000D01*
X75800000Y-100110000D02*
X75800000Y-90191000D01*
X75800000Y-90191000D02*
X75700000Y-90091000D01*
X93680000Y-65985000D02*
X93680000Y-100100000D01*
X123050000Y-71435000D02*
X123050000Y-65985000D01*
X155170000Y-67654214D02*
X155170000Y-74665000D01*
X154795000Y-67279214D02*
X155170000Y-67654214D01*
X154795000Y-66015000D02*
X154795000Y-67279214D01*
X122625000Y-95550000D02*
X122625000Y-107775000D01*
X155445000Y-107805000D02*
X155445000Y-106216827D01*
X155445000Y-106216827D02*
X155670000Y-105991827D01*
X155670000Y-105991827D02*
X155670000Y-94365000D01*
X154195000Y-67244899D02*
X154670000Y-67719899D01*
X154670000Y-67719899D02*
X154670000Y-74665000D01*
X77400000Y-90191000D02*
X77300000Y-90091000D01*
X94160000Y-65335000D02*
X94155000Y-65340000D01*
X94155000Y-65340000D02*
X94155000Y-100705000D01*
X94155000Y-100705000D02*
X94160000Y-100710000D01*
X77400000Y-100685000D02*
X77400000Y-90191000D01*
X123900000Y-65335000D02*
X123900000Y-71410000D01*
X154213388Y-65440000D02*
X154195000Y-65458388D01*
X154195000Y-65458388D02*
X154195000Y-67244899D01*
X143125000Y-58900000D02*
X143100000Y-58875000D01*
X65260000Y-58870000D02*
X65185000Y-58945000D01*
X70100000Y-94320000D02*
X70100000Y-90091000D01*
X161670000Y-73765000D02*
X161670000Y-74665000D01*
X161370000Y-58880000D02*
X161370000Y-59793173D01*
X161570000Y-59993173D02*
X161570000Y-73665000D01*
X65185000Y-58945000D02*
X65185000Y-94365000D01*
X143125000Y-81375000D02*
X143125000Y-58900000D01*
X65185000Y-94365000D02*
X65190000Y-94370000D01*
X161570000Y-73665000D02*
X161670000Y-73765000D01*
X70090000Y-94330000D02*
X70100000Y-94320000D01*
X161370000Y-59793173D02*
X161570000Y-59993173D01*
X156070000Y-99116827D02*
X156170000Y-99016827D01*
X124675000Y-106350000D02*
X124700000Y-106375000D01*
X156170000Y-99016827D02*
X156170000Y-94365000D01*
X124675000Y-95675000D02*
X124675000Y-106350000D01*
X156070000Y-106405000D02*
X156070000Y-99116827D01*
X156020000Y-106455000D02*
X156070000Y-106405000D01*
X155445000Y-67363529D02*
X155620000Y-67538529D01*
X122450000Y-70585000D02*
X122450000Y-66585000D01*
X93205000Y-66585000D02*
X93205000Y-99590000D01*
X155620000Y-67538529D02*
X155620000Y-74465000D01*
X75000000Y-99585000D02*
X75000000Y-90191000D01*
X75000000Y-90191000D02*
X74900000Y-90091000D01*
X155445000Y-66615000D02*
X155445000Y-67363529D01*
X123825000Y-107025000D02*
X123800000Y-107050000D01*
X161145000Y-103151827D02*
X161220000Y-103076827D01*
X161145000Y-107030000D02*
X161145000Y-103151827D01*
X161220000Y-103076827D02*
X161220000Y-94415000D01*
X161095000Y-107080000D02*
X161145000Y-107030000D01*
X123825000Y-95775000D02*
X123825000Y-107025000D01*
X161220000Y-94415000D02*
X161170000Y-94365000D01*
X156195000Y-67265000D02*
X156170000Y-67290000D01*
X121850000Y-67210000D02*
X121825000Y-67185000D01*
X73400000Y-90191000D02*
X73300000Y-90091000D01*
X121850000Y-71460000D02*
X121850000Y-67210000D01*
X92720000Y-98820000D02*
X92730000Y-98830000D01*
X92720000Y-67310000D02*
X92720000Y-98820000D01*
X73400000Y-98835000D02*
X73400000Y-90191000D01*
X156170000Y-67290000D02*
X156170000Y-74665000D01*
X160695000Y-100930000D02*
X160695000Y-100016827D01*
X141900000Y-78750000D02*
X141900000Y-100975000D01*
X160695000Y-100016827D02*
X160670000Y-99991827D01*
X160620000Y-101005000D02*
X160695000Y-100930000D01*
X160670000Y-99991827D02*
X160670000Y-94365000D01*
X156670000Y-99330000D02*
X156670000Y-94365000D01*
X156645000Y-99355000D02*
X156670000Y-99330000D01*
X148885000Y-87284999D02*
X148885000Y-99325000D01*
X107803435Y-84058096D02*
X107875000Y-84129661D01*
X161670000Y-103340000D02*
X161670000Y-94365000D01*
X161720000Y-103390000D02*
X161670000Y-103340000D01*
X107875000Y-84129661D02*
X107875000Y-103360000D01*
X160370000Y-63380000D02*
X160370000Y-64228529D01*
X147940000Y-63325000D02*
X147940000Y-105810000D01*
X125725000Y-95675000D02*
X125725000Y-105750000D01*
X125725000Y-105750000D02*
X125750000Y-105775000D01*
X160670000Y-64528529D02*
X160670000Y-74665000D01*
X160395000Y-63355000D02*
X160370000Y-63380000D01*
X72600000Y-105775000D02*
X72600000Y-90191000D01*
X72600000Y-90191000D02*
X72500000Y-90091000D01*
X147940000Y-105810000D02*
X147900000Y-105850000D01*
X160370000Y-64228529D02*
X160670000Y-64528529D01*
X160170000Y-100205000D02*
X160170000Y-94365000D01*
X160120000Y-100255000D02*
X160170000Y-100205000D01*
X141200000Y-100225000D02*
X141200000Y-78275000D01*
X141275000Y-100300000D02*
X141200000Y-100225000D01*
X148410000Y-105170000D02*
X148415000Y-105175000D01*
X71000000Y-90191000D02*
X70900000Y-90091000D01*
X160970000Y-63980000D02*
X161170000Y-64180000D01*
X127025000Y-105150000D02*
X127050000Y-105175000D01*
X71000000Y-105175000D02*
X71000000Y-90191000D01*
X127025000Y-95700000D02*
X127025000Y-105150000D01*
X148410000Y-63995000D02*
X148410000Y-105170000D01*
X161170000Y-64180000D02*
X161170000Y-74665000D01*
X148415000Y-63990000D02*
X148410000Y-63995000D01*
X87800000Y-90191000D02*
X87700000Y-90091000D01*
X87800000Y-93710000D02*
X87800000Y-90191000D01*
X96080000Y-86190000D02*
X96075000Y-86195000D01*
X96075000Y-86195000D02*
X96075000Y-93710000D01*
X127475000Y-55500000D02*
X127475000Y-71110000D01*
X127475000Y-71110000D02*
X127325000Y-71260000D01*
X83700000Y-78635000D02*
X83800000Y-78535000D01*
X83800000Y-78535000D02*
X83800000Y-69235000D01*
X73400000Y-78535000D02*
X73300000Y-78635000D01*
X126250000Y-65845231D02*
X126225000Y-65870231D01*
X126225000Y-65870231D02*
X126225000Y-69185000D01*
X126250000Y-62610000D02*
X126250000Y-65845231D01*
X73400000Y-62610000D02*
X73400000Y-78535000D01*
X125650000Y-63310000D02*
X125650000Y-65879545D01*
X75000000Y-78535000D02*
X74900000Y-78635000D01*
X75000000Y-63310000D02*
X75000000Y-78535000D01*
X125650000Y-65879545D02*
X125625000Y-65904545D01*
X125625000Y-65904545D02*
X125625000Y-69660000D01*
X125625000Y-69660000D02*
X125650000Y-69685000D01*
X112575000Y-95850000D02*
X112575000Y-102785000D01*
X91770000Y-102670000D02*
X91770000Y-73325000D01*
X79800000Y-78535000D02*
X79700000Y-78635000D01*
X79800000Y-73350000D02*
X79800000Y-78535000D01*
X85300000Y-78635000D02*
X85400000Y-78535000D01*
X85400000Y-78535000D02*
X85400000Y-70535000D01*
X96550000Y-86785000D02*
X96550000Y-94360000D01*
X87000000Y-94335000D02*
X87000000Y-90191000D01*
X87000000Y-90191000D02*
X86900000Y-90091000D01*
X97025000Y-87289999D02*
X97025000Y-94985000D01*
X97030000Y-87284999D02*
X97025000Y-87289999D01*
X86200000Y-90191000D02*
X86100000Y-90091000D01*
X86200000Y-94935000D02*
X86200000Y-90191000D01*
X99425000Y-75870000D02*
X99425000Y-78250000D01*
X81400000Y-75860000D02*
X81400000Y-78535000D01*
X81400000Y-78535000D02*
X81300000Y-78635000D01*
X68600000Y-78535000D02*
X68500000Y-78635000D01*
X68600000Y-60275000D02*
X68600000Y-78535000D01*
X140575000Y-77825000D02*
X140575000Y-60350000D01*
X85400000Y-90191000D02*
X85300000Y-90091000D01*
X97500000Y-95685000D02*
X97500000Y-87950000D01*
X85400000Y-95685000D02*
X85400000Y-90191000D01*
X86100000Y-78635000D02*
X86200000Y-78535000D01*
X86200000Y-78535000D02*
X86200000Y-71020000D01*
X86200000Y-71020000D02*
X86210000Y-71010000D01*
X77400000Y-64785000D02*
X77400000Y-78535000D01*
X124500000Y-64760000D02*
X124500000Y-70885000D01*
X77400000Y-78535000D02*
X77300000Y-78635000D01*
X83800000Y-90191000D02*
X83700000Y-90091000D01*
X83800000Y-104575000D02*
X83800000Y-90191000D01*
X144550000Y-83300000D02*
X144550000Y-104575000D01*
X84500000Y-78635000D02*
X84600000Y-78535000D01*
X84600000Y-78535000D02*
X84600000Y-69835000D01*
X72600000Y-62135000D02*
X72600000Y-78535000D01*
X126900000Y-62010000D02*
X126900000Y-68585654D01*
X72600000Y-78535000D02*
X72500000Y-78635000D01*
X126900000Y-68585654D02*
X126800000Y-68685654D01*
X139950000Y-77275000D02*
X139950000Y-60975000D01*
X139950000Y-60975000D02*
X139925000Y-60950000D01*
X70200000Y-78535000D02*
X70100000Y-78635000D01*
X70200000Y-60875000D02*
X70200000Y-78535000D01*
X94630000Y-76220000D02*
X94635000Y-76225000D01*
X81400000Y-101460000D02*
X81400000Y-90191000D01*
X94630000Y-71435000D02*
X94630000Y-76220000D01*
X81400000Y-90191000D02*
X81300000Y-90091000D01*
X94635000Y-101455000D02*
X94640000Y-101460000D01*
X94635000Y-76225000D02*
X94635000Y-101455000D01*
X82200000Y-90191000D02*
X82100000Y-90091000D01*
X82200000Y-92310000D02*
X82200000Y-90191000D01*
X95110000Y-79008332D02*
X95110000Y-92295000D01*
X95110000Y-92295000D02*
X95125000Y-92310000D01*
X75800000Y-78535000D02*
X75700000Y-78635000D01*
X125075000Y-64085000D02*
X125075000Y-70385000D01*
X125050000Y-64060000D02*
X125075000Y-64085000D01*
X75800000Y-64060000D02*
X75800000Y-78535000D01*
X103400000Y-77135000D02*
X103400000Y-85735000D01*
X87700000Y-77135000D02*
X87700000Y-78635000D01*
X79000000Y-102175000D02*
X79000000Y-90191000D01*
X79000000Y-90191000D02*
X78900000Y-90091000D01*
X111827588Y-102137588D02*
X111900000Y-102210000D01*
X111827588Y-95912285D02*
X111827588Y-102137588D01*
X83000000Y-103935000D02*
X83000000Y-90191000D01*
X83000000Y-90191000D02*
X82900000Y-90091000D01*
X143900000Y-82750000D02*
X143900000Y-103935000D01*
X87000000Y-78535000D02*
X87000000Y-76435000D01*
X102300000Y-76435000D02*
X102300000Y-85235000D01*
X86900000Y-78635000D02*
X87000000Y-78535000D01*
X79775000Y-92985000D02*
X79775000Y-90166000D01*
X95600000Y-79735000D02*
X95600000Y-92990000D01*
X79775000Y-90166000D02*
X79700000Y-90091000D01*
X145030000Y-84780000D02*
X145025000Y-84785000D01*
X145030000Y-58300000D02*
X145030000Y-84780000D01*
X80600000Y-78535000D02*
X80500000Y-78635000D01*
X80600000Y-58300000D02*
X80600000Y-78535000D01*
X117275000Y-95725000D02*
X117275000Y-106350000D01*
X80600000Y-90191000D02*
X80500000Y-90091000D01*
X80600000Y-106350000D02*
X80600000Y-90191000D01*
X139225000Y-61460000D02*
X139225000Y-76800000D01*
X71000000Y-78535000D02*
X70900000Y-78635000D01*
X139200000Y-61435000D02*
X139225000Y-61460000D01*
X71000000Y-61550000D02*
X71000000Y-78535000D01*
X84600000Y-97835000D02*
X84600000Y-90191000D01*
X84600000Y-90191000D02*
X84500000Y-90091000D01*
X92245000Y-68635000D02*
X92245000Y-97840000D01*
X147425000Y-94197500D02*
X147425000Y-135015000D01*
X147425000Y-135015000D02*
X153370000Y-140960000D01*
X115895758Y-96265153D02*
X115895758Y-129459510D01*
X115895758Y-129459510D02*
X113525000Y-131830268D01*
X113525000Y-131830268D02*
X113525000Y-138655000D01*
X146950000Y-137080000D02*
X150830000Y-140960000D01*
X146950000Y-90925000D02*
X146950000Y-137080000D01*
X110775000Y-149349998D02*
X111300002Y-149349998D01*
X111300002Y-149349998D02*
X111625000Y-149025000D01*
X111625000Y-142079732D02*
X109025000Y-139479732D01*
X111625000Y-149025000D02*
X111625000Y-142079732D01*
X109025000Y-139479732D02*
X109025000Y-138655000D01*
X118200000Y-95836827D02*
X118200000Y-135700000D01*
X116675000Y-137225000D02*
X114955000Y-137225000D01*
X117036827Y-95150000D02*
X117513173Y-95150000D01*
X116525552Y-95661275D02*
X117036827Y-95150000D01*
X116525552Y-95696175D02*
X116525552Y-95661275D01*
X117513173Y-95150000D02*
X118200000Y-95836827D01*
X118200000Y-135700000D02*
X116675000Y-137225000D01*
X121800000Y-95675000D02*
X121800000Y-122400000D01*
X100050000Y-135975000D02*
X100050000Y-139100002D01*
X100025000Y-135950000D02*
X100050000Y-135975000D01*
X97225000Y-135925000D02*
X97225000Y-122450000D01*
X121800000Y-122400000D02*
X121825000Y-122425000D01*
X97225000Y-122450000D02*
X97250000Y-122425000D01*
X128050000Y-70744468D02*
X128050000Y-56900000D01*
X95124998Y-139100002D02*
X93830000Y-140395000D01*
X97650000Y-139100002D02*
X95124998Y-139100002D01*
X93830000Y-140395000D02*
X93830000Y-165175000D01*
X104950000Y-57725000D02*
X104800000Y-57875000D01*
X104800000Y-57875000D02*
X104800000Y-90160000D01*
X104800000Y-90160000D02*
X105175000Y-90535000D01*
X123250000Y-134862500D02*
X123175000Y-134937500D01*
X123175000Y-134937500D02*
X123175000Y-138000000D01*
X123200000Y-132987500D02*
X123250000Y-133037500D01*
X123200000Y-96800000D02*
X123200000Y-132987500D01*
X145300000Y-88750000D02*
X145300000Y-143725000D01*
X145300000Y-143725000D02*
X145325000Y-143750000D01*
X146475000Y-141725000D02*
X146475000Y-90350000D01*
X127400000Y-141750000D02*
X127400000Y-162000000D01*
X104199997Y-57725000D02*
X104325000Y-57850003D01*
X104325000Y-89920542D02*
X104225000Y-90020542D01*
X104325000Y-57850003D02*
X104325000Y-89920542D01*
X126600000Y-142350000D02*
X126600000Y-162000000D01*
X126625000Y-142325000D02*
X126600000Y-142350000D01*
X145900000Y-142300000D02*
X145875000Y-142325000D01*
X145900000Y-89775000D02*
X145900000Y-142300000D01*
X106475000Y-55650000D02*
X106475000Y-91710000D01*
X113175000Y-149349998D02*
X116600000Y-152774998D01*
X116600000Y-152774998D02*
X116600000Y-165050000D01*
X116600000Y-165050000D02*
X116650000Y-165100000D01*
X101375000Y-89410000D02*
X101350000Y-89435000D01*
X101375000Y-57725000D02*
X101375000Y-89410000D01*
X105900000Y-73298173D02*
X105900000Y-91119370D01*
X105900000Y-57725000D02*
X105900000Y-71421827D01*
X105900000Y-71421827D02*
X105200000Y-72121827D01*
X105200000Y-72598173D02*
X105900000Y-73298173D01*
X105200000Y-72121827D02*
X105200000Y-72598173D01*
X100624997Y-57725000D02*
X100775000Y-57875003D01*
X100775000Y-57875003D02*
X100775000Y-88835000D01*
X82900000Y-78635000D02*
X83000000Y-78535000D01*
X83000000Y-78535000D02*
X83000000Y-67835000D01*
X99900000Y-57750006D02*
X99900000Y-88360000D01*
X99874994Y-57725000D02*
X99900000Y-57750006D01*
D41*
X100870000Y-155940000D02*
X100890000Y-155960000D01*
X99240000Y-155940000D02*
X99240000Y-164845000D01*
X99240000Y-155940000D02*
X100870000Y-155940000D01*
X99240000Y-152005000D02*
X99240000Y-155940000D01*
X99240000Y-164845000D02*
X98910000Y-165175000D01*
D40*
X107150000Y-92085000D02*
X107300000Y-92235000D01*
X107201000Y-55461778D02*
X107150000Y-55512778D01*
X107150000Y-55512778D02*
X107150000Y-92085000D01*
X45175000Y-128497500D02*
X45175000Y-125487500D01*
X45175000Y-125487500D02*
X44850000Y-125162500D01*
X107750000Y-57725000D02*
X107750000Y-83310000D01*
M02*
