G04 #@! TF.GenerationSoftware,KiCad,Pcbnew,8.0.5*
G04 #@! TF.CreationDate,2024-11-21T04:32:58-05:00*
G04 #@! TF.ProjectId,PCB_Order3,5043425f-4f72-4646-9572-332e6b696361,rev?*
G04 #@! TF.SameCoordinates,Original*
G04 #@! TF.FileFunction,Legend,Top*
G04 #@! TF.FilePolarity,Positive*
%FSLAX46Y46*%
G04 Gerber Fmt 4.6, Leading zero omitted, Abs format (unit mm)*
G04 Created by KiCad (PCBNEW 8.0.5) date 2024-11-21 04:32:58*
%MOMM*%
%LPD*%
G01*
G04 APERTURE LIST*
G04 Aperture macros list*
%AMRoundRect*
0 Rectangle with rounded corners*
0 $1 Rounding radius*
0 $2 $3 $4 $5 $6 $7 $8 $9 X,Y pos of 4 corners*
0 Add a 4 corners polygon primitive as box body*
4,1,4,$2,$3,$4,$5,$6,$7,$8,$9,$2,$3,0*
0 Add four circle primitives for the rounded corners*
1,1,$1+$1,$2,$3*
1,1,$1+$1,$4,$5*
1,1,$1+$1,$6,$7*
1,1,$1+$1,$8,$9*
0 Add four rect primitives between the rounded corners*
20,1,$1+$1,$2,$3,$4,$5,0*
20,1,$1+$1,$4,$5,$6,$7,0*
20,1,$1+$1,$6,$7,$8,$9,0*
20,1,$1+$1,$8,$9,$2,$3,0*%
G04 Aperture macros list end*
%ADD10C,0.300000*%
%ADD11C,0.150000*%
%ADD12C,0.254000*%
%ADD13C,0.120000*%
%ADD14C,0.100000*%
%ADD15C,0.127000*%
%ADD16C,0.200000*%
%ADD17C,0.152400*%
%ADD18C,0.508000*%
%ADD19C,0.000000*%
%ADD20C,1.295400*%
%ADD21C,0.900000*%
%ADD22RoundRect,0.250000X0.475000X-0.337500X0.475000X0.337500X-0.475000X0.337500X-0.475000X-0.337500X0*%
%ADD23RoundRect,0.250000X0.337500X0.475000X-0.337500X0.475000X-0.337500X-0.475000X0.337500X-0.475000X0*%
%ADD24C,1.303000*%
%ADD25C,1.300000*%
%ADD26RoundRect,0.060500X-0.821500X-0.181500X0.821500X-0.181500X0.821500X0.181500X-0.821500X0.181500X0*%
%ADD27RoundRect,0.060500X-0.181500X-0.821500X0.181500X-0.821500X0.181500X0.821500X-0.181500X0.821500X0*%
%ADD28RoundRect,0.250000X-0.475000X0.337500X-0.475000X-0.337500X0.475000X-0.337500X0.475000X0.337500X0*%
%ADD29R,1.100000X0.650001*%
%ADD30RoundRect,0.250000X-0.337500X-0.475000X0.337500X-0.475000X0.337500X0.475000X-0.337500X0.475000X0*%
%ADD31R,1.700000X1.700000*%
%ADD32O,1.700000X1.700000*%
%ADD33C,1.600000*%
%ADD34R,2.209800X0.863600*%
%ADD35R,0.300000X1.300000*%
%ADD36RoundRect,0.100000X0.100000X-0.637500X0.100000X0.637500X-0.100000X0.637500X-0.100000X-0.637500X0*%
%ADD37C,1.574800*%
%ADD38R,1.600000X1.600000*%
%ADD39R,0.500000X2.250000*%
%ADD40R,2.000000X2.500000*%
%ADD41RoundRect,0.250000X-1.450000X0.400000X-1.450000X-0.400000X1.450000X-0.400000X1.450000X0.400000X0*%
%ADD42RoundRect,0.237500X0.237500X-0.250000X0.237500X0.250000X-0.237500X0.250000X-0.237500X-0.250000X0*%
%ADD43R,1.409700X0.254000*%
%ADD44R,1.320800X1.320800*%
%ADD45C,1.320800*%
%ADD46R,3.765000X3.765000*%
%ADD47C,3.765000*%
%ADD48R,0.600000X1.295000*%
%ADD49C,0.350000*%
%ADD50C,0.450000*%
%ADD51C,0.600000*%
G04 APERTURE END LIST*
D10*
X57041203Y-80733919D02*
X57755489Y-80733919D01*
X57755489Y-80733919D02*
X57755489Y-82233919D01*
X56541203Y-80733919D02*
X56541203Y-81733919D01*
X56541203Y-82233919D02*
X56612631Y-82162490D01*
X56612631Y-82162490D02*
X56541203Y-82091062D01*
X56541203Y-82091062D02*
X56469774Y-82162490D01*
X56469774Y-82162490D02*
X56541203Y-82233919D01*
X56541203Y-82233919D02*
X56541203Y-82091062D01*
X55184060Y-80733919D02*
X55184060Y-81519633D01*
X55184060Y-81519633D02*
X55255488Y-81662490D01*
X55255488Y-81662490D02*
X55398345Y-81733919D01*
X55398345Y-81733919D02*
X55684060Y-81733919D01*
X55684060Y-81733919D02*
X55826917Y-81662490D01*
X55184060Y-80805348D02*
X55326917Y-80733919D01*
X55326917Y-80733919D02*
X55684060Y-80733919D01*
X55684060Y-80733919D02*
X55826917Y-80805348D01*
X55826917Y-80805348D02*
X55898345Y-80948205D01*
X55898345Y-80948205D02*
X55898345Y-81091062D01*
X55898345Y-81091062D02*
X55826917Y-81233919D01*
X55826917Y-81233919D02*
X55684060Y-81305348D01*
X55684060Y-81305348D02*
X55326917Y-81305348D01*
X55326917Y-81305348D02*
X55184060Y-81376776D01*
X54469774Y-80733919D02*
X54469774Y-81733919D01*
X54469774Y-81591062D02*
X54398345Y-81662490D01*
X54398345Y-81662490D02*
X54255488Y-81733919D01*
X54255488Y-81733919D02*
X54041202Y-81733919D01*
X54041202Y-81733919D02*
X53898345Y-81662490D01*
X53898345Y-81662490D02*
X53826917Y-81519633D01*
X53826917Y-81519633D02*
X53826917Y-80733919D01*
X53826917Y-81519633D02*
X53755488Y-81662490D01*
X53755488Y-81662490D02*
X53612631Y-81733919D01*
X53612631Y-81733919D02*
X53398345Y-81733919D01*
X53398345Y-81733919D02*
X53255488Y-81662490D01*
X53255488Y-81662490D02*
X53184059Y-81519633D01*
X53184059Y-81519633D02*
X53184059Y-80733919D01*
X50469774Y-80876776D02*
X50541202Y-80805348D01*
X50541202Y-80805348D02*
X50755488Y-80733919D01*
X50755488Y-80733919D02*
X50898345Y-80733919D01*
X50898345Y-80733919D02*
X51112631Y-80805348D01*
X51112631Y-80805348D02*
X51255488Y-80948205D01*
X51255488Y-80948205D02*
X51326917Y-81091062D01*
X51326917Y-81091062D02*
X51398345Y-81376776D01*
X51398345Y-81376776D02*
X51398345Y-81591062D01*
X51398345Y-81591062D02*
X51326917Y-81876776D01*
X51326917Y-81876776D02*
X51255488Y-82019633D01*
X51255488Y-82019633D02*
X51112631Y-82162490D01*
X51112631Y-82162490D02*
X50898345Y-82233919D01*
X50898345Y-82233919D02*
X50755488Y-82233919D01*
X50755488Y-82233919D02*
X50541202Y-82162490D01*
X50541202Y-82162490D02*
X50469774Y-82091062D01*
X49826917Y-80733919D02*
X49826917Y-81733919D01*
X49826917Y-81448205D02*
X49755488Y-81591062D01*
X49755488Y-81591062D02*
X49684060Y-81662490D01*
X49684060Y-81662490D02*
X49541202Y-81733919D01*
X49541202Y-81733919D02*
X49398345Y-81733919D01*
X48898346Y-80733919D02*
X48898346Y-81733919D01*
X48898346Y-82233919D02*
X48969774Y-82162490D01*
X48969774Y-82162490D02*
X48898346Y-82091062D01*
X48898346Y-82091062D02*
X48826917Y-82162490D01*
X48826917Y-82162490D02*
X48898346Y-82233919D01*
X48898346Y-82233919D02*
X48898346Y-82091062D01*
X48184060Y-81733919D02*
X48184060Y-80733919D01*
X48184060Y-81591062D02*
X48112631Y-81662490D01*
X48112631Y-81662490D02*
X47969774Y-81733919D01*
X47969774Y-81733919D02*
X47755488Y-81733919D01*
X47755488Y-81733919D02*
X47612631Y-81662490D01*
X47612631Y-81662490D02*
X47541203Y-81519633D01*
X47541203Y-81519633D02*
X47541203Y-80733919D01*
X46184060Y-81733919D02*
X46184060Y-80519633D01*
X46184060Y-80519633D02*
X46255488Y-80376776D01*
X46255488Y-80376776D02*
X46326917Y-80305348D01*
X46326917Y-80305348D02*
X46469774Y-80233919D01*
X46469774Y-80233919D02*
X46684060Y-80233919D01*
X46684060Y-80233919D02*
X46826917Y-80305348D01*
X46184060Y-80805348D02*
X46326917Y-80733919D01*
X46326917Y-80733919D02*
X46612631Y-80733919D01*
X46612631Y-80733919D02*
X46755488Y-80805348D01*
X46755488Y-80805348D02*
X46826917Y-80876776D01*
X46826917Y-80876776D02*
X46898345Y-81019633D01*
X46898345Y-81019633D02*
X46898345Y-81448205D01*
X46898345Y-81448205D02*
X46826917Y-81591062D01*
X46826917Y-81591062D02*
X46755488Y-81662490D01*
X46755488Y-81662490D02*
X46612631Y-81733919D01*
X46612631Y-81733919D02*
X46326917Y-81733919D01*
X46326917Y-81733919D02*
X46184060Y-81662490D01*
X45255488Y-80733919D02*
X45398345Y-80805348D01*
X45398345Y-80805348D02*
X45469774Y-80948205D01*
X45469774Y-80948205D02*
X45469774Y-82233919D01*
X44112631Y-80805348D02*
X44255488Y-80733919D01*
X44255488Y-80733919D02*
X44541203Y-80733919D01*
X44541203Y-80733919D02*
X44684060Y-80805348D01*
X44684060Y-80805348D02*
X44755488Y-80948205D01*
X44755488Y-80948205D02*
X44755488Y-81519633D01*
X44755488Y-81519633D02*
X44684060Y-81662490D01*
X44684060Y-81662490D02*
X44541203Y-81733919D01*
X44541203Y-81733919D02*
X44255488Y-81733919D01*
X44255488Y-81733919D02*
X44112631Y-81662490D01*
X44112631Y-81662490D02*
X44041203Y-81519633D01*
X44041203Y-81519633D02*
X44041203Y-81376776D01*
X44041203Y-81376776D02*
X44755488Y-81233919D01*
X41398346Y-80876776D02*
X41469774Y-80805348D01*
X41469774Y-80805348D02*
X41684060Y-80733919D01*
X41684060Y-80733919D02*
X41826917Y-80733919D01*
X41826917Y-80733919D02*
X42041203Y-80805348D01*
X42041203Y-80805348D02*
X42184060Y-80948205D01*
X42184060Y-80948205D02*
X42255489Y-81091062D01*
X42255489Y-81091062D02*
X42326917Y-81376776D01*
X42326917Y-81376776D02*
X42326917Y-81591062D01*
X42326917Y-81591062D02*
X42255489Y-81876776D01*
X42255489Y-81876776D02*
X42184060Y-82019633D01*
X42184060Y-82019633D02*
X42041203Y-82162490D01*
X42041203Y-82162490D02*
X41826917Y-82233919D01*
X41826917Y-82233919D02*
X41684060Y-82233919D01*
X41684060Y-82233919D02*
X41469774Y-82162490D01*
X41469774Y-82162490D02*
X41398346Y-82091062D01*
X40755489Y-81519633D02*
X40255489Y-81519633D01*
X40041203Y-80733919D02*
X40755489Y-80733919D01*
X40755489Y-80733919D02*
X40755489Y-82233919D01*
X40755489Y-82233919D02*
X40041203Y-82233919D01*
X57755489Y-78319003D02*
X57755489Y-79819003D01*
X57112631Y-78390432D02*
X56969774Y-78319003D01*
X56969774Y-78319003D02*
X56684060Y-78319003D01*
X56684060Y-78319003D02*
X56541203Y-78390432D01*
X56541203Y-78390432D02*
X56469774Y-78533289D01*
X56469774Y-78533289D02*
X56469774Y-78604717D01*
X56469774Y-78604717D02*
X56541203Y-78747574D01*
X56541203Y-78747574D02*
X56684060Y-78819003D01*
X56684060Y-78819003D02*
X56898346Y-78819003D01*
X56898346Y-78819003D02*
X57041203Y-78890432D01*
X57041203Y-78890432D02*
X57112631Y-79033289D01*
X57112631Y-79033289D02*
X57112631Y-79104717D01*
X57112631Y-79104717D02*
X57041203Y-79247574D01*
X57041203Y-79247574D02*
X56898346Y-79319003D01*
X56898346Y-79319003D02*
X56684060Y-79319003D01*
X56684060Y-79319003D02*
X56541203Y-79247574D01*
X55184060Y-78319003D02*
X55184060Y-79104717D01*
X55184060Y-79104717D02*
X55255488Y-79247574D01*
X55255488Y-79247574D02*
X55398345Y-79319003D01*
X55398345Y-79319003D02*
X55684060Y-79319003D01*
X55684060Y-79319003D02*
X55826917Y-79247574D01*
X55184060Y-78390432D02*
X55326917Y-78319003D01*
X55326917Y-78319003D02*
X55684060Y-78319003D01*
X55684060Y-78319003D02*
X55826917Y-78390432D01*
X55826917Y-78390432D02*
X55898345Y-78533289D01*
X55898345Y-78533289D02*
X55898345Y-78676146D01*
X55898345Y-78676146D02*
X55826917Y-78819003D01*
X55826917Y-78819003D02*
X55684060Y-78890432D01*
X55684060Y-78890432D02*
X55326917Y-78890432D01*
X55326917Y-78890432D02*
X55184060Y-78961860D01*
X53826917Y-78319003D02*
X53826917Y-79104717D01*
X53826917Y-79104717D02*
X53898345Y-79247574D01*
X53898345Y-79247574D02*
X54041202Y-79319003D01*
X54041202Y-79319003D02*
X54326917Y-79319003D01*
X54326917Y-79319003D02*
X54469774Y-79247574D01*
X53826917Y-78390432D02*
X53969774Y-78319003D01*
X53969774Y-78319003D02*
X54326917Y-78319003D01*
X54326917Y-78319003D02*
X54469774Y-78390432D01*
X54469774Y-78390432D02*
X54541202Y-78533289D01*
X54541202Y-78533289D02*
X54541202Y-78676146D01*
X54541202Y-78676146D02*
X54469774Y-78819003D01*
X54469774Y-78819003D02*
X54326917Y-78890432D01*
X54326917Y-78890432D02*
X53969774Y-78890432D01*
X53969774Y-78890432D02*
X53826917Y-78961860D01*
X52469774Y-78390432D02*
X52612631Y-78319003D01*
X52612631Y-78319003D02*
X52898345Y-78319003D01*
X52898345Y-78319003D02*
X53041202Y-78390432D01*
X53041202Y-78390432D02*
X53112631Y-78461860D01*
X53112631Y-78461860D02*
X53184059Y-78604717D01*
X53184059Y-78604717D02*
X53184059Y-79033289D01*
X53184059Y-79033289D02*
X53112631Y-79176146D01*
X53112631Y-79176146D02*
X53041202Y-79247574D01*
X53041202Y-79247574D02*
X52898345Y-79319003D01*
X52898345Y-79319003D02*
X52612631Y-79319003D01*
X52612631Y-79319003D02*
X52469774Y-79247574D01*
X50898345Y-79819003D02*
X50041203Y-79819003D01*
X50469774Y-78319003D02*
X50469774Y-79819003D01*
X48969774Y-78390432D02*
X49112631Y-78319003D01*
X49112631Y-78319003D02*
X49398346Y-78319003D01*
X49398346Y-78319003D02*
X49541203Y-78390432D01*
X49541203Y-78390432D02*
X49612631Y-78533289D01*
X49612631Y-78533289D02*
X49612631Y-79104717D01*
X49612631Y-79104717D02*
X49541203Y-79247574D01*
X49541203Y-79247574D02*
X49398346Y-79319003D01*
X49398346Y-79319003D02*
X49112631Y-79319003D01*
X49112631Y-79319003D02*
X48969774Y-79247574D01*
X48969774Y-79247574D02*
X48898346Y-79104717D01*
X48898346Y-79104717D02*
X48898346Y-78961860D01*
X48898346Y-78961860D02*
X49612631Y-78819003D01*
X48255489Y-78319003D02*
X48255489Y-79319003D01*
X48255489Y-79033289D02*
X48184060Y-79176146D01*
X48184060Y-79176146D02*
X48112632Y-79247574D01*
X48112632Y-79247574D02*
X47969774Y-79319003D01*
X47969774Y-79319003D02*
X47826917Y-79319003D01*
X47326918Y-78319003D02*
X47326918Y-79319003D01*
X47326918Y-79033289D02*
X47255489Y-79176146D01*
X47255489Y-79176146D02*
X47184061Y-79247574D01*
X47184061Y-79247574D02*
X47041203Y-79319003D01*
X47041203Y-79319003D02*
X46898346Y-79319003D01*
X45826918Y-78390432D02*
X45969775Y-78319003D01*
X45969775Y-78319003D02*
X46255490Y-78319003D01*
X46255490Y-78319003D02*
X46398347Y-78390432D01*
X46398347Y-78390432D02*
X46469775Y-78533289D01*
X46469775Y-78533289D02*
X46469775Y-79104717D01*
X46469775Y-79104717D02*
X46398347Y-79247574D01*
X46398347Y-79247574D02*
X46255490Y-79319003D01*
X46255490Y-79319003D02*
X45969775Y-79319003D01*
X45969775Y-79319003D02*
X45826918Y-79247574D01*
X45826918Y-79247574D02*
X45755490Y-79104717D01*
X45755490Y-79104717D02*
X45755490Y-78961860D01*
X45755490Y-78961860D02*
X46469775Y-78819003D01*
X44898347Y-78319003D02*
X45041204Y-78390432D01*
X45041204Y-78390432D02*
X45112633Y-78533289D01*
X45112633Y-78533289D02*
X45112633Y-79819003D01*
X44112633Y-78319003D02*
X44255490Y-78390432D01*
X44255490Y-78390432D02*
X44326919Y-78533289D01*
X44326919Y-78533289D02*
X44326919Y-79819003D01*
X42398348Y-79104717D02*
X41898348Y-79104717D01*
X41684062Y-78319003D02*
X42398348Y-78319003D01*
X42398348Y-78319003D02*
X42398348Y-79819003D01*
X42398348Y-79819003D02*
X41684062Y-79819003D01*
X41041205Y-79104717D02*
X40541205Y-79104717D01*
X40326919Y-78319003D02*
X41041205Y-78319003D01*
X41041205Y-78319003D02*
X41041205Y-79819003D01*
X41041205Y-79819003D02*
X40326919Y-79819003D01*
X57826917Y-76332658D02*
X57112632Y-76332658D01*
X57969774Y-75904087D02*
X57469774Y-77404087D01*
X57469774Y-77404087D02*
X56969774Y-75904087D01*
X55826918Y-76904087D02*
X55826918Y-75904087D01*
X56469775Y-76904087D02*
X56469775Y-76118373D01*
X56469775Y-76118373D02*
X56398346Y-75975516D01*
X56398346Y-75975516D02*
X56255489Y-75904087D01*
X56255489Y-75904087D02*
X56041203Y-75904087D01*
X56041203Y-75904087D02*
X55898346Y-75975516D01*
X55898346Y-75975516D02*
X55826918Y-76046944D01*
X54469775Y-75904087D02*
X54469775Y-77404087D01*
X54469775Y-75975516D02*
X54612632Y-75904087D01*
X54612632Y-75904087D02*
X54898346Y-75904087D01*
X54898346Y-75904087D02*
X55041203Y-75975516D01*
X55041203Y-75975516D02*
X55112632Y-76046944D01*
X55112632Y-76046944D02*
X55184060Y-76189801D01*
X55184060Y-76189801D02*
X55184060Y-76618373D01*
X55184060Y-76618373D02*
X55112632Y-76761230D01*
X55112632Y-76761230D02*
X55041203Y-76832658D01*
X55041203Y-76832658D02*
X54898346Y-76904087D01*
X54898346Y-76904087D02*
X54612632Y-76904087D01*
X54612632Y-76904087D02*
X54469775Y-76832658D01*
X53755489Y-75904087D02*
X53755489Y-76904087D01*
X53755489Y-77404087D02*
X53826917Y-77332658D01*
X53826917Y-77332658D02*
X53755489Y-77261230D01*
X53755489Y-77261230D02*
X53684060Y-77332658D01*
X53684060Y-77332658D02*
X53755489Y-77404087D01*
X53755489Y-77404087D02*
X53755489Y-77261230D01*
X52826917Y-75904087D02*
X52969774Y-75975516D01*
X52969774Y-75975516D02*
X53041203Y-76046944D01*
X53041203Y-76046944D02*
X53112631Y-76189801D01*
X53112631Y-76189801D02*
X53112631Y-76618373D01*
X53112631Y-76618373D02*
X53041203Y-76761230D01*
X53041203Y-76761230D02*
X52969774Y-76832658D01*
X52969774Y-76832658D02*
X52826917Y-76904087D01*
X52826917Y-76904087D02*
X52612631Y-76904087D01*
X52612631Y-76904087D02*
X52469774Y-76832658D01*
X52469774Y-76832658D02*
X52398346Y-76761230D01*
X52398346Y-76761230D02*
X52326917Y-76618373D01*
X52326917Y-76618373D02*
X52326917Y-76189801D01*
X52326917Y-76189801D02*
X52398346Y-76046944D01*
X52398346Y-76046944D02*
X52469774Y-75975516D01*
X52469774Y-75975516D02*
X52612631Y-75904087D01*
X52612631Y-75904087D02*
X52826917Y-75904087D01*
X50612631Y-75975516D02*
X50469774Y-75904087D01*
X50469774Y-75904087D02*
X50184060Y-75904087D01*
X50184060Y-75904087D02*
X50041203Y-75975516D01*
X50041203Y-75975516D02*
X49969774Y-76118373D01*
X49969774Y-76118373D02*
X49969774Y-76189801D01*
X49969774Y-76189801D02*
X50041203Y-76332658D01*
X50041203Y-76332658D02*
X50184060Y-76404087D01*
X50184060Y-76404087D02*
X50398346Y-76404087D01*
X50398346Y-76404087D02*
X50541203Y-76475516D01*
X50541203Y-76475516D02*
X50612631Y-76618373D01*
X50612631Y-76618373D02*
X50612631Y-76689801D01*
X50612631Y-76689801D02*
X50541203Y-76832658D01*
X50541203Y-76832658D02*
X50398346Y-76904087D01*
X50398346Y-76904087D02*
X50184060Y-76904087D01*
X50184060Y-76904087D02*
X50041203Y-76832658D01*
X48684060Y-75904087D02*
X48684060Y-76689801D01*
X48684060Y-76689801D02*
X48755488Y-76832658D01*
X48755488Y-76832658D02*
X48898345Y-76904087D01*
X48898345Y-76904087D02*
X49184060Y-76904087D01*
X49184060Y-76904087D02*
X49326917Y-76832658D01*
X48684060Y-75975516D02*
X48826917Y-75904087D01*
X48826917Y-75904087D02*
X49184060Y-75904087D01*
X49184060Y-75904087D02*
X49326917Y-75975516D01*
X49326917Y-75975516D02*
X49398345Y-76118373D01*
X49398345Y-76118373D02*
X49398345Y-76261230D01*
X49398345Y-76261230D02*
X49326917Y-76404087D01*
X49326917Y-76404087D02*
X49184060Y-76475516D01*
X49184060Y-76475516D02*
X48826917Y-76475516D01*
X48826917Y-76475516D02*
X48684060Y-76546944D01*
X47969774Y-75904087D02*
X47969774Y-76904087D01*
X47969774Y-76761230D02*
X47898345Y-76832658D01*
X47898345Y-76832658D02*
X47755488Y-76904087D01*
X47755488Y-76904087D02*
X47541202Y-76904087D01*
X47541202Y-76904087D02*
X47398345Y-76832658D01*
X47398345Y-76832658D02*
X47326917Y-76689801D01*
X47326917Y-76689801D02*
X47326917Y-75904087D01*
X47326917Y-76689801D02*
X47255488Y-76832658D01*
X47255488Y-76832658D02*
X47112631Y-76904087D01*
X47112631Y-76904087D02*
X46898345Y-76904087D01*
X46898345Y-76904087D02*
X46755488Y-76832658D01*
X46755488Y-76832658D02*
X46684059Y-76689801D01*
X46684059Y-76689801D02*
X46684059Y-75904087D01*
X45969774Y-76904087D02*
X45969774Y-75404087D01*
X45969774Y-76832658D02*
X45826917Y-76904087D01*
X45826917Y-76904087D02*
X45541202Y-76904087D01*
X45541202Y-76904087D02*
X45398345Y-76832658D01*
X45398345Y-76832658D02*
X45326917Y-76761230D01*
X45326917Y-76761230D02*
X45255488Y-76618373D01*
X45255488Y-76618373D02*
X45255488Y-76189801D01*
X45255488Y-76189801D02*
X45326917Y-76046944D01*
X45326917Y-76046944D02*
X45398345Y-75975516D01*
X45398345Y-75975516D02*
X45541202Y-75904087D01*
X45541202Y-75904087D02*
X45826917Y-75904087D01*
X45826917Y-75904087D02*
X45969774Y-75975516D01*
X44398345Y-75904087D02*
X44541202Y-75975516D01*
X44541202Y-75975516D02*
X44612631Y-76118373D01*
X44612631Y-76118373D02*
X44612631Y-77404087D01*
X43255488Y-75975516D02*
X43398345Y-75904087D01*
X43398345Y-75904087D02*
X43684060Y-75904087D01*
X43684060Y-75904087D02*
X43826917Y-75975516D01*
X43826917Y-75975516D02*
X43898345Y-76118373D01*
X43898345Y-76118373D02*
X43898345Y-76689801D01*
X43898345Y-76689801D02*
X43826917Y-76832658D01*
X43826917Y-76832658D02*
X43684060Y-76904087D01*
X43684060Y-76904087D02*
X43398345Y-76904087D01*
X43398345Y-76904087D02*
X43255488Y-76832658D01*
X43255488Y-76832658D02*
X43184060Y-76689801D01*
X43184060Y-76689801D02*
X43184060Y-76546944D01*
X43184060Y-76546944D02*
X43898345Y-76404087D01*
X42541203Y-75904087D02*
X42541203Y-76904087D01*
X42541203Y-76618373D02*
X42469774Y-76761230D01*
X42469774Y-76761230D02*
X42398346Y-76832658D01*
X42398346Y-76832658D02*
X42255488Y-76904087D01*
X42255488Y-76904087D02*
X42112631Y-76904087D01*
X37184063Y-73632028D02*
X37112634Y-73560600D01*
X37112634Y-73560600D02*
X37184063Y-73489171D01*
X37184063Y-73489171D02*
X37255491Y-73560600D01*
X37255491Y-73560600D02*
X37184063Y-73632028D01*
X37184063Y-73632028D02*
X37184063Y-73489171D01*
X37184063Y-74417742D02*
X37112634Y-74346314D01*
X37112634Y-74346314D02*
X37184063Y-74274885D01*
X37184063Y-74274885D02*
X37255491Y-74346314D01*
X37255491Y-74346314D02*
X37184063Y-74417742D01*
X37184063Y-74417742D02*
X37184063Y-74274885D01*
X36612634Y-72917742D02*
X36541205Y-72989171D01*
X36541205Y-72989171D02*
X36398348Y-73203457D01*
X36398348Y-73203457D02*
X36326920Y-73346314D01*
X36326920Y-73346314D02*
X36255491Y-73560600D01*
X36255491Y-73560600D02*
X36184062Y-73917742D01*
X36184062Y-73917742D02*
X36184062Y-74203457D01*
X36184062Y-74203457D02*
X36255491Y-74560600D01*
X36255491Y-74560600D02*
X36326920Y-74774885D01*
X36326920Y-74774885D02*
X36398348Y-74917742D01*
X36398348Y-74917742D02*
X36541205Y-75132028D01*
X36541205Y-75132028D02*
X36612634Y-75203457D01*
D11*
X128872969Y-137029819D02*
X128396779Y-137029819D01*
X128396779Y-137029819D02*
X128396779Y-136029819D01*
X129396779Y-136029819D02*
X129587255Y-136029819D01*
X129587255Y-136029819D02*
X129682493Y-136077438D01*
X129682493Y-136077438D02*
X129777731Y-136172676D01*
X129777731Y-136172676D02*
X129825350Y-136363152D01*
X129825350Y-136363152D02*
X129825350Y-136696485D01*
X129825350Y-136696485D02*
X129777731Y-136886961D01*
X129777731Y-136886961D02*
X129682493Y-136982200D01*
X129682493Y-136982200D02*
X129587255Y-137029819D01*
X129587255Y-137029819D02*
X129396779Y-137029819D01*
X129396779Y-137029819D02*
X129301541Y-136982200D01*
X129301541Y-136982200D02*
X129206303Y-136886961D01*
X129206303Y-136886961D02*
X129158684Y-136696485D01*
X129158684Y-136696485D02*
X129158684Y-136363152D01*
X129158684Y-136363152D02*
X129206303Y-136172676D01*
X129206303Y-136172676D02*
X129301541Y-136077438D01*
X129301541Y-136077438D02*
X129396779Y-136029819D01*
X88201595Y-53357804D02*
X88134251Y-53357804D01*
X88134251Y-53357804D02*
X87999564Y-53290461D01*
X87999564Y-53290461D02*
X87932221Y-53223117D01*
X87932221Y-53223117D02*
X87864877Y-53088430D01*
X87864877Y-53088430D02*
X87864877Y-52953743D01*
X87864877Y-52953743D02*
X87898549Y-52852728D01*
X87898549Y-52852728D02*
X87999564Y-52684369D01*
X87999564Y-52684369D02*
X88100579Y-52583354D01*
X88100579Y-52583354D02*
X88268938Y-52482339D01*
X88268938Y-52482339D02*
X88369953Y-52448667D01*
X88369953Y-52448667D02*
X88504641Y-52448667D01*
X88504641Y-52448667D02*
X88639328Y-52516010D01*
X88639328Y-52516010D02*
X88706671Y-52583354D01*
X88706671Y-52583354D02*
X88774015Y-52718041D01*
X88774015Y-52718041D02*
X88774015Y-52785384D01*
X88807686Y-54098583D02*
X88403625Y-53694522D01*
X88605656Y-53896552D02*
X89312763Y-53189445D01*
X89312763Y-53189445D02*
X89144404Y-53223117D01*
X89144404Y-53223117D02*
X89009717Y-53223117D01*
X89009717Y-53223117D02*
X88908702Y-53189445D01*
X155559819Y-146546077D02*
X156559819Y-146212744D01*
X156559819Y-146212744D02*
X155559819Y-145879411D01*
X156559819Y-145546077D02*
X155559819Y-145546077D01*
X155559819Y-145546077D02*
X155559819Y-145307982D01*
X155559819Y-145307982D02*
X155607438Y-145165125D01*
X155607438Y-145165125D02*
X155702676Y-145069887D01*
X155702676Y-145069887D02*
X155797914Y-145022268D01*
X155797914Y-145022268D02*
X155988390Y-144974649D01*
X155988390Y-144974649D02*
X156131247Y-144974649D01*
X156131247Y-144974649D02*
X156321723Y-145022268D01*
X156321723Y-145022268D02*
X156416961Y-145069887D01*
X156416961Y-145069887D02*
X156512200Y-145165125D01*
X156512200Y-145165125D02*
X156559819Y-145307982D01*
X156559819Y-145307982D02*
X156559819Y-145546077D01*
X156559819Y-144546077D02*
X155559819Y-144546077D01*
X155559819Y-144546077D02*
X155559819Y-144307982D01*
X155559819Y-144307982D02*
X155607438Y-144165125D01*
X155607438Y-144165125D02*
X155702676Y-144069887D01*
X155702676Y-144069887D02*
X155797914Y-144022268D01*
X155797914Y-144022268D02*
X155988390Y-143974649D01*
X155988390Y-143974649D02*
X156131247Y-143974649D01*
X156131247Y-143974649D02*
X156321723Y-144022268D01*
X156321723Y-144022268D02*
X156416961Y-144069887D01*
X156416961Y-144069887D02*
X156512200Y-144165125D01*
X156512200Y-144165125D02*
X156559819Y-144307982D01*
X156559819Y-144307982D02*
X156559819Y-144546077D01*
X96059251Y-53350148D02*
X96160266Y-52777728D01*
X95655190Y-52946087D02*
X96362297Y-52238980D01*
X96362297Y-52238980D02*
X96631671Y-52508354D01*
X96631671Y-52508354D02*
X96665343Y-52609369D01*
X96665343Y-52609369D02*
X96665343Y-52676713D01*
X96665343Y-52676713D02*
X96631671Y-52777728D01*
X96631671Y-52777728D02*
X96530656Y-52878743D01*
X96530656Y-52878743D02*
X96429641Y-52912415D01*
X96429641Y-52912415D02*
X96362297Y-52912415D01*
X96362297Y-52912415D02*
X96261282Y-52878743D01*
X96261282Y-52878743D02*
X95991908Y-52609369D01*
X96968389Y-52979758D02*
X97035732Y-52979758D01*
X97035732Y-52979758D02*
X97136747Y-53013430D01*
X97136747Y-53013430D02*
X97305106Y-53181789D01*
X97305106Y-53181789D02*
X97338778Y-53282804D01*
X97338778Y-53282804D02*
X97338778Y-53350148D01*
X97338778Y-53350148D02*
X97305106Y-53451163D01*
X97305106Y-53451163D02*
X97237763Y-53518506D01*
X97237763Y-53518506D02*
X97103076Y-53585850D01*
X97103076Y-53585850D02*
X96294953Y-53585850D01*
X96294953Y-53585850D02*
X96732686Y-54023583D01*
X90976595Y-53282804D02*
X90909251Y-53282804D01*
X90909251Y-53282804D02*
X90774564Y-53215461D01*
X90774564Y-53215461D02*
X90707221Y-53148117D01*
X90707221Y-53148117D02*
X90639877Y-53013430D01*
X90639877Y-53013430D02*
X90639877Y-52878743D01*
X90639877Y-52878743D02*
X90673549Y-52777728D01*
X90673549Y-52777728D02*
X90774564Y-52609369D01*
X90774564Y-52609369D02*
X90875579Y-52508354D01*
X90875579Y-52508354D02*
X91043938Y-52407339D01*
X91043938Y-52407339D02*
X91144953Y-52373667D01*
X91144953Y-52373667D02*
X91279641Y-52373667D01*
X91279641Y-52373667D02*
X91414328Y-52441010D01*
X91414328Y-52441010D02*
X91481671Y-52508354D01*
X91481671Y-52508354D02*
X91549015Y-52643041D01*
X91549015Y-52643041D02*
X91549015Y-52710384D01*
X91818389Y-52979758D02*
X91885732Y-52979758D01*
X91885732Y-52979758D02*
X91986747Y-53013430D01*
X91986747Y-53013430D02*
X92155106Y-53181789D01*
X92155106Y-53181789D02*
X92188778Y-53282804D01*
X92188778Y-53282804D02*
X92188778Y-53350148D01*
X92188778Y-53350148D02*
X92155106Y-53451163D01*
X92155106Y-53451163D02*
X92087763Y-53518506D01*
X92087763Y-53518506D02*
X91953076Y-53585850D01*
X91953076Y-53585850D02*
X91144953Y-53585850D01*
X91144953Y-53585850D02*
X91582686Y-54023583D01*
X150972200Y-148300839D02*
X151019819Y-148157982D01*
X151019819Y-148157982D02*
X151019819Y-147919887D01*
X151019819Y-147919887D02*
X150972200Y-147824649D01*
X150972200Y-147824649D02*
X150924580Y-147777030D01*
X150924580Y-147777030D02*
X150829342Y-147729411D01*
X150829342Y-147729411D02*
X150734104Y-147729411D01*
X150734104Y-147729411D02*
X150638866Y-147777030D01*
X150638866Y-147777030D02*
X150591247Y-147824649D01*
X150591247Y-147824649D02*
X150543628Y-147919887D01*
X150543628Y-147919887D02*
X150496009Y-148110363D01*
X150496009Y-148110363D02*
X150448390Y-148205601D01*
X150448390Y-148205601D02*
X150400771Y-148253220D01*
X150400771Y-148253220D02*
X150305533Y-148300839D01*
X150305533Y-148300839D02*
X150210295Y-148300839D01*
X150210295Y-148300839D02*
X150115057Y-148253220D01*
X150115057Y-148253220D02*
X150067438Y-148205601D01*
X150067438Y-148205601D02*
X150019819Y-148110363D01*
X150019819Y-148110363D02*
X150019819Y-147872268D01*
X150019819Y-147872268D02*
X150067438Y-147729411D01*
X150019819Y-147396077D02*
X151019819Y-147157982D01*
X151019819Y-147157982D02*
X150305533Y-146967506D01*
X150305533Y-146967506D02*
X151019819Y-146777030D01*
X151019819Y-146777030D02*
X150019819Y-146538935D01*
X151019819Y-146157982D02*
X150019819Y-146157982D01*
X150019819Y-146157982D02*
X150019819Y-145919887D01*
X150019819Y-145919887D02*
X150067438Y-145777030D01*
X150067438Y-145777030D02*
X150162676Y-145681792D01*
X150162676Y-145681792D02*
X150257914Y-145634173D01*
X150257914Y-145634173D02*
X150448390Y-145586554D01*
X150448390Y-145586554D02*
X150591247Y-145586554D01*
X150591247Y-145586554D02*
X150781723Y-145634173D01*
X150781723Y-145634173D02*
X150876961Y-145681792D01*
X150876961Y-145681792D02*
X150972200Y-145777030D01*
X150972200Y-145777030D02*
X151019819Y-145919887D01*
X151019819Y-145919887D02*
X151019819Y-146157982D01*
X151019819Y-145157982D02*
X150019819Y-145157982D01*
X150019819Y-144491316D02*
X150019819Y-144300840D01*
X150019819Y-144300840D02*
X150067438Y-144205602D01*
X150067438Y-144205602D02*
X150162676Y-144110364D01*
X150162676Y-144110364D02*
X150353152Y-144062745D01*
X150353152Y-144062745D02*
X150686485Y-144062745D01*
X150686485Y-144062745D02*
X150876961Y-144110364D01*
X150876961Y-144110364D02*
X150972200Y-144205602D01*
X150972200Y-144205602D02*
X151019819Y-144300840D01*
X151019819Y-144300840D02*
X151019819Y-144491316D01*
X151019819Y-144491316D02*
X150972200Y-144586554D01*
X150972200Y-144586554D02*
X150876961Y-144681792D01*
X150876961Y-144681792D02*
X150686485Y-144729411D01*
X150686485Y-144729411D02*
X150353152Y-144729411D01*
X150353152Y-144729411D02*
X150162676Y-144681792D01*
X150162676Y-144681792D02*
X150067438Y-144586554D01*
X150067438Y-144586554D02*
X150019819Y-144491316D01*
X117076779Y-139799819D02*
X117076779Y-138799819D01*
X117076779Y-139276009D02*
X117648207Y-139276009D01*
X117648207Y-139799819D02*
X117648207Y-138799819D01*
X118124398Y-139799819D02*
X118124398Y-138799819D01*
X158217438Y-145999411D02*
X158169819Y-146094649D01*
X158169819Y-146094649D02*
X158169819Y-146237506D01*
X158169819Y-146237506D02*
X158217438Y-146380363D01*
X158217438Y-146380363D02*
X158312676Y-146475601D01*
X158312676Y-146475601D02*
X158407914Y-146523220D01*
X158407914Y-146523220D02*
X158598390Y-146570839D01*
X158598390Y-146570839D02*
X158741247Y-146570839D01*
X158741247Y-146570839D02*
X158931723Y-146523220D01*
X158931723Y-146523220D02*
X159026961Y-146475601D01*
X159026961Y-146475601D02*
X159122200Y-146380363D01*
X159122200Y-146380363D02*
X159169819Y-146237506D01*
X159169819Y-146237506D02*
X159169819Y-146142268D01*
X159169819Y-146142268D02*
X159122200Y-145999411D01*
X159122200Y-145999411D02*
X159074580Y-145951792D01*
X159074580Y-145951792D02*
X158741247Y-145951792D01*
X158741247Y-145951792D02*
X158741247Y-146142268D01*
X159169819Y-145523220D02*
X158169819Y-145523220D01*
X158169819Y-145523220D02*
X159169819Y-144951792D01*
X159169819Y-144951792D02*
X158169819Y-144951792D01*
X159169819Y-144475601D02*
X158169819Y-144475601D01*
X158169819Y-144475601D02*
X158169819Y-144237506D01*
X158169819Y-144237506D02*
X158217438Y-144094649D01*
X158217438Y-144094649D02*
X158312676Y-143999411D01*
X158312676Y-143999411D02*
X158407914Y-143951792D01*
X158407914Y-143951792D02*
X158598390Y-143904173D01*
X158598390Y-143904173D02*
X158741247Y-143904173D01*
X158741247Y-143904173D02*
X158931723Y-143951792D01*
X158931723Y-143951792D02*
X159026961Y-143999411D01*
X159026961Y-143999411D02*
X159122200Y-144094649D01*
X159122200Y-144094649D02*
X159169819Y-144237506D01*
X159169819Y-144237506D02*
X159169819Y-144475601D01*
X164751738Y-122225838D02*
X164656500Y-122178219D01*
X164656500Y-122178219D02*
X164513643Y-122178219D01*
X164513643Y-122178219D02*
X164370786Y-122225838D01*
X164370786Y-122225838D02*
X164275548Y-122321076D01*
X164275548Y-122321076D02*
X164227929Y-122416314D01*
X164227929Y-122416314D02*
X164180310Y-122606790D01*
X164180310Y-122606790D02*
X164180310Y-122749647D01*
X164180310Y-122749647D02*
X164227929Y-122940123D01*
X164227929Y-122940123D02*
X164275548Y-123035361D01*
X164275548Y-123035361D02*
X164370786Y-123130600D01*
X164370786Y-123130600D02*
X164513643Y-123178219D01*
X164513643Y-123178219D02*
X164608881Y-123178219D01*
X164608881Y-123178219D02*
X164751738Y-123130600D01*
X164751738Y-123130600D02*
X164799357Y-123082980D01*
X164799357Y-123082980D02*
X164799357Y-122749647D01*
X164799357Y-122749647D02*
X164608881Y-122749647D01*
X165227929Y-123178219D02*
X165227929Y-122178219D01*
X165227929Y-122178219D02*
X165799357Y-123178219D01*
X165799357Y-123178219D02*
X165799357Y-122178219D01*
X166275548Y-123178219D02*
X166275548Y-122178219D01*
X166275548Y-122178219D02*
X166513643Y-122178219D01*
X166513643Y-122178219D02*
X166656500Y-122225838D01*
X166656500Y-122225838D02*
X166751738Y-122321076D01*
X166751738Y-122321076D02*
X166799357Y-122416314D01*
X166799357Y-122416314D02*
X166846976Y-122606790D01*
X166846976Y-122606790D02*
X166846976Y-122749647D01*
X166846976Y-122749647D02*
X166799357Y-122940123D01*
X166799357Y-122940123D02*
X166751738Y-123035361D01*
X166751738Y-123035361D02*
X166656500Y-123130600D01*
X166656500Y-123130600D02*
X166513643Y-123178219D01*
X166513643Y-123178219D02*
X166275548Y-123178219D01*
X108301595Y-53257804D02*
X108234251Y-53257804D01*
X108234251Y-53257804D02*
X108099564Y-53190461D01*
X108099564Y-53190461D02*
X108032221Y-53123117D01*
X108032221Y-53123117D02*
X107964877Y-52988430D01*
X107964877Y-52988430D02*
X107964877Y-52853743D01*
X107964877Y-52853743D02*
X107998549Y-52752728D01*
X107998549Y-52752728D02*
X108099564Y-52584369D01*
X108099564Y-52584369D02*
X108200579Y-52483354D01*
X108200579Y-52483354D02*
X108368938Y-52382339D01*
X108368938Y-52382339D02*
X108469953Y-52348667D01*
X108469953Y-52348667D02*
X108604641Y-52348667D01*
X108604641Y-52348667D02*
X108739328Y-52416010D01*
X108739328Y-52416010D02*
X108806671Y-52483354D01*
X108806671Y-52483354D02*
X108874015Y-52618041D01*
X108874015Y-52618041D02*
X108874015Y-52685384D01*
X109581121Y-53257804D02*
X109244404Y-52921087D01*
X109244404Y-52921087D02*
X108874015Y-53224132D01*
X108874015Y-53224132D02*
X108941358Y-53224132D01*
X108941358Y-53224132D02*
X109042373Y-53257804D01*
X109042373Y-53257804D02*
X109210732Y-53426163D01*
X109210732Y-53426163D02*
X109244404Y-53527178D01*
X109244404Y-53527178D02*
X109244404Y-53594522D01*
X109244404Y-53594522D02*
X109210732Y-53695537D01*
X109210732Y-53695537D02*
X109042373Y-53863896D01*
X109042373Y-53863896D02*
X108941358Y-53897567D01*
X108941358Y-53897567D02*
X108874015Y-53897567D01*
X108874015Y-53897567D02*
X108772999Y-53863896D01*
X108772999Y-53863896D02*
X108604641Y-53695537D01*
X108604641Y-53695537D02*
X108570969Y-53594522D01*
X108570969Y-53594522D02*
X108570969Y-53527178D01*
X105476595Y-53232804D02*
X105409251Y-53232804D01*
X105409251Y-53232804D02*
X105274564Y-53165461D01*
X105274564Y-53165461D02*
X105207221Y-53098117D01*
X105207221Y-53098117D02*
X105139877Y-52963430D01*
X105139877Y-52963430D02*
X105139877Y-52828743D01*
X105139877Y-52828743D02*
X105173549Y-52727728D01*
X105173549Y-52727728D02*
X105274564Y-52559369D01*
X105274564Y-52559369D02*
X105375579Y-52458354D01*
X105375579Y-52458354D02*
X105543938Y-52357339D01*
X105543938Y-52357339D02*
X105644953Y-52323667D01*
X105644953Y-52323667D02*
X105779641Y-52323667D01*
X105779641Y-52323667D02*
X105914328Y-52391010D01*
X105914328Y-52391010D02*
X105981671Y-52458354D01*
X105981671Y-52458354D02*
X106049015Y-52593041D01*
X106049015Y-52593041D02*
X106049015Y-52660384D01*
X106486747Y-53434835D02*
X106015343Y-53906239D01*
X106587763Y-52997102D02*
X105914328Y-53333819D01*
X105914328Y-53333819D02*
X106352060Y-53771552D01*
X98501595Y-53257804D02*
X98434251Y-53257804D01*
X98434251Y-53257804D02*
X98299564Y-53190461D01*
X98299564Y-53190461D02*
X98232221Y-53123117D01*
X98232221Y-53123117D02*
X98164877Y-52988430D01*
X98164877Y-52988430D02*
X98164877Y-52853743D01*
X98164877Y-52853743D02*
X98198549Y-52752728D01*
X98198549Y-52752728D02*
X98299564Y-52584369D01*
X98299564Y-52584369D02*
X98400579Y-52483354D01*
X98400579Y-52483354D02*
X98568938Y-52382339D01*
X98568938Y-52382339D02*
X98669953Y-52348667D01*
X98669953Y-52348667D02*
X98804641Y-52348667D01*
X98804641Y-52348667D02*
X98939328Y-52416010D01*
X98939328Y-52416010D02*
X99006671Y-52483354D01*
X99006671Y-52483354D02*
X99074015Y-52618041D01*
X99074015Y-52618041D02*
X99074015Y-52685384D01*
X99377060Y-52853743D02*
X99814793Y-53291476D01*
X99814793Y-53291476D02*
X99309717Y-53325148D01*
X99309717Y-53325148D02*
X99410732Y-53426163D01*
X99410732Y-53426163D02*
X99444404Y-53527178D01*
X99444404Y-53527178D02*
X99444404Y-53594522D01*
X99444404Y-53594522D02*
X99410732Y-53695537D01*
X99410732Y-53695537D02*
X99242373Y-53863896D01*
X99242373Y-53863896D02*
X99141358Y-53897567D01*
X99141358Y-53897567D02*
X99074015Y-53897567D01*
X99074015Y-53897567D02*
X98972999Y-53863896D01*
X98972999Y-53863896D02*
X98770969Y-53661865D01*
X98770969Y-53661865D02*
X98737297Y-53560850D01*
X98737297Y-53560850D02*
X98737297Y-53493506D01*
X161175072Y-124068219D02*
X161508405Y-125068219D01*
X161508405Y-125068219D02*
X161841738Y-124068219D01*
X162175072Y-125068219D02*
X162175072Y-124068219D01*
X162175072Y-124068219D02*
X162413167Y-124068219D01*
X162413167Y-124068219D02*
X162556024Y-124115838D01*
X162556024Y-124115838D02*
X162651262Y-124211076D01*
X162651262Y-124211076D02*
X162698881Y-124306314D01*
X162698881Y-124306314D02*
X162746500Y-124496790D01*
X162746500Y-124496790D02*
X162746500Y-124639647D01*
X162746500Y-124639647D02*
X162698881Y-124830123D01*
X162698881Y-124830123D02*
X162651262Y-124925361D01*
X162651262Y-124925361D02*
X162556024Y-125020600D01*
X162556024Y-125020600D02*
X162413167Y-125068219D01*
X162413167Y-125068219D02*
X162175072Y-125068219D01*
X163175072Y-125068219D02*
X163175072Y-124068219D01*
X163175072Y-124068219D02*
X163413167Y-124068219D01*
X163413167Y-124068219D02*
X163556024Y-124115838D01*
X163556024Y-124115838D02*
X163651262Y-124211076D01*
X163651262Y-124211076D02*
X163698881Y-124306314D01*
X163698881Y-124306314D02*
X163746500Y-124496790D01*
X163746500Y-124496790D02*
X163746500Y-124639647D01*
X163746500Y-124639647D02*
X163698881Y-124830123D01*
X163698881Y-124830123D02*
X163651262Y-124925361D01*
X163651262Y-124925361D02*
X163556024Y-125020600D01*
X163556024Y-125020600D02*
X163413167Y-125068219D01*
X163413167Y-125068219D02*
X163175072Y-125068219D01*
X93409251Y-53325148D02*
X93510266Y-52752728D01*
X93005190Y-52921087D02*
X93712297Y-52213980D01*
X93712297Y-52213980D02*
X93981671Y-52483354D01*
X93981671Y-52483354D02*
X94015343Y-52584369D01*
X94015343Y-52584369D02*
X94015343Y-52651713D01*
X94015343Y-52651713D02*
X93981671Y-52752728D01*
X93981671Y-52752728D02*
X93880656Y-52853743D01*
X93880656Y-52853743D02*
X93779641Y-52887415D01*
X93779641Y-52887415D02*
X93712297Y-52887415D01*
X93712297Y-52887415D02*
X93611282Y-52853743D01*
X93611282Y-52853743D02*
X93341908Y-52584369D01*
X94352060Y-52853743D02*
X94789793Y-53291476D01*
X94789793Y-53291476D02*
X94284717Y-53325148D01*
X94284717Y-53325148D02*
X94385732Y-53426163D01*
X94385732Y-53426163D02*
X94419404Y-53527178D01*
X94419404Y-53527178D02*
X94419404Y-53594522D01*
X94419404Y-53594522D02*
X94385732Y-53695537D01*
X94385732Y-53695537D02*
X94217373Y-53863896D01*
X94217373Y-53863896D02*
X94116358Y-53897567D01*
X94116358Y-53897567D02*
X94049015Y-53897567D01*
X94049015Y-53897567D02*
X93947999Y-53863896D01*
X93947999Y-53863896D02*
X93745969Y-53661865D01*
X93745969Y-53661865D02*
X93712297Y-53560850D01*
X93712297Y-53560850D02*
X93712297Y-53493506D01*
X102684251Y-53350148D02*
X102785266Y-52777728D01*
X102280190Y-52946087D02*
X102987297Y-52238980D01*
X102987297Y-52238980D02*
X103256671Y-52508354D01*
X103256671Y-52508354D02*
X103290343Y-52609369D01*
X103290343Y-52609369D02*
X103290343Y-52676713D01*
X103290343Y-52676713D02*
X103256671Y-52777728D01*
X103256671Y-52777728D02*
X103155656Y-52878743D01*
X103155656Y-52878743D02*
X103054641Y-52912415D01*
X103054641Y-52912415D02*
X102987297Y-52912415D01*
X102987297Y-52912415D02*
X102886282Y-52878743D01*
X102886282Y-52878743D02*
X102616908Y-52609369D01*
X103761747Y-53484835D02*
X103290343Y-53956239D01*
X103862763Y-53047102D02*
X103189328Y-53383819D01*
X103189328Y-53383819D02*
X103627060Y-53821552D01*
X153832200Y-148490839D02*
X153879819Y-148347982D01*
X153879819Y-148347982D02*
X153879819Y-148109887D01*
X153879819Y-148109887D02*
X153832200Y-148014649D01*
X153832200Y-148014649D02*
X153784580Y-147967030D01*
X153784580Y-147967030D02*
X153689342Y-147919411D01*
X153689342Y-147919411D02*
X153594104Y-147919411D01*
X153594104Y-147919411D02*
X153498866Y-147967030D01*
X153498866Y-147967030D02*
X153451247Y-148014649D01*
X153451247Y-148014649D02*
X153403628Y-148109887D01*
X153403628Y-148109887D02*
X153356009Y-148300363D01*
X153356009Y-148300363D02*
X153308390Y-148395601D01*
X153308390Y-148395601D02*
X153260771Y-148443220D01*
X153260771Y-148443220D02*
X153165533Y-148490839D01*
X153165533Y-148490839D02*
X153070295Y-148490839D01*
X153070295Y-148490839D02*
X152975057Y-148443220D01*
X152975057Y-148443220D02*
X152927438Y-148395601D01*
X152927438Y-148395601D02*
X152879819Y-148300363D01*
X152879819Y-148300363D02*
X152879819Y-148062268D01*
X152879819Y-148062268D02*
X152927438Y-147919411D01*
X152879819Y-147586077D02*
X153879819Y-147347982D01*
X153879819Y-147347982D02*
X153165533Y-147157506D01*
X153165533Y-147157506D02*
X153879819Y-146967030D01*
X153879819Y-146967030D02*
X152879819Y-146728935D01*
X153784580Y-145776554D02*
X153832200Y-145824173D01*
X153832200Y-145824173D02*
X153879819Y-145967030D01*
X153879819Y-145967030D02*
X153879819Y-146062268D01*
X153879819Y-146062268D02*
X153832200Y-146205125D01*
X153832200Y-146205125D02*
X153736961Y-146300363D01*
X153736961Y-146300363D02*
X153641723Y-146347982D01*
X153641723Y-146347982D02*
X153451247Y-146395601D01*
X153451247Y-146395601D02*
X153308390Y-146395601D01*
X153308390Y-146395601D02*
X153117914Y-146347982D01*
X153117914Y-146347982D02*
X153022676Y-146300363D01*
X153022676Y-146300363D02*
X152927438Y-146205125D01*
X152927438Y-146205125D02*
X152879819Y-146062268D01*
X152879819Y-146062268D02*
X152879819Y-145967030D01*
X152879819Y-145967030D02*
X152927438Y-145824173D01*
X152927438Y-145824173D02*
X152975057Y-145776554D01*
X153879819Y-144871792D02*
X153879819Y-145347982D01*
X153879819Y-145347982D02*
X152879819Y-145347982D01*
X153879819Y-144538458D02*
X152879819Y-144538458D01*
X153879819Y-143967030D02*
X153308390Y-144395601D01*
X152879819Y-143967030D02*
X153451247Y-144538458D01*
X100509251Y-53300148D02*
X100610266Y-52727728D01*
X100105190Y-52896087D02*
X100812297Y-52188980D01*
X100812297Y-52188980D02*
X101081671Y-52458354D01*
X101081671Y-52458354D02*
X101115343Y-52559369D01*
X101115343Y-52559369D02*
X101115343Y-52626713D01*
X101115343Y-52626713D02*
X101081671Y-52727728D01*
X101081671Y-52727728D02*
X100980656Y-52828743D01*
X100980656Y-52828743D02*
X100879641Y-52862415D01*
X100879641Y-52862415D02*
X100812297Y-52862415D01*
X100812297Y-52862415D02*
X100711282Y-52828743D01*
X100711282Y-52828743D02*
X100441908Y-52559369D01*
X101182686Y-53973583D02*
X100778625Y-53569522D01*
X100980656Y-53771552D02*
X101687763Y-53064445D01*
X101687763Y-53064445D02*
X101519404Y-53098117D01*
X101519404Y-53098117D02*
X101384717Y-53098117D01*
X101384717Y-53098117D02*
X101283702Y-53064445D01*
D12*
X105743809Y-154174318D02*
X105743809Y-152904318D01*
X105743809Y-152904318D02*
X106046190Y-152904318D01*
X106046190Y-152904318D02*
X106227619Y-152964794D01*
X106227619Y-152964794D02*
X106348571Y-153085746D01*
X106348571Y-153085746D02*
X106409048Y-153206699D01*
X106409048Y-153206699D02*
X106469524Y-153448603D01*
X106469524Y-153448603D02*
X106469524Y-153630032D01*
X106469524Y-153630032D02*
X106409048Y-153871937D01*
X106409048Y-153871937D02*
X106348571Y-153992889D01*
X106348571Y-153992889D02*
X106227619Y-154113842D01*
X106227619Y-154113842D02*
X106046190Y-154174318D01*
X106046190Y-154174318D02*
X105743809Y-154174318D01*
X107013809Y-154174318D02*
X107013809Y-153327651D01*
X107013809Y-152904318D02*
X106953333Y-152964794D01*
X106953333Y-152964794D02*
X107013809Y-153025270D01*
X107013809Y-153025270D02*
X107074286Y-152964794D01*
X107074286Y-152964794D02*
X107013809Y-152904318D01*
X107013809Y-152904318D02*
X107013809Y-153025270D01*
X108162857Y-153327651D02*
X108162857Y-154355746D01*
X108162857Y-154355746D02*
X108102381Y-154476699D01*
X108102381Y-154476699D02*
X108041905Y-154537175D01*
X108041905Y-154537175D02*
X107920952Y-154597651D01*
X107920952Y-154597651D02*
X107739524Y-154597651D01*
X107739524Y-154597651D02*
X107618571Y-154537175D01*
X108162857Y-154113842D02*
X108041905Y-154174318D01*
X108041905Y-154174318D02*
X107800000Y-154174318D01*
X107800000Y-154174318D02*
X107679048Y-154113842D01*
X107679048Y-154113842D02*
X107618571Y-154053365D01*
X107618571Y-154053365D02*
X107558095Y-153932413D01*
X107558095Y-153932413D02*
X107558095Y-153569556D01*
X107558095Y-153569556D02*
X107618571Y-153448603D01*
X107618571Y-153448603D02*
X107679048Y-153388127D01*
X107679048Y-153388127D02*
X107800000Y-153327651D01*
X107800000Y-153327651D02*
X108041905Y-153327651D01*
X108041905Y-153327651D02*
X108162857Y-153388127D01*
X108767619Y-154174318D02*
X108767619Y-153327651D01*
X108767619Y-152904318D02*
X108707143Y-152964794D01*
X108707143Y-152964794D02*
X108767619Y-153025270D01*
X108767619Y-153025270D02*
X108828096Y-152964794D01*
X108828096Y-152964794D02*
X108767619Y-152904318D01*
X108767619Y-152904318D02*
X108767619Y-153025270D01*
X109190953Y-153327651D02*
X109674762Y-153327651D01*
X109372381Y-152904318D02*
X109372381Y-153992889D01*
X109372381Y-153992889D02*
X109432858Y-154113842D01*
X109432858Y-154113842D02*
X109553810Y-154174318D01*
X109553810Y-154174318D02*
X109674762Y-154174318D01*
X110642381Y-154174318D02*
X110642381Y-153509080D01*
X110642381Y-153509080D02*
X110581905Y-153388127D01*
X110581905Y-153388127D02*
X110460953Y-153327651D01*
X110460953Y-153327651D02*
X110219048Y-153327651D01*
X110219048Y-153327651D02*
X110098095Y-153388127D01*
X110642381Y-154113842D02*
X110521429Y-154174318D01*
X110521429Y-154174318D02*
X110219048Y-154174318D01*
X110219048Y-154174318D02*
X110098095Y-154113842D01*
X110098095Y-154113842D02*
X110037619Y-153992889D01*
X110037619Y-153992889D02*
X110037619Y-153871937D01*
X110037619Y-153871937D02*
X110098095Y-153750984D01*
X110098095Y-153750984D02*
X110219048Y-153690508D01*
X110219048Y-153690508D02*
X110521429Y-153690508D01*
X110521429Y-153690508D02*
X110642381Y-153630032D01*
X111428572Y-154174318D02*
X111307620Y-154113842D01*
X111307620Y-154113842D02*
X111247143Y-153992889D01*
X111247143Y-153992889D02*
X111247143Y-152904318D01*
X112154286Y-152904318D02*
X112396191Y-152904318D01*
X112396191Y-152904318D02*
X112517143Y-152964794D01*
X112517143Y-152964794D02*
X112638096Y-153085746D01*
X112638096Y-153085746D02*
X112698572Y-153327651D01*
X112698572Y-153327651D02*
X112698572Y-153750984D01*
X112698572Y-153750984D02*
X112638096Y-153992889D01*
X112638096Y-153992889D02*
X112517143Y-154113842D01*
X112517143Y-154113842D02*
X112396191Y-154174318D01*
X112396191Y-154174318D02*
X112154286Y-154174318D01*
X112154286Y-154174318D02*
X112033334Y-154113842D01*
X112033334Y-154113842D02*
X111912381Y-153992889D01*
X111912381Y-153992889D02*
X111851905Y-153750984D01*
X111851905Y-153750984D02*
X111851905Y-153327651D01*
X111851905Y-153327651D02*
X111912381Y-153085746D01*
X111912381Y-153085746D02*
X112033334Y-152964794D01*
X112033334Y-152964794D02*
X112154286Y-152904318D01*
X113242857Y-152904318D02*
X113242857Y-153932413D01*
X113242857Y-153932413D02*
X113303334Y-154053365D01*
X113303334Y-154053365D02*
X113363810Y-154113842D01*
X113363810Y-154113842D02*
X113484762Y-154174318D01*
X113484762Y-154174318D02*
X113726667Y-154174318D01*
X113726667Y-154174318D02*
X113847619Y-154113842D01*
X113847619Y-154113842D02*
X113908096Y-154053365D01*
X113908096Y-154053365D02*
X113968572Y-153932413D01*
X113968572Y-153932413D02*
X113968572Y-152904318D01*
X114391905Y-152904318D02*
X115117619Y-152904318D01*
X114754762Y-154174318D02*
X114754762Y-152904318D01*
D11*
X105480476Y-128537200D02*
X105623333Y-128584819D01*
X105623333Y-128584819D02*
X105861428Y-128584819D01*
X105861428Y-128584819D02*
X105956666Y-128537200D01*
X105956666Y-128537200D02*
X106004285Y-128489580D01*
X106004285Y-128489580D02*
X106051904Y-128394342D01*
X106051904Y-128394342D02*
X106051904Y-128299104D01*
X106051904Y-128299104D02*
X106004285Y-128203866D01*
X106004285Y-128203866D02*
X105956666Y-128156247D01*
X105956666Y-128156247D02*
X105861428Y-128108628D01*
X105861428Y-128108628D02*
X105670952Y-128061009D01*
X105670952Y-128061009D02*
X105575714Y-128013390D01*
X105575714Y-128013390D02*
X105528095Y-127965771D01*
X105528095Y-127965771D02*
X105480476Y-127870533D01*
X105480476Y-127870533D02*
X105480476Y-127775295D01*
X105480476Y-127775295D02*
X105528095Y-127680057D01*
X105528095Y-127680057D02*
X105575714Y-127632438D01*
X105575714Y-127632438D02*
X105670952Y-127584819D01*
X105670952Y-127584819D02*
X105909047Y-127584819D01*
X105909047Y-127584819D02*
X106051904Y-127632438D01*
X106480476Y-128584819D02*
X106480476Y-127584819D01*
X106480476Y-127584819D02*
X106861428Y-127584819D01*
X106861428Y-127584819D02*
X106956666Y-127632438D01*
X106956666Y-127632438D02*
X107004285Y-127680057D01*
X107004285Y-127680057D02*
X107051904Y-127775295D01*
X107051904Y-127775295D02*
X107051904Y-127918152D01*
X107051904Y-127918152D02*
X107004285Y-128013390D01*
X107004285Y-128013390D02*
X106956666Y-128061009D01*
X106956666Y-128061009D02*
X106861428Y-128108628D01*
X106861428Y-128108628D02*
X106480476Y-128108628D01*
X107480476Y-128584819D02*
X107480476Y-127584819D01*
X107480476Y-127584819D02*
X107718571Y-127584819D01*
X107718571Y-127584819D02*
X107861428Y-127632438D01*
X107861428Y-127632438D02*
X107956666Y-127727676D01*
X107956666Y-127727676D02*
X108004285Y-127822914D01*
X108004285Y-127822914D02*
X108051904Y-128013390D01*
X108051904Y-128013390D02*
X108051904Y-128156247D01*
X108051904Y-128156247D02*
X108004285Y-128346723D01*
X108004285Y-128346723D02*
X107956666Y-128441961D01*
X107956666Y-128441961D02*
X107861428Y-128537200D01*
X107861428Y-128537200D02*
X107718571Y-128584819D01*
X107718571Y-128584819D02*
X107480476Y-128584819D01*
X108480476Y-128584819D02*
X108480476Y-127584819D01*
X109289999Y-128061009D02*
X108956666Y-128061009D01*
X108956666Y-128584819D02*
X108956666Y-127584819D01*
X108956666Y-127584819D02*
X109432856Y-127584819D01*
X109670952Y-127584819D02*
X110242380Y-127584819D01*
X109956666Y-128584819D02*
X109956666Y-127584819D01*
X110480476Y-127584819D02*
X111147142Y-128584819D01*
X111147142Y-127584819D02*
X110480476Y-128584819D01*
X108799999Y-146444819D02*
X108323809Y-146444819D01*
X108323809Y-146444819D02*
X108323809Y-145444819D01*
X109609523Y-146444819D02*
X109133333Y-146444819D01*
X109133333Y-146444819D02*
X109133333Y-145444819D01*
X109895238Y-146397200D02*
X110038095Y-146444819D01*
X110038095Y-146444819D02*
X110276190Y-146444819D01*
X110276190Y-146444819D02*
X110371428Y-146397200D01*
X110371428Y-146397200D02*
X110419047Y-146349580D01*
X110419047Y-146349580D02*
X110466666Y-146254342D01*
X110466666Y-146254342D02*
X110466666Y-146159104D01*
X110466666Y-146159104D02*
X110419047Y-146063866D01*
X110419047Y-146063866D02*
X110371428Y-146016247D01*
X110371428Y-146016247D02*
X110276190Y-145968628D01*
X110276190Y-145968628D02*
X110085714Y-145921009D01*
X110085714Y-145921009D02*
X109990476Y-145873390D01*
X109990476Y-145873390D02*
X109942857Y-145825771D01*
X109942857Y-145825771D02*
X109895238Y-145730533D01*
X109895238Y-145730533D02*
X109895238Y-145635295D01*
X109895238Y-145635295D02*
X109942857Y-145540057D01*
X109942857Y-145540057D02*
X109990476Y-145492438D01*
X109990476Y-145492438D02*
X110085714Y-145444819D01*
X110085714Y-145444819D02*
X110323809Y-145444819D01*
X110323809Y-145444819D02*
X110466666Y-145492438D01*
X111085714Y-145444819D02*
X111276190Y-145444819D01*
X111276190Y-145444819D02*
X111371428Y-145492438D01*
X111371428Y-145492438D02*
X111466666Y-145587676D01*
X111466666Y-145587676D02*
X111514285Y-145778152D01*
X111514285Y-145778152D02*
X111514285Y-146111485D01*
X111514285Y-146111485D02*
X111466666Y-146301961D01*
X111466666Y-146301961D02*
X111371428Y-146397200D01*
X111371428Y-146397200D02*
X111276190Y-146444819D01*
X111276190Y-146444819D02*
X111085714Y-146444819D01*
X111085714Y-146444819D02*
X110990476Y-146397200D01*
X110990476Y-146397200D02*
X110895238Y-146301961D01*
X110895238Y-146301961D02*
X110847619Y-146111485D01*
X110847619Y-146111485D02*
X110847619Y-145778152D01*
X110847619Y-145778152D02*
X110895238Y-145587676D01*
X110895238Y-145587676D02*
X110990476Y-145492438D01*
X110990476Y-145492438D02*
X111085714Y-145444819D01*
X111942857Y-145444819D02*
X111942857Y-146254342D01*
X111942857Y-146254342D02*
X111990476Y-146349580D01*
X111990476Y-146349580D02*
X112038095Y-146397200D01*
X112038095Y-146397200D02*
X112133333Y-146444819D01*
X112133333Y-146444819D02*
X112323809Y-146444819D01*
X112323809Y-146444819D02*
X112419047Y-146397200D01*
X112419047Y-146397200D02*
X112466666Y-146349580D01*
X112466666Y-146349580D02*
X112514285Y-146254342D01*
X112514285Y-146254342D02*
X112514285Y-145444819D01*
X112847619Y-145444819D02*
X113419047Y-145444819D01*
X113133333Y-146444819D02*
X113133333Y-145444819D01*
X154262857Y-138887200D02*
X154405714Y-138934819D01*
X154405714Y-138934819D02*
X154643809Y-138934819D01*
X154643809Y-138934819D02*
X154739047Y-138887200D01*
X154739047Y-138887200D02*
X154786666Y-138839580D01*
X154786666Y-138839580D02*
X154834285Y-138744342D01*
X154834285Y-138744342D02*
X154834285Y-138649104D01*
X154834285Y-138649104D02*
X154786666Y-138553866D01*
X154786666Y-138553866D02*
X154739047Y-138506247D01*
X154739047Y-138506247D02*
X154643809Y-138458628D01*
X154643809Y-138458628D02*
X154453333Y-138411009D01*
X154453333Y-138411009D02*
X154358095Y-138363390D01*
X154358095Y-138363390D02*
X154310476Y-138315771D01*
X154310476Y-138315771D02*
X154262857Y-138220533D01*
X154262857Y-138220533D02*
X154262857Y-138125295D01*
X154262857Y-138125295D02*
X154310476Y-138030057D01*
X154310476Y-138030057D02*
X154358095Y-137982438D01*
X154358095Y-137982438D02*
X154453333Y-137934819D01*
X154453333Y-137934819D02*
X154691428Y-137934819D01*
X154691428Y-137934819D02*
X154834285Y-137982438D01*
X155167619Y-137934819D02*
X155405714Y-138934819D01*
X155405714Y-138934819D02*
X155596190Y-138220533D01*
X155596190Y-138220533D02*
X155786666Y-138934819D01*
X155786666Y-138934819D02*
X156024762Y-137934819D01*
X156405714Y-138934819D02*
X156405714Y-137934819D01*
X156405714Y-137934819D02*
X156643809Y-137934819D01*
X156643809Y-137934819D02*
X156786666Y-137982438D01*
X156786666Y-137982438D02*
X156881904Y-138077676D01*
X156881904Y-138077676D02*
X156929523Y-138172914D01*
X156929523Y-138172914D02*
X156977142Y-138363390D01*
X156977142Y-138363390D02*
X156977142Y-138506247D01*
X156977142Y-138506247D02*
X156929523Y-138696723D01*
X156929523Y-138696723D02*
X156881904Y-138791961D01*
X156881904Y-138791961D02*
X156786666Y-138887200D01*
X156786666Y-138887200D02*
X156643809Y-138934819D01*
X156643809Y-138934819D02*
X156405714Y-138934819D01*
D12*
X90970475Y-154494318D02*
X90970475Y-153224318D01*
X90970475Y-153224318D02*
X91272856Y-153224318D01*
X91272856Y-153224318D02*
X91454285Y-153284794D01*
X91454285Y-153284794D02*
X91575237Y-153405746D01*
X91575237Y-153405746D02*
X91635714Y-153526699D01*
X91635714Y-153526699D02*
X91696190Y-153768603D01*
X91696190Y-153768603D02*
X91696190Y-153950032D01*
X91696190Y-153950032D02*
X91635714Y-154191937D01*
X91635714Y-154191937D02*
X91575237Y-154312889D01*
X91575237Y-154312889D02*
X91454285Y-154433842D01*
X91454285Y-154433842D02*
X91272856Y-154494318D01*
X91272856Y-154494318D02*
X90970475Y-154494318D01*
X92240475Y-154494318D02*
X92240475Y-153647651D01*
X92240475Y-153224318D02*
X92179999Y-153284794D01*
X92179999Y-153284794D02*
X92240475Y-153345270D01*
X92240475Y-153345270D02*
X92300952Y-153284794D01*
X92300952Y-153284794D02*
X92240475Y-153224318D01*
X92240475Y-153224318D02*
X92240475Y-153345270D01*
X93389523Y-153647651D02*
X93389523Y-154675746D01*
X93389523Y-154675746D02*
X93329047Y-154796699D01*
X93329047Y-154796699D02*
X93268571Y-154857175D01*
X93268571Y-154857175D02*
X93147618Y-154917651D01*
X93147618Y-154917651D02*
X92966190Y-154917651D01*
X92966190Y-154917651D02*
X92845237Y-154857175D01*
X93389523Y-154433842D02*
X93268571Y-154494318D01*
X93268571Y-154494318D02*
X93026666Y-154494318D01*
X93026666Y-154494318D02*
X92905714Y-154433842D01*
X92905714Y-154433842D02*
X92845237Y-154373365D01*
X92845237Y-154373365D02*
X92784761Y-154252413D01*
X92784761Y-154252413D02*
X92784761Y-153889556D01*
X92784761Y-153889556D02*
X92845237Y-153768603D01*
X92845237Y-153768603D02*
X92905714Y-153708127D01*
X92905714Y-153708127D02*
X93026666Y-153647651D01*
X93026666Y-153647651D02*
X93268571Y-153647651D01*
X93268571Y-153647651D02*
X93389523Y-153708127D01*
X93994285Y-154494318D02*
X93994285Y-153647651D01*
X93994285Y-153224318D02*
X93933809Y-153284794D01*
X93933809Y-153284794D02*
X93994285Y-153345270D01*
X93994285Y-153345270D02*
X94054762Y-153284794D01*
X94054762Y-153284794D02*
X93994285Y-153224318D01*
X93994285Y-153224318D02*
X93994285Y-153345270D01*
X94417619Y-153647651D02*
X94901428Y-153647651D01*
X94599047Y-153224318D02*
X94599047Y-154312889D01*
X94599047Y-154312889D02*
X94659524Y-154433842D01*
X94659524Y-154433842D02*
X94780476Y-154494318D01*
X94780476Y-154494318D02*
X94901428Y-154494318D01*
X95869047Y-154494318D02*
X95869047Y-153829080D01*
X95869047Y-153829080D02*
X95808571Y-153708127D01*
X95808571Y-153708127D02*
X95687619Y-153647651D01*
X95687619Y-153647651D02*
X95445714Y-153647651D01*
X95445714Y-153647651D02*
X95324761Y-153708127D01*
X95869047Y-154433842D02*
X95748095Y-154494318D01*
X95748095Y-154494318D02*
X95445714Y-154494318D01*
X95445714Y-154494318D02*
X95324761Y-154433842D01*
X95324761Y-154433842D02*
X95264285Y-154312889D01*
X95264285Y-154312889D02*
X95264285Y-154191937D01*
X95264285Y-154191937D02*
X95324761Y-154070984D01*
X95324761Y-154070984D02*
X95445714Y-154010508D01*
X95445714Y-154010508D02*
X95748095Y-154010508D01*
X95748095Y-154010508D02*
X95869047Y-153950032D01*
X96655238Y-154494318D02*
X96534286Y-154433842D01*
X96534286Y-154433842D02*
X96473809Y-154312889D01*
X96473809Y-154312889D02*
X96473809Y-153224318D01*
X97139047Y-154494318D02*
X97139047Y-153224318D01*
X97743809Y-154494318D02*
X97743809Y-153224318D01*
X97743809Y-153224318D02*
X98469524Y-154494318D01*
X98469524Y-154494318D02*
X98469524Y-153224318D01*
D11*
X137107618Y-133704819D02*
X136774285Y-133228628D01*
X136536190Y-133704819D02*
X136536190Y-132704819D01*
X136536190Y-132704819D02*
X136917142Y-132704819D01*
X136917142Y-132704819D02*
X137012380Y-132752438D01*
X137012380Y-132752438D02*
X137059999Y-132800057D01*
X137059999Y-132800057D02*
X137107618Y-132895295D01*
X137107618Y-132895295D02*
X137107618Y-133038152D01*
X137107618Y-133038152D02*
X137059999Y-133133390D01*
X137059999Y-133133390D02*
X137012380Y-133181009D01*
X137012380Y-133181009D02*
X136917142Y-133228628D01*
X136917142Y-133228628D02*
X136536190Y-133228628D01*
X137536190Y-133181009D02*
X137869523Y-133181009D01*
X138012380Y-133704819D02*
X137536190Y-133704819D01*
X137536190Y-133704819D02*
X137536190Y-132704819D01*
X137536190Y-132704819D02*
X138012380Y-132704819D01*
X138393333Y-133657200D02*
X138536190Y-133704819D01*
X138536190Y-133704819D02*
X138774285Y-133704819D01*
X138774285Y-133704819D02*
X138869523Y-133657200D01*
X138869523Y-133657200D02*
X138917142Y-133609580D01*
X138917142Y-133609580D02*
X138964761Y-133514342D01*
X138964761Y-133514342D02*
X138964761Y-133419104D01*
X138964761Y-133419104D02*
X138917142Y-133323866D01*
X138917142Y-133323866D02*
X138869523Y-133276247D01*
X138869523Y-133276247D02*
X138774285Y-133228628D01*
X138774285Y-133228628D02*
X138583809Y-133181009D01*
X138583809Y-133181009D02*
X138488571Y-133133390D01*
X138488571Y-133133390D02*
X138440952Y-133085771D01*
X138440952Y-133085771D02*
X138393333Y-132990533D01*
X138393333Y-132990533D02*
X138393333Y-132895295D01*
X138393333Y-132895295D02*
X138440952Y-132800057D01*
X138440952Y-132800057D02*
X138488571Y-132752438D01*
X138488571Y-132752438D02*
X138583809Y-132704819D01*
X138583809Y-132704819D02*
X138821904Y-132704819D01*
X138821904Y-132704819D02*
X138964761Y-132752438D01*
X139393333Y-133181009D02*
X139726666Y-133181009D01*
X139869523Y-133704819D02*
X139393333Y-133704819D01*
X139393333Y-133704819D02*
X139393333Y-132704819D01*
X139393333Y-132704819D02*
X139869523Y-132704819D01*
X140155238Y-132704819D02*
X140726666Y-132704819D01*
X140440952Y-133704819D02*
X140440952Y-132704819D01*
X131850000Y-133094819D02*
X131850000Y-133332914D01*
X131611905Y-133237676D02*
X131850000Y-133332914D01*
X131850000Y-133332914D02*
X132088095Y-133237676D01*
X131707143Y-133523390D02*
X131850000Y-133332914D01*
X131850000Y-133332914D02*
X131992857Y-133523390D01*
D12*
X150949080Y-86336903D02*
X150949080Y-86760237D01*
X151614318Y-86760237D02*
X150344318Y-86760237D01*
X150344318Y-86760237D02*
X150344318Y-86155475D01*
X151614318Y-85066904D02*
X151614318Y-85671666D01*
X151614318Y-85671666D02*
X150344318Y-85671666D01*
X151251461Y-84704047D02*
X151251461Y-84099285D01*
X151614318Y-84824999D02*
X150344318Y-84401666D01*
X150344318Y-84401666D02*
X151614318Y-83978332D01*
X151553842Y-83615476D02*
X151614318Y-83434047D01*
X151614318Y-83434047D02*
X151614318Y-83131666D01*
X151614318Y-83131666D02*
X151553842Y-83010714D01*
X151553842Y-83010714D02*
X151493365Y-82950238D01*
X151493365Y-82950238D02*
X151372413Y-82889761D01*
X151372413Y-82889761D02*
X151251461Y-82889761D01*
X151251461Y-82889761D02*
X151130508Y-82950238D01*
X151130508Y-82950238D02*
X151070032Y-83010714D01*
X151070032Y-83010714D02*
X151009556Y-83131666D01*
X151009556Y-83131666D02*
X150949080Y-83373571D01*
X150949080Y-83373571D02*
X150888603Y-83494523D01*
X150888603Y-83494523D02*
X150828127Y-83555000D01*
X150828127Y-83555000D02*
X150707175Y-83615476D01*
X150707175Y-83615476D02*
X150586222Y-83615476D01*
X150586222Y-83615476D02*
X150465270Y-83555000D01*
X150465270Y-83555000D02*
X150404794Y-83494523D01*
X150404794Y-83494523D02*
X150344318Y-83373571D01*
X150344318Y-83373571D02*
X150344318Y-83071190D01*
X150344318Y-83071190D02*
X150404794Y-82889761D01*
X151614318Y-82345476D02*
X150344318Y-82345476D01*
X150949080Y-82345476D02*
X150949080Y-81619761D01*
X151614318Y-81619761D02*
X150344318Y-81619761D01*
D11*
X48281905Y-126119104D02*
X48758095Y-126119104D01*
X48186667Y-126404819D02*
X48520000Y-125404819D01*
X48520000Y-125404819D02*
X48853333Y-126404819D01*
X49186667Y-126404819D02*
X49186667Y-125404819D01*
X49186667Y-125404819D02*
X49424762Y-125404819D01*
X49424762Y-125404819D02*
X49567619Y-125452438D01*
X49567619Y-125452438D02*
X49662857Y-125547676D01*
X49662857Y-125547676D02*
X49710476Y-125642914D01*
X49710476Y-125642914D02*
X49758095Y-125833390D01*
X49758095Y-125833390D02*
X49758095Y-125976247D01*
X49758095Y-125976247D02*
X49710476Y-126166723D01*
X49710476Y-126166723D02*
X49662857Y-126261961D01*
X49662857Y-126261961D02*
X49567619Y-126357200D01*
X49567619Y-126357200D02*
X49424762Y-126404819D01*
X49424762Y-126404819D02*
X49186667Y-126404819D01*
X50758095Y-126309580D02*
X50710476Y-126357200D01*
X50710476Y-126357200D02*
X50567619Y-126404819D01*
X50567619Y-126404819D02*
X50472381Y-126404819D01*
X50472381Y-126404819D02*
X50329524Y-126357200D01*
X50329524Y-126357200D02*
X50234286Y-126261961D01*
X50234286Y-126261961D02*
X50186667Y-126166723D01*
X50186667Y-126166723D02*
X50139048Y-125976247D01*
X50139048Y-125976247D02*
X50139048Y-125833390D01*
X50139048Y-125833390D02*
X50186667Y-125642914D01*
X50186667Y-125642914D02*
X50234286Y-125547676D01*
X50234286Y-125547676D02*
X50329524Y-125452438D01*
X50329524Y-125452438D02*
X50472381Y-125404819D01*
X50472381Y-125404819D02*
X50567619Y-125404819D01*
X50567619Y-125404819D02*
X50710476Y-125452438D01*
X50710476Y-125452438D02*
X50758095Y-125500057D01*
X168450436Y-132373219D02*
X168450436Y-131373219D01*
X168450436Y-131373219D02*
X168688531Y-131373219D01*
X168688531Y-131373219D02*
X168831388Y-131420838D01*
X168831388Y-131420838D02*
X168926626Y-131516076D01*
X168926626Y-131516076D02*
X168974245Y-131611314D01*
X168974245Y-131611314D02*
X169021864Y-131801790D01*
X169021864Y-131801790D02*
X169021864Y-131944647D01*
X169021864Y-131944647D02*
X168974245Y-132135123D01*
X168974245Y-132135123D02*
X168926626Y-132230361D01*
X168926626Y-132230361D02*
X168831388Y-132325600D01*
X168831388Y-132325600D02*
X168688531Y-132373219D01*
X168688531Y-132373219D02*
X168450436Y-132373219D01*
X170021864Y-132277980D02*
X169974245Y-132325600D01*
X169974245Y-132325600D02*
X169831388Y-132373219D01*
X169831388Y-132373219D02*
X169736150Y-132373219D01*
X169736150Y-132373219D02*
X169593293Y-132325600D01*
X169593293Y-132325600D02*
X169498055Y-132230361D01*
X169498055Y-132230361D02*
X169450436Y-132135123D01*
X169450436Y-132135123D02*
X169402817Y-131944647D01*
X169402817Y-131944647D02*
X169402817Y-131801790D01*
X169402817Y-131801790D02*
X169450436Y-131611314D01*
X169450436Y-131611314D02*
X169498055Y-131516076D01*
X169498055Y-131516076D02*
X169593293Y-131420838D01*
X169593293Y-131420838D02*
X169736150Y-131373219D01*
X169736150Y-131373219D02*
X169831388Y-131373219D01*
X169831388Y-131373219D02*
X169974245Y-131420838D01*
X169974245Y-131420838D02*
X170021864Y-131468457D01*
X170450436Y-132373219D02*
X170450436Y-131373219D01*
X170450436Y-131373219D02*
X170831388Y-131373219D01*
X170831388Y-131373219D02*
X170926626Y-131420838D01*
X170926626Y-131420838D02*
X170974245Y-131468457D01*
X170974245Y-131468457D02*
X171021864Y-131563695D01*
X171021864Y-131563695D02*
X171021864Y-131706552D01*
X171021864Y-131706552D02*
X170974245Y-131801790D01*
X170974245Y-131801790D02*
X170926626Y-131849409D01*
X170926626Y-131849409D02*
X170831388Y-131897028D01*
X170831388Y-131897028D02*
X170450436Y-131897028D01*
X171450436Y-131849409D02*
X171783769Y-131849409D01*
X171926626Y-132373219D02*
X171450436Y-132373219D01*
X171450436Y-132373219D02*
X171450436Y-131373219D01*
X171450436Y-131373219D02*
X171926626Y-131373219D01*
X172355198Y-132373219D02*
X172355198Y-131373219D01*
X172355198Y-131373219D02*
X172688531Y-132087504D01*
X172688531Y-132087504D02*
X173021864Y-131373219D01*
X173021864Y-131373219D02*
X173021864Y-132373219D01*
D12*
X133707380Y-164074318D02*
X133707380Y-165102413D01*
X133707380Y-165102413D02*
X133767857Y-165223365D01*
X133767857Y-165223365D02*
X133828333Y-165283842D01*
X133828333Y-165283842D02*
X133949285Y-165344318D01*
X133949285Y-165344318D02*
X134191190Y-165344318D01*
X134191190Y-165344318D02*
X134312142Y-165283842D01*
X134312142Y-165283842D02*
X134372619Y-165223365D01*
X134372619Y-165223365D02*
X134433095Y-165102413D01*
X134433095Y-165102413D02*
X134433095Y-164074318D01*
X134977380Y-165283842D02*
X135158809Y-165344318D01*
X135158809Y-165344318D02*
X135461190Y-165344318D01*
X135461190Y-165344318D02*
X135582142Y-165283842D01*
X135582142Y-165283842D02*
X135642618Y-165223365D01*
X135642618Y-165223365D02*
X135703095Y-165102413D01*
X135703095Y-165102413D02*
X135703095Y-164981461D01*
X135703095Y-164981461D02*
X135642618Y-164860508D01*
X135642618Y-164860508D02*
X135582142Y-164800032D01*
X135582142Y-164800032D02*
X135461190Y-164739556D01*
X135461190Y-164739556D02*
X135219285Y-164679080D01*
X135219285Y-164679080D02*
X135098333Y-164618603D01*
X135098333Y-164618603D02*
X135037856Y-164558127D01*
X135037856Y-164558127D02*
X134977380Y-164437175D01*
X134977380Y-164437175D02*
X134977380Y-164316222D01*
X134977380Y-164316222D02*
X135037856Y-164195270D01*
X135037856Y-164195270D02*
X135098333Y-164134794D01*
X135098333Y-164134794D02*
X135219285Y-164074318D01*
X135219285Y-164074318D02*
X135521666Y-164074318D01*
X135521666Y-164074318D02*
X135703095Y-164134794D01*
X136670714Y-164679080D02*
X136852142Y-164739556D01*
X136852142Y-164739556D02*
X136912619Y-164800032D01*
X136912619Y-164800032D02*
X136973095Y-164920984D01*
X136973095Y-164920984D02*
X136973095Y-165102413D01*
X136973095Y-165102413D02*
X136912619Y-165223365D01*
X136912619Y-165223365D02*
X136852142Y-165283842D01*
X136852142Y-165283842D02*
X136731190Y-165344318D01*
X136731190Y-165344318D02*
X136247380Y-165344318D01*
X136247380Y-165344318D02*
X136247380Y-164074318D01*
X136247380Y-164074318D02*
X136670714Y-164074318D01*
X136670714Y-164074318D02*
X136791666Y-164134794D01*
X136791666Y-164134794D02*
X136852142Y-164195270D01*
X136852142Y-164195270D02*
X136912619Y-164316222D01*
X136912619Y-164316222D02*
X136912619Y-164437175D01*
X136912619Y-164437175D02*
X136852142Y-164558127D01*
X136852142Y-164558127D02*
X136791666Y-164618603D01*
X136791666Y-164618603D02*
X136670714Y-164679080D01*
X136670714Y-164679080D02*
X136247380Y-164679080D01*
D11*
X102344819Y-149946666D02*
X102344819Y-150422856D01*
X102344819Y-150422856D02*
X101344819Y-150422856D01*
X102344819Y-149089523D02*
X102344819Y-149660951D01*
X102344819Y-149375237D02*
X101344819Y-149375237D01*
X101344819Y-149375237D02*
X101487676Y-149470475D01*
X101487676Y-149470475D02*
X101582914Y-149565713D01*
X101582914Y-149565713D02*
X101630533Y-149660951D01*
X76239524Y-136484819D02*
X76239524Y-135484819D01*
X76239524Y-135484819D02*
X76477619Y-135484819D01*
X76477619Y-135484819D02*
X76620476Y-135532438D01*
X76620476Y-135532438D02*
X76715714Y-135627676D01*
X76715714Y-135627676D02*
X76763333Y-135722914D01*
X76763333Y-135722914D02*
X76810952Y-135913390D01*
X76810952Y-135913390D02*
X76810952Y-136056247D01*
X76810952Y-136056247D02*
X76763333Y-136246723D01*
X76763333Y-136246723D02*
X76715714Y-136341961D01*
X76715714Y-136341961D02*
X76620476Y-136437200D01*
X76620476Y-136437200D02*
X76477619Y-136484819D01*
X76477619Y-136484819D02*
X76239524Y-136484819D01*
X77191905Y-136199104D02*
X77668095Y-136199104D01*
X77096667Y-136484819D02*
X77430000Y-135484819D01*
X77430000Y-135484819D02*
X77763333Y-136484819D01*
X78668095Y-136389580D02*
X78620476Y-136437200D01*
X78620476Y-136437200D02*
X78477619Y-136484819D01*
X78477619Y-136484819D02*
X78382381Y-136484819D01*
X78382381Y-136484819D02*
X78239524Y-136437200D01*
X78239524Y-136437200D02*
X78144286Y-136341961D01*
X78144286Y-136341961D02*
X78096667Y-136246723D01*
X78096667Y-136246723D02*
X78049048Y-136056247D01*
X78049048Y-136056247D02*
X78049048Y-135913390D01*
X78049048Y-135913390D02*
X78096667Y-135722914D01*
X78096667Y-135722914D02*
X78144286Y-135627676D01*
X78144286Y-135627676D02*
X78239524Y-135532438D01*
X78239524Y-135532438D02*
X78382381Y-135484819D01*
X78382381Y-135484819D02*
X78477619Y-135484819D01*
X78477619Y-135484819D02*
X78620476Y-135532438D01*
X78620476Y-135532438D02*
X78668095Y-135580057D01*
X79530000Y-135204819D02*
X79530000Y-135442914D01*
X79291905Y-135347676D02*
X79530000Y-135442914D01*
X79530000Y-135442914D02*
X79768095Y-135347676D01*
X79387143Y-135633390D02*
X79530000Y-135442914D01*
X79530000Y-135442914D02*
X79672857Y-135633390D01*
X79539999Y-136305180D02*
X79539999Y-136067085D01*
X79778094Y-136162323D02*
X79539999Y-136067085D01*
X79539999Y-136067085D02*
X79301904Y-136162323D01*
X79682856Y-135876609D02*
X79539999Y-136067085D01*
X79539999Y-136067085D02*
X79397142Y-135876609D01*
X122512857Y-141081009D02*
X122655714Y-141128628D01*
X122655714Y-141128628D02*
X122703333Y-141176247D01*
X122703333Y-141176247D02*
X122750952Y-141271485D01*
X122750952Y-141271485D02*
X122750952Y-141414342D01*
X122750952Y-141414342D02*
X122703333Y-141509580D01*
X122703333Y-141509580D02*
X122655714Y-141557200D01*
X122655714Y-141557200D02*
X122560476Y-141604819D01*
X122560476Y-141604819D02*
X122179524Y-141604819D01*
X122179524Y-141604819D02*
X122179524Y-140604819D01*
X122179524Y-140604819D02*
X122512857Y-140604819D01*
X122512857Y-140604819D02*
X122608095Y-140652438D01*
X122608095Y-140652438D02*
X122655714Y-140700057D01*
X122655714Y-140700057D02*
X122703333Y-140795295D01*
X122703333Y-140795295D02*
X122703333Y-140890533D01*
X122703333Y-140890533D02*
X122655714Y-140985771D01*
X122655714Y-140985771D02*
X122608095Y-141033390D01*
X122608095Y-141033390D02*
X122512857Y-141081009D01*
X122512857Y-141081009D02*
X122179524Y-141081009D01*
X123370000Y-140604819D02*
X123560476Y-140604819D01*
X123560476Y-140604819D02*
X123655714Y-140652438D01*
X123655714Y-140652438D02*
X123750952Y-140747676D01*
X123750952Y-140747676D02*
X123798571Y-140938152D01*
X123798571Y-140938152D02*
X123798571Y-141271485D01*
X123798571Y-141271485D02*
X123750952Y-141461961D01*
X123750952Y-141461961D02*
X123655714Y-141557200D01*
X123655714Y-141557200D02*
X123560476Y-141604819D01*
X123560476Y-141604819D02*
X123370000Y-141604819D01*
X123370000Y-141604819D02*
X123274762Y-141557200D01*
X123274762Y-141557200D02*
X123179524Y-141461961D01*
X123179524Y-141461961D02*
X123131905Y-141271485D01*
X123131905Y-141271485D02*
X123131905Y-140938152D01*
X123131905Y-140938152D02*
X123179524Y-140747676D01*
X123179524Y-140747676D02*
X123274762Y-140652438D01*
X123274762Y-140652438D02*
X123370000Y-140604819D01*
X124417619Y-140604819D02*
X124608095Y-140604819D01*
X124608095Y-140604819D02*
X124703333Y-140652438D01*
X124703333Y-140652438D02*
X124798571Y-140747676D01*
X124798571Y-140747676D02*
X124846190Y-140938152D01*
X124846190Y-140938152D02*
X124846190Y-141271485D01*
X124846190Y-141271485D02*
X124798571Y-141461961D01*
X124798571Y-141461961D02*
X124703333Y-141557200D01*
X124703333Y-141557200D02*
X124608095Y-141604819D01*
X124608095Y-141604819D02*
X124417619Y-141604819D01*
X124417619Y-141604819D02*
X124322381Y-141557200D01*
X124322381Y-141557200D02*
X124227143Y-141461961D01*
X124227143Y-141461961D02*
X124179524Y-141271485D01*
X124179524Y-141271485D02*
X124179524Y-140938152D01*
X124179524Y-140938152D02*
X124227143Y-140747676D01*
X124227143Y-140747676D02*
X124322381Y-140652438D01*
X124322381Y-140652438D02*
X124417619Y-140604819D01*
X125131905Y-140604819D02*
X125703333Y-140604819D01*
X125417619Y-141604819D02*
X125417619Y-140604819D01*
X119754819Y-140779999D02*
X119992914Y-140779999D01*
X119897676Y-141018094D02*
X119992914Y-140779999D01*
X119992914Y-140779999D02*
X119897676Y-140541904D01*
X120183390Y-140922856D02*
X119992914Y-140779999D01*
X119992914Y-140779999D02*
X120183390Y-140637142D01*
D12*
X48399285Y-169551461D02*
X49004047Y-169551461D01*
X48278333Y-169914318D02*
X48701666Y-168644318D01*
X48701666Y-168644318D02*
X49125000Y-169914318D01*
X49548332Y-169067651D02*
X49548332Y-169914318D01*
X49548332Y-169188603D02*
X49608809Y-169128127D01*
X49608809Y-169128127D02*
X49729761Y-169067651D01*
X49729761Y-169067651D02*
X49911190Y-169067651D01*
X49911190Y-169067651D02*
X50032142Y-169128127D01*
X50032142Y-169128127D02*
X50092618Y-169249080D01*
X50092618Y-169249080D02*
X50092618Y-169914318D01*
X51241666Y-169914318D02*
X51241666Y-169249080D01*
X51241666Y-169249080D02*
X51181190Y-169128127D01*
X51181190Y-169128127D02*
X51060238Y-169067651D01*
X51060238Y-169067651D02*
X50818333Y-169067651D01*
X50818333Y-169067651D02*
X50697380Y-169128127D01*
X51241666Y-169853842D02*
X51120714Y-169914318D01*
X51120714Y-169914318D02*
X50818333Y-169914318D01*
X50818333Y-169914318D02*
X50697380Y-169853842D01*
X50697380Y-169853842D02*
X50636904Y-169732889D01*
X50636904Y-169732889D02*
X50636904Y-169611937D01*
X50636904Y-169611937D02*
X50697380Y-169490984D01*
X50697380Y-169490984D02*
X50818333Y-169430508D01*
X50818333Y-169430508D02*
X51120714Y-169430508D01*
X51120714Y-169430508D02*
X51241666Y-169370032D01*
X52027857Y-169914318D02*
X51906905Y-169853842D01*
X51906905Y-169853842D02*
X51846428Y-169732889D01*
X51846428Y-169732889D02*
X51846428Y-168644318D01*
X52693095Y-169914318D02*
X52572143Y-169853842D01*
X52572143Y-169853842D02*
X52511666Y-169793365D01*
X52511666Y-169793365D02*
X52451190Y-169672413D01*
X52451190Y-169672413D02*
X52451190Y-169309556D01*
X52451190Y-169309556D02*
X52511666Y-169188603D01*
X52511666Y-169188603D02*
X52572143Y-169128127D01*
X52572143Y-169128127D02*
X52693095Y-169067651D01*
X52693095Y-169067651D02*
X52874524Y-169067651D01*
X52874524Y-169067651D02*
X52995476Y-169128127D01*
X52995476Y-169128127D02*
X53055952Y-169188603D01*
X53055952Y-169188603D02*
X53116428Y-169309556D01*
X53116428Y-169309556D02*
X53116428Y-169672413D01*
X53116428Y-169672413D02*
X53055952Y-169793365D01*
X53055952Y-169793365D02*
X52995476Y-169853842D01*
X52995476Y-169853842D02*
X52874524Y-169914318D01*
X52874524Y-169914318D02*
X52693095Y-169914318D01*
X54205000Y-169067651D02*
X54205000Y-170095746D01*
X54205000Y-170095746D02*
X54144524Y-170216699D01*
X54144524Y-170216699D02*
X54084048Y-170277175D01*
X54084048Y-170277175D02*
X53963095Y-170337651D01*
X53963095Y-170337651D02*
X53781667Y-170337651D01*
X53781667Y-170337651D02*
X53660714Y-170277175D01*
X54205000Y-169853842D02*
X54084048Y-169914318D01*
X54084048Y-169914318D02*
X53842143Y-169914318D01*
X53842143Y-169914318D02*
X53721191Y-169853842D01*
X53721191Y-169853842D02*
X53660714Y-169793365D01*
X53660714Y-169793365D02*
X53600238Y-169672413D01*
X53600238Y-169672413D02*
X53600238Y-169309556D01*
X53600238Y-169309556D02*
X53660714Y-169188603D01*
X53660714Y-169188603D02*
X53721191Y-169128127D01*
X53721191Y-169128127D02*
X53842143Y-169067651D01*
X53842143Y-169067651D02*
X54084048Y-169067651D01*
X54084048Y-169067651D02*
X54205000Y-169128127D01*
X54809762Y-169914318D02*
X54809762Y-168644318D01*
X55414524Y-169914318D02*
X55414524Y-168644318D01*
X55414524Y-168644318D02*
X56140239Y-169914318D01*
X56140239Y-169914318D02*
X56140239Y-168644318D01*
X78877618Y-169226461D02*
X79482380Y-169226461D01*
X78756666Y-169589318D02*
X79179999Y-168319318D01*
X79179999Y-168319318D02*
X79603333Y-169589318D01*
X80026665Y-168742651D02*
X80026665Y-169589318D01*
X80026665Y-168863603D02*
X80087142Y-168803127D01*
X80087142Y-168803127D02*
X80208094Y-168742651D01*
X80208094Y-168742651D02*
X80389523Y-168742651D01*
X80389523Y-168742651D02*
X80510475Y-168803127D01*
X80510475Y-168803127D02*
X80570951Y-168924080D01*
X80570951Y-168924080D02*
X80570951Y-169589318D01*
X81719999Y-169589318D02*
X81719999Y-168924080D01*
X81719999Y-168924080D02*
X81659523Y-168803127D01*
X81659523Y-168803127D02*
X81538571Y-168742651D01*
X81538571Y-168742651D02*
X81296666Y-168742651D01*
X81296666Y-168742651D02*
X81175713Y-168803127D01*
X81719999Y-169528842D02*
X81599047Y-169589318D01*
X81599047Y-169589318D02*
X81296666Y-169589318D01*
X81296666Y-169589318D02*
X81175713Y-169528842D01*
X81175713Y-169528842D02*
X81115237Y-169407889D01*
X81115237Y-169407889D02*
X81115237Y-169286937D01*
X81115237Y-169286937D02*
X81175713Y-169165984D01*
X81175713Y-169165984D02*
X81296666Y-169105508D01*
X81296666Y-169105508D02*
X81599047Y-169105508D01*
X81599047Y-169105508D02*
X81719999Y-169045032D01*
X82506190Y-169589318D02*
X82385238Y-169528842D01*
X82385238Y-169528842D02*
X82324761Y-169407889D01*
X82324761Y-169407889D02*
X82324761Y-168319318D01*
X83171428Y-169589318D02*
X83050476Y-169528842D01*
X83050476Y-169528842D02*
X82989999Y-169468365D01*
X82989999Y-169468365D02*
X82929523Y-169347413D01*
X82929523Y-169347413D02*
X82929523Y-168984556D01*
X82929523Y-168984556D02*
X82989999Y-168863603D01*
X82989999Y-168863603D02*
X83050476Y-168803127D01*
X83050476Y-168803127D02*
X83171428Y-168742651D01*
X83171428Y-168742651D02*
X83352857Y-168742651D01*
X83352857Y-168742651D02*
X83473809Y-168803127D01*
X83473809Y-168803127D02*
X83534285Y-168863603D01*
X83534285Y-168863603D02*
X83594761Y-168984556D01*
X83594761Y-168984556D02*
X83594761Y-169347413D01*
X83594761Y-169347413D02*
X83534285Y-169468365D01*
X83534285Y-169468365D02*
X83473809Y-169528842D01*
X83473809Y-169528842D02*
X83352857Y-169589318D01*
X83352857Y-169589318D02*
X83171428Y-169589318D01*
X84683333Y-168742651D02*
X84683333Y-169770746D01*
X84683333Y-169770746D02*
X84622857Y-169891699D01*
X84622857Y-169891699D02*
X84562381Y-169952175D01*
X84562381Y-169952175D02*
X84441428Y-170012651D01*
X84441428Y-170012651D02*
X84260000Y-170012651D01*
X84260000Y-170012651D02*
X84139047Y-169952175D01*
X84683333Y-169528842D02*
X84562381Y-169589318D01*
X84562381Y-169589318D02*
X84320476Y-169589318D01*
X84320476Y-169589318D02*
X84199524Y-169528842D01*
X84199524Y-169528842D02*
X84139047Y-169468365D01*
X84139047Y-169468365D02*
X84078571Y-169347413D01*
X84078571Y-169347413D02*
X84078571Y-168984556D01*
X84078571Y-168984556D02*
X84139047Y-168863603D01*
X84139047Y-168863603D02*
X84199524Y-168803127D01*
X84199524Y-168803127D02*
X84320476Y-168742651D01*
X84320476Y-168742651D02*
X84562381Y-168742651D01*
X84562381Y-168742651D02*
X84683333Y-168803127D01*
X85530000Y-168319318D02*
X85771905Y-168319318D01*
X85771905Y-168319318D02*
X85892857Y-168379794D01*
X85892857Y-168379794D02*
X86013810Y-168500746D01*
X86013810Y-168500746D02*
X86074286Y-168742651D01*
X86074286Y-168742651D02*
X86074286Y-169165984D01*
X86074286Y-169165984D02*
X86013810Y-169407889D01*
X86013810Y-169407889D02*
X85892857Y-169528842D01*
X85892857Y-169528842D02*
X85771905Y-169589318D01*
X85771905Y-169589318D02*
X85530000Y-169589318D01*
X85530000Y-169589318D02*
X85409048Y-169528842D01*
X85409048Y-169528842D02*
X85288095Y-169407889D01*
X85288095Y-169407889D02*
X85227619Y-169165984D01*
X85227619Y-169165984D02*
X85227619Y-168742651D01*
X85227619Y-168742651D02*
X85288095Y-168500746D01*
X85288095Y-168500746D02*
X85409048Y-168379794D01*
X85409048Y-168379794D02*
X85530000Y-168319318D01*
X86618571Y-168319318D02*
X86618571Y-169347413D01*
X86618571Y-169347413D02*
X86679048Y-169468365D01*
X86679048Y-169468365D02*
X86739524Y-169528842D01*
X86739524Y-169528842D02*
X86860476Y-169589318D01*
X86860476Y-169589318D02*
X87102381Y-169589318D01*
X87102381Y-169589318D02*
X87223333Y-169528842D01*
X87223333Y-169528842D02*
X87283810Y-169468365D01*
X87283810Y-169468365D02*
X87344286Y-169347413D01*
X87344286Y-169347413D02*
X87344286Y-168319318D01*
X87767619Y-168319318D02*
X88493333Y-168319318D01*
X88130476Y-169589318D02*
X88130476Y-168319318D01*
D11*
X115148571Y-50135180D02*
X115148571Y-51135180D01*
X114577143Y-50135180D02*
X115005714Y-50706609D01*
X114577143Y-51135180D02*
X115148571Y-50563752D01*
X113767619Y-50182800D02*
X113862857Y-50135180D01*
X113862857Y-50135180D02*
X114053333Y-50135180D01*
X114053333Y-50135180D02*
X114148571Y-50182800D01*
X114148571Y-50182800D02*
X114196190Y-50278038D01*
X114196190Y-50278038D02*
X114196190Y-50658990D01*
X114196190Y-50658990D02*
X114148571Y-50754228D01*
X114148571Y-50754228D02*
X114053333Y-50801847D01*
X114053333Y-50801847D02*
X113862857Y-50801847D01*
X113862857Y-50801847D02*
X113767619Y-50754228D01*
X113767619Y-50754228D02*
X113720000Y-50658990D01*
X113720000Y-50658990D02*
X113720000Y-50563752D01*
X113720000Y-50563752D02*
X114196190Y-50468514D01*
X113386666Y-50801847D02*
X113148571Y-50135180D01*
X112910476Y-50801847D02*
X113148571Y-50135180D01*
X113148571Y-50135180D02*
X113243809Y-49897085D01*
X113243809Y-49897085D02*
X113291428Y-49849466D01*
X113291428Y-49849466D02*
X113386666Y-49801847D01*
X112529523Y-50801847D02*
X112529523Y-49801847D01*
X112529523Y-50754228D02*
X112434285Y-50801847D01*
X112434285Y-50801847D02*
X112243809Y-50801847D01*
X112243809Y-50801847D02*
X112148571Y-50754228D01*
X112148571Y-50754228D02*
X112100952Y-50706609D01*
X112100952Y-50706609D02*
X112053333Y-50611371D01*
X112053333Y-50611371D02*
X112053333Y-50325657D01*
X112053333Y-50325657D02*
X112100952Y-50230419D01*
X112100952Y-50230419D02*
X112148571Y-50182800D01*
X112148571Y-50182800D02*
X112243809Y-50135180D01*
X112243809Y-50135180D02*
X112434285Y-50135180D01*
X112434285Y-50135180D02*
X112529523Y-50182800D01*
X111196190Y-50135180D02*
X111196190Y-50658990D01*
X111196190Y-50658990D02*
X111243809Y-50754228D01*
X111243809Y-50754228D02*
X111339047Y-50801847D01*
X111339047Y-50801847D02*
X111529523Y-50801847D01*
X111529523Y-50801847D02*
X111624761Y-50754228D01*
X111196190Y-50182800D02*
X111291428Y-50135180D01*
X111291428Y-50135180D02*
X111529523Y-50135180D01*
X111529523Y-50135180D02*
X111624761Y-50182800D01*
X111624761Y-50182800D02*
X111672380Y-50278038D01*
X111672380Y-50278038D02*
X111672380Y-50373276D01*
X111672380Y-50373276D02*
X111624761Y-50468514D01*
X111624761Y-50468514D02*
X111529523Y-50516133D01*
X111529523Y-50516133D02*
X111291428Y-50516133D01*
X111291428Y-50516133D02*
X111196190Y-50563752D01*
X110291428Y-50135180D02*
X110291428Y-51135180D01*
X110291428Y-50182800D02*
X110386666Y-50135180D01*
X110386666Y-50135180D02*
X110577142Y-50135180D01*
X110577142Y-50135180D02*
X110672380Y-50182800D01*
X110672380Y-50182800D02*
X110719999Y-50230419D01*
X110719999Y-50230419D02*
X110767618Y-50325657D01*
X110767618Y-50325657D02*
X110767618Y-50611371D01*
X110767618Y-50611371D02*
X110719999Y-50706609D01*
X110719999Y-50706609D02*
X110672380Y-50754228D01*
X110672380Y-50754228D02*
X110577142Y-50801847D01*
X110577142Y-50801847D02*
X110386666Y-50801847D01*
X110386666Y-50801847D02*
X110291428Y-50754228D01*
X133140476Y-50025180D02*
X133616666Y-50025180D01*
X133616666Y-50025180D02*
X133616666Y-51025180D01*
X132235714Y-50120419D02*
X132283333Y-50072800D01*
X132283333Y-50072800D02*
X132426190Y-50025180D01*
X132426190Y-50025180D02*
X132521428Y-50025180D01*
X132521428Y-50025180D02*
X132664285Y-50072800D01*
X132664285Y-50072800D02*
X132759523Y-50168038D01*
X132759523Y-50168038D02*
X132807142Y-50263276D01*
X132807142Y-50263276D02*
X132854761Y-50453752D01*
X132854761Y-50453752D02*
X132854761Y-50596609D01*
X132854761Y-50596609D02*
X132807142Y-50787085D01*
X132807142Y-50787085D02*
X132759523Y-50882323D01*
X132759523Y-50882323D02*
X132664285Y-50977561D01*
X132664285Y-50977561D02*
X132521428Y-51025180D01*
X132521428Y-51025180D02*
X132426190Y-51025180D01*
X132426190Y-51025180D02*
X132283333Y-50977561D01*
X132283333Y-50977561D02*
X132235714Y-50929942D01*
X131807142Y-50025180D02*
X131807142Y-51025180D01*
X131807142Y-51025180D02*
X131569047Y-51025180D01*
X131569047Y-51025180D02*
X131426190Y-50977561D01*
X131426190Y-50977561D02*
X131330952Y-50882323D01*
X131330952Y-50882323D02*
X131283333Y-50787085D01*
X131283333Y-50787085D02*
X131235714Y-50596609D01*
X131235714Y-50596609D02*
X131235714Y-50453752D01*
X131235714Y-50453752D02*
X131283333Y-50263276D01*
X131283333Y-50263276D02*
X131330952Y-50168038D01*
X131330952Y-50168038D02*
X131426190Y-50072800D01*
X131426190Y-50072800D02*
X131569047Y-50025180D01*
X131569047Y-50025180D02*
X131807142Y-50025180D01*
X96226666Y-137904819D02*
X95750476Y-137904819D01*
X95750476Y-137904819D02*
X95750476Y-136904819D01*
X97036190Y-137904819D02*
X96560000Y-137904819D01*
X96560000Y-137904819D02*
X96560000Y-136904819D01*
X97321905Y-137857200D02*
X97464762Y-137904819D01*
X97464762Y-137904819D02*
X97702857Y-137904819D01*
X97702857Y-137904819D02*
X97798095Y-137857200D01*
X97798095Y-137857200D02*
X97845714Y-137809580D01*
X97845714Y-137809580D02*
X97893333Y-137714342D01*
X97893333Y-137714342D02*
X97893333Y-137619104D01*
X97893333Y-137619104D02*
X97845714Y-137523866D01*
X97845714Y-137523866D02*
X97798095Y-137476247D01*
X97798095Y-137476247D02*
X97702857Y-137428628D01*
X97702857Y-137428628D02*
X97512381Y-137381009D01*
X97512381Y-137381009D02*
X97417143Y-137333390D01*
X97417143Y-137333390D02*
X97369524Y-137285771D01*
X97369524Y-137285771D02*
X97321905Y-137190533D01*
X97321905Y-137190533D02*
X97321905Y-137095295D01*
X97321905Y-137095295D02*
X97369524Y-137000057D01*
X97369524Y-137000057D02*
X97417143Y-136952438D01*
X97417143Y-136952438D02*
X97512381Y-136904819D01*
X97512381Y-136904819D02*
X97750476Y-136904819D01*
X97750476Y-136904819D02*
X97893333Y-136952438D01*
X98321905Y-137904819D02*
X98321905Y-136904819D01*
X98798095Y-137904819D02*
X98798095Y-136904819D01*
X98798095Y-136904819D02*
X99369523Y-137904819D01*
X99369523Y-137904819D02*
X99369523Y-136904819D01*
D12*
X90964318Y-84876904D02*
X90359556Y-85300238D01*
X90964318Y-85602619D02*
X89694318Y-85602619D01*
X89694318Y-85602619D02*
X89694318Y-85118809D01*
X89694318Y-85118809D02*
X89754794Y-84997857D01*
X89754794Y-84997857D02*
X89815270Y-84937380D01*
X89815270Y-84937380D02*
X89936222Y-84876904D01*
X89936222Y-84876904D02*
X90117651Y-84876904D01*
X90117651Y-84876904D02*
X90238603Y-84937380D01*
X90238603Y-84937380D02*
X90299080Y-84997857D01*
X90299080Y-84997857D02*
X90359556Y-85118809D01*
X90359556Y-85118809D02*
X90359556Y-85602619D01*
X90601461Y-84393095D02*
X90601461Y-83788333D01*
X90964318Y-84514047D02*
X89694318Y-84090714D01*
X89694318Y-84090714D02*
X90964318Y-83667380D01*
X90964318Y-83244048D02*
X89694318Y-83244048D01*
X89694318Y-83244048D02*
X90601461Y-82820714D01*
X90601461Y-82820714D02*
X89694318Y-82397381D01*
X89694318Y-82397381D02*
X90964318Y-82397381D01*
D13*
X134685000Y-71251252D02*
X134685000Y-70728748D01*
X136155000Y-71251252D02*
X136155000Y-70728748D01*
X117148752Y-75115000D02*
X116626248Y-75115000D01*
X117148752Y-76585000D02*
X116626248Y-76585000D01*
D14*
X105730000Y-165100000D02*
X105730000Y-165100000D01*
X105830000Y-165100000D02*
X105830000Y-165100000D01*
X106340000Y-155100000D02*
X119340000Y-155100000D01*
X106340000Y-170600000D02*
X106340000Y-155100000D01*
X119340000Y-155100000D02*
X119340000Y-170600000D01*
X119340000Y-170600000D02*
X106340000Y-170600000D01*
X105730000Y-165100000D02*
G75*
G02*
X105830000Y-165100000I50000J0D01*
G01*
X105830000Y-165100000D02*
G75*
G02*
X105730000Y-165100000I-50000J0D01*
G01*
D13*
X126990000Y-91936252D02*
X126990000Y-91413748D01*
X128460000Y-91936252D02*
X128460000Y-91413748D01*
D15*
X107275000Y-130975000D02*
X107275000Y-131265000D01*
X107275000Y-130975000D02*
X107565000Y-130975000D01*
X107275000Y-137975000D02*
X107275000Y-137685000D01*
X107275000Y-137975000D02*
X107565000Y-137975000D01*
X114275000Y-130975000D02*
X113985000Y-130975000D01*
X114275000Y-130975000D02*
X114275000Y-131265000D01*
X114275000Y-137975000D02*
X113985000Y-137975000D01*
X114275000Y-137975000D02*
X114275000Y-137685000D01*
D16*
X104935000Y-131725000D02*
G75*
G02*
X104735000Y-131725000I-100000J0D01*
G01*
X104735000Y-131725000D02*
G75*
G02*
X104935000Y-131725000I100000J0D01*
G01*
D13*
X115515000Y-83263748D02*
X115515000Y-83786252D01*
X116985000Y-83263748D02*
X116985000Y-83786252D01*
D16*
X110300000Y-146850001D02*
X112474999Y-146850001D01*
X111500000Y-149949999D02*
X112474999Y-149949999D01*
D13*
X50238748Y-133565000D02*
X50761252Y-133565000D01*
X50238748Y-135035000D02*
X50761252Y-135035000D01*
X120865000Y-85338748D02*
X120865000Y-85861252D01*
X122335000Y-85338748D02*
X122335000Y-85861252D01*
X149500000Y-139630000D02*
X150830000Y-139630000D01*
X149500000Y-140960000D02*
X149500000Y-139630000D01*
X152100000Y-139630000D02*
X159780000Y-139630000D01*
X152100000Y-142290000D02*
X152100000Y-139630000D01*
X152100000Y-142290000D02*
X159780000Y-142290000D01*
X159780000Y-142290000D02*
X159780000Y-139630000D01*
X84020000Y-149410000D02*
X84020000Y-150115000D01*
X84020000Y-149410000D02*
X88260000Y-149410000D01*
X84020000Y-151445000D02*
X84020000Y-152150000D01*
X84020000Y-152150000D02*
X88260000Y-152150000D01*
X88260000Y-149410000D02*
X88260000Y-150115000D01*
X88260000Y-151445000D02*
X88260000Y-152150000D01*
X106415000Y-141363748D02*
X106415000Y-141886252D01*
X107885000Y-141363748D02*
X107885000Y-141886252D01*
D14*
X90530000Y-165175000D02*
X90530000Y-165175000D01*
X90630000Y-165175000D02*
X90630000Y-165175000D01*
D16*
X91140000Y-155175000D02*
X91140000Y-170675000D01*
X91140000Y-170675000D02*
X104140000Y-170675000D01*
X104140000Y-155175000D02*
X91140000Y-155175000D01*
X104140000Y-170675000D02*
X104140000Y-155175000D01*
D14*
X90530000Y-165175000D02*
G75*
G02*
X90630000Y-165175000I50000J0D01*
G01*
X90630000Y-165175000D02*
G75*
G02*
X90530000Y-165175000I-50000J0D01*
G01*
D13*
X68865000Y-131886252D02*
X68865000Y-131363748D01*
X70335000Y-131886252D02*
X70335000Y-131363748D01*
D17*
X131550800Y-135739539D02*
X131550800Y-138710461D01*
X131550800Y-140349200D02*
X137799200Y-140349200D01*
X137799200Y-134100800D02*
X131550800Y-134100800D01*
X137799200Y-138710461D02*
X137799200Y-135739539D01*
X136427600Y-137225000D02*
G75*
G02*
X132922400Y-137225000I-1752600J0D01*
G01*
X132922400Y-137225000D02*
G75*
G02*
X136427600Y-137225000I1752600J0D01*
G01*
D13*
X119890000Y-79513748D02*
X119890000Y-80036252D01*
X121360000Y-79513748D02*
X121360000Y-80036252D01*
X117161252Y-78015000D02*
X116638748Y-78015000D01*
X117161252Y-79485000D02*
X116638748Y-79485000D01*
D16*
X152170000Y-95015000D02*
X152170000Y-93715000D01*
X152220000Y-75665000D02*
X164620000Y-75665000D01*
X152220000Y-93365000D02*
X152220000Y-75665000D01*
X164620000Y-75665000D02*
X164620000Y-93365000D01*
X164620000Y-93365000D02*
X152220000Y-93365000D01*
D13*
X43465000Y-135550000D02*
X42985000Y-135550000D01*
X43225000Y-135220000D01*
X43465000Y-135550000D01*
G36*
X43465000Y-135550000D02*
G01*
X42985000Y-135550000D01*
X43225000Y-135220000D01*
X43465000Y-135550000D01*
G37*
X48235000Y-131360000D02*
X48235000Y-133560000D01*
X48235000Y-131360000D02*
X48235000Y-129160000D01*
X42765000Y-131360000D02*
X42765000Y-133560000D01*
X42765000Y-131360000D02*
X42765000Y-129160000D01*
D17*
X167759149Y-120351000D02*
X167759149Y-130815800D01*
X167759149Y-130815800D02*
X173855149Y-130815800D01*
X173855149Y-120351000D02*
X167759149Y-120351000D01*
X173855149Y-126015437D02*
X173855149Y-120351000D01*
X173855149Y-130815800D02*
X173855149Y-127691363D01*
D18*
X171567150Y-119716000D02*
G75*
G02*
X170805150Y-119716000I-381000J0D01*
G01*
X170805150Y-119716000D02*
G75*
G02*
X171567150Y-119716000I381000J0D01*
G01*
D13*
X120044113Y-151684000D02*
X120044113Y-151116000D01*
X120084113Y-151918000D02*
X120084113Y-150882000D01*
X120124113Y-152077000D02*
X120124113Y-150723000D01*
X120164113Y-152205000D02*
X120164113Y-150595000D01*
X120204113Y-152315000D02*
X120204113Y-150485000D01*
X120244113Y-152411000D02*
X120244113Y-150389000D01*
X120284113Y-152498000D02*
X120284113Y-150302000D01*
X120324113Y-152578000D02*
X120324113Y-150222000D01*
X120364113Y-152651000D02*
X120364113Y-150149000D01*
X120404113Y-152719000D02*
X120404113Y-150081000D01*
X120444113Y-152783000D02*
X120444113Y-150017000D01*
X120484113Y-152843000D02*
X120484113Y-149957000D01*
X120524113Y-152900000D02*
X120524113Y-149900000D01*
X120564113Y-152954000D02*
X120564113Y-149846000D01*
X120604113Y-153005000D02*
X120604113Y-149795000D01*
X120644113Y-150360000D02*
X120644113Y-149747000D01*
X120644113Y-153053000D02*
X120644113Y-152440000D01*
X120684113Y-150360000D02*
X120684113Y-149701000D01*
X120684113Y-153099000D02*
X120684113Y-152440000D01*
X120724113Y-150360000D02*
X120724113Y-149657000D01*
X120724113Y-153143000D02*
X120724113Y-152440000D01*
X120764113Y-150360000D02*
X120764113Y-149615000D01*
X120764113Y-153185000D02*
X120764113Y-152440000D01*
X120804113Y-150360000D02*
X120804113Y-149574000D01*
X120804113Y-153226000D02*
X120804113Y-152440000D01*
X120844113Y-150360000D02*
X120844113Y-149536000D01*
X120844113Y-153264000D02*
X120844113Y-152440000D01*
X120884113Y-150360000D02*
X120884113Y-149499000D01*
X120884113Y-153301000D02*
X120884113Y-152440000D01*
X120924113Y-150360000D02*
X120924113Y-149463000D01*
X120924113Y-153337000D02*
X120924113Y-152440000D01*
X120964113Y-150360000D02*
X120964113Y-149429000D01*
X120964113Y-153371000D02*
X120964113Y-152440000D01*
X121004113Y-150360000D02*
X121004113Y-149396000D01*
X121004113Y-153404000D02*
X121004113Y-152440000D01*
X121044113Y-150360000D02*
X121044113Y-149365000D01*
X121044113Y-153435000D02*
X121044113Y-152440000D01*
X121084113Y-150360000D02*
X121084113Y-149335000D01*
X121084113Y-153465000D02*
X121084113Y-152440000D01*
X121124113Y-150360000D02*
X121124113Y-149305000D01*
X121124113Y-153495000D02*
X121124113Y-152440000D01*
X121164113Y-150360000D02*
X121164113Y-149278000D01*
X121164113Y-153522000D02*
X121164113Y-152440000D01*
X121204113Y-150360000D02*
X121204113Y-149251000D01*
X121204113Y-153549000D02*
X121204113Y-152440000D01*
X121244113Y-150360000D02*
X121244113Y-149225000D01*
X121244113Y-153575000D02*
X121244113Y-152440000D01*
X121284113Y-150360000D02*
X121284113Y-149200000D01*
X121284113Y-153600000D02*
X121284113Y-152440000D01*
X121324113Y-150360000D02*
X121324113Y-149176000D01*
X121324113Y-153624000D02*
X121324113Y-152440000D01*
X121364113Y-150360000D02*
X121364113Y-149153000D01*
X121364113Y-153647000D02*
X121364113Y-152440000D01*
X121404113Y-150360000D02*
X121404113Y-149132000D01*
X121404113Y-153668000D02*
X121404113Y-152440000D01*
X121444113Y-150360000D02*
X121444113Y-149110000D01*
X121444113Y-153690000D02*
X121444113Y-152440000D01*
X121484113Y-150360000D02*
X121484113Y-149090000D01*
X121484113Y-153710000D02*
X121484113Y-152440000D01*
X121524113Y-150360000D02*
X121524113Y-149071000D01*
X121524113Y-153729000D02*
X121524113Y-152440000D01*
X121564113Y-150360000D02*
X121564113Y-149052000D01*
X121564113Y-153748000D02*
X121564113Y-152440000D01*
X121604113Y-150360000D02*
X121604113Y-149035000D01*
X121604113Y-153765000D02*
X121604113Y-152440000D01*
X121644113Y-150360000D02*
X121644113Y-149018000D01*
X121644113Y-153782000D02*
X121644113Y-152440000D01*
X121684113Y-150360000D02*
X121684113Y-149002000D01*
X121684113Y-153798000D02*
X121684113Y-152440000D01*
X121724113Y-150360000D02*
X121724113Y-148986000D01*
X121724113Y-153814000D02*
X121724113Y-152440000D01*
X121764113Y-150360000D02*
X121764113Y-148972000D01*
X121764113Y-153828000D02*
X121764113Y-152440000D01*
X121804113Y-150360000D02*
X121804113Y-148958000D01*
X121804113Y-153842000D02*
X121804113Y-152440000D01*
X121844113Y-150360000D02*
X121844113Y-148945000D01*
X121844113Y-153855000D02*
X121844113Y-152440000D01*
X121884113Y-150360000D02*
X121884113Y-148932000D01*
X121884113Y-153868000D02*
X121884113Y-152440000D01*
X121924113Y-150360000D02*
X121924113Y-148920000D01*
X121924113Y-153880000D02*
X121924113Y-152440000D01*
X121965113Y-150360000D02*
X121965113Y-148909000D01*
X121965113Y-153891000D02*
X121965113Y-152440000D01*
X122005113Y-150360000D02*
X122005113Y-148899000D01*
X122005113Y-153901000D02*
X122005113Y-152440000D01*
X122045113Y-150360000D02*
X122045113Y-148889000D01*
X122045113Y-153911000D02*
X122045113Y-152440000D01*
X122085113Y-150360000D02*
X122085113Y-148880000D01*
X122085113Y-153920000D02*
X122085113Y-152440000D01*
X122125113Y-150360000D02*
X122125113Y-148872000D01*
X122125113Y-153928000D02*
X122125113Y-152440000D01*
X122165113Y-150360000D02*
X122165113Y-148864000D01*
X122165113Y-153936000D02*
X122165113Y-152440000D01*
X122205113Y-150360000D02*
X122205113Y-148857000D01*
X122205113Y-153943000D02*
X122205113Y-152440000D01*
X122245113Y-150360000D02*
X122245113Y-148850000D01*
X122245113Y-153950000D02*
X122245113Y-152440000D01*
X122285113Y-150360000D02*
X122285113Y-148844000D01*
X122285113Y-153956000D02*
X122285113Y-152440000D01*
X122325113Y-150360000D02*
X122325113Y-148839000D01*
X122325113Y-153961000D02*
X122325113Y-152440000D01*
X122365113Y-150360000D02*
X122365113Y-148835000D01*
X122365113Y-153965000D02*
X122365113Y-152440000D01*
X122405113Y-150360000D02*
X122405113Y-148831000D01*
X122405113Y-153969000D02*
X122405113Y-152440000D01*
X122445113Y-150360000D02*
X122445113Y-148827000D01*
X122445113Y-153973000D02*
X122445113Y-152440000D01*
X122485113Y-150360000D02*
X122485113Y-148824000D01*
X122485113Y-153976000D02*
X122485113Y-152440000D01*
X122525113Y-150360000D02*
X122525113Y-148822000D01*
X122525113Y-153978000D02*
X122525113Y-152440000D01*
X122565113Y-150360000D02*
X122565113Y-148821000D01*
X122565113Y-153979000D02*
X122565113Y-152440000D01*
X122605113Y-150360000D02*
X122605113Y-148820000D01*
X122605113Y-153980000D02*
X122605113Y-152440000D01*
X122645113Y-150360000D02*
X122645113Y-148820000D01*
X122645113Y-153980000D02*
X122645113Y-152440000D01*
X125199888Y-153125000D02*
X125199888Y-152625000D01*
X125449888Y-152875000D02*
X124949888Y-152875000D01*
X125265113Y-151400000D02*
G75*
G02*
X120025113Y-151400000I-2620000J0D01*
G01*
X120025113Y-151400000D02*
G75*
G02*
X125265113Y-151400000I2620000J0D01*
G01*
X126815000Y-85461252D02*
X126815000Y-84938748D01*
X128285000Y-85461252D02*
X128285000Y-84938748D01*
X122788748Y-90565000D02*
X123311252Y-90565000D01*
X122788748Y-92035000D02*
X123311252Y-92035000D01*
D16*
X123550000Y-163825000D02*
X123550000Y-165825000D01*
X123550000Y-169350000D02*
X123550000Y-170575000D01*
X123550000Y-170575000D02*
X131250000Y-170575000D01*
D14*
X125800000Y-160425000D02*
X125800000Y-160425000D01*
X125800000Y-160525000D02*
X125800000Y-160525000D01*
D16*
X131250000Y-163825000D02*
X131250000Y-165825000D01*
X131250000Y-170575000D02*
X131250000Y-169350000D01*
D14*
X125800000Y-160425000D02*
G75*
G02*
X125800000Y-160525000I0J-50000D01*
G01*
X125800000Y-160525000D02*
G75*
G02*
X125800000Y-160425000I0J50000D01*
G01*
D13*
X102741248Y-95935000D02*
X103263752Y-95935000D01*
X102741248Y-97405000D02*
X103263752Y-97405000D01*
X97530000Y-148393748D02*
X97530000Y-151166252D01*
X100950000Y-148393748D02*
X100950000Y-151166252D01*
X122727500Y-134204724D02*
X122727500Y-133695276D01*
X123772500Y-134204724D02*
X123772500Y-133695276D01*
X126790000Y-80211252D02*
X126790000Y-79688748D01*
X128260000Y-80211252D02*
X128260000Y-79688748D01*
X44327500Y-124504724D02*
X44327500Y-123995276D01*
X45372500Y-124504724D02*
X45372500Y-123995276D01*
D17*
X75143978Y-134664300D02*
X79206022Y-134664300D01*
X79206022Y-129355700D02*
X75143978Y-129355700D01*
D19*
G36*
X73263400Y-130575535D02*
G01*
X73009400Y-130575535D01*
X73009400Y-130194535D01*
X73263400Y-130194535D01*
X73263400Y-130575535D01*
G37*
D13*
X39936252Y-133540000D02*
X39413748Y-133540000D01*
X39936252Y-135010000D02*
X39413748Y-135010000D01*
D17*
X118653800Y-135917200D02*
X118653800Y-140082800D01*
X118653800Y-140082800D02*
X127696200Y-140082800D01*
X127696200Y-135917200D02*
X118653800Y-135917200D01*
X127696200Y-140082800D02*
X127696200Y-135917200D01*
D13*
X115565000Y-87836252D02*
X115565000Y-87313748D01*
X117035000Y-87836252D02*
X117035000Y-87313748D01*
D14*
X30825000Y-160225000D02*
X30825000Y-160225000D01*
X30925000Y-160225000D02*
X30925000Y-160225000D01*
D16*
X32025000Y-153475000D02*
X59025000Y-153475000D01*
X32025000Y-156975000D02*
X32025000Y-153475000D01*
X32025000Y-166975000D02*
X32025000Y-163475000D01*
X43525000Y-168475000D02*
X43525000Y-166975000D01*
X47525000Y-166975000D02*
X47525000Y-168475000D01*
X47525000Y-168475000D02*
X47525000Y-168475000D01*
X59025000Y-153475000D02*
X59025000Y-166975000D01*
X59025000Y-166975000D02*
X32025000Y-166975000D01*
D14*
X30825000Y-160225000D02*
G75*
G02*
X30925000Y-160225000I50000J0D01*
G01*
X30925000Y-160225000D02*
G75*
G02*
X30825000Y-160225000I-50000J0D01*
G01*
D16*
X47525000Y-168475000D02*
G75*
G02*
X43525000Y-168475000I-2000000J0D01*
G01*
D13*
X111340000Y-78661252D02*
X111340000Y-78138748D01*
X112810000Y-78661252D02*
X112810000Y-78138748D01*
D14*
X60650000Y-160250000D02*
X60650000Y-160250000D01*
X60750000Y-160250000D02*
X60750000Y-160250000D01*
D16*
X61850000Y-153500000D02*
X88850000Y-153500000D01*
X61850000Y-157000000D02*
X61850000Y-153500000D01*
X61850000Y-167000000D02*
X61850000Y-163500000D01*
X73350000Y-168500000D02*
X73350000Y-167000000D01*
X77350000Y-167000000D02*
X77350000Y-168500000D01*
X77350000Y-168500000D02*
X77350000Y-168500000D01*
X88850000Y-153500000D02*
X88850000Y-167000000D01*
X88850000Y-167000000D02*
X61850000Y-167000000D01*
D14*
X60650000Y-160250000D02*
G75*
G02*
X60750000Y-160250000I50000J0D01*
G01*
X60750000Y-160250000D02*
G75*
G02*
X60650000Y-160250000I-50000J0D01*
G01*
D16*
X77350000Y-168500000D02*
G75*
G02*
X73350000Y-168500000I-2000000J0D01*
G01*
D13*
X68661252Y-133890000D02*
X68138748Y-133890000D01*
X68661252Y-135360000D02*
X68138748Y-135360000D01*
X117788748Y-90790000D02*
X118311252Y-90790000D01*
X117788748Y-92260000D02*
X118311252Y-92260000D01*
X43840000Y-120936252D02*
X43840000Y-120413748D01*
X45310000Y-120936252D02*
X45310000Y-120413748D01*
X111315000Y-87061252D02*
X111315000Y-86538748D01*
X112785000Y-87061252D02*
X112785000Y-86538748D01*
X111315000Y-90488748D02*
X111315000Y-91011252D01*
X112785000Y-90488748D02*
X112785000Y-91011252D01*
X115538748Y-144665000D02*
X116061252Y-144665000D01*
X115538748Y-146135000D02*
X116061252Y-146135000D01*
X62360000Y-149835000D02*
X62360000Y-149130000D01*
X62360000Y-151870000D02*
X62360000Y-151165000D01*
X66600000Y-149130000D02*
X62360000Y-149130000D01*
X66600000Y-149835000D02*
X66600000Y-149130000D01*
X66600000Y-151870000D02*
X62360000Y-151870000D01*
X66600000Y-151870000D02*
X66600000Y-151165000D01*
X123711252Y-75090000D02*
X123188748Y-75090000D01*
X123711252Y-76560000D02*
X123188748Y-76560000D01*
X86300000Y-49120000D02*
X86300000Y-51780000D01*
X106680000Y-49120000D02*
X86300000Y-49120000D01*
X106680000Y-49120000D02*
X106680000Y-51780000D01*
X106680000Y-51780000D02*
X86300000Y-51780000D01*
X109280000Y-50450000D02*
X109280000Y-51780000D01*
X109280000Y-51780000D02*
X107950000Y-51780000D01*
X120450000Y-49120000D02*
X120450000Y-51780000D01*
X128130000Y-49120000D02*
X120450000Y-49120000D01*
X128130000Y-49120000D02*
X128130000Y-51780000D01*
X128130000Y-51780000D02*
X120450000Y-51780000D01*
X130730000Y-50450000D02*
X130730000Y-51780000D01*
X130730000Y-51780000D02*
X129400000Y-51780000D01*
D16*
X99325000Y-138500001D02*
X98350001Y-138500001D01*
X100525000Y-141599999D02*
X98350001Y-141599999D01*
X66990000Y-79633000D02*
X89210000Y-79633000D01*
X66990000Y-89093000D02*
X66990000Y-79633000D01*
X67050000Y-90738000D02*
X67050000Y-89443000D01*
X89210000Y-79633000D02*
X89210000Y-89093000D01*
X89210000Y-89093000D02*
X66990000Y-89093000D01*
D13*
X128461252Y-54085000D02*
X127938748Y-54085000D01*
X128461252Y-52615000D02*
X127938748Y-52615000D01*
X122685000Y-157501252D02*
X122685000Y-156978748D01*
X124155000Y-157501252D02*
X124155000Y-156978748D01*
X132963748Y-131315000D02*
X133486252Y-131315000D01*
X132963748Y-132785000D02*
X133486252Y-132785000D01*
X153371150Y-123040780D02*
X159831150Y-123040780D01*
X153371150Y-123080780D02*
X159831150Y-123080780D01*
X153371150Y-123120780D02*
X159831150Y-123120780D01*
X153373150Y-123000780D02*
X159829150Y-123000780D01*
X153374150Y-122960780D02*
X159828150Y-122960780D01*
X153377150Y-122920780D02*
X159825150Y-122920780D01*
X157641150Y-122880780D02*
X159823150Y-122880780D01*
X157641150Y-122840780D02*
X159819150Y-122840780D01*
X157641150Y-122800780D02*
X159816150Y-122800780D01*
X157641150Y-122760780D02*
X159812150Y-122760780D01*
X157641150Y-122720780D02*
X159807150Y-122720780D01*
X157641150Y-122680780D02*
X159802150Y-122680780D01*
X157641150Y-122640780D02*
X159796150Y-122640780D01*
X157641150Y-122600780D02*
X159790150Y-122600780D01*
X157641150Y-122560780D02*
X159783150Y-122560780D01*
X157641150Y-122520780D02*
X159776150Y-122520780D01*
X157641150Y-122480780D02*
X159768150Y-122480780D01*
X157641150Y-122440780D02*
X159760150Y-122440780D01*
X157641150Y-122399780D02*
X159751150Y-122399780D01*
X157641150Y-122359780D02*
X159742150Y-122359780D01*
X157641150Y-122319780D02*
X159732150Y-122319780D01*
X157641150Y-122279780D02*
X159722150Y-122279780D01*
X157641150Y-122239780D02*
X159711150Y-122239780D01*
X157641150Y-122199780D02*
X159699150Y-122199780D01*
X157641150Y-122159780D02*
X159687150Y-122159780D01*
X157641150Y-122119780D02*
X159675150Y-122119780D01*
X157641150Y-122079780D02*
X159662150Y-122079780D01*
X157641150Y-122039780D02*
X159648150Y-122039780D01*
X157641150Y-121999780D02*
X159634150Y-121999780D01*
X157641150Y-121959780D02*
X159619150Y-121959780D01*
X157641150Y-121919780D02*
X159603150Y-121919780D01*
X157641150Y-121879780D02*
X159587150Y-121879780D01*
X157641150Y-121839780D02*
X159571150Y-121839780D01*
X157641150Y-121799780D02*
X159553150Y-121799780D01*
X157641150Y-121759780D02*
X159535150Y-121759780D01*
X157641150Y-121719780D02*
X159517150Y-121719780D01*
X157641150Y-121679780D02*
X159497150Y-121679780D01*
X157641150Y-121639780D02*
X159477150Y-121639780D01*
X157641150Y-121599780D02*
X159457150Y-121599780D01*
X157641150Y-121559780D02*
X159435150Y-121559780D01*
X157641150Y-121519780D02*
X159413150Y-121519780D01*
X157641150Y-121479780D02*
X159391150Y-121479780D01*
X157641150Y-121439780D02*
X159367150Y-121439780D01*
X157641150Y-121399780D02*
X159343150Y-121399780D01*
X157641150Y-121359780D02*
X159317150Y-121359780D01*
X157641150Y-121319780D02*
X159291150Y-121319780D01*
X157641150Y-121279780D02*
X159265150Y-121279780D01*
X157641150Y-121239780D02*
X159237150Y-121239780D01*
X157641150Y-121199780D02*
X159208150Y-121199780D01*
X157641150Y-121159780D02*
X159179150Y-121159780D01*
X157641150Y-121119780D02*
X159149150Y-121119780D01*
X157641150Y-121079780D02*
X159117150Y-121079780D01*
X157641150Y-121039780D02*
X159085150Y-121039780D01*
X157641150Y-120999780D02*
X159051150Y-120999780D01*
X157641150Y-120959780D02*
X159017150Y-120959780D01*
X157641150Y-120919780D02*
X158981150Y-120919780D01*
X157641150Y-120879780D02*
X158944150Y-120879780D01*
X157641150Y-120839780D02*
X158906150Y-120839780D01*
X154336150Y-120799780D02*
X158866150Y-120799780D01*
X154377150Y-120759780D02*
X158825150Y-120759780D01*
X154419150Y-120719780D02*
X158783150Y-120719780D01*
X154464150Y-120679780D02*
X158738150Y-120679780D01*
X154509150Y-120639780D02*
X158693150Y-120639780D01*
X154557150Y-120599780D02*
X158645150Y-120599780D01*
X154606150Y-120559780D02*
X158596150Y-120559780D01*
X154657150Y-120519780D02*
X158545150Y-120519780D01*
X154711150Y-120479780D02*
X158491150Y-120479780D01*
X154767150Y-120439780D02*
X158435150Y-120439780D01*
X154825150Y-120399780D02*
X158377150Y-120399780D01*
X154887150Y-120359780D02*
X158315150Y-120359780D01*
X154951150Y-120319780D02*
X158251150Y-120319780D01*
X155020150Y-120279780D02*
X158182150Y-120279780D01*
X155092150Y-120239780D02*
X158110150Y-120239780D01*
X155169150Y-120199780D02*
X158033150Y-120199780D01*
X155251150Y-120159780D02*
X157951150Y-120159780D01*
X155339150Y-120119780D02*
X157863150Y-120119780D01*
X155436150Y-120079780D02*
X157766150Y-120079780D01*
X155542150Y-120039780D02*
X157660150Y-120039780D01*
X155661150Y-119999780D02*
X157541150Y-119999780D01*
X155799150Y-119959780D02*
X157403150Y-119959780D01*
X155968150Y-119919780D02*
X157234150Y-119919780D01*
X156199150Y-119879780D02*
X157003150Y-119879780D01*
X154296150Y-120839780D02*
X155561150Y-120839780D01*
X154258150Y-120879780D02*
X155561150Y-120879780D01*
X154221150Y-120919780D02*
X155561150Y-120919780D01*
X154185150Y-120959780D02*
X155561150Y-120959780D01*
X154151150Y-120999780D02*
X155561150Y-120999780D01*
X154117150Y-121039780D02*
X155561150Y-121039780D01*
X154085150Y-121079780D02*
X155561150Y-121079780D01*
X154053150Y-121119780D02*
X155561150Y-121119780D01*
X154023150Y-121159780D02*
X155561150Y-121159780D01*
X153994150Y-121199780D02*
X155561150Y-121199780D01*
X153965150Y-121239780D02*
X155561150Y-121239780D01*
X153937150Y-121279780D02*
X155561150Y-121279780D01*
X153911150Y-121319780D02*
X155561150Y-121319780D01*
X153885150Y-121359780D02*
X155561150Y-121359780D01*
X153859150Y-121399780D02*
X155561150Y-121399780D01*
X153835150Y-121439780D02*
X155561150Y-121439780D01*
X153811150Y-121479780D02*
X155561150Y-121479780D01*
X153789150Y-121519780D02*
X155561150Y-121519780D01*
X153767150Y-121559780D02*
X155561150Y-121559780D01*
X153745150Y-121599780D02*
X155561150Y-121599780D01*
X153725150Y-121639780D02*
X155561150Y-121639780D01*
X153705150Y-121679780D02*
X155561150Y-121679780D01*
X153685150Y-121719780D02*
X155561150Y-121719780D01*
X153667150Y-121759780D02*
X155561150Y-121759780D01*
X153649150Y-121799780D02*
X155561150Y-121799780D01*
X153631150Y-121839780D02*
X155561150Y-121839780D01*
X153615150Y-121879780D02*
X155561150Y-121879780D01*
X153599150Y-121919780D02*
X155561150Y-121919780D01*
X153583150Y-121959780D02*
X155561150Y-121959780D01*
X153568150Y-121999780D02*
X155561150Y-121999780D01*
X153554150Y-122039780D02*
X155561150Y-122039780D01*
X153540150Y-122079780D02*
X155561150Y-122079780D01*
X153527150Y-122119780D02*
X155561150Y-122119780D01*
X153515150Y-122159780D02*
X155561150Y-122159780D01*
X153503150Y-122199780D02*
X155561150Y-122199780D01*
X153491150Y-122239780D02*
X155561150Y-122239780D01*
X153480150Y-122279780D02*
X155561150Y-122279780D01*
X153470150Y-122319780D02*
X155561150Y-122319780D01*
X153460150Y-122359780D02*
X155561150Y-122359780D01*
X153451150Y-122399780D02*
X155561150Y-122399780D01*
X153442150Y-122440780D02*
X155561150Y-122440780D01*
X153434150Y-122480780D02*
X155561150Y-122480780D01*
X153426150Y-122520780D02*
X155561150Y-122520780D01*
X153419150Y-122560780D02*
X155561150Y-122560780D01*
X153412150Y-122600780D02*
X155561150Y-122600780D01*
X153406150Y-122640780D02*
X155561150Y-122640780D01*
X153400150Y-122680780D02*
X155561150Y-122680780D01*
X153395150Y-122720780D02*
X155561150Y-122720780D01*
X153390150Y-122760780D02*
X155561150Y-122760780D01*
X153386150Y-122800780D02*
X155561150Y-122800780D01*
X153383150Y-122840780D02*
X155561150Y-122840780D01*
X153379150Y-122880780D02*
X155561150Y-122880780D01*
X154447150Y-126306021D02*
X155077150Y-126306021D01*
X154762150Y-126621021D02*
X154762150Y-125991021D01*
X159871150Y-123120780D02*
G75*
G02*
X153331150Y-123120780I-3270000J0D01*
G01*
X153331150Y-123120780D02*
G75*
G02*
X159871150Y-123120780I3270000J0D01*
G01*
D20*
X173346150Y-126853400D03*
D21*
X125200000Y-164675000D03*
X129600000Y-164675000D03*
%LPC*%
D22*
X135420000Y-72027500D03*
X135420000Y-69952500D03*
D23*
X117925000Y-75850000D03*
X115850000Y-75850000D03*
D24*
X109030000Y-165100000D03*
X111570000Y-165100000D03*
X114110000Y-165100000D03*
X116650000Y-165100000D03*
D25*
X118040000Y-160900000D03*
X107640000Y-160900000D03*
D22*
X127725000Y-92712500D03*
X127725000Y-90637500D03*
D26*
X106595000Y-131725000D03*
X106595000Y-132225000D03*
X106595000Y-132725000D03*
X106595000Y-133225000D03*
X106595000Y-133725000D03*
X106595000Y-134225000D03*
X106595000Y-134725000D03*
X106595000Y-135225000D03*
X106595000Y-135725000D03*
X106595000Y-136225000D03*
X106595000Y-136725000D03*
X106595000Y-137225000D03*
D27*
X108025000Y-138655000D03*
X108525000Y-138655000D03*
X109025000Y-138655000D03*
X109525000Y-138655000D03*
X110025000Y-138655000D03*
X110525000Y-138655000D03*
X111025000Y-138655000D03*
X111525000Y-138655000D03*
X112025000Y-138655000D03*
X112525000Y-138655000D03*
X113025000Y-138655000D03*
X113525000Y-138655000D03*
D26*
X114955000Y-137225000D03*
X114955000Y-136725000D03*
X114955000Y-136225000D03*
X114955000Y-135725000D03*
X114955000Y-135225000D03*
X114955000Y-134725000D03*
X114955000Y-134225000D03*
X114955000Y-133725000D03*
X114955000Y-133225000D03*
X114955000Y-132725000D03*
X114955000Y-132225000D03*
X114955000Y-131725000D03*
D27*
X113525000Y-130295000D03*
X113025000Y-130295000D03*
X112525000Y-130295000D03*
X112025000Y-130295000D03*
X111525000Y-130295000D03*
X111025000Y-130295000D03*
X110525000Y-130295000D03*
X110025000Y-130295000D03*
X109525000Y-130295000D03*
X109025000Y-130295000D03*
X108525000Y-130295000D03*
X108025000Y-130295000D03*
D28*
X116250000Y-82487500D03*
X116250000Y-84562500D03*
D29*
X110775000Y-147449999D03*
X110775000Y-148400000D03*
X110775000Y-149349998D03*
X113175000Y-149349998D03*
X113175000Y-148400000D03*
X113175000Y-147449999D03*
D30*
X49462500Y-134300000D03*
X51537500Y-134300000D03*
D28*
X121600000Y-84562500D03*
X121600000Y-86637500D03*
D31*
X150830000Y-140960000D03*
D32*
X153370000Y-140960000D03*
X155910000Y-140960000D03*
X158450000Y-140960000D03*
D33*
X84890000Y-150780000D03*
X87390000Y-150780000D03*
D28*
X107150000Y-140587500D03*
X107150000Y-142662500D03*
D24*
X93830000Y-165175000D03*
X96370000Y-165175000D03*
X98910000Y-165175000D03*
X101450000Y-165175000D03*
D25*
X92440000Y-160975000D03*
X102840000Y-160975000D03*
D22*
X69600000Y-132662500D03*
X69600000Y-130587500D03*
D34*
X130928500Y-134974999D03*
X138421500Y-134974999D03*
X130928500Y-139475001D03*
X138421500Y-139475001D03*
D28*
X120625000Y-78737500D03*
X120625000Y-80812500D03*
D23*
X117937500Y-78750000D03*
X115862500Y-78750000D03*
D35*
X152670000Y-94365000D03*
X153170000Y-94365000D03*
X153670000Y-94365000D03*
X154170000Y-94365000D03*
X154670000Y-94365000D03*
X155170000Y-94365000D03*
X155670000Y-94365000D03*
X156170000Y-94365000D03*
X156670000Y-94365000D03*
X157170000Y-94365000D03*
X157670000Y-94365000D03*
X158170000Y-94365000D03*
X158670000Y-94365000D03*
X159170000Y-94365000D03*
X159670000Y-94365000D03*
X160170000Y-94365000D03*
X160670000Y-94365000D03*
X161170000Y-94365000D03*
X161670000Y-94365000D03*
X162170000Y-94365000D03*
X162670000Y-94365000D03*
X163170000Y-94365000D03*
X163670000Y-94365000D03*
X164170000Y-94365000D03*
X164170000Y-74665000D03*
X163670000Y-74665000D03*
X163170000Y-74665000D03*
X162670000Y-74665000D03*
X162170000Y-74665000D03*
X161670000Y-74665000D03*
X161170000Y-74665000D03*
X160670000Y-74665000D03*
X160170000Y-74665000D03*
X159670000Y-74665000D03*
X159170000Y-74665000D03*
X158670000Y-74665000D03*
X158170000Y-74665000D03*
X157670000Y-74665000D03*
X157170000Y-74665000D03*
X156670000Y-74665000D03*
X156170000Y-74665000D03*
X155670000Y-74665000D03*
X155170000Y-74665000D03*
X154670000Y-74665000D03*
X154170000Y-74665000D03*
X153670000Y-74665000D03*
X153170000Y-74665000D03*
X152670000Y-74665000D03*
D36*
X43225000Y-128497500D03*
X43875000Y-128497500D03*
X44525000Y-128497500D03*
X45175000Y-128497500D03*
X45825000Y-128497500D03*
X46475000Y-128497500D03*
X47125000Y-128497500D03*
X47775000Y-128497500D03*
X47775000Y-134222500D03*
X47125000Y-134222500D03*
X46475000Y-134222500D03*
X45825000Y-134222500D03*
X45175000Y-134222500D03*
X44525000Y-134222500D03*
X43875000Y-134222500D03*
X43225000Y-134222500D03*
D37*
X171186150Y-121773400D03*
X171186150Y-124313400D03*
X171186150Y-126853400D03*
X171186150Y-129393400D03*
D38*
X123645113Y-151400000D03*
D33*
X121645113Y-151400000D03*
D22*
X127550000Y-86237500D03*
X127550000Y-84162500D03*
D30*
X122012500Y-91300000D03*
X124087500Y-91300000D03*
D39*
X125800000Y-162000000D03*
X126600000Y-162000000D03*
X127400000Y-162000000D03*
X128200000Y-162000000D03*
X129000000Y-162000000D03*
D40*
X122950000Y-162125000D03*
X131850000Y-162125000D03*
X122950000Y-167625000D03*
X131850000Y-167625000D03*
D30*
X101965000Y-96670000D03*
X104040000Y-96670000D03*
D41*
X99240000Y-147555000D03*
X99240000Y-152005000D03*
D42*
X123250000Y-134862500D03*
X123250000Y-133037500D03*
D22*
X127525000Y-80987500D03*
X127525000Y-78912500D03*
D42*
X44850000Y-125162500D03*
X44850000Y-123337500D03*
D43*
X80127750Y-134284951D03*
X80127750Y-133634965D03*
X80127750Y-132984979D03*
X80127750Y-132334993D03*
X80127750Y-131685007D03*
X80127750Y-131035021D03*
X80127750Y-130385035D03*
X80127750Y-129735049D03*
X74222250Y-129735049D03*
X74222250Y-130385035D03*
X74222250Y-131035021D03*
X74222250Y-131685007D03*
X74222250Y-132334993D03*
X74222250Y-132984979D03*
X74222250Y-133634965D03*
X74222250Y-134284951D03*
D23*
X40712500Y-134275000D03*
X38637500Y-134275000D03*
D44*
X120675000Y-138000000D03*
D45*
X123175000Y-138000000D03*
X125675000Y-138000000D03*
D22*
X116300000Y-88612500D03*
X116300000Y-86537500D03*
D46*
X33225000Y-160225000D03*
D47*
X38525000Y-160225000D03*
X52525000Y-160225000D03*
D22*
X112075000Y-79437500D03*
X112075000Y-77362500D03*
D46*
X63050000Y-160250000D03*
D47*
X68350000Y-160250000D03*
X82350000Y-160250000D03*
D23*
X69437500Y-134625000D03*
X67362500Y-134625000D03*
D30*
X117012500Y-91525000D03*
X119087500Y-91525000D03*
D22*
X44575000Y-121712500D03*
X44575000Y-119637500D03*
X112050000Y-87837500D03*
X112050000Y-85762500D03*
D28*
X112050000Y-89712500D03*
X112050000Y-91787500D03*
D30*
X114762500Y-145400000D03*
X116837500Y-145400000D03*
D33*
X65730000Y-150500000D03*
X63230000Y-150500000D03*
D23*
X124487500Y-75825000D03*
X122412500Y-75825000D03*
D31*
X107950000Y-50450000D03*
D32*
X105410000Y-50450000D03*
X102870000Y-50450000D03*
X100330000Y-50450000D03*
X97790000Y-50450000D03*
X95250000Y-50450000D03*
X92710000Y-50450000D03*
X90170000Y-50450000D03*
X87630000Y-50450000D03*
D31*
X129400000Y-50450000D03*
D32*
X126860000Y-50450000D03*
X124320000Y-50450000D03*
X121780000Y-50450000D03*
D29*
X100050000Y-141000001D03*
X100050000Y-140050000D03*
X100050000Y-139100002D03*
X97650000Y-139100002D03*
X97650000Y-140050000D03*
X97650000Y-141000001D03*
D48*
X67700000Y-90091000D03*
X68500000Y-90091000D03*
X69300000Y-90091000D03*
X70100000Y-90091000D03*
X70900000Y-90091000D03*
X71700000Y-90091000D03*
X72500000Y-90091000D03*
X73300000Y-90091000D03*
X74100000Y-90091000D03*
X74900000Y-90091000D03*
X75700000Y-90091000D03*
X76500000Y-90091000D03*
X77300000Y-90091000D03*
X78100000Y-90091000D03*
X78900000Y-90091000D03*
X79700000Y-90091000D03*
X80500000Y-90091000D03*
X81300000Y-90091000D03*
X82100000Y-90091000D03*
X82900000Y-90091000D03*
X83700000Y-90091000D03*
X84500000Y-90091000D03*
X85300000Y-90091000D03*
X86100000Y-90091000D03*
X86900000Y-90091000D03*
X87700000Y-90091000D03*
X88500000Y-90091000D03*
X88500000Y-78635000D03*
X87700000Y-78635000D03*
X86900000Y-78635000D03*
X86100000Y-78635000D03*
X85300000Y-78635000D03*
X84500000Y-78635000D03*
X83700000Y-78635000D03*
X82900000Y-78635000D03*
X82100000Y-78635000D03*
X81300000Y-78635000D03*
X80500000Y-78635000D03*
X79700000Y-78635000D03*
X78900000Y-78635000D03*
X78100000Y-78635000D03*
X77300000Y-78635000D03*
X76500000Y-78635000D03*
X75700000Y-78635000D03*
X74900000Y-78635000D03*
X74100000Y-78635000D03*
X73300000Y-78635000D03*
X72500000Y-78635000D03*
X71700000Y-78635000D03*
X70900000Y-78635000D03*
X70100000Y-78635000D03*
X69300000Y-78635000D03*
X68500000Y-78635000D03*
X67700000Y-78635000D03*
D23*
X127162500Y-53350000D03*
X129237500Y-53350000D03*
D22*
X123420000Y-158277500D03*
X123420000Y-156202500D03*
D30*
X132187500Y-132050000D03*
X134262500Y-132050000D03*
D38*
X156601150Y-124370780D03*
D33*
X156601150Y-121870780D03*
D49*
X134280000Y-130460000D03*
X157640000Y-136040000D03*
X105320000Y-148880000D03*
X116820000Y-146960000D03*
X110630000Y-85870000D03*
X122380000Y-74230000D03*
X125910000Y-78940000D03*
X122240000Y-80790000D03*
X115860000Y-80280000D03*
X116290000Y-90000000D03*
X121610000Y-88130000D03*
X125910000Y-84170000D03*
X126100000Y-90610000D03*
X124080000Y-89820000D03*
X120080000Y-92790000D03*
X119020000Y-95830000D03*
X134980000Y-93350000D03*
X109970000Y-137100000D03*
X111520000Y-140210000D03*
X111530000Y-128730000D03*
X112770000Y-131780000D03*
X144290000Y-148480000D03*
X142920000Y-147290000D03*
X105690000Y-138920000D03*
D50*
X128260000Y-164110000D03*
X128990000Y-159770000D03*
D49*
X114140000Y-154530000D03*
X105670000Y-140570000D03*
X104070000Y-137620000D03*
X98860000Y-140050000D03*
X72970000Y-81530000D03*
X68190000Y-81440000D03*
X80620000Y-85690000D03*
X86080000Y-85820000D03*
X76690000Y-92040000D03*
X71820000Y-91900000D03*
X66320000Y-78640000D03*
X69500000Y-76820000D03*
X74110000Y-76830000D03*
X78080000Y-76870000D03*
X89890000Y-78620000D03*
X66200000Y-85210000D03*
X157450000Y-76310000D03*
X159100000Y-73140000D03*
X158160000Y-73100000D03*
X159750000Y-79480000D03*
X159130000Y-95870000D03*
X158190000Y-95920000D03*
X160790000Y-91020000D03*
X159460000Y-89600000D03*
X44610000Y-132860000D03*
X45420000Y-135650000D03*
X51770000Y-132140000D03*
X53130000Y-130800000D03*
X53090000Y-128800000D03*
X51760000Y-127410000D03*
X51540000Y-135720000D03*
X52850000Y-134300000D03*
X51520000Y-132790000D03*
X38630000Y-135720000D03*
X37260000Y-134280000D03*
X37280000Y-132290000D03*
X38510000Y-130940000D03*
X41740000Y-126470000D03*
X40460000Y-125120000D03*
X38400000Y-127840000D03*
X37170000Y-126460000D03*
X38390000Y-125120000D03*
X43140000Y-119640000D03*
X44590000Y-118320000D03*
X75650000Y-131700000D03*
X72670000Y-131690000D03*
X80150000Y-135170000D03*
X81620000Y-134310000D03*
X67360000Y-136130000D03*
X66000000Y-134610000D03*
X67350000Y-133160000D03*
X84750000Y-134360000D03*
X86020000Y-132980000D03*
X69550000Y-129310000D03*
X68320000Y-127940000D03*
X69530000Y-126630000D03*
X76620000Y-126830000D03*
X75350000Y-128180000D03*
X72420000Y-126600000D03*
X75250000Y-124530000D03*
X72520000Y-124540000D03*
X73910000Y-123330000D03*
X78740000Y-120980000D03*
X76670000Y-123690000D03*
X76650000Y-121000000D03*
X75470000Y-122330000D03*
X130480000Y-53360000D03*
X129250000Y-54670000D03*
X125980000Y-53250000D03*
D50*
X137010000Y-69910000D03*
X135400000Y-68580000D03*
X133940000Y-69930000D03*
X135420000Y-73460000D03*
X104090000Y-98160000D03*
X105420000Y-96670000D03*
X104030000Y-95200000D03*
X100540000Y-96650000D03*
X107125000Y-143750000D03*
D49*
X125850000Y-143750000D03*
D50*
X103325000Y-143750000D03*
X125850000Y-159850000D03*
X113175000Y-143750000D03*
D49*
X47175000Y-117650000D03*
X129075000Y-117625000D03*
X129075000Y-95650000D03*
X110675000Y-87850000D03*
D50*
X163941150Y-125598400D03*
D49*
X78537500Y-85800000D03*
X104075000Y-142150000D03*
X49700000Y-127250000D03*
X44525000Y-126950000D03*
X122275000Y-78650000D03*
X119270000Y-75820000D03*
X75625000Y-129500000D03*
X120900000Y-91300000D03*
X78250000Y-88475000D03*
X110600000Y-78500000D03*
X78825000Y-132325000D03*
X112950000Y-133650000D03*
X110800000Y-83400000D03*
X49700000Y-132200000D03*
X88550000Y-88525000D03*
X124075000Y-74235000D03*
X88200000Y-85700000D03*
X116250000Y-81225000D03*
X66300000Y-87300000D03*
X71600000Y-83000000D03*
X74162500Y-85800000D03*
X76600000Y-80225000D03*
D50*
X165411150Y-125338400D03*
D49*
X73025000Y-127975000D03*
X46525000Y-131650000D03*
X108875000Y-147450000D03*
X115800000Y-91500000D03*
X156270000Y-78130000D03*
X112550000Y-74210000D03*
X114675000Y-148350000D03*
X157945000Y-92955000D03*
X71825000Y-80050000D03*
X75625000Y-130525000D03*
X110630000Y-89080000D03*
X110600000Y-89784999D03*
X107025000Y-145275000D03*
X116300000Y-132675000D03*
X110700000Y-76010000D03*
X108050000Y-133025000D03*
X43125000Y-121675000D03*
X101300000Y-141000001D03*
X129250000Y-92550000D03*
X117200000Y-92925000D03*
X110300000Y-132400000D03*
X129225000Y-86075000D03*
D50*
X166931150Y-123978400D03*
X162441150Y-127068400D03*
D49*
X121600000Y-83400000D03*
X80425000Y-122350000D03*
X117950000Y-77400000D03*
X119240000Y-74190000D03*
X112375000Y-92900000D03*
X69487500Y-85712500D03*
X155970000Y-91030000D03*
X126300000Y-92700000D03*
X126000000Y-75800000D03*
X77700000Y-81600000D03*
X117800000Y-86450000D03*
X110775000Y-92950000D03*
X127600000Y-87400000D03*
X103750000Y-74610000D03*
X116375000Y-131675000D03*
X126100000Y-81100000D03*
X128775000Y-74225000D03*
X122125000Y-92725000D03*
X69300000Y-88675000D03*
X110675000Y-79400000D03*
X74200000Y-88575000D03*
X110560000Y-131680000D03*
X129250000Y-80775000D03*
X112510000Y-140190000D03*
X67700000Y-88700000D03*
X48000000Y-112035000D03*
X113725000Y-112035000D03*
X113725000Y-74210000D03*
X45475000Y-132575000D03*
X43852775Y-135727223D03*
X45825000Y-112860000D03*
X113100000Y-112810000D03*
X113150000Y-74835000D03*
X46475000Y-110685000D03*
X114662500Y-110672500D03*
X114725000Y-74235000D03*
X113000000Y-128850000D03*
D50*
X121920000Y-156150000D03*
D49*
X116600000Y-135225000D03*
X136250000Y-91875000D03*
X108600000Y-140525000D03*
D50*
X71500000Y-85700000D03*
X112100000Y-76000000D03*
X76237500Y-85900000D03*
D49*
X119100000Y-80875000D03*
X118345727Y-71513513D03*
X132300000Y-79800000D03*
X74400000Y-83000000D03*
X127600000Y-82900000D03*
D50*
X110760000Y-85150000D03*
D49*
X78200000Y-79900000D03*
X112000000Y-137125000D03*
X105775000Y-72360000D03*
X106925000Y-150450000D03*
X161170000Y-78030000D03*
X119100000Y-90100000D03*
D50*
X162431150Y-122208400D03*
X163911150Y-121938400D03*
D49*
X111675000Y-135800000D03*
X116455913Y-136630913D03*
D50*
X129325000Y-91525000D03*
D49*
X117725000Y-88650000D03*
D50*
X109450000Y-148375000D03*
D49*
X129225000Y-84775000D03*
X47350000Y-132650000D03*
X67625000Y-83900000D03*
X67725000Y-80100000D03*
D50*
X166991150Y-121908400D03*
D49*
X110600000Y-72000000D03*
D50*
X123410000Y-154780000D03*
X115875000Y-74400000D03*
D49*
X118000000Y-74100000D03*
X158869448Y-76176175D03*
X81650000Y-87125000D03*
X109550000Y-131650000D03*
X69600000Y-83000000D03*
X42850000Y-127225000D03*
X112600000Y-156125000D03*
D50*
X110800000Y-91787500D03*
D49*
X85050000Y-87250000D03*
D50*
X163941150Y-123548400D03*
D49*
X129100000Y-79400000D03*
D50*
X108150000Y-135725000D03*
D49*
X76575000Y-88575000D03*
X134725000Y-140600000D03*
X108700000Y-72400000D03*
X113025000Y-137250000D03*
X127700000Y-89400000D03*
X121200000Y-75800000D03*
D50*
X117950000Y-84500000D03*
D49*
X112950000Y-135275000D03*
X43780339Y-126860641D03*
X115825000Y-77300000D03*
X74100000Y-80250000D03*
X96200000Y-140050000D03*
X123200000Y-86600000D03*
X116500000Y-136100000D03*
D50*
X123910000Y-92600000D03*
D49*
X132400000Y-85300000D03*
D50*
X130550000Y-68410000D03*
D49*
X108875000Y-131625000D03*
D50*
X110810000Y-77310000D03*
D49*
X111550000Y-131700000D03*
X158970000Y-92880000D03*
X88600000Y-80275000D03*
X112050000Y-84550000D03*
X135725000Y-132050000D03*
D50*
X125060000Y-156210000D03*
X165391150Y-120548400D03*
D49*
X111300000Y-74200000D03*
X69362500Y-80062500D03*
X101525000Y-140050000D03*
X118250000Y-145450000D03*
X125300000Y-91300000D03*
X71800000Y-88575000D03*
D50*
X123005736Y-74190736D03*
D49*
X118800000Y-92900000D03*
X127500000Y-77700000D03*
D50*
X160891150Y-123538400D03*
D49*
X44575000Y-135525000D03*
X98850000Y-120810000D03*
X130925000Y-120810000D03*
X98850000Y-80360001D03*
D51*
X83150000Y-151260000D03*
D49*
X81550000Y-132950000D03*
X103400000Y-129625000D03*
X103400000Y-123125000D03*
X137400000Y-86325000D03*
X82575000Y-129675000D03*
X137400000Y-123100000D03*
X98050000Y-79300000D03*
X82025000Y-131050000D03*
X98050000Y-131050000D03*
X138000000Y-74725000D03*
X102250000Y-123850000D03*
X102250000Y-131700000D03*
X137950000Y-123725000D03*
X82825000Y-131725000D03*
D51*
X67520000Y-150910000D03*
D49*
X83525000Y-130425000D03*
X102825000Y-130375000D03*
X138650000Y-75300000D03*
X138650000Y-124600000D03*
X102825000Y-124525000D03*
X78200000Y-133650000D03*
X72500000Y-134250000D03*
X74250000Y-135125000D03*
X142525000Y-59475000D03*
X142525000Y-80775000D03*
X161995000Y-59605000D03*
X65660000Y-93400000D03*
X68600000Y-93390000D03*
X65760000Y-59475000D03*
X154795000Y-66015000D03*
X93680000Y-100100000D03*
X123050000Y-65985000D03*
X123050000Y-71435000D03*
X75800000Y-100110000D03*
X93680000Y-65985000D03*
X122625000Y-107775000D03*
X122625000Y-95550000D03*
X155445000Y-107805000D03*
X123900000Y-65335000D03*
X123900000Y-71410000D03*
X154213388Y-65440000D03*
X94160000Y-65335000D03*
X94160000Y-100710000D03*
X77400000Y-100685000D03*
X65190000Y-94370000D03*
X161370000Y-58880000D03*
X65260000Y-58870000D03*
X70090000Y-94330000D03*
X143125000Y-81375000D03*
X143100000Y-58875000D03*
X156020000Y-106455000D03*
X124700000Y-106375000D03*
X124675000Y-95675000D03*
X122450000Y-66585000D03*
X155445000Y-66615000D03*
X122450000Y-70585000D03*
X75000000Y-99585000D03*
X93205000Y-66585000D03*
X93205000Y-99590000D03*
X123800000Y-107050000D03*
X123825000Y-95775000D03*
X161095000Y-107080000D03*
X156195000Y-67265000D03*
X73400000Y-98835000D03*
X121825000Y-67185000D03*
X121850000Y-71460000D03*
X92720000Y-67310000D03*
X92730000Y-98830000D03*
X160620000Y-101005000D03*
X141900000Y-78750000D03*
X141900000Y-100975000D03*
X156645000Y-99355000D03*
X148885000Y-99325000D03*
X148885000Y-87284999D03*
X107875000Y-103360000D03*
X107803435Y-84058096D03*
X161720000Y-103390000D03*
X72600000Y-105775000D03*
X147940000Y-63325000D03*
X125725000Y-95675000D03*
X147900000Y-105850000D03*
X160395000Y-63355000D03*
X125750000Y-105775000D03*
X141200000Y-78275000D03*
X141275000Y-100300000D03*
X160120000Y-100255000D03*
X160970000Y-63980000D03*
X71000000Y-105175000D03*
X148415000Y-105175000D03*
X127025000Y-95700000D03*
X148415000Y-63990000D03*
X127050000Y-105175000D03*
X96075000Y-93710000D03*
X96080000Y-86190000D03*
X87800000Y-93710000D03*
X127325000Y-71260000D03*
X127475000Y-55500000D03*
X83800000Y-69235000D03*
X126250000Y-62610000D03*
X73400000Y-62610000D03*
X126225000Y-69185000D03*
X125650000Y-63310000D03*
X75000000Y-63310000D03*
X125650000Y-69685000D03*
X112575000Y-95850000D03*
X91770000Y-102670000D03*
X91770000Y-73325000D03*
X79800000Y-73325000D03*
X112575000Y-102785000D03*
X85400000Y-70535000D03*
X96550000Y-86785000D03*
X96550000Y-94360000D03*
X87000000Y-94335000D03*
X97030000Y-87284999D03*
X97025000Y-94985000D03*
X86200000Y-94935000D03*
X99425000Y-78250000D03*
X81400000Y-75860000D03*
X99425000Y-75870000D03*
X140575000Y-77825000D03*
X68600000Y-60275000D03*
X140575000Y-60350000D03*
X97500000Y-95685000D03*
X97500000Y-87950000D03*
X85400000Y-95685000D03*
X86210000Y-71010000D03*
X124500000Y-70885000D03*
X124500000Y-64760000D03*
X77400000Y-64785000D03*
X144550000Y-83300000D03*
X83800000Y-104575000D03*
X144550000Y-104575000D03*
X84600000Y-69835000D03*
X126800000Y-68685654D03*
X72600000Y-62035000D03*
X126900000Y-62010000D03*
X139925000Y-60950000D03*
X70200000Y-60875000D03*
X139950000Y-77275000D03*
X94640000Y-101460000D03*
X94630000Y-71435000D03*
X81400000Y-101460000D03*
X82200000Y-92310000D03*
X95125000Y-92310000D03*
X95110000Y-79008332D03*
X125075000Y-70385000D03*
X75800000Y-64060000D03*
X125050000Y-64060000D03*
X87700000Y-77135000D03*
X103400000Y-77135000D03*
X103400000Y-85735000D03*
X111827588Y-95912285D03*
X111900000Y-102210000D03*
X79000000Y-102175000D03*
X143900000Y-103935000D03*
X143900000Y-82750000D03*
X83000000Y-103935000D03*
X87000000Y-76435000D03*
X102300000Y-85235000D03*
X102300000Y-76435000D03*
X79775000Y-92985000D03*
X95600000Y-92990000D03*
X95600000Y-79735000D03*
X80600000Y-58300000D03*
X145030000Y-58300000D03*
X145025000Y-84785000D03*
X117275000Y-106350000D03*
X117275000Y-95725000D03*
X80600000Y-106350000D03*
X71010000Y-61435000D03*
X139200000Y-61435000D03*
X139225000Y-76800000D03*
X92245000Y-68635000D03*
X92245000Y-97840000D03*
X84600000Y-97835000D03*
X147425000Y-94197500D03*
X115895758Y-96265153D03*
X146950000Y-90925000D03*
X116525552Y-95696175D03*
X100025000Y-135950000D03*
X121825000Y-122425000D03*
X121800000Y-95675000D03*
X97250000Y-122425000D03*
X97225000Y-135925000D03*
X128050000Y-56900000D03*
X128050000Y-70744468D03*
X105175000Y-90535000D03*
X104950000Y-57725000D03*
X123200000Y-96800000D03*
X145300000Y-88750000D03*
X145325000Y-143750000D03*
X146475000Y-141725000D03*
X146475000Y-90350000D03*
X127400000Y-141750000D03*
X104199997Y-57725000D03*
X104225000Y-90020542D03*
X126625000Y-142325000D03*
X145900000Y-89775000D03*
X145875000Y-142325000D03*
X106475000Y-91710000D03*
X106475000Y-55650000D03*
X101375000Y-57725000D03*
X101350000Y-89435000D03*
X105900000Y-91119370D03*
X105900000Y-57725000D03*
X100775000Y-88835000D03*
X100624997Y-57725000D03*
X83000000Y-67835000D03*
X99874994Y-57725000D03*
X99900000Y-88360000D03*
D50*
X100890000Y-155960000D03*
D49*
X107300000Y-92235000D03*
X107201000Y-55461778D03*
X107750000Y-83310000D03*
X107750000Y-57725000D03*
%LPD*%
M02*
