%TF.GenerationSoftware,KiCad,Pcbnew,8.0.5*%
%TF.CreationDate,2024-11-21T04:34:35-05:00*%
%TF.ProjectId,PCB_Order3,5043425f-4f72-4646-9572-332e6b696361,rev?*%
%TF.SameCoordinates,Original*%
%TF.FileFunction,Drillmap*%
%TF.FilePolarity,Positive*%
%FSLAX45Y45*%
G04 Gerber Fmt 4.5, Leading zero omitted, Abs format (unit mm)*
G04 Created by KiCad (PCBNEW 8.0.5) date 2024-11-21 04:34:35*
%MOMM*%
%LPD*%
G01*
G04 APERTURE LIST*
%ADD10C,0.200000*%
%ADD11C,0.100000*%
%ADD12C,0.129540*%
G04 APERTURE END LIST*
D10*
X2780000Y-4515000D02*
X17780000Y-4515000D01*
X17780000Y-17515000D01*
X2780000Y-17515000D01*
X2780000Y-4515000D01*
D11*
X12475000Y-16422500D02*
X12565000Y-16512500D01*
X12565000Y-16422500D02*
X12475000Y-16512500D01*
X12915000Y-16422500D02*
X13005000Y-16512500D01*
X13005000Y-16422500D02*
X12915000Y-16512500D01*
D12*
X17399385Y-12685340D02*
G75*
G02*
X17269845Y-12685340I-64770J0D01*
G01*
X17269845Y-12685340D02*
G75*
G02*
X17399385Y-12685340I64770J0D01*
G01*
D10*
X3030777Y-17836484D02*
X3030777Y-17636484D01*
X3030777Y-17636484D02*
X3078396Y-17636484D01*
X3078396Y-17636484D02*
X3106967Y-17646008D01*
X3106967Y-17646008D02*
X3126015Y-17665055D01*
X3126015Y-17665055D02*
X3135539Y-17684103D01*
X3135539Y-17684103D02*
X3145062Y-17722198D01*
X3145062Y-17722198D02*
X3145062Y-17750770D01*
X3145062Y-17750770D02*
X3135539Y-17788865D01*
X3135539Y-17788865D02*
X3126015Y-17807912D01*
X3126015Y-17807912D02*
X3106967Y-17826960D01*
X3106967Y-17826960D02*
X3078396Y-17836484D01*
X3078396Y-17836484D02*
X3030777Y-17836484D01*
X3230777Y-17836484D02*
X3230777Y-17703150D01*
X3230777Y-17741246D02*
X3240301Y-17722198D01*
X3240301Y-17722198D02*
X3249824Y-17712674D01*
X3249824Y-17712674D02*
X3268872Y-17703150D01*
X3268872Y-17703150D02*
X3287920Y-17703150D01*
X3354586Y-17836484D02*
X3354586Y-17703150D01*
X3354586Y-17636484D02*
X3345062Y-17646008D01*
X3345062Y-17646008D02*
X3354586Y-17655531D01*
X3354586Y-17655531D02*
X3364110Y-17646008D01*
X3364110Y-17646008D02*
X3354586Y-17636484D01*
X3354586Y-17636484D02*
X3354586Y-17655531D01*
X3478396Y-17836484D02*
X3459348Y-17826960D01*
X3459348Y-17826960D02*
X3449824Y-17807912D01*
X3449824Y-17807912D02*
X3449824Y-17636484D01*
X3583158Y-17836484D02*
X3564110Y-17826960D01*
X3564110Y-17826960D02*
X3554586Y-17807912D01*
X3554586Y-17807912D02*
X3554586Y-17636484D01*
X3811729Y-17836484D02*
X3811729Y-17636484D01*
X3811729Y-17636484D02*
X3878396Y-17779341D01*
X3878396Y-17779341D02*
X3945062Y-17636484D01*
X3945062Y-17636484D02*
X3945062Y-17836484D01*
X4126015Y-17836484D02*
X4126015Y-17731722D01*
X4126015Y-17731722D02*
X4116491Y-17712674D01*
X4116491Y-17712674D02*
X4097443Y-17703150D01*
X4097443Y-17703150D02*
X4059348Y-17703150D01*
X4059348Y-17703150D02*
X4040301Y-17712674D01*
X4126015Y-17826960D02*
X4106967Y-17836484D01*
X4106967Y-17836484D02*
X4059348Y-17836484D01*
X4059348Y-17836484D02*
X4040301Y-17826960D01*
X4040301Y-17826960D02*
X4030777Y-17807912D01*
X4030777Y-17807912D02*
X4030777Y-17788865D01*
X4030777Y-17788865D02*
X4040301Y-17769817D01*
X4040301Y-17769817D02*
X4059348Y-17760293D01*
X4059348Y-17760293D02*
X4106967Y-17760293D01*
X4106967Y-17760293D02*
X4126015Y-17750770D01*
X4221253Y-17703150D02*
X4221253Y-17903150D01*
X4221253Y-17712674D02*
X4240301Y-17703150D01*
X4240301Y-17703150D02*
X4278396Y-17703150D01*
X4278396Y-17703150D02*
X4297444Y-17712674D01*
X4297444Y-17712674D02*
X4306967Y-17722198D01*
X4306967Y-17722198D02*
X4316491Y-17741246D01*
X4316491Y-17741246D02*
X4316491Y-17798389D01*
X4316491Y-17798389D02*
X4306967Y-17817436D01*
X4306967Y-17817436D02*
X4297444Y-17826960D01*
X4297444Y-17826960D02*
X4278396Y-17836484D01*
X4278396Y-17836484D02*
X4240301Y-17836484D01*
X4240301Y-17836484D02*
X4221253Y-17826960D01*
X4402205Y-17817436D02*
X4411729Y-17826960D01*
X4411729Y-17826960D02*
X4402205Y-17836484D01*
X4402205Y-17836484D02*
X4392682Y-17826960D01*
X4392682Y-17826960D02*
X4402205Y-17817436D01*
X4402205Y-17817436D02*
X4402205Y-17836484D01*
X4402205Y-17712674D02*
X4411729Y-17722198D01*
X4411729Y-17722198D02*
X4402205Y-17731722D01*
X4402205Y-17731722D02*
X4392682Y-17722198D01*
X4392682Y-17722198D02*
X4402205Y-17712674D01*
X4402205Y-17712674D02*
X4402205Y-17731722D01*
D11*
X2680000Y-18120000D02*
X2770000Y-18210000D01*
X2770000Y-18120000D02*
X2680000Y-18210000D01*
D10*
X3068872Y-18056484D02*
X3087920Y-18056484D01*
X3087920Y-18056484D02*
X3106967Y-18066008D01*
X3106967Y-18066008D02*
X3116491Y-18075531D01*
X3116491Y-18075531D02*
X3126015Y-18094579D01*
X3126015Y-18094579D02*
X3135539Y-18132674D01*
X3135539Y-18132674D02*
X3135539Y-18180293D01*
X3135539Y-18180293D02*
X3126015Y-18218389D01*
X3126015Y-18218389D02*
X3116491Y-18237436D01*
X3116491Y-18237436D02*
X3106967Y-18246960D01*
X3106967Y-18246960D02*
X3087920Y-18256484D01*
X3087920Y-18256484D02*
X3068872Y-18256484D01*
X3068872Y-18256484D02*
X3049824Y-18246960D01*
X3049824Y-18246960D02*
X3040301Y-18237436D01*
X3040301Y-18237436D02*
X3030777Y-18218389D01*
X3030777Y-18218389D02*
X3021253Y-18180293D01*
X3021253Y-18180293D02*
X3021253Y-18132674D01*
X3021253Y-18132674D02*
X3030777Y-18094579D01*
X3030777Y-18094579D02*
X3040301Y-18075531D01*
X3040301Y-18075531D02*
X3049824Y-18066008D01*
X3049824Y-18066008D02*
X3068872Y-18056484D01*
X3221253Y-18237436D02*
X3230777Y-18246960D01*
X3230777Y-18246960D02*
X3221253Y-18256484D01*
X3221253Y-18256484D02*
X3211729Y-18246960D01*
X3211729Y-18246960D02*
X3221253Y-18237436D01*
X3221253Y-18237436D02*
X3221253Y-18256484D01*
X3326015Y-18256484D02*
X3364110Y-18256484D01*
X3364110Y-18256484D02*
X3383158Y-18246960D01*
X3383158Y-18246960D02*
X3392682Y-18237436D01*
X3392682Y-18237436D02*
X3411729Y-18208865D01*
X3411729Y-18208865D02*
X3421253Y-18170770D01*
X3421253Y-18170770D02*
X3421253Y-18094579D01*
X3421253Y-18094579D02*
X3411729Y-18075531D01*
X3411729Y-18075531D02*
X3402205Y-18066008D01*
X3402205Y-18066008D02*
X3383158Y-18056484D01*
X3383158Y-18056484D02*
X3345062Y-18056484D01*
X3345062Y-18056484D02*
X3326015Y-18066008D01*
X3326015Y-18066008D02*
X3316491Y-18075531D01*
X3316491Y-18075531D02*
X3306967Y-18094579D01*
X3306967Y-18094579D02*
X3306967Y-18142198D01*
X3306967Y-18142198D02*
X3316491Y-18161246D01*
X3316491Y-18161246D02*
X3326015Y-18170770D01*
X3326015Y-18170770D02*
X3345062Y-18180293D01*
X3345062Y-18180293D02*
X3383158Y-18180293D01*
X3383158Y-18180293D02*
X3402205Y-18170770D01*
X3402205Y-18170770D02*
X3411729Y-18161246D01*
X3411729Y-18161246D02*
X3421253Y-18142198D01*
X3545062Y-18056484D02*
X3564110Y-18056484D01*
X3564110Y-18056484D02*
X3583158Y-18066008D01*
X3583158Y-18066008D02*
X3592682Y-18075531D01*
X3592682Y-18075531D02*
X3602205Y-18094579D01*
X3602205Y-18094579D02*
X3611729Y-18132674D01*
X3611729Y-18132674D02*
X3611729Y-18180293D01*
X3611729Y-18180293D02*
X3602205Y-18218389D01*
X3602205Y-18218389D02*
X3592682Y-18237436D01*
X3592682Y-18237436D02*
X3583158Y-18246960D01*
X3583158Y-18246960D02*
X3564110Y-18256484D01*
X3564110Y-18256484D02*
X3545062Y-18256484D01*
X3545062Y-18256484D02*
X3526015Y-18246960D01*
X3526015Y-18246960D02*
X3516491Y-18237436D01*
X3516491Y-18237436D02*
X3506967Y-18218389D01*
X3506967Y-18218389D02*
X3497443Y-18180293D01*
X3497443Y-18180293D02*
X3497443Y-18132674D01*
X3497443Y-18132674D02*
X3506967Y-18094579D01*
X3506967Y-18094579D02*
X3516491Y-18075531D01*
X3516491Y-18075531D02*
X3526015Y-18066008D01*
X3526015Y-18066008D02*
X3545062Y-18056484D01*
X3735539Y-18056484D02*
X3754586Y-18056484D01*
X3754586Y-18056484D02*
X3773634Y-18066008D01*
X3773634Y-18066008D02*
X3783158Y-18075531D01*
X3783158Y-18075531D02*
X3792682Y-18094579D01*
X3792682Y-18094579D02*
X3802205Y-18132674D01*
X3802205Y-18132674D02*
X3802205Y-18180293D01*
X3802205Y-18180293D02*
X3792682Y-18218389D01*
X3792682Y-18218389D02*
X3783158Y-18237436D01*
X3783158Y-18237436D02*
X3773634Y-18246960D01*
X3773634Y-18246960D02*
X3754586Y-18256484D01*
X3754586Y-18256484D02*
X3735539Y-18256484D01*
X3735539Y-18256484D02*
X3716491Y-18246960D01*
X3716491Y-18246960D02*
X3706967Y-18237436D01*
X3706967Y-18237436D02*
X3697443Y-18218389D01*
X3697443Y-18218389D02*
X3687920Y-18180293D01*
X3687920Y-18180293D02*
X3687920Y-18132674D01*
X3687920Y-18132674D02*
X3697443Y-18094579D01*
X3697443Y-18094579D02*
X3706967Y-18075531D01*
X3706967Y-18075531D02*
X3716491Y-18066008D01*
X3716491Y-18066008D02*
X3735539Y-18056484D01*
X3887920Y-18256484D02*
X3887920Y-18123150D01*
X3887920Y-18142198D02*
X3897443Y-18132674D01*
X3897443Y-18132674D02*
X3916491Y-18123150D01*
X3916491Y-18123150D02*
X3945063Y-18123150D01*
X3945063Y-18123150D02*
X3964110Y-18132674D01*
X3964110Y-18132674D02*
X3973634Y-18151722D01*
X3973634Y-18151722D02*
X3973634Y-18256484D01*
X3973634Y-18151722D02*
X3983158Y-18132674D01*
X3983158Y-18132674D02*
X4002205Y-18123150D01*
X4002205Y-18123150D02*
X4030777Y-18123150D01*
X4030777Y-18123150D02*
X4049824Y-18132674D01*
X4049824Y-18132674D02*
X4059348Y-18151722D01*
X4059348Y-18151722D02*
X4059348Y-18256484D01*
X4154586Y-18256484D02*
X4154586Y-18123150D01*
X4154586Y-18142198D02*
X4164110Y-18132674D01*
X4164110Y-18132674D02*
X4183158Y-18123150D01*
X4183158Y-18123150D02*
X4211729Y-18123150D01*
X4211729Y-18123150D02*
X4230777Y-18132674D01*
X4230777Y-18132674D02*
X4240301Y-18151722D01*
X4240301Y-18151722D02*
X4240301Y-18256484D01*
X4240301Y-18151722D02*
X4249825Y-18132674D01*
X4249825Y-18132674D02*
X4268872Y-18123150D01*
X4268872Y-18123150D02*
X4297444Y-18123150D01*
X4297444Y-18123150D02*
X4316491Y-18132674D01*
X4316491Y-18132674D02*
X4326015Y-18151722D01*
X4326015Y-18151722D02*
X4326015Y-18256484D01*
X4716491Y-18046960D02*
X4545063Y-18304103D01*
X4973634Y-18056484D02*
X4992682Y-18056484D01*
X4992682Y-18056484D02*
X5011729Y-18066008D01*
X5011729Y-18066008D02*
X5021253Y-18075531D01*
X5021253Y-18075531D02*
X5030777Y-18094579D01*
X5030777Y-18094579D02*
X5040301Y-18132674D01*
X5040301Y-18132674D02*
X5040301Y-18180293D01*
X5040301Y-18180293D02*
X5030777Y-18218389D01*
X5030777Y-18218389D02*
X5021253Y-18237436D01*
X5021253Y-18237436D02*
X5011729Y-18246960D01*
X5011729Y-18246960D02*
X4992682Y-18256484D01*
X4992682Y-18256484D02*
X4973634Y-18256484D01*
X4973634Y-18256484D02*
X4954587Y-18246960D01*
X4954587Y-18246960D02*
X4945063Y-18237436D01*
X4945063Y-18237436D02*
X4935539Y-18218389D01*
X4935539Y-18218389D02*
X4926015Y-18180293D01*
X4926015Y-18180293D02*
X4926015Y-18132674D01*
X4926015Y-18132674D02*
X4935539Y-18094579D01*
X4935539Y-18094579D02*
X4945063Y-18075531D01*
X4945063Y-18075531D02*
X4954587Y-18066008D01*
X4954587Y-18066008D02*
X4973634Y-18056484D01*
X5126015Y-18237436D02*
X5135539Y-18246960D01*
X5135539Y-18246960D02*
X5126015Y-18256484D01*
X5126015Y-18256484D02*
X5116491Y-18246960D01*
X5116491Y-18246960D02*
X5126015Y-18237436D01*
X5126015Y-18237436D02*
X5126015Y-18256484D01*
X5259348Y-18056484D02*
X5278396Y-18056484D01*
X5278396Y-18056484D02*
X5297444Y-18066008D01*
X5297444Y-18066008D02*
X5306968Y-18075531D01*
X5306968Y-18075531D02*
X5316491Y-18094579D01*
X5316491Y-18094579D02*
X5326015Y-18132674D01*
X5326015Y-18132674D02*
X5326015Y-18180293D01*
X5326015Y-18180293D02*
X5316491Y-18218389D01*
X5316491Y-18218389D02*
X5306968Y-18237436D01*
X5306968Y-18237436D02*
X5297444Y-18246960D01*
X5297444Y-18246960D02*
X5278396Y-18256484D01*
X5278396Y-18256484D02*
X5259348Y-18256484D01*
X5259348Y-18256484D02*
X5240301Y-18246960D01*
X5240301Y-18246960D02*
X5230777Y-18237436D01*
X5230777Y-18237436D02*
X5221253Y-18218389D01*
X5221253Y-18218389D02*
X5211729Y-18180293D01*
X5211729Y-18180293D02*
X5211729Y-18132674D01*
X5211729Y-18132674D02*
X5221253Y-18094579D01*
X5221253Y-18094579D02*
X5230777Y-18075531D01*
X5230777Y-18075531D02*
X5240301Y-18066008D01*
X5240301Y-18066008D02*
X5259348Y-18056484D01*
X5392682Y-18056484D02*
X5516491Y-18056484D01*
X5516491Y-18056484D02*
X5449825Y-18132674D01*
X5449825Y-18132674D02*
X5478396Y-18132674D01*
X5478396Y-18132674D02*
X5497444Y-18142198D01*
X5497444Y-18142198D02*
X5506968Y-18151722D01*
X5506968Y-18151722D02*
X5516491Y-18170770D01*
X5516491Y-18170770D02*
X5516491Y-18218389D01*
X5516491Y-18218389D02*
X5506968Y-18237436D01*
X5506968Y-18237436D02*
X5497444Y-18246960D01*
X5497444Y-18246960D02*
X5478396Y-18256484D01*
X5478396Y-18256484D02*
X5421253Y-18256484D01*
X5421253Y-18256484D02*
X5402206Y-18246960D01*
X5402206Y-18246960D02*
X5392682Y-18237436D01*
X5697444Y-18056484D02*
X5602206Y-18056484D01*
X5602206Y-18056484D02*
X5592682Y-18151722D01*
X5592682Y-18151722D02*
X5602206Y-18142198D01*
X5602206Y-18142198D02*
X5621253Y-18132674D01*
X5621253Y-18132674D02*
X5668872Y-18132674D01*
X5668872Y-18132674D02*
X5687920Y-18142198D01*
X5687920Y-18142198D02*
X5697444Y-18151722D01*
X5697444Y-18151722D02*
X5706967Y-18170770D01*
X5706967Y-18170770D02*
X5706967Y-18218389D01*
X5706967Y-18218389D02*
X5697444Y-18237436D01*
X5697444Y-18237436D02*
X5687920Y-18246960D01*
X5687920Y-18246960D02*
X5668872Y-18256484D01*
X5668872Y-18256484D02*
X5621253Y-18256484D01*
X5621253Y-18256484D02*
X5602206Y-18246960D01*
X5602206Y-18246960D02*
X5592682Y-18237436D01*
X5878396Y-18123150D02*
X5878396Y-18256484D01*
X5830777Y-18046960D02*
X5783158Y-18189817D01*
X5783158Y-18189817D02*
X5906967Y-18189817D01*
X5973634Y-18056484D02*
X5973634Y-18094579D01*
X6049825Y-18056484D02*
X6049825Y-18094579D01*
X6345063Y-18332674D02*
X6335539Y-18323150D01*
X6335539Y-18323150D02*
X6316491Y-18294579D01*
X6316491Y-18294579D02*
X6306968Y-18275531D01*
X6306968Y-18275531D02*
X6297444Y-18246960D01*
X6297444Y-18246960D02*
X6287920Y-18199341D01*
X6287920Y-18199341D02*
X6287920Y-18161246D01*
X6287920Y-18161246D02*
X6297444Y-18113627D01*
X6297444Y-18113627D02*
X6306968Y-18085055D01*
X6306968Y-18085055D02*
X6316491Y-18066008D01*
X6316491Y-18066008D02*
X6335539Y-18037436D01*
X6335539Y-18037436D02*
X6345063Y-18027912D01*
X6411729Y-18075531D02*
X6421253Y-18066008D01*
X6421253Y-18066008D02*
X6440301Y-18056484D01*
X6440301Y-18056484D02*
X6487920Y-18056484D01*
X6487920Y-18056484D02*
X6506968Y-18066008D01*
X6506968Y-18066008D02*
X6516491Y-18075531D01*
X6516491Y-18075531D02*
X6526015Y-18094579D01*
X6526015Y-18094579D02*
X6526015Y-18113627D01*
X6526015Y-18113627D02*
X6516491Y-18142198D01*
X6516491Y-18142198D02*
X6402206Y-18256484D01*
X6402206Y-18256484D02*
X6526015Y-18256484D01*
X6764110Y-18256484D02*
X6764110Y-18056484D01*
X6849825Y-18256484D02*
X6849825Y-18151722D01*
X6849825Y-18151722D02*
X6840301Y-18132674D01*
X6840301Y-18132674D02*
X6821253Y-18123150D01*
X6821253Y-18123150D02*
X6792682Y-18123150D01*
X6792682Y-18123150D02*
X6773634Y-18132674D01*
X6773634Y-18132674D02*
X6764110Y-18142198D01*
X6973634Y-18256484D02*
X6954587Y-18246960D01*
X6954587Y-18246960D02*
X6945063Y-18237436D01*
X6945063Y-18237436D02*
X6935539Y-18218389D01*
X6935539Y-18218389D02*
X6935539Y-18161246D01*
X6935539Y-18161246D02*
X6945063Y-18142198D01*
X6945063Y-18142198D02*
X6954587Y-18132674D01*
X6954587Y-18132674D02*
X6973634Y-18123150D01*
X6973634Y-18123150D02*
X7002206Y-18123150D01*
X7002206Y-18123150D02*
X7021253Y-18132674D01*
X7021253Y-18132674D02*
X7030777Y-18142198D01*
X7030777Y-18142198D02*
X7040301Y-18161246D01*
X7040301Y-18161246D02*
X7040301Y-18218389D01*
X7040301Y-18218389D02*
X7030777Y-18237436D01*
X7030777Y-18237436D02*
X7021253Y-18246960D01*
X7021253Y-18246960D02*
X7002206Y-18256484D01*
X7002206Y-18256484D02*
X6973634Y-18256484D01*
X7154587Y-18256484D02*
X7135539Y-18246960D01*
X7135539Y-18246960D02*
X7126015Y-18227912D01*
X7126015Y-18227912D02*
X7126015Y-18056484D01*
X7306968Y-18246960D02*
X7287920Y-18256484D01*
X7287920Y-18256484D02*
X7249825Y-18256484D01*
X7249825Y-18256484D02*
X7230777Y-18246960D01*
X7230777Y-18246960D02*
X7221253Y-18227912D01*
X7221253Y-18227912D02*
X7221253Y-18151722D01*
X7221253Y-18151722D02*
X7230777Y-18132674D01*
X7230777Y-18132674D02*
X7249825Y-18123150D01*
X7249825Y-18123150D02*
X7287920Y-18123150D01*
X7287920Y-18123150D02*
X7306968Y-18132674D01*
X7306968Y-18132674D02*
X7316491Y-18151722D01*
X7316491Y-18151722D02*
X7316491Y-18170770D01*
X7316491Y-18170770D02*
X7221253Y-18189817D01*
X7392682Y-18246960D02*
X7411730Y-18256484D01*
X7411730Y-18256484D02*
X7449825Y-18256484D01*
X7449825Y-18256484D02*
X7468872Y-18246960D01*
X7468872Y-18246960D02*
X7478396Y-18227912D01*
X7478396Y-18227912D02*
X7478396Y-18218389D01*
X7478396Y-18218389D02*
X7468872Y-18199341D01*
X7468872Y-18199341D02*
X7449825Y-18189817D01*
X7449825Y-18189817D02*
X7421253Y-18189817D01*
X7421253Y-18189817D02*
X7402206Y-18180293D01*
X7402206Y-18180293D02*
X7392682Y-18161246D01*
X7392682Y-18161246D02*
X7392682Y-18151722D01*
X7392682Y-18151722D02*
X7402206Y-18132674D01*
X7402206Y-18132674D02*
X7421253Y-18123150D01*
X7421253Y-18123150D02*
X7449825Y-18123150D01*
X7449825Y-18123150D02*
X7468872Y-18132674D01*
X7545063Y-18332674D02*
X7554587Y-18323150D01*
X7554587Y-18323150D02*
X7573634Y-18294579D01*
X7573634Y-18294579D02*
X7583158Y-18275531D01*
X7583158Y-18275531D02*
X7592682Y-18246960D01*
X7592682Y-18246960D02*
X7602206Y-18199341D01*
X7602206Y-18199341D02*
X7602206Y-18161246D01*
X7602206Y-18161246D02*
X7592682Y-18113627D01*
X7592682Y-18113627D02*
X7583158Y-18085055D01*
X7583158Y-18085055D02*
X7573634Y-18066008D01*
X7573634Y-18066008D02*
X7554587Y-18037436D01*
X7554587Y-18037436D02*
X7545063Y-18027912D01*
X7906968Y-18332674D02*
X7897444Y-18323150D01*
X7897444Y-18323150D02*
X7878396Y-18294579D01*
X7878396Y-18294579D02*
X7868872Y-18275531D01*
X7868872Y-18275531D02*
X7859349Y-18246960D01*
X7859349Y-18246960D02*
X7849825Y-18199341D01*
X7849825Y-18199341D02*
X7849825Y-18161246D01*
X7849825Y-18161246D02*
X7859349Y-18113627D01*
X7859349Y-18113627D02*
X7868872Y-18085055D01*
X7868872Y-18085055D02*
X7878396Y-18066008D01*
X7878396Y-18066008D02*
X7897444Y-18037436D01*
X7897444Y-18037436D02*
X7906968Y-18027912D01*
X7983158Y-18123150D02*
X7983158Y-18256484D01*
X7983158Y-18142198D02*
X7992682Y-18132674D01*
X7992682Y-18132674D02*
X8011730Y-18123150D01*
X8011730Y-18123150D02*
X8040301Y-18123150D01*
X8040301Y-18123150D02*
X8059349Y-18132674D01*
X8059349Y-18132674D02*
X8068872Y-18151722D01*
X8068872Y-18151722D02*
X8068872Y-18256484D01*
X8192682Y-18256484D02*
X8173634Y-18246960D01*
X8173634Y-18246960D02*
X8164111Y-18237436D01*
X8164111Y-18237436D02*
X8154587Y-18218389D01*
X8154587Y-18218389D02*
X8154587Y-18161246D01*
X8154587Y-18161246D02*
X8164111Y-18142198D01*
X8164111Y-18142198D02*
X8173634Y-18132674D01*
X8173634Y-18132674D02*
X8192682Y-18123150D01*
X8192682Y-18123150D02*
X8221253Y-18123150D01*
X8221253Y-18123150D02*
X8240301Y-18132674D01*
X8240301Y-18132674D02*
X8249825Y-18142198D01*
X8249825Y-18142198D02*
X8259349Y-18161246D01*
X8259349Y-18161246D02*
X8259349Y-18218389D01*
X8259349Y-18218389D02*
X8249825Y-18237436D01*
X8249825Y-18237436D02*
X8240301Y-18246960D01*
X8240301Y-18246960D02*
X8221253Y-18256484D01*
X8221253Y-18256484D02*
X8192682Y-18256484D01*
X8316492Y-18123150D02*
X8392682Y-18123150D01*
X8345063Y-18056484D02*
X8345063Y-18227912D01*
X8345063Y-18227912D02*
X8354587Y-18246960D01*
X8354587Y-18246960D02*
X8373634Y-18256484D01*
X8373634Y-18256484D02*
X8392682Y-18256484D01*
X8611730Y-18123150D02*
X8611730Y-18323150D01*
X8611730Y-18132674D02*
X8630777Y-18123150D01*
X8630777Y-18123150D02*
X8668873Y-18123150D01*
X8668873Y-18123150D02*
X8687920Y-18132674D01*
X8687920Y-18132674D02*
X8697444Y-18142198D01*
X8697444Y-18142198D02*
X8706968Y-18161246D01*
X8706968Y-18161246D02*
X8706968Y-18218389D01*
X8706968Y-18218389D02*
X8697444Y-18237436D01*
X8697444Y-18237436D02*
X8687920Y-18246960D01*
X8687920Y-18246960D02*
X8668873Y-18256484D01*
X8668873Y-18256484D02*
X8630777Y-18256484D01*
X8630777Y-18256484D02*
X8611730Y-18246960D01*
X8821254Y-18256484D02*
X8802206Y-18246960D01*
X8802206Y-18246960D02*
X8792682Y-18227912D01*
X8792682Y-18227912D02*
X8792682Y-18056484D01*
X8983158Y-18256484D02*
X8983158Y-18151722D01*
X8983158Y-18151722D02*
X8973635Y-18132674D01*
X8973635Y-18132674D02*
X8954587Y-18123150D01*
X8954587Y-18123150D02*
X8916492Y-18123150D01*
X8916492Y-18123150D02*
X8897444Y-18132674D01*
X8983158Y-18246960D02*
X8964111Y-18256484D01*
X8964111Y-18256484D02*
X8916492Y-18256484D01*
X8916492Y-18256484D02*
X8897444Y-18246960D01*
X8897444Y-18246960D02*
X8887920Y-18227912D01*
X8887920Y-18227912D02*
X8887920Y-18208865D01*
X8887920Y-18208865D02*
X8897444Y-18189817D01*
X8897444Y-18189817D02*
X8916492Y-18180293D01*
X8916492Y-18180293D02*
X8964111Y-18180293D01*
X8964111Y-18180293D02*
X8983158Y-18170770D01*
X9049825Y-18123150D02*
X9126015Y-18123150D01*
X9078396Y-18056484D02*
X9078396Y-18227912D01*
X9078396Y-18227912D02*
X9087920Y-18246960D01*
X9087920Y-18246960D02*
X9106968Y-18256484D01*
X9106968Y-18256484D02*
X9126015Y-18256484D01*
X9268873Y-18246960D02*
X9249825Y-18256484D01*
X9249825Y-18256484D02*
X9211730Y-18256484D01*
X9211730Y-18256484D02*
X9192682Y-18246960D01*
X9192682Y-18246960D02*
X9183158Y-18227912D01*
X9183158Y-18227912D02*
X9183158Y-18151722D01*
X9183158Y-18151722D02*
X9192682Y-18132674D01*
X9192682Y-18132674D02*
X9211730Y-18123150D01*
X9211730Y-18123150D02*
X9249825Y-18123150D01*
X9249825Y-18123150D02*
X9268873Y-18132674D01*
X9268873Y-18132674D02*
X9278396Y-18151722D01*
X9278396Y-18151722D02*
X9278396Y-18170770D01*
X9278396Y-18170770D02*
X9183158Y-18189817D01*
X9449825Y-18256484D02*
X9449825Y-18056484D01*
X9449825Y-18246960D02*
X9430777Y-18256484D01*
X9430777Y-18256484D02*
X9392682Y-18256484D01*
X9392682Y-18256484D02*
X9373635Y-18246960D01*
X9373635Y-18246960D02*
X9364111Y-18237436D01*
X9364111Y-18237436D02*
X9354587Y-18218389D01*
X9354587Y-18218389D02*
X9354587Y-18161246D01*
X9354587Y-18161246D02*
X9364111Y-18142198D01*
X9364111Y-18142198D02*
X9373635Y-18132674D01*
X9373635Y-18132674D02*
X9392682Y-18123150D01*
X9392682Y-18123150D02*
X9430777Y-18123150D01*
X9430777Y-18123150D02*
X9449825Y-18132674D01*
X9526016Y-18332674D02*
X9535539Y-18323150D01*
X9535539Y-18323150D02*
X9554587Y-18294579D01*
X9554587Y-18294579D02*
X9564111Y-18275531D01*
X9564111Y-18275531D02*
X9573635Y-18246960D01*
X9573635Y-18246960D02*
X9583158Y-18199341D01*
X9583158Y-18199341D02*
X9583158Y-18161246D01*
X9583158Y-18161246D02*
X9573635Y-18113627D01*
X9573635Y-18113627D02*
X9564111Y-18085055D01*
X9564111Y-18085055D02*
X9554587Y-18066008D01*
X9554587Y-18066008D02*
X9535539Y-18037436D01*
X9535539Y-18037436D02*
X9526016Y-18027912D01*
D12*
X2770000Y-18429000D02*
G75*
G02*
X2640460Y-18429000I-64770J0D01*
G01*
X2640460Y-18429000D02*
G75*
G02*
X2770000Y-18429000I64770J0D01*
G01*
D10*
X3135539Y-18520484D02*
X3021253Y-18520484D01*
X3078396Y-18520484D02*
X3078396Y-18320484D01*
X3078396Y-18320484D02*
X3059348Y-18349055D01*
X3059348Y-18349055D02*
X3040301Y-18368103D01*
X3040301Y-18368103D02*
X3021253Y-18377627D01*
X3221253Y-18501436D02*
X3230777Y-18510960D01*
X3230777Y-18510960D02*
X3221253Y-18520484D01*
X3221253Y-18520484D02*
X3211729Y-18510960D01*
X3211729Y-18510960D02*
X3221253Y-18501436D01*
X3221253Y-18501436D02*
X3221253Y-18520484D01*
X3306967Y-18339531D02*
X3316491Y-18330008D01*
X3316491Y-18330008D02*
X3335539Y-18320484D01*
X3335539Y-18320484D02*
X3383158Y-18320484D01*
X3383158Y-18320484D02*
X3402205Y-18330008D01*
X3402205Y-18330008D02*
X3411729Y-18339531D01*
X3411729Y-18339531D02*
X3421253Y-18358579D01*
X3421253Y-18358579D02*
X3421253Y-18377627D01*
X3421253Y-18377627D02*
X3411729Y-18406198D01*
X3411729Y-18406198D02*
X3297443Y-18520484D01*
X3297443Y-18520484D02*
X3421253Y-18520484D01*
X3516491Y-18520484D02*
X3554586Y-18520484D01*
X3554586Y-18520484D02*
X3573634Y-18510960D01*
X3573634Y-18510960D02*
X3583158Y-18501436D01*
X3583158Y-18501436D02*
X3602205Y-18472865D01*
X3602205Y-18472865D02*
X3611729Y-18434770D01*
X3611729Y-18434770D02*
X3611729Y-18358579D01*
X3611729Y-18358579D02*
X3602205Y-18339531D01*
X3602205Y-18339531D02*
X3592682Y-18330008D01*
X3592682Y-18330008D02*
X3573634Y-18320484D01*
X3573634Y-18320484D02*
X3535539Y-18320484D01*
X3535539Y-18320484D02*
X3516491Y-18330008D01*
X3516491Y-18330008D02*
X3506967Y-18339531D01*
X3506967Y-18339531D02*
X3497443Y-18358579D01*
X3497443Y-18358579D02*
X3497443Y-18406198D01*
X3497443Y-18406198D02*
X3506967Y-18425246D01*
X3506967Y-18425246D02*
X3516491Y-18434770D01*
X3516491Y-18434770D02*
X3535539Y-18444293D01*
X3535539Y-18444293D02*
X3573634Y-18444293D01*
X3573634Y-18444293D02*
X3592682Y-18434770D01*
X3592682Y-18434770D02*
X3602205Y-18425246D01*
X3602205Y-18425246D02*
X3611729Y-18406198D01*
X3792682Y-18320484D02*
X3697443Y-18320484D01*
X3697443Y-18320484D02*
X3687920Y-18415722D01*
X3687920Y-18415722D02*
X3697443Y-18406198D01*
X3697443Y-18406198D02*
X3716491Y-18396674D01*
X3716491Y-18396674D02*
X3764110Y-18396674D01*
X3764110Y-18396674D02*
X3783158Y-18406198D01*
X3783158Y-18406198D02*
X3792682Y-18415722D01*
X3792682Y-18415722D02*
X3802205Y-18434770D01*
X3802205Y-18434770D02*
X3802205Y-18482389D01*
X3802205Y-18482389D02*
X3792682Y-18501436D01*
X3792682Y-18501436D02*
X3783158Y-18510960D01*
X3783158Y-18510960D02*
X3764110Y-18520484D01*
X3764110Y-18520484D02*
X3716491Y-18520484D01*
X3716491Y-18520484D02*
X3697443Y-18510960D01*
X3697443Y-18510960D02*
X3687920Y-18501436D01*
X3887920Y-18520484D02*
X3887920Y-18387150D01*
X3887920Y-18406198D02*
X3897443Y-18396674D01*
X3897443Y-18396674D02*
X3916491Y-18387150D01*
X3916491Y-18387150D02*
X3945063Y-18387150D01*
X3945063Y-18387150D02*
X3964110Y-18396674D01*
X3964110Y-18396674D02*
X3973634Y-18415722D01*
X3973634Y-18415722D02*
X3973634Y-18520484D01*
X3973634Y-18415722D02*
X3983158Y-18396674D01*
X3983158Y-18396674D02*
X4002205Y-18387150D01*
X4002205Y-18387150D02*
X4030777Y-18387150D01*
X4030777Y-18387150D02*
X4049824Y-18396674D01*
X4049824Y-18396674D02*
X4059348Y-18415722D01*
X4059348Y-18415722D02*
X4059348Y-18520484D01*
X4154586Y-18520484D02*
X4154586Y-18387150D01*
X4154586Y-18406198D02*
X4164110Y-18396674D01*
X4164110Y-18396674D02*
X4183158Y-18387150D01*
X4183158Y-18387150D02*
X4211729Y-18387150D01*
X4211729Y-18387150D02*
X4230777Y-18396674D01*
X4230777Y-18396674D02*
X4240301Y-18415722D01*
X4240301Y-18415722D02*
X4240301Y-18520484D01*
X4240301Y-18415722D02*
X4249825Y-18396674D01*
X4249825Y-18396674D02*
X4268872Y-18387150D01*
X4268872Y-18387150D02*
X4297444Y-18387150D01*
X4297444Y-18387150D02*
X4316491Y-18396674D01*
X4316491Y-18396674D02*
X4326015Y-18415722D01*
X4326015Y-18415722D02*
X4326015Y-18520484D01*
X4716491Y-18310960D02*
X4545063Y-18568103D01*
X4973634Y-18320484D02*
X4992682Y-18320484D01*
X4992682Y-18320484D02*
X5011729Y-18330008D01*
X5011729Y-18330008D02*
X5021253Y-18339531D01*
X5021253Y-18339531D02*
X5030777Y-18358579D01*
X5030777Y-18358579D02*
X5040301Y-18396674D01*
X5040301Y-18396674D02*
X5040301Y-18444293D01*
X5040301Y-18444293D02*
X5030777Y-18482389D01*
X5030777Y-18482389D02*
X5021253Y-18501436D01*
X5021253Y-18501436D02*
X5011729Y-18510960D01*
X5011729Y-18510960D02*
X4992682Y-18520484D01*
X4992682Y-18520484D02*
X4973634Y-18520484D01*
X4973634Y-18520484D02*
X4954587Y-18510960D01*
X4954587Y-18510960D02*
X4945063Y-18501436D01*
X4945063Y-18501436D02*
X4935539Y-18482389D01*
X4935539Y-18482389D02*
X4926015Y-18444293D01*
X4926015Y-18444293D02*
X4926015Y-18396674D01*
X4926015Y-18396674D02*
X4935539Y-18358579D01*
X4935539Y-18358579D02*
X4945063Y-18339531D01*
X4945063Y-18339531D02*
X4954587Y-18330008D01*
X4954587Y-18330008D02*
X4973634Y-18320484D01*
X5126015Y-18501436D02*
X5135539Y-18510960D01*
X5135539Y-18510960D02*
X5126015Y-18520484D01*
X5126015Y-18520484D02*
X5116491Y-18510960D01*
X5116491Y-18510960D02*
X5126015Y-18501436D01*
X5126015Y-18501436D02*
X5126015Y-18520484D01*
X5259348Y-18320484D02*
X5278396Y-18320484D01*
X5278396Y-18320484D02*
X5297444Y-18330008D01*
X5297444Y-18330008D02*
X5306968Y-18339531D01*
X5306968Y-18339531D02*
X5316491Y-18358579D01*
X5316491Y-18358579D02*
X5326015Y-18396674D01*
X5326015Y-18396674D02*
X5326015Y-18444293D01*
X5326015Y-18444293D02*
X5316491Y-18482389D01*
X5316491Y-18482389D02*
X5306968Y-18501436D01*
X5306968Y-18501436D02*
X5297444Y-18510960D01*
X5297444Y-18510960D02*
X5278396Y-18520484D01*
X5278396Y-18520484D02*
X5259348Y-18520484D01*
X5259348Y-18520484D02*
X5240301Y-18510960D01*
X5240301Y-18510960D02*
X5230777Y-18501436D01*
X5230777Y-18501436D02*
X5221253Y-18482389D01*
X5221253Y-18482389D02*
X5211729Y-18444293D01*
X5211729Y-18444293D02*
X5211729Y-18396674D01*
X5211729Y-18396674D02*
X5221253Y-18358579D01*
X5221253Y-18358579D02*
X5230777Y-18339531D01*
X5230777Y-18339531D02*
X5240301Y-18330008D01*
X5240301Y-18330008D02*
X5259348Y-18320484D01*
X5506968Y-18320484D02*
X5411729Y-18320484D01*
X5411729Y-18320484D02*
X5402206Y-18415722D01*
X5402206Y-18415722D02*
X5411729Y-18406198D01*
X5411729Y-18406198D02*
X5430777Y-18396674D01*
X5430777Y-18396674D02*
X5478396Y-18396674D01*
X5478396Y-18396674D02*
X5497444Y-18406198D01*
X5497444Y-18406198D02*
X5506968Y-18415722D01*
X5506968Y-18415722D02*
X5516491Y-18434770D01*
X5516491Y-18434770D02*
X5516491Y-18482389D01*
X5516491Y-18482389D02*
X5506968Y-18501436D01*
X5506968Y-18501436D02*
X5497444Y-18510960D01*
X5497444Y-18510960D02*
X5478396Y-18520484D01*
X5478396Y-18520484D02*
X5430777Y-18520484D01*
X5430777Y-18520484D02*
X5411729Y-18510960D01*
X5411729Y-18510960D02*
X5402206Y-18501436D01*
X5706967Y-18520484D02*
X5592682Y-18520484D01*
X5649825Y-18520484D02*
X5649825Y-18320484D01*
X5649825Y-18320484D02*
X5630777Y-18349055D01*
X5630777Y-18349055D02*
X5611729Y-18368103D01*
X5611729Y-18368103D02*
X5592682Y-18377627D01*
X5830777Y-18320484D02*
X5849825Y-18320484D01*
X5849825Y-18320484D02*
X5868872Y-18330008D01*
X5868872Y-18330008D02*
X5878396Y-18339531D01*
X5878396Y-18339531D02*
X5887920Y-18358579D01*
X5887920Y-18358579D02*
X5897444Y-18396674D01*
X5897444Y-18396674D02*
X5897444Y-18444293D01*
X5897444Y-18444293D02*
X5887920Y-18482389D01*
X5887920Y-18482389D02*
X5878396Y-18501436D01*
X5878396Y-18501436D02*
X5868872Y-18510960D01*
X5868872Y-18510960D02*
X5849825Y-18520484D01*
X5849825Y-18520484D02*
X5830777Y-18520484D01*
X5830777Y-18520484D02*
X5811729Y-18510960D01*
X5811729Y-18510960D02*
X5802206Y-18501436D01*
X5802206Y-18501436D02*
X5792682Y-18482389D01*
X5792682Y-18482389D02*
X5783158Y-18444293D01*
X5783158Y-18444293D02*
X5783158Y-18396674D01*
X5783158Y-18396674D02*
X5792682Y-18358579D01*
X5792682Y-18358579D02*
X5802206Y-18339531D01*
X5802206Y-18339531D02*
X5811729Y-18330008D01*
X5811729Y-18330008D02*
X5830777Y-18320484D01*
X5973634Y-18320484D02*
X5973634Y-18358579D01*
X6049825Y-18320484D02*
X6049825Y-18358579D01*
X6345063Y-18596674D02*
X6335539Y-18587150D01*
X6335539Y-18587150D02*
X6316491Y-18558579D01*
X6316491Y-18558579D02*
X6306968Y-18539531D01*
X6306968Y-18539531D02*
X6297444Y-18510960D01*
X6297444Y-18510960D02*
X6287920Y-18463341D01*
X6287920Y-18463341D02*
X6287920Y-18425246D01*
X6287920Y-18425246D02*
X6297444Y-18377627D01*
X6297444Y-18377627D02*
X6306968Y-18349055D01*
X6306968Y-18349055D02*
X6316491Y-18330008D01*
X6316491Y-18330008D02*
X6335539Y-18301436D01*
X6335539Y-18301436D02*
X6345063Y-18291912D01*
X6526015Y-18520484D02*
X6411729Y-18520484D01*
X6468872Y-18520484D02*
X6468872Y-18320484D01*
X6468872Y-18320484D02*
X6449825Y-18349055D01*
X6449825Y-18349055D02*
X6430777Y-18368103D01*
X6430777Y-18368103D02*
X6411729Y-18377627D01*
X6764110Y-18520484D02*
X6764110Y-18320484D01*
X6849825Y-18520484D02*
X6849825Y-18415722D01*
X6849825Y-18415722D02*
X6840301Y-18396674D01*
X6840301Y-18396674D02*
X6821253Y-18387150D01*
X6821253Y-18387150D02*
X6792682Y-18387150D01*
X6792682Y-18387150D02*
X6773634Y-18396674D01*
X6773634Y-18396674D02*
X6764110Y-18406198D01*
X6973634Y-18520484D02*
X6954587Y-18510960D01*
X6954587Y-18510960D02*
X6945063Y-18501436D01*
X6945063Y-18501436D02*
X6935539Y-18482389D01*
X6935539Y-18482389D02*
X6935539Y-18425246D01*
X6935539Y-18425246D02*
X6945063Y-18406198D01*
X6945063Y-18406198D02*
X6954587Y-18396674D01*
X6954587Y-18396674D02*
X6973634Y-18387150D01*
X6973634Y-18387150D02*
X7002206Y-18387150D01*
X7002206Y-18387150D02*
X7021253Y-18396674D01*
X7021253Y-18396674D02*
X7030777Y-18406198D01*
X7030777Y-18406198D02*
X7040301Y-18425246D01*
X7040301Y-18425246D02*
X7040301Y-18482389D01*
X7040301Y-18482389D02*
X7030777Y-18501436D01*
X7030777Y-18501436D02*
X7021253Y-18510960D01*
X7021253Y-18510960D02*
X7002206Y-18520484D01*
X7002206Y-18520484D02*
X6973634Y-18520484D01*
X7154587Y-18520484D02*
X7135539Y-18510960D01*
X7135539Y-18510960D02*
X7126015Y-18491912D01*
X7126015Y-18491912D02*
X7126015Y-18320484D01*
X7306968Y-18510960D02*
X7287920Y-18520484D01*
X7287920Y-18520484D02*
X7249825Y-18520484D01*
X7249825Y-18520484D02*
X7230777Y-18510960D01*
X7230777Y-18510960D02*
X7221253Y-18491912D01*
X7221253Y-18491912D02*
X7221253Y-18415722D01*
X7221253Y-18415722D02*
X7230777Y-18396674D01*
X7230777Y-18396674D02*
X7249825Y-18387150D01*
X7249825Y-18387150D02*
X7287920Y-18387150D01*
X7287920Y-18387150D02*
X7306968Y-18396674D01*
X7306968Y-18396674D02*
X7316491Y-18415722D01*
X7316491Y-18415722D02*
X7316491Y-18434770D01*
X7316491Y-18434770D02*
X7221253Y-18453817D01*
X7383158Y-18596674D02*
X7392682Y-18587150D01*
X7392682Y-18587150D02*
X7411730Y-18558579D01*
X7411730Y-18558579D02*
X7421253Y-18539531D01*
X7421253Y-18539531D02*
X7430777Y-18510960D01*
X7430777Y-18510960D02*
X7440301Y-18463341D01*
X7440301Y-18463341D02*
X7440301Y-18425246D01*
X7440301Y-18425246D02*
X7430777Y-18377627D01*
X7430777Y-18377627D02*
X7421253Y-18349055D01*
X7421253Y-18349055D02*
X7411730Y-18330008D01*
X7411730Y-18330008D02*
X7392682Y-18301436D01*
X7392682Y-18301436D02*
X7383158Y-18291912D01*
X7745063Y-18596674D02*
X7735539Y-18587150D01*
X7735539Y-18587150D02*
X7716491Y-18558579D01*
X7716491Y-18558579D02*
X7706968Y-18539531D01*
X7706968Y-18539531D02*
X7697444Y-18510960D01*
X7697444Y-18510960D02*
X7687920Y-18463341D01*
X7687920Y-18463341D02*
X7687920Y-18425246D01*
X7687920Y-18425246D02*
X7697444Y-18377627D01*
X7697444Y-18377627D02*
X7706968Y-18349055D01*
X7706968Y-18349055D02*
X7716491Y-18330008D01*
X7716491Y-18330008D02*
X7735539Y-18301436D01*
X7735539Y-18301436D02*
X7745063Y-18291912D01*
X7821253Y-18387150D02*
X7821253Y-18520484D01*
X7821253Y-18406198D02*
X7830777Y-18396674D01*
X7830777Y-18396674D02*
X7849825Y-18387150D01*
X7849825Y-18387150D02*
X7878396Y-18387150D01*
X7878396Y-18387150D02*
X7897444Y-18396674D01*
X7897444Y-18396674D02*
X7906968Y-18415722D01*
X7906968Y-18415722D02*
X7906968Y-18520484D01*
X8030777Y-18520484D02*
X8011730Y-18510960D01*
X8011730Y-18510960D02*
X8002206Y-18501436D01*
X8002206Y-18501436D02*
X7992682Y-18482389D01*
X7992682Y-18482389D02*
X7992682Y-18425246D01*
X7992682Y-18425246D02*
X8002206Y-18406198D01*
X8002206Y-18406198D02*
X8011730Y-18396674D01*
X8011730Y-18396674D02*
X8030777Y-18387150D01*
X8030777Y-18387150D02*
X8059349Y-18387150D01*
X8059349Y-18387150D02*
X8078396Y-18396674D01*
X8078396Y-18396674D02*
X8087920Y-18406198D01*
X8087920Y-18406198D02*
X8097444Y-18425246D01*
X8097444Y-18425246D02*
X8097444Y-18482389D01*
X8097444Y-18482389D02*
X8087920Y-18501436D01*
X8087920Y-18501436D02*
X8078396Y-18510960D01*
X8078396Y-18510960D02*
X8059349Y-18520484D01*
X8059349Y-18520484D02*
X8030777Y-18520484D01*
X8154587Y-18387150D02*
X8230777Y-18387150D01*
X8183158Y-18320484D02*
X8183158Y-18491912D01*
X8183158Y-18491912D02*
X8192682Y-18510960D01*
X8192682Y-18510960D02*
X8211730Y-18520484D01*
X8211730Y-18520484D02*
X8230777Y-18520484D01*
X8449825Y-18387150D02*
X8449825Y-18587150D01*
X8449825Y-18396674D02*
X8468873Y-18387150D01*
X8468873Y-18387150D02*
X8506968Y-18387150D01*
X8506968Y-18387150D02*
X8526015Y-18396674D01*
X8526015Y-18396674D02*
X8535539Y-18406198D01*
X8535539Y-18406198D02*
X8545063Y-18425246D01*
X8545063Y-18425246D02*
X8545063Y-18482389D01*
X8545063Y-18482389D02*
X8535539Y-18501436D01*
X8535539Y-18501436D02*
X8526015Y-18510960D01*
X8526015Y-18510960D02*
X8506968Y-18520484D01*
X8506968Y-18520484D02*
X8468873Y-18520484D01*
X8468873Y-18520484D02*
X8449825Y-18510960D01*
X8659349Y-18520484D02*
X8640301Y-18510960D01*
X8640301Y-18510960D02*
X8630777Y-18491912D01*
X8630777Y-18491912D02*
X8630777Y-18320484D01*
X8821254Y-18520484D02*
X8821254Y-18415722D01*
X8821254Y-18415722D02*
X8811730Y-18396674D01*
X8811730Y-18396674D02*
X8792682Y-18387150D01*
X8792682Y-18387150D02*
X8754587Y-18387150D01*
X8754587Y-18387150D02*
X8735539Y-18396674D01*
X8821254Y-18510960D02*
X8802206Y-18520484D01*
X8802206Y-18520484D02*
X8754587Y-18520484D01*
X8754587Y-18520484D02*
X8735539Y-18510960D01*
X8735539Y-18510960D02*
X8726015Y-18491912D01*
X8726015Y-18491912D02*
X8726015Y-18472865D01*
X8726015Y-18472865D02*
X8735539Y-18453817D01*
X8735539Y-18453817D02*
X8754587Y-18444293D01*
X8754587Y-18444293D02*
X8802206Y-18444293D01*
X8802206Y-18444293D02*
X8821254Y-18434770D01*
X8887920Y-18387150D02*
X8964111Y-18387150D01*
X8916492Y-18320484D02*
X8916492Y-18491912D01*
X8916492Y-18491912D02*
X8926015Y-18510960D01*
X8926015Y-18510960D02*
X8945063Y-18520484D01*
X8945063Y-18520484D02*
X8964111Y-18520484D01*
X9106968Y-18510960D02*
X9087920Y-18520484D01*
X9087920Y-18520484D02*
X9049825Y-18520484D01*
X9049825Y-18520484D02*
X9030777Y-18510960D01*
X9030777Y-18510960D02*
X9021254Y-18491912D01*
X9021254Y-18491912D02*
X9021254Y-18415722D01*
X9021254Y-18415722D02*
X9030777Y-18396674D01*
X9030777Y-18396674D02*
X9049825Y-18387150D01*
X9049825Y-18387150D02*
X9087920Y-18387150D01*
X9087920Y-18387150D02*
X9106968Y-18396674D01*
X9106968Y-18396674D02*
X9116492Y-18415722D01*
X9116492Y-18415722D02*
X9116492Y-18434770D01*
X9116492Y-18434770D02*
X9021254Y-18453817D01*
X9287920Y-18520484D02*
X9287920Y-18320484D01*
X9287920Y-18510960D02*
X9268873Y-18520484D01*
X9268873Y-18520484D02*
X9230777Y-18520484D01*
X9230777Y-18520484D02*
X9211730Y-18510960D01*
X9211730Y-18510960D02*
X9202206Y-18501436D01*
X9202206Y-18501436D02*
X9192682Y-18482389D01*
X9192682Y-18482389D02*
X9192682Y-18425246D01*
X9192682Y-18425246D02*
X9202206Y-18406198D01*
X9202206Y-18406198D02*
X9211730Y-18396674D01*
X9211730Y-18396674D02*
X9230777Y-18387150D01*
X9230777Y-18387150D02*
X9268873Y-18387150D01*
X9268873Y-18387150D02*
X9287920Y-18396674D01*
X9364111Y-18596674D02*
X9373635Y-18587150D01*
X9373635Y-18587150D02*
X9392682Y-18558579D01*
X9392682Y-18558579D02*
X9402206Y-18539531D01*
X9402206Y-18539531D02*
X9411730Y-18510960D01*
X9411730Y-18510960D02*
X9421254Y-18463341D01*
X9421254Y-18463341D02*
X9421254Y-18425246D01*
X9421254Y-18425246D02*
X9411730Y-18377627D01*
X9411730Y-18377627D02*
X9402206Y-18349055D01*
X9402206Y-18349055D02*
X9392682Y-18330008D01*
X9392682Y-18330008D02*
X9373635Y-18301436D01*
X9373635Y-18301436D02*
X9364111Y-18291912D01*
M02*
