M48
; DRILL file {KiCad 8.0.5} date 2024-11-21T04:34:33-0500
; FORMAT={-:-/ absolute / metric / decimal}
; #@! TF.CreationDate,2024-11-21T04:34:33-05:00
; #@! TF.GenerationSoftware,Kicad,Pcbnew,8.0.5
; #@! TF.FileFunction,Plated,1,4,PTH
FMAT,2
METRIC
; #@! TA.AperFunction,Plated,PTH,ViaDrill
T1C0.200
; #@! TA.AperFunction,Plated,PTH,ViaDrill
T2C0.300
; #@! TA.AperFunction,Plated,PTH,ComponentDrill
T3C0.760
; #@! TA.AperFunction,Plated,PTH,ComponentDrill
T4C0.800
; #@! TA.AperFunction,Plated,PTH,ComponentDrill
T5C0.813
; #@! TA.AperFunction,Plated,PTH,ComponentDrill
T6C1.000
; #@! TA.AperFunction,Plated,PTH,ComponentDrill
T7C1.067
; #@! TA.AperFunction,Plated,PTH,ComponentDrill
T8C2.510
%
G90
G05
T1
X37.17Y-126.46
X37.26Y-134.28
X37.28Y-132.29
X38.39Y-125.12
X38.4Y-127.84
X38.51Y-130.94
X38.63Y-135.72
X40.46Y-125.12
X41.74Y-126.47
X42.85Y-127.225
X43.125Y-121.675
X43.14Y-119.64
X43.78Y-126.861
X43.853Y-135.727
X44.525Y-126.95
X44.575Y-135.525
X44.59Y-118.32
X44.61Y-132.86
X45.42Y-135.65
X45.475Y-132.575
X45.825Y-112.86
X46.475Y-110.685
X46.525Y-131.65
X47.175Y-117.65
X47.35Y-132.65
X48.0Y-112.035
X49.7Y-127.25
X49.7Y-132.2
X51.52Y-132.79
X51.54Y-135.72
X51.76Y-127.41
X51.77Y-132.14
X52.85Y-134.3
X53.09Y-128.8
X53.13Y-130.8
X65.19Y-94.37
X65.26Y-58.87
X65.66Y-93.4
X65.76Y-59.475
X66.0Y-134.61
X66.2Y-85.21
X66.3Y-87.3
X66.32Y-78.64
X67.35Y-133.16
X67.36Y-136.13
X67.625Y-83.9
X67.7Y-88.7
X67.725Y-80.1
X68.19Y-81.44
X68.32Y-127.94
X68.6Y-60.275
X68.6Y-93.39
X69.3Y-88.675
X69.362Y-80.062
X69.487Y-85.712
X69.5Y-76.82
X69.53Y-126.63
X69.55Y-129.31
X69.6Y-83.0
X70.09Y-94.33
X70.2Y-60.875
X71.0Y-105.175
X71.01Y-61.435
X71.6Y-83.0
X71.8Y-88.575
X71.82Y-91.9
X71.825Y-80.05
X72.42Y-126.6
X72.5Y-134.25
X72.52Y-124.54
X72.6Y-62.035
X72.6Y-105.775
X72.67Y-131.69
X72.97Y-81.53
X73.025Y-127.975
X73.4Y-62.61
X73.4Y-98.835
X73.91Y-123.33
X74.1Y-80.25
X74.11Y-76.83
X74.162Y-85.8
X74.2Y-88.575
X74.25Y-135.125
X74.4Y-83.0
X75.0Y-63.31
X75.0Y-99.585
X75.25Y-124.53
X75.35Y-128.18
X75.47Y-122.33
X75.625Y-129.5
X75.625Y-130.525
X75.65Y-131.7
X75.8Y-64.06
X75.8Y-100.11
X76.575Y-88.575
X76.6Y-80.225
X76.62Y-126.83
X76.65Y-121.0
X76.67Y-123.69
X76.69Y-92.04
X77.4Y-64.785
X77.4Y-100.685
X77.7Y-81.6
X78.08Y-76.87
X78.2Y-79.9
X78.2Y-133.65
X78.25Y-88.475
X78.537Y-85.8
X78.74Y-120.98
X78.825Y-132.325
X79.0Y-102.175
X79.775Y-92.985
X79.8Y-73.325
X80.15Y-135.17
X80.425Y-122.35
X80.6Y-58.3
X80.6Y-106.35
X80.62Y-85.69
X81.4Y-75.86
X81.4Y-101.46
X81.55Y-132.95
X81.62Y-134.31
X81.65Y-87.125
X82.025Y-131.05
X82.2Y-92.31
X82.575Y-129.675
X82.825Y-131.725
X83.0Y-67.835
X83.0Y-103.935
X83.525Y-130.425
X83.8Y-69.235
X83.8Y-104.575
X84.6Y-69.835
X84.6Y-97.835
X84.75Y-134.36
X85.05Y-87.25
X85.4Y-70.535
X85.4Y-95.685
X86.02Y-132.98
X86.08Y-85.82
X86.2Y-94.935
X86.21Y-71.01
X87.0Y-76.435
X87.0Y-94.335
X87.7Y-77.135
X87.8Y-93.71
X88.2Y-85.7
X88.55Y-88.525
X88.6Y-80.275
X89.89Y-78.62
X91.77Y-73.325
X91.77Y-102.67
X92.245Y-68.635
X92.245Y-97.84
X92.72Y-67.31
X92.73Y-98.83
X93.205Y-66.585
X93.205Y-99.59
X93.68Y-65.985
X93.68Y-100.1
X94.16Y-65.335
X94.16Y-100.71
X94.63Y-71.435
X94.64Y-101.46
X95.11Y-79.008
X95.125Y-92.31
X95.6Y-79.735
X95.6Y-92.99
X96.075Y-93.71
X96.08Y-86.19
X96.2Y-140.05
X96.55Y-86.785
X96.55Y-94.36
X97.025Y-94.985
X97.03Y-87.285
X97.225Y-135.925
X97.25Y-122.425
X97.5Y-87.95
X97.5Y-95.685
X98.05Y-79.3
X98.05Y-131.05
X98.85Y-80.36
X98.85Y-120.81
X98.86Y-140.05
X99.425Y-75.87
X99.425Y-78.25
X99.875Y-57.725
X99.9Y-88.36
X100.025Y-135.95
X100.625Y-57.725
X100.775Y-88.835
X101.3Y-141.0
X101.35Y-89.435
X101.375Y-57.725
X101.525Y-140.05
X102.25Y-123.85
X102.25Y-131.7
X102.3Y-76.435
X102.3Y-85.235
X102.825Y-124.525
X102.825Y-130.375
X103.4Y-77.135
X103.4Y-85.735
X103.4Y-123.125
X103.4Y-129.625
X103.75Y-74.61
X104.07Y-137.62
X104.075Y-142.15
X104.2Y-57.725
X104.225Y-90.021
X104.95Y-57.725
X105.175Y-90.535
X105.32Y-148.88
X105.67Y-140.57
X105.69Y-138.92
X105.775Y-72.36
X105.9Y-57.725
X105.9Y-91.119
X106.475Y-55.65
X106.475Y-91.71
X106.925Y-150.45
X107.025Y-145.275
X107.201Y-55.462
X107.3Y-92.235
X107.75Y-57.725
X107.75Y-83.31
X107.803Y-84.058
X107.875Y-103.36
X108.05Y-133.025
X108.6Y-140.525
X108.7Y-72.4
X108.875Y-131.625
X108.875Y-147.45
X109.55Y-131.65
X109.97Y-137.1
X110.3Y-132.4
X110.56Y-131.68
X110.6Y-72.0
X110.6Y-78.5
X110.6Y-89.785
X110.63Y-85.87
X110.63Y-89.08
X110.675Y-79.4
X110.675Y-87.85
X110.7Y-76.01
X110.775Y-92.95
X110.8Y-83.4
X111.3Y-74.2
X111.52Y-140.21
X111.53Y-128.73
X111.55Y-131.7
X111.675Y-135.8
X111.828Y-95.912
X111.9Y-102.21
X112.0Y-137.125
X112.05Y-84.55
X112.375Y-92.9
X112.51Y-140.19
X112.55Y-74.21
X112.575Y-95.85
X112.575Y-102.785
X112.6Y-156.125
X112.77Y-131.78
X112.95Y-133.65
X112.95Y-135.275
X113.0Y-128.85
X113.025Y-137.25
X113.1Y-112.81
X113.15Y-74.835
X113.725Y-74.21
X113.725Y-112.035
X114.14Y-154.53
X114.662Y-110.672
X114.675Y-148.35
X114.725Y-74.235
X115.8Y-91.5
X115.825Y-77.3
X115.86Y-80.28
X115.896Y-96.265
X116.25Y-81.225
X116.29Y-90.0
X116.3Y-132.675
X116.375Y-131.675
X116.456Y-136.631
X116.5Y-136.1
X116.526Y-95.696
X116.6Y-135.225
X116.82Y-146.96
X117.2Y-92.925
X117.275Y-95.725
X117.275Y-106.35
X117.725Y-88.65
X117.8Y-86.45
X117.95Y-77.4
X118.0Y-74.1
X118.25Y-145.45
X118.346Y-71.514
X118.8Y-92.9
X119.02Y-95.83
X119.1Y-80.875
X119.1Y-90.1
X119.24Y-74.19
X119.27Y-75.82
X120.08Y-92.79
X120.9Y-91.3
X121.2Y-75.8
X121.6Y-83.4
X121.61Y-88.13
X121.8Y-95.675
X121.825Y-67.185
X121.825Y-122.425
X121.85Y-71.46
X122.125Y-92.725
X122.24Y-80.79
X122.275Y-78.65
X122.38Y-74.23
X122.45Y-66.585
X122.45Y-70.585
X122.625Y-95.55
X122.625Y-107.775
X123.05Y-65.985
X123.05Y-71.435
X123.2Y-86.6
X123.2Y-96.8
X123.8Y-107.05
X123.825Y-95.775
X123.9Y-65.335
X123.9Y-71.41
X124.075Y-74.235
X124.08Y-89.82
X124.5Y-64.76
X124.5Y-70.885
X124.675Y-95.675
X124.7Y-106.375
X125.05Y-64.06
X125.075Y-70.385
X125.3Y-91.3
X125.65Y-63.31
X125.65Y-69.685
X125.725Y-95.675
X125.75Y-105.775
X125.85Y-143.75
X125.91Y-78.94
X125.91Y-84.17
X125.98Y-53.25
X126.0Y-75.8
X126.1Y-81.1
X126.1Y-90.61
X126.225Y-69.185
X126.25Y-62.61
X126.3Y-92.7
X126.625Y-142.325
X126.8Y-68.686
X126.9Y-62.01
X127.025Y-95.7
X127.05Y-105.175
X127.325Y-71.26
X127.4Y-141.75
X127.475Y-55.5
X127.5Y-77.7
X127.6Y-82.9
X127.6Y-87.4
X127.7Y-89.4
X128.05Y-56.9
X128.05Y-70.744
X128.775Y-74.225
X129.075Y-95.65
X129.075Y-117.625
X129.1Y-79.4
X129.225Y-84.775
X129.225Y-86.075
X129.25Y-54.67
X129.25Y-80.775
X129.25Y-92.55
X130.48Y-53.36
X130.925Y-120.81
X132.3Y-79.8
X132.4Y-85.3
X134.28Y-130.46
X134.725Y-140.6
X134.98Y-93.35
X135.725Y-132.05
X136.25Y-91.875
X137.4Y-86.325
X137.4Y-123.1
X137.95Y-123.725
X138.0Y-74.725
X138.65Y-75.3
X138.65Y-124.6
X139.2Y-61.435
X139.225Y-76.8
X139.925Y-60.95
X139.95Y-77.275
X140.575Y-60.35
X140.575Y-77.825
X141.2Y-78.275
X141.275Y-100.3
X141.9Y-78.75
X141.9Y-100.975
X142.525Y-59.475
X142.525Y-80.775
X142.92Y-147.29
X143.1Y-58.875
X143.125Y-81.375
X143.9Y-82.75
X143.9Y-103.935
X144.29Y-148.48
X144.55Y-83.3
X144.55Y-104.575
X145.025Y-84.785
X145.03Y-58.3
X145.3Y-88.75
X145.325Y-143.75
X145.875Y-142.325
X145.9Y-89.775
X146.475Y-90.35
X146.475Y-141.725
X146.95Y-90.925
X147.425Y-94.197
X147.9Y-105.85
X147.94Y-63.325
X148.415Y-63.99
X148.415Y-105.175
X148.885Y-87.285
X148.885Y-99.325
X154.213Y-65.44
X154.795Y-66.015
X155.445Y-66.615
X155.445Y-107.805
X155.97Y-91.03
X156.02Y-106.455
X156.195Y-67.265
X156.27Y-78.13
X156.645Y-99.355
X157.45Y-76.31
X157.64Y-136.04
X157.945Y-92.955
X158.16Y-73.1
X158.19Y-95.92
X158.869Y-76.176
X158.97Y-92.88
X159.1Y-73.14
X159.13Y-95.87
X159.46Y-89.6
X159.75Y-79.48
X160.12Y-100.255
X160.395Y-63.355
X160.62Y-101.005
X160.79Y-91.02
X160.97Y-63.98
X161.095Y-107.08
X161.17Y-78.03
X161.37Y-58.88
X161.72Y-103.39
X161.995Y-59.605
T2
X67.52Y-150.91
X71.5Y-85.7
X76.237Y-85.9
X83.15Y-151.26
X100.54Y-96.65
X100.89Y-155.96
X103.325Y-143.75
X104.03Y-95.2
X104.09Y-98.16
X105.42Y-96.67
X107.125Y-143.75
X108.15Y-135.725
X109.45Y-148.375
X110.76Y-85.15
X110.8Y-91.787
X110.81Y-77.31
X112.1Y-76.0
X113.175Y-143.75
X115.875Y-74.4
X117.95Y-84.5
X121.92Y-156.15
X123.006Y-74.191
X123.41Y-154.78
X123.91Y-92.6
X125.06Y-156.21
X125.85Y-159.85
X128.26Y-164.11
X128.99Y-159.77
X129.325Y-91.525
X130.55Y-68.41
X133.94Y-69.93
X135.4Y-68.58
X135.42Y-73.46
X137.01Y-69.91
X160.891Y-123.538
X162.431Y-122.208
X162.441Y-127.068
X163.911Y-121.938
X163.941Y-123.548
X163.941Y-125.598
X165.391Y-120.548
X165.411Y-125.338
X166.931Y-123.978
X166.991Y-121.908
T3
X93.83Y-165.175
X96.37Y-165.175
X98.91Y-165.175
X101.45Y-165.175
X109.03Y-165.1
X111.57Y-165.1
X114.11Y-165.1
X116.65Y-165.1
T4
X63.23Y-150.5
X65.73Y-150.5
X84.89Y-150.78
X87.39Y-150.78
X92.44Y-160.975
X102.84Y-160.975
X107.64Y-160.9
X118.04Y-160.9
X121.645Y-151.4
X123.645Y-151.4
X156.601Y-121.871
X156.601Y-124.371
T5
X120.675Y-138.0
X123.175Y-138.0
X125.675Y-138.0
T6
X87.63Y-50.45
X90.17Y-50.45
X92.71Y-50.45
X95.25Y-50.45
X97.79Y-50.45
X100.33Y-50.45
X102.87Y-50.45
X105.41Y-50.45
X107.95Y-50.45
X121.78Y-50.45
X124.32Y-50.45
X126.86Y-50.45
X129.4Y-50.45
X150.83Y-140.96
X153.37Y-140.96
X155.91Y-140.96
X158.45Y-140.96
T7
X171.186Y-121.773
X171.186Y-124.313
X171.186Y-126.853
X171.186Y-129.393
T8
X33.225Y-160.225
X38.525Y-160.225
X52.525Y-160.225
X63.05Y-160.25
X68.35Y-160.25
X82.35Y-160.25
M30
