%TF.GenerationSoftware,KiCad,Pcbnew,8.0.5*%
%TF.CreationDate,2024-11-21T16:22:30-05:00*%
%TF.ProjectId,PCB_Order3,5043425f-4f72-4646-9572-332e6b696361,rev?*%
%TF.SameCoordinates,Original*%
%TF.FileFunction,Drillmap*%
%TF.FilePolarity,Positive*%
%FSLAX45Y45*%
G04 Gerber Fmt 4.5, Leading zero omitted, Abs format (unit mm)*
G04 Created by KiCad (PCBNEW 8.0.5) date 2024-11-21 16:22:30*
%MOMM*%
%LPD*%
G01*
G04 APERTURE LIST*
%ADD10C,0.200000*%
%ADD11C,0.100000*%
%ADD12C,0.129540*%
G04 APERTURE END LIST*
D10*
X8345000Y-2090000D02*
X23345000Y-2090000D01*
X23345000Y-15090000D01*
X8345000Y-15090000D01*
X8345000Y-2090000D01*
D11*
X18040000Y-13997500D02*
X18130000Y-14087500D01*
X18130000Y-13997500D02*
X18040000Y-14087500D01*
X18480000Y-13997500D02*
X18570000Y-14087500D01*
X18570000Y-13997500D02*
X18480000Y-14087500D01*
D12*
X22964385Y-10260340D02*
G75*
G02*
X22834845Y-10260340I-64770J0D01*
G01*
X22834845Y-10260340D02*
G75*
G02*
X22964385Y-10260340I64770J0D01*
G01*
D10*
X8595777Y-15411484D02*
X8595777Y-15211484D01*
X8595777Y-15211484D02*
X8643396Y-15211484D01*
X8643396Y-15211484D02*
X8671967Y-15221008D01*
X8671967Y-15221008D02*
X8691015Y-15240055D01*
X8691015Y-15240055D02*
X8700539Y-15259103D01*
X8700539Y-15259103D02*
X8710063Y-15297198D01*
X8710063Y-15297198D02*
X8710063Y-15325769D01*
X8710063Y-15325769D02*
X8700539Y-15363865D01*
X8700539Y-15363865D02*
X8691015Y-15382912D01*
X8691015Y-15382912D02*
X8671967Y-15401960D01*
X8671967Y-15401960D02*
X8643396Y-15411484D01*
X8643396Y-15411484D02*
X8595777Y-15411484D01*
X8795777Y-15411484D02*
X8795777Y-15278150D01*
X8795777Y-15316246D02*
X8805301Y-15297198D01*
X8805301Y-15297198D02*
X8814824Y-15287674D01*
X8814824Y-15287674D02*
X8833872Y-15278150D01*
X8833872Y-15278150D02*
X8852920Y-15278150D01*
X8919586Y-15411484D02*
X8919586Y-15278150D01*
X8919586Y-15211484D02*
X8910063Y-15221008D01*
X8910063Y-15221008D02*
X8919586Y-15230531D01*
X8919586Y-15230531D02*
X8929110Y-15221008D01*
X8929110Y-15221008D02*
X8919586Y-15211484D01*
X8919586Y-15211484D02*
X8919586Y-15230531D01*
X9043396Y-15411484D02*
X9024348Y-15401960D01*
X9024348Y-15401960D02*
X9014824Y-15382912D01*
X9014824Y-15382912D02*
X9014824Y-15211484D01*
X9148158Y-15411484D02*
X9129110Y-15401960D01*
X9129110Y-15401960D02*
X9119586Y-15382912D01*
X9119586Y-15382912D02*
X9119586Y-15211484D01*
X9376729Y-15411484D02*
X9376729Y-15211484D01*
X9376729Y-15211484D02*
X9443396Y-15354341D01*
X9443396Y-15354341D02*
X9510063Y-15211484D01*
X9510063Y-15211484D02*
X9510063Y-15411484D01*
X9691015Y-15411484D02*
X9691015Y-15306722D01*
X9691015Y-15306722D02*
X9681491Y-15287674D01*
X9681491Y-15287674D02*
X9662444Y-15278150D01*
X9662444Y-15278150D02*
X9624348Y-15278150D01*
X9624348Y-15278150D02*
X9605301Y-15287674D01*
X9691015Y-15401960D02*
X9671967Y-15411484D01*
X9671967Y-15411484D02*
X9624348Y-15411484D01*
X9624348Y-15411484D02*
X9605301Y-15401960D01*
X9605301Y-15401960D02*
X9595777Y-15382912D01*
X9595777Y-15382912D02*
X9595777Y-15363865D01*
X9595777Y-15363865D02*
X9605301Y-15344817D01*
X9605301Y-15344817D02*
X9624348Y-15335293D01*
X9624348Y-15335293D02*
X9671967Y-15335293D01*
X9671967Y-15335293D02*
X9691015Y-15325769D01*
X9786253Y-15278150D02*
X9786253Y-15478150D01*
X9786253Y-15287674D02*
X9805301Y-15278150D01*
X9805301Y-15278150D02*
X9843396Y-15278150D01*
X9843396Y-15278150D02*
X9862444Y-15287674D01*
X9862444Y-15287674D02*
X9871967Y-15297198D01*
X9871967Y-15297198D02*
X9881491Y-15316246D01*
X9881491Y-15316246D02*
X9881491Y-15373388D01*
X9881491Y-15373388D02*
X9871967Y-15392436D01*
X9871967Y-15392436D02*
X9862444Y-15401960D01*
X9862444Y-15401960D02*
X9843396Y-15411484D01*
X9843396Y-15411484D02*
X9805301Y-15411484D01*
X9805301Y-15411484D02*
X9786253Y-15401960D01*
X9967205Y-15392436D02*
X9976729Y-15401960D01*
X9976729Y-15401960D02*
X9967205Y-15411484D01*
X9967205Y-15411484D02*
X9957682Y-15401960D01*
X9957682Y-15401960D02*
X9967205Y-15392436D01*
X9967205Y-15392436D02*
X9967205Y-15411484D01*
X9967205Y-15287674D02*
X9976729Y-15297198D01*
X9976729Y-15297198D02*
X9967205Y-15306722D01*
X9967205Y-15306722D02*
X9957682Y-15297198D01*
X9957682Y-15297198D02*
X9967205Y-15287674D01*
X9967205Y-15287674D02*
X9967205Y-15306722D01*
D11*
X8245000Y-15695000D02*
X8335000Y-15785000D01*
X8335000Y-15695000D02*
X8245000Y-15785000D01*
D10*
X8633872Y-15631484D02*
X8652920Y-15631484D01*
X8652920Y-15631484D02*
X8671967Y-15641008D01*
X8671967Y-15641008D02*
X8681491Y-15650531D01*
X8681491Y-15650531D02*
X8691015Y-15669579D01*
X8691015Y-15669579D02*
X8700539Y-15707674D01*
X8700539Y-15707674D02*
X8700539Y-15755293D01*
X8700539Y-15755293D02*
X8691015Y-15793388D01*
X8691015Y-15793388D02*
X8681491Y-15812436D01*
X8681491Y-15812436D02*
X8671967Y-15821960D01*
X8671967Y-15821960D02*
X8652920Y-15831484D01*
X8652920Y-15831484D02*
X8633872Y-15831484D01*
X8633872Y-15831484D02*
X8614824Y-15821960D01*
X8614824Y-15821960D02*
X8605301Y-15812436D01*
X8605301Y-15812436D02*
X8595777Y-15793388D01*
X8595777Y-15793388D02*
X8586253Y-15755293D01*
X8586253Y-15755293D02*
X8586253Y-15707674D01*
X8586253Y-15707674D02*
X8595777Y-15669579D01*
X8595777Y-15669579D02*
X8605301Y-15650531D01*
X8605301Y-15650531D02*
X8614824Y-15641008D01*
X8614824Y-15641008D02*
X8633872Y-15631484D01*
X8786253Y-15812436D02*
X8795777Y-15821960D01*
X8795777Y-15821960D02*
X8786253Y-15831484D01*
X8786253Y-15831484D02*
X8776729Y-15821960D01*
X8776729Y-15821960D02*
X8786253Y-15812436D01*
X8786253Y-15812436D02*
X8786253Y-15831484D01*
X8891015Y-15831484D02*
X8929110Y-15831484D01*
X8929110Y-15831484D02*
X8948158Y-15821960D01*
X8948158Y-15821960D02*
X8957682Y-15812436D01*
X8957682Y-15812436D02*
X8976729Y-15783865D01*
X8976729Y-15783865D02*
X8986253Y-15745769D01*
X8986253Y-15745769D02*
X8986253Y-15669579D01*
X8986253Y-15669579D02*
X8976729Y-15650531D01*
X8976729Y-15650531D02*
X8967205Y-15641008D01*
X8967205Y-15641008D02*
X8948158Y-15631484D01*
X8948158Y-15631484D02*
X8910063Y-15631484D01*
X8910063Y-15631484D02*
X8891015Y-15641008D01*
X8891015Y-15641008D02*
X8881491Y-15650531D01*
X8881491Y-15650531D02*
X8871967Y-15669579D01*
X8871967Y-15669579D02*
X8871967Y-15717198D01*
X8871967Y-15717198D02*
X8881491Y-15736246D01*
X8881491Y-15736246D02*
X8891015Y-15745769D01*
X8891015Y-15745769D02*
X8910063Y-15755293D01*
X8910063Y-15755293D02*
X8948158Y-15755293D01*
X8948158Y-15755293D02*
X8967205Y-15745769D01*
X8967205Y-15745769D02*
X8976729Y-15736246D01*
X8976729Y-15736246D02*
X8986253Y-15717198D01*
X9110063Y-15631484D02*
X9129110Y-15631484D01*
X9129110Y-15631484D02*
X9148158Y-15641008D01*
X9148158Y-15641008D02*
X9157682Y-15650531D01*
X9157682Y-15650531D02*
X9167205Y-15669579D01*
X9167205Y-15669579D02*
X9176729Y-15707674D01*
X9176729Y-15707674D02*
X9176729Y-15755293D01*
X9176729Y-15755293D02*
X9167205Y-15793388D01*
X9167205Y-15793388D02*
X9157682Y-15812436D01*
X9157682Y-15812436D02*
X9148158Y-15821960D01*
X9148158Y-15821960D02*
X9129110Y-15831484D01*
X9129110Y-15831484D02*
X9110063Y-15831484D01*
X9110063Y-15831484D02*
X9091015Y-15821960D01*
X9091015Y-15821960D02*
X9081491Y-15812436D01*
X9081491Y-15812436D02*
X9071967Y-15793388D01*
X9071967Y-15793388D02*
X9062444Y-15755293D01*
X9062444Y-15755293D02*
X9062444Y-15707674D01*
X9062444Y-15707674D02*
X9071967Y-15669579D01*
X9071967Y-15669579D02*
X9081491Y-15650531D01*
X9081491Y-15650531D02*
X9091015Y-15641008D01*
X9091015Y-15641008D02*
X9110063Y-15631484D01*
X9300539Y-15631484D02*
X9319586Y-15631484D01*
X9319586Y-15631484D02*
X9338634Y-15641008D01*
X9338634Y-15641008D02*
X9348158Y-15650531D01*
X9348158Y-15650531D02*
X9357682Y-15669579D01*
X9357682Y-15669579D02*
X9367205Y-15707674D01*
X9367205Y-15707674D02*
X9367205Y-15755293D01*
X9367205Y-15755293D02*
X9357682Y-15793388D01*
X9357682Y-15793388D02*
X9348158Y-15812436D01*
X9348158Y-15812436D02*
X9338634Y-15821960D01*
X9338634Y-15821960D02*
X9319586Y-15831484D01*
X9319586Y-15831484D02*
X9300539Y-15831484D01*
X9300539Y-15831484D02*
X9281491Y-15821960D01*
X9281491Y-15821960D02*
X9271967Y-15812436D01*
X9271967Y-15812436D02*
X9262444Y-15793388D01*
X9262444Y-15793388D02*
X9252920Y-15755293D01*
X9252920Y-15755293D02*
X9252920Y-15707674D01*
X9252920Y-15707674D02*
X9262444Y-15669579D01*
X9262444Y-15669579D02*
X9271967Y-15650531D01*
X9271967Y-15650531D02*
X9281491Y-15641008D01*
X9281491Y-15641008D02*
X9300539Y-15631484D01*
X9452920Y-15831484D02*
X9452920Y-15698150D01*
X9452920Y-15717198D02*
X9462444Y-15707674D01*
X9462444Y-15707674D02*
X9481491Y-15698150D01*
X9481491Y-15698150D02*
X9510063Y-15698150D01*
X9510063Y-15698150D02*
X9529110Y-15707674D01*
X9529110Y-15707674D02*
X9538634Y-15726722D01*
X9538634Y-15726722D02*
X9538634Y-15831484D01*
X9538634Y-15726722D02*
X9548158Y-15707674D01*
X9548158Y-15707674D02*
X9567205Y-15698150D01*
X9567205Y-15698150D02*
X9595777Y-15698150D01*
X9595777Y-15698150D02*
X9614825Y-15707674D01*
X9614825Y-15707674D02*
X9624348Y-15726722D01*
X9624348Y-15726722D02*
X9624348Y-15831484D01*
X9719586Y-15831484D02*
X9719586Y-15698150D01*
X9719586Y-15717198D02*
X9729110Y-15707674D01*
X9729110Y-15707674D02*
X9748158Y-15698150D01*
X9748158Y-15698150D02*
X9776729Y-15698150D01*
X9776729Y-15698150D02*
X9795777Y-15707674D01*
X9795777Y-15707674D02*
X9805301Y-15726722D01*
X9805301Y-15726722D02*
X9805301Y-15831484D01*
X9805301Y-15726722D02*
X9814825Y-15707674D01*
X9814825Y-15707674D02*
X9833872Y-15698150D01*
X9833872Y-15698150D02*
X9862444Y-15698150D01*
X9862444Y-15698150D02*
X9881491Y-15707674D01*
X9881491Y-15707674D02*
X9891015Y-15726722D01*
X9891015Y-15726722D02*
X9891015Y-15831484D01*
X10281491Y-15621960D02*
X10110063Y-15879103D01*
X10538634Y-15631484D02*
X10557682Y-15631484D01*
X10557682Y-15631484D02*
X10576729Y-15641008D01*
X10576729Y-15641008D02*
X10586253Y-15650531D01*
X10586253Y-15650531D02*
X10595777Y-15669579D01*
X10595777Y-15669579D02*
X10605301Y-15707674D01*
X10605301Y-15707674D02*
X10605301Y-15755293D01*
X10605301Y-15755293D02*
X10595777Y-15793388D01*
X10595777Y-15793388D02*
X10586253Y-15812436D01*
X10586253Y-15812436D02*
X10576729Y-15821960D01*
X10576729Y-15821960D02*
X10557682Y-15831484D01*
X10557682Y-15831484D02*
X10538634Y-15831484D01*
X10538634Y-15831484D02*
X10519587Y-15821960D01*
X10519587Y-15821960D02*
X10510063Y-15812436D01*
X10510063Y-15812436D02*
X10500539Y-15793388D01*
X10500539Y-15793388D02*
X10491015Y-15755293D01*
X10491015Y-15755293D02*
X10491015Y-15707674D01*
X10491015Y-15707674D02*
X10500539Y-15669579D01*
X10500539Y-15669579D02*
X10510063Y-15650531D01*
X10510063Y-15650531D02*
X10519587Y-15641008D01*
X10519587Y-15641008D02*
X10538634Y-15631484D01*
X10691015Y-15812436D02*
X10700539Y-15821960D01*
X10700539Y-15821960D02*
X10691015Y-15831484D01*
X10691015Y-15831484D02*
X10681491Y-15821960D01*
X10681491Y-15821960D02*
X10691015Y-15812436D01*
X10691015Y-15812436D02*
X10691015Y-15831484D01*
X10824348Y-15631484D02*
X10843396Y-15631484D01*
X10843396Y-15631484D02*
X10862444Y-15641008D01*
X10862444Y-15641008D02*
X10871968Y-15650531D01*
X10871968Y-15650531D02*
X10881491Y-15669579D01*
X10881491Y-15669579D02*
X10891015Y-15707674D01*
X10891015Y-15707674D02*
X10891015Y-15755293D01*
X10891015Y-15755293D02*
X10881491Y-15793388D01*
X10881491Y-15793388D02*
X10871968Y-15812436D01*
X10871968Y-15812436D02*
X10862444Y-15821960D01*
X10862444Y-15821960D02*
X10843396Y-15831484D01*
X10843396Y-15831484D02*
X10824348Y-15831484D01*
X10824348Y-15831484D02*
X10805301Y-15821960D01*
X10805301Y-15821960D02*
X10795777Y-15812436D01*
X10795777Y-15812436D02*
X10786253Y-15793388D01*
X10786253Y-15793388D02*
X10776729Y-15755293D01*
X10776729Y-15755293D02*
X10776729Y-15707674D01*
X10776729Y-15707674D02*
X10786253Y-15669579D01*
X10786253Y-15669579D02*
X10795777Y-15650531D01*
X10795777Y-15650531D02*
X10805301Y-15641008D01*
X10805301Y-15641008D02*
X10824348Y-15631484D01*
X10957682Y-15631484D02*
X11081491Y-15631484D01*
X11081491Y-15631484D02*
X11014825Y-15707674D01*
X11014825Y-15707674D02*
X11043396Y-15707674D01*
X11043396Y-15707674D02*
X11062444Y-15717198D01*
X11062444Y-15717198D02*
X11071968Y-15726722D01*
X11071968Y-15726722D02*
X11081491Y-15745769D01*
X11081491Y-15745769D02*
X11081491Y-15793388D01*
X11081491Y-15793388D02*
X11071968Y-15812436D01*
X11071968Y-15812436D02*
X11062444Y-15821960D01*
X11062444Y-15821960D02*
X11043396Y-15831484D01*
X11043396Y-15831484D02*
X10986253Y-15831484D01*
X10986253Y-15831484D02*
X10967206Y-15821960D01*
X10967206Y-15821960D02*
X10957682Y-15812436D01*
X11262444Y-15631484D02*
X11167206Y-15631484D01*
X11167206Y-15631484D02*
X11157682Y-15726722D01*
X11157682Y-15726722D02*
X11167206Y-15717198D01*
X11167206Y-15717198D02*
X11186253Y-15707674D01*
X11186253Y-15707674D02*
X11233872Y-15707674D01*
X11233872Y-15707674D02*
X11252920Y-15717198D01*
X11252920Y-15717198D02*
X11262444Y-15726722D01*
X11262444Y-15726722D02*
X11271967Y-15745769D01*
X11271967Y-15745769D02*
X11271967Y-15793388D01*
X11271967Y-15793388D02*
X11262444Y-15812436D01*
X11262444Y-15812436D02*
X11252920Y-15821960D01*
X11252920Y-15821960D02*
X11233872Y-15831484D01*
X11233872Y-15831484D02*
X11186253Y-15831484D01*
X11186253Y-15831484D02*
X11167206Y-15821960D01*
X11167206Y-15821960D02*
X11157682Y-15812436D01*
X11443396Y-15698150D02*
X11443396Y-15831484D01*
X11395777Y-15621960D02*
X11348158Y-15764817D01*
X11348158Y-15764817D02*
X11471967Y-15764817D01*
X11538634Y-15631484D02*
X11538634Y-15669579D01*
X11614825Y-15631484D02*
X11614825Y-15669579D01*
X11910063Y-15907674D02*
X11900539Y-15898150D01*
X11900539Y-15898150D02*
X11881491Y-15869579D01*
X11881491Y-15869579D02*
X11871968Y-15850531D01*
X11871968Y-15850531D02*
X11862444Y-15821960D01*
X11862444Y-15821960D02*
X11852920Y-15774341D01*
X11852920Y-15774341D02*
X11852920Y-15736246D01*
X11852920Y-15736246D02*
X11862444Y-15688627D01*
X11862444Y-15688627D02*
X11871968Y-15660055D01*
X11871968Y-15660055D02*
X11881491Y-15641008D01*
X11881491Y-15641008D02*
X11900539Y-15612436D01*
X11900539Y-15612436D02*
X11910063Y-15602912D01*
X11976729Y-15650531D02*
X11986253Y-15641008D01*
X11986253Y-15641008D02*
X12005301Y-15631484D01*
X12005301Y-15631484D02*
X12052920Y-15631484D01*
X12052920Y-15631484D02*
X12071968Y-15641008D01*
X12071968Y-15641008D02*
X12081491Y-15650531D01*
X12081491Y-15650531D02*
X12091015Y-15669579D01*
X12091015Y-15669579D02*
X12091015Y-15688627D01*
X12091015Y-15688627D02*
X12081491Y-15717198D01*
X12081491Y-15717198D02*
X11967206Y-15831484D01*
X11967206Y-15831484D02*
X12091015Y-15831484D01*
X12329110Y-15831484D02*
X12329110Y-15631484D01*
X12414825Y-15831484D02*
X12414825Y-15726722D01*
X12414825Y-15726722D02*
X12405301Y-15707674D01*
X12405301Y-15707674D02*
X12386253Y-15698150D01*
X12386253Y-15698150D02*
X12357682Y-15698150D01*
X12357682Y-15698150D02*
X12338634Y-15707674D01*
X12338634Y-15707674D02*
X12329110Y-15717198D01*
X12538634Y-15831484D02*
X12519587Y-15821960D01*
X12519587Y-15821960D02*
X12510063Y-15812436D01*
X12510063Y-15812436D02*
X12500539Y-15793388D01*
X12500539Y-15793388D02*
X12500539Y-15736246D01*
X12500539Y-15736246D02*
X12510063Y-15717198D01*
X12510063Y-15717198D02*
X12519587Y-15707674D01*
X12519587Y-15707674D02*
X12538634Y-15698150D01*
X12538634Y-15698150D02*
X12567206Y-15698150D01*
X12567206Y-15698150D02*
X12586253Y-15707674D01*
X12586253Y-15707674D02*
X12595777Y-15717198D01*
X12595777Y-15717198D02*
X12605301Y-15736246D01*
X12605301Y-15736246D02*
X12605301Y-15793388D01*
X12605301Y-15793388D02*
X12595777Y-15812436D01*
X12595777Y-15812436D02*
X12586253Y-15821960D01*
X12586253Y-15821960D02*
X12567206Y-15831484D01*
X12567206Y-15831484D02*
X12538634Y-15831484D01*
X12719587Y-15831484D02*
X12700539Y-15821960D01*
X12700539Y-15821960D02*
X12691015Y-15802912D01*
X12691015Y-15802912D02*
X12691015Y-15631484D01*
X12871968Y-15821960D02*
X12852920Y-15831484D01*
X12852920Y-15831484D02*
X12814825Y-15831484D01*
X12814825Y-15831484D02*
X12795777Y-15821960D01*
X12795777Y-15821960D02*
X12786253Y-15802912D01*
X12786253Y-15802912D02*
X12786253Y-15726722D01*
X12786253Y-15726722D02*
X12795777Y-15707674D01*
X12795777Y-15707674D02*
X12814825Y-15698150D01*
X12814825Y-15698150D02*
X12852920Y-15698150D01*
X12852920Y-15698150D02*
X12871968Y-15707674D01*
X12871968Y-15707674D02*
X12881491Y-15726722D01*
X12881491Y-15726722D02*
X12881491Y-15745769D01*
X12881491Y-15745769D02*
X12786253Y-15764817D01*
X12957682Y-15821960D02*
X12976730Y-15831484D01*
X12976730Y-15831484D02*
X13014825Y-15831484D01*
X13014825Y-15831484D02*
X13033872Y-15821960D01*
X13033872Y-15821960D02*
X13043396Y-15802912D01*
X13043396Y-15802912D02*
X13043396Y-15793388D01*
X13043396Y-15793388D02*
X13033872Y-15774341D01*
X13033872Y-15774341D02*
X13014825Y-15764817D01*
X13014825Y-15764817D02*
X12986253Y-15764817D01*
X12986253Y-15764817D02*
X12967206Y-15755293D01*
X12967206Y-15755293D02*
X12957682Y-15736246D01*
X12957682Y-15736246D02*
X12957682Y-15726722D01*
X12957682Y-15726722D02*
X12967206Y-15707674D01*
X12967206Y-15707674D02*
X12986253Y-15698150D01*
X12986253Y-15698150D02*
X13014825Y-15698150D01*
X13014825Y-15698150D02*
X13033872Y-15707674D01*
X13110063Y-15907674D02*
X13119587Y-15898150D01*
X13119587Y-15898150D02*
X13138634Y-15869579D01*
X13138634Y-15869579D02*
X13148158Y-15850531D01*
X13148158Y-15850531D02*
X13157682Y-15821960D01*
X13157682Y-15821960D02*
X13167206Y-15774341D01*
X13167206Y-15774341D02*
X13167206Y-15736246D01*
X13167206Y-15736246D02*
X13157682Y-15688627D01*
X13157682Y-15688627D02*
X13148158Y-15660055D01*
X13148158Y-15660055D02*
X13138634Y-15641008D01*
X13138634Y-15641008D02*
X13119587Y-15612436D01*
X13119587Y-15612436D02*
X13110063Y-15602912D01*
X13471968Y-15907674D02*
X13462444Y-15898150D01*
X13462444Y-15898150D02*
X13443396Y-15869579D01*
X13443396Y-15869579D02*
X13433872Y-15850531D01*
X13433872Y-15850531D02*
X13424349Y-15821960D01*
X13424349Y-15821960D02*
X13414825Y-15774341D01*
X13414825Y-15774341D02*
X13414825Y-15736246D01*
X13414825Y-15736246D02*
X13424349Y-15688627D01*
X13424349Y-15688627D02*
X13433872Y-15660055D01*
X13433872Y-15660055D02*
X13443396Y-15641008D01*
X13443396Y-15641008D02*
X13462444Y-15612436D01*
X13462444Y-15612436D02*
X13471968Y-15602912D01*
X13548158Y-15698150D02*
X13548158Y-15831484D01*
X13548158Y-15717198D02*
X13557682Y-15707674D01*
X13557682Y-15707674D02*
X13576730Y-15698150D01*
X13576730Y-15698150D02*
X13605301Y-15698150D01*
X13605301Y-15698150D02*
X13624349Y-15707674D01*
X13624349Y-15707674D02*
X13633872Y-15726722D01*
X13633872Y-15726722D02*
X13633872Y-15831484D01*
X13757682Y-15831484D02*
X13738634Y-15821960D01*
X13738634Y-15821960D02*
X13729111Y-15812436D01*
X13729111Y-15812436D02*
X13719587Y-15793388D01*
X13719587Y-15793388D02*
X13719587Y-15736246D01*
X13719587Y-15736246D02*
X13729111Y-15717198D01*
X13729111Y-15717198D02*
X13738634Y-15707674D01*
X13738634Y-15707674D02*
X13757682Y-15698150D01*
X13757682Y-15698150D02*
X13786253Y-15698150D01*
X13786253Y-15698150D02*
X13805301Y-15707674D01*
X13805301Y-15707674D02*
X13814825Y-15717198D01*
X13814825Y-15717198D02*
X13824349Y-15736246D01*
X13824349Y-15736246D02*
X13824349Y-15793388D01*
X13824349Y-15793388D02*
X13814825Y-15812436D01*
X13814825Y-15812436D02*
X13805301Y-15821960D01*
X13805301Y-15821960D02*
X13786253Y-15831484D01*
X13786253Y-15831484D02*
X13757682Y-15831484D01*
X13881492Y-15698150D02*
X13957682Y-15698150D01*
X13910063Y-15631484D02*
X13910063Y-15802912D01*
X13910063Y-15802912D02*
X13919587Y-15821960D01*
X13919587Y-15821960D02*
X13938634Y-15831484D01*
X13938634Y-15831484D02*
X13957682Y-15831484D01*
X14176730Y-15698150D02*
X14176730Y-15898150D01*
X14176730Y-15707674D02*
X14195777Y-15698150D01*
X14195777Y-15698150D02*
X14233873Y-15698150D01*
X14233873Y-15698150D02*
X14252920Y-15707674D01*
X14252920Y-15707674D02*
X14262444Y-15717198D01*
X14262444Y-15717198D02*
X14271968Y-15736246D01*
X14271968Y-15736246D02*
X14271968Y-15793388D01*
X14271968Y-15793388D02*
X14262444Y-15812436D01*
X14262444Y-15812436D02*
X14252920Y-15821960D01*
X14252920Y-15821960D02*
X14233873Y-15831484D01*
X14233873Y-15831484D02*
X14195777Y-15831484D01*
X14195777Y-15831484D02*
X14176730Y-15821960D01*
X14386253Y-15831484D02*
X14367206Y-15821960D01*
X14367206Y-15821960D02*
X14357682Y-15802912D01*
X14357682Y-15802912D02*
X14357682Y-15631484D01*
X14548158Y-15831484D02*
X14548158Y-15726722D01*
X14548158Y-15726722D02*
X14538634Y-15707674D01*
X14538634Y-15707674D02*
X14519587Y-15698150D01*
X14519587Y-15698150D02*
X14481492Y-15698150D01*
X14481492Y-15698150D02*
X14462444Y-15707674D01*
X14548158Y-15821960D02*
X14529111Y-15831484D01*
X14529111Y-15831484D02*
X14481492Y-15831484D01*
X14481492Y-15831484D02*
X14462444Y-15821960D01*
X14462444Y-15821960D02*
X14452920Y-15802912D01*
X14452920Y-15802912D02*
X14452920Y-15783865D01*
X14452920Y-15783865D02*
X14462444Y-15764817D01*
X14462444Y-15764817D02*
X14481492Y-15755293D01*
X14481492Y-15755293D02*
X14529111Y-15755293D01*
X14529111Y-15755293D02*
X14548158Y-15745769D01*
X14614825Y-15698150D02*
X14691015Y-15698150D01*
X14643396Y-15631484D02*
X14643396Y-15802912D01*
X14643396Y-15802912D02*
X14652920Y-15821960D01*
X14652920Y-15821960D02*
X14671968Y-15831484D01*
X14671968Y-15831484D02*
X14691015Y-15831484D01*
X14833873Y-15821960D02*
X14814825Y-15831484D01*
X14814825Y-15831484D02*
X14776730Y-15831484D01*
X14776730Y-15831484D02*
X14757682Y-15821960D01*
X14757682Y-15821960D02*
X14748158Y-15802912D01*
X14748158Y-15802912D02*
X14748158Y-15726722D01*
X14748158Y-15726722D02*
X14757682Y-15707674D01*
X14757682Y-15707674D02*
X14776730Y-15698150D01*
X14776730Y-15698150D02*
X14814825Y-15698150D01*
X14814825Y-15698150D02*
X14833873Y-15707674D01*
X14833873Y-15707674D02*
X14843396Y-15726722D01*
X14843396Y-15726722D02*
X14843396Y-15745769D01*
X14843396Y-15745769D02*
X14748158Y-15764817D01*
X15014825Y-15831484D02*
X15014825Y-15631484D01*
X15014825Y-15821960D02*
X14995777Y-15831484D01*
X14995777Y-15831484D02*
X14957682Y-15831484D01*
X14957682Y-15831484D02*
X14938634Y-15821960D01*
X14938634Y-15821960D02*
X14929111Y-15812436D01*
X14929111Y-15812436D02*
X14919587Y-15793388D01*
X14919587Y-15793388D02*
X14919587Y-15736246D01*
X14919587Y-15736246D02*
X14929111Y-15717198D01*
X14929111Y-15717198D02*
X14938634Y-15707674D01*
X14938634Y-15707674D02*
X14957682Y-15698150D01*
X14957682Y-15698150D02*
X14995777Y-15698150D01*
X14995777Y-15698150D02*
X15014825Y-15707674D01*
X15091015Y-15907674D02*
X15100539Y-15898150D01*
X15100539Y-15898150D02*
X15119587Y-15869579D01*
X15119587Y-15869579D02*
X15129111Y-15850531D01*
X15129111Y-15850531D02*
X15138634Y-15821960D01*
X15138634Y-15821960D02*
X15148158Y-15774341D01*
X15148158Y-15774341D02*
X15148158Y-15736246D01*
X15148158Y-15736246D02*
X15138634Y-15688627D01*
X15138634Y-15688627D02*
X15129111Y-15660055D01*
X15129111Y-15660055D02*
X15119587Y-15641008D01*
X15119587Y-15641008D02*
X15100539Y-15612436D01*
X15100539Y-15612436D02*
X15091015Y-15602912D01*
D12*
X8335000Y-16004000D02*
G75*
G02*
X8205460Y-16004000I-64770J0D01*
G01*
X8205460Y-16004000D02*
G75*
G02*
X8335000Y-16004000I64770J0D01*
G01*
D10*
X8700539Y-16095484D02*
X8586253Y-16095484D01*
X8643396Y-16095484D02*
X8643396Y-15895484D01*
X8643396Y-15895484D02*
X8624348Y-15924055D01*
X8624348Y-15924055D02*
X8605301Y-15943103D01*
X8605301Y-15943103D02*
X8586253Y-15952627D01*
X8786253Y-16076436D02*
X8795777Y-16085960D01*
X8795777Y-16085960D02*
X8786253Y-16095484D01*
X8786253Y-16095484D02*
X8776729Y-16085960D01*
X8776729Y-16085960D02*
X8786253Y-16076436D01*
X8786253Y-16076436D02*
X8786253Y-16095484D01*
X8871967Y-15914531D02*
X8881491Y-15905008D01*
X8881491Y-15905008D02*
X8900539Y-15895484D01*
X8900539Y-15895484D02*
X8948158Y-15895484D01*
X8948158Y-15895484D02*
X8967205Y-15905008D01*
X8967205Y-15905008D02*
X8976729Y-15914531D01*
X8976729Y-15914531D02*
X8986253Y-15933579D01*
X8986253Y-15933579D02*
X8986253Y-15952627D01*
X8986253Y-15952627D02*
X8976729Y-15981198D01*
X8976729Y-15981198D02*
X8862444Y-16095484D01*
X8862444Y-16095484D02*
X8986253Y-16095484D01*
X9081491Y-16095484D02*
X9119586Y-16095484D01*
X9119586Y-16095484D02*
X9138634Y-16085960D01*
X9138634Y-16085960D02*
X9148158Y-16076436D01*
X9148158Y-16076436D02*
X9167205Y-16047865D01*
X9167205Y-16047865D02*
X9176729Y-16009769D01*
X9176729Y-16009769D02*
X9176729Y-15933579D01*
X9176729Y-15933579D02*
X9167205Y-15914531D01*
X9167205Y-15914531D02*
X9157682Y-15905008D01*
X9157682Y-15905008D02*
X9138634Y-15895484D01*
X9138634Y-15895484D02*
X9100539Y-15895484D01*
X9100539Y-15895484D02*
X9081491Y-15905008D01*
X9081491Y-15905008D02*
X9071967Y-15914531D01*
X9071967Y-15914531D02*
X9062444Y-15933579D01*
X9062444Y-15933579D02*
X9062444Y-15981198D01*
X9062444Y-15981198D02*
X9071967Y-16000246D01*
X9071967Y-16000246D02*
X9081491Y-16009769D01*
X9081491Y-16009769D02*
X9100539Y-16019293D01*
X9100539Y-16019293D02*
X9138634Y-16019293D01*
X9138634Y-16019293D02*
X9157682Y-16009769D01*
X9157682Y-16009769D02*
X9167205Y-16000246D01*
X9167205Y-16000246D02*
X9176729Y-15981198D01*
X9357682Y-15895484D02*
X9262444Y-15895484D01*
X9262444Y-15895484D02*
X9252920Y-15990722D01*
X9252920Y-15990722D02*
X9262444Y-15981198D01*
X9262444Y-15981198D02*
X9281491Y-15971674D01*
X9281491Y-15971674D02*
X9329110Y-15971674D01*
X9329110Y-15971674D02*
X9348158Y-15981198D01*
X9348158Y-15981198D02*
X9357682Y-15990722D01*
X9357682Y-15990722D02*
X9367205Y-16009769D01*
X9367205Y-16009769D02*
X9367205Y-16057388D01*
X9367205Y-16057388D02*
X9357682Y-16076436D01*
X9357682Y-16076436D02*
X9348158Y-16085960D01*
X9348158Y-16085960D02*
X9329110Y-16095484D01*
X9329110Y-16095484D02*
X9281491Y-16095484D01*
X9281491Y-16095484D02*
X9262444Y-16085960D01*
X9262444Y-16085960D02*
X9252920Y-16076436D01*
X9452920Y-16095484D02*
X9452920Y-15962150D01*
X9452920Y-15981198D02*
X9462444Y-15971674D01*
X9462444Y-15971674D02*
X9481491Y-15962150D01*
X9481491Y-15962150D02*
X9510063Y-15962150D01*
X9510063Y-15962150D02*
X9529110Y-15971674D01*
X9529110Y-15971674D02*
X9538634Y-15990722D01*
X9538634Y-15990722D02*
X9538634Y-16095484D01*
X9538634Y-15990722D02*
X9548158Y-15971674D01*
X9548158Y-15971674D02*
X9567205Y-15962150D01*
X9567205Y-15962150D02*
X9595777Y-15962150D01*
X9595777Y-15962150D02*
X9614825Y-15971674D01*
X9614825Y-15971674D02*
X9624348Y-15990722D01*
X9624348Y-15990722D02*
X9624348Y-16095484D01*
X9719586Y-16095484D02*
X9719586Y-15962150D01*
X9719586Y-15981198D02*
X9729110Y-15971674D01*
X9729110Y-15971674D02*
X9748158Y-15962150D01*
X9748158Y-15962150D02*
X9776729Y-15962150D01*
X9776729Y-15962150D02*
X9795777Y-15971674D01*
X9795777Y-15971674D02*
X9805301Y-15990722D01*
X9805301Y-15990722D02*
X9805301Y-16095484D01*
X9805301Y-15990722D02*
X9814825Y-15971674D01*
X9814825Y-15971674D02*
X9833872Y-15962150D01*
X9833872Y-15962150D02*
X9862444Y-15962150D01*
X9862444Y-15962150D02*
X9881491Y-15971674D01*
X9881491Y-15971674D02*
X9891015Y-15990722D01*
X9891015Y-15990722D02*
X9891015Y-16095484D01*
X10281491Y-15885960D02*
X10110063Y-16143103D01*
X10538634Y-15895484D02*
X10557682Y-15895484D01*
X10557682Y-15895484D02*
X10576729Y-15905008D01*
X10576729Y-15905008D02*
X10586253Y-15914531D01*
X10586253Y-15914531D02*
X10595777Y-15933579D01*
X10595777Y-15933579D02*
X10605301Y-15971674D01*
X10605301Y-15971674D02*
X10605301Y-16019293D01*
X10605301Y-16019293D02*
X10595777Y-16057388D01*
X10595777Y-16057388D02*
X10586253Y-16076436D01*
X10586253Y-16076436D02*
X10576729Y-16085960D01*
X10576729Y-16085960D02*
X10557682Y-16095484D01*
X10557682Y-16095484D02*
X10538634Y-16095484D01*
X10538634Y-16095484D02*
X10519587Y-16085960D01*
X10519587Y-16085960D02*
X10510063Y-16076436D01*
X10510063Y-16076436D02*
X10500539Y-16057388D01*
X10500539Y-16057388D02*
X10491015Y-16019293D01*
X10491015Y-16019293D02*
X10491015Y-15971674D01*
X10491015Y-15971674D02*
X10500539Y-15933579D01*
X10500539Y-15933579D02*
X10510063Y-15914531D01*
X10510063Y-15914531D02*
X10519587Y-15905008D01*
X10519587Y-15905008D02*
X10538634Y-15895484D01*
X10691015Y-16076436D02*
X10700539Y-16085960D01*
X10700539Y-16085960D02*
X10691015Y-16095484D01*
X10691015Y-16095484D02*
X10681491Y-16085960D01*
X10681491Y-16085960D02*
X10691015Y-16076436D01*
X10691015Y-16076436D02*
X10691015Y-16095484D01*
X10824348Y-15895484D02*
X10843396Y-15895484D01*
X10843396Y-15895484D02*
X10862444Y-15905008D01*
X10862444Y-15905008D02*
X10871968Y-15914531D01*
X10871968Y-15914531D02*
X10881491Y-15933579D01*
X10881491Y-15933579D02*
X10891015Y-15971674D01*
X10891015Y-15971674D02*
X10891015Y-16019293D01*
X10891015Y-16019293D02*
X10881491Y-16057388D01*
X10881491Y-16057388D02*
X10871968Y-16076436D01*
X10871968Y-16076436D02*
X10862444Y-16085960D01*
X10862444Y-16085960D02*
X10843396Y-16095484D01*
X10843396Y-16095484D02*
X10824348Y-16095484D01*
X10824348Y-16095484D02*
X10805301Y-16085960D01*
X10805301Y-16085960D02*
X10795777Y-16076436D01*
X10795777Y-16076436D02*
X10786253Y-16057388D01*
X10786253Y-16057388D02*
X10776729Y-16019293D01*
X10776729Y-16019293D02*
X10776729Y-15971674D01*
X10776729Y-15971674D02*
X10786253Y-15933579D01*
X10786253Y-15933579D02*
X10795777Y-15914531D01*
X10795777Y-15914531D02*
X10805301Y-15905008D01*
X10805301Y-15905008D02*
X10824348Y-15895484D01*
X11071968Y-15895484D02*
X10976729Y-15895484D01*
X10976729Y-15895484D02*
X10967206Y-15990722D01*
X10967206Y-15990722D02*
X10976729Y-15981198D01*
X10976729Y-15981198D02*
X10995777Y-15971674D01*
X10995777Y-15971674D02*
X11043396Y-15971674D01*
X11043396Y-15971674D02*
X11062444Y-15981198D01*
X11062444Y-15981198D02*
X11071968Y-15990722D01*
X11071968Y-15990722D02*
X11081491Y-16009769D01*
X11081491Y-16009769D02*
X11081491Y-16057388D01*
X11081491Y-16057388D02*
X11071968Y-16076436D01*
X11071968Y-16076436D02*
X11062444Y-16085960D01*
X11062444Y-16085960D02*
X11043396Y-16095484D01*
X11043396Y-16095484D02*
X10995777Y-16095484D01*
X10995777Y-16095484D02*
X10976729Y-16085960D01*
X10976729Y-16085960D02*
X10967206Y-16076436D01*
X11271967Y-16095484D02*
X11157682Y-16095484D01*
X11214825Y-16095484D02*
X11214825Y-15895484D01*
X11214825Y-15895484D02*
X11195777Y-15924055D01*
X11195777Y-15924055D02*
X11176729Y-15943103D01*
X11176729Y-15943103D02*
X11157682Y-15952627D01*
X11395777Y-15895484D02*
X11414825Y-15895484D01*
X11414825Y-15895484D02*
X11433872Y-15905008D01*
X11433872Y-15905008D02*
X11443396Y-15914531D01*
X11443396Y-15914531D02*
X11452920Y-15933579D01*
X11452920Y-15933579D02*
X11462444Y-15971674D01*
X11462444Y-15971674D02*
X11462444Y-16019293D01*
X11462444Y-16019293D02*
X11452920Y-16057388D01*
X11452920Y-16057388D02*
X11443396Y-16076436D01*
X11443396Y-16076436D02*
X11433872Y-16085960D01*
X11433872Y-16085960D02*
X11414825Y-16095484D01*
X11414825Y-16095484D02*
X11395777Y-16095484D01*
X11395777Y-16095484D02*
X11376729Y-16085960D01*
X11376729Y-16085960D02*
X11367206Y-16076436D01*
X11367206Y-16076436D02*
X11357682Y-16057388D01*
X11357682Y-16057388D02*
X11348158Y-16019293D01*
X11348158Y-16019293D02*
X11348158Y-15971674D01*
X11348158Y-15971674D02*
X11357682Y-15933579D01*
X11357682Y-15933579D02*
X11367206Y-15914531D01*
X11367206Y-15914531D02*
X11376729Y-15905008D01*
X11376729Y-15905008D02*
X11395777Y-15895484D01*
X11538634Y-15895484D02*
X11538634Y-15933579D01*
X11614825Y-15895484D02*
X11614825Y-15933579D01*
X11910063Y-16171674D02*
X11900539Y-16162150D01*
X11900539Y-16162150D02*
X11881491Y-16133579D01*
X11881491Y-16133579D02*
X11871968Y-16114531D01*
X11871968Y-16114531D02*
X11862444Y-16085960D01*
X11862444Y-16085960D02*
X11852920Y-16038341D01*
X11852920Y-16038341D02*
X11852920Y-16000246D01*
X11852920Y-16000246D02*
X11862444Y-15952627D01*
X11862444Y-15952627D02*
X11871968Y-15924055D01*
X11871968Y-15924055D02*
X11881491Y-15905008D01*
X11881491Y-15905008D02*
X11900539Y-15876436D01*
X11900539Y-15876436D02*
X11910063Y-15866912D01*
X12091015Y-16095484D02*
X11976729Y-16095484D01*
X12033872Y-16095484D02*
X12033872Y-15895484D01*
X12033872Y-15895484D02*
X12014825Y-15924055D01*
X12014825Y-15924055D02*
X11995777Y-15943103D01*
X11995777Y-15943103D02*
X11976729Y-15952627D01*
X12329110Y-16095484D02*
X12329110Y-15895484D01*
X12414825Y-16095484D02*
X12414825Y-15990722D01*
X12414825Y-15990722D02*
X12405301Y-15971674D01*
X12405301Y-15971674D02*
X12386253Y-15962150D01*
X12386253Y-15962150D02*
X12357682Y-15962150D01*
X12357682Y-15962150D02*
X12338634Y-15971674D01*
X12338634Y-15971674D02*
X12329110Y-15981198D01*
X12538634Y-16095484D02*
X12519587Y-16085960D01*
X12519587Y-16085960D02*
X12510063Y-16076436D01*
X12510063Y-16076436D02*
X12500539Y-16057388D01*
X12500539Y-16057388D02*
X12500539Y-16000246D01*
X12500539Y-16000246D02*
X12510063Y-15981198D01*
X12510063Y-15981198D02*
X12519587Y-15971674D01*
X12519587Y-15971674D02*
X12538634Y-15962150D01*
X12538634Y-15962150D02*
X12567206Y-15962150D01*
X12567206Y-15962150D02*
X12586253Y-15971674D01*
X12586253Y-15971674D02*
X12595777Y-15981198D01*
X12595777Y-15981198D02*
X12605301Y-16000246D01*
X12605301Y-16000246D02*
X12605301Y-16057388D01*
X12605301Y-16057388D02*
X12595777Y-16076436D01*
X12595777Y-16076436D02*
X12586253Y-16085960D01*
X12586253Y-16085960D02*
X12567206Y-16095484D01*
X12567206Y-16095484D02*
X12538634Y-16095484D01*
X12719587Y-16095484D02*
X12700539Y-16085960D01*
X12700539Y-16085960D02*
X12691015Y-16066912D01*
X12691015Y-16066912D02*
X12691015Y-15895484D01*
X12871968Y-16085960D02*
X12852920Y-16095484D01*
X12852920Y-16095484D02*
X12814825Y-16095484D01*
X12814825Y-16095484D02*
X12795777Y-16085960D01*
X12795777Y-16085960D02*
X12786253Y-16066912D01*
X12786253Y-16066912D02*
X12786253Y-15990722D01*
X12786253Y-15990722D02*
X12795777Y-15971674D01*
X12795777Y-15971674D02*
X12814825Y-15962150D01*
X12814825Y-15962150D02*
X12852920Y-15962150D01*
X12852920Y-15962150D02*
X12871968Y-15971674D01*
X12871968Y-15971674D02*
X12881491Y-15990722D01*
X12881491Y-15990722D02*
X12881491Y-16009769D01*
X12881491Y-16009769D02*
X12786253Y-16028817D01*
X12948158Y-16171674D02*
X12957682Y-16162150D01*
X12957682Y-16162150D02*
X12976730Y-16133579D01*
X12976730Y-16133579D02*
X12986253Y-16114531D01*
X12986253Y-16114531D02*
X12995777Y-16085960D01*
X12995777Y-16085960D02*
X13005301Y-16038341D01*
X13005301Y-16038341D02*
X13005301Y-16000246D01*
X13005301Y-16000246D02*
X12995777Y-15952627D01*
X12995777Y-15952627D02*
X12986253Y-15924055D01*
X12986253Y-15924055D02*
X12976730Y-15905008D01*
X12976730Y-15905008D02*
X12957682Y-15876436D01*
X12957682Y-15876436D02*
X12948158Y-15866912D01*
X13310063Y-16171674D02*
X13300539Y-16162150D01*
X13300539Y-16162150D02*
X13281491Y-16133579D01*
X13281491Y-16133579D02*
X13271968Y-16114531D01*
X13271968Y-16114531D02*
X13262444Y-16085960D01*
X13262444Y-16085960D02*
X13252920Y-16038341D01*
X13252920Y-16038341D02*
X13252920Y-16000246D01*
X13252920Y-16000246D02*
X13262444Y-15952627D01*
X13262444Y-15952627D02*
X13271968Y-15924055D01*
X13271968Y-15924055D02*
X13281491Y-15905008D01*
X13281491Y-15905008D02*
X13300539Y-15876436D01*
X13300539Y-15876436D02*
X13310063Y-15866912D01*
X13386253Y-15962150D02*
X13386253Y-16095484D01*
X13386253Y-15981198D02*
X13395777Y-15971674D01*
X13395777Y-15971674D02*
X13414825Y-15962150D01*
X13414825Y-15962150D02*
X13443396Y-15962150D01*
X13443396Y-15962150D02*
X13462444Y-15971674D01*
X13462444Y-15971674D02*
X13471968Y-15990722D01*
X13471968Y-15990722D02*
X13471968Y-16095484D01*
X13595777Y-16095484D02*
X13576730Y-16085960D01*
X13576730Y-16085960D02*
X13567206Y-16076436D01*
X13567206Y-16076436D02*
X13557682Y-16057388D01*
X13557682Y-16057388D02*
X13557682Y-16000246D01*
X13557682Y-16000246D02*
X13567206Y-15981198D01*
X13567206Y-15981198D02*
X13576730Y-15971674D01*
X13576730Y-15971674D02*
X13595777Y-15962150D01*
X13595777Y-15962150D02*
X13624349Y-15962150D01*
X13624349Y-15962150D02*
X13643396Y-15971674D01*
X13643396Y-15971674D02*
X13652920Y-15981198D01*
X13652920Y-15981198D02*
X13662444Y-16000246D01*
X13662444Y-16000246D02*
X13662444Y-16057388D01*
X13662444Y-16057388D02*
X13652920Y-16076436D01*
X13652920Y-16076436D02*
X13643396Y-16085960D01*
X13643396Y-16085960D02*
X13624349Y-16095484D01*
X13624349Y-16095484D02*
X13595777Y-16095484D01*
X13719587Y-15962150D02*
X13795777Y-15962150D01*
X13748158Y-15895484D02*
X13748158Y-16066912D01*
X13748158Y-16066912D02*
X13757682Y-16085960D01*
X13757682Y-16085960D02*
X13776730Y-16095484D01*
X13776730Y-16095484D02*
X13795777Y-16095484D01*
X14014825Y-15962150D02*
X14014825Y-16162150D01*
X14014825Y-15971674D02*
X14033872Y-15962150D01*
X14033872Y-15962150D02*
X14071968Y-15962150D01*
X14071968Y-15962150D02*
X14091015Y-15971674D01*
X14091015Y-15971674D02*
X14100539Y-15981198D01*
X14100539Y-15981198D02*
X14110063Y-16000246D01*
X14110063Y-16000246D02*
X14110063Y-16057388D01*
X14110063Y-16057388D02*
X14100539Y-16076436D01*
X14100539Y-16076436D02*
X14091015Y-16085960D01*
X14091015Y-16085960D02*
X14071968Y-16095484D01*
X14071968Y-16095484D02*
X14033872Y-16095484D01*
X14033872Y-16095484D02*
X14014825Y-16085960D01*
X14224349Y-16095484D02*
X14205301Y-16085960D01*
X14205301Y-16085960D02*
X14195777Y-16066912D01*
X14195777Y-16066912D02*
X14195777Y-15895484D01*
X14386253Y-16095484D02*
X14386253Y-15990722D01*
X14386253Y-15990722D02*
X14376730Y-15971674D01*
X14376730Y-15971674D02*
X14357682Y-15962150D01*
X14357682Y-15962150D02*
X14319587Y-15962150D01*
X14319587Y-15962150D02*
X14300539Y-15971674D01*
X14386253Y-16085960D02*
X14367206Y-16095484D01*
X14367206Y-16095484D02*
X14319587Y-16095484D01*
X14319587Y-16095484D02*
X14300539Y-16085960D01*
X14300539Y-16085960D02*
X14291015Y-16066912D01*
X14291015Y-16066912D02*
X14291015Y-16047865D01*
X14291015Y-16047865D02*
X14300539Y-16028817D01*
X14300539Y-16028817D02*
X14319587Y-16019293D01*
X14319587Y-16019293D02*
X14367206Y-16019293D01*
X14367206Y-16019293D02*
X14386253Y-16009769D01*
X14452920Y-15962150D02*
X14529111Y-15962150D01*
X14481492Y-15895484D02*
X14481492Y-16066912D01*
X14481492Y-16066912D02*
X14491015Y-16085960D01*
X14491015Y-16085960D02*
X14510063Y-16095484D01*
X14510063Y-16095484D02*
X14529111Y-16095484D01*
X14671968Y-16085960D02*
X14652920Y-16095484D01*
X14652920Y-16095484D02*
X14614825Y-16095484D01*
X14614825Y-16095484D02*
X14595777Y-16085960D01*
X14595777Y-16085960D02*
X14586253Y-16066912D01*
X14586253Y-16066912D02*
X14586253Y-15990722D01*
X14586253Y-15990722D02*
X14595777Y-15971674D01*
X14595777Y-15971674D02*
X14614825Y-15962150D01*
X14614825Y-15962150D02*
X14652920Y-15962150D01*
X14652920Y-15962150D02*
X14671968Y-15971674D01*
X14671968Y-15971674D02*
X14681492Y-15990722D01*
X14681492Y-15990722D02*
X14681492Y-16009769D01*
X14681492Y-16009769D02*
X14586253Y-16028817D01*
X14852920Y-16095484D02*
X14852920Y-15895484D01*
X14852920Y-16085960D02*
X14833873Y-16095484D01*
X14833873Y-16095484D02*
X14795777Y-16095484D01*
X14795777Y-16095484D02*
X14776730Y-16085960D01*
X14776730Y-16085960D02*
X14767206Y-16076436D01*
X14767206Y-16076436D02*
X14757682Y-16057388D01*
X14757682Y-16057388D02*
X14757682Y-16000246D01*
X14757682Y-16000246D02*
X14767206Y-15981198D01*
X14767206Y-15981198D02*
X14776730Y-15971674D01*
X14776730Y-15971674D02*
X14795777Y-15962150D01*
X14795777Y-15962150D02*
X14833873Y-15962150D01*
X14833873Y-15962150D02*
X14852920Y-15971674D01*
X14929111Y-16171674D02*
X14938634Y-16162150D01*
X14938634Y-16162150D02*
X14957682Y-16133579D01*
X14957682Y-16133579D02*
X14967206Y-16114531D01*
X14967206Y-16114531D02*
X14976730Y-16085960D01*
X14976730Y-16085960D02*
X14986253Y-16038341D01*
X14986253Y-16038341D02*
X14986253Y-16000246D01*
X14986253Y-16000246D02*
X14976730Y-15952627D01*
X14976730Y-15952627D02*
X14967206Y-15924055D01*
X14967206Y-15924055D02*
X14957682Y-15905008D01*
X14957682Y-15905008D02*
X14938634Y-15876436D01*
X14938634Y-15876436D02*
X14929111Y-15866912D01*
M02*
