G04 #@! TF.GenerationSoftware,KiCad,Pcbnew,8.0.5*
G04 #@! TF.CreationDate,2024-11-21T15:10:05-05:00*
G04 #@! TF.ProjectId,PCB_Order3,5043425f-4f72-4646-9572-332e6b696361,rev?*
G04 #@! TF.SameCoordinates,Original*
G04 #@! TF.FileFunction,Paste,Top*
G04 #@! TF.FilePolarity,Positive*
%FSLAX46Y46*%
G04 Gerber Fmt 4.6, Leading zero omitted, Abs format (unit mm)*
G04 Created by KiCad (PCBNEW 8.0.5) date 2024-11-21 15:10:05*
%MOMM*%
%LPD*%
G01*
G04 APERTURE LIST*
G04 Aperture macros list*
%AMRoundRect*
0 Rectangle with rounded corners*
0 $1 Rounding radius*
0 $2 $3 $4 $5 $6 $7 $8 $9 X,Y pos of 4 corners*
0 Add a 4 corners polygon primitive as box body*
4,1,4,$2,$3,$4,$5,$6,$7,$8,$9,$2,$3,0*
0 Add four circle primitives for the rounded corners*
1,1,$1+$1,$2,$3*
1,1,$1+$1,$4,$5*
1,1,$1+$1,$6,$7*
1,1,$1+$1,$8,$9*
0 Add four rect primitives between the rounded corners*
20,1,$1+$1,$2,$3,$4,$5,0*
20,1,$1+$1,$4,$5,$6,$7,0*
20,1,$1+$1,$6,$7,$8,$9,0*
20,1,$1+$1,$8,$9,$2,$3,0*%
G04 Aperture macros list end*
%ADD10RoundRect,0.250000X0.337500X0.475000X-0.337500X0.475000X-0.337500X-0.475000X0.337500X-0.475000X0*%
%ADD11RoundRect,0.250000X0.475000X-0.337500X0.475000X0.337500X-0.475000X0.337500X-0.475000X-0.337500X0*%
%ADD12RoundRect,0.035000X-0.745000X-0.105000X0.745000X-0.105000X0.745000X0.105000X-0.745000X0.105000X0*%
%ADD13RoundRect,0.035000X-0.105000X-0.745000X0.105000X-0.745000X0.105000X0.745000X-0.105000X0.745000X0*%
%ADD14RoundRect,0.250000X-0.475000X0.337500X-0.475000X-0.337500X0.475000X-0.337500X0.475000X0.337500X0*%
%ADD15R,1.100000X0.650001*%
%ADD16RoundRect,0.250000X-0.337500X-0.475000X0.337500X-0.475000X0.337500X0.475000X-0.337500X0.475000X0*%
%ADD17R,2.209800X0.863600*%
%ADD18R,0.300000X1.300000*%
%ADD19RoundRect,0.100000X0.100000X-0.637500X0.100000X0.637500X-0.100000X0.637500X-0.100000X-0.637500X0*%
%ADD20R,0.500000X2.250000*%
%ADD21R,2.000000X2.500000*%
%ADD22RoundRect,0.250000X-1.450000X0.400000X-1.450000X-0.400000X1.450000X-0.400000X1.450000X0.400000X0*%
%ADD23RoundRect,0.237500X0.237500X-0.250000X0.237500X0.250000X-0.237500X0.250000X-0.237500X-0.250000X0*%
%ADD24R,1.409700X0.254000*%
%ADD25R,0.600000X1.295000*%
G04 APERTURE END LIST*
D10*
X173575000Y-51600000D03*
X171500000Y-51600000D03*
D11*
X183375000Y-68462500D03*
X183375000Y-66387500D03*
D12*
X162245000Y-107475000D03*
X162245000Y-107975000D03*
X162245000Y-108475000D03*
X162245000Y-108975000D03*
X162245000Y-109475000D03*
X162245000Y-109975000D03*
X162245000Y-110475000D03*
X162245000Y-110975000D03*
X162245000Y-111475000D03*
X162245000Y-111975000D03*
X162245000Y-112475000D03*
X162245000Y-112975000D03*
D13*
X163675000Y-114405000D03*
X164175000Y-114405000D03*
X164675000Y-114405000D03*
X165175000Y-114405000D03*
X165675000Y-114405000D03*
X166175000Y-114405000D03*
X166675000Y-114405000D03*
X167175000Y-114405000D03*
X167675000Y-114405000D03*
X168175000Y-114405000D03*
X168675000Y-114405000D03*
X169175000Y-114405000D03*
D12*
X170605000Y-112975000D03*
X170605000Y-112475000D03*
X170605000Y-111975000D03*
X170605000Y-111475000D03*
X170605000Y-110975000D03*
X170605000Y-110475000D03*
X170605000Y-109975000D03*
X170605000Y-109475000D03*
X170605000Y-108975000D03*
X170605000Y-108475000D03*
X170605000Y-107975000D03*
X170605000Y-107475000D03*
D13*
X169175000Y-106045000D03*
X168675000Y-106045000D03*
X168175000Y-106045000D03*
X167675000Y-106045000D03*
X167175000Y-106045000D03*
X166675000Y-106045000D03*
X166175000Y-106045000D03*
X165675000Y-106045000D03*
X165175000Y-106045000D03*
X164675000Y-106045000D03*
X164175000Y-106045000D03*
X163675000Y-106045000D03*
D14*
X171900000Y-58237500D03*
X171900000Y-60312500D03*
D15*
X166425000Y-123199999D03*
X166425000Y-124150000D03*
X166425000Y-125099998D03*
X168825000Y-125099998D03*
X168825000Y-124150000D03*
X168825000Y-123199999D03*
D16*
X105112500Y-110050000D03*
X107187500Y-110050000D03*
D14*
X177250000Y-60312500D03*
X177250000Y-62387500D03*
X162800000Y-116337500D03*
X162800000Y-118412500D03*
D11*
X125250000Y-108412500D03*
X125250000Y-106337500D03*
D17*
X186578500Y-110724999D03*
X194071500Y-110724999D03*
X186578500Y-115225001D03*
X194071500Y-115225001D03*
D11*
X191070000Y-47777500D03*
X191070000Y-45702500D03*
D14*
X176275000Y-54487500D03*
X176275000Y-56562500D03*
D10*
X173587500Y-54500000D03*
X171512500Y-54500000D03*
D18*
X208320000Y-70115000D03*
X208820000Y-70115000D03*
X209320000Y-70115000D03*
X209820000Y-70115000D03*
X210320000Y-70115000D03*
X210820000Y-70115000D03*
X211320000Y-70115000D03*
X211820000Y-70115000D03*
X212320000Y-70115000D03*
X212820000Y-70115000D03*
X213320000Y-70115000D03*
X213820000Y-70115000D03*
X214320000Y-70115000D03*
X214820000Y-70115000D03*
X215320000Y-70115000D03*
X215820000Y-70115000D03*
X216320000Y-70115000D03*
X216820000Y-70115000D03*
X217320000Y-70115000D03*
X217820000Y-70115000D03*
X218320000Y-70115000D03*
X218820000Y-70115000D03*
X219320000Y-70115000D03*
X219820000Y-70115000D03*
X219820000Y-50415000D03*
X219320000Y-50415000D03*
X218820000Y-50415000D03*
X218320000Y-50415000D03*
X217820000Y-50415000D03*
X217320000Y-50415000D03*
X216820000Y-50415000D03*
X216320000Y-50415000D03*
X215820000Y-50415000D03*
X215320000Y-50415000D03*
X214820000Y-50415000D03*
X214320000Y-50415000D03*
X213820000Y-50415000D03*
X213320000Y-50415000D03*
X212820000Y-50415000D03*
X212320000Y-50415000D03*
X211820000Y-50415000D03*
X211320000Y-50415000D03*
X210820000Y-50415000D03*
X210320000Y-50415000D03*
X209820000Y-50415000D03*
X209320000Y-50415000D03*
X208820000Y-50415000D03*
X208320000Y-50415000D03*
D19*
X98875000Y-109972500D03*
X99525000Y-109972500D03*
X100175000Y-109972500D03*
X100825000Y-109972500D03*
X101475000Y-109972500D03*
X102125000Y-109972500D03*
X102775000Y-109972500D03*
X103425000Y-109972500D03*
X103425000Y-104247500D03*
X102775000Y-104247500D03*
X102125000Y-104247500D03*
X101475000Y-104247500D03*
X100825000Y-104247500D03*
X100175000Y-104247500D03*
X99525000Y-104247500D03*
X98875000Y-104247500D03*
D11*
X183200000Y-61987500D03*
X183200000Y-59912500D03*
D16*
X177662500Y-67050000D03*
X179737500Y-67050000D03*
D20*
X181450000Y-137750000D03*
X182250000Y-137750000D03*
X183050000Y-137750000D03*
X183850000Y-137750000D03*
X184650000Y-137750000D03*
D21*
X178600000Y-137875000D03*
X187500000Y-137875000D03*
X178600000Y-143375000D03*
X187500000Y-143375000D03*
D16*
X157615000Y-72420000D03*
X159690000Y-72420000D03*
D22*
X154890000Y-123305000D03*
X154890000Y-127755000D03*
D23*
X178900000Y-110612500D03*
X178900000Y-108787500D03*
D11*
X183175000Y-56737500D03*
X183175000Y-54662500D03*
D23*
X100500000Y-100912500D03*
X100500000Y-99087500D03*
D24*
X135777750Y-110034951D03*
X135777750Y-109384965D03*
X135777750Y-108734979D03*
X135777750Y-108084993D03*
X135777750Y-107435007D03*
X135777750Y-106785021D03*
X135777750Y-106135035D03*
X135777750Y-105485049D03*
X129872250Y-105485049D03*
X129872250Y-106135035D03*
X129872250Y-106785021D03*
X129872250Y-107435007D03*
X129872250Y-108084993D03*
X129872250Y-108734979D03*
X129872250Y-109384965D03*
X129872250Y-110034951D03*
D10*
X96362500Y-110025000D03*
X94287500Y-110025000D03*
D11*
X171950000Y-64362500D03*
X171950000Y-62287500D03*
X167725000Y-55187500D03*
X167725000Y-53112500D03*
D10*
X125087500Y-110375000D03*
X123012500Y-110375000D03*
D16*
X172662500Y-67275000D03*
X174737500Y-67275000D03*
D11*
X100225000Y-97462500D03*
X100225000Y-95387500D03*
X167700000Y-63587500D03*
X167700000Y-61512500D03*
D14*
X167700000Y-65462500D03*
X167700000Y-67537500D03*
D16*
X170412500Y-121150000D03*
X172487500Y-121150000D03*
D10*
X180137500Y-51575000D03*
X178062500Y-51575000D03*
D15*
X155700000Y-116750001D03*
X155700000Y-115800000D03*
X155700000Y-114850002D03*
X153300000Y-114850002D03*
X153300000Y-115800000D03*
X153300000Y-116750001D03*
D25*
X123350000Y-65841000D03*
X124150000Y-65841000D03*
X124950000Y-65841000D03*
X125750000Y-65841000D03*
X126550000Y-65841000D03*
X127350000Y-65841000D03*
X128150000Y-65841000D03*
X128950000Y-65841000D03*
X129750000Y-65841000D03*
X130550000Y-65841000D03*
X131350000Y-65841000D03*
X132150000Y-65841000D03*
X132950000Y-65841000D03*
X133750000Y-65841000D03*
X134550000Y-65841000D03*
X135350000Y-65841000D03*
X136150000Y-65841000D03*
X136950000Y-65841000D03*
X137750000Y-65841000D03*
X138550000Y-65841000D03*
X139350000Y-65841000D03*
X140150000Y-65841000D03*
X140950000Y-65841000D03*
X141750000Y-65841000D03*
X142550000Y-65841000D03*
X143350000Y-65841000D03*
X144150000Y-65841000D03*
X144150000Y-54385000D03*
X143350000Y-54385000D03*
X142550000Y-54385000D03*
X141750000Y-54385000D03*
X140950000Y-54385000D03*
X140150000Y-54385000D03*
X139350000Y-54385000D03*
X138550000Y-54385000D03*
X137750000Y-54385000D03*
X136950000Y-54385000D03*
X136150000Y-54385000D03*
X135350000Y-54385000D03*
X134550000Y-54385000D03*
X133750000Y-54385000D03*
X132950000Y-54385000D03*
X132150000Y-54385000D03*
X131350000Y-54385000D03*
X130550000Y-54385000D03*
X129750000Y-54385000D03*
X128950000Y-54385000D03*
X128150000Y-54385000D03*
X127350000Y-54385000D03*
X126550000Y-54385000D03*
X125750000Y-54385000D03*
X124950000Y-54385000D03*
X124150000Y-54385000D03*
X123350000Y-54385000D03*
D10*
X184887500Y-29100000D03*
X182812500Y-29100000D03*
D11*
X179070000Y-134027500D03*
X179070000Y-131952500D03*
D16*
X187837500Y-107800000D03*
X189912500Y-107800000D03*
M02*
