G04 #@! TF.GenerationSoftware,KiCad,Pcbnew,8.0.5*
G04 #@! TF.CreationDate,2024-11-21T04:32:58-05:00*
G04 #@! TF.ProjectId,PCB_Order3,5043425f-4f72-4646-9572-332e6b696361,rev?*
G04 #@! TF.SameCoordinates,Original*
G04 #@! TF.FileFunction,Paste,Bot*
G04 #@! TF.FilePolarity,Positive*
%FSLAX46Y46*%
G04 Gerber Fmt 4.6, Leading zero omitted, Abs format (unit mm)*
G04 Created by KiCad (PCBNEW 8.0.5) date 2024-11-21 04:32:58*
%MOMM*%
%LPD*%
G01*
G04 APERTURE LIST*
G04 Aperture macros list*
%AMRoundRect*
0 Rectangle with rounded corners*
0 $1 Rounding radius*
0 $2 $3 $4 $5 $6 $7 $8 $9 X,Y pos of 4 corners*
0 Add a 4 corners polygon primitive as box body*
4,1,4,$2,$3,$4,$5,$6,$7,$8,$9,$2,$3,0*
0 Add four circle primitives for the rounded corners*
1,1,$1+$1,$2,$3*
1,1,$1+$1,$4,$5*
1,1,$1+$1,$6,$7*
1,1,$1+$1,$8,$9*
0 Add four rect primitives between the rounded corners*
20,1,$1+$1,$2,$3,$4,$5,0*
20,1,$1+$1,$4,$5,$6,$7,0*
20,1,$1+$1,$6,$7,$8,$9,0*
20,1,$1+$1,$8,$9,$2,$3,0*%
G04 Aperture macros list end*
%ADD10RoundRect,0.237500X-0.237500X0.250000X-0.237500X-0.250000X0.237500X-0.250000X0.237500X0.250000X0*%
%ADD11RoundRect,0.250000X0.337500X0.475000X-0.337500X0.475000X-0.337500X-0.475000X0.337500X-0.475000X0*%
%ADD12RoundRect,0.090000X0.090000X-0.139000X0.090000X0.139000X-0.090000X0.139000X-0.090000X-0.139000X0*%
%ADD13RoundRect,0.237500X0.250000X0.237500X-0.250000X0.237500X-0.250000X-0.237500X0.250000X-0.237500X0*%
%ADD14RoundRect,0.250000X0.475000X-0.337500X0.475000X0.337500X-0.475000X0.337500X-0.475000X-0.337500X0*%
%ADD15RoundRect,0.237500X-0.237500X0.300000X-0.237500X-0.300000X0.237500X-0.300000X0.237500X0.300000X0*%
%ADD16RoundRect,0.250000X-0.337500X-0.475000X0.337500X-0.475000X0.337500X0.475000X-0.337500X0.475000X0*%
%ADD17RoundRect,0.237500X-0.250000X-0.237500X0.250000X-0.237500X0.250000X0.237500X-0.250000X0.237500X0*%
%ADD18RoundRect,0.250000X-0.475000X0.337500X-0.475000X-0.337500X0.475000X-0.337500X0.475000X0.337500X0*%
%ADD19RoundRect,0.075000X-0.075000X-0.662500X0.075000X-0.662500X0.075000X0.662500X-0.075000X0.662500X0*%
%ADD20RoundRect,0.075000X-0.662500X-0.075000X0.662500X-0.075000X0.662500X0.075000X-0.662500X0.075000X0*%
%ADD21RoundRect,0.237500X0.237500X-0.250000X0.237500X0.250000X-0.237500X0.250000X-0.237500X-0.250000X0*%
G04 APERTURE END LIST*
D10*
X156270000Y-136057500D03*
X156270000Y-137882500D03*
D11*
X78737500Y-122350000D03*
X76662500Y-122350000D03*
D12*
X168731150Y-123480900D03*
X168731150Y-122615900D03*
D13*
X142787500Y-143750000D03*
X140962500Y-143750000D03*
D14*
X107300000Y-74497500D03*
X107300000Y-72422500D03*
D15*
X111250000Y-160037500D03*
X111250000Y-161762500D03*
D14*
X106950000Y-148887500D03*
X106950000Y-146812500D03*
D10*
X70225000Y-148512500D03*
X70225000Y-150337500D03*
D11*
X71562500Y-87200000D03*
X69487500Y-87200000D03*
X76437500Y-81600000D03*
X74362500Y-81600000D03*
D16*
X49687500Y-130825000D03*
X51762500Y-130825000D03*
D10*
X40650000Y-128462500D03*
X40650000Y-130287500D03*
D14*
X110225000Y-135762500D03*
X110225000Y-133687500D03*
D11*
X159707500Y-78080000D03*
X157632500Y-78080000D03*
D17*
X103737500Y-75810000D03*
X105562500Y-75810000D03*
D16*
X132900000Y-91875000D03*
X134975000Y-91875000D03*
D10*
X80500000Y-148712500D03*
X80500000Y-150537500D03*
D14*
X73900000Y-126637500D03*
X73900000Y-124562500D03*
D11*
X76237500Y-87225000D03*
X74162500Y-87225000D03*
D18*
X102650000Y-155862500D03*
X102650000Y-157937500D03*
D14*
X104075000Y-141012500D03*
X104075000Y-138937500D03*
D11*
X84737500Y-133000000D03*
X82662500Y-133000000D03*
X71612500Y-127975000D03*
X69537500Y-127975000D03*
X40462500Y-126500000D03*
X38387500Y-126500000D03*
D18*
X67525000Y-85212500D03*
X67525000Y-87287500D03*
D16*
X49687500Y-128825000D03*
X51762500Y-128825000D03*
D19*
X111250000Y-94197500D03*
X111750000Y-94197500D03*
X112250000Y-94197501D03*
X112750000Y-94197500D03*
X113250000Y-94197500D03*
X113750001Y-94197500D03*
X114250000Y-94197500D03*
X114749999Y-94197500D03*
X115250000Y-94197500D03*
X115750000Y-94197500D03*
X116250001Y-94197500D03*
X116750000Y-94197500D03*
X117250000Y-94197500D03*
X117750000Y-94197500D03*
X118250000Y-94197500D03*
X118750000Y-94197501D03*
X119250000Y-94197500D03*
X119750000Y-94197500D03*
X120250000Y-94197500D03*
X120750000Y-94197500D03*
X121250000Y-94197501D03*
X121750000Y-94197500D03*
X122250000Y-94197500D03*
X122750000Y-94197500D03*
X123250000Y-94197500D03*
X123749999Y-94197500D03*
X124250000Y-94197500D03*
X124750000Y-94197500D03*
X125250001Y-94197500D03*
X125750000Y-94197500D03*
X126249999Y-94197500D03*
X126750000Y-94197500D03*
X127250000Y-94197500D03*
X127750000Y-94197501D03*
X128250000Y-94197500D03*
X128750000Y-94197500D03*
D20*
X130662500Y-92285000D03*
X130662500Y-91785000D03*
X130662501Y-91285000D03*
X130662500Y-90785000D03*
X130662500Y-90285000D03*
X130662500Y-89784999D03*
X130662500Y-89285000D03*
X130662500Y-88785001D03*
X130662500Y-88285000D03*
X130662500Y-87785000D03*
X130662500Y-87284999D03*
X130662500Y-86785000D03*
X130662500Y-86285000D03*
X130662500Y-85785000D03*
X130662500Y-85285000D03*
X130662501Y-84785000D03*
X130662500Y-84285000D03*
X130662500Y-83785000D03*
X130662500Y-83285000D03*
X130662500Y-82785000D03*
X130662501Y-82285000D03*
X130662500Y-81785000D03*
X130662500Y-81285000D03*
X130662500Y-80785000D03*
X130662500Y-80285000D03*
X130662500Y-79785001D03*
X130662500Y-79285000D03*
X130662500Y-78785000D03*
X130662500Y-78284999D03*
X130662500Y-77785000D03*
X130662500Y-77285001D03*
X130662500Y-76785000D03*
X130662500Y-76285000D03*
X130662501Y-75785000D03*
X130662500Y-75285000D03*
X130662500Y-74785000D03*
D19*
X128750000Y-72872500D03*
X128250000Y-72872500D03*
X127750000Y-72872499D03*
X127250000Y-72872500D03*
X126750000Y-72872500D03*
X126249999Y-72872500D03*
X125750000Y-72872500D03*
X125250001Y-72872500D03*
X124750000Y-72872500D03*
X124250000Y-72872500D03*
X123749999Y-72872500D03*
X123250000Y-72872500D03*
X122750000Y-72872500D03*
X122250000Y-72872500D03*
X121750000Y-72872500D03*
X121250000Y-72872499D03*
X120750000Y-72872500D03*
X120250000Y-72872500D03*
X119750000Y-72872500D03*
X119250000Y-72872500D03*
X118750000Y-72872499D03*
X118250000Y-72872500D03*
X117750000Y-72872500D03*
X117250000Y-72872500D03*
X116750000Y-72872500D03*
X116250001Y-72872500D03*
X115750000Y-72872500D03*
X115250000Y-72872500D03*
X114749999Y-72872500D03*
X114250000Y-72872500D03*
X113750001Y-72872500D03*
X113250000Y-72872500D03*
X112750000Y-72872500D03*
X112250000Y-72872499D03*
X111750000Y-72872500D03*
X111250000Y-72872500D03*
D20*
X109337500Y-74785000D03*
X109337500Y-75285000D03*
X109337499Y-75785000D03*
X109337500Y-76285000D03*
X109337500Y-76785000D03*
X109337500Y-77285001D03*
X109337500Y-77785000D03*
X109337500Y-78284999D03*
X109337500Y-78785000D03*
X109337500Y-79285000D03*
X109337500Y-79785001D03*
X109337500Y-80285000D03*
X109337500Y-80785000D03*
X109337500Y-81285000D03*
X109337500Y-81785000D03*
X109337499Y-82285000D03*
X109337500Y-82785000D03*
X109337500Y-83285000D03*
X109337500Y-83785000D03*
X109337500Y-84285000D03*
X109337499Y-84785000D03*
X109337500Y-85285000D03*
X109337500Y-85785000D03*
X109337500Y-86285000D03*
X109337500Y-86785000D03*
X109337500Y-87284999D03*
X109337500Y-87785000D03*
X109337500Y-88285000D03*
X109337500Y-88785001D03*
X109337500Y-89285000D03*
X109337500Y-89784999D03*
X109337500Y-90285000D03*
X109337500Y-90785000D03*
X109337499Y-91285000D03*
X109337500Y-91785000D03*
X109337500Y-92285000D03*
D11*
X159482500Y-91030000D03*
X157407500Y-91030000D03*
D14*
X114150000Y-158212500D03*
X114150000Y-156137500D03*
D18*
X114975000Y-133562500D03*
X114975000Y-135637500D03*
X162431150Y-123570900D03*
X162431150Y-125645900D03*
D16*
X76612500Y-128200000D03*
X78687500Y-128200000D03*
D18*
X106700000Y-133637500D03*
X106700000Y-135712500D03*
D14*
X129225000Y-70497500D03*
X129225000Y-68422500D03*
D18*
X165401150Y-121920900D03*
X165401150Y-123995900D03*
D16*
X38512500Y-132325000D03*
X40587500Y-132325000D03*
D10*
X78725000Y-124312500D03*
X78725000Y-126137500D03*
D11*
X88162500Y-87250000D03*
X86087500Y-87250000D03*
D16*
X69537500Y-81450000D03*
X71612500Y-81450000D03*
X38502500Y-150590000D03*
X40577500Y-150590000D03*
D21*
X144275000Y-147287500D03*
X144275000Y-145462500D03*
D11*
X80612500Y-87125000D03*
X78537500Y-87125000D03*
X52577500Y-150560000D03*
X50502500Y-150560000D03*
M02*
