G04 #@! TF.GenerationSoftware,KiCad,Pcbnew,8.0.5*
G04 #@! TF.CreationDate,2024-11-21T15:10:05-05:00*
G04 #@! TF.ProjectId,PCB_Order3,5043425f-4f72-4646-9572-332e6b696361,rev?*
G04 #@! TF.SameCoordinates,Original*
G04 #@! TF.FileFunction,Soldermask,Bot*
G04 #@! TF.FilePolarity,Negative*
%FSLAX46Y46*%
G04 Gerber Fmt 4.6, Leading zero omitted, Abs format (unit mm)*
G04 Created by KiCad (PCBNEW 8.0.5) date 2024-11-21 15:10:05*
%MOMM*%
%LPD*%
G01*
G04 APERTURE LIST*
G04 Aperture macros list*
%AMRoundRect*
0 Rectangle with rounded corners*
0 $1 Rounding radius*
0 $2 $3 $4 $5 $6 $7 $8 $9 X,Y pos of 4 corners*
0 Add a 4 corners polygon primitive as box body*
4,1,4,$2,$3,$4,$5,$6,$7,$8,$9,$2,$3,0*
0 Add four circle primitives for the rounded corners*
1,1,$1+$1,$2,$3*
1,1,$1+$1,$4,$5*
1,1,$1+$1,$6,$7*
1,1,$1+$1,$8,$9*
0 Add four rect primitives between the rounded corners*
20,1,$1+$1,$2,$3,$4,$5,0*
20,1,$1+$1,$4,$5,$6,$7,0*
20,1,$1+$1,$6,$7,$8,$9,0*
20,1,$1+$1,$8,$9,$2,$3,0*%
G04 Aperture macros list end*
%ADD10C,1.303000*%
%ADD11C,1.300000*%
%ADD12R,1.700000X1.700000*%
%ADD13O,1.700000X1.700000*%
%ADD14C,1.600000*%
%ADD15C,1.574800*%
%ADD16R,1.600000X1.600000*%
%ADD17R,1.320800X1.320800*%
%ADD18C,1.320800*%
%ADD19R,3.765000X3.765000*%
%ADD20C,3.765000*%
%ADD21RoundRect,0.250000X0.337500X0.475000X-0.337500X0.475000X-0.337500X-0.475000X0.337500X-0.475000X0*%
%ADD22RoundRect,0.100000X0.100000X-0.217500X0.100000X0.217500X-0.100000X0.217500X-0.100000X-0.217500X0*%
%ADD23RoundRect,0.237500X0.250000X0.237500X-0.250000X0.237500X-0.250000X-0.237500X0.250000X-0.237500X0*%
%ADD24RoundRect,0.250000X0.475000X-0.337500X0.475000X0.337500X-0.475000X0.337500X-0.475000X-0.337500X0*%
%ADD25RoundRect,0.237500X-0.237500X0.300000X-0.237500X-0.300000X0.237500X-0.300000X0.237500X0.300000X0*%
%ADD26RoundRect,0.237500X-0.237500X0.250000X-0.237500X-0.250000X0.237500X-0.250000X0.237500X0.250000X0*%
%ADD27RoundRect,0.250000X-0.337500X-0.475000X0.337500X-0.475000X0.337500X0.475000X-0.337500X0.475000X0*%
%ADD28RoundRect,0.237500X-0.250000X-0.237500X0.250000X-0.237500X0.250000X0.237500X-0.250000X0.237500X0*%
%ADD29RoundRect,0.250000X-0.475000X0.337500X-0.475000X-0.337500X0.475000X-0.337500X0.475000X0.337500X0*%
%ADD30RoundRect,0.075000X-0.662500X-0.075000X0.662500X-0.075000X0.662500X0.075000X-0.662500X0.075000X0*%
%ADD31RoundRect,0.075000X-0.075000X-0.662500X0.075000X-0.662500X0.075000X0.662500X-0.075000X0.662500X0*%
%ADD32RoundRect,0.237500X0.237500X-0.250000X0.237500X0.250000X-0.237500X0.250000X-0.237500X-0.250000X0*%
%ADD33C,0.550000*%
%ADD34C,0.450000*%
G04 APERTURE END LIST*
D10*
X164680000Y-140850000D03*
X167220000Y-140850000D03*
X169760000Y-140850000D03*
X172300000Y-140850000D03*
D11*
X173690000Y-136650000D03*
X163290000Y-136650000D03*
D12*
X206480000Y-116710000D03*
D13*
X209020000Y-116710000D03*
X211560000Y-116710000D03*
X214100000Y-116710000D03*
D14*
X140540000Y-126530000D03*
X143040000Y-126530000D03*
D10*
X149480000Y-140925000D03*
X152020000Y-140925000D03*
X154560000Y-140925000D03*
X157100000Y-140925000D03*
D11*
X148090000Y-136725000D03*
X158490000Y-136725000D03*
D15*
X226836150Y-97523400D03*
X226836150Y-100063400D03*
X226836150Y-102603400D03*
X226836150Y-105143400D03*
D16*
X179295113Y-127150000D03*
D14*
X177295113Y-127150000D03*
D16*
X212251150Y-100120780D03*
D14*
X212251150Y-97620780D03*
D17*
X176325000Y-113750000D03*
D18*
X178825000Y-113750000D03*
X181325000Y-113750000D03*
D19*
X88875000Y-135975000D03*
D20*
X94175000Y-135975000D03*
X108175000Y-135975000D03*
D19*
X118700000Y-136000000D03*
D20*
X124000000Y-136000000D03*
X138000000Y-136000000D03*
D14*
X121380000Y-126250000D03*
X118880000Y-126250000D03*
D12*
X163600000Y-26200000D03*
D13*
X161060000Y-26200000D03*
X158520000Y-26200000D03*
X155980000Y-26200000D03*
X153440000Y-26200000D03*
X150900000Y-26200000D03*
X148360000Y-26200000D03*
X145820000Y-26200000D03*
X143280000Y-26200000D03*
D12*
X185050000Y-26200000D03*
D13*
X182510000Y-26200000D03*
X179970000Y-26200000D03*
X177430000Y-26200000D03*
D21*
X134387500Y-98100000D03*
X132312500Y-98100000D03*
D22*
X224381150Y-99205900D03*
X224381150Y-98390900D03*
D23*
X198437500Y-119500000D03*
X196612500Y-119500000D03*
D24*
X162950000Y-50247500D03*
X162950000Y-48172500D03*
D25*
X166900000Y-135787500D03*
X166900000Y-137512500D03*
D24*
X162600000Y-124637500D03*
X162600000Y-122562500D03*
D26*
X125875000Y-124262500D03*
X125875000Y-126087500D03*
D21*
X127212500Y-62950000D03*
X125137500Y-62950000D03*
X132087500Y-57350000D03*
X130012500Y-57350000D03*
D27*
X105337500Y-106575000D03*
X107412500Y-106575000D03*
D26*
X96300000Y-104212500D03*
X96300000Y-106037500D03*
D24*
X165875000Y-111512500D03*
X165875000Y-109437500D03*
D21*
X215357500Y-53830000D03*
X213282500Y-53830000D03*
D28*
X159387500Y-51560000D03*
X161212500Y-51560000D03*
D27*
X188550000Y-67625000D03*
X190625000Y-67625000D03*
D26*
X136150000Y-124462500D03*
X136150000Y-126287500D03*
D24*
X129550000Y-102387500D03*
X129550000Y-100312500D03*
D21*
X131887500Y-62975000D03*
X129812500Y-62975000D03*
D29*
X158300000Y-131612500D03*
X158300000Y-133687500D03*
D24*
X159725000Y-116762500D03*
X159725000Y-114687500D03*
D21*
X140387500Y-108750000D03*
X138312500Y-108750000D03*
X127262500Y-103725000D03*
X125187500Y-103725000D03*
X96112500Y-102250000D03*
X94037500Y-102250000D03*
D29*
X123175000Y-60962500D03*
X123175000Y-63037500D03*
D27*
X105337500Y-104575000D03*
X107412500Y-104575000D03*
D30*
X164987500Y-68035000D03*
X164987500Y-67535000D03*
X164987499Y-67035000D03*
X164987500Y-66535000D03*
X164987500Y-66035000D03*
X164987500Y-65534999D03*
X164987500Y-65035000D03*
X164987500Y-64535001D03*
X164987500Y-64035000D03*
X164987500Y-63535000D03*
X164987500Y-63034999D03*
X164987500Y-62535000D03*
X164987500Y-62035000D03*
X164987500Y-61535000D03*
X164987500Y-61035000D03*
X164987499Y-60535000D03*
X164987500Y-60035000D03*
X164987500Y-59535000D03*
X164987500Y-59035000D03*
X164987500Y-58535000D03*
X164987499Y-58035000D03*
X164987500Y-57535000D03*
X164987500Y-57035000D03*
X164987500Y-56535000D03*
X164987500Y-56035000D03*
X164987500Y-55535001D03*
X164987500Y-55035000D03*
X164987500Y-54535000D03*
X164987500Y-54034999D03*
X164987500Y-53535000D03*
X164987500Y-53035001D03*
X164987500Y-52535000D03*
X164987500Y-52035000D03*
X164987499Y-51535000D03*
X164987500Y-51035000D03*
X164987500Y-50535000D03*
D31*
X166900000Y-48622500D03*
X167400000Y-48622500D03*
X167900000Y-48622499D03*
X168400000Y-48622500D03*
X168900000Y-48622500D03*
X169400001Y-48622500D03*
X169900000Y-48622500D03*
X170399999Y-48622500D03*
X170900000Y-48622500D03*
X171400000Y-48622500D03*
X171900001Y-48622500D03*
X172400000Y-48622500D03*
X172900000Y-48622500D03*
X173400000Y-48622500D03*
X173900000Y-48622500D03*
X174400000Y-48622499D03*
X174900000Y-48622500D03*
X175400000Y-48622500D03*
X175900000Y-48622500D03*
X176400000Y-48622500D03*
X176900000Y-48622499D03*
X177400000Y-48622500D03*
X177900000Y-48622500D03*
X178400000Y-48622500D03*
X178900000Y-48622500D03*
X179399999Y-48622500D03*
X179900000Y-48622500D03*
X180400000Y-48622500D03*
X180900001Y-48622500D03*
X181400000Y-48622500D03*
X181899999Y-48622500D03*
X182400000Y-48622500D03*
X182900000Y-48622500D03*
X183400000Y-48622499D03*
X183900000Y-48622500D03*
X184400000Y-48622500D03*
D30*
X186312500Y-50535000D03*
X186312500Y-51035000D03*
X186312501Y-51535000D03*
X186312500Y-52035000D03*
X186312500Y-52535000D03*
X186312500Y-53035001D03*
X186312500Y-53535000D03*
X186312500Y-54034999D03*
X186312500Y-54535000D03*
X186312500Y-55035000D03*
X186312500Y-55535001D03*
X186312500Y-56035000D03*
X186312500Y-56535000D03*
X186312500Y-57035000D03*
X186312500Y-57535000D03*
X186312501Y-58035000D03*
X186312500Y-58535000D03*
X186312500Y-59035000D03*
X186312500Y-59535000D03*
X186312500Y-60035000D03*
X186312501Y-60535000D03*
X186312500Y-61035000D03*
X186312500Y-61535000D03*
X186312500Y-62035000D03*
X186312500Y-62535000D03*
X186312500Y-63034999D03*
X186312500Y-63535000D03*
X186312500Y-64035000D03*
X186312500Y-64535001D03*
X186312500Y-65035000D03*
X186312500Y-65534999D03*
X186312500Y-66035000D03*
X186312500Y-66535000D03*
X186312501Y-67035000D03*
X186312500Y-67535000D03*
X186312500Y-68035000D03*
D31*
X184400000Y-69947500D03*
X183900000Y-69947500D03*
X183400000Y-69947501D03*
X182900000Y-69947500D03*
X182400000Y-69947500D03*
X181899999Y-69947500D03*
X181400000Y-69947500D03*
X180900001Y-69947500D03*
X180400000Y-69947500D03*
X179900000Y-69947500D03*
X179399999Y-69947500D03*
X178900000Y-69947500D03*
X178400000Y-69947500D03*
X177900000Y-69947500D03*
X177400000Y-69947500D03*
X176900000Y-69947501D03*
X176400000Y-69947500D03*
X175900000Y-69947500D03*
X175400000Y-69947500D03*
X174900000Y-69947500D03*
X174400000Y-69947501D03*
X173900000Y-69947500D03*
X173400000Y-69947500D03*
X172900000Y-69947500D03*
X172400000Y-69947500D03*
X171900001Y-69947500D03*
X171400000Y-69947500D03*
X170900000Y-69947500D03*
X170399999Y-69947500D03*
X169900000Y-69947500D03*
X169400001Y-69947500D03*
X168900000Y-69947500D03*
X168400000Y-69947500D03*
X167900000Y-69947501D03*
X167400000Y-69947500D03*
X166900000Y-69947500D03*
D21*
X215132500Y-66780000D03*
X213057500Y-66780000D03*
D24*
X169800000Y-133962500D03*
X169800000Y-131887500D03*
D29*
X170625000Y-109312500D03*
X170625000Y-111387500D03*
X218081150Y-99320900D03*
X218081150Y-101395900D03*
D27*
X132262500Y-103950000D03*
X134337500Y-103950000D03*
D29*
X162350000Y-109387500D03*
X162350000Y-111462500D03*
D24*
X184875000Y-46247500D03*
X184875000Y-44172500D03*
D29*
X221051150Y-97670900D03*
X221051150Y-99745900D03*
D27*
X94162500Y-108075000D03*
X96237500Y-108075000D03*
D26*
X134375000Y-100062500D03*
X134375000Y-101887500D03*
D21*
X143812500Y-63000000D03*
X141737500Y-63000000D03*
D27*
X125187500Y-57200000D03*
X127262500Y-57200000D03*
X94152500Y-126340000D03*
X96227500Y-126340000D03*
D32*
X199925000Y-123037500D03*
X199925000Y-121212500D03*
D26*
X211920000Y-111807500D03*
X211920000Y-113632500D03*
D21*
X136262500Y-62875000D03*
X134187500Y-62875000D03*
X108227500Y-126310000D03*
X106152500Y-126310000D03*
D33*
X220210000Y-28620000D03*
X203480000Y-143020000D03*
X222700000Y-129610000D03*
X97380000Y-31570000D03*
X111570000Y-40730000D03*
X96530000Y-75100000D03*
X114220000Y-68390000D03*
X92890000Y-50100000D03*
X92880000Y-49300000D03*
D34*
X162775000Y-119500000D03*
X181500000Y-119500000D03*
X158975000Y-119500000D03*
X181500000Y-135600000D03*
X168825000Y-119500000D03*
X102825000Y-93400000D03*
X184725000Y-93375000D03*
X184725000Y-71400000D03*
X166325000Y-63600000D03*
X219591150Y-101348400D03*
X134187500Y-61550000D03*
X159725000Y-117900000D03*
X105350000Y-103000000D03*
X100175000Y-102700000D03*
X177925000Y-54400000D03*
X174920000Y-51570000D03*
X213100000Y-52060000D03*
X131275000Y-105250000D03*
X176550000Y-67050000D03*
X96110000Y-100870000D03*
X133900000Y-64225000D03*
X166250000Y-54250000D03*
X134475000Y-108075000D03*
X168600000Y-109400000D03*
X166450000Y-59150000D03*
X105350000Y-107950000D03*
X144200000Y-64275000D03*
X179725000Y-49985000D03*
X143850000Y-61450000D03*
X171900000Y-56975000D03*
X121950000Y-63050000D03*
X127250000Y-58750000D03*
X129812500Y-61550000D03*
X132250000Y-55975000D03*
X221061150Y-101088400D03*
X128675000Y-103725000D03*
X156190000Y-72400000D03*
X102175000Y-107400000D03*
X164525000Y-123200000D03*
X171450000Y-67250000D03*
X211920000Y-53880000D03*
X168200000Y-49960000D03*
X170325000Y-124100000D03*
X213595000Y-68705000D03*
X127475000Y-55800000D03*
X131275000Y-106275000D03*
X128070000Y-102350000D03*
X166280000Y-64830000D03*
X166250000Y-65534999D03*
X162675000Y-121025000D03*
X171950000Y-108425000D03*
X166350000Y-51760000D03*
X163700000Y-108775000D03*
X98775000Y-97425000D03*
X213290000Y-111790000D03*
X156950000Y-116750001D03*
X184900000Y-68300000D03*
X172850000Y-68675000D03*
X165950000Y-108150000D03*
X184875000Y-61825000D03*
X222581150Y-99728400D03*
X218091150Y-102818400D03*
X177250000Y-59150000D03*
X136075000Y-98100000D03*
X173600000Y-53150000D03*
X174890000Y-49940000D03*
X168025000Y-68650000D03*
X125137500Y-61462500D03*
X211620000Y-66780000D03*
X181950000Y-68450000D03*
X181650000Y-51550000D03*
X133350000Y-57350000D03*
X134390000Y-96730000D03*
X181630000Y-29000000D03*
X213840000Y-71670000D03*
X173450000Y-62200000D03*
X166425000Y-68700000D03*
X183250000Y-63150000D03*
X159400000Y-50360000D03*
X172025000Y-107425000D03*
X181750000Y-56850000D03*
X184425000Y-49975000D03*
X177775000Y-68475000D03*
X213810000Y-48850000D03*
X124950000Y-64425000D03*
X97390000Y-102220000D03*
X166325000Y-55150000D03*
X129850000Y-64325000D03*
X166210000Y-107430000D03*
X184900000Y-56525000D03*
X191070000Y-49210000D03*
X168160000Y-115940000D03*
X123350000Y-64450000D03*
X103650000Y-87785000D03*
X169375000Y-87785000D03*
X169375000Y-49960000D03*
X101125000Y-108325000D03*
X99502775Y-111477223D03*
X101475000Y-88610000D03*
X168750000Y-88560000D03*
X168800000Y-50585000D03*
X102125000Y-86435000D03*
X170312500Y-86422500D03*
X170375000Y-49985000D03*
X121850000Y-60960000D03*
X198570000Y-123040000D03*
X168650000Y-104600000D03*
X168420000Y-107530000D03*
X177570000Y-131900000D03*
X178030000Y-49980000D03*
X101550000Y-111450000D03*
X172250000Y-110975000D03*
X191900000Y-67625000D03*
X167170000Y-115960000D03*
X164250000Y-116275000D03*
X100260000Y-108610000D03*
X131000000Y-103930000D03*
X127150000Y-61450000D03*
X131300000Y-107450000D03*
X98790000Y-95390000D03*
X172470000Y-122710000D03*
X132340000Y-67790000D03*
X189590000Y-45680000D03*
X167750000Y-51750000D03*
X159740000Y-73910000D03*
X131887500Y-61650000D03*
X92820000Y-102210000D03*
X174750000Y-56625000D03*
X167180000Y-104480000D03*
X173995727Y-47263513D03*
X177260000Y-63880000D03*
X187950000Y-55550000D03*
X130050000Y-58750000D03*
X171510000Y-56030000D03*
X94040000Y-100870000D03*
X107170000Y-108540000D03*
X133730000Y-52620000D03*
X183250000Y-58650000D03*
X123010000Y-111880000D03*
X166410000Y-60900000D03*
X133850000Y-55650000D03*
X167250000Y-112900000D03*
X161425000Y-48110000D03*
X162575000Y-126200000D03*
X131120000Y-98080000D03*
X121970000Y-54390000D03*
X160970000Y-124630000D03*
X132320000Y-99440000D03*
X216820000Y-53780000D03*
X141730000Y-61570000D03*
X140400000Y-110110000D03*
X174750000Y-65850000D03*
X128320000Y-107440000D03*
X218081150Y-97958400D03*
X219561150Y-97688400D03*
X214780000Y-71620000D03*
X169790000Y-130280000D03*
X167325000Y-111550000D03*
X172105913Y-112380913D03*
X214750000Y-48890000D03*
X184975000Y-67275000D03*
X141670000Y-108730000D03*
X184900000Y-30420000D03*
X107420000Y-107890000D03*
X173375000Y-64400000D03*
X165100000Y-124125000D03*
X184875000Y-60525000D03*
X108500000Y-110050000D03*
X103000000Y-108400000D03*
X123275000Y-59650000D03*
X128170000Y-100290000D03*
X191050000Y-44330000D03*
X123375000Y-55850000D03*
X222641150Y-97658400D03*
X166250000Y-47750000D03*
X108740000Y-104550000D03*
X166280000Y-61620000D03*
X179060000Y-130530000D03*
X123970000Y-103690000D03*
X121650000Y-110360000D03*
X94160000Y-106690000D03*
X171525000Y-50150000D03*
X171940000Y-65750000D03*
X107410000Y-103160000D03*
X173650000Y-49850000D03*
X100240000Y-94070000D03*
X154510000Y-115800000D03*
X161070000Y-72420000D03*
X92910000Y-110030000D03*
X214519448Y-51926175D03*
X137300000Y-62875000D03*
X165200000Y-107400000D03*
X125250000Y-58750000D03*
X98500000Y-102975000D03*
X168250000Y-131875000D03*
X199940000Y-124230000D03*
X166450000Y-67537500D03*
X132300000Y-96750000D03*
X128620000Y-57280000D03*
X94050000Y-103590000D03*
X215110000Y-65350000D03*
X140700000Y-63000000D03*
X179730000Y-65570000D03*
X219591150Y-99298400D03*
X184750000Y-55150000D03*
X132270000Y-102580000D03*
X163800000Y-111475000D03*
X132225000Y-64325000D03*
X186130000Y-29110000D03*
X137270000Y-110060000D03*
X190375000Y-116350000D03*
X181560000Y-54690000D03*
X159720000Y-113370000D03*
X164350000Y-48150000D03*
X168350000Y-113000000D03*
X174670000Y-71580000D03*
X127470000Y-67650000D03*
X216440000Y-66770000D03*
X183350000Y-65150000D03*
X177890000Y-56540000D03*
X176850000Y-51550000D03*
X173600000Y-60250000D03*
X168600000Y-111025000D03*
X99430339Y-102610641D03*
X171475000Y-53050000D03*
X92930000Y-108040000D03*
X129750000Y-56000000D03*
X181750000Y-66360000D03*
X151850000Y-115800000D03*
X107190000Y-111470000D03*
X178850000Y-62350000D03*
X172150000Y-111850000D03*
X161320000Y-116320000D03*
X189930000Y-106210000D03*
X179560000Y-68350000D03*
X188150000Y-61200000D03*
X186200000Y-44160000D03*
X190630000Y-69100000D03*
X164525000Y-107375000D03*
X175730000Y-68540000D03*
X136270000Y-61440000D03*
X130900000Y-100280000D03*
X192660000Y-45660000D03*
X166460000Y-53060000D03*
X167200000Y-107450000D03*
X129760000Y-52580000D03*
X125150000Y-52570000D03*
X123840000Y-57190000D03*
X125180000Y-102380000D03*
X214620000Y-68630000D03*
X144250000Y-56025000D03*
X167700000Y-60300000D03*
X191375000Y-107800000D03*
X125200000Y-105060000D03*
X161340000Y-114670000D03*
X94280000Y-111470000D03*
X129560000Y-99080000D03*
X181560000Y-59920000D03*
X180710000Y-131960000D03*
X221041150Y-96298400D03*
X123000000Y-108910000D03*
X183910000Y-139860000D03*
X166950000Y-49950000D03*
X145540000Y-54370000D03*
X125012500Y-55812500D03*
X157175000Y-115800000D03*
X173900000Y-121200000D03*
X180950000Y-67050000D03*
X127450000Y-64325000D03*
X178655736Y-49940736D03*
X174450000Y-68650000D03*
X108780000Y-106550000D03*
X183150000Y-53450000D03*
X184640000Y-135520000D03*
X135800000Y-110920000D03*
X216541150Y-99288400D03*
X159680000Y-70950000D03*
X215400000Y-55230000D03*
X165620000Y-112850000D03*
X100225000Y-111275000D03*
X154500000Y-96560000D03*
X186575000Y-96560000D03*
X154500000Y-56110001D03*
X138800000Y-127010000D03*
X137200000Y-108700000D03*
X159050000Y-105375000D03*
X159050000Y-98875000D03*
X193050000Y-62075000D03*
X138225000Y-105425000D03*
X193050000Y-98850000D03*
X153800000Y-55050000D03*
X137675000Y-106800000D03*
X153700000Y-106800000D03*
X193650000Y-50475000D03*
X157900000Y-99600000D03*
X157900000Y-107450000D03*
X193600000Y-99475000D03*
X138475000Y-107475000D03*
X123170000Y-126660000D03*
X139175000Y-106175000D03*
X158475000Y-106125000D03*
X194300000Y-51050000D03*
X194300000Y-100350000D03*
X158475000Y-100275000D03*
X133850000Y-109400000D03*
X128150000Y-110000000D03*
X129900000Y-110875000D03*
X198175000Y-35225000D03*
X198175000Y-56525000D03*
X217645000Y-35355000D03*
X121310000Y-69150000D03*
X124250000Y-69140000D03*
X121410000Y-35225000D03*
X210445000Y-41765000D03*
X148650000Y-75860000D03*
X178700000Y-41735000D03*
X178700000Y-47185000D03*
X131450000Y-75860000D03*
X148650000Y-41700000D03*
X178275000Y-83525000D03*
X178275000Y-71300000D03*
X211095000Y-83555000D03*
X179550000Y-41085000D03*
X179550000Y-47160000D03*
X209863388Y-41190000D03*
X149200000Y-41050000D03*
X149200000Y-76435000D03*
X133050000Y-76435000D03*
X120700000Y-70120000D03*
X217020000Y-34630000D03*
X120700000Y-34620000D03*
X125740000Y-70080000D03*
X198775000Y-57125000D03*
X198750000Y-34625000D03*
X211670000Y-82205000D03*
X180350000Y-82125000D03*
X180325000Y-71425000D03*
X178100000Y-42335000D03*
X211095000Y-42365000D03*
X178100000Y-46335000D03*
X130650000Y-75335000D03*
X148000000Y-42335000D03*
X148050000Y-75335000D03*
X179450000Y-82800000D03*
X179475000Y-71525000D03*
X216745000Y-82830000D03*
X211845000Y-43015000D03*
X129050000Y-74585000D03*
X177475000Y-42935000D03*
X177500000Y-47210000D03*
X147400000Y-42950000D03*
X147550000Y-74585000D03*
X216270000Y-76755000D03*
X197550000Y-54500000D03*
X197550000Y-76725000D03*
X212295000Y-75105000D03*
X204700000Y-75075000D03*
X204650000Y-63050000D03*
X163525000Y-79110000D03*
X163453435Y-59808096D03*
X217370000Y-79140000D03*
X128250000Y-81525000D03*
X203200000Y-39050000D03*
X181375000Y-71425000D03*
X203150000Y-81600000D03*
X216045000Y-39105000D03*
X181400000Y-81525000D03*
X196850000Y-54025000D03*
X196925000Y-76050000D03*
X215770000Y-76005000D03*
X216620000Y-39730000D03*
X126650000Y-80925000D03*
X204065000Y-80925000D03*
X182675000Y-71450000D03*
X204200000Y-39700000D03*
X182700000Y-80925000D03*
X151650000Y-69585000D03*
X151809128Y-61614040D03*
X143450000Y-69460000D03*
X182975000Y-47010000D03*
X183125000Y-31250000D03*
X139450000Y-44985000D03*
X181900000Y-38360000D03*
X129050000Y-38360000D03*
X181875000Y-44935000D03*
X181300000Y-39060000D03*
X130650000Y-39060000D03*
X181300000Y-45435000D03*
X168225000Y-71600000D03*
X146450000Y-78550000D03*
X146427085Y-49075000D03*
X135450000Y-49075000D03*
X168225000Y-78535000D03*
X141050000Y-46150000D03*
X152300000Y-62150000D03*
X152200000Y-70325000D03*
X142650000Y-70085000D03*
X152800000Y-62600000D03*
X152750000Y-70900000D03*
X141850000Y-70685000D03*
X154850000Y-53900000D03*
X137050000Y-51610000D03*
X154800000Y-51610000D03*
X196225000Y-53575000D03*
X124250000Y-36025000D03*
X196225000Y-36100000D03*
X153275000Y-71500000D03*
X153250000Y-63300000D03*
X141050000Y-71435000D03*
X141860000Y-46760000D03*
X180150000Y-46635000D03*
X180150000Y-40510000D03*
X133050000Y-40535000D03*
X199750000Y-59075000D03*
X139450000Y-80325000D03*
X199750000Y-80325000D03*
X140250000Y-45585000D03*
X182450000Y-44435654D03*
X128250000Y-37785000D03*
X182550000Y-37760000D03*
X195575000Y-36700000D03*
X125850000Y-36625000D03*
X195600000Y-53025000D03*
X149750000Y-77210000D03*
X149800000Y-47300000D03*
X137050000Y-77210000D03*
X137850000Y-68060000D03*
X150775000Y-68060000D03*
X151043332Y-54475000D03*
X180725000Y-46135000D03*
X131450000Y-39810000D03*
X180700000Y-39810000D03*
X143350000Y-52885000D03*
X158650000Y-52885000D03*
X158635533Y-60964467D03*
X167477588Y-71662285D03*
X167550000Y-77960000D03*
X134650000Y-77925000D03*
X199150000Y-79685000D03*
X199200000Y-58535000D03*
X138650000Y-79685000D03*
X142650000Y-52185000D03*
X157950000Y-60350000D03*
X157950000Y-52185000D03*
X135425000Y-68735000D03*
X151250000Y-68935000D03*
X151500000Y-55625000D03*
X136250000Y-34050000D03*
X200680000Y-34050000D03*
X200780000Y-60430000D03*
X172925000Y-82100000D03*
X172925000Y-71475000D03*
X136250000Y-82100000D03*
X126660000Y-37185000D03*
X194850000Y-37185000D03*
X194875000Y-52550000D03*
X146950000Y-44385000D03*
X147000000Y-73585000D03*
X140250000Y-73585000D03*
X202364522Y-69947500D03*
X171545758Y-72015153D03*
X201746827Y-66535000D03*
X172175552Y-71446175D03*
X155675000Y-111700000D03*
X177475000Y-98175000D03*
X177450000Y-71425000D03*
X152900000Y-98175000D03*
X152875000Y-111675000D03*
X183700000Y-32650000D03*
X183700000Y-46494468D03*
X160825000Y-66285000D03*
X160600000Y-33475000D03*
X178850000Y-72550000D03*
X200300000Y-64535001D03*
X200300000Y-119500000D03*
X201250000Y-117475000D03*
X201246827Y-66010000D03*
X183050000Y-117500000D03*
X159849997Y-33475000D03*
X159875000Y-65770542D03*
X182275000Y-118075000D03*
X200825000Y-65510000D03*
X200825000Y-118075000D03*
X162125000Y-67460000D03*
X162125000Y-31400000D03*
X157025000Y-33475000D03*
X157000000Y-65185000D03*
X161550000Y-66869370D03*
X161550000Y-33475000D03*
X156425000Y-64585000D03*
X156274997Y-33475000D03*
X138650000Y-43585000D03*
X155524994Y-33475000D03*
X155550000Y-64110000D03*
X156540000Y-131710000D03*
X162950000Y-67985000D03*
X162851000Y-31211778D03*
X163400000Y-59060000D03*
X163400000Y-33475000D03*
M02*
