G04 #@! TF.GenerationSoftware,KiCad,Pcbnew,8.0.5*
G04 #@! TF.CreationDate,2024-11-21T16:22:07-05:00*
G04 #@! TF.ProjectId,PCB_Order3,5043425f-4f72-4646-9572-332e6b696361,rev?*
G04 #@! TF.SameCoordinates,Original*
G04 #@! TF.FileFunction,Paste,Bot*
G04 #@! TF.FilePolarity,Positive*
%FSLAX46Y46*%
G04 Gerber Fmt 4.6, Leading zero omitted, Abs format (unit mm)*
G04 Created by KiCad (PCBNEW 8.0.5) date 2024-11-21 16:22:07*
%MOMM*%
%LPD*%
G01*
G04 APERTURE LIST*
G04 Aperture macros list*
%AMRoundRect*
0 Rectangle with rounded corners*
0 $1 Rounding radius*
0 $2 $3 $4 $5 $6 $7 $8 $9 X,Y pos of 4 corners*
0 Add a 4 corners polygon primitive as box body*
4,1,4,$2,$3,$4,$5,$6,$7,$8,$9,$2,$3,0*
0 Add four circle primitives for the rounded corners*
1,1,$1+$1,$2,$3*
1,1,$1+$1,$4,$5*
1,1,$1+$1,$6,$7*
1,1,$1+$1,$8,$9*
0 Add four rect primitives between the rounded corners*
20,1,$1+$1,$2,$3,$4,$5,0*
20,1,$1+$1,$4,$5,$6,$7,0*
20,1,$1+$1,$6,$7,$8,$9,0*
20,1,$1+$1,$8,$9,$2,$3,0*%
G04 Aperture macros list end*
%ADD10RoundRect,0.250000X0.337500X0.475000X-0.337500X0.475000X-0.337500X-0.475000X0.337500X-0.475000X0*%
%ADD11RoundRect,0.090000X0.090000X-0.139000X0.090000X0.139000X-0.090000X0.139000X-0.090000X-0.139000X0*%
%ADD12RoundRect,0.237500X0.250000X0.237500X-0.250000X0.237500X-0.250000X-0.237500X0.250000X-0.237500X0*%
%ADD13RoundRect,0.250000X0.475000X-0.337500X0.475000X0.337500X-0.475000X0.337500X-0.475000X-0.337500X0*%
%ADD14RoundRect,0.237500X-0.237500X0.300000X-0.237500X-0.300000X0.237500X-0.300000X0.237500X0.300000X0*%
%ADD15RoundRect,0.237500X-0.237500X0.250000X-0.237500X-0.250000X0.237500X-0.250000X0.237500X0.250000X0*%
%ADD16RoundRect,0.250000X-0.337500X-0.475000X0.337500X-0.475000X0.337500X0.475000X-0.337500X0.475000X0*%
%ADD17RoundRect,0.237500X-0.250000X-0.237500X0.250000X-0.237500X0.250000X0.237500X-0.250000X0.237500X0*%
%ADD18RoundRect,0.250000X-0.475000X0.337500X-0.475000X-0.337500X0.475000X-0.337500X0.475000X0.337500X0*%
%ADD19RoundRect,0.075000X-0.662500X-0.075000X0.662500X-0.075000X0.662500X0.075000X-0.662500X0.075000X0*%
%ADD20RoundRect,0.075000X-0.075000X-0.662500X0.075000X-0.662500X0.075000X0.662500X-0.075000X0.662500X0*%
%ADD21RoundRect,0.237500X0.237500X-0.250000X0.237500X0.250000X-0.237500X0.250000X-0.237500X-0.250000X0*%
G04 APERTURE END LIST*
D10*
X134387500Y-98100000D03*
X132312500Y-98100000D03*
D11*
X224381150Y-99230900D03*
X224381150Y-98365900D03*
D12*
X198437500Y-119500000D03*
X196612500Y-119500000D03*
D13*
X162950000Y-50247500D03*
X162950000Y-48172500D03*
D14*
X166900000Y-135787500D03*
X166900000Y-137512500D03*
D13*
X162600000Y-124637500D03*
X162600000Y-122562500D03*
D15*
X125875000Y-124262500D03*
X125875000Y-126087500D03*
D10*
X127212500Y-62950000D03*
X125137500Y-62950000D03*
X132087500Y-57350000D03*
X130012500Y-57350000D03*
D16*
X105337500Y-106575000D03*
X107412500Y-106575000D03*
D15*
X96300000Y-104212500D03*
X96300000Y-106037500D03*
D13*
X165875000Y-111512500D03*
X165875000Y-109437500D03*
D10*
X215357500Y-53830000D03*
X213282500Y-53830000D03*
D17*
X159387500Y-51560000D03*
X161212500Y-51560000D03*
D16*
X188550000Y-67625000D03*
X190625000Y-67625000D03*
D15*
X136150000Y-124462500D03*
X136150000Y-126287500D03*
D13*
X129550000Y-102387500D03*
X129550000Y-100312500D03*
D10*
X131887500Y-62975000D03*
X129812500Y-62975000D03*
D18*
X158300000Y-131612500D03*
X158300000Y-133687500D03*
D13*
X159725000Y-116762500D03*
X159725000Y-114687500D03*
D10*
X140387500Y-108750000D03*
X138312500Y-108750000D03*
X127262500Y-103725000D03*
X125187500Y-103725000D03*
X96112500Y-102250000D03*
X94037500Y-102250000D03*
D18*
X123175000Y-60962500D03*
X123175000Y-63037500D03*
D16*
X105337500Y-104575000D03*
X107412500Y-104575000D03*
D19*
X164987500Y-68035000D03*
X164987500Y-67535000D03*
X164987499Y-67035000D03*
X164987500Y-66535000D03*
X164987500Y-66035000D03*
X164987500Y-65534999D03*
X164987500Y-65035000D03*
X164987500Y-64535001D03*
X164987500Y-64035000D03*
X164987500Y-63535000D03*
X164987500Y-63034999D03*
X164987500Y-62535000D03*
X164987500Y-62035000D03*
X164987500Y-61535000D03*
X164987500Y-61035000D03*
X164987499Y-60535000D03*
X164987500Y-60035000D03*
X164987500Y-59535000D03*
X164987500Y-59035000D03*
X164987500Y-58535000D03*
X164987499Y-58035000D03*
X164987500Y-57535000D03*
X164987500Y-57035000D03*
X164987500Y-56535000D03*
X164987500Y-56035000D03*
X164987500Y-55535001D03*
X164987500Y-55035000D03*
X164987500Y-54535000D03*
X164987500Y-54034999D03*
X164987500Y-53535000D03*
X164987500Y-53035001D03*
X164987500Y-52535000D03*
X164987500Y-52035000D03*
X164987499Y-51535000D03*
X164987500Y-51035000D03*
X164987500Y-50535000D03*
D20*
X166900000Y-48622500D03*
X167400000Y-48622500D03*
X167900000Y-48622499D03*
X168400000Y-48622500D03*
X168900000Y-48622500D03*
X169400001Y-48622500D03*
X169900000Y-48622500D03*
X170399999Y-48622500D03*
X170900000Y-48622500D03*
X171400000Y-48622500D03*
X171900001Y-48622500D03*
X172400000Y-48622500D03*
X172900000Y-48622500D03*
X173400000Y-48622500D03*
X173900000Y-48622500D03*
X174400000Y-48622499D03*
X174900000Y-48622500D03*
X175400000Y-48622500D03*
X175900000Y-48622500D03*
X176400000Y-48622500D03*
X176900000Y-48622499D03*
X177400000Y-48622500D03*
X177900000Y-48622500D03*
X178400000Y-48622500D03*
X178900000Y-48622500D03*
X179399999Y-48622500D03*
X179900000Y-48622500D03*
X180400000Y-48622500D03*
X180900001Y-48622500D03*
X181400000Y-48622500D03*
X181899999Y-48622500D03*
X182400000Y-48622500D03*
X182900000Y-48622500D03*
X183400000Y-48622499D03*
X183900000Y-48622500D03*
X184400000Y-48622500D03*
D19*
X186312500Y-50535000D03*
X186312500Y-51035000D03*
X186312501Y-51535000D03*
X186312500Y-52035000D03*
X186312500Y-52535000D03*
X186312500Y-53035001D03*
X186312500Y-53535000D03*
X186312500Y-54034999D03*
X186312500Y-54535000D03*
X186312500Y-55035000D03*
X186312500Y-55535001D03*
X186312500Y-56035000D03*
X186312500Y-56535000D03*
X186312500Y-57035000D03*
X186312500Y-57535000D03*
X186312501Y-58035000D03*
X186312500Y-58535000D03*
X186312500Y-59035000D03*
X186312500Y-59535000D03*
X186312500Y-60035000D03*
X186312501Y-60535000D03*
X186312500Y-61035000D03*
X186312500Y-61535000D03*
X186312500Y-62035000D03*
X186312500Y-62535000D03*
X186312500Y-63034999D03*
X186312500Y-63535000D03*
X186312500Y-64035000D03*
X186312500Y-64535001D03*
X186312500Y-65035000D03*
X186312500Y-65534999D03*
X186312500Y-66035000D03*
X186312500Y-66535000D03*
X186312501Y-67035000D03*
X186312500Y-67535000D03*
X186312500Y-68035000D03*
D20*
X184400000Y-69947500D03*
X183900000Y-69947500D03*
X183400000Y-69947501D03*
X182900000Y-69947500D03*
X182400000Y-69947500D03*
X181899999Y-69947500D03*
X181400000Y-69947500D03*
X180900001Y-69947500D03*
X180400000Y-69947500D03*
X179900000Y-69947500D03*
X179399999Y-69947500D03*
X178900000Y-69947500D03*
X178400000Y-69947500D03*
X177900000Y-69947500D03*
X177400000Y-69947500D03*
X176900000Y-69947501D03*
X176400000Y-69947500D03*
X175900000Y-69947500D03*
X175400000Y-69947500D03*
X174900000Y-69947500D03*
X174400000Y-69947501D03*
X173900000Y-69947500D03*
X173400000Y-69947500D03*
X172900000Y-69947500D03*
X172400000Y-69947500D03*
X171900001Y-69947500D03*
X171400000Y-69947500D03*
X170900000Y-69947500D03*
X170399999Y-69947500D03*
X169900000Y-69947500D03*
X169400001Y-69947500D03*
X168900000Y-69947500D03*
X168400000Y-69947500D03*
X167900000Y-69947501D03*
X167400000Y-69947500D03*
X166900000Y-69947500D03*
D10*
X215132500Y-66780000D03*
X213057500Y-66780000D03*
D13*
X169800000Y-133962500D03*
X169800000Y-131887500D03*
D18*
X170625000Y-109312500D03*
X170625000Y-111387500D03*
X218081150Y-99320900D03*
X218081150Y-101395900D03*
D16*
X132262500Y-103950000D03*
X134337500Y-103950000D03*
D18*
X162350000Y-109387500D03*
X162350000Y-111462500D03*
D13*
X184875000Y-46247500D03*
X184875000Y-44172500D03*
D18*
X221051150Y-97670900D03*
X221051150Y-99745900D03*
D16*
X94162500Y-108075000D03*
X96237500Y-108075000D03*
D15*
X134375000Y-100062500D03*
X134375000Y-101887500D03*
D10*
X143812500Y-63000000D03*
X141737500Y-63000000D03*
D16*
X125187500Y-57200000D03*
X127262500Y-57200000D03*
X94152500Y-126340000D03*
X96227500Y-126340000D03*
D21*
X199925000Y-123037500D03*
X199925000Y-121212500D03*
D15*
X211920000Y-111807500D03*
X211920000Y-113632500D03*
D10*
X136262500Y-62875000D03*
X134187500Y-62875000D03*
X108227500Y-126310000D03*
X106152500Y-126310000D03*
M02*
