M48
; DRILL file {KiCad 8.0.5} date 2024-11-21T15:10:08-0500
; FORMAT={-:-/ absolute / metric / decimal}
; #@! TF.CreationDate,2024-11-21T15:10:08-05:00
; #@! TF.GenerationSoftware,Kicad,Pcbnew,8.0.5
; #@! TF.FileFunction,Plated,1,4,PTH
FMAT,2
METRIC
; #@! TA.AperFunction,Plated,PTH,ViaDrill
T1C0.300
; #@! TA.AperFunction,Plated,PTH,ViaDrill
T2C0.400
; #@! TA.AperFunction,Plated,PTH,ComponentDrill
T3C0.760
; #@! TA.AperFunction,Plated,PTH,ComponentDrill
T4C0.800
; #@! TA.AperFunction,Plated,PTH,ComponentDrill
T5C0.813
; #@! TA.AperFunction,Plated,PTH,ComponentDrill
T6C1.000
; #@! TA.AperFunction,Plated,PTH,ComponentDrill
T7C1.067
; #@! TA.AperFunction,Plated,PTH,ComponentDrill
T8C2.510
%
G90
G05
T1
X92.82Y-102.21
X92.91Y-110.03
X92.93Y-108.04
X94.04Y-100.87
X94.05Y-103.59
X94.16Y-106.69
X94.28Y-111.47
X96.11Y-100.87
X97.39Y-102.22
X98.5Y-102.975
X98.775Y-97.425
X98.79Y-95.39
X99.43Y-102.611
X99.503Y-111.477
X100.175Y-102.7
X100.225Y-111.275
X100.24Y-94.07
X100.26Y-108.61
X101.125Y-108.325
X101.475Y-88.61
X101.55Y-111.45
X102.125Y-86.435
X102.175Y-107.4
X102.825Y-93.4
X103.0Y-108.4
X103.65Y-87.785
X105.35Y-103.0
X105.35Y-107.95
X107.17Y-108.54
X107.19Y-111.47
X107.41Y-103.16
X107.42Y-107.89
X108.5Y-110.05
X108.74Y-104.55
X108.78Y-106.55
X120.7Y-34.62
X120.7Y-70.12
X121.31Y-69.15
X121.41Y-35.225
X121.65Y-110.36
X121.85Y-60.96
X121.95Y-63.05
X121.97Y-54.39
X123.0Y-108.91
X123.01Y-111.88
X123.17Y-126.66
X123.275Y-59.65
X123.35Y-64.45
X123.375Y-55.85
X123.84Y-57.19
X123.97Y-103.69
X124.25Y-36.025
X124.25Y-69.14
X124.95Y-64.425
X125.012Y-55.812
X125.137Y-61.462
X125.15Y-52.57
X125.18Y-102.38
X125.2Y-105.06
X125.25Y-58.75
X125.74Y-70.08
X125.85Y-36.625
X126.65Y-80.925
X126.66Y-37.185
X127.15Y-61.45
X127.25Y-58.75
X127.45Y-64.325
X127.47Y-67.65
X127.475Y-55.8
X128.07Y-102.35
X128.15Y-110.0
X128.17Y-100.29
X128.25Y-37.785
X128.25Y-81.525
X128.32Y-107.44
X128.62Y-57.28
X128.675Y-103.725
X129.05Y-38.36
X129.05Y-74.585
X129.56Y-99.08
X129.75Y-56.0
X129.76Y-52.58
X129.812Y-61.55
X129.85Y-64.325
X129.9Y-110.875
X130.05Y-58.75
X130.65Y-39.06
X130.65Y-75.335
X130.9Y-100.28
X131.0Y-103.93
X131.12Y-98.08
X131.275Y-105.25
X131.275Y-106.275
X131.3Y-107.45
X131.45Y-39.81
X131.45Y-75.86
X131.887Y-61.65
X132.225Y-64.325
X132.25Y-55.975
X132.27Y-102.58
X132.3Y-96.75
X132.32Y-99.44
X132.34Y-67.79
X133.05Y-40.535
X133.05Y-76.435
X133.35Y-57.35
X133.73Y-52.62
X133.85Y-55.65
X133.85Y-109.4
X133.9Y-64.225
X134.188Y-61.55
X134.39Y-96.73
X134.475Y-108.075
X134.65Y-77.925
X135.425Y-68.735
X135.45Y-49.075
X135.8Y-110.92
X136.075Y-98.1
X136.25Y-34.05
X136.25Y-82.1
X136.27Y-61.44
X137.05Y-51.61
X137.05Y-77.21
X137.2Y-108.7
X137.27Y-110.06
X137.3Y-62.875
X137.675Y-106.8
X137.85Y-68.06
X138.225Y-105.425
X138.475Y-107.475
X138.65Y-43.585
X138.65Y-79.685
X138.8Y-127.01
X139.175Y-106.175
X139.45Y-44.985
X139.45Y-80.325
X140.25Y-45.585
X140.25Y-73.585
X140.4Y-110.11
X140.7Y-63.0
X141.05Y-46.15
X141.05Y-71.435
X141.67Y-108.73
X141.73Y-61.57
X141.85Y-70.685
X141.86Y-46.76
X142.65Y-52.185
X142.65Y-70.085
X143.35Y-52.885
X143.45Y-69.46
X143.85Y-61.45
X144.2Y-64.275
X144.25Y-56.025
X145.54Y-54.37
X146.427Y-49.075
X146.45Y-78.55
X146.95Y-44.385
X147.0Y-73.585
X147.4Y-42.95
X147.55Y-74.585
X148.0Y-42.335
X148.05Y-75.335
X148.65Y-41.7
X148.65Y-75.86
X149.2Y-41.05
X149.2Y-76.435
X149.75Y-77.21
X149.8Y-47.3
X150.775Y-68.06
X151.043Y-54.475
X151.25Y-68.935
X151.5Y-55.625
X151.65Y-69.585
X151.809Y-61.614
X151.85Y-115.8
X152.2Y-70.325
X152.3Y-62.15
X152.75Y-70.9
X152.8Y-62.6
X152.875Y-111.675
X152.9Y-98.175
X153.25Y-63.3
X153.275Y-71.5
X153.7Y-106.8
X153.8Y-55.05
X154.5Y-56.11
X154.5Y-96.56
X154.51Y-115.8
X154.8Y-51.61
X154.85Y-53.9
X155.525Y-33.475
X155.55Y-64.11
X155.675Y-111.7
X156.19Y-72.4
X156.275Y-33.475
X156.425Y-64.585
X156.54Y-131.71
X156.95Y-116.75
X157.0Y-65.185
X157.025Y-33.475
X157.175Y-115.8
X157.9Y-99.6
X157.9Y-107.45
X157.95Y-52.185
X157.95Y-60.35
X158.475Y-100.275
X158.475Y-106.125
X158.636Y-60.964
X158.65Y-52.885
X158.975Y-119.5
X159.05Y-98.875
X159.05Y-105.375
X159.4Y-50.36
X159.68Y-70.95
X159.72Y-113.37
X159.725Y-117.9
X159.74Y-73.91
X159.85Y-33.475
X159.875Y-65.771
X160.6Y-33.475
X160.825Y-66.285
X160.97Y-124.63
X161.07Y-72.42
X161.32Y-116.32
X161.34Y-114.67
X161.425Y-48.11
X161.55Y-33.475
X161.55Y-66.869
X162.125Y-31.4
X162.125Y-67.46
X162.575Y-126.2
X162.675Y-121.025
X162.775Y-119.5
X162.851Y-31.212
X162.95Y-67.985
X163.4Y-33.475
X163.4Y-59.06
X163.453Y-59.808
X163.525Y-79.11
X163.7Y-108.775
X163.8Y-111.475
X164.25Y-116.275
X164.35Y-48.15
X164.525Y-107.375
X164.525Y-123.2
X165.1Y-124.125
X165.2Y-107.4
X165.62Y-112.85
X165.95Y-108.15
X166.21Y-107.43
X166.25Y-47.75
X166.25Y-54.25
X166.25Y-65.535
X166.28Y-61.62
X166.28Y-64.83
X166.325Y-55.15
X166.325Y-63.6
X166.35Y-51.76
X166.41Y-60.9
X166.425Y-68.7
X166.45Y-59.15
X166.45Y-67.537
X166.46Y-53.06
X166.95Y-49.95
X167.17Y-115.96
X167.18Y-104.48
X167.2Y-107.45
X167.25Y-112.9
X167.325Y-111.55
X167.478Y-71.662
X167.55Y-77.96
X167.7Y-60.3
X167.75Y-51.75
X168.025Y-68.65
X168.16Y-115.94
X168.2Y-49.96
X168.225Y-71.6
X168.225Y-78.535
X168.25Y-131.875
X168.35Y-113.0
X168.42Y-107.53
X168.6Y-109.4
X168.6Y-111.025
X168.65Y-104.6
X168.75Y-88.56
X168.8Y-50.585
X168.825Y-119.5
X169.375Y-49.96
X169.375Y-87.785
X169.79Y-130.28
X170.312Y-86.422
X170.325Y-124.1
X170.375Y-49.985
X171.45Y-67.25
X171.475Y-53.05
X171.51Y-56.03
X171.525Y-50.15
X171.546Y-72.015
X171.9Y-56.975
X171.94Y-65.75
X171.95Y-108.425
X172.025Y-107.425
X172.106Y-112.381
X172.15Y-111.85
X172.176Y-71.446
X172.25Y-110.975
X172.47Y-122.71
X172.85Y-68.675
X172.925Y-71.475
X172.925Y-82.1
X173.375Y-64.4
X173.45Y-62.2
X173.6Y-53.15
X173.6Y-60.25
X173.65Y-49.85
X173.9Y-121.2
X173.996Y-47.264
X174.45Y-68.65
X174.67Y-71.58
X174.75Y-56.625
X174.75Y-65.85
X174.89Y-49.94
X174.92Y-51.57
X175.73Y-68.54
X176.55Y-67.05
X176.85Y-51.55
X177.25Y-59.15
X177.26Y-63.88
X177.45Y-71.425
X177.475Y-42.935
X177.475Y-98.175
X177.5Y-47.21
X177.57Y-131.9
X177.775Y-68.475
X177.89Y-56.54
X177.925Y-54.4
X178.03Y-49.98
X178.1Y-42.335
X178.1Y-46.335
X178.275Y-71.3
X178.275Y-83.525
X178.656Y-49.941
X178.7Y-41.735
X178.7Y-47.185
X178.85Y-62.35
X178.85Y-72.55
X179.06Y-130.53
X179.45Y-82.8
X179.475Y-71.525
X179.55Y-41.085
X179.55Y-47.16
X179.56Y-68.35
X179.725Y-49.985
X179.73Y-65.57
X180.15Y-40.51
X180.15Y-46.635
X180.325Y-71.425
X180.35Y-82.125
X180.7Y-39.81
X180.71Y-131.96
X180.725Y-46.135
X180.95Y-67.05
X181.3Y-39.06
X181.3Y-45.435
X181.375Y-71.425
X181.4Y-81.525
X181.5Y-119.5
X181.5Y-135.6
X181.56Y-54.69
X181.56Y-59.92
X181.63Y-29.0
X181.65Y-51.55
X181.75Y-56.85
X181.75Y-66.36
X181.875Y-44.935
X181.9Y-38.36
X181.95Y-68.45
X182.275Y-118.075
X182.45Y-44.436
X182.55Y-37.76
X182.675Y-71.45
X182.7Y-80.925
X182.975Y-47.01
X183.05Y-117.5
X183.125Y-31.25
X183.15Y-53.45
X183.25Y-58.65
X183.25Y-63.15
X183.35Y-65.15
X183.7Y-32.65
X183.7Y-46.494
X183.91Y-139.86
X184.425Y-49.975
X184.64Y-135.52
X184.725Y-71.4
X184.725Y-93.375
X184.75Y-55.15
X184.875Y-60.525
X184.875Y-61.825
X184.9Y-30.42
X184.9Y-56.525
X184.9Y-68.3
X184.975Y-67.275
X186.13Y-29.11
X186.2Y-44.16
X186.575Y-96.56
X187.95Y-55.55
X188.15Y-61.2
X189.59Y-45.68
X189.93Y-106.21
X190.375Y-116.35
X190.63Y-69.1
X191.05Y-44.33
X191.07Y-49.21
X191.375Y-107.8
X191.9Y-67.625
X192.66Y-45.66
X193.05Y-62.075
X193.05Y-98.85
X193.6Y-99.475
X193.65Y-50.475
X194.3Y-51.05
X194.3Y-100.35
X194.85Y-37.185
X194.875Y-52.55
X195.575Y-36.7
X195.6Y-53.025
X196.225Y-36.1
X196.225Y-53.575
X196.85Y-54.025
X196.925Y-76.05
X197.55Y-54.5
X197.55Y-76.725
X198.175Y-35.225
X198.175Y-56.525
X198.57Y-123.04
X198.75Y-34.625
X198.775Y-57.125
X199.15Y-79.685
X199.2Y-58.535
X199.75Y-59.075
X199.75Y-80.325
X199.94Y-124.23
X200.3Y-64.535
X200.3Y-119.5
X200.68Y-34.05
X200.78Y-60.43
X200.825Y-65.51
X200.825Y-118.075
X201.247Y-66.01
X201.25Y-117.475
X201.747Y-66.535
X202.365Y-69.947
X203.15Y-81.6
X203.2Y-39.05
X204.065Y-80.925
X204.2Y-39.7
X204.65Y-63.05
X204.7Y-75.075
X209.863Y-41.19
X210.445Y-41.765
X211.095Y-42.365
X211.095Y-83.555
X211.62Y-66.78
X211.67Y-82.205
X211.845Y-43.015
X211.92Y-53.88
X212.295Y-75.105
X213.1Y-52.06
X213.29Y-111.79
X213.595Y-68.705
X213.81Y-48.85
X213.84Y-71.67
X214.519Y-51.926
X214.62Y-68.63
X214.75Y-48.89
X214.78Y-71.62
X215.11Y-65.35
X215.4Y-55.23
X215.77Y-76.005
X216.045Y-39.105
X216.27Y-76.755
X216.44Y-66.77
X216.541Y-99.288
X216.62Y-39.73
X216.745Y-82.83
X216.82Y-53.78
X217.02Y-34.63
X217.37Y-79.14
X217.645Y-35.355
X218.081Y-97.958
X218.091Y-102.818
X219.561Y-97.688
X219.591Y-99.298
X219.591Y-101.348
X221.041Y-96.298
X221.061Y-101.088
X222.581Y-99.728
X222.641Y-97.658
T2
X92.88Y-49.3
X92.89Y-50.1
X96.53Y-75.1
X97.38Y-31.57
X111.57Y-40.73
X114.22Y-68.39
X203.48Y-143.02
X220.21Y-28.62
X222.7Y-129.61
T3
X149.48Y-140.925
X152.02Y-140.925
X154.56Y-140.925
X157.1Y-140.925
X164.68Y-140.85
X167.22Y-140.85
X169.76Y-140.85
X172.3Y-140.85
T4
X118.88Y-126.25
X121.38Y-126.25
X140.54Y-126.53
X143.04Y-126.53
X148.09Y-136.725
X158.49Y-136.725
X163.29Y-136.65
X173.69Y-136.65
X177.295Y-127.15
X179.295Y-127.15
X212.251Y-97.621
X212.251Y-100.121
T5
X176.325Y-113.75
X178.825Y-113.75
X181.325Y-113.75
T6
X143.28Y-26.2
X145.82Y-26.2
X148.36Y-26.2
X150.9Y-26.2
X153.44Y-26.2
X155.98Y-26.2
X158.52Y-26.2
X161.06Y-26.2
X163.6Y-26.2
X177.43Y-26.2
X179.97Y-26.2
X182.51Y-26.2
X185.05Y-26.2
X206.48Y-116.71
X209.02Y-116.71
X211.56Y-116.71
X214.1Y-116.71
T7
X226.836Y-97.523
X226.836Y-100.063
X226.836Y-102.603
X226.836Y-105.143
T8
X88.875Y-135.975
X94.175Y-135.975
X108.175Y-135.975
X118.7Y-136.0
X124.0Y-136.0
X138.0Y-136.0
M30
