G04 #@! TF.GenerationSoftware,KiCad,Pcbnew,8.0.5*
G04 #@! TF.CreationDate,2024-11-21T04:32:58-05:00*
G04 #@! TF.ProjectId,PCB_Order3,5043425f-4f72-4646-9572-332e6b696361,rev?*
G04 #@! TF.SameCoordinates,Original*
G04 #@! TF.FileFunction,Paste,Top*
G04 #@! TF.FilePolarity,Positive*
%FSLAX46Y46*%
G04 Gerber Fmt 4.6, Leading zero omitted, Abs format (unit mm)*
G04 Created by KiCad (PCBNEW 8.0.5) date 2024-11-21 04:32:58*
%MOMM*%
%LPD*%
G01*
G04 APERTURE LIST*
G04 Aperture macros list*
%AMRoundRect*
0 Rectangle with rounded corners*
0 $1 Rounding radius*
0 $2 $3 $4 $5 $6 $7 $8 $9 X,Y pos of 4 corners*
0 Add a 4 corners polygon primitive as box body*
4,1,4,$2,$3,$4,$5,$6,$7,$8,$9,$2,$3,0*
0 Add four circle primitives for the rounded corners*
1,1,$1+$1,$2,$3*
1,1,$1+$1,$4,$5*
1,1,$1+$1,$6,$7*
1,1,$1+$1,$8,$9*
0 Add four rect primitives between the rounded corners*
20,1,$1+$1,$2,$3,$4,$5,0*
20,1,$1+$1,$4,$5,$6,$7,0*
20,1,$1+$1,$6,$7,$8,$9,0*
20,1,$1+$1,$8,$9,$2,$3,0*%
G04 Aperture macros list end*
%ADD10RoundRect,0.250000X0.475000X-0.337500X0.475000X0.337500X-0.475000X0.337500X-0.475000X-0.337500X0*%
%ADD11RoundRect,0.250000X0.337500X0.475000X-0.337500X0.475000X-0.337500X-0.475000X0.337500X-0.475000X0*%
%ADD12RoundRect,0.035000X-0.745000X-0.105000X0.745000X-0.105000X0.745000X0.105000X-0.745000X0.105000X0*%
%ADD13RoundRect,0.035000X-0.105000X-0.745000X0.105000X-0.745000X0.105000X0.745000X-0.105000X0.745000X0*%
%ADD14RoundRect,0.250000X-0.475000X0.337500X-0.475000X-0.337500X0.475000X-0.337500X0.475000X0.337500X0*%
%ADD15R,1.100000X0.650001*%
%ADD16RoundRect,0.250000X-0.337500X-0.475000X0.337500X-0.475000X0.337500X0.475000X-0.337500X0.475000X0*%
%ADD17R,2.209800X0.863600*%
%ADD18R,0.300000X1.300000*%
%ADD19RoundRect,0.100000X0.100000X-0.637500X0.100000X0.637500X-0.100000X0.637500X-0.100000X-0.637500X0*%
%ADD20R,0.500000X2.250000*%
%ADD21R,2.000000X2.500000*%
%ADD22RoundRect,0.250000X-1.450000X0.400000X-1.450000X-0.400000X1.450000X-0.400000X1.450000X0.400000X0*%
%ADD23RoundRect,0.237500X0.237500X-0.250000X0.237500X0.250000X-0.237500X0.250000X-0.237500X-0.250000X0*%
%ADD24R,1.409700X0.254000*%
%ADD25R,0.600000X1.295000*%
G04 APERTURE END LIST*
D10*
X135420000Y-72027500D03*
X135420000Y-69952500D03*
D11*
X117925000Y-75850000D03*
X115850000Y-75850000D03*
D10*
X127725000Y-92712500D03*
X127725000Y-90637500D03*
D12*
X106595000Y-131725000D03*
X106595000Y-132225000D03*
X106595000Y-132725000D03*
X106595000Y-133225000D03*
X106595000Y-133725000D03*
X106595000Y-134225000D03*
X106595000Y-134725000D03*
X106595000Y-135225000D03*
X106595000Y-135725000D03*
X106595000Y-136225000D03*
X106595000Y-136725000D03*
X106595000Y-137225000D03*
D13*
X108025000Y-138655000D03*
X108525000Y-138655000D03*
X109025000Y-138655000D03*
X109525000Y-138655000D03*
X110025000Y-138655000D03*
X110525000Y-138655000D03*
X111025000Y-138655000D03*
X111525000Y-138655000D03*
X112025000Y-138655000D03*
X112525000Y-138655000D03*
X113025000Y-138655000D03*
X113525000Y-138655000D03*
D12*
X114955000Y-137225000D03*
X114955000Y-136725000D03*
X114955000Y-136225000D03*
X114955000Y-135725000D03*
X114955000Y-135225000D03*
X114955000Y-134725000D03*
X114955000Y-134225000D03*
X114955000Y-133725000D03*
X114955000Y-133225000D03*
X114955000Y-132725000D03*
X114955000Y-132225000D03*
X114955000Y-131725000D03*
D13*
X113525000Y-130295000D03*
X113025000Y-130295000D03*
X112525000Y-130295000D03*
X112025000Y-130295000D03*
X111525000Y-130295000D03*
X111025000Y-130295000D03*
X110525000Y-130295000D03*
X110025000Y-130295000D03*
X109525000Y-130295000D03*
X109025000Y-130295000D03*
X108525000Y-130295000D03*
X108025000Y-130295000D03*
D14*
X116250000Y-82487500D03*
X116250000Y-84562500D03*
D15*
X110775000Y-147449999D03*
X110775000Y-148400000D03*
X110775000Y-149349998D03*
X113175000Y-149349998D03*
X113175000Y-148400000D03*
X113175000Y-147449999D03*
D16*
X49462500Y-134300000D03*
X51537500Y-134300000D03*
D14*
X121600000Y-84562500D03*
X121600000Y-86637500D03*
X107150000Y-140587500D03*
X107150000Y-142662500D03*
D10*
X69600000Y-132662500D03*
X69600000Y-130587500D03*
D17*
X130928500Y-134974999D03*
X138421500Y-134974999D03*
X130928500Y-139475001D03*
X138421500Y-139475001D03*
D14*
X120625000Y-78737500D03*
X120625000Y-80812500D03*
D11*
X117937500Y-78750000D03*
X115862500Y-78750000D03*
D18*
X152670000Y-94365000D03*
X153170000Y-94365000D03*
X153670000Y-94365000D03*
X154170000Y-94365000D03*
X154670000Y-94365000D03*
X155170000Y-94365000D03*
X155670000Y-94365000D03*
X156170000Y-94365000D03*
X156670000Y-94365000D03*
X157170000Y-94365000D03*
X157670000Y-94365000D03*
X158170000Y-94365000D03*
X158670000Y-94365000D03*
X159170000Y-94365000D03*
X159670000Y-94365000D03*
X160170000Y-94365000D03*
X160670000Y-94365000D03*
X161170000Y-94365000D03*
X161670000Y-94365000D03*
X162170000Y-94365000D03*
X162670000Y-94365000D03*
X163170000Y-94365000D03*
X163670000Y-94365000D03*
X164170000Y-94365000D03*
X164170000Y-74665000D03*
X163670000Y-74665000D03*
X163170000Y-74665000D03*
X162670000Y-74665000D03*
X162170000Y-74665000D03*
X161670000Y-74665000D03*
X161170000Y-74665000D03*
X160670000Y-74665000D03*
X160170000Y-74665000D03*
X159670000Y-74665000D03*
X159170000Y-74665000D03*
X158670000Y-74665000D03*
X158170000Y-74665000D03*
X157670000Y-74665000D03*
X157170000Y-74665000D03*
X156670000Y-74665000D03*
X156170000Y-74665000D03*
X155670000Y-74665000D03*
X155170000Y-74665000D03*
X154670000Y-74665000D03*
X154170000Y-74665000D03*
X153670000Y-74665000D03*
X153170000Y-74665000D03*
X152670000Y-74665000D03*
D19*
X43225000Y-128497500D03*
X43875000Y-128497500D03*
X44525000Y-128497500D03*
X45175000Y-128497500D03*
X45825000Y-128497500D03*
X46475000Y-128497500D03*
X47125000Y-128497500D03*
X47775000Y-128497500D03*
X47775000Y-134222500D03*
X47125000Y-134222500D03*
X46475000Y-134222500D03*
X45825000Y-134222500D03*
X45175000Y-134222500D03*
X44525000Y-134222500D03*
X43875000Y-134222500D03*
X43225000Y-134222500D03*
D10*
X127550000Y-86237500D03*
X127550000Y-84162500D03*
D16*
X122012500Y-91300000D03*
X124087500Y-91300000D03*
D20*
X125800000Y-162000000D03*
X126600000Y-162000000D03*
X127400000Y-162000000D03*
X128200000Y-162000000D03*
X129000000Y-162000000D03*
D21*
X122950000Y-162125000D03*
X131850000Y-162125000D03*
X122950000Y-167625000D03*
X131850000Y-167625000D03*
D16*
X101965000Y-96670000D03*
X104040000Y-96670000D03*
D22*
X99240000Y-147555000D03*
X99240000Y-152005000D03*
D23*
X123250000Y-134862500D03*
X123250000Y-133037500D03*
D10*
X127525000Y-80987500D03*
X127525000Y-78912500D03*
D23*
X44850000Y-125162500D03*
X44850000Y-123337500D03*
D24*
X80127750Y-134284951D03*
X80127750Y-133634965D03*
X80127750Y-132984979D03*
X80127750Y-132334993D03*
X80127750Y-131685007D03*
X80127750Y-131035021D03*
X80127750Y-130385035D03*
X80127750Y-129735049D03*
X74222250Y-129735049D03*
X74222250Y-130385035D03*
X74222250Y-131035021D03*
X74222250Y-131685007D03*
X74222250Y-132334993D03*
X74222250Y-132984979D03*
X74222250Y-133634965D03*
X74222250Y-134284951D03*
D11*
X40712500Y-134275000D03*
X38637500Y-134275000D03*
D10*
X116300000Y-88612500D03*
X116300000Y-86537500D03*
X112075000Y-79437500D03*
X112075000Y-77362500D03*
D11*
X69437500Y-134625000D03*
X67362500Y-134625000D03*
D16*
X117012500Y-91525000D03*
X119087500Y-91525000D03*
D10*
X44575000Y-121712500D03*
X44575000Y-119637500D03*
X112050000Y-87837500D03*
X112050000Y-85762500D03*
D14*
X112050000Y-89712500D03*
X112050000Y-91787500D03*
D16*
X114762500Y-145400000D03*
X116837500Y-145400000D03*
D11*
X124487500Y-75825000D03*
X122412500Y-75825000D03*
D15*
X100050000Y-141000001D03*
X100050000Y-140050000D03*
X100050000Y-139100002D03*
X97650000Y-139100002D03*
X97650000Y-140050000D03*
X97650000Y-141000001D03*
D25*
X67700000Y-90091000D03*
X68500000Y-90091000D03*
X69300000Y-90091000D03*
X70100000Y-90091000D03*
X70900000Y-90091000D03*
X71700000Y-90091000D03*
X72500000Y-90091000D03*
X73300000Y-90091000D03*
X74100000Y-90091000D03*
X74900000Y-90091000D03*
X75700000Y-90091000D03*
X76500000Y-90091000D03*
X77300000Y-90091000D03*
X78100000Y-90091000D03*
X78900000Y-90091000D03*
X79700000Y-90091000D03*
X80500000Y-90091000D03*
X81300000Y-90091000D03*
X82100000Y-90091000D03*
X82900000Y-90091000D03*
X83700000Y-90091000D03*
X84500000Y-90091000D03*
X85300000Y-90091000D03*
X86100000Y-90091000D03*
X86900000Y-90091000D03*
X87700000Y-90091000D03*
X88500000Y-90091000D03*
X88500000Y-78635000D03*
X87700000Y-78635000D03*
X86900000Y-78635000D03*
X86100000Y-78635000D03*
X85300000Y-78635000D03*
X84500000Y-78635000D03*
X83700000Y-78635000D03*
X82900000Y-78635000D03*
X82100000Y-78635000D03*
X81300000Y-78635000D03*
X80500000Y-78635000D03*
X79700000Y-78635000D03*
X78900000Y-78635000D03*
X78100000Y-78635000D03*
X77300000Y-78635000D03*
X76500000Y-78635000D03*
X75700000Y-78635000D03*
X74900000Y-78635000D03*
X74100000Y-78635000D03*
X73300000Y-78635000D03*
X72500000Y-78635000D03*
X71700000Y-78635000D03*
X70900000Y-78635000D03*
X70100000Y-78635000D03*
X69300000Y-78635000D03*
X68500000Y-78635000D03*
X67700000Y-78635000D03*
D11*
X127162500Y-53350000D03*
X129237500Y-53350000D03*
D10*
X123420000Y-158277500D03*
X123420000Y-156202500D03*
D16*
X132187500Y-132050000D03*
X134262500Y-132050000D03*
M02*
