G04 #@! TF.GenerationSoftware,KiCad,Pcbnew,8.0.5*
G04 #@! TF.CreationDate,2024-11-21T15:42:30-05:00*
G04 #@! TF.ProjectId,Power_Daughterboard,506f7765-725f-4446-9175-676874657262,rev?*
G04 #@! TF.SameCoordinates,Original*
G04 #@! TF.FileFunction,Legend,Bot*
G04 #@! TF.FilePolarity,Positive*
%FSLAX46Y46*%
G04 Gerber Fmt 4.6, Leading zero omitted, Abs format (unit mm)*
G04 Created by KiCad (PCBNEW 8.0.5) date 2024-11-21 15:42:30*
%MOMM*%
%LPD*%
G01*
G04 APERTURE LIST*
%ADD10C,0.300000*%
%ADD11C,0.508000*%
%ADD12C,1.295400*%
%ADD13C,2.895600*%
%ADD14C,1.803400*%
%ADD15C,4.600000*%
%ADD16C,1.400000*%
%ADD17R,1.800000X1.800000*%
%ADD18C,1.800000*%
%ADD19C,1.574800*%
%ADD20C,1.320800*%
%ADD21C,1.549400*%
%ADD22R,1.371600X1.371600*%
%ADD23C,1.371600*%
%ADD24R,1.500000X1.500000*%
%ADD25C,1.500000*%
G04 APERTURE END LIST*
D10*
X139016917Y-122042425D02*
X138302632Y-122042425D01*
X139159774Y-122470996D02*
X138659774Y-120970996D01*
X138659774Y-120970996D02*
X138159774Y-122470996D01*
X136802632Y-122328139D02*
X136874060Y-122399568D01*
X136874060Y-122399568D02*
X137088346Y-122470996D01*
X137088346Y-122470996D02*
X137231203Y-122470996D01*
X137231203Y-122470996D02*
X137445489Y-122399568D01*
X137445489Y-122399568D02*
X137588346Y-122256710D01*
X137588346Y-122256710D02*
X137659775Y-122113853D01*
X137659775Y-122113853D02*
X137731203Y-121828139D01*
X137731203Y-121828139D02*
X137731203Y-121613853D01*
X137731203Y-121613853D02*
X137659775Y-121328139D01*
X137659775Y-121328139D02*
X137588346Y-121185282D01*
X137588346Y-121185282D02*
X137445489Y-121042425D01*
X137445489Y-121042425D02*
X137231203Y-120970996D01*
X137231203Y-120970996D02*
X137088346Y-120970996D01*
X137088346Y-120970996D02*
X136874060Y-121042425D01*
X136874060Y-121042425D02*
X136802632Y-121113853D01*
X134231203Y-122470996D02*
X135088346Y-122470996D01*
X134659775Y-122470996D02*
X134659775Y-120970996D01*
X134659775Y-120970996D02*
X134802632Y-121185282D01*
X134802632Y-121185282D02*
X134945489Y-121328139D01*
X134945489Y-121328139D02*
X135088346Y-121399568D01*
X132802632Y-122470996D02*
X133659775Y-122470996D01*
X133231204Y-122470996D02*
X133231204Y-120970996D01*
X133231204Y-120970996D02*
X133374061Y-121185282D01*
X133374061Y-121185282D02*
X133516918Y-121328139D01*
X133516918Y-121328139D02*
X133659775Y-121399568D01*
X131445490Y-120970996D02*
X132159776Y-120970996D01*
X132159776Y-120970996D02*
X132231204Y-121685282D01*
X132231204Y-121685282D02*
X132159776Y-121613853D01*
X132159776Y-121613853D02*
X132016919Y-121542425D01*
X132016919Y-121542425D02*
X131659776Y-121542425D01*
X131659776Y-121542425D02*
X131516919Y-121613853D01*
X131516919Y-121613853D02*
X131445490Y-121685282D01*
X131445490Y-121685282D02*
X131374061Y-121828139D01*
X131374061Y-121828139D02*
X131374061Y-122185282D01*
X131374061Y-122185282D02*
X131445490Y-122328139D01*
X131445490Y-122328139D02*
X131516919Y-122399568D01*
X131516919Y-122399568D02*
X131659776Y-122470996D01*
X131659776Y-122470996D02*
X132016919Y-122470996D01*
X132016919Y-122470996D02*
X132159776Y-122399568D01*
X132159776Y-122399568D02*
X132231204Y-122328139D01*
X130945490Y-121899568D02*
X130874062Y-121828139D01*
X130874062Y-121828139D02*
X130731205Y-121756710D01*
X130731205Y-121756710D02*
X130445490Y-121899568D01*
X130445490Y-121899568D02*
X130302633Y-121828139D01*
X130302633Y-121828139D02*
X130231205Y-121756710D01*
X129731204Y-121113853D02*
X129659776Y-121042425D01*
X129659776Y-121042425D02*
X129516919Y-120970996D01*
X129516919Y-120970996D02*
X129159776Y-120970996D01*
X129159776Y-120970996D02*
X129016919Y-121042425D01*
X129016919Y-121042425D02*
X128945490Y-121113853D01*
X128945490Y-121113853D02*
X128874061Y-121256710D01*
X128874061Y-121256710D02*
X128874061Y-121399568D01*
X128874061Y-121399568D02*
X128945490Y-121613853D01*
X128945490Y-121613853D02*
X129802633Y-122470996D01*
X129802633Y-122470996D02*
X128874061Y-122470996D01*
X128374062Y-120970996D02*
X127445490Y-120970996D01*
X127445490Y-120970996D02*
X127945490Y-121542425D01*
X127945490Y-121542425D02*
X127731205Y-121542425D01*
X127731205Y-121542425D02*
X127588348Y-121613853D01*
X127588348Y-121613853D02*
X127516919Y-121685282D01*
X127516919Y-121685282D02*
X127445490Y-121828139D01*
X127445490Y-121828139D02*
X127445490Y-122185282D01*
X127445490Y-122185282D02*
X127516919Y-122328139D01*
X127516919Y-122328139D02*
X127588348Y-122399568D01*
X127588348Y-122399568D02*
X127731205Y-122470996D01*
X127731205Y-122470996D02*
X128159776Y-122470996D01*
X128159776Y-122470996D02*
X128302633Y-122399568D01*
X128302633Y-122399568D02*
X128374062Y-122328139D01*
X126516919Y-120970996D02*
X126374062Y-120970996D01*
X126374062Y-120970996D02*
X126231205Y-121042425D01*
X126231205Y-121042425D02*
X126159777Y-121113853D01*
X126159777Y-121113853D02*
X126088348Y-121256710D01*
X126088348Y-121256710D02*
X126016919Y-121542425D01*
X126016919Y-121542425D02*
X126016919Y-121899568D01*
X126016919Y-121899568D02*
X126088348Y-122185282D01*
X126088348Y-122185282D02*
X126159777Y-122328139D01*
X126159777Y-122328139D02*
X126231205Y-122399568D01*
X126231205Y-122399568D02*
X126374062Y-122470996D01*
X126374062Y-122470996D02*
X126516919Y-122470996D01*
X126516919Y-122470996D02*
X126659777Y-122399568D01*
X126659777Y-122399568D02*
X126731205Y-122328139D01*
X126731205Y-122328139D02*
X126802634Y-122185282D01*
X126802634Y-122185282D02*
X126874062Y-121899568D01*
X126874062Y-121899568D02*
X126874062Y-121542425D01*
X126874062Y-121542425D02*
X126802634Y-121256710D01*
X126802634Y-121256710D02*
X126731205Y-121113853D01*
X126731205Y-121113853D02*
X126659777Y-121042425D01*
X126659777Y-121042425D02*
X126516919Y-120970996D01*
X125588348Y-120970996D02*
X125088348Y-122470996D01*
X125088348Y-122470996D02*
X124588348Y-120970996D01*
X122231206Y-120970996D02*
X122945492Y-120970996D01*
X122945492Y-120970996D02*
X123016920Y-121685282D01*
X123016920Y-121685282D02*
X122945492Y-121613853D01*
X122945492Y-121613853D02*
X122802635Y-121542425D01*
X122802635Y-121542425D02*
X122445492Y-121542425D01*
X122445492Y-121542425D02*
X122302635Y-121613853D01*
X122302635Y-121613853D02*
X122231206Y-121685282D01*
X122231206Y-121685282D02*
X122159777Y-121828139D01*
X122159777Y-121828139D02*
X122159777Y-122185282D01*
X122159777Y-122185282D02*
X122231206Y-122328139D01*
X122231206Y-122328139D02*
X122302635Y-122399568D01*
X122302635Y-122399568D02*
X122445492Y-122470996D01*
X122445492Y-122470996D02*
X122802635Y-122470996D01*
X122802635Y-122470996D02*
X122945492Y-122399568D01*
X122945492Y-122399568D02*
X123016920Y-122328139D01*
X121231206Y-120970996D02*
X121088349Y-120970996D01*
X121088349Y-120970996D02*
X120945492Y-121042425D01*
X120945492Y-121042425D02*
X120874064Y-121113853D01*
X120874064Y-121113853D02*
X120802635Y-121256710D01*
X120802635Y-121256710D02*
X120731206Y-121542425D01*
X120731206Y-121542425D02*
X120731206Y-121899568D01*
X120731206Y-121899568D02*
X120802635Y-122185282D01*
X120802635Y-122185282D02*
X120874064Y-122328139D01*
X120874064Y-122328139D02*
X120945492Y-122399568D01*
X120945492Y-122399568D02*
X121088349Y-122470996D01*
X121088349Y-122470996D02*
X121231206Y-122470996D01*
X121231206Y-122470996D02*
X121374064Y-122399568D01*
X121374064Y-122399568D02*
X121445492Y-122328139D01*
X121445492Y-122328139D02*
X121516921Y-122185282D01*
X121516921Y-122185282D02*
X121588349Y-121899568D01*
X121588349Y-121899568D02*
X121588349Y-121542425D01*
X121588349Y-121542425D02*
X121516921Y-121256710D01*
X121516921Y-121256710D02*
X121445492Y-121113853D01*
X121445492Y-121113853D02*
X121374064Y-121042425D01*
X121374064Y-121042425D02*
X121231206Y-120970996D01*
X120302635Y-121899568D02*
X120231207Y-121828139D01*
X120231207Y-121828139D02*
X120088350Y-121756710D01*
X120088350Y-121756710D02*
X119802635Y-121899568D01*
X119802635Y-121899568D02*
X119659778Y-121828139D01*
X119659778Y-121828139D02*
X119588350Y-121756710D01*
X118374064Y-120970996D02*
X118659778Y-120970996D01*
X118659778Y-120970996D02*
X118802635Y-121042425D01*
X118802635Y-121042425D02*
X118874064Y-121113853D01*
X118874064Y-121113853D02*
X119016921Y-121328139D01*
X119016921Y-121328139D02*
X119088349Y-121613853D01*
X119088349Y-121613853D02*
X119088349Y-122185282D01*
X119088349Y-122185282D02*
X119016921Y-122328139D01*
X119016921Y-122328139D02*
X118945492Y-122399568D01*
X118945492Y-122399568D02*
X118802635Y-122470996D01*
X118802635Y-122470996D02*
X118516921Y-122470996D01*
X118516921Y-122470996D02*
X118374064Y-122399568D01*
X118374064Y-122399568D02*
X118302635Y-122328139D01*
X118302635Y-122328139D02*
X118231206Y-122185282D01*
X118231206Y-122185282D02*
X118231206Y-121828139D01*
X118231206Y-121828139D02*
X118302635Y-121685282D01*
X118302635Y-121685282D02*
X118374064Y-121613853D01*
X118374064Y-121613853D02*
X118516921Y-121542425D01*
X118516921Y-121542425D02*
X118802635Y-121542425D01*
X118802635Y-121542425D02*
X118945492Y-121613853D01*
X118945492Y-121613853D02*
X119016921Y-121685282D01*
X119016921Y-121685282D02*
X119088349Y-121828139D01*
X117302635Y-120970996D02*
X117159778Y-120970996D01*
X117159778Y-120970996D02*
X117016921Y-121042425D01*
X117016921Y-121042425D02*
X116945493Y-121113853D01*
X116945493Y-121113853D02*
X116874064Y-121256710D01*
X116874064Y-121256710D02*
X116802635Y-121542425D01*
X116802635Y-121542425D02*
X116802635Y-121899568D01*
X116802635Y-121899568D02*
X116874064Y-122185282D01*
X116874064Y-122185282D02*
X116945493Y-122328139D01*
X116945493Y-122328139D02*
X117016921Y-122399568D01*
X117016921Y-122399568D02*
X117159778Y-122470996D01*
X117159778Y-122470996D02*
X117302635Y-122470996D01*
X117302635Y-122470996D02*
X117445493Y-122399568D01*
X117445493Y-122399568D02*
X117516921Y-122328139D01*
X117516921Y-122328139D02*
X117588350Y-122185282D01*
X117588350Y-122185282D02*
X117659778Y-121899568D01*
X117659778Y-121899568D02*
X117659778Y-121542425D01*
X117659778Y-121542425D02*
X117588350Y-121256710D01*
X117588350Y-121256710D02*
X117516921Y-121113853D01*
X117516921Y-121113853D02*
X117445493Y-121042425D01*
X117445493Y-121042425D02*
X117302635Y-120970996D01*
X116159779Y-122470996D02*
X116159779Y-120970996D01*
X116159779Y-121685282D02*
X115302636Y-121685282D01*
X115302636Y-122470996D02*
X115302636Y-120970996D01*
X114731207Y-121470996D02*
X113945493Y-121470996D01*
X113945493Y-121470996D02*
X114731207Y-122470996D01*
X114731207Y-122470996D02*
X113945493Y-122470996D01*
X112231207Y-122470996D02*
X112231207Y-120970996D01*
X111516921Y-122470996D02*
X111516921Y-120970996D01*
X111516921Y-120970996D02*
X110659778Y-122470996D01*
X110659778Y-122470996D02*
X110659778Y-120970996D01*
X138945489Y-124885912D02*
X138945489Y-123385912D01*
X138945489Y-123385912D02*
X138588346Y-123385912D01*
X138588346Y-123385912D02*
X138374060Y-123457341D01*
X138374060Y-123457341D02*
X138231203Y-123600198D01*
X138231203Y-123600198D02*
X138159774Y-123743055D01*
X138159774Y-123743055D02*
X138088346Y-124028769D01*
X138088346Y-124028769D02*
X138088346Y-124243055D01*
X138088346Y-124243055D02*
X138159774Y-124528769D01*
X138159774Y-124528769D02*
X138231203Y-124671626D01*
X138231203Y-124671626D02*
X138374060Y-124814484D01*
X138374060Y-124814484D02*
X138588346Y-124885912D01*
X138588346Y-124885912D02*
X138945489Y-124885912D01*
X136588346Y-124743055D02*
X136659774Y-124814484D01*
X136659774Y-124814484D02*
X136874060Y-124885912D01*
X136874060Y-124885912D02*
X137016917Y-124885912D01*
X137016917Y-124885912D02*
X137231203Y-124814484D01*
X137231203Y-124814484D02*
X137374060Y-124671626D01*
X137374060Y-124671626D02*
X137445489Y-124528769D01*
X137445489Y-124528769D02*
X137516917Y-124243055D01*
X137516917Y-124243055D02*
X137516917Y-124028769D01*
X137516917Y-124028769D02*
X137445489Y-123743055D01*
X137445489Y-123743055D02*
X137374060Y-123600198D01*
X137374060Y-123600198D02*
X137231203Y-123457341D01*
X137231203Y-123457341D02*
X137016917Y-123385912D01*
X137016917Y-123385912D02*
X136874060Y-123385912D01*
X136874060Y-123385912D02*
X136659774Y-123457341D01*
X136659774Y-123457341D02*
X136588346Y-123528769D01*
X134945489Y-123385912D02*
X134016917Y-123385912D01*
X134016917Y-123385912D02*
X134516917Y-123957341D01*
X134516917Y-123957341D02*
X134302632Y-123957341D01*
X134302632Y-123957341D02*
X134159775Y-124028769D01*
X134159775Y-124028769D02*
X134088346Y-124100198D01*
X134088346Y-124100198D02*
X134016917Y-124243055D01*
X134016917Y-124243055D02*
X134016917Y-124600198D01*
X134016917Y-124600198D02*
X134088346Y-124743055D01*
X134088346Y-124743055D02*
X134159775Y-124814484D01*
X134159775Y-124814484D02*
X134302632Y-124885912D01*
X134302632Y-124885912D02*
X134731203Y-124885912D01*
X134731203Y-124885912D02*
X134874060Y-124814484D01*
X134874060Y-124814484D02*
X134945489Y-124743055D01*
X133374061Y-124743055D02*
X133302632Y-124814484D01*
X133302632Y-124814484D02*
X133374061Y-124885912D01*
X133374061Y-124885912D02*
X133445489Y-124814484D01*
X133445489Y-124814484D02*
X133374061Y-124743055D01*
X133374061Y-124743055D02*
X133374061Y-124885912D01*
X132802632Y-123385912D02*
X131874060Y-123385912D01*
X131874060Y-123385912D02*
X132374060Y-123957341D01*
X132374060Y-123957341D02*
X132159775Y-123957341D01*
X132159775Y-123957341D02*
X132016918Y-124028769D01*
X132016918Y-124028769D02*
X131945489Y-124100198D01*
X131945489Y-124100198D02*
X131874060Y-124243055D01*
X131874060Y-124243055D02*
X131874060Y-124600198D01*
X131874060Y-124600198D02*
X131945489Y-124743055D01*
X131945489Y-124743055D02*
X132016918Y-124814484D01*
X132016918Y-124814484D02*
X132159775Y-124885912D01*
X132159775Y-124885912D02*
X132588346Y-124885912D01*
X132588346Y-124885912D02*
X132731203Y-124814484D01*
X132731203Y-124814484D02*
X132802632Y-124743055D01*
X131445489Y-123385912D02*
X130945489Y-124885912D01*
X130945489Y-124885912D02*
X130445489Y-123385912D01*
X128159776Y-123385912D02*
X128445490Y-123385912D01*
X128445490Y-123385912D02*
X128588347Y-123457341D01*
X128588347Y-123457341D02*
X128659776Y-123528769D01*
X128659776Y-123528769D02*
X128802633Y-123743055D01*
X128802633Y-123743055D02*
X128874061Y-124028769D01*
X128874061Y-124028769D02*
X128874061Y-124600198D01*
X128874061Y-124600198D02*
X128802633Y-124743055D01*
X128802633Y-124743055D02*
X128731204Y-124814484D01*
X128731204Y-124814484D02*
X128588347Y-124885912D01*
X128588347Y-124885912D02*
X128302633Y-124885912D01*
X128302633Y-124885912D02*
X128159776Y-124814484D01*
X128159776Y-124814484D02*
X128088347Y-124743055D01*
X128088347Y-124743055D02*
X128016918Y-124600198D01*
X128016918Y-124600198D02*
X128016918Y-124243055D01*
X128016918Y-124243055D02*
X128088347Y-124100198D01*
X128088347Y-124100198D02*
X128159776Y-124028769D01*
X128159776Y-124028769D02*
X128302633Y-123957341D01*
X128302633Y-123957341D02*
X128588347Y-123957341D01*
X128588347Y-123957341D02*
X128731204Y-124028769D01*
X128731204Y-124028769D02*
X128802633Y-124100198D01*
X128802633Y-124100198D02*
X128874061Y-124243055D01*
X127088347Y-123385912D02*
X126945490Y-123385912D01*
X126945490Y-123385912D02*
X126802633Y-123457341D01*
X126802633Y-123457341D02*
X126731205Y-123528769D01*
X126731205Y-123528769D02*
X126659776Y-123671626D01*
X126659776Y-123671626D02*
X126588347Y-123957341D01*
X126588347Y-123957341D02*
X126588347Y-124314484D01*
X126588347Y-124314484D02*
X126659776Y-124600198D01*
X126659776Y-124600198D02*
X126731205Y-124743055D01*
X126731205Y-124743055D02*
X126802633Y-124814484D01*
X126802633Y-124814484D02*
X126945490Y-124885912D01*
X126945490Y-124885912D02*
X127088347Y-124885912D01*
X127088347Y-124885912D02*
X127231205Y-124814484D01*
X127231205Y-124814484D02*
X127302633Y-124743055D01*
X127302633Y-124743055D02*
X127374062Y-124600198D01*
X127374062Y-124600198D02*
X127445490Y-124314484D01*
X127445490Y-124314484D02*
X127445490Y-123957341D01*
X127445490Y-123957341D02*
X127374062Y-123671626D01*
X127374062Y-123671626D02*
X127302633Y-123528769D01*
X127302633Y-123528769D02*
X127231205Y-123457341D01*
X127231205Y-123457341D02*
X127088347Y-123385912D01*
X125659776Y-123385912D02*
X125516919Y-123385912D01*
X125516919Y-123385912D02*
X125374062Y-123457341D01*
X125374062Y-123457341D02*
X125302634Y-123528769D01*
X125302634Y-123528769D02*
X125231205Y-123671626D01*
X125231205Y-123671626D02*
X125159776Y-123957341D01*
X125159776Y-123957341D02*
X125159776Y-124314484D01*
X125159776Y-124314484D02*
X125231205Y-124600198D01*
X125231205Y-124600198D02*
X125302634Y-124743055D01*
X125302634Y-124743055D02*
X125374062Y-124814484D01*
X125374062Y-124814484D02*
X125516919Y-124885912D01*
X125516919Y-124885912D02*
X125659776Y-124885912D01*
X125659776Y-124885912D02*
X125802634Y-124814484D01*
X125802634Y-124814484D02*
X125874062Y-124743055D01*
X125874062Y-124743055D02*
X125945491Y-124600198D01*
X125945491Y-124600198D02*
X126016919Y-124314484D01*
X126016919Y-124314484D02*
X126016919Y-123957341D01*
X126016919Y-123957341D02*
X125945491Y-123671626D01*
X125945491Y-123671626D02*
X125874062Y-123528769D01*
X125874062Y-123528769D02*
X125802634Y-123457341D01*
X125802634Y-123457341D02*
X125659776Y-123385912D01*
X124516920Y-124885912D02*
X124516920Y-123885912D01*
X124516920Y-124028769D02*
X124445491Y-123957341D01*
X124445491Y-123957341D02*
X124302634Y-123885912D01*
X124302634Y-123885912D02*
X124088348Y-123885912D01*
X124088348Y-123885912D02*
X123945491Y-123957341D01*
X123945491Y-123957341D02*
X123874063Y-124100198D01*
X123874063Y-124100198D02*
X123874063Y-124885912D01*
X123874063Y-124100198D02*
X123802634Y-123957341D01*
X123802634Y-123957341D02*
X123659777Y-123885912D01*
X123659777Y-123885912D02*
X123445491Y-123885912D01*
X123445491Y-123885912D02*
X123302634Y-123957341D01*
X123302634Y-123957341D02*
X123231205Y-124100198D01*
X123231205Y-124100198D02*
X123231205Y-124885912D01*
X122588348Y-124457341D02*
X121874063Y-124457341D01*
X122731205Y-124885912D02*
X122231205Y-123385912D01*
X122231205Y-123385912D02*
X121731205Y-124885912D01*
X119659777Y-125457341D02*
X119731206Y-125385912D01*
X119731206Y-125385912D02*
X119874063Y-125171626D01*
X119874063Y-125171626D02*
X119945492Y-125028769D01*
X119945492Y-125028769D02*
X120016920Y-124814484D01*
X120016920Y-124814484D02*
X120088349Y-124457341D01*
X120088349Y-124457341D02*
X120088349Y-124171626D01*
X120088349Y-124171626D02*
X120016920Y-123814484D01*
X120016920Y-123814484D02*
X119945492Y-123600198D01*
X119945492Y-123600198D02*
X119874063Y-123457341D01*
X119874063Y-123457341D02*
X119731206Y-123243055D01*
X119731206Y-123243055D02*
X119659777Y-123171626D01*
X119159777Y-123528769D02*
X119088349Y-123457341D01*
X119088349Y-123457341D02*
X118945492Y-123385912D01*
X118945492Y-123385912D02*
X118588349Y-123385912D01*
X118588349Y-123385912D02*
X118445492Y-123457341D01*
X118445492Y-123457341D02*
X118374063Y-123528769D01*
X118374063Y-123528769D02*
X118302634Y-123671626D01*
X118302634Y-123671626D02*
X118302634Y-123814484D01*
X118302634Y-123814484D02*
X118374063Y-124028769D01*
X118374063Y-124028769D02*
X119231206Y-124885912D01*
X119231206Y-124885912D02*
X118302634Y-124885912D01*
X117802635Y-123385912D02*
X117445492Y-124885912D01*
X117445492Y-124885912D02*
X117159778Y-123814484D01*
X117159778Y-123814484D02*
X116874063Y-124885912D01*
X116874063Y-124885912D02*
X116516921Y-123385912D01*
X116088349Y-125457341D02*
X116016920Y-125385912D01*
X116016920Y-125385912D02*
X115874063Y-125171626D01*
X115874063Y-125171626D02*
X115802635Y-125028769D01*
X115802635Y-125028769D02*
X115731206Y-124814484D01*
X115731206Y-124814484D02*
X115659777Y-124457341D01*
X115659777Y-124457341D02*
X115659777Y-124171626D01*
X115659777Y-124171626D02*
X115731206Y-123814484D01*
X115731206Y-123814484D02*
X115802635Y-123600198D01*
X115802635Y-123600198D02*
X115874063Y-123457341D01*
X115874063Y-123457341D02*
X116016920Y-123243055D01*
X116016920Y-123243055D02*
X116088349Y-123171626D01*
X113516920Y-123385912D02*
X113231206Y-123385912D01*
X113231206Y-123385912D02*
X113088349Y-123457341D01*
X113088349Y-123457341D02*
X112945492Y-123600198D01*
X112945492Y-123600198D02*
X112874063Y-123885912D01*
X112874063Y-123885912D02*
X112874063Y-124385912D01*
X112874063Y-124385912D02*
X112945492Y-124671626D01*
X112945492Y-124671626D02*
X113088349Y-124814484D01*
X113088349Y-124814484D02*
X113231206Y-124885912D01*
X113231206Y-124885912D02*
X113516920Y-124885912D01*
X113516920Y-124885912D02*
X113659778Y-124814484D01*
X113659778Y-124814484D02*
X113802635Y-124671626D01*
X113802635Y-124671626D02*
X113874063Y-124385912D01*
X113874063Y-124385912D02*
X113874063Y-123885912D01*
X113874063Y-123885912D02*
X113802635Y-123600198D01*
X113802635Y-123600198D02*
X113659778Y-123457341D01*
X113659778Y-123457341D02*
X113516920Y-123385912D01*
X112231206Y-123385912D02*
X112231206Y-124600198D01*
X112231206Y-124600198D02*
X112159777Y-124743055D01*
X112159777Y-124743055D02*
X112088349Y-124814484D01*
X112088349Y-124814484D02*
X111945491Y-124885912D01*
X111945491Y-124885912D02*
X111659777Y-124885912D01*
X111659777Y-124885912D02*
X111516920Y-124814484D01*
X111516920Y-124814484D02*
X111445491Y-124743055D01*
X111445491Y-124743055D02*
X111374063Y-124600198D01*
X111374063Y-124600198D02*
X111374063Y-123385912D01*
X110874062Y-123385912D02*
X110016920Y-123385912D01*
X110445491Y-124885912D02*
X110445491Y-123385912D01*
X138945489Y-125800828D02*
X138945489Y-127015114D01*
X138945489Y-127015114D02*
X138874060Y-127157971D01*
X138874060Y-127157971D02*
X138802632Y-127229400D01*
X138802632Y-127229400D02*
X138659774Y-127300828D01*
X138659774Y-127300828D02*
X138374060Y-127300828D01*
X138374060Y-127300828D02*
X138231203Y-127229400D01*
X138231203Y-127229400D02*
X138159774Y-127157971D01*
X138159774Y-127157971D02*
X138088346Y-127015114D01*
X138088346Y-127015114D02*
X138088346Y-125800828D01*
X137445488Y-127229400D02*
X137302631Y-127300828D01*
X137302631Y-127300828D02*
X137016917Y-127300828D01*
X137016917Y-127300828D02*
X136874060Y-127229400D01*
X136874060Y-127229400D02*
X136802631Y-127086542D01*
X136802631Y-127086542D02*
X136802631Y-127015114D01*
X136802631Y-127015114D02*
X136874060Y-126872257D01*
X136874060Y-126872257D02*
X137016917Y-126800828D01*
X137016917Y-126800828D02*
X137231203Y-126800828D01*
X137231203Y-126800828D02*
X137374060Y-126729400D01*
X137374060Y-126729400D02*
X137445488Y-126586542D01*
X137445488Y-126586542D02*
X137445488Y-126515114D01*
X137445488Y-126515114D02*
X137374060Y-126372257D01*
X137374060Y-126372257D02*
X137231203Y-126300828D01*
X137231203Y-126300828D02*
X137016917Y-126300828D01*
X137016917Y-126300828D02*
X136874060Y-126372257D01*
X135588345Y-127229400D02*
X135731202Y-127300828D01*
X135731202Y-127300828D02*
X136016917Y-127300828D01*
X136016917Y-127300828D02*
X136159774Y-127229400D01*
X136159774Y-127229400D02*
X136231202Y-127086542D01*
X136231202Y-127086542D02*
X136231202Y-126515114D01*
X136231202Y-126515114D02*
X136159774Y-126372257D01*
X136159774Y-126372257D02*
X136016917Y-126300828D01*
X136016917Y-126300828D02*
X135731202Y-126300828D01*
X135731202Y-126300828D02*
X135588345Y-126372257D01*
X135588345Y-126372257D02*
X135516917Y-126515114D01*
X135516917Y-126515114D02*
X135516917Y-126657971D01*
X135516917Y-126657971D02*
X136231202Y-126800828D01*
X133088346Y-127300828D02*
X133088346Y-126515114D01*
X133088346Y-126515114D02*
X133159774Y-126372257D01*
X133159774Y-126372257D02*
X133302631Y-126300828D01*
X133302631Y-126300828D02*
X133588346Y-126300828D01*
X133588346Y-126300828D02*
X133731203Y-126372257D01*
X133088346Y-127229400D02*
X133231203Y-127300828D01*
X133231203Y-127300828D02*
X133588346Y-127300828D01*
X133588346Y-127300828D02*
X133731203Y-127229400D01*
X133731203Y-127229400D02*
X133802631Y-127086542D01*
X133802631Y-127086542D02*
X133802631Y-126943685D01*
X133802631Y-126943685D02*
X133731203Y-126800828D01*
X133731203Y-126800828D02*
X133588346Y-126729400D01*
X133588346Y-126729400D02*
X133231203Y-126729400D01*
X133231203Y-126729400D02*
X133088346Y-126657971D01*
X131231203Y-127300828D02*
X131231203Y-125800828D01*
X131231203Y-125800828D02*
X130659774Y-125800828D01*
X130659774Y-125800828D02*
X130516917Y-125872257D01*
X130516917Y-125872257D02*
X130445488Y-125943685D01*
X130445488Y-125943685D02*
X130374060Y-126086542D01*
X130374060Y-126086542D02*
X130374060Y-126300828D01*
X130374060Y-126300828D02*
X130445488Y-126443685D01*
X130445488Y-126443685D02*
X130516917Y-126515114D01*
X130516917Y-126515114D02*
X130659774Y-126586542D01*
X130659774Y-126586542D02*
X131231203Y-126586542D01*
X128874060Y-127157971D02*
X128945488Y-127229400D01*
X128945488Y-127229400D02*
X129159774Y-127300828D01*
X129159774Y-127300828D02*
X129302631Y-127300828D01*
X129302631Y-127300828D02*
X129516917Y-127229400D01*
X129516917Y-127229400D02*
X129659774Y-127086542D01*
X129659774Y-127086542D02*
X129731203Y-126943685D01*
X129731203Y-126943685D02*
X129802631Y-126657971D01*
X129802631Y-126657971D02*
X129802631Y-126443685D01*
X129802631Y-126443685D02*
X129731203Y-126157971D01*
X129731203Y-126157971D02*
X129659774Y-126015114D01*
X129659774Y-126015114D02*
X129516917Y-125872257D01*
X129516917Y-125872257D02*
X129302631Y-125800828D01*
X129302631Y-125800828D02*
X129159774Y-125800828D01*
X129159774Y-125800828D02*
X128945488Y-125872257D01*
X128945488Y-125872257D02*
X128874060Y-125943685D01*
X127302631Y-126300828D02*
X126731203Y-126300828D01*
X127088346Y-127300828D02*
X127088346Y-126015114D01*
X127088346Y-126015114D02*
X127016917Y-125872257D01*
X127016917Y-125872257D02*
X126874060Y-125800828D01*
X126874060Y-125800828D02*
X126731203Y-125800828D01*
X125588346Y-127300828D02*
X125588346Y-126515114D01*
X125588346Y-126515114D02*
X125659774Y-126372257D01*
X125659774Y-126372257D02*
X125802631Y-126300828D01*
X125802631Y-126300828D02*
X126088346Y-126300828D01*
X126088346Y-126300828D02*
X126231203Y-126372257D01*
X125588346Y-127229400D02*
X125731203Y-127300828D01*
X125731203Y-127300828D02*
X126088346Y-127300828D01*
X126088346Y-127300828D02*
X126231203Y-127229400D01*
X126231203Y-127229400D02*
X126302631Y-127086542D01*
X126302631Y-127086542D02*
X126302631Y-126943685D01*
X126302631Y-126943685D02*
X126231203Y-126800828D01*
X126231203Y-126800828D02*
X126088346Y-126729400D01*
X126088346Y-126729400D02*
X125731203Y-126729400D01*
X125731203Y-126729400D02*
X125588346Y-126657971D01*
X124874060Y-126300828D02*
X124874060Y-127300828D01*
X124874060Y-126443685D02*
X124802631Y-126372257D01*
X124802631Y-126372257D02*
X124659774Y-126300828D01*
X124659774Y-126300828D02*
X124445488Y-126300828D01*
X124445488Y-126300828D02*
X124302631Y-126372257D01*
X124302631Y-126372257D02*
X124231203Y-126515114D01*
X124231203Y-126515114D02*
X124231203Y-127300828D01*
X121731203Y-127229400D02*
X121874060Y-127300828D01*
X121874060Y-127300828D02*
X122159774Y-127300828D01*
X122159774Y-127300828D02*
X122302631Y-127229400D01*
X122302631Y-127229400D02*
X122374060Y-127157971D01*
X122374060Y-127157971D02*
X122445488Y-127015114D01*
X122445488Y-127015114D02*
X122445488Y-126586542D01*
X122445488Y-126586542D02*
X122374060Y-126443685D01*
X122374060Y-126443685D02*
X122302631Y-126372257D01*
X122302631Y-126372257D02*
X122159774Y-126300828D01*
X122159774Y-126300828D02*
X121874060Y-126300828D01*
X121874060Y-126300828D02*
X121731203Y-126372257D01*
X120445489Y-127300828D02*
X120445489Y-126515114D01*
X120445489Y-126515114D02*
X120516917Y-126372257D01*
X120516917Y-126372257D02*
X120659774Y-126300828D01*
X120659774Y-126300828D02*
X120945489Y-126300828D01*
X120945489Y-126300828D02*
X121088346Y-126372257D01*
X120445489Y-127229400D02*
X120588346Y-127300828D01*
X120588346Y-127300828D02*
X120945489Y-127300828D01*
X120945489Y-127300828D02*
X121088346Y-127229400D01*
X121088346Y-127229400D02*
X121159774Y-127086542D01*
X121159774Y-127086542D02*
X121159774Y-126943685D01*
X121159774Y-126943685D02*
X121088346Y-126800828D01*
X121088346Y-126800828D02*
X120945489Y-126729400D01*
X120945489Y-126729400D02*
X120588346Y-126729400D01*
X120588346Y-126729400D02*
X120445489Y-126657971D01*
X119731203Y-127300828D02*
X119731203Y-125800828D01*
X119731203Y-126372257D02*
X119588346Y-126300828D01*
X119588346Y-126300828D02*
X119302631Y-126300828D01*
X119302631Y-126300828D02*
X119159774Y-126372257D01*
X119159774Y-126372257D02*
X119088346Y-126443685D01*
X119088346Y-126443685D02*
X119016917Y-126586542D01*
X119016917Y-126586542D02*
X119016917Y-127015114D01*
X119016917Y-127015114D02*
X119088346Y-127157971D01*
X119088346Y-127157971D02*
X119159774Y-127229400D01*
X119159774Y-127229400D02*
X119302631Y-127300828D01*
X119302631Y-127300828D02*
X119588346Y-127300828D01*
X119588346Y-127300828D02*
X119731203Y-127229400D01*
X118159774Y-127300828D02*
X118302631Y-127229400D01*
X118302631Y-127229400D02*
X118374060Y-127086542D01*
X118374060Y-127086542D02*
X118374060Y-125800828D01*
X117016917Y-127229400D02*
X117159774Y-127300828D01*
X117159774Y-127300828D02*
X117445489Y-127300828D01*
X117445489Y-127300828D02*
X117588346Y-127229400D01*
X117588346Y-127229400D02*
X117659774Y-127086542D01*
X117659774Y-127086542D02*
X117659774Y-126515114D01*
X117659774Y-126515114D02*
X117588346Y-126372257D01*
X117588346Y-126372257D02*
X117445489Y-126300828D01*
X117445489Y-126300828D02*
X117159774Y-126300828D01*
X117159774Y-126300828D02*
X117016917Y-126372257D01*
X117016917Y-126372257D02*
X116945489Y-126515114D01*
X116945489Y-126515114D02*
X116945489Y-126657971D01*
X116945489Y-126657971D02*
X117659774Y-126800828D01*
X151231203Y-88470996D02*
X151945489Y-88470996D01*
X151945489Y-88470996D02*
X151945489Y-86970996D01*
X150731203Y-88470996D02*
X150731203Y-87470996D01*
X150731203Y-86970996D02*
X150802631Y-87042425D01*
X150802631Y-87042425D02*
X150731203Y-87113853D01*
X150731203Y-87113853D02*
X150659774Y-87042425D01*
X150659774Y-87042425D02*
X150731203Y-86970996D01*
X150731203Y-86970996D02*
X150731203Y-87113853D01*
X149374060Y-88470996D02*
X149374060Y-87685282D01*
X149374060Y-87685282D02*
X149445488Y-87542425D01*
X149445488Y-87542425D02*
X149588345Y-87470996D01*
X149588345Y-87470996D02*
X149874060Y-87470996D01*
X149874060Y-87470996D02*
X150016917Y-87542425D01*
X149374060Y-88399568D02*
X149516917Y-88470996D01*
X149516917Y-88470996D02*
X149874060Y-88470996D01*
X149874060Y-88470996D02*
X150016917Y-88399568D01*
X150016917Y-88399568D02*
X150088345Y-88256710D01*
X150088345Y-88256710D02*
X150088345Y-88113853D01*
X150088345Y-88113853D02*
X150016917Y-87970996D01*
X150016917Y-87970996D02*
X149874060Y-87899568D01*
X149874060Y-87899568D02*
X149516917Y-87899568D01*
X149516917Y-87899568D02*
X149374060Y-87828139D01*
X148659774Y-88470996D02*
X148659774Y-87470996D01*
X148659774Y-87613853D02*
X148588345Y-87542425D01*
X148588345Y-87542425D02*
X148445488Y-87470996D01*
X148445488Y-87470996D02*
X148231202Y-87470996D01*
X148231202Y-87470996D02*
X148088345Y-87542425D01*
X148088345Y-87542425D02*
X148016917Y-87685282D01*
X148016917Y-87685282D02*
X148016917Y-88470996D01*
X148016917Y-87685282D02*
X147945488Y-87542425D01*
X147945488Y-87542425D02*
X147802631Y-87470996D01*
X147802631Y-87470996D02*
X147588345Y-87470996D01*
X147588345Y-87470996D02*
X147445488Y-87542425D01*
X147445488Y-87542425D02*
X147374059Y-87685282D01*
X147374059Y-87685282D02*
X147374059Y-88470996D01*
X144659774Y-88328139D02*
X144731202Y-88399568D01*
X144731202Y-88399568D02*
X144945488Y-88470996D01*
X144945488Y-88470996D02*
X145088345Y-88470996D01*
X145088345Y-88470996D02*
X145302631Y-88399568D01*
X145302631Y-88399568D02*
X145445488Y-88256710D01*
X145445488Y-88256710D02*
X145516917Y-88113853D01*
X145516917Y-88113853D02*
X145588345Y-87828139D01*
X145588345Y-87828139D02*
X145588345Y-87613853D01*
X145588345Y-87613853D02*
X145516917Y-87328139D01*
X145516917Y-87328139D02*
X145445488Y-87185282D01*
X145445488Y-87185282D02*
X145302631Y-87042425D01*
X145302631Y-87042425D02*
X145088345Y-86970996D01*
X145088345Y-86970996D02*
X144945488Y-86970996D01*
X144945488Y-86970996D02*
X144731202Y-87042425D01*
X144731202Y-87042425D02*
X144659774Y-87113853D01*
X144016917Y-88470996D02*
X144016917Y-87470996D01*
X144016917Y-87756710D02*
X143945488Y-87613853D01*
X143945488Y-87613853D02*
X143874060Y-87542425D01*
X143874060Y-87542425D02*
X143731202Y-87470996D01*
X143731202Y-87470996D02*
X143588345Y-87470996D01*
X143088346Y-88470996D02*
X143088346Y-87470996D01*
X143088346Y-86970996D02*
X143159774Y-87042425D01*
X143159774Y-87042425D02*
X143088346Y-87113853D01*
X143088346Y-87113853D02*
X143016917Y-87042425D01*
X143016917Y-87042425D02*
X143088346Y-86970996D01*
X143088346Y-86970996D02*
X143088346Y-87113853D01*
X142374060Y-87470996D02*
X142374060Y-88470996D01*
X142374060Y-87613853D02*
X142302631Y-87542425D01*
X142302631Y-87542425D02*
X142159774Y-87470996D01*
X142159774Y-87470996D02*
X141945488Y-87470996D01*
X141945488Y-87470996D02*
X141802631Y-87542425D01*
X141802631Y-87542425D02*
X141731203Y-87685282D01*
X141731203Y-87685282D02*
X141731203Y-88470996D01*
X140374060Y-87470996D02*
X140374060Y-88685282D01*
X140374060Y-88685282D02*
X140445488Y-88828139D01*
X140445488Y-88828139D02*
X140516917Y-88899568D01*
X140516917Y-88899568D02*
X140659774Y-88970996D01*
X140659774Y-88970996D02*
X140874060Y-88970996D01*
X140874060Y-88970996D02*
X141016917Y-88899568D01*
X140374060Y-88399568D02*
X140516917Y-88470996D01*
X140516917Y-88470996D02*
X140802631Y-88470996D01*
X140802631Y-88470996D02*
X140945488Y-88399568D01*
X140945488Y-88399568D02*
X141016917Y-88328139D01*
X141016917Y-88328139D02*
X141088345Y-88185282D01*
X141088345Y-88185282D02*
X141088345Y-87756710D01*
X141088345Y-87756710D02*
X141016917Y-87613853D01*
X141016917Y-87613853D02*
X140945488Y-87542425D01*
X140945488Y-87542425D02*
X140802631Y-87470996D01*
X140802631Y-87470996D02*
X140516917Y-87470996D01*
X140516917Y-87470996D02*
X140374060Y-87542425D01*
X139445488Y-88470996D02*
X139588345Y-88399568D01*
X139588345Y-88399568D02*
X139659774Y-88256710D01*
X139659774Y-88256710D02*
X139659774Y-86970996D01*
X138302631Y-88399568D02*
X138445488Y-88470996D01*
X138445488Y-88470996D02*
X138731203Y-88470996D01*
X138731203Y-88470996D02*
X138874060Y-88399568D01*
X138874060Y-88399568D02*
X138945488Y-88256710D01*
X138945488Y-88256710D02*
X138945488Y-87685282D01*
X138945488Y-87685282D02*
X138874060Y-87542425D01*
X138874060Y-87542425D02*
X138731203Y-87470996D01*
X138731203Y-87470996D02*
X138445488Y-87470996D01*
X138445488Y-87470996D02*
X138302631Y-87542425D01*
X138302631Y-87542425D02*
X138231203Y-87685282D01*
X138231203Y-87685282D02*
X138231203Y-87828139D01*
X138231203Y-87828139D02*
X138945488Y-87970996D01*
X135588346Y-88328139D02*
X135659774Y-88399568D01*
X135659774Y-88399568D02*
X135874060Y-88470996D01*
X135874060Y-88470996D02*
X136016917Y-88470996D01*
X136016917Y-88470996D02*
X136231203Y-88399568D01*
X136231203Y-88399568D02*
X136374060Y-88256710D01*
X136374060Y-88256710D02*
X136445489Y-88113853D01*
X136445489Y-88113853D02*
X136516917Y-87828139D01*
X136516917Y-87828139D02*
X136516917Y-87613853D01*
X136516917Y-87613853D02*
X136445489Y-87328139D01*
X136445489Y-87328139D02*
X136374060Y-87185282D01*
X136374060Y-87185282D02*
X136231203Y-87042425D01*
X136231203Y-87042425D02*
X136016917Y-86970996D01*
X136016917Y-86970996D02*
X135874060Y-86970996D01*
X135874060Y-86970996D02*
X135659774Y-87042425D01*
X135659774Y-87042425D02*
X135588346Y-87113853D01*
X134945489Y-87685282D02*
X134445489Y-87685282D01*
X134231203Y-88470996D02*
X134945489Y-88470996D01*
X134945489Y-88470996D02*
X134945489Y-86970996D01*
X134945489Y-86970996D02*
X134231203Y-86970996D01*
X151945489Y-90885912D02*
X151945489Y-89385912D01*
X151302631Y-90814484D02*
X151159774Y-90885912D01*
X151159774Y-90885912D02*
X150874060Y-90885912D01*
X150874060Y-90885912D02*
X150731203Y-90814484D01*
X150731203Y-90814484D02*
X150659774Y-90671626D01*
X150659774Y-90671626D02*
X150659774Y-90600198D01*
X150659774Y-90600198D02*
X150731203Y-90457341D01*
X150731203Y-90457341D02*
X150874060Y-90385912D01*
X150874060Y-90385912D02*
X151088346Y-90385912D01*
X151088346Y-90385912D02*
X151231203Y-90314484D01*
X151231203Y-90314484D02*
X151302631Y-90171626D01*
X151302631Y-90171626D02*
X151302631Y-90100198D01*
X151302631Y-90100198D02*
X151231203Y-89957341D01*
X151231203Y-89957341D02*
X151088346Y-89885912D01*
X151088346Y-89885912D02*
X150874060Y-89885912D01*
X150874060Y-89885912D02*
X150731203Y-89957341D01*
X149374060Y-90885912D02*
X149374060Y-90100198D01*
X149374060Y-90100198D02*
X149445488Y-89957341D01*
X149445488Y-89957341D02*
X149588345Y-89885912D01*
X149588345Y-89885912D02*
X149874060Y-89885912D01*
X149874060Y-89885912D02*
X150016917Y-89957341D01*
X149374060Y-90814484D02*
X149516917Y-90885912D01*
X149516917Y-90885912D02*
X149874060Y-90885912D01*
X149874060Y-90885912D02*
X150016917Y-90814484D01*
X150016917Y-90814484D02*
X150088345Y-90671626D01*
X150088345Y-90671626D02*
X150088345Y-90528769D01*
X150088345Y-90528769D02*
X150016917Y-90385912D01*
X150016917Y-90385912D02*
X149874060Y-90314484D01*
X149874060Y-90314484D02*
X149516917Y-90314484D01*
X149516917Y-90314484D02*
X149374060Y-90243055D01*
X148016917Y-90885912D02*
X148016917Y-90100198D01*
X148016917Y-90100198D02*
X148088345Y-89957341D01*
X148088345Y-89957341D02*
X148231202Y-89885912D01*
X148231202Y-89885912D02*
X148516917Y-89885912D01*
X148516917Y-89885912D02*
X148659774Y-89957341D01*
X148016917Y-90814484D02*
X148159774Y-90885912D01*
X148159774Y-90885912D02*
X148516917Y-90885912D01*
X148516917Y-90885912D02*
X148659774Y-90814484D01*
X148659774Y-90814484D02*
X148731202Y-90671626D01*
X148731202Y-90671626D02*
X148731202Y-90528769D01*
X148731202Y-90528769D02*
X148659774Y-90385912D01*
X148659774Y-90385912D02*
X148516917Y-90314484D01*
X148516917Y-90314484D02*
X148159774Y-90314484D01*
X148159774Y-90314484D02*
X148016917Y-90243055D01*
X146659774Y-90814484D02*
X146802631Y-90885912D01*
X146802631Y-90885912D02*
X147088345Y-90885912D01*
X147088345Y-90885912D02*
X147231202Y-90814484D01*
X147231202Y-90814484D02*
X147302631Y-90743055D01*
X147302631Y-90743055D02*
X147374059Y-90600198D01*
X147374059Y-90600198D02*
X147374059Y-90171626D01*
X147374059Y-90171626D02*
X147302631Y-90028769D01*
X147302631Y-90028769D02*
X147231202Y-89957341D01*
X147231202Y-89957341D02*
X147088345Y-89885912D01*
X147088345Y-89885912D02*
X146802631Y-89885912D01*
X146802631Y-89885912D02*
X146659774Y-89957341D01*
X145088345Y-89385912D02*
X144231203Y-89385912D01*
X144659774Y-90885912D02*
X144659774Y-89385912D01*
X143159774Y-90814484D02*
X143302631Y-90885912D01*
X143302631Y-90885912D02*
X143588346Y-90885912D01*
X143588346Y-90885912D02*
X143731203Y-90814484D01*
X143731203Y-90814484D02*
X143802631Y-90671626D01*
X143802631Y-90671626D02*
X143802631Y-90100198D01*
X143802631Y-90100198D02*
X143731203Y-89957341D01*
X143731203Y-89957341D02*
X143588346Y-89885912D01*
X143588346Y-89885912D02*
X143302631Y-89885912D01*
X143302631Y-89885912D02*
X143159774Y-89957341D01*
X143159774Y-89957341D02*
X143088346Y-90100198D01*
X143088346Y-90100198D02*
X143088346Y-90243055D01*
X143088346Y-90243055D02*
X143802631Y-90385912D01*
X142445489Y-90885912D02*
X142445489Y-89885912D01*
X142445489Y-90171626D02*
X142374060Y-90028769D01*
X142374060Y-90028769D02*
X142302632Y-89957341D01*
X142302632Y-89957341D02*
X142159774Y-89885912D01*
X142159774Y-89885912D02*
X142016917Y-89885912D01*
X141516918Y-90885912D02*
X141516918Y-89885912D01*
X141516918Y-90171626D02*
X141445489Y-90028769D01*
X141445489Y-90028769D02*
X141374061Y-89957341D01*
X141374061Y-89957341D02*
X141231203Y-89885912D01*
X141231203Y-89885912D02*
X141088346Y-89885912D01*
X140016918Y-90814484D02*
X140159775Y-90885912D01*
X140159775Y-90885912D02*
X140445490Y-90885912D01*
X140445490Y-90885912D02*
X140588347Y-90814484D01*
X140588347Y-90814484D02*
X140659775Y-90671626D01*
X140659775Y-90671626D02*
X140659775Y-90100198D01*
X140659775Y-90100198D02*
X140588347Y-89957341D01*
X140588347Y-89957341D02*
X140445490Y-89885912D01*
X140445490Y-89885912D02*
X140159775Y-89885912D01*
X140159775Y-89885912D02*
X140016918Y-89957341D01*
X140016918Y-89957341D02*
X139945490Y-90100198D01*
X139945490Y-90100198D02*
X139945490Y-90243055D01*
X139945490Y-90243055D02*
X140659775Y-90385912D01*
X139088347Y-90885912D02*
X139231204Y-90814484D01*
X139231204Y-90814484D02*
X139302633Y-90671626D01*
X139302633Y-90671626D02*
X139302633Y-89385912D01*
X138302633Y-90885912D02*
X138445490Y-90814484D01*
X138445490Y-90814484D02*
X138516919Y-90671626D01*
X138516919Y-90671626D02*
X138516919Y-89385912D01*
X136588348Y-90100198D02*
X136088348Y-90100198D01*
X135874062Y-90885912D02*
X136588348Y-90885912D01*
X136588348Y-90885912D02*
X136588348Y-89385912D01*
X136588348Y-89385912D02*
X135874062Y-89385912D01*
X135231205Y-90100198D02*
X134731205Y-90100198D01*
X134516919Y-90885912D02*
X135231205Y-90885912D01*
X135231205Y-90885912D02*
X135231205Y-89385912D01*
X135231205Y-89385912D02*
X134516919Y-89385912D01*
X151945489Y-93300828D02*
X151945489Y-91800828D01*
X151945489Y-91800828D02*
X151374060Y-91800828D01*
X151374060Y-91800828D02*
X151231203Y-91872257D01*
X151231203Y-91872257D02*
X151159774Y-91943685D01*
X151159774Y-91943685D02*
X151088346Y-92086542D01*
X151088346Y-92086542D02*
X151088346Y-92300828D01*
X151088346Y-92300828D02*
X151159774Y-92443685D01*
X151159774Y-92443685D02*
X151231203Y-92515114D01*
X151231203Y-92515114D02*
X151374060Y-92586542D01*
X151374060Y-92586542D02*
X151945489Y-92586542D01*
X150231203Y-93300828D02*
X150374060Y-93229400D01*
X150374060Y-93229400D02*
X150445489Y-93157971D01*
X150445489Y-93157971D02*
X150516917Y-93015114D01*
X150516917Y-93015114D02*
X150516917Y-92586542D01*
X150516917Y-92586542D02*
X150445489Y-92443685D01*
X150445489Y-92443685D02*
X150374060Y-92372257D01*
X150374060Y-92372257D02*
X150231203Y-92300828D01*
X150231203Y-92300828D02*
X150016917Y-92300828D01*
X150016917Y-92300828D02*
X149874060Y-92372257D01*
X149874060Y-92372257D02*
X149802632Y-92443685D01*
X149802632Y-92443685D02*
X149731203Y-92586542D01*
X149731203Y-92586542D02*
X149731203Y-93015114D01*
X149731203Y-93015114D02*
X149802632Y-93157971D01*
X149802632Y-93157971D02*
X149874060Y-93229400D01*
X149874060Y-93229400D02*
X150016917Y-93300828D01*
X150016917Y-93300828D02*
X150231203Y-93300828D01*
X149231203Y-92300828D02*
X148945489Y-93300828D01*
X148945489Y-93300828D02*
X148659774Y-92586542D01*
X148659774Y-92586542D02*
X148374060Y-93300828D01*
X148374060Y-93300828D02*
X148088346Y-92300828D01*
X146945488Y-93229400D02*
X147088345Y-93300828D01*
X147088345Y-93300828D02*
X147374060Y-93300828D01*
X147374060Y-93300828D02*
X147516917Y-93229400D01*
X147516917Y-93229400D02*
X147588345Y-93086542D01*
X147588345Y-93086542D02*
X147588345Y-92515114D01*
X147588345Y-92515114D02*
X147516917Y-92372257D01*
X147516917Y-92372257D02*
X147374060Y-92300828D01*
X147374060Y-92300828D02*
X147088345Y-92300828D01*
X147088345Y-92300828D02*
X146945488Y-92372257D01*
X146945488Y-92372257D02*
X146874060Y-92515114D01*
X146874060Y-92515114D02*
X146874060Y-92657971D01*
X146874060Y-92657971D02*
X147588345Y-92800828D01*
X146231203Y-93300828D02*
X146231203Y-92300828D01*
X146231203Y-92586542D02*
X146159774Y-92443685D01*
X146159774Y-92443685D02*
X146088346Y-92372257D01*
X146088346Y-92372257D02*
X145945488Y-92300828D01*
X145945488Y-92300828D02*
X145802631Y-92300828D01*
X143516918Y-93300828D02*
X143516918Y-91800828D01*
X143516918Y-93229400D02*
X143659775Y-93300828D01*
X143659775Y-93300828D02*
X143945489Y-93300828D01*
X143945489Y-93300828D02*
X144088346Y-93229400D01*
X144088346Y-93229400D02*
X144159775Y-93157971D01*
X144159775Y-93157971D02*
X144231203Y-93015114D01*
X144231203Y-93015114D02*
X144231203Y-92586542D01*
X144231203Y-92586542D02*
X144159775Y-92443685D01*
X144159775Y-92443685D02*
X144088346Y-92372257D01*
X144088346Y-92372257D02*
X143945489Y-92300828D01*
X143945489Y-92300828D02*
X143659775Y-92300828D01*
X143659775Y-92300828D02*
X143516918Y-92372257D01*
X142159775Y-93300828D02*
X142159775Y-92515114D01*
X142159775Y-92515114D02*
X142231203Y-92372257D01*
X142231203Y-92372257D02*
X142374060Y-92300828D01*
X142374060Y-92300828D02*
X142659775Y-92300828D01*
X142659775Y-92300828D02*
X142802632Y-92372257D01*
X142159775Y-93229400D02*
X142302632Y-93300828D01*
X142302632Y-93300828D02*
X142659775Y-93300828D01*
X142659775Y-93300828D02*
X142802632Y-93229400D01*
X142802632Y-93229400D02*
X142874060Y-93086542D01*
X142874060Y-93086542D02*
X142874060Y-92943685D01*
X142874060Y-92943685D02*
X142802632Y-92800828D01*
X142802632Y-92800828D02*
X142659775Y-92729400D01*
X142659775Y-92729400D02*
X142302632Y-92729400D01*
X142302632Y-92729400D02*
X142159775Y-92657971D01*
X140802632Y-92300828D02*
X140802632Y-93300828D01*
X141445489Y-92300828D02*
X141445489Y-93086542D01*
X141445489Y-93086542D02*
X141374060Y-93229400D01*
X141374060Y-93229400D02*
X141231203Y-93300828D01*
X141231203Y-93300828D02*
X141016917Y-93300828D01*
X141016917Y-93300828D02*
X140874060Y-93229400D01*
X140874060Y-93229400D02*
X140802632Y-93157971D01*
X139445489Y-92300828D02*
X139445489Y-93515114D01*
X139445489Y-93515114D02*
X139516917Y-93657971D01*
X139516917Y-93657971D02*
X139588346Y-93729400D01*
X139588346Y-93729400D02*
X139731203Y-93800828D01*
X139731203Y-93800828D02*
X139945489Y-93800828D01*
X139945489Y-93800828D02*
X140088346Y-93729400D01*
X139445489Y-93229400D02*
X139588346Y-93300828D01*
X139588346Y-93300828D02*
X139874060Y-93300828D01*
X139874060Y-93300828D02*
X140016917Y-93229400D01*
X140016917Y-93229400D02*
X140088346Y-93157971D01*
X140088346Y-93157971D02*
X140159774Y-93015114D01*
X140159774Y-93015114D02*
X140159774Y-92586542D01*
X140159774Y-92586542D02*
X140088346Y-92443685D01*
X140088346Y-92443685D02*
X140016917Y-92372257D01*
X140016917Y-92372257D02*
X139874060Y-92300828D01*
X139874060Y-92300828D02*
X139588346Y-92300828D01*
X139588346Y-92300828D02*
X139445489Y-92372257D01*
X138731203Y-93300828D02*
X138731203Y-91800828D01*
X138088346Y-93300828D02*
X138088346Y-92515114D01*
X138088346Y-92515114D02*
X138159774Y-92372257D01*
X138159774Y-92372257D02*
X138302631Y-92300828D01*
X138302631Y-92300828D02*
X138516917Y-92300828D01*
X138516917Y-92300828D02*
X138659774Y-92372257D01*
X138659774Y-92372257D02*
X138731203Y-92443685D01*
X137588345Y-92300828D02*
X137016917Y-92300828D01*
X137374060Y-91800828D02*
X137374060Y-93086542D01*
X137374060Y-93086542D02*
X137302631Y-93229400D01*
X137302631Y-93229400D02*
X137159774Y-93300828D01*
X137159774Y-93300828D02*
X137016917Y-93300828D01*
X135945488Y-93229400D02*
X136088345Y-93300828D01*
X136088345Y-93300828D02*
X136374060Y-93300828D01*
X136374060Y-93300828D02*
X136516917Y-93229400D01*
X136516917Y-93229400D02*
X136588345Y-93086542D01*
X136588345Y-93086542D02*
X136588345Y-92515114D01*
X136588345Y-92515114D02*
X136516917Y-92372257D01*
X136516917Y-92372257D02*
X136374060Y-92300828D01*
X136374060Y-92300828D02*
X136088345Y-92300828D01*
X136088345Y-92300828D02*
X135945488Y-92372257D01*
X135945488Y-92372257D02*
X135874060Y-92515114D01*
X135874060Y-92515114D02*
X135874060Y-92657971D01*
X135874060Y-92657971D02*
X136588345Y-92800828D01*
X135231203Y-93300828D02*
X135231203Y-92300828D01*
X135231203Y-92586542D02*
X135159774Y-92443685D01*
X135159774Y-92443685D02*
X135088346Y-92372257D01*
X135088346Y-92372257D02*
X134945488Y-92300828D01*
X134945488Y-92300828D02*
X134802631Y-92300828D01*
X134302632Y-93300828D02*
X134302632Y-91800828D01*
X134302632Y-92372257D02*
X134159775Y-92300828D01*
X134159775Y-92300828D02*
X133874060Y-92300828D01*
X133874060Y-92300828D02*
X133731203Y-92372257D01*
X133731203Y-92372257D02*
X133659775Y-92443685D01*
X133659775Y-92443685D02*
X133588346Y-92586542D01*
X133588346Y-92586542D02*
X133588346Y-93015114D01*
X133588346Y-93015114D02*
X133659775Y-93157971D01*
X133659775Y-93157971D02*
X133731203Y-93229400D01*
X133731203Y-93229400D02*
X133874060Y-93300828D01*
X133874060Y-93300828D02*
X134159775Y-93300828D01*
X134159775Y-93300828D02*
X134302632Y-93229400D01*
X132731203Y-93300828D02*
X132874060Y-93229400D01*
X132874060Y-93229400D02*
X132945489Y-93157971D01*
X132945489Y-93157971D02*
X133016917Y-93015114D01*
X133016917Y-93015114D02*
X133016917Y-92586542D01*
X133016917Y-92586542D02*
X132945489Y-92443685D01*
X132945489Y-92443685D02*
X132874060Y-92372257D01*
X132874060Y-92372257D02*
X132731203Y-92300828D01*
X132731203Y-92300828D02*
X132516917Y-92300828D01*
X132516917Y-92300828D02*
X132374060Y-92372257D01*
X132374060Y-92372257D02*
X132302632Y-92443685D01*
X132302632Y-92443685D02*
X132231203Y-92586542D01*
X132231203Y-92586542D02*
X132231203Y-93015114D01*
X132231203Y-93015114D02*
X132302632Y-93157971D01*
X132302632Y-93157971D02*
X132374060Y-93229400D01*
X132374060Y-93229400D02*
X132516917Y-93300828D01*
X132516917Y-93300828D02*
X132731203Y-93300828D01*
X130945489Y-93300828D02*
X130945489Y-92515114D01*
X130945489Y-92515114D02*
X131016917Y-92372257D01*
X131016917Y-92372257D02*
X131159774Y-92300828D01*
X131159774Y-92300828D02*
X131445489Y-92300828D01*
X131445489Y-92300828D02*
X131588346Y-92372257D01*
X130945489Y-93229400D02*
X131088346Y-93300828D01*
X131088346Y-93300828D02*
X131445489Y-93300828D01*
X131445489Y-93300828D02*
X131588346Y-93229400D01*
X131588346Y-93229400D02*
X131659774Y-93086542D01*
X131659774Y-93086542D02*
X131659774Y-92943685D01*
X131659774Y-92943685D02*
X131588346Y-92800828D01*
X131588346Y-92800828D02*
X131445489Y-92729400D01*
X131445489Y-92729400D02*
X131088346Y-92729400D01*
X131088346Y-92729400D02*
X130945489Y-92657971D01*
X130231203Y-93300828D02*
X130231203Y-92300828D01*
X130231203Y-92586542D02*
X130159774Y-92443685D01*
X130159774Y-92443685D02*
X130088346Y-92372257D01*
X130088346Y-92372257D02*
X129945488Y-92300828D01*
X129945488Y-92300828D02*
X129802631Y-92300828D01*
X128659775Y-93300828D02*
X128659775Y-91800828D01*
X128659775Y-93229400D02*
X128802632Y-93300828D01*
X128802632Y-93300828D02*
X129088346Y-93300828D01*
X129088346Y-93300828D02*
X129231203Y-93229400D01*
X129231203Y-93229400D02*
X129302632Y-93157971D01*
X129302632Y-93157971D02*
X129374060Y-93015114D01*
X129374060Y-93015114D02*
X129374060Y-92586542D01*
X129374060Y-92586542D02*
X129302632Y-92443685D01*
X129302632Y-92443685D02*
X129231203Y-92372257D01*
X129231203Y-92372257D02*
X129088346Y-92300828D01*
X129088346Y-92300828D02*
X128802632Y-92300828D01*
X128802632Y-92300828D02*
X128659775Y-92372257D01*
D11*
X164881000Y-80442600D02*
G75*
G02*
X164119000Y-80442600I-381000J0D01*
G01*
X164119000Y-80442600D02*
G75*
G02*
X164881000Y-80442600I381000J0D01*
G01*
X108241402Y-115066999D02*
G75*
G02*
X107479402Y-115066999I-381000J0D01*
G01*
X107479402Y-115066999D02*
G75*
G02*
X108241402Y-115066999I381000J0D01*
G01*
D12*
X166660000Y-87580000D03*
D13*
X107459996Y-119489999D03*
D14*
X113909996Y-119489999D03*
D15*
X135500000Y-116500000D03*
D14*
X158910007Y-119489999D03*
D13*
X165360007Y-119489999D03*
%LPC*%
D16*
X159500000Y-84750000D03*
X159500000Y-82250000D03*
D17*
X114000000Y-91600000D03*
D18*
X114000000Y-76400000D03*
X142000000Y-76400000D03*
X142000000Y-84000000D03*
D16*
X147500000Y-83750000D03*
X147500000Y-81250000D03*
D19*
X164500000Y-82500000D03*
X164500000Y-85040000D03*
X164500000Y-87580000D03*
X164500000Y-90120000D03*
D20*
X122060000Y-113330000D03*
X129060003Y-113330000D03*
D21*
X147510000Y-109489998D03*
X156110003Y-109489998D03*
D22*
X131000000Y-104040000D03*
D23*
X131000000Y-98960000D03*
D24*
X115250000Y-98000000D03*
D25*
X122750000Y-104000000D03*
%LPD*%
M02*
