%TF.GenerationSoftware,KiCad,Pcbnew,8.0.5*%
%TF.CreationDate,2024-11-21T15:42:32-05:00*%
%TF.ProjectId,Power_Daughterboard,506f7765-725f-4446-9175-676874657262,rev?*%
%TF.SameCoordinates,Original*%
%TF.FileFunction,Drillmap*%
%TF.FilePolarity,Positive*%
%FSLAX45Y45*%
G04 Gerber Fmt 4.5, Leading zero omitted, Abs format (unit mm)*
G04 Created by KiCad (PCBNEW 8.0.5) date 2024-11-21 15:42:32*
%MOMM*%
%LPD*%
G01*
G04 APERTURE LIST*
%ADD10C,0.200000*%
%ADD11C,0.129540*%
%ADD12C,0.238760*%
%ADD13C,0.360000*%
G04 APERTURE END LIST*
D10*
X10450000Y-6950000D02*
X16950000Y-6950000D01*
X16950000Y-12950000D01*
X10450000Y-12950000D01*
X10450000Y-6950000D01*
D11*
X11326230Y-11884230D02*
X11455770Y-12013770D01*
X11455770Y-11884230D02*
X11326230Y-12013770D01*
X15826231Y-11884230D02*
X15955771Y-12013770D01*
X15955771Y-11884230D02*
X15826231Y-12013770D01*
X16601230Y-8693230D02*
X16730770Y-8822770D01*
X16730770Y-8693230D02*
X16601230Y-8822770D01*
D12*
X10865380Y-11949000D02*
G75*
G02*
X10626620Y-11949000I-119380J0D01*
G01*
X10626620Y-11949000D02*
G75*
G02*
X10865380Y-11949000I119380J0D01*
G01*
X16655381Y-11949000D02*
G75*
G02*
X16416621Y-11949000I-119380J0D01*
G01*
X16416621Y-11949000D02*
G75*
G02*
X16655381Y-11949000I119380J0D01*
G01*
D13*
X13550000Y-11470000D02*
X13550000Y-11830000D01*
X13370000Y-11650000D02*
X13730000Y-11650000D01*
D10*
X10700777Y-13271484D02*
X10700777Y-13071484D01*
X10700777Y-13071484D02*
X10748396Y-13071484D01*
X10748396Y-13071484D02*
X10776967Y-13081008D01*
X10776967Y-13081008D02*
X10796015Y-13100055D01*
X10796015Y-13100055D02*
X10805539Y-13119103D01*
X10805539Y-13119103D02*
X10815063Y-13157198D01*
X10815063Y-13157198D02*
X10815063Y-13185769D01*
X10815063Y-13185769D02*
X10805539Y-13223865D01*
X10805539Y-13223865D02*
X10796015Y-13242912D01*
X10796015Y-13242912D02*
X10776967Y-13261960D01*
X10776967Y-13261960D02*
X10748396Y-13271484D01*
X10748396Y-13271484D02*
X10700777Y-13271484D01*
X10900777Y-13271484D02*
X10900777Y-13138150D01*
X10900777Y-13176246D02*
X10910301Y-13157198D01*
X10910301Y-13157198D02*
X10919824Y-13147674D01*
X10919824Y-13147674D02*
X10938872Y-13138150D01*
X10938872Y-13138150D02*
X10957920Y-13138150D01*
X11024586Y-13271484D02*
X11024586Y-13138150D01*
X11024586Y-13071484D02*
X11015063Y-13081008D01*
X11015063Y-13081008D02*
X11024586Y-13090531D01*
X11024586Y-13090531D02*
X11034110Y-13081008D01*
X11034110Y-13081008D02*
X11024586Y-13071484D01*
X11024586Y-13071484D02*
X11024586Y-13090531D01*
X11148396Y-13271484D02*
X11129348Y-13261960D01*
X11129348Y-13261960D02*
X11119824Y-13242912D01*
X11119824Y-13242912D02*
X11119824Y-13071484D01*
X11253158Y-13271484D02*
X11234110Y-13261960D01*
X11234110Y-13261960D02*
X11224586Y-13242912D01*
X11224586Y-13242912D02*
X11224586Y-13071484D01*
X11481729Y-13271484D02*
X11481729Y-13071484D01*
X11481729Y-13071484D02*
X11548396Y-13214341D01*
X11548396Y-13214341D02*
X11615062Y-13071484D01*
X11615062Y-13071484D02*
X11615062Y-13271484D01*
X11796015Y-13271484D02*
X11796015Y-13166722D01*
X11796015Y-13166722D02*
X11786491Y-13147674D01*
X11786491Y-13147674D02*
X11767443Y-13138150D01*
X11767443Y-13138150D02*
X11729348Y-13138150D01*
X11729348Y-13138150D02*
X11710301Y-13147674D01*
X11796015Y-13261960D02*
X11776967Y-13271484D01*
X11776967Y-13271484D02*
X11729348Y-13271484D01*
X11729348Y-13271484D02*
X11710301Y-13261960D01*
X11710301Y-13261960D02*
X11700777Y-13242912D01*
X11700777Y-13242912D02*
X11700777Y-13223865D01*
X11700777Y-13223865D02*
X11710301Y-13204817D01*
X11710301Y-13204817D02*
X11729348Y-13195293D01*
X11729348Y-13195293D02*
X11776967Y-13195293D01*
X11776967Y-13195293D02*
X11796015Y-13185769D01*
X11891253Y-13138150D02*
X11891253Y-13338150D01*
X11891253Y-13147674D02*
X11910301Y-13138150D01*
X11910301Y-13138150D02*
X11948396Y-13138150D01*
X11948396Y-13138150D02*
X11967443Y-13147674D01*
X11967443Y-13147674D02*
X11976967Y-13157198D01*
X11976967Y-13157198D02*
X11986491Y-13176246D01*
X11986491Y-13176246D02*
X11986491Y-13233388D01*
X11986491Y-13233388D02*
X11976967Y-13252436D01*
X11976967Y-13252436D02*
X11967443Y-13261960D01*
X11967443Y-13261960D02*
X11948396Y-13271484D01*
X11948396Y-13271484D02*
X11910301Y-13271484D01*
X11910301Y-13271484D02*
X11891253Y-13261960D01*
X12072205Y-13252436D02*
X12081729Y-13261960D01*
X12081729Y-13261960D02*
X12072205Y-13271484D01*
X12072205Y-13271484D02*
X12062682Y-13261960D01*
X12062682Y-13261960D02*
X12072205Y-13252436D01*
X12072205Y-13252436D02*
X12072205Y-13271484D01*
X12072205Y-13147674D02*
X12081729Y-13157198D01*
X12081729Y-13157198D02*
X12072205Y-13166722D01*
X12072205Y-13166722D02*
X12062682Y-13157198D01*
X12062682Y-13157198D02*
X12072205Y-13147674D01*
X12072205Y-13147674D02*
X12072205Y-13166722D01*
D11*
X10310460Y-13535230D02*
X10440000Y-13664770D01*
X10440000Y-13535230D02*
X10310460Y-13664770D01*
D10*
X10805539Y-13691484D02*
X10691253Y-13691484D01*
X10748396Y-13691484D02*
X10748396Y-13491484D01*
X10748396Y-13491484D02*
X10729348Y-13520055D01*
X10729348Y-13520055D02*
X10710301Y-13539103D01*
X10710301Y-13539103D02*
X10691253Y-13548627D01*
X10891253Y-13672436D02*
X10900777Y-13681960D01*
X10900777Y-13681960D02*
X10891253Y-13691484D01*
X10891253Y-13691484D02*
X10881729Y-13681960D01*
X10881729Y-13681960D02*
X10891253Y-13672436D01*
X10891253Y-13672436D02*
X10891253Y-13691484D01*
X10976967Y-13510531D02*
X10986491Y-13501008D01*
X10986491Y-13501008D02*
X11005539Y-13491484D01*
X11005539Y-13491484D02*
X11053158Y-13491484D01*
X11053158Y-13491484D02*
X11072205Y-13501008D01*
X11072205Y-13501008D02*
X11081729Y-13510531D01*
X11081729Y-13510531D02*
X11091253Y-13529579D01*
X11091253Y-13529579D02*
X11091253Y-13548627D01*
X11091253Y-13548627D02*
X11081729Y-13577198D01*
X11081729Y-13577198D02*
X10967444Y-13691484D01*
X10967444Y-13691484D02*
X11091253Y-13691484D01*
X11186491Y-13691484D02*
X11224586Y-13691484D01*
X11224586Y-13691484D02*
X11243634Y-13681960D01*
X11243634Y-13681960D02*
X11253158Y-13672436D01*
X11253158Y-13672436D02*
X11272205Y-13643865D01*
X11272205Y-13643865D02*
X11281729Y-13605769D01*
X11281729Y-13605769D02*
X11281729Y-13529579D01*
X11281729Y-13529579D02*
X11272205Y-13510531D01*
X11272205Y-13510531D02*
X11262682Y-13501008D01*
X11262682Y-13501008D02*
X11243634Y-13491484D01*
X11243634Y-13491484D02*
X11205539Y-13491484D01*
X11205539Y-13491484D02*
X11186491Y-13501008D01*
X11186491Y-13501008D02*
X11176967Y-13510531D01*
X11176967Y-13510531D02*
X11167444Y-13529579D01*
X11167444Y-13529579D02*
X11167444Y-13577198D01*
X11167444Y-13577198D02*
X11176967Y-13596246D01*
X11176967Y-13596246D02*
X11186491Y-13605769D01*
X11186491Y-13605769D02*
X11205539Y-13615293D01*
X11205539Y-13615293D02*
X11243634Y-13615293D01*
X11243634Y-13615293D02*
X11262682Y-13605769D01*
X11262682Y-13605769D02*
X11272205Y-13596246D01*
X11272205Y-13596246D02*
X11281729Y-13577198D01*
X11462682Y-13491484D02*
X11367443Y-13491484D01*
X11367443Y-13491484D02*
X11357920Y-13586722D01*
X11357920Y-13586722D02*
X11367443Y-13577198D01*
X11367443Y-13577198D02*
X11386491Y-13567674D01*
X11386491Y-13567674D02*
X11434110Y-13567674D01*
X11434110Y-13567674D02*
X11453158Y-13577198D01*
X11453158Y-13577198D02*
X11462682Y-13586722D01*
X11462682Y-13586722D02*
X11472205Y-13605769D01*
X11472205Y-13605769D02*
X11472205Y-13653388D01*
X11472205Y-13653388D02*
X11462682Y-13672436D01*
X11462682Y-13672436D02*
X11453158Y-13681960D01*
X11453158Y-13681960D02*
X11434110Y-13691484D01*
X11434110Y-13691484D02*
X11386491Y-13691484D01*
X11386491Y-13691484D02*
X11367443Y-13681960D01*
X11367443Y-13681960D02*
X11357920Y-13672436D01*
X11557920Y-13691484D02*
X11557920Y-13558150D01*
X11557920Y-13577198D02*
X11567443Y-13567674D01*
X11567443Y-13567674D02*
X11586491Y-13558150D01*
X11586491Y-13558150D02*
X11615063Y-13558150D01*
X11615063Y-13558150D02*
X11634110Y-13567674D01*
X11634110Y-13567674D02*
X11643634Y-13586722D01*
X11643634Y-13586722D02*
X11643634Y-13691484D01*
X11643634Y-13586722D02*
X11653158Y-13567674D01*
X11653158Y-13567674D02*
X11672205Y-13558150D01*
X11672205Y-13558150D02*
X11700777Y-13558150D01*
X11700777Y-13558150D02*
X11719824Y-13567674D01*
X11719824Y-13567674D02*
X11729348Y-13586722D01*
X11729348Y-13586722D02*
X11729348Y-13691484D01*
X11824586Y-13691484D02*
X11824586Y-13558150D01*
X11824586Y-13577198D02*
X11834110Y-13567674D01*
X11834110Y-13567674D02*
X11853158Y-13558150D01*
X11853158Y-13558150D02*
X11881729Y-13558150D01*
X11881729Y-13558150D02*
X11900777Y-13567674D01*
X11900777Y-13567674D02*
X11910301Y-13586722D01*
X11910301Y-13586722D02*
X11910301Y-13691484D01*
X11910301Y-13586722D02*
X11919824Y-13567674D01*
X11919824Y-13567674D02*
X11938872Y-13558150D01*
X11938872Y-13558150D02*
X11967443Y-13558150D01*
X11967443Y-13558150D02*
X11986491Y-13567674D01*
X11986491Y-13567674D02*
X11996015Y-13586722D01*
X11996015Y-13586722D02*
X11996015Y-13691484D01*
X12386491Y-13481960D02*
X12215063Y-13739103D01*
X12643634Y-13491484D02*
X12662682Y-13491484D01*
X12662682Y-13491484D02*
X12681729Y-13501008D01*
X12681729Y-13501008D02*
X12691253Y-13510531D01*
X12691253Y-13510531D02*
X12700777Y-13529579D01*
X12700777Y-13529579D02*
X12710301Y-13567674D01*
X12710301Y-13567674D02*
X12710301Y-13615293D01*
X12710301Y-13615293D02*
X12700777Y-13653388D01*
X12700777Y-13653388D02*
X12691253Y-13672436D01*
X12691253Y-13672436D02*
X12681729Y-13681960D01*
X12681729Y-13681960D02*
X12662682Y-13691484D01*
X12662682Y-13691484D02*
X12643634Y-13691484D01*
X12643634Y-13691484D02*
X12624586Y-13681960D01*
X12624586Y-13681960D02*
X12615063Y-13672436D01*
X12615063Y-13672436D02*
X12605539Y-13653388D01*
X12605539Y-13653388D02*
X12596015Y-13615293D01*
X12596015Y-13615293D02*
X12596015Y-13567674D01*
X12596015Y-13567674D02*
X12605539Y-13529579D01*
X12605539Y-13529579D02*
X12615063Y-13510531D01*
X12615063Y-13510531D02*
X12624586Y-13501008D01*
X12624586Y-13501008D02*
X12643634Y-13491484D01*
X12796015Y-13672436D02*
X12805539Y-13681960D01*
X12805539Y-13681960D02*
X12796015Y-13691484D01*
X12796015Y-13691484D02*
X12786491Y-13681960D01*
X12786491Y-13681960D02*
X12796015Y-13672436D01*
X12796015Y-13672436D02*
X12796015Y-13691484D01*
X12929348Y-13491484D02*
X12948396Y-13491484D01*
X12948396Y-13491484D02*
X12967444Y-13501008D01*
X12967444Y-13501008D02*
X12976967Y-13510531D01*
X12976967Y-13510531D02*
X12986491Y-13529579D01*
X12986491Y-13529579D02*
X12996015Y-13567674D01*
X12996015Y-13567674D02*
X12996015Y-13615293D01*
X12996015Y-13615293D02*
X12986491Y-13653388D01*
X12986491Y-13653388D02*
X12976967Y-13672436D01*
X12976967Y-13672436D02*
X12967444Y-13681960D01*
X12967444Y-13681960D02*
X12948396Y-13691484D01*
X12948396Y-13691484D02*
X12929348Y-13691484D01*
X12929348Y-13691484D02*
X12910301Y-13681960D01*
X12910301Y-13681960D02*
X12900777Y-13672436D01*
X12900777Y-13672436D02*
X12891253Y-13653388D01*
X12891253Y-13653388D02*
X12881729Y-13615293D01*
X12881729Y-13615293D02*
X12881729Y-13567674D01*
X12881729Y-13567674D02*
X12891253Y-13529579D01*
X12891253Y-13529579D02*
X12900777Y-13510531D01*
X12900777Y-13510531D02*
X12910301Y-13501008D01*
X12910301Y-13501008D02*
X12929348Y-13491484D01*
X13176967Y-13491484D02*
X13081729Y-13491484D01*
X13081729Y-13491484D02*
X13072206Y-13586722D01*
X13072206Y-13586722D02*
X13081729Y-13577198D01*
X13081729Y-13577198D02*
X13100777Y-13567674D01*
X13100777Y-13567674D02*
X13148396Y-13567674D01*
X13148396Y-13567674D02*
X13167444Y-13577198D01*
X13167444Y-13577198D02*
X13176967Y-13586722D01*
X13176967Y-13586722D02*
X13186491Y-13605769D01*
X13186491Y-13605769D02*
X13186491Y-13653388D01*
X13186491Y-13653388D02*
X13176967Y-13672436D01*
X13176967Y-13672436D02*
X13167444Y-13681960D01*
X13167444Y-13681960D02*
X13148396Y-13691484D01*
X13148396Y-13691484D02*
X13100777Y-13691484D01*
X13100777Y-13691484D02*
X13081729Y-13681960D01*
X13081729Y-13681960D02*
X13072206Y-13672436D01*
X13376967Y-13691484D02*
X13262682Y-13691484D01*
X13319825Y-13691484D02*
X13319825Y-13491484D01*
X13319825Y-13491484D02*
X13300777Y-13520055D01*
X13300777Y-13520055D02*
X13281729Y-13539103D01*
X13281729Y-13539103D02*
X13262682Y-13548627D01*
X13500777Y-13491484D02*
X13519825Y-13491484D01*
X13519825Y-13491484D02*
X13538872Y-13501008D01*
X13538872Y-13501008D02*
X13548396Y-13510531D01*
X13548396Y-13510531D02*
X13557920Y-13529579D01*
X13557920Y-13529579D02*
X13567444Y-13567674D01*
X13567444Y-13567674D02*
X13567444Y-13615293D01*
X13567444Y-13615293D02*
X13557920Y-13653388D01*
X13557920Y-13653388D02*
X13548396Y-13672436D01*
X13548396Y-13672436D02*
X13538872Y-13681960D01*
X13538872Y-13681960D02*
X13519825Y-13691484D01*
X13519825Y-13691484D02*
X13500777Y-13691484D01*
X13500777Y-13691484D02*
X13481729Y-13681960D01*
X13481729Y-13681960D02*
X13472206Y-13672436D01*
X13472206Y-13672436D02*
X13462682Y-13653388D01*
X13462682Y-13653388D02*
X13453158Y-13615293D01*
X13453158Y-13615293D02*
X13453158Y-13567674D01*
X13453158Y-13567674D02*
X13462682Y-13529579D01*
X13462682Y-13529579D02*
X13472206Y-13510531D01*
X13472206Y-13510531D02*
X13481729Y-13501008D01*
X13481729Y-13501008D02*
X13500777Y-13491484D01*
X13643634Y-13491484D02*
X13643634Y-13529579D01*
X13719825Y-13491484D02*
X13719825Y-13529579D01*
X14015063Y-13767674D02*
X14005539Y-13758150D01*
X14005539Y-13758150D02*
X13986491Y-13729579D01*
X13986491Y-13729579D02*
X13976968Y-13710531D01*
X13976968Y-13710531D02*
X13967444Y-13681960D01*
X13967444Y-13681960D02*
X13957920Y-13634341D01*
X13957920Y-13634341D02*
X13957920Y-13596246D01*
X13957920Y-13596246D02*
X13967444Y-13548627D01*
X13967444Y-13548627D02*
X13976968Y-13520055D01*
X13976968Y-13520055D02*
X13986491Y-13501008D01*
X13986491Y-13501008D02*
X14005539Y-13472436D01*
X14005539Y-13472436D02*
X14015063Y-13462912D01*
X14072206Y-13491484D02*
X14196015Y-13491484D01*
X14196015Y-13491484D02*
X14129348Y-13567674D01*
X14129348Y-13567674D02*
X14157920Y-13567674D01*
X14157920Y-13567674D02*
X14176968Y-13577198D01*
X14176968Y-13577198D02*
X14186491Y-13586722D01*
X14186491Y-13586722D02*
X14196015Y-13605769D01*
X14196015Y-13605769D02*
X14196015Y-13653388D01*
X14196015Y-13653388D02*
X14186491Y-13672436D01*
X14186491Y-13672436D02*
X14176968Y-13681960D01*
X14176968Y-13681960D02*
X14157920Y-13691484D01*
X14157920Y-13691484D02*
X14100777Y-13691484D01*
X14100777Y-13691484D02*
X14081729Y-13681960D01*
X14081729Y-13681960D02*
X14072206Y-13672436D01*
X14434110Y-13691484D02*
X14434110Y-13491484D01*
X14519825Y-13691484D02*
X14519825Y-13586722D01*
X14519825Y-13586722D02*
X14510301Y-13567674D01*
X14510301Y-13567674D02*
X14491253Y-13558150D01*
X14491253Y-13558150D02*
X14462682Y-13558150D01*
X14462682Y-13558150D02*
X14443634Y-13567674D01*
X14443634Y-13567674D02*
X14434110Y-13577198D01*
X14643634Y-13691484D02*
X14624587Y-13681960D01*
X14624587Y-13681960D02*
X14615063Y-13672436D01*
X14615063Y-13672436D02*
X14605539Y-13653388D01*
X14605539Y-13653388D02*
X14605539Y-13596246D01*
X14605539Y-13596246D02*
X14615063Y-13577198D01*
X14615063Y-13577198D02*
X14624587Y-13567674D01*
X14624587Y-13567674D02*
X14643634Y-13558150D01*
X14643634Y-13558150D02*
X14672206Y-13558150D01*
X14672206Y-13558150D02*
X14691253Y-13567674D01*
X14691253Y-13567674D02*
X14700777Y-13577198D01*
X14700777Y-13577198D02*
X14710301Y-13596246D01*
X14710301Y-13596246D02*
X14710301Y-13653388D01*
X14710301Y-13653388D02*
X14700777Y-13672436D01*
X14700777Y-13672436D02*
X14691253Y-13681960D01*
X14691253Y-13681960D02*
X14672206Y-13691484D01*
X14672206Y-13691484D02*
X14643634Y-13691484D01*
X14824587Y-13691484D02*
X14805539Y-13681960D01*
X14805539Y-13681960D02*
X14796015Y-13662912D01*
X14796015Y-13662912D02*
X14796015Y-13491484D01*
X14976968Y-13681960D02*
X14957920Y-13691484D01*
X14957920Y-13691484D02*
X14919825Y-13691484D01*
X14919825Y-13691484D02*
X14900777Y-13681960D01*
X14900777Y-13681960D02*
X14891253Y-13662912D01*
X14891253Y-13662912D02*
X14891253Y-13586722D01*
X14891253Y-13586722D02*
X14900777Y-13567674D01*
X14900777Y-13567674D02*
X14919825Y-13558150D01*
X14919825Y-13558150D02*
X14957920Y-13558150D01*
X14957920Y-13558150D02*
X14976968Y-13567674D01*
X14976968Y-13567674D02*
X14986491Y-13586722D01*
X14986491Y-13586722D02*
X14986491Y-13605769D01*
X14986491Y-13605769D02*
X14891253Y-13624817D01*
X15062682Y-13681960D02*
X15081730Y-13691484D01*
X15081730Y-13691484D02*
X15119825Y-13691484D01*
X15119825Y-13691484D02*
X15138872Y-13681960D01*
X15138872Y-13681960D02*
X15148396Y-13662912D01*
X15148396Y-13662912D02*
X15148396Y-13653388D01*
X15148396Y-13653388D02*
X15138872Y-13634341D01*
X15138872Y-13634341D02*
X15119825Y-13624817D01*
X15119825Y-13624817D02*
X15091253Y-13624817D01*
X15091253Y-13624817D02*
X15072206Y-13615293D01*
X15072206Y-13615293D02*
X15062682Y-13596246D01*
X15062682Y-13596246D02*
X15062682Y-13586722D01*
X15062682Y-13586722D02*
X15072206Y-13567674D01*
X15072206Y-13567674D02*
X15091253Y-13558150D01*
X15091253Y-13558150D02*
X15119825Y-13558150D01*
X15119825Y-13558150D02*
X15138872Y-13567674D01*
X15215063Y-13767674D02*
X15224587Y-13758150D01*
X15224587Y-13758150D02*
X15243634Y-13729579D01*
X15243634Y-13729579D02*
X15253158Y-13710531D01*
X15253158Y-13710531D02*
X15262682Y-13681960D01*
X15262682Y-13681960D02*
X15272206Y-13634341D01*
X15272206Y-13634341D02*
X15272206Y-13596246D01*
X15272206Y-13596246D02*
X15262682Y-13548627D01*
X15262682Y-13548627D02*
X15253158Y-13520055D01*
X15253158Y-13520055D02*
X15243634Y-13501008D01*
X15243634Y-13501008D02*
X15224587Y-13472436D01*
X15224587Y-13472436D02*
X15215063Y-13462912D01*
X15576968Y-13767674D02*
X15567444Y-13758150D01*
X15567444Y-13758150D02*
X15548396Y-13729579D01*
X15548396Y-13729579D02*
X15538872Y-13710531D01*
X15538872Y-13710531D02*
X15529349Y-13681960D01*
X15529349Y-13681960D02*
X15519825Y-13634341D01*
X15519825Y-13634341D02*
X15519825Y-13596246D01*
X15519825Y-13596246D02*
X15529349Y-13548627D01*
X15529349Y-13548627D02*
X15538872Y-13520055D01*
X15538872Y-13520055D02*
X15548396Y-13501008D01*
X15548396Y-13501008D02*
X15567444Y-13472436D01*
X15567444Y-13472436D02*
X15576968Y-13462912D01*
X15653158Y-13558150D02*
X15653158Y-13691484D01*
X15653158Y-13577198D02*
X15662682Y-13567674D01*
X15662682Y-13567674D02*
X15681730Y-13558150D01*
X15681730Y-13558150D02*
X15710301Y-13558150D01*
X15710301Y-13558150D02*
X15729349Y-13567674D01*
X15729349Y-13567674D02*
X15738872Y-13586722D01*
X15738872Y-13586722D02*
X15738872Y-13691484D01*
X15862682Y-13691484D02*
X15843634Y-13681960D01*
X15843634Y-13681960D02*
X15834111Y-13672436D01*
X15834111Y-13672436D02*
X15824587Y-13653388D01*
X15824587Y-13653388D02*
X15824587Y-13596246D01*
X15824587Y-13596246D02*
X15834111Y-13577198D01*
X15834111Y-13577198D02*
X15843634Y-13567674D01*
X15843634Y-13567674D02*
X15862682Y-13558150D01*
X15862682Y-13558150D02*
X15891253Y-13558150D01*
X15891253Y-13558150D02*
X15910301Y-13567674D01*
X15910301Y-13567674D02*
X15919825Y-13577198D01*
X15919825Y-13577198D02*
X15929349Y-13596246D01*
X15929349Y-13596246D02*
X15929349Y-13653388D01*
X15929349Y-13653388D02*
X15919825Y-13672436D01*
X15919825Y-13672436D02*
X15910301Y-13681960D01*
X15910301Y-13681960D02*
X15891253Y-13691484D01*
X15891253Y-13691484D02*
X15862682Y-13691484D01*
X15986492Y-13558150D02*
X16062682Y-13558150D01*
X16015063Y-13491484D02*
X16015063Y-13662912D01*
X16015063Y-13662912D02*
X16024587Y-13681960D01*
X16024587Y-13681960D02*
X16043634Y-13691484D01*
X16043634Y-13691484D02*
X16062682Y-13691484D01*
X16281730Y-13558150D02*
X16281730Y-13758150D01*
X16281730Y-13567674D02*
X16300777Y-13558150D01*
X16300777Y-13558150D02*
X16338873Y-13558150D01*
X16338873Y-13558150D02*
X16357920Y-13567674D01*
X16357920Y-13567674D02*
X16367444Y-13577198D01*
X16367444Y-13577198D02*
X16376968Y-13596246D01*
X16376968Y-13596246D02*
X16376968Y-13653388D01*
X16376968Y-13653388D02*
X16367444Y-13672436D01*
X16367444Y-13672436D02*
X16357920Y-13681960D01*
X16357920Y-13681960D02*
X16338873Y-13691484D01*
X16338873Y-13691484D02*
X16300777Y-13691484D01*
X16300777Y-13691484D02*
X16281730Y-13681960D01*
X16491253Y-13691484D02*
X16472206Y-13681960D01*
X16472206Y-13681960D02*
X16462682Y-13662912D01*
X16462682Y-13662912D02*
X16462682Y-13491484D01*
X16653158Y-13691484D02*
X16653158Y-13586722D01*
X16653158Y-13586722D02*
X16643634Y-13567674D01*
X16643634Y-13567674D02*
X16624587Y-13558150D01*
X16624587Y-13558150D02*
X16586492Y-13558150D01*
X16586492Y-13558150D02*
X16567444Y-13567674D01*
X16653158Y-13681960D02*
X16634111Y-13691484D01*
X16634111Y-13691484D02*
X16586492Y-13691484D01*
X16586492Y-13691484D02*
X16567444Y-13681960D01*
X16567444Y-13681960D02*
X16557920Y-13662912D01*
X16557920Y-13662912D02*
X16557920Y-13643865D01*
X16557920Y-13643865D02*
X16567444Y-13624817D01*
X16567444Y-13624817D02*
X16586492Y-13615293D01*
X16586492Y-13615293D02*
X16634111Y-13615293D01*
X16634111Y-13615293D02*
X16653158Y-13605769D01*
X16719825Y-13558150D02*
X16796015Y-13558150D01*
X16748396Y-13491484D02*
X16748396Y-13662912D01*
X16748396Y-13662912D02*
X16757920Y-13681960D01*
X16757920Y-13681960D02*
X16776968Y-13691484D01*
X16776968Y-13691484D02*
X16796015Y-13691484D01*
X16938873Y-13681960D02*
X16919825Y-13691484D01*
X16919825Y-13691484D02*
X16881730Y-13691484D01*
X16881730Y-13691484D02*
X16862682Y-13681960D01*
X16862682Y-13681960D02*
X16853158Y-13662912D01*
X16853158Y-13662912D02*
X16853158Y-13586722D01*
X16853158Y-13586722D02*
X16862682Y-13567674D01*
X16862682Y-13567674D02*
X16881730Y-13558150D01*
X16881730Y-13558150D02*
X16919825Y-13558150D01*
X16919825Y-13558150D02*
X16938873Y-13567674D01*
X16938873Y-13567674D02*
X16948396Y-13586722D01*
X16948396Y-13586722D02*
X16948396Y-13605769D01*
X16948396Y-13605769D02*
X16853158Y-13624817D01*
X17119825Y-13691484D02*
X17119825Y-13491484D01*
X17119825Y-13681960D02*
X17100777Y-13691484D01*
X17100777Y-13691484D02*
X17062682Y-13691484D01*
X17062682Y-13691484D02*
X17043635Y-13681960D01*
X17043635Y-13681960D02*
X17034111Y-13672436D01*
X17034111Y-13672436D02*
X17024587Y-13653388D01*
X17024587Y-13653388D02*
X17024587Y-13596246D01*
X17024587Y-13596246D02*
X17034111Y-13577198D01*
X17034111Y-13577198D02*
X17043635Y-13567674D01*
X17043635Y-13567674D02*
X17062682Y-13558150D01*
X17062682Y-13558150D02*
X17100777Y-13558150D01*
X17100777Y-13558150D02*
X17119825Y-13567674D01*
X17196016Y-13767674D02*
X17205539Y-13758150D01*
X17205539Y-13758150D02*
X17224587Y-13729579D01*
X17224587Y-13729579D02*
X17234111Y-13710531D01*
X17234111Y-13710531D02*
X17243635Y-13681960D01*
X17243635Y-13681960D02*
X17253158Y-13634341D01*
X17253158Y-13634341D02*
X17253158Y-13596246D01*
X17253158Y-13596246D02*
X17243635Y-13548627D01*
X17243635Y-13548627D02*
X17234111Y-13520055D01*
X17234111Y-13520055D02*
X17224587Y-13501008D01*
X17224587Y-13501008D02*
X17205539Y-13472436D01*
X17205539Y-13472436D02*
X17196016Y-13462912D01*
X10440000Y-13864000D02*
G75*
G02*
X10240000Y-13864000I-100000J0D01*
G01*
X10240000Y-13864000D02*
G75*
G02*
X10440000Y-13864000I100000J0D01*
G01*
X10691253Y-13774531D02*
X10700777Y-13765008D01*
X10700777Y-13765008D02*
X10719824Y-13755484D01*
X10719824Y-13755484D02*
X10767444Y-13755484D01*
X10767444Y-13755484D02*
X10786491Y-13765008D01*
X10786491Y-13765008D02*
X10796015Y-13774531D01*
X10796015Y-13774531D02*
X10805539Y-13793579D01*
X10805539Y-13793579D02*
X10805539Y-13812627D01*
X10805539Y-13812627D02*
X10796015Y-13841198D01*
X10796015Y-13841198D02*
X10681729Y-13955484D01*
X10681729Y-13955484D02*
X10805539Y-13955484D01*
X10891253Y-13936436D02*
X10900777Y-13945960D01*
X10900777Y-13945960D02*
X10891253Y-13955484D01*
X10891253Y-13955484D02*
X10881729Y-13945960D01*
X10881729Y-13945960D02*
X10891253Y-13936436D01*
X10891253Y-13936436D02*
X10891253Y-13955484D01*
X10967444Y-13755484D02*
X11091253Y-13755484D01*
X11091253Y-13755484D02*
X11024586Y-13831674D01*
X11024586Y-13831674D02*
X11053158Y-13831674D01*
X11053158Y-13831674D02*
X11072205Y-13841198D01*
X11072205Y-13841198D02*
X11081729Y-13850722D01*
X11081729Y-13850722D02*
X11091253Y-13869769D01*
X11091253Y-13869769D02*
X11091253Y-13917388D01*
X11091253Y-13917388D02*
X11081729Y-13936436D01*
X11081729Y-13936436D02*
X11072205Y-13945960D01*
X11072205Y-13945960D02*
X11053158Y-13955484D01*
X11053158Y-13955484D02*
X10996015Y-13955484D01*
X10996015Y-13955484D02*
X10976967Y-13945960D01*
X10976967Y-13945960D02*
X10967444Y-13936436D01*
X11205539Y-13841198D02*
X11186491Y-13831674D01*
X11186491Y-13831674D02*
X11176967Y-13822150D01*
X11176967Y-13822150D02*
X11167444Y-13803103D01*
X11167444Y-13803103D02*
X11167444Y-13793579D01*
X11167444Y-13793579D02*
X11176967Y-13774531D01*
X11176967Y-13774531D02*
X11186491Y-13765008D01*
X11186491Y-13765008D02*
X11205539Y-13755484D01*
X11205539Y-13755484D02*
X11243634Y-13755484D01*
X11243634Y-13755484D02*
X11262682Y-13765008D01*
X11262682Y-13765008D02*
X11272205Y-13774531D01*
X11272205Y-13774531D02*
X11281729Y-13793579D01*
X11281729Y-13793579D02*
X11281729Y-13803103D01*
X11281729Y-13803103D02*
X11272205Y-13822150D01*
X11272205Y-13822150D02*
X11262682Y-13831674D01*
X11262682Y-13831674D02*
X11243634Y-13841198D01*
X11243634Y-13841198D02*
X11205539Y-13841198D01*
X11205539Y-13841198D02*
X11186491Y-13850722D01*
X11186491Y-13850722D02*
X11176967Y-13860246D01*
X11176967Y-13860246D02*
X11167444Y-13879293D01*
X11167444Y-13879293D02*
X11167444Y-13917388D01*
X11167444Y-13917388D02*
X11176967Y-13936436D01*
X11176967Y-13936436D02*
X11186491Y-13945960D01*
X11186491Y-13945960D02*
X11205539Y-13955484D01*
X11205539Y-13955484D02*
X11243634Y-13955484D01*
X11243634Y-13955484D02*
X11262682Y-13945960D01*
X11262682Y-13945960D02*
X11272205Y-13936436D01*
X11272205Y-13936436D02*
X11281729Y-13917388D01*
X11281729Y-13917388D02*
X11281729Y-13879293D01*
X11281729Y-13879293D02*
X11272205Y-13860246D01*
X11272205Y-13860246D02*
X11262682Y-13850722D01*
X11262682Y-13850722D02*
X11243634Y-13841198D01*
X11396015Y-13841198D02*
X11376967Y-13831674D01*
X11376967Y-13831674D02*
X11367443Y-13822150D01*
X11367443Y-13822150D02*
X11357920Y-13803103D01*
X11357920Y-13803103D02*
X11357920Y-13793579D01*
X11357920Y-13793579D02*
X11367443Y-13774531D01*
X11367443Y-13774531D02*
X11376967Y-13765008D01*
X11376967Y-13765008D02*
X11396015Y-13755484D01*
X11396015Y-13755484D02*
X11434110Y-13755484D01*
X11434110Y-13755484D02*
X11453158Y-13765008D01*
X11453158Y-13765008D02*
X11462682Y-13774531D01*
X11462682Y-13774531D02*
X11472205Y-13793579D01*
X11472205Y-13793579D02*
X11472205Y-13803103D01*
X11472205Y-13803103D02*
X11462682Y-13822150D01*
X11462682Y-13822150D02*
X11453158Y-13831674D01*
X11453158Y-13831674D02*
X11434110Y-13841198D01*
X11434110Y-13841198D02*
X11396015Y-13841198D01*
X11396015Y-13841198D02*
X11376967Y-13850722D01*
X11376967Y-13850722D02*
X11367443Y-13860246D01*
X11367443Y-13860246D02*
X11357920Y-13879293D01*
X11357920Y-13879293D02*
X11357920Y-13917388D01*
X11357920Y-13917388D02*
X11367443Y-13936436D01*
X11367443Y-13936436D02*
X11376967Y-13945960D01*
X11376967Y-13945960D02*
X11396015Y-13955484D01*
X11396015Y-13955484D02*
X11434110Y-13955484D01*
X11434110Y-13955484D02*
X11453158Y-13945960D01*
X11453158Y-13945960D02*
X11462682Y-13936436D01*
X11462682Y-13936436D02*
X11472205Y-13917388D01*
X11472205Y-13917388D02*
X11472205Y-13879293D01*
X11472205Y-13879293D02*
X11462682Y-13860246D01*
X11462682Y-13860246D02*
X11453158Y-13850722D01*
X11453158Y-13850722D02*
X11434110Y-13841198D01*
X11557920Y-13955484D02*
X11557920Y-13822150D01*
X11557920Y-13841198D02*
X11567443Y-13831674D01*
X11567443Y-13831674D02*
X11586491Y-13822150D01*
X11586491Y-13822150D02*
X11615063Y-13822150D01*
X11615063Y-13822150D02*
X11634110Y-13831674D01*
X11634110Y-13831674D02*
X11643634Y-13850722D01*
X11643634Y-13850722D02*
X11643634Y-13955484D01*
X11643634Y-13850722D02*
X11653158Y-13831674D01*
X11653158Y-13831674D02*
X11672205Y-13822150D01*
X11672205Y-13822150D02*
X11700777Y-13822150D01*
X11700777Y-13822150D02*
X11719824Y-13831674D01*
X11719824Y-13831674D02*
X11729348Y-13850722D01*
X11729348Y-13850722D02*
X11729348Y-13955484D01*
X11824586Y-13955484D02*
X11824586Y-13822150D01*
X11824586Y-13841198D02*
X11834110Y-13831674D01*
X11834110Y-13831674D02*
X11853158Y-13822150D01*
X11853158Y-13822150D02*
X11881729Y-13822150D01*
X11881729Y-13822150D02*
X11900777Y-13831674D01*
X11900777Y-13831674D02*
X11910301Y-13850722D01*
X11910301Y-13850722D02*
X11910301Y-13955484D01*
X11910301Y-13850722D02*
X11919824Y-13831674D01*
X11919824Y-13831674D02*
X11938872Y-13822150D01*
X11938872Y-13822150D02*
X11967443Y-13822150D01*
X11967443Y-13822150D02*
X11986491Y-13831674D01*
X11986491Y-13831674D02*
X11996015Y-13850722D01*
X11996015Y-13850722D02*
X11996015Y-13955484D01*
X12386491Y-13745960D02*
X12215063Y-14003103D01*
X12643634Y-13755484D02*
X12662682Y-13755484D01*
X12662682Y-13755484D02*
X12681729Y-13765008D01*
X12681729Y-13765008D02*
X12691253Y-13774531D01*
X12691253Y-13774531D02*
X12700777Y-13793579D01*
X12700777Y-13793579D02*
X12710301Y-13831674D01*
X12710301Y-13831674D02*
X12710301Y-13879293D01*
X12710301Y-13879293D02*
X12700777Y-13917388D01*
X12700777Y-13917388D02*
X12691253Y-13936436D01*
X12691253Y-13936436D02*
X12681729Y-13945960D01*
X12681729Y-13945960D02*
X12662682Y-13955484D01*
X12662682Y-13955484D02*
X12643634Y-13955484D01*
X12643634Y-13955484D02*
X12624586Y-13945960D01*
X12624586Y-13945960D02*
X12615063Y-13936436D01*
X12615063Y-13936436D02*
X12605539Y-13917388D01*
X12605539Y-13917388D02*
X12596015Y-13879293D01*
X12596015Y-13879293D02*
X12596015Y-13831674D01*
X12596015Y-13831674D02*
X12605539Y-13793579D01*
X12605539Y-13793579D02*
X12615063Y-13774531D01*
X12615063Y-13774531D02*
X12624586Y-13765008D01*
X12624586Y-13765008D02*
X12643634Y-13755484D01*
X12796015Y-13936436D02*
X12805539Y-13945960D01*
X12805539Y-13945960D02*
X12796015Y-13955484D01*
X12796015Y-13955484D02*
X12786491Y-13945960D01*
X12786491Y-13945960D02*
X12796015Y-13936436D01*
X12796015Y-13936436D02*
X12796015Y-13955484D01*
X12929348Y-13755484D02*
X12948396Y-13755484D01*
X12948396Y-13755484D02*
X12967444Y-13765008D01*
X12967444Y-13765008D02*
X12976967Y-13774531D01*
X12976967Y-13774531D02*
X12986491Y-13793579D01*
X12986491Y-13793579D02*
X12996015Y-13831674D01*
X12996015Y-13831674D02*
X12996015Y-13879293D01*
X12996015Y-13879293D02*
X12986491Y-13917388D01*
X12986491Y-13917388D02*
X12976967Y-13936436D01*
X12976967Y-13936436D02*
X12967444Y-13945960D01*
X12967444Y-13945960D02*
X12948396Y-13955484D01*
X12948396Y-13955484D02*
X12929348Y-13955484D01*
X12929348Y-13955484D02*
X12910301Y-13945960D01*
X12910301Y-13945960D02*
X12900777Y-13936436D01*
X12900777Y-13936436D02*
X12891253Y-13917388D01*
X12891253Y-13917388D02*
X12881729Y-13879293D01*
X12881729Y-13879293D02*
X12881729Y-13831674D01*
X12881729Y-13831674D02*
X12891253Y-13793579D01*
X12891253Y-13793579D02*
X12900777Y-13774531D01*
X12900777Y-13774531D02*
X12910301Y-13765008D01*
X12910301Y-13765008D02*
X12929348Y-13755484D01*
X13091253Y-13955484D02*
X13129348Y-13955484D01*
X13129348Y-13955484D02*
X13148396Y-13945960D01*
X13148396Y-13945960D02*
X13157920Y-13936436D01*
X13157920Y-13936436D02*
X13176967Y-13907865D01*
X13176967Y-13907865D02*
X13186491Y-13869769D01*
X13186491Y-13869769D02*
X13186491Y-13793579D01*
X13186491Y-13793579D02*
X13176967Y-13774531D01*
X13176967Y-13774531D02*
X13167444Y-13765008D01*
X13167444Y-13765008D02*
X13148396Y-13755484D01*
X13148396Y-13755484D02*
X13110301Y-13755484D01*
X13110301Y-13755484D02*
X13091253Y-13765008D01*
X13091253Y-13765008D02*
X13081729Y-13774531D01*
X13081729Y-13774531D02*
X13072206Y-13793579D01*
X13072206Y-13793579D02*
X13072206Y-13841198D01*
X13072206Y-13841198D02*
X13081729Y-13860246D01*
X13081729Y-13860246D02*
X13091253Y-13869769D01*
X13091253Y-13869769D02*
X13110301Y-13879293D01*
X13110301Y-13879293D02*
X13148396Y-13879293D01*
X13148396Y-13879293D02*
X13167444Y-13869769D01*
X13167444Y-13869769D02*
X13176967Y-13860246D01*
X13176967Y-13860246D02*
X13186491Y-13841198D01*
X13357920Y-13822150D02*
X13357920Y-13955484D01*
X13310301Y-13745960D02*
X13262682Y-13888817D01*
X13262682Y-13888817D02*
X13386491Y-13888817D01*
X13500777Y-13755484D02*
X13519825Y-13755484D01*
X13519825Y-13755484D02*
X13538872Y-13765008D01*
X13538872Y-13765008D02*
X13548396Y-13774531D01*
X13548396Y-13774531D02*
X13557920Y-13793579D01*
X13557920Y-13793579D02*
X13567444Y-13831674D01*
X13567444Y-13831674D02*
X13567444Y-13879293D01*
X13567444Y-13879293D02*
X13557920Y-13917388D01*
X13557920Y-13917388D02*
X13548396Y-13936436D01*
X13548396Y-13936436D02*
X13538872Y-13945960D01*
X13538872Y-13945960D02*
X13519825Y-13955484D01*
X13519825Y-13955484D02*
X13500777Y-13955484D01*
X13500777Y-13955484D02*
X13481729Y-13945960D01*
X13481729Y-13945960D02*
X13472206Y-13936436D01*
X13472206Y-13936436D02*
X13462682Y-13917388D01*
X13462682Y-13917388D02*
X13453158Y-13879293D01*
X13453158Y-13879293D02*
X13453158Y-13831674D01*
X13453158Y-13831674D02*
X13462682Y-13793579D01*
X13462682Y-13793579D02*
X13472206Y-13774531D01*
X13472206Y-13774531D02*
X13481729Y-13765008D01*
X13481729Y-13765008D02*
X13500777Y-13755484D01*
X13643634Y-13755484D02*
X13643634Y-13793579D01*
X13719825Y-13755484D02*
X13719825Y-13793579D01*
X14015063Y-14031674D02*
X14005539Y-14022150D01*
X14005539Y-14022150D02*
X13986491Y-13993579D01*
X13986491Y-13993579D02*
X13976968Y-13974531D01*
X13976968Y-13974531D02*
X13967444Y-13945960D01*
X13967444Y-13945960D02*
X13957920Y-13898341D01*
X13957920Y-13898341D02*
X13957920Y-13860246D01*
X13957920Y-13860246D02*
X13967444Y-13812627D01*
X13967444Y-13812627D02*
X13976968Y-13784055D01*
X13976968Y-13784055D02*
X13986491Y-13765008D01*
X13986491Y-13765008D02*
X14005539Y-13736436D01*
X14005539Y-13736436D02*
X14015063Y-13726912D01*
X14081729Y-13774531D02*
X14091253Y-13765008D01*
X14091253Y-13765008D02*
X14110301Y-13755484D01*
X14110301Y-13755484D02*
X14157920Y-13755484D01*
X14157920Y-13755484D02*
X14176968Y-13765008D01*
X14176968Y-13765008D02*
X14186491Y-13774531D01*
X14186491Y-13774531D02*
X14196015Y-13793579D01*
X14196015Y-13793579D02*
X14196015Y-13812627D01*
X14196015Y-13812627D02*
X14186491Y-13841198D01*
X14186491Y-13841198D02*
X14072206Y-13955484D01*
X14072206Y-13955484D02*
X14196015Y-13955484D01*
X14434110Y-13955484D02*
X14434110Y-13755484D01*
X14519825Y-13955484D02*
X14519825Y-13850722D01*
X14519825Y-13850722D02*
X14510301Y-13831674D01*
X14510301Y-13831674D02*
X14491253Y-13822150D01*
X14491253Y-13822150D02*
X14462682Y-13822150D01*
X14462682Y-13822150D02*
X14443634Y-13831674D01*
X14443634Y-13831674D02*
X14434110Y-13841198D01*
X14643634Y-13955484D02*
X14624587Y-13945960D01*
X14624587Y-13945960D02*
X14615063Y-13936436D01*
X14615063Y-13936436D02*
X14605539Y-13917388D01*
X14605539Y-13917388D02*
X14605539Y-13860246D01*
X14605539Y-13860246D02*
X14615063Y-13841198D01*
X14615063Y-13841198D02*
X14624587Y-13831674D01*
X14624587Y-13831674D02*
X14643634Y-13822150D01*
X14643634Y-13822150D02*
X14672206Y-13822150D01*
X14672206Y-13822150D02*
X14691253Y-13831674D01*
X14691253Y-13831674D02*
X14700777Y-13841198D01*
X14700777Y-13841198D02*
X14710301Y-13860246D01*
X14710301Y-13860246D02*
X14710301Y-13917388D01*
X14710301Y-13917388D02*
X14700777Y-13936436D01*
X14700777Y-13936436D02*
X14691253Y-13945960D01*
X14691253Y-13945960D02*
X14672206Y-13955484D01*
X14672206Y-13955484D02*
X14643634Y-13955484D01*
X14824587Y-13955484D02*
X14805539Y-13945960D01*
X14805539Y-13945960D02*
X14796015Y-13926912D01*
X14796015Y-13926912D02*
X14796015Y-13755484D01*
X14976968Y-13945960D02*
X14957920Y-13955484D01*
X14957920Y-13955484D02*
X14919825Y-13955484D01*
X14919825Y-13955484D02*
X14900777Y-13945960D01*
X14900777Y-13945960D02*
X14891253Y-13926912D01*
X14891253Y-13926912D02*
X14891253Y-13850722D01*
X14891253Y-13850722D02*
X14900777Y-13831674D01*
X14900777Y-13831674D02*
X14919825Y-13822150D01*
X14919825Y-13822150D02*
X14957920Y-13822150D01*
X14957920Y-13822150D02*
X14976968Y-13831674D01*
X14976968Y-13831674D02*
X14986491Y-13850722D01*
X14986491Y-13850722D02*
X14986491Y-13869769D01*
X14986491Y-13869769D02*
X14891253Y-13888817D01*
X15062682Y-13945960D02*
X15081730Y-13955484D01*
X15081730Y-13955484D02*
X15119825Y-13955484D01*
X15119825Y-13955484D02*
X15138872Y-13945960D01*
X15138872Y-13945960D02*
X15148396Y-13926912D01*
X15148396Y-13926912D02*
X15148396Y-13917388D01*
X15148396Y-13917388D02*
X15138872Y-13898341D01*
X15138872Y-13898341D02*
X15119825Y-13888817D01*
X15119825Y-13888817D02*
X15091253Y-13888817D01*
X15091253Y-13888817D02*
X15072206Y-13879293D01*
X15072206Y-13879293D02*
X15062682Y-13860246D01*
X15062682Y-13860246D02*
X15062682Y-13850722D01*
X15062682Y-13850722D02*
X15072206Y-13831674D01*
X15072206Y-13831674D02*
X15091253Y-13822150D01*
X15091253Y-13822150D02*
X15119825Y-13822150D01*
X15119825Y-13822150D02*
X15138872Y-13831674D01*
X15215063Y-14031674D02*
X15224587Y-14022150D01*
X15224587Y-14022150D02*
X15243634Y-13993579D01*
X15243634Y-13993579D02*
X15253158Y-13974531D01*
X15253158Y-13974531D02*
X15262682Y-13945960D01*
X15262682Y-13945960D02*
X15272206Y-13898341D01*
X15272206Y-13898341D02*
X15272206Y-13860246D01*
X15272206Y-13860246D02*
X15262682Y-13812627D01*
X15262682Y-13812627D02*
X15253158Y-13784055D01*
X15253158Y-13784055D02*
X15243634Y-13765008D01*
X15243634Y-13765008D02*
X15224587Y-13736436D01*
X15224587Y-13736436D02*
X15215063Y-13726912D01*
X15576968Y-14031674D02*
X15567444Y-14022150D01*
X15567444Y-14022150D02*
X15548396Y-13993579D01*
X15548396Y-13993579D02*
X15538872Y-13974531D01*
X15538872Y-13974531D02*
X15529349Y-13945960D01*
X15529349Y-13945960D02*
X15519825Y-13898341D01*
X15519825Y-13898341D02*
X15519825Y-13860246D01*
X15519825Y-13860246D02*
X15529349Y-13812627D01*
X15529349Y-13812627D02*
X15538872Y-13784055D01*
X15538872Y-13784055D02*
X15548396Y-13765008D01*
X15548396Y-13765008D02*
X15567444Y-13736436D01*
X15567444Y-13736436D02*
X15576968Y-13726912D01*
X15653158Y-13822150D02*
X15653158Y-13955484D01*
X15653158Y-13841198D02*
X15662682Y-13831674D01*
X15662682Y-13831674D02*
X15681730Y-13822150D01*
X15681730Y-13822150D02*
X15710301Y-13822150D01*
X15710301Y-13822150D02*
X15729349Y-13831674D01*
X15729349Y-13831674D02*
X15738872Y-13850722D01*
X15738872Y-13850722D02*
X15738872Y-13955484D01*
X15862682Y-13955484D02*
X15843634Y-13945960D01*
X15843634Y-13945960D02*
X15834111Y-13936436D01*
X15834111Y-13936436D02*
X15824587Y-13917388D01*
X15824587Y-13917388D02*
X15824587Y-13860246D01*
X15824587Y-13860246D02*
X15834111Y-13841198D01*
X15834111Y-13841198D02*
X15843634Y-13831674D01*
X15843634Y-13831674D02*
X15862682Y-13822150D01*
X15862682Y-13822150D02*
X15891253Y-13822150D01*
X15891253Y-13822150D02*
X15910301Y-13831674D01*
X15910301Y-13831674D02*
X15919825Y-13841198D01*
X15919825Y-13841198D02*
X15929349Y-13860246D01*
X15929349Y-13860246D02*
X15929349Y-13917388D01*
X15929349Y-13917388D02*
X15919825Y-13936436D01*
X15919825Y-13936436D02*
X15910301Y-13945960D01*
X15910301Y-13945960D02*
X15891253Y-13955484D01*
X15891253Y-13955484D02*
X15862682Y-13955484D01*
X15986492Y-13822150D02*
X16062682Y-13822150D01*
X16015063Y-13755484D02*
X16015063Y-13926912D01*
X16015063Y-13926912D02*
X16024587Y-13945960D01*
X16024587Y-13945960D02*
X16043634Y-13955484D01*
X16043634Y-13955484D02*
X16062682Y-13955484D01*
X16281730Y-13822150D02*
X16281730Y-14022150D01*
X16281730Y-13831674D02*
X16300777Y-13822150D01*
X16300777Y-13822150D02*
X16338873Y-13822150D01*
X16338873Y-13822150D02*
X16357920Y-13831674D01*
X16357920Y-13831674D02*
X16367444Y-13841198D01*
X16367444Y-13841198D02*
X16376968Y-13860246D01*
X16376968Y-13860246D02*
X16376968Y-13917388D01*
X16376968Y-13917388D02*
X16367444Y-13936436D01*
X16367444Y-13936436D02*
X16357920Y-13945960D01*
X16357920Y-13945960D02*
X16338873Y-13955484D01*
X16338873Y-13955484D02*
X16300777Y-13955484D01*
X16300777Y-13955484D02*
X16281730Y-13945960D01*
X16491253Y-13955484D02*
X16472206Y-13945960D01*
X16472206Y-13945960D02*
X16462682Y-13926912D01*
X16462682Y-13926912D02*
X16462682Y-13755484D01*
X16653158Y-13955484D02*
X16653158Y-13850722D01*
X16653158Y-13850722D02*
X16643634Y-13831674D01*
X16643634Y-13831674D02*
X16624587Y-13822150D01*
X16624587Y-13822150D02*
X16586492Y-13822150D01*
X16586492Y-13822150D02*
X16567444Y-13831674D01*
X16653158Y-13945960D02*
X16634111Y-13955484D01*
X16634111Y-13955484D02*
X16586492Y-13955484D01*
X16586492Y-13955484D02*
X16567444Y-13945960D01*
X16567444Y-13945960D02*
X16557920Y-13926912D01*
X16557920Y-13926912D02*
X16557920Y-13907865D01*
X16557920Y-13907865D02*
X16567444Y-13888817D01*
X16567444Y-13888817D02*
X16586492Y-13879293D01*
X16586492Y-13879293D02*
X16634111Y-13879293D01*
X16634111Y-13879293D02*
X16653158Y-13869769D01*
X16719825Y-13822150D02*
X16796015Y-13822150D01*
X16748396Y-13755484D02*
X16748396Y-13926912D01*
X16748396Y-13926912D02*
X16757920Y-13945960D01*
X16757920Y-13945960D02*
X16776968Y-13955484D01*
X16776968Y-13955484D02*
X16796015Y-13955484D01*
X16938873Y-13945960D02*
X16919825Y-13955484D01*
X16919825Y-13955484D02*
X16881730Y-13955484D01*
X16881730Y-13955484D02*
X16862682Y-13945960D01*
X16862682Y-13945960D02*
X16853158Y-13926912D01*
X16853158Y-13926912D02*
X16853158Y-13850722D01*
X16853158Y-13850722D02*
X16862682Y-13831674D01*
X16862682Y-13831674D02*
X16881730Y-13822150D01*
X16881730Y-13822150D02*
X16919825Y-13822150D01*
X16919825Y-13822150D02*
X16938873Y-13831674D01*
X16938873Y-13831674D02*
X16948396Y-13850722D01*
X16948396Y-13850722D02*
X16948396Y-13869769D01*
X16948396Y-13869769D02*
X16853158Y-13888817D01*
X17119825Y-13955484D02*
X17119825Y-13755484D01*
X17119825Y-13945960D02*
X17100777Y-13955484D01*
X17100777Y-13955484D02*
X17062682Y-13955484D01*
X17062682Y-13955484D02*
X17043635Y-13945960D01*
X17043635Y-13945960D02*
X17034111Y-13936436D01*
X17034111Y-13936436D02*
X17024587Y-13917388D01*
X17024587Y-13917388D02*
X17024587Y-13860246D01*
X17024587Y-13860246D02*
X17034111Y-13841198D01*
X17034111Y-13841198D02*
X17043635Y-13831674D01*
X17043635Y-13831674D02*
X17062682Y-13822150D01*
X17062682Y-13822150D02*
X17100777Y-13822150D01*
X17100777Y-13822150D02*
X17119825Y-13831674D01*
X17196016Y-14031674D02*
X17205539Y-14022150D01*
X17205539Y-14022150D02*
X17224587Y-13993579D01*
X17224587Y-13993579D02*
X17234111Y-13974531D01*
X17234111Y-13974531D02*
X17243635Y-13945960D01*
X17243635Y-13945960D02*
X17253158Y-13898341D01*
X17253158Y-13898341D02*
X17253158Y-13860246D01*
X17253158Y-13860246D02*
X17243635Y-13812627D01*
X17243635Y-13812627D02*
X17234111Y-13784055D01*
X17234111Y-13784055D02*
X17224587Y-13765008D01*
X17224587Y-13765008D02*
X17205539Y-13736436D01*
X17205539Y-13736436D02*
X17196016Y-13726912D01*
X10340000Y-14084000D02*
X10340000Y-14284000D01*
X10240000Y-14184000D02*
X10440000Y-14184000D01*
X10681729Y-14075484D02*
X10805539Y-14075484D01*
X10805539Y-14075484D02*
X10738872Y-14151674D01*
X10738872Y-14151674D02*
X10767444Y-14151674D01*
X10767444Y-14151674D02*
X10786491Y-14161198D01*
X10786491Y-14161198D02*
X10796015Y-14170722D01*
X10796015Y-14170722D02*
X10805539Y-14189769D01*
X10805539Y-14189769D02*
X10805539Y-14237388D01*
X10805539Y-14237388D02*
X10796015Y-14256436D01*
X10796015Y-14256436D02*
X10786491Y-14265960D01*
X10786491Y-14265960D02*
X10767444Y-14275484D01*
X10767444Y-14275484D02*
X10710301Y-14275484D01*
X10710301Y-14275484D02*
X10691253Y-14265960D01*
X10691253Y-14265960D02*
X10681729Y-14256436D01*
X10891253Y-14256436D02*
X10900777Y-14265960D01*
X10900777Y-14265960D02*
X10891253Y-14275484D01*
X10891253Y-14275484D02*
X10881729Y-14265960D01*
X10881729Y-14265960D02*
X10891253Y-14256436D01*
X10891253Y-14256436D02*
X10891253Y-14275484D01*
X11072205Y-14075484D02*
X11034110Y-14075484D01*
X11034110Y-14075484D02*
X11015063Y-14085008D01*
X11015063Y-14085008D02*
X11005539Y-14094531D01*
X11005539Y-14094531D02*
X10986491Y-14123103D01*
X10986491Y-14123103D02*
X10976967Y-14161198D01*
X10976967Y-14161198D02*
X10976967Y-14237388D01*
X10976967Y-14237388D02*
X10986491Y-14256436D01*
X10986491Y-14256436D02*
X10996015Y-14265960D01*
X10996015Y-14265960D02*
X11015063Y-14275484D01*
X11015063Y-14275484D02*
X11053158Y-14275484D01*
X11053158Y-14275484D02*
X11072205Y-14265960D01*
X11072205Y-14265960D02*
X11081729Y-14256436D01*
X11081729Y-14256436D02*
X11091253Y-14237388D01*
X11091253Y-14237388D02*
X11091253Y-14189769D01*
X11091253Y-14189769D02*
X11081729Y-14170722D01*
X11081729Y-14170722D02*
X11072205Y-14161198D01*
X11072205Y-14161198D02*
X11053158Y-14151674D01*
X11053158Y-14151674D02*
X11015063Y-14151674D01*
X11015063Y-14151674D02*
X10996015Y-14161198D01*
X10996015Y-14161198D02*
X10986491Y-14170722D01*
X10986491Y-14170722D02*
X10976967Y-14189769D01*
X11215062Y-14075484D02*
X11234110Y-14075484D01*
X11234110Y-14075484D02*
X11253158Y-14085008D01*
X11253158Y-14085008D02*
X11262682Y-14094531D01*
X11262682Y-14094531D02*
X11272205Y-14113579D01*
X11272205Y-14113579D02*
X11281729Y-14151674D01*
X11281729Y-14151674D02*
X11281729Y-14199293D01*
X11281729Y-14199293D02*
X11272205Y-14237388D01*
X11272205Y-14237388D02*
X11262682Y-14256436D01*
X11262682Y-14256436D02*
X11253158Y-14265960D01*
X11253158Y-14265960D02*
X11234110Y-14275484D01*
X11234110Y-14275484D02*
X11215062Y-14275484D01*
X11215062Y-14275484D02*
X11196015Y-14265960D01*
X11196015Y-14265960D02*
X11186491Y-14256436D01*
X11186491Y-14256436D02*
X11176967Y-14237388D01*
X11176967Y-14237388D02*
X11167444Y-14199293D01*
X11167444Y-14199293D02*
X11167444Y-14151674D01*
X11167444Y-14151674D02*
X11176967Y-14113579D01*
X11176967Y-14113579D02*
X11186491Y-14094531D01*
X11186491Y-14094531D02*
X11196015Y-14085008D01*
X11196015Y-14085008D02*
X11215062Y-14075484D01*
X11405539Y-14075484D02*
X11424586Y-14075484D01*
X11424586Y-14075484D02*
X11443634Y-14085008D01*
X11443634Y-14085008D02*
X11453158Y-14094531D01*
X11453158Y-14094531D02*
X11462682Y-14113579D01*
X11462682Y-14113579D02*
X11472205Y-14151674D01*
X11472205Y-14151674D02*
X11472205Y-14199293D01*
X11472205Y-14199293D02*
X11462682Y-14237388D01*
X11462682Y-14237388D02*
X11453158Y-14256436D01*
X11453158Y-14256436D02*
X11443634Y-14265960D01*
X11443634Y-14265960D02*
X11424586Y-14275484D01*
X11424586Y-14275484D02*
X11405539Y-14275484D01*
X11405539Y-14275484D02*
X11386491Y-14265960D01*
X11386491Y-14265960D02*
X11376967Y-14256436D01*
X11376967Y-14256436D02*
X11367443Y-14237388D01*
X11367443Y-14237388D02*
X11357920Y-14199293D01*
X11357920Y-14199293D02*
X11357920Y-14151674D01*
X11357920Y-14151674D02*
X11367443Y-14113579D01*
X11367443Y-14113579D02*
X11376967Y-14094531D01*
X11376967Y-14094531D02*
X11386491Y-14085008D01*
X11386491Y-14085008D02*
X11405539Y-14075484D01*
X11557920Y-14275484D02*
X11557920Y-14142150D01*
X11557920Y-14161198D02*
X11567443Y-14151674D01*
X11567443Y-14151674D02*
X11586491Y-14142150D01*
X11586491Y-14142150D02*
X11615063Y-14142150D01*
X11615063Y-14142150D02*
X11634110Y-14151674D01*
X11634110Y-14151674D02*
X11643634Y-14170722D01*
X11643634Y-14170722D02*
X11643634Y-14275484D01*
X11643634Y-14170722D02*
X11653158Y-14151674D01*
X11653158Y-14151674D02*
X11672205Y-14142150D01*
X11672205Y-14142150D02*
X11700777Y-14142150D01*
X11700777Y-14142150D02*
X11719824Y-14151674D01*
X11719824Y-14151674D02*
X11729348Y-14170722D01*
X11729348Y-14170722D02*
X11729348Y-14275484D01*
X11824586Y-14275484D02*
X11824586Y-14142150D01*
X11824586Y-14161198D02*
X11834110Y-14151674D01*
X11834110Y-14151674D02*
X11853158Y-14142150D01*
X11853158Y-14142150D02*
X11881729Y-14142150D01*
X11881729Y-14142150D02*
X11900777Y-14151674D01*
X11900777Y-14151674D02*
X11910301Y-14170722D01*
X11910301Y-14170722D02*
X11910301Y-14275484D01*
X11910301Y-14170722D02*
X11919824Y-14151674D01*
X11919824Y-14151674D02*
X11938872Y-14142150D01*
X11938872Y-14142150D02*
X11967443Y-14142150D01*
X11967443Y-14142150D02*
X11986491Y-14151674D01*
X11986491Y-14151674D02*
X11996015Y-14170722D01*
X11996015Y-14170722D02*
X11996015Y-14275484D01*
X12386491Y-14065960D02*
X12215063Y-14323103D01*
X12643634Y-14075484D02*
X12662682Y-14075484D01*
X12662682Y-14075484D02*
X12681729Y-14085008D01*
X12681729Y-14085008D02*
X12691253Y-14094531D01*
X12691253Y-14094531D02*
X12700777Y-14113579D01*
X12700777Y-14113579D02*
X12710301Y-14151674D01*
X12710301Y-14151674D02*
X12710301Y-14199293D01*
X12710301Y-14199293D02*
X12700777Y-14237388D01*
X12700777Y-14237388D02*
X12691253Y-14256436D01*
X12691253Y-14256436D02*
X12681729Y-14265960D01*
X12681729Y-14265960D02*
X12662682Y-14275484D01*
X12662682Y-14275484D02*
X12643634Y-14275484D01*
X12643634Y-14275484D02*
X12624586Y-14265960D01*
X12624586Y-14265960D02*
X12615063Y-14256436D01*
X12615063Y-14256436D02*
X12605539Y-14237388D01*
X12605539Y-14237388D02*
X12596015Y-14199293D01*
X12596015Y-14199293D02*
X12596015Y-14151674D01*
X12596015Y-14151674D02*
X12605539Y-14113579D01*
X12605539Y-14113579D02*
X12615063Y-14094531D01*
X12615063Y-14094531D02*
X12624586Y-14085008D01*
X12624586Y-14085008D02*
X12643634Y-14075484D01*
X12796015Y-14256436D02*
X12805539Y-14265960D01*
X12805539Y-14265960D02*
X12796015Y-14275484D01*
X12796015Y-14275484D02*
X12786491Y-14265960D01*
X12786491Y-14265960D02*
X12796015Y-14256436D01*
X12796015Y-14256436D02*
X12796015Y-14275484D01*
X12996015Y-14275484D02*
X12881729Y-14275484D01*
X12938872Y-14275484D02*
X12938872Y-14075484D01*
X12938872Y-14075484D02*
X12919825Y-14104055D01*
X12919825Y-14104055D02*
X12900777Y-14123103D01*
X12900777Y-14123103D02*
X12881729Y-14132627D01*
X13167444Y-14142150D02*
X13167444Y-14275484D01*
X13119825Y-14065960D02*
X13072206Y-14208817D01*
X13072206Y-14208817D02*
X13196015Y-14208817D01*
X13376967Y-14275484D02*
X13262682Y-14275484D01*
X13319825Y-14275484D02*
X13319825Y-14075484D01*
X13319825Y-14075484D02*
X13300777Y-14104055D01*
X13300777Y-14104055D02*
X13281729Y-14123103D01*
X13281729Y-14123103D02*
X13262682Y-14132627D01*
X13443634Y-14075484D02*
X13576967Y-14075484D01*
X13576967Y-14075484D02*
X13491253Y-14275484D01*
X13643634Y-14075484D02*
X13643634Y-14113579D01*
X13719825Y-14075484D02*
X13719825Y-14113579D01*
X14015063Y-14351674D02*
X14005539Y-14342150D01*
X14005539Y-14342150D02*
X13986491Y-14313579D01*
X13986491Y-14313579D02*
X13976968Y-14294531D01*
X13976968Y-14294531D02*
X13967444Y-14265960D01*
X13967444Y-14265960D02*
X13957920Y-14218341D01*
X13957920Y-14218341D02*
X13957920Y-14180246D01*
X13957920Y-14180246D02*
X13967444Y-14132627D01*
X13967444Y-14132627D02*
X13976968Y-14104055D01*
X13976968Y-14104055D02*
X13986491Y-14085008D01*
X13986491Y-14085008D02*
X14005539Y-14056436D01*
X14005539Y-14056436D02*
X14015063Y-14046912D01*
X14196015Y-14275484D02*
X14081729Y-14275484D01*
X14138872Y-14275484D02*
X14138872Y-14075484D01*
X14138872Y-14075484D02*
X14119825Y-14104055D01*
X14119825Y-14104055D02*
X14100777Y-14123103D01*
X14100777Y-14123103D02*
X14081729Y-14132627D01*
X14434110Y-14275484D02*
X14434110Y-14075484D01*
X14519825Y-14275484D02*
X14519825Y-14170722D01*
X14519825Y-14170722D02*
X14510301Y-14151674D01*
X14510301Y-14151674D02*
X14491253Y-14142150D01*
X14491253Y-14142150D02*
X14462682Y-14142150D01*
X14462682Y-14142150D02*
X14443634Y-14151674D01*
X14443634Y-14151674D02*
X14434110Y-14161198D01*
X14643634Y-14275484D02*
X14624587Y-14265960D01*
X14624587Y-14265960D02*
X14615063Y-14256436D01*
X14615063Y-14256436D02*
X14605539Y-14237388D01*
X14605539Y-14237388D02*
X14605539Y-14180246D01*
X14605539Y-14180246D02*
X14615063Y-14161198D01*
X14615063Y-14161198D02*
X14624587Y-14151674D01*
X14624587Y-14151674D02*
X14643634Y-14142150D01*
X14643634Y-14142150D02*
X14672206Y-14142150D01*
X14672206Y-14142150D02*
X14691253Y-14151674D01*
X14691253Y-14151674D02*
X14700777Y-14161198D01*
X14700777Y-14161198D02*
X14710301Y-14180246D01*
X14710301Y-14180246D02*
X14710301Y-14237388D01*
X14710301Y-14237388D02*
X14700777Y-14256436D01*
X14700777Y-14256436D02*
X14691253Y-14265960D01*
X14691253Y-14265960D02*
X14672206Y-14275484D01*
X14672206Y-14275484D02*
X14643634Y-14275484D01*
X14824587Y-14275484D02*
X14805539Y-14265960D01*
X14805539Y-14265960D02*
X14796015Y-14246912D01*
X14796015Y-14246912D02*
X14796015Y-14075484D01*
X14976968Y-14265960D02*
X14957920Y-14275484D01*
X14957920Y-14275484D02*
X14919825Y-14275484D01*
X14919825Y-14275484D02*
X14900777Y-14265960D01*
X14900777Y-14265960D02*
X14891253Y-14246912D01*
X14891253Y-14246912D02*
X14891253Y-14170722D01*
X14891253Y-14170722D02*
X14900777Y-14151674D01*
X14900777Y-14151674D02*
X14919825Y-14142150D01*
X14919825Y-14142150D02*
X14957920Y-14142150D01*
X14957920Y-14142150D02*
X14976968Y-14151674D01*
X14976968Y-14151674D02*
X14986491Y-14170722D01*
X14986491Y-14170722D02*
X14986491Y-14189769D01*
X14986491Y-14189769D02*
X14891253Y-14208817D01*
X15053158Y-14351674D02*
X15062682Y-14342150D01*
X15062682Y-14342150D02*
X15081730Y-14313579D01*
X15081730Y-14313579D02*
X15091253Y-14294531D01*
X15091253Y-14294531D02*
X15100777Y-14265960D01*
X15100777Y-14265960D02*
X15110301Y-14218341D01*
X15110301Y-14218341D02*
X15110301Y-14180246D01*
X15110301Y-14180246D02*
X15100777Y-14132627D01*
X15100777Y-14132627D02*
X15091253Y-14104055D01*
X15091253Y-14104055D02*
X15081730Y-14085008D01*
X15081730Y-14085008D02*
X15062682Y-14056436D01*
X15062682Y-14056436D02*
X15053158Y-14046912D01*
X15415063Y-14351674D02*
X15405539Y-14342150D01*
X15405539Y-14342150D02*
X15386491Y-14313579D01*
X15386491Y-14313579D02*
X15376968Y-14294531D01*
X15376968Y-14294531D02*
X15367444Y-14265960D01*
X15367444Y-14265960D02*
X15357920Y-14218341D01*
X15357920Y-14218341D02*
X15357920Y-14180246D01*
X15357920Y-14180246D02*
X15367444Y-14132627D01*
X15367444Y-14132627D02*
X15376968Y-14104055D01*
X15376968Y-14104055D02*
X15386491Y-14085008D01*
X15386491Y-14085008D02*
X15405539Y-14056436D01*
X15405539Y-14056436D02*
X15415063Y-14046912D01*
X15491253Y-14142150D02*
X15491253Y-14275484D01*
X15491253Y-14161198D02*
X15500777Y-14151674D01*
X15500777Y-14151674D02*
X15519825Y-14142150D01*
X15519825Y-14142150D02*
X15548396Y-14142150D01*
X15548396Y-14142150D02*
X15567444Y-14151674D01*
X15567444Y-14151674D02*
X15576968Y-14170722D01*
X15576968Y-14170722D02*
X15576968Y-14275484D01*
X15700777Y-14275484D02*
X15681730Y-14265960D01*
X15681730Y-14265960D02*
X15672206Y-14256436D01*
X15672206Y-14256436D02*
X15662682Y-14237388D01*
X15662682Y-14237388D02*
X15662682Y-14180246D01*
X15662682Y-14180246D02*
X15672206Y-14161198D01*
X15672206Y-14161198D02*
X15681730Y-14151674D01*
X15681730Y-14151674D02*
X15700777Y-14142150D01*
X15700777Y-14142150D02*
X15729349Y-14142150D01*
X15729349Y-14142150D02*
X15748396Y-14151674D01*
X15748396Y-14151674D02*
X15757920Y-14161198D01*
X15757920Y-14161198D02*
X15767444Y-14180246D01*
X15767444Y-14180246D02*
X15767444Y-14237388D01*
X15767444Y-14237388D02*
X15757920Y-14256436D01*
X15757920Y-14256436D02*
X15748396Y-14265960D01*
X15748396Y-14265960D02*
X15729349Y-14275484D01*
X15729349Y-14275484D02*
X15700777Y-14275484D01*
X15824587Y-14142150D02*
X15900777Y-14142150D01*
X15853158Y-14075484D02*
X15853158Y-14246912D01*
X15853158Y-14246912D02*
X15862682Y-14265960D01*
X15862682Y-14265960D02*
X15881730Y-14275484D01*
X15881730Y-14275484D02*
X15900777Y-14275484D01*
X16119825Y-14142150D02*
X16119825Y-14342150D01*
X16119825Y-14151674D02*
X16138872Y-14142150D01*
X16138872Y-14142150D02*
X16176968Y-14142150D01*
X16176968Y-14142150D02*
X16196015Y-14151674D01*
X16196015Y-14151674D02*
X16205539Y-14161198D01*
X16205539Y-14161198D02*
X16215063Y-14180246D01*
X16215063Y-14180246D02*
X16215063Y-14237388D01*
X16215063Y-14237388D02*
X16205539Y-14256436D01*
X16205539Y-14256436D02*
X16196015Y-14265960D01*
X16196015Y-14265960D02*
X16176968Y-14275484D01*
X16176968Y-14275484D02*
X16138872Y-14275484D01*
X16138872Y-14275484D02*
X16119825Y-14265960D01*
X16329349Y-14275484D02*
X16310301Y-14265960D01*
X16310301Y-14265960D02*
X16300777Y-14246912D01*
X16300777Y-14246912D02*
X16300777Y-14075484D01*
X16491253Y-14275484D02*
X16491253Y-14170722D01*
X16491253Y-14170722D02*
X16481730Y-14151674D01*
X16481730Y-14151674D02*
X16462682Y-14142150D01*
X16462682Y-14142150D02*
X16424587Y-14142150D01*
X16424587Y-14142150D02*
X16405539Y-14151674D01*
X16491253Y-14265960D02*
X16472206Y-14275484D01*
X16472206Y-14275484D02*
X16424587Y-14275484D01*
X16424587Y-14275484D02*
X16405539Y-14265960D01*
X16405539Y-14265960D02*
X16396015Y-14246912D01*
X16396015Y-14246912D02*
X16396015Y-14227865D01*
X16396015Y-14227865D02*
X16405539Y-14208817D01*
X16405539Y-14208817D02*
X16424587Y-14199293D01*
X16424587Y-14199293D02*
X16472206Y-14199293D01*
X16472206Y-14199293D02*
X16491253Y-14189769D01*
X16557920Y-14142150D02*
X16634111Y-14142150D01*
X16586492Y-14075484D02*
X16586492Y-14246912D01*
X16586492Y-14246912D02*
X16596015Y-14265960D01*
X16596015Y-14265960D02*
X16615063Y-14275484D01*
X16615063Y-14275484D02*
X16634111Y-14275484D01*
X16776968Y-14265960D02*
X16757920Y-14275484D01*
X16757920Y-14275484D02*
X16719825Y-14275484D01*
X16719825Y-14275484D02*
X16700777Y-14265960D01*
X16700777Y-14265960D02*
X16691253Y-14246912D01*
X16691253Y-14246912D02*
X16691253Y-14170722D01*
X16691253Y-14170722D02*
X16700777Y-14151674D01*
X16700777Y-14151674D02*
X16719825Y-14142150D01*
X16719825Y-14142150D02*
X16757920Y-14142150D01*
X16757920Y-14142150D02*
X16776968Y-14151674D01*
X16776968Y-14151674D02*
X16786492Y-14170722D01*
X16786492Y-14170722D02*
X16786492Y-14189769D01*
X16786492Y-14189769D02*
X16691253Y-14208817D01*
X16957920Y-14275484D02*
X16957920Y-14075484D01*
X16957920Y-14265960D02*
X16938873Y-14275484D01*
X16938873Y-14275484D02*
X16900777Y-14275484D01*
X16900777Y-14275484D02*
X16881730Y-14265960D01*
X16881730Y-14265960D02*
X16872206Y-14256436D01*
X16872206Y-14256436D02*
X16862682Y-14237388D01*
X16862682Y-14237388D02*
X16862682Y-14180246D01*
X16862682Y-14180246D02*
X16872206Y-14161198D01*
X16872206Y-14161198D02*
X16881730Y-14151674D01*
X16881730Y-14151674D02*
X16900777Y-14142150D01*
X16900777Y-14142150D02*
X16938873Y-14142150D01*
X16938873Y-14142150D02*
X16957920Y-14151674D01*
X17034111Y-14351674D02*
X17043635Y-14342150D01*
X17043635Y-14342150D02*
X17062682Y-14313579D01*
X17062682Y-14313579D02*
X17072206Y-14294531D01*
X17072206Y-14294531D02*
X17081730Y-14265960D01*
X17081730Y-14265960D02*
X17091254Y-14218341D01*
X17091254Y-14218341D02*
X17091254Y-14180246D01*
X17091254Y-14180246D02*
X17081730Y-14132627D01*
X17081730Y-14132627D02*
X17072206Y-14104055D01*
X17072206Y-14104055D02*
X17062682Y-14085008D01*
X17062682Y-14085008D02*
X17043635Y-14056436D01*
X17043635Y-14056436D02*
X17034111Y-14046912D01*
M02*
