%TF.GenerationSoftware,KiCad,Pcbnew,8.0.5*%
%TF.CreationDate,2024-11-21T16:33:17-05:00*%
%TF.ProjectId,Power_Daughterboard,506f7765-725f-4446-9175-676874657262,rev?*%
%TF.SameCoordinates,Original*%
%TF.FileFunction,Drillmap*%
%TF.FilePolarity,Positive*%
%FSLAX45Y45*%
G04 Gerber Fmt 4.5, Leading zero omitted, Abs format (unit mm)*
G04 Created by KiCad (PCBNEW 8.0.5) date 2024-11-21 16:33:17*
%MOMM*%
%LPD*%
G01*
G04 APERTURE LIST*
%ADD10C,0.200000*%
%ADD11C,0.100000*%
%ADD12C,0.104140*%
%ADD13C,0.106680*%
%ADD14C,0.120000*%
G04 APERTURE END LIST*
D10*
X10450000Y-6950000D02*
X16950000Y-6950000D01*
X16950000Y-12950000D01*
X10450000Y-12950000D01*
X10450000Y-6950000D01*
D11*
X14715000Y-8090000D02*
X14785000Y-8160000D01*
X14785000Y-8090000D02*
X14715000Y-8160000D01*
X14715000Y-8340000D02*
X14785000Y-8410000D01*
X14785000Y-8340000D02*
X14715000Y-8410000D01*
X15915000Y-8190000D02*
X15985000Y-8260000D01*
X15985000Y-8190000D02*
X15915000Y-8260000D01*
X15915000Y-8440000D02*
X15985000Y-8510000D01*
X15985000Y-8440000D02*
X15915000Y-8510000D01*
X12246640Y-11333000D02*
G75*
G02*
X12165360Y-11333000I-40640J0D01*
G01*
X12165360Y-11333000D02*
G75*
G02*
X12246640Y-11333000I40640J0D01*
G01*
X12946640Y-11333000D02*
G75*
G02*
X12865360Y-11333000I-40640J0D01*
G01*
X12865360Y-11333000D02*
G75*
G02*
X12946640Y-11333000I40640J0D01*
G01*
X13100000Y-9852820D02*
X13100000Y-9939180D01*
X13056820Y-9896000D02*
X13143180Y-9896000D01*
X13100000Y-10360820D02*
X13100000Y-10447180D01*
X13056820Y-10404000D02*
X13143180Y-10404000D01*
X11560356Y-9835356D02*
X11560356Y-9764644D01*
X11489644Y-9764644D01*
X11489644Y-9835356D01*
X11560356Y-9835356D01*
X12310356Y-10435356D02*
X12310356Y-10364644D01*
X12239644Y-10364644D01*
X12239644Y-10435356D01*
X12310356Y-10435356D01*
D12*
X14751000Y-11001070D02*
X14803070Y-10949000D01*
X14751000Y-10896930D01*
X14698930Y-10949000D01*
X14751000Y-11001070D01*
X15611000Y-11001070D02*
X15663070Y-10949000D01*
X15611000Y-10896930D01*
X15558930Y-10949000D01*
X15611000Y-11001070D01*
D13*
X16396660Y-8196660D02*
X16503340Y-8303340D01*
X16503340Y-8196660D02*
X16396660Y-8303340D01*
X16503340Y-8250000D02*
G75*
G02*
X16396660Y-8250000I-53340J0D01*
G01*
X16396660Y-8250000D02*
G75*
G02*
X16503340Y-8250000I53340J0D01*
G01*
X16396660Y-8450660D02*
X16503340Y-8557340D01*
X16503340Y-8450660D02*
X16396660Y-8557340D01*
X16503340Y-8504000D02*
G75*
G02*
X16396660Y-8504000I-53340J0D01*
G01*
X16396660Y-8504000D02*
G75*
G02*
X16503340Y-8504000I53340J0D01*
G01*
X16396660Y-8704660D02*
X16503340Y-8811340D01*
X16503340Y-8704660D02*
X16396660Y-8811340D01*
X16503340Y-8758000D02*
G75*
G02*
X16396660Y-8758000I-53340J0D01*
G01*
X16396660Y-8758000D02*
G75*
G02*
X16503340Y-8758000I53340J0D01*
G01*
X16396660Y-8958660D02*
X16503340Y-9065340D01*
X16503340Y-8958660D02*
X16396660Y-9065340D01*
X16503340Y-9012000D02*
G75*
G02*
X16396660Y-9012000I-53340J0D01*
G01*
X16396660Y-9012000D02*
G75*
G02*
X16503340Y-9012000I53340J0D01*
G01*
D14*
X11340000Y-7580000D02*
X11460000Y-7700000D01*
X11460000Y-7580000D02*
X11340000Y-7700000D01*
X11400000Y-7580000D02*
X11400000Y-7700000D01*
X11340000Y-7640000D02*
X11460000Y-7640000D01*
X11340000Y-9100000D02*
X11460000Y-9220000D01*
X11460000Y-9100000D02*
X11340000Y-9220000D01*
X11400000Y-9100000D02*
X11400000Y-9220000D01*
X11340000Y-9160000D02*
X11460000Y-9160000D01*
X14140000Y-7580000D02*
X14260000Y-7700000D01*
X14260000Y-7580000D02*
X14140000Y-7700000D01*
X14200000Y-7580000D02*
X14200000Y-7700000D01*
X14140000Y-7640000D02*
X14260000Y-7640000D01*
X14140000Y-8340000D02*
X14260000Y-8460000D01*
X14260000Y-8340000D02*
X14140000Y-8460000D01*
X14200000Y-8340000D02*
X14200000Y-8460000D01*
X14140000Y-8400000D02*
X14260000Y-8400000D01*
D10*
X10700777Y-13271484D02*
X10700777Y-13071484D01*
X10700777Y-13071484D02*
X10748396Y-13071484D01*
X10748396Y-13071484D02*
X10776967Y-13081008D01*
X10776967Y-13081008D02*
X10796015Y-13100055D01*
X10796015Y-13100055D02*
X10805539Y-13119103D01*
X10805539Y-13119103D02*
X10815063Y-13157198D01*
X10815063Y-13157198D02*
X10815063Y-13185769D01*
X10815063Y-13185769D02*
X10805539Y-13223865D01*
X10805539Y-13223865D02*
X10796015Y-13242912D01*
X10796015Y-13242912D02*
X10776967Y-13261960D01*
X10776967Y-13261960D02*
X10748396Y-13271484D01*
X10748396Y-13271484D02*
X10700777Y-13271484D01*
X10900777Y-13271484D02*
X10900777Y-13138150D01*
X10900777Y-13176246D02*
X10910301Y-13157198D01*
X10910301Y-13157198D02*
X10919824Y-13147674D01*
X10919824Y-13147674D02*
X10938872Y-13138150D01*
X10938872Y-13138150D02*
X10957920Y-13138150D01*
X11024586Y-13271484D02*
X11024586Y-13138150D01*
X11024586Y-13071484D02*
X11015063Y-13081008D01*
X11015063Y-13081008D02*
X11024586Y-13090531D01*
X11024586Y-13090531D02*
X11034110Y-13081008D01*
X11034110Y-13081008D02*
X11024586Y-13071484D01*
X11024586Y-13071484D02*
X11024586Y-13090531D01*
X11148396Y-13271484D02*
X11129348Y-13261960D01*
X11129348Y-13261960D02*
X11119824Y-13242912D01*
X11119824Y-13242912D02*
X11119824Y-13071484D01*
X11253158Y-13271484D02*
X11234110Y-13261960D01*
X11234110Y-13261960D02*
X11224586Y-13242912D01*
X11224586Y-13242912D02*
X11224586Y-13071484D01*
X11481729Y-13271484D02*
X11481729Y-13071484D01*
X11481729Y-13071484D02*
X11548396Y-13214341D01*
X11548396Y-13214341D02*
X11615062Y-13071484D01*
X11615062Y-13071484D02*
X11615062Y-13271484D01*
X11796015Y-13271484D02*
X11796015Y-13166722D01*
X11796015Y-13166722D02*
X11786491Y-13147674D01*
X11786491Y-13147674D02*
X11767443Y-13138150D01*
X11767443Y-13138150D02*
X11729348Y-13138150D01*
X11729348Y-13138150D02*
X11710301Y-13147674D01*
X11796015Y-13261960D02*
X11776967Y-13271484D01*
X11776967Y-13271484D02*
X11729348Y-13271484D01*
X11729348Y-13271484D02*
X11710301Y-13261960D01*
X11710301Y-13261960D02*
X11700777Y-13242912D01*
X11700777Y-13242912D02*
X11700777Y-13223865D01*
X11700777Y-13223865D02*
X11710301Y-13204817D01*
X11710301Y-13204817D02*
X11729348Y-13195293D01*
X11729348Y-13195293D02*
X11776967Y-13195293D01*
X11776967Y-13195293D02*
X11796015Y-13185769D01*
X11891253Y-13138150D02*
X11891253Y-13338150D01*
X11891253Y-13147674D02*
X11910301Y-13138150D01*
X11910301Y-13138150D02*
X11948396Y-13138150D01*
X11948396Y-13138150D02*
X11967443Y-13147674D01*
X11967443Y-13147674D02*
X11976967Y-13157198D01*
X11976967Y-13157198D02*
X11986491Y-13176246D01*
X11986491Y-13176246D02*
X11986491Y-13233388D01*
X11986491Y-13233388D02*
X11976967Y-13252436D01*
X11976967Y-13252436D02*
X11967443Y-13261960D01*
X11967443Y-13261960D02*
X11948396Y-13271484D01*
X11948396Y-13271484D02*
X11910301Y-13271484D01*
X11910301Y-13271484D02*
X11891253Y-13261960D01*
X12072205Y-13252436D02*
X12081729Y-13261960D01*
X12081729Y-13261960D02*
X12072205Y-13271484D01*
X12072205Y-13271484D02*
X12062682Y-13261960D01*
X12062682Y-13261960D02*
X12072205Y-13252436D01*
X12072205Y-13252436D02*
X12072205Y-13271484D01*
X12072205Y-13147674D02*
X12081729Y-13157198D01*
X12081729Y-13157198D02*
X12072205Y-13166722D01*
X12072205Y-13166722D02*
X12062682Y-13157198D01*
X12062682Y-13157198D02*
X12072205Y-13147674D01*
X12072205Y-13147674D02*
X12072205Y-13166722D01*
D11*
X10370000Y-13565000D02*
X10440000Y-13635000D01*
X10440000Y-13565000D02*
X10370000Y-13635000D01*
D10*
X10738872Y-13491484D02*
X10757920Y-13491484D01*
X10757920Y-13491484D02*
X10776967Y-13501008D01*
X10776967Y-13501008D02*
X10786491Y-13510531D01*
X10786491Y-13510531D02*
X10796015Y-13529579D01*
X10796015Y-13529579D02*
X10805539Y-13567674D01*
X10805539Y-13567674D02*
X10805539Y-13615293D01*
X10805539Y-13615293D02*
X10796015Y-13653388D01*
X10796015Y-13653388D02*
X10786491Y-13672436D01*
X10786491Y-13672436D02*
X10776967Y-13681960D01*
X10776967Y-13681960D02*
X10757920Y-13691484D01*
X10757920Y-13691484D02*
X10738872Y-13691484D01*
X10738872Y-13691484D02*
X10719824Y-13681960D01*
X10719824Y-13681960D02*
X10710301Y-13672436D01*
X10710301Y-13672436D02*
X10700777Y-13653388D01*
X10700777Y-13653388D02*
X10691253Y-13615293D01*
X10691253Y-13615293D02*
X10691253Y-13567674D01*
X10691253Y-13567674D02*
X10700777Y-13529579D01*
X10700777Y-13529579D02*
X10710301Y-13510531D01*
X10710301Y-13510531D02*
X10719824Y-13501008D01*
X10719824Y-13501008D02*
X10738872Y-13491484D01*
X10891253Y-13672436D02*
X10900777Y-13681960D01*
X10900777Y-13681960D02*
X10891253Y-13691484D01*
X10891253Y-13691484D02*
X10881729Y-13681960D01*
X10881729Y-13681960D02*
X10891253Y-13672436D01*
X10891253Y-13672436D02*
X10891253Y-13691484D01*
X10967444Y-13491484D02*
X11100777Y-13491484D01*
X11100777Y-13491484D02*
X11015063Y-13691484D01*
X11215062Y-13491484D02*
X11234110Y-13491484D01*
X11234110Y-13491484D02*
X11253158Y-13501008D01*
X11253158Y-13501008D02*
X11262682Y-13510531D01*
X11262682Y-13510531D02*
X11272205Y-13529579D01*
X11272205Y-13529579D02*
X11281729Y-13567674D01*
X11281729Y-13567674D02*
X11281729Y-13615293D01*
X11281729Y-13615293D02*
X11272205Y-13653388D01*
X11272205Y-13653388D02*
X11262682Y-13672436D01*
X11262682Y-13672436D02*
X11253158Y-13681960D01*
X11253158Y-13681960D02*
X11234110Y-13691484D01*
X11234110Y-13691484D02*
X11215062Y-13691484D01*
X11215062Y-13691484D02*
X11196015Y-13681960D01*
X11196015Y-13681960D02*
X11186491Y-13672436D01*
X11186491Y-13672436D02*
X11176967Y-13653388D01*
X11176967Y-13653388D02*
X11167444Y-13615293D01*
X11167444Y-13615293D02*
X11167444Y-13567674D01*
X11167444Y-13567674D02*
X11176967Y-13529579D01*
X11176967Y-13529579D02*
X11186491Y-13510531D01*
X11186491Y-13510531D02*
X11196015Y-13501008D01*
X11196015Y-13501008D02*
X11215062Y-13491484D01*
X11405539Y-13491484D02*
X11424586Y-13491484D01*
X11424586Y-13491484D02*
X11443634Y-13501008D01*
X11443634Y-13501008D02*
X11453158Y-13510531D01*
X11453158Y-13510531D02*
X11462682Y-13529579D01*
X11462682Y-13529579D02*
X11472205Y-13567674D01*
X11472205Y-13567674D02*
X11472205Y-13615293D01*
X11472205Y-13615293D02*
X11462682Y-13653388D01*
X11462682Y-13653388D02*
X11453158Y-13672436D01*
X11453158Y-13672436D02*
X11443634Y-13681960D01*
X11443634Y-13681960D02*
X11424586Y-13691484D01*
X11424586Y-13691484D02*
X11405539Y-13691484D01*
X11405539Y-13691484D02*
X11386491Y-13681960D01*
X11386491Y-13681960D02*
X11376967Y-13672436D01*
X11376967Y-13672436D02*
X11367443Y-13653388D01*
X11367443Y-13653388D02*
X11357920Y-13615293D01*
X11357920Y-13615293D02*
X11357920Y-13567674D01*
X11357920Y-13567674D02*
X11367443Y-13529579D01*
X11367443Y-13529579D02*
X11376967Y-13510531D01*
X11376967Y-13510531D02*
X11386491Y-13501008D01*
X11386491Y-13501008D02*
X11405539Y-13491484D01*
X11557920Y-13691484D02*
X11557920Y-13558150D01*
X11557920Y-13577198D02*
X11567443Y-13567674D01*
X11567443Y-13567674D02*
X11586491Y-13558150D01*
X11586491Y-13558150D02*
X11615063Y-13558150D01*
X11615063Y-13558150D02*
X11634110Y-13567674D01*
X11634110Y-13567674D02*
X11643634Y-13586722D01*
X11643634Y-13586722D02*
X11643634Y-13691484D01*
X11643634Y-13586722D02*
X11653158Y-13567674D01*
X11653158Y-13567674D02*
X11672205Y-13558150D01*
X11672205Y-13558150D02*
X11700777Y-13558150D01*
X11700777Y-13558150D02*
X11719824Y-13567674D01*
X11719824Y-13567674D02*
X11729348Y-13586722D01*
X11729348Y-13586722D02*
X11729348Y-13691484D01*
X11824586Y-13691484D02*
X11824586Y-13558150D01*
X11824586Y-13577198D02*
X11834110Y-13567674D01*
X11834110Y-13567674D02*
X11853158Y-13558150D01*
X11853158Y-13558150D02*
X11881729Y-13558150D01*
X11881729Y-13558150D02*
X11900777Y-13567674D01*
X11900777Y-13567674D02*
X11910301Y-13586722D01*
X11910301Y-13586722D02*
X11910301Y-13691484D01*
X11910301Y-13586722D02*
X11919824Y-13567674D01*
X11919824Y-13567674D02*
X11938872Y-13558150D01*
X11938872Y-13558150D02*
X11967443Y-13558150D01*
X11967443Y-13558150D02*
X11986491Y-13567674D01*
X11986491Y-13567674D02*
X11996015Y-13586722D01*
X11996015Y-13586722D02*
X11996015Y-13691484D01*
X12386491Y-13481960D02*
X12215063Y-13739103D01*
X12643634Y-13491484D02*
X12662682Y-13491484D01*
X12662682Y-13491484D02*
X12681729Y-13501008D01*
X12681729Y-13501008D02*
X12691253Y-13510531D01*
X12691253Y-13510531D02*
X12700777Y-13529579D01*
X12700777Y-13529579D02*
X12710301Y-13567674D01*
X12710301Y-13567674D02*
X12710301Y-13615293D01*
X12710301Y-13615293D02*
X12700777Y-13653388D01*
X12700777Y-13653388D02*
X12691253Y-13672436D01*
X12691253Y-13672436D02*
X12681729Y-13681960D01*
X12681729Y-13681960D02*
X12662682Y-13691484D01*
X12662682Y-13691484D02*
X12643634Y-13691484D01*
X12643634Y-13691484D02*
X12624586Y-13681960D01*
X12624586Y-13681960D02*
X12615063Y-13672436D01*
X12615063Y-13672436D02*
X12605539Y-13653388D01*
X12605539Y-13653388D02*
X12596015Y-13615293D01*
X12596015Y-13615293D02*
X12596015Y-13567674D01*
X12596015Y-13567674D02*
X12605539Y-13529579D01*
X12605539Y-13529579D02*
X12615063Y-13510531D01*
X12615063Y-13510531D02*
X12624586Y-13501008D01*
X12624586Y-13501008D02*
X12643634Y-13491484D01*
X12796015Y-13672436D02*
X12805539Y-13681960D01*
X12805539Y-13681960D02*
X12796015Y-13691484D01*
X12796015Y-13691484D02*
X12786491Y-13681960D01*
X12786491Y-13681960D02*
X12796015Y-13672436D01*
X12796015Y-13672436D02*
X12796015Y-13691484D01*
X12929348Y-13491484D02*
X12948396Y-13491484D01*
X12948396Y-13491484D02*
X12967444Y-13501008D01*
X12967444Y-13501008D02*
X12976967Y-13510531D01*
X12976967Y-13510531D02*
X12986491Y-13529579D01*
X12986491Y-13529579D02*
X12996015Y-13567674D01*
X12996015Y-13567674D02*
X12996015Y-13615293D01*
X12996015Y-13615293D02*
X12986491Y-13653388D01*
X12986491Y-13653388D02*
X12976967Y-13672436D01*
X12976967Y-13672436D02*
X12967444Y-13681960D01*
X12967444Y-13681960D02*
X12948396Y-13691484D01*
X12948396Y-13691484D02*
X12929348Y-13691484D01*
X12929348Y-13691484D02*
X12910301Y-13681960D01*
X12910301Y-13681960D02*
X12900777Y-13672436D01*
X12900777Y-13672436D02*
X12891253Y-13653388D01*
X12891253Y-13653388D02*
X12881729Y-13615293D01*
X12881729Y-13615293D02*
X12881729Y-13567674D01*
X12881729Y-13567674D02*
X12891253Y-13529579D01*
X12891253Y-13529579D02*
X12900777Y-13510531D01*
X12900777Y-13510531D02*
X12910301Y-13501008D01*
X12910301Y-13501008D02*
X12929348Y-13491484D01*
X13072206Y-13510531D02*
X13081729Y-13501008D01*
X13081729Y-13501008D02*
X13100777Y-13491484D01*
X13100777Y-13491484D02*
X13148396Y-13491484D01*
X13148396Y-13491484D02*
X13167444Y-13501008D01*
X13167444Y-13501008D02*
X13176967Y-13510531D01*
X13176967Y-13510531D02*
X13186491Y-13529579D01*
X13186491Y-13529579D02*
X13186491Y-13548627D01*
X13186491Y-13548627D02*
X13176967Y-13577198D01*
X13176967Y-13577198D02*
X13062682Y-13691484D01*
X13062682Y-13691484D02*
X13186491Y-13691484D01*
X13253158Y-13491484D02*
X13386491Y-13491484D01*
X13386491Y-13491484D02*
X13300777Y-13691484D01*
X13548396Y-13491484D02*
X13510301Y-13491484D01*
X13510301Y-13491484D02*
X13491253Y-13501008D01*
X13491253Y-13501008D02*
X13481729Y-13510531D01*
X13481729Y-13510531D02*
X13462682Y-13539103D01*
X13462682Y-13539103D02*
X13453158Y-13577198D01*
X13453158Y-13577198D02*
X13453158Y-13653388D01*
X13453158Y-13653388D02*
X13462682Y-13672436D01*
X13462682Y-13672436D02*
X13472206Y-13681960D01*
X13472206Y-13681960D02*
X13491253Y-13691484D01*
X13491253Y-13691484D02*
X13529348Y-13691484D01*
X13529348Y-13691484D02*
X13548396Y-13681960D01*
X13548396Y-13681960D02*
X13557920Y-13672436D01*
X13557920Y-13672436D02*
X13567444Y-13653388D01*
X13567444Y-13653388D02*
X13567444Y-13605769D01*
X13567444Y-13605769D02*
X13557920Y-13586722D01*
X13557920Y-13586722D02*
X13548396Y-13577198D01*
X13548396Y-13577198D02*
X13529348Y-13567674D01*
X13529348Y-13567674D02*
X13491253Y-13567674D01*
X13491253Y-13567674D02*
X13472206Y-13577198D01*
X13472206Y-13577198D02*
X13462682Y-13586722D01*
X13462682Y-13586722D02*
X13453158Y-13605769D01*
X13643634Y-13491484D02*
X13643634Y-13529579D01*
X13719825Y-13491484D02*
X13719825Y-13529579D01*
X14015063Y-13767674D02*
X14005539Y-13758150D01*
X14005539Y-13758150D02*
X13986491Y-13729579D01*
X13986491Y-13729579D02*
X13976968Y-13710531D01*
X13976968Y-13710531D02*
X13967444Y-13681960D01*
X13967444Y-13681960D02*
X13957920Y-13634341D01*
X13957920Y-13634341D02*
X13957920Y-13596246D01*
X13957920Y-13596246D02*
X13967444Y-13548627D01*
X13967444Y-13548627D02*
X13976968Y-13520055D01*
X13976968Y-13520055D02*
X13986491Y-13501008D01*
X13986491Y-13501008D02*
X14005539Y-13472436D01*
X14005539Y-13472436D02*
X14015063Y-13462912D01*
X14176968Y-13558150D02*
X14176968Y-13691484D01*
X14129348Y-13481960D02*
X14081729Y-13624817D01*
X14081729Y-13624817D02*
X14205539Y-13624817D01*
X14434110Y-13691484D02*
X14434110Y-13491484D01*
X14519825Y-13691484D02*
X14519825Y-13586722D01*
X14519825Y-13586722D02*
X14510301Y-13567674D01*
X14510301Y-13567674D02*
X14491253Y-13558150D01*
X14491253Y-13558150D02*
X14462682Y-13558150D01*
X14462682Y-13558150D02*
X14443634Y-13567674D01*
X14443634Y-13567674D02*
X14434110Y-13577198D01*
X14643634Y-13691484D02*
X14624587Y-13681960D01*
X14624587Y-13681960D02*
X14615063Y-13672436D01*
X14615063Y-13672436D02*
X14605539Y-13653388D01*
X14605539Y-13653388D02*
X14605539Y-13596246D01*
X14605539Y-13596246D02*
X14615063Y-13577198D01*
X14615063Y-13577198D02*
X14624587Y-13567674D01*
X14624587Y-13567674D02*
X14643634Y-13558150D01*
X14643634Y-13558150D02*
X14672206Y-13558150D01*
X14672206Y-13558150D02*
X14691253Y-13567674D01*
X14691253Y-13567674D02*
X14700777Y-13577198D01*
X14700777Y-13577198D02*
X14710301Y-13596246D01*
X14710301Y-13596246D02*
X14710301Y-13653388D01*
X14710301Y-13653388D02*
X14700777Y-13672436D01*
X14700777Y-13672436D02*
X14691253Y-13681960D01*
X14691253Y-13681960D02*
X14672206Y-13691484D01*
X14672206Y-13691484D02*
X14643634Y-13691484D01*
X14824587Y-13691484D02*
X14805539Y-13681960D01*
X14805539Y-13681960D02*
X14796015Y-13662912D01*
X14796015Y-13662912D02*
X14796015Y-13491484D01*
X14976968Y-13681960D02*
X14957920Y-13691484D01*
X14957920Y-13691484D02*
X14919825Y-13691484D01*
X14919825Y-13691484D02*
X14900777Y-13681960D01*
X14900777Y-13681960D02*
X14891253Y-13662912D01*
X14891253Y-13662912D02*
X14891253Y-13586722D01*
X14891253Y-13586722D02*
X14900777Y-13567674D01*
X14900777Y-13567674D02*
X14919825Y-13558150D01*
X14919825Y-13558150D02*
X14957920Y-13558150D01*
X14957920Y-13558150D02*
X14976968Y-13567674D01*
X14976968Y-13567674D02*
X14986491Y-13586722D01*
X14986491Y-13586722D02*
X14986491Y-13605769D01*
X14986491Y-13605769D02*
X14891253Y-13624817D01*
X15062682Y-13681960D02*
X15081730Y-13691484D01*
X15081730Y-13691484D02*
X15119825Y-13691484D01*
X15119825Y-13691484D02*
X15138872Y-13681960D01*
X15138872Y-13681960D02*
X15148396Y-13662912D01*
X15148396Y-13662912D02*
X15148396Y-13653388D01*
X15148396Y-13653388D02*
X15138872Y-13634341D01*
X15138872Y-13634341D02*
X15119825Y-13624817D01*
X15119825Y-13624817D02*
X15091253Y-13624817D01*
X15091253Y-13624817D02*
X15072206Y-13615293D01*
X15072206Y-13615293D02*
X15062682Y-13596246D01*
X15062682Y-13596246D02*
X15062682Y-13586722D01*
X15062682Y-13586722D02*
X15072206Y-13567674D01*
X15072206Y-13567674D02*
X15091253Y-13558150D01*
X15091253Y-13558150D02*
X15119825Y-13558150D01*
X15119825Y-13558150D02*
X15138872Y-13567674D01*
X15215063Y-13767674D02*
X15224587Y-13758150D01*
X15224587Y-13758150D02*
X15243634Y-13729579D01*
X15243634Y-13729579D02*
X15253158Y-13710531D01*
X15253158Y-13710531D02*
X15262682Y-13681960D01*
X15262682Y-13681960D02*
X15272206Y-13634341D01*
X15272206Y-13634341D02*
X15272206Y-13596246D01*
X15272206Y-13596246D02*
X15262682Y-13548627D01*
X15262682Y-13548627D02*
X15253158Y-13520055D01*
X15253158Y-13520055D02*
X15243634Y-13501008D01*
X15243634Y-13501008D02*
X15224587Y-13472436D01*
X15224587Y-13472436D02*
X15215063Y-13462912D01*
D11*
X10440000Y-13864000D02*
G75*
G02*
X10358720Y-13864000I-40640J0D01*
G01*
X10358720Y-13864000D02*
G75*
G02*
X10440000Y-13864000I40640J0D01*
G01*
D10*
X10738872Y-13755484D02*
X10757920Y-13755484D01*
X10757920Y-13755484D02*
X10776967Y-13765008D01*
X10776967Y-13765008D02*
X10786491Y-13774531D01*
X10786491Y-13774531D02*
X10796015Y-13793579D01*
X10796015Y-13793579D02*
X10805539Y-13831674D01*
X10805539Y-13831674D02*
X10805539Y-13879293D01*
X10805539Y-13879293D02*
X10796015Y-13917388D01*
X10796015Y-13917388D02*
X10786491Y-13936436D01*
X10786491Y-13936436D02*
X10776967Y-13945960D01*
X10776967Y-13945960D02*
X10757920Y-13955484D01*
X10757920Y-13955484D02*
X10738872Y-13955484D01*
X10738872Y-13955484D02*
X10719824Y-13945960D01*
X10719824Y-13945960D02*
X10710301Y-13936436D01*
X10710301Y-13936436D02*
X10700777Y-13917388D01*
X10700777Y-13917388D02*
X10691253Y-13879293D01*
X10691253Y-13879293D02*
X10691253Y-13831674D01*
X10691253Y-13831674D02*
X10700777Y-13793579D01*
X10700777Y-13793579D02*
X10710301Y-13774531D01*
X10710301Y-13774531D02*
X10719824Y-13765008D01*
X10719824Y-13765008D02*
X10738872Y-13755484D01*
X10891253Y-13936436D02*
X10900777Y-13945960D01*
X10900777Y-13945960D02*
X10891253Y-13955484D01*
X10891253Y-13955484D02*
X10881729Y-13945960D01*
X10881729Y-13945960D02*
X10891253Y-13936436D01*
X10891253Y-13936436D02*
X10891253Y-13955484D01*
X11015063Y-13841198D02*
X10996015Y-13831674D01*
X10996015Y-13831674D02*
X10986491Y-13822150D01*
X10986491Y-13822150D02*
X10976967Y-13803103D01*
X10976967Y-13803103D02*
X10976967Y-13793579D01*
X10976967Y-13793579D02*
X10986491Y-13774531D01*
X10986491Y-13774531D02*
X10996015Y-13765008D01*
X10996015Y-13765008D02*
X11015063Y-13755484D01*
X11015063Y-13755484D02*
X11053158Y-13755484D01*
X11053158Y-13755484D02*
X11072205Y-13765008D01*
X11072205Y-13765008D02*
X11081729Y-13774531D01*
X11081729Y-13774531D02*
X11091253Y-13793579D01*
X11091253Y-13793579D02*
X11091253Y-13803103D01*
X11091253Y-13803103D02*
X11081729Y-13822150D01*
X11081729Y-13822150D02*
X11072205Y-13831674D01*
X11072205Y-13831674D02*
X11053158Y-13841198D01*
X11053158Y-13841198D02*
X11015063Y-13841198D01*
X11015063Y-13841198D02*
X10996015Y-13850722D01*
X10996015Y-13850722D02*
X10986491Y-13860246D01*
X10986491Y-13860246D02*
X10976967Y-13879293D01*
X10976967Y-13879293D02*
X10976967Y-13917388D01*
X10976967Y-13917388D02*
X10986491Y-13936436D01*
X10986491Y-13936436D02*
X10996015Y-13945960D01*
X10996015Y-13945960D02*
X11015063Y-13955484D01*
X11015063Y-13955484D02*
X11053158Y-13955484D01*
X11053158Y-13955484D02*
X11072205Y-13945960D01*
X11072205Y-13945960D02*
X11081729Y-13936436D01*
X11081729Y-13936436D02*
X11091253Y-13917388D01*
X11091253Y-13917388D02*
X11091253Y-13879293D01*
X11091253Y-13879293D02*
X11081729Y-13860246D01*
X11081729Y-13860246D02*
X11072205Y-13850722D01*
X11072205Y-13850722D02*
X11053158Y-13841198D01*
X11281729Y-13955484D02*
X11167444Y-13955484D01*
X11224586Y-13955484D02*
X11224586Y-13755484D01*
X11224586Y-13755484D02*
X11205539Y-13784055D01*
X11205539Y-13784055D02*
X11186491Y-13803103D01*
X11186491Y-13803103D02*
X11167444Y-13812627D01*
X11348396Y-13755484D02*
X11472205Y-13755484D01*
X11472205Y-13755484D02*
X11405539Y-13831674D01*
X11405539Y-13831674D02*
X11434110Y-13831674D01*
X11434110Y-13831674D02*
X11453158Y-13841198D01*
X11453158Y-13841198D02*
X11462682Y-13850722D01*
X11462682Y-13850722D02*
X11472205Y-13869769D01*
X11472205Y-13869769D02*
X11472205Y-13917388D01*
X11472205Y-13917388D02*
X11462682Y-13936436D01*
X11462682Y-13936436D02*
X11453158Y-13945960D01*
X11453158Y-13945960D02*
X11434110Y-13955484D01*
X11434110Y-13955484D02*
X11376967Y-13955484D01*
X11376967Y-13955484D02*
X11357920Y-13945960D01*
X11357920Y-13945960D02*
X11348396Y-13936436D01*
X11557920Y-13955484D02*
X11557920Y-13822150D01*
X11557920Y-13841198D02*
X11567443Y-13831674D01*
X11567443Y-13831674D02*
X11586491Y-13822150D01*
X11586491Y-13822150D02*
X11615063Y-13822150D01*
X11615063Y-13822150D02*
X11634110Y-13831674D01*
X11634110Y-13831674D02*
X11643634Y-13850722D01*
X11643634Y-13850722D02*
X11643634Y-13955484D01*
X11643634Y-13850722D02*
X11653158Y-13831674D01*
X11653158Y-13831674D02*
X11672205Y-13822150D01*
X11672205Y-13822150D02*
X11700777Y-13822150D01*
X11700777Y-13822150D02*
X11719824Y-13831674D01*
X11719824Y-13831674D02*
X11729348Y-13850722D01*
X11729348Y-13850722D02*
X11729348Y-13955484D01*
X11824586Y-13955484D02*
X11824586Y-13822150D01*
X11824586Y-13841198D02*
X11834110Y-13831674D01*
X11834110Y-13831674D02*
X11853158Y-13822150D01*
X11853158Y-13822150D02*
X11881729Y-13822150D01*
X11881729Y-13822150D02*
X11900777Y-13831674D01*
X11900777Y-13831674D02*
X11910301Y-13850722D01*
X11910301Y-13850722D02*
X11910301Y-13955484D01*
X11910301Y-13850722D02*
X11919824Y-13831674D01*
X11919824Y-13831674D02*
X11938872Y-13822150D01*
X11938872Y-13822150D02*
X11967443Y-13822150D01*
X11967443Y-13822150D02*
X11986491Y-13831674D01*
X11986491Y-13831674D02*
X11996015Y-13850722D01*
X11996015Y-13850722D02*
X11996015Y-13955484D01*
X12386491Y-13745960D02*
X12215063Y-14003103D01*
X12643634Y-13755484D02*
X12662682Y-13755484D01*
X12662682Y-13755484D02*
X12681729Y-13765008D01*
X12681729Y-13765008D02*
X12691253Y-13774531D01*
X12691253Y-13774531D02*
X12700777Y-13793579D01*
X12700777Y-13793579D02*
X12710301Y-13831674D01*
X12710301Y-13831674D02*
X12710301Y-13879293D01*
X12710301Y-13879293D02*
X12700777Y-13917388D01*
X12700777Y-13917388D02*
X12691253Y-13936436D01*
X12691253Y-13936436D02*
X12681729Y-13945960D01*
X12681729Y-13945960D02*
X12662682Y-13955484D01*
X12662682Y-13955484D02*
X12643634Y-13955484D01*
X12643634Y-13955484D02*
X12624586Y-13945960D01*
X12624586Y-13945960D02*
X12615063Y-13936436D01*
X12615063Y-13936436D02*
X12605539Y-13917388D01*
X12605539Y-13917388D02*
X12596015Y-13879293D01*
X12596015Y-13879293D02*
X12596015Y-13831674D01*
X12596015Y-13831674D02*
X12605539Y-13793579D01*
X12605539Y-13793579D02*
X12615063Y-13774531D01*
X12615063Y-13774531D02*
X12624586Y-13765008D01*
X12624586Y-13765008D02*
X12643634Y-13755484D01*
X12796015Y-13936436D02*
X12805539Y-13945960D01*
X12805539Y-13945960D02*
X12796015Y-13955484D01*
X12796015Y-13955484D02*
X12786491Y-13945960D01*
X12786491Y-13945960D02*
X12796015Y-13936436D01*
X12796015Y-13936436D02*
X12796015Y-13955484D01*
X12929348Y-13755484D02*
X12948396Y-13755484D01*
X12948396Y-13755484D02*
X12967444Y-13765008D01*
X12967444Y-13765008D02*
X12976967Y-13774531D01*
X12976967Y-13774531D02*
X12986491Y-13793579D01*
X12986491Y-13793579D02*
X12996015Y-13831674D01*
X12996015Y-13831674D02*
X12996015Y-13879293D01*
X12996015Y-13879293D02*
X12986491Y-13917388D01*
X12986491Y-13917388D02*
X12976967Y-13936436D01*
X12976967Y-13936436D02*
X12967444Y-13945960D01*
X12967444Y-13945960D02*
X12948396Y-13955484D01*
X12948396Y-13955484D02*
X12929348Y-13955484D01*
X12929348Y-13955484D02*
X12910301Y-13945960D01*
X12910301Y-13945960D02*
X12900777Y-13936436D01*
X12900777Y-13936436D02*
X12891253Y-13917388D01*
X12891253Y-13917388D02*
X12881729Y-13879293D01*
X12881729Y-13879293D02*
X12881729Y-13831674D01*
X12881729Y-13831674D02*
X12891253Y-13793579D01*
X12891253Y-13793579D02*
X12900777Y-13774531D01*
X12900777Y-13774531D02*
X12910301Y-13765008D01*
X12910301Y-13765008D02*
X12929348Y-13755484D01*
X13062682Y-13755484D02*
X13186491Y-13755484D01*
X13186491Y-13755484D02*
X13119825Y-13831674D01*
X13119825Y-13831674D02*
X13148396Y-13831674D01*
X13148396Y-13831674D02*
X13167444Y-13841198D01*
X13167444Y-13841198D02*
X13176967Y-13850722D01*
X13176967Y-13850722D02*
X13186491Y-13869769D01*
X13186491Y-13869769D02*
X13186491Y-13917388D01*
X13186491Y-13917388D02*
X13176967Y-13936436D01*
X13176967Y-13936436D02*
X13167444Y-13945960D01*
X13167444Y-13945960D02*
X13148396Y-13955484D01*
X13148396Y-13955484D02*
X13091253Y-13955484D01*
X13091253Y-13955484D02*
X13072206Y-13945960D01*
X13072206Y-13945960D02*
X13062682Y-13936436D01*
X13262682Y-13774531D02*
X13272206Y-13765008D01*
X13272206Y-13765008D02*
X13291253Y-13755484D01*
X13291253Y-13755484D02*
X13338872Y-13755484D01*
X13338872Y-13755484D02*
X13357920Y-13765008D01*
X13357920Y-13765008D02*
X13367444Y-13774531D01*
X13367444Y-13774531D02*
X13376967Y-13793579D01*
X13376967Y-13793579D02*
X13376967Y-13812627D01*
X13376967Y-13812627D02*
X13367444Y-13841198D01*
X13367444Y-13841198D02*
X13253158Y-13955484D01*
X13253158Y-13955484D02*
X13376967Y-13955484D01*
X13500777Y-13755484D02*
X13519825Y-13755484D01*
X13519825Y-13755484D02*
X13538872Y-13765008D01*
X13538872Y-13765008D02*
X13548396Y-13774531D01*
X13548396Y-13774531D02*
X13557920Y-13793579D01*
X13557920Y-13793579D02*
X13567444Y-13831674D01*
X13567444Y-13831674D02*
X13567444Y-13879293D01*
X13567444Y-13879293D02*
X13557920Y-13917388D01*
X13557920Y-13917388D02*
X13548396Y-13936436D01*
X13548396Y-13936436D02*
X13538872Y-13945960D01*
X13538872Y-13945960D02*
X13519825Y-13955484D01*
X13519825Y-13955484D02*
X13500777Y-13955484D01*
X13500777Y-13955484D02*
X13481729Y-13945960D01*
X13481729Y-13945960D02*
X13472206Y-13936436D01*
X13472206Y-13936436D02*
X13462682Y-13917388D01*
X13462682Y-13917388D02*
X13453158Y-13879293D01*
X13453158Y-13879293D02*
X13453158Y-13831674D01*
X13453158Y-13831674D02*
X13462682Y-13793579D01*
X13462682Y-13793579D02*
X13472206Y-13774531D01*
X13472206Y-13774531D02*
X13481729Y-13765008D01*
X13481729Y-13765008D02*
X13500777Y-13755484D01*
X13643634Y-13755484D02*
X13643634Y-13793579D01*
X13719825Y-13755484D02*
X13719825Y-13793579D01*
X14015063Y-14031674D02*
X14005539Y-14022150D01*
X14005539Y-14022150D02*
X13986491Y-13993579D01*
X13986491Y-13993579D02*
X13976968Y-13974531D01*
X13976968Y-13974531D02*
X13967444Y-13945960D01*
X13967444Y-13945960D02*
X13957920Y-13898341D01*
X13957920Y-13898341D02*
X13957920Y-13860246D01*
X13957920Y-13860246D02*
X13967444Y-13812627D01*
X13967444Y-13812627D02*
X13976968Y-13784055D01*
X13976968Y-13784055D02*
X13986491Y-13765008D01*
X13986491Y-13765008D02*
X14005539Y-13736436D01*
X14005539Y-13736436D02*
X14015063Y-13726912D01*
X14081729Y-13774531D02*
X14091253Y-13765008D01*
X14091253Y-13765008D02*
X14110301Y-13755484D01*
X14110301Y-13755484D02*
X14157920Y-13755484D01*
X14157920Y-13755484D02*
X14176968Y-13765008D01*
X14176968Y-13765008D02*
X14186491Y-13774531D01*
X14186491Y-13774531D02*
X14196015Y-13793579D01*
X14196015Y-13793579D02*
X14196015Y-13812627D01*
X14196015Y-13812627D02*
X14186491Y-13841198D01*
X14186491Y-13841198D02*
X14072206Y-13955484D01*
X14072206Y-13955484D02*
X14196015Y-13955484D01*
X14434110Y-13955484D02*
X14434110Y-13755484D01*
X14519825Y-13955484D02*
X14519825Y-13850722D01*
X14519825Y-13850722D02*
X14510301Y-13831674D01*
X14510301Y-13831674D02*
X14491253Y-13822150D01*
X14491253Y-13822150D02*
X14462682Y-13822150D01*
X14462682Y-13822150D02*
X14443634Y-13831674D01*
X14443634Y-13831674D02*
X14434110Y-13841198D01*
X14643634Y-13955484D02*
X14624587Y-13945960D01*
X14624587Y-13945960D02*
X14615063Y-13936436D01*
X14615063Y-13936436D02*
X14605539Y-13917388D01*
X14605539Y-13917388D02*
X14605539Y-13860246D01*
X14605539Y-13860246D02*
X14615063Y-13841198D01*
X14615063Y-13841198D02*
X14624587Y-13831674D01*
X14624587Y-13831674D02*
X14643634Y-13822150D01*
X14643634Y-13822150D02*
X14672206Y-13822150D01*
X14672206Y-13822150D02*
X14691253Y-13831674D01*
X14691253Y-13831674D02*
X14700777Y-13841198D01*
X14700777Y-13841198D02*
X14710301Y-13860246D01*
X14710301Y-13860246D02*
X14710301Y-13917388D01*
X14710301Y-13917388D02*
X14700777Y-13936436D01*
X14700777Y-13936436D02*
X14691253Y-13945960D01*
X14691253Y-13945960D02*
X14672206Y-13955484D01*
X14672206Y-13955484D02*
X14643634Y-13955484D01*
X14824587Y-13955484D02*
X14805539Y-13945960D01*
X14805539Y-13945960D02*
X14796015Y-13926912D01*
X14796015Y-13926912D02*
X14796015Y-13755484D01*
X14976968Y-13945960D02*
X14957920Y-13955484D01*
X14957920Y-13955484D02*
X14919825Y-13955484D01*
X14919825Y-13955484D02*
X14900777Y-13945960D01*
X14900777Y-13945960D02*
X14891253Y-13926912D01*
X14891253Y-13926912D02*
X14891253Y-13850722D01*
X14891253Y-13850722D02*
X14900777Y-13831674D01*
X14900777Y-13831674D02*
X14919825Y-13822150D01*
X14919825Y-13822150D02*
X14957920Y-13822150D01*
X14957920Y-13822150D02*
X14976968Y-13831674D01*
X14976968Y-13831674D02*
X14986491Y-13850722D01*
X14986491Y-13850722D02*
X14986491Y-13869769D01*
X14986491Y-13869769D02*
X14891253Y-13888817D01*
X15062682Y-13945960D02*
X15081730Y-13955484D01*
X15081730Y-13955484D02*
X15119825Y-13955484D01*
X15119825Y-13955484D02*
X15138872Y-13945960D01*
X15138872Y-13945960D02*
X15148396Y-13926912D01*
X15148396Y-13926912D02*
X15148396Y-13917388D01*
X15148396Y-13917388D02*
X15138872Y-13898341D01*
X15138872Y-13898341D02*
X15119825Y-13888817D01*
X15119825Y-13888817D02*
X15091253Y-13888817D01*
X15091253Y-13888817D02*
X15072206Y-13879293D01*
X15072206Y-13879293D02*
X15062682Y-13860246D01*
X15062682Y-13860246D02*
X15062682Y-13850722D01*
X15062682Y-13850722D02*
X15072206Y-13831674D01*
X15072206Y-13831674D02*
X15091253Y-13822150D01*
X15091253Y-13822150D02*
X15119825Y-13822150D01*
X15119825Y-13822150D02*
X15138872Y-13831674D01*
X15215063Y-14031674D02*
X15224587Y-14022150D01*
X15224587Y-14022150D02*
X15243634Y-13993579D01*
X15243634Y-13993579D02*
X15253158Y-13974531D01*
X15253158Y-13974531D02*
X15262682Y-13945960D01*
X15262682Y-13945960D02*
X15272206Y-13898341D01*
X15272206Y-13898341D02*
X15272206Y-13860246D01*
X15272206Y-13860246D02*
X15262682Y-13812627D01*
X15262682Y-13812627D02*
X15253158Y-13784055D01*
X15253158Y-13784055D02*
X15243634Y-13765008D01*
X15243634Y-13765008D02*
X15224587Y-13736436D01*
X15224587Y-13736436D02*
X15215063Y-13726912D01*
D11*
X10396820Y-14084820D02*
X10396820Y-14171180D01*
X10353640Y-14128000D02*
X10440000Y-14128000D01*
D10*
X10738872Y-14019484D02*
X10757920Y-14019484D01*
X10757920Y-14019484D02*
X10776967Y-14029008D01*
X10776967Y-14029008D02*
X10786491Y-14038531D01*
X10786491Y-14038531D02*
X10796015Y-14057579D01*
X10796015Y-14057579D02*
X10805539Y-14095674D01*
X10805539Y-14095674D02*
X10805539Y-14143293D01*
X10805539Y-14143293D02*
X10796015Y-14181388D01*
X10796015Y-14181388D02*
X10786491Y-14200436D01*
X10786491Y-14200436D02*
X10776967Y-14209960D01*
X10776967Y-14209960D02*
X10757920Y-14219484D01*
X10757920Y-14219484D02*
X10738872Y-14219484D01*
X10738872Y-14219484D02*
X10719824Y-14209960D01*
X10719824Y-14209960D02*
X10710301Y-14200436D01*
X10710301Y-14200436D02*
X10700777Y-14181388D01*
X10700777Y-14181388D02*
X10691253Y-14143293D01*
X10691253Y-14143293D02*
X10691253Y-14095674D01*
X10691253Y-14095674D02*
X10700777Y-14057579D01*
X10700777Y-14057579D02*
X10710301Y-14038531D01*
X10710301Y-14038531D02*
X10719824Y-14029008D01*
X10719824Y-14029008D02*
X10738872Y-14019484D01*
X10891253Y-14200436D02*
X10900777Y-14209960D01*
X10900777Y-14209960D02*
X10891253Y-14219484D01*
X10891253Y-14219484D02*
X10881729Y-14209960D01*
X10881729Y-14209960D02*
X10891253Y-14200436D01*
X10891253Y-14200436D02*
X10891253Y-14219484D01*
X11015063Y-14105198D02*
X10996015Y-14095674D01*
X10996015Y-14095674D02*
X10986491Y-14086150D01*
X10986491Y-14086150D02*
X10976967Y-14067103D01*
X10976967Y-14067103D02*
X10976967Y-14057579D01*
X10976967Y-14057579D02*
X10986491Y-14038531D01*
X10986491Y-14038531D02*
X10996015Y-14029008D01*
X10996015Y-14029008D02*
X11015063Y-14019484D01*
X11015063Y-14019484D02*
X11053158Y-14019484D01*
X11053158Y-14019484D02*
X11072205Y-14029008D01*
X11072205Y-14029008D02*
X11081729Y-14038531D01*
X11081729Y-14038531D02*
X11091253Y-14057579D01*
X11091253Y-14057579D02*
X11091253Y-14067103D01*
X11091253Y-14067103D02*
X11081729Y-14086150D01*
X11081729Y-14086150D02*
X11072205Y-14095674D01*
X11072205Y-14095674D02*
X11053158Y-14105198D01*
X11053158Y-14105198D02*
X11015063Y-14105198D01*
X11015063Y-14105198D02*
X10996015Y-14114722D01*
X10996015Y-14114722D02*
X10986491Y-14124246D01*
X10986491Y-14124246D02*
X10976967Y-14143293D01*
X10976967Y-14143293D02*
X10976967Y-14181388D01*
X10976967Y-14181388D02*
X10986491Y-14200436D01*
X10986491Y-14200436D02*
X10996015Y-14209960D01*
X10996015Y-14209960D02*
X11015063Y-14219484D01*
X11015063Y-14219484D02*
X11053158Y-14219484D01*
X11053158Y-14219484D02*
X11072205Y-14209960D01*
X11072205Y-14209960D02*
X11081729Y-14200436D01*
X11081729Y-14200436D02*
X11091253Y-14181388D01*
X11091253Y-14181388D02*
X11091253Y-14143293D01*
X11091253Y-14143293D02*
X11081729Y-14124246D01*
X11081729Y-14124246D02*
X11072205Y-14114722D01*
X11072205Y-14114722D02*
X11053158Y-14105198D01*
X11262682Y-14019484D02*
X11224586Y-14019484D01*
X11224586Y-14019484D02*
X11205539Y-14029008D01*
X11205539Y-14029008D02*
X11196015Y-14038531D01*
X11196015Y-14038531D02*
X11176967Y-14067103D01*
X11176967Y-14067103D02*
X11167444Y-14105198D01*
X11167444Y-14105198D02*
X11167444Y-14181388D01*
X11167444Y-14181388D02*
X11176967Y-14200436D01*
X11176967Y-14200436D02*
X11186491Y-14209960D01*
X11186491Y-14209960D02*
X11205539Y-14219484D01*
X11205539Y-14219484D02*
X11243634Y-14219484D01*
X11243634Y-14219484D02*
X11262682Y-14209960D01*
X11262682Y-14209960D02*
X11272205Y-14200436D01*
X11272205Y-14200436D02*
X11281729Y-14181388D01*
X11281729Y-14181388D02*
X11281729Y-14133769D01*
X11281729Y-14133769D02*
X11272205Y-14114722D01*
X11272205Y-14114722D02*
X11262682Y-14105198D01*
X11262682Y-14105198D02*
X11243634Y-14095674D01*
X11243634Y-14095674D02*
X11205539Y-14095674D01*
X11205539Y-14095674D02*
X11186491Y-14105198D01*
X11186491Y-14105198D02*
X11176967Y-14114722D01*
X11176967Y-14114722D02*
X11167444Y-14133769D01*
X11453158Y-14086150D02*
X11453158Y-14219484D01*
X11405539Y-14009960D02*
X11357920Y-14152817D01*
X11357920Y-14152817D02*
X11481729Y-14152817D01*
X11557920Y-14219484D02*
X11557920Y-14086150D01*
X11557920Y-14105198D02*
X11567443Y-14095674D01*
X11567443Y-14095674D02*
X11586491Y-14086150D01*
X11586491Y-14086150D02*
X11615063Y-14086150D01*
X11615063Y-14086150D02*
X11634110Y-14095674D01*
X11634110Y-14095674D02*
X11643634Y-14114722D01*
X11643634Y-14114722D02*
X11643634Y-14219484D01*
X11643634Y-14114722D02*
X11653158Y-14095674D01*
X11653158Y-14095674D02*
X11672205Y-14086150D01*
X11672205Y-14086150D02*
X11700777Y-14086150D01*
X11700777Y-14086150D02*
X11719824Y-14095674D01*
X11719824Y-14095674D02*
X11729348Y-14114722D01*
X11729348Y-14114722D02*
X11729348Y-14219484D01*
X11824586Y-14219484D02*
X11824586Y-14086150D01*
X11824586Y-14105198D02*
X11834110Y-14095674D01*
X11834110Y-14095674D02*
X11853158Y-14086150D01*
X11853158Y-14086150D02*
X11881729Y-14086150D01*
X11881729Y-14086150D02*
X11900777Y-14095674D01*
X11900777Y-14095674D02*
X11910301Y-14114722D01*
X11910301Y-14114722D02*
X11910301Y-14219484D01*
X11910301Y-14114722D02*
X11919824Y-14095674D01*
X11919824Y-14095674D02*
X11938872Y-14086150D01*
X11938872Y-14086150D02*
X11967443Y-14086150D01*
X11967443Y-14086150D02*
X11986491Y-14095674D01*
X11986491Y-14095674D02*
X11996015Y-14114722D01*
X11996015Y-14114722D02*
X11996015Y-14219484D01*
X12386491Y-14009960D02*
X12215063Y-14267103D01*
X12643634Y-14019484D02*
X12662682Y-14019484D01*
X12662682Y-14019484D02*
X12681729Y-14029008D01*
X12681729Y-14029008D02*
X12691253Y-14038531D01*
X12691253Y-14038531D02*
X12700777Y-14057579D01*
X12700777Y-14057579D02*
X12710301Y-14095674D01*
X12710301Y-14095674D02*
X12710301Y-14143293D01*
X12710301Y-14143293D02*
X12700777Y-14181388D01*
X12700777Y-14181388D02*
X12691253Y-14200436D01*
X12691253Y-14200436D02*
X12681729Y-14209960D01*
X12681729Y-14209960D02*
X12662682Y-14219484D01*
X12662682Y-14219484D02*
X12643634Y-14219484D01*
X12643634Y-14219484D02*
X12624586Y-14209960D01*
X12624586Y-14209960D02*
X12615063Y-14200436D01*
X12615063Y-14200436D02*
X12605539Y-14181388D01*
X12605539Y-14181388D02*
X12596015Y-14143293D01*
X12596015Y-14143293D02*
X12596015Y-14095674D01*
X12596015Y-14095674D02*
X12605539Y-14057579D01*
X12605539Y-14057579D02*
X12615063Y-14038531D01*
X12615063Y-14038531D02*
X12624586Y-14029008D01*
X12624586Y-14029008D02*
X12643634Y-14019484D01*
X12796015Y-14200436D02*
X12805539Y-14209960D01*
X12805539Y-14209960D02*
X12796015Y-14219484D01*
X12796015Y-14219484D02*
X12786491Y-14209960D01*
X12786491Y-14209960D02*
X12796015Y-14200436D01*
X12796015Y-14200436D02*
X12796015Y-14219484D01*
X12929348Y-14019484D02*
X12948396Y-14019484D01*
X12948396Y-14019484D02*
X12967444Y-14029008D01*
X12967444Y-14029008D02*
X12976967Y-14038531D01*
X12976967Y-14038531D02*
X12986491Y-14057579D01*
X12986491Y-14057579D02*
X12996015Y-14095674D01*
X12996015Y-14095674D02*
X12996015Y-14143293D01*
X12996015Y-14143293D02*
X12986491Y-14181388D01*
X12986491Y-14181388D02*
X12976967Y-14200436D01*
X12976967Y-14200436D02*
X12967444Y-14209960D01*
X12967444Y-14209960D02*
X12948396Y-14219484D01*
X12948396Y-14219484D02*
X12929348Y-14219484D01*
X12929348Y-14219484D02*
X12910301Y-14209960D01*
X12910301Y-14209960D02*
X12900777Y-14200436D01*
X12900777Y-14200436D02*
X12891253Y-14181388D01*
X12891253Y-14181388D02*
X12881729Y-14143293D01*
X12881729Y-14143293D02*
X12881729Y-14095674D01*
X12881729Y-14095674D02*
X12891253Y-14057579D01*
X12891253Y-14057579D02*
X12900777Y-14038531D01*
X12900777Y-14038531D02*
X12910301Y-14029008D01*
X12910301Y-14029008D02*
X12929348Y-14019484D01*
X13062682Y-14019484D02*
X13186491Y-14019484D01*
X13186491Y-14019484D02*
X13119825Y-14095674D01*
X13119825Y-14095674D02*
X13148396Y-14095674D01*
X13148396Y-14095674D02*
X13167444Y-14105198D01*
X13167444Y-14105198D02*
X13176967Y-14114722D01*
X13176967Y-14114722D02*
X13186491Y-14133769D01*
X13186491Y-14133769D02*
X13186491Y-14181388D01*
X13186491Y-14181388D02*
X13176967Y-14200436D01*
X13176967Y-14200436D02*
X13167444Y-14209960D01*
X13167444Y-14209960D02*
X13148396Y-14219484D01*
X13148396Y-14219484D02*
X13091253Y-14219484D01*
X13091253Y-14219484D02*
X13072206Y-14209960D01*
X13072206Y-14209960D02*
X13062682Y-14200436D01*
X13357920Y-14086150D02*
X13357920Y-14219484D01*
X13310301Y-14009960D02*
X13262682Y-14152817D01*
X13262682Y-14152817D02*
X13386491Y-14152817D01*
X13500777Y-14019484D02*
X13519825Y-14019484D01*
X13519825Y-14019484D02*
X13538872Y-14029008D01*
X13538872Y-14029008D02*
X13548396Y-14038531D01*
X13548396Y-14038531D02*
X13557920Y-14057579D01*
X13557920Y-14057579D02*
X13567444Y-14095674D01*
X13567444Y-14095674D02*
X13567444Y-14143293D01*
X13567444Y-14143293D02*
X13557920Y-14181388D01*
X13557920Y-14181388D02*
X13548396Y-14200436D01*
X13548396Y-14200436D02*
X13538872Y-14209960D01*
X13538872Y-14209960D02*
X13519825Y-14219484D01*
X13519825Y-14219484D02*
X13500777Y-14219484D01*
X13500777Y-14219484D02*
X13481729Y-14209960D01*
X13481729Y-14209960D02*
X13472206Y-14200436D01*
X13472206Y-14200436D02*
X13462682Y-14181388D01*
X13462682Y-14181388D02*
X13453158Y-14143293D01*
X13453158Y-14143293D02*
X13453158Y-14095674D01*
X13453158Y-14095674D02*
X13462682Y-14057579D01*
X13462682Y-14057579D02*
X13472206Y-14038531D01*
X13472206Y-14038531D02*
X13481729Y-14029008D01*
X13481729Y-14029008D02*
X13500777Y-14019484D01*
X13643634Y-14019484D02*
X13643634Y-14057579D01*
X13719825Y-14019484D02*
X13719825Y-14057579D01*
X14015063Y-14295674D02*
X14005539Y-14286150D01*
X14005539Y-14286150D02*
X13986491Y-14257579D01*
X13986491Y-14257579D02*
X13976968Y-14238531D01*
X13976968Y-14238531D02*
X13967444Y-14209960D01*
X13967444Y-14209960D02*
X13957920Y-14162341D01*
X13957920Y-14162341D02*
X13957920Y-14124246D01*
X13957920Y-14124246D02*
X13967444Y-14076627D01*
X13967444Y-14076627D02*
X13976968Y-14048055D01*
X13976968Y-14048055D02*
X13986491Y-14029008D01*
X13986491Y-14029008D02*
X14005539Y-14000436D01*
X14005539Y-14000436D02*
X14015063Y-13990912D01*
X14081729Y-14038531D02*
X14091253Y-14029008D01*
X14091253Y-14029008D02*
X14110301Y-14019484D01*
X14110301Y-14019484D02*
X14157920Y-14019484D01*
X14157920Y-14019484D02*
X14176968Y-14029008D01*
X14176968Y-14029008D02*
X14186491Y-14038531D01*
X14186491Y-14038531D02*
X14196015Y-14057579D01*
X14196015Y-14057579D02*
X14196015Y-14076627D01*
X14196015Y-14076627D02*
X14186491Y-14105198D01*
X14186491Y-14105198D02*
X14072206Y-14219484D01*
X14072206Y-14219484D02*
X14196015Y-14219484D01*
X14434110Y-14219484D02*
X14434110Y-14019484D01*
X14519825Y-14219484D02*
X14519825Y-14114722D01*
X14519825Y-14114722D02*
X14510301Y-14095674D01*
X14510301Y-14095674D02*
X14491253Y-14086150D01*
X14491253Y-14086150D02*
X14462682Y-14086150D01*
X14462682Y-14086150D02*
X14443634Y-14095674D01*
X14443634Y-14095674D02*
X14434110Y-14105198D01*
X14643634Y-14219484D02*
X14624587Y-14209960D01*
X14624587Y-14209960D02*
X14615063Y-14200436D01*
X14615063Y-14200436D02*
X14605539Y-14181388D01*
X14605539Y-14181388D02*
X14605539Y-14124246D01*
X14605539Y-14124246D02*
X14615063Y-14105198D01*
X14615063Y-14105198D02*
X14624587Y-14095674D01*
X14624587Y-14095674D02*
X14643634Y-14086150D01*
X14643634Y-14086150D02*
X14672206Y-14086150D01*
X14672206Y-14086150D02*
X14691253Y-14095674D01*
X14691253Y-14095674D02*
X14700777Y-14105198D01*
X14700777Y-14105198D02*
X14710301Y-14124246D01*
X14710301Y-14124246D02*
X14710301Y-14181388D01*
X14710301Y-14181388D02*
X14700777Y-14200436D01*
X14700777Y-14200436D02*
X14691253Y-14209960D01*
X14691253Y-14209960D02*
X14672206Y-14219484D01*
X14672206Y-14219484D02*
X14643634Y-14219484D01*
X14824587Y-14219484D02*
X14805539Y-14209960D01*
X14805539Y-14209960D02*
X14796015Y-14190912D01*
X14796015Y-14190912D02*
X14796015Y-14019484D01*
X14976968Y-14209960D02*
X14957920Y-14219484D01*
X14957920Y-14219484D02*
X14919825Y-14219484D01*
X14919825Y-14219484D02*
X14900777Y-14209960D01*
X14900777Y-14209960D02*
X14891253Y-14190912D01*
X14891253Y-14190912D02*
X14891253Y-14114722D01*
X14891253Y-14114722D02*
X14900777Y-14095674D01*
X14900777Y-14095674D02*
X14919825Y-14086150D01*
X14919825Y-14086150D02*
X14957920Y-14086150D01*
X14957920Y-14086150D02*
X14976968Y-14095674D01*
X14976968Y-14095674D02*
X14986491Y-14114722D01*
X14986491Y-14114722D02*
X14986491Y-14133769D01*
X14986491Y-14133769D02*
X14891253Y-14152817D01*
X15062682Y-14209960D02*
X15081730Y-14219484D01*
X15081730Y-14219484D02*
X15119825Y-14219484D01*
X15119825Y-14219484D02*
X15138872Y-14209960D01*
X15138872Y-14209960D02*
X15148396Y-14190912D01*
X15148396Y-14190912D02*
X15148396Y-14181388D01*
X15148396Y-14181388D02*
X15138872Y-14162341D01*
X15138872Y-14162341D02*
X15119825Y-14152817D01*
X15119825Y-14152817D02*
X15091253Y-14152817D01*
X15091253Y-14152817D02*
X15072206Y-14143293D01*
X15072206Y-14143293D02*
X15062682Y-14124246D01*
X15062682Y-14124246D02*
X15062682Y-14114722D01*
X15062682Y-14114722D02*
X15072206Y-14095674D01*
X15072206Y-14095674D02*
X15091253Y-14086150D01*
X15091253Y-14086150D02*
X15119825Y-14086150D01*
X15119825Y-14086150D02*
X15138872Y-14095674D01*
X15215063Y-14295674D02*
X15224587Y-14286150D01*
X15224587Y-14286150D02*
X15243634Y-14257579D01*
X15243634Y-14257579D02*
X15253158Y-14238531D01*
X15253158Y-14238531D02*
X15262682Y-14209960D01*
X15262682Y-14209960D02*
X15272206Y-14162341D01*
X15272206Y-14162341D02*
X15272206Y-14124246D01*
X15272206Y-14124246D02*
X15262682Y-14076627D01*
X15262682Y-14076627D02*
X15253158Y-14048055D01*
X15253158Y-14048055D02*
X15243634Y-14029008D01*
X15243634Y-14029008D02*
X15224587Y-14000436D01*
X15224587Y-14000436D02*
X15215063Y-13990912D01*
D11*
X10425356Y-14427356D02*
X10425356Y-14356644D01*
X10354644Y-14356644D01*
X10354644Y-14427356D01*
X10425356Y-14427356D01*
D10*
X10805539Y-14483484D02*
X10691253Y-14483484D01*
X10748396Y-14483484D02*
X10748396Y-14283484D01*
X10748396Y-14283484D02*
X10729348Y-14312055D01*
X10729348Y-14312055D02*
X10710301Y-14331103D01*
X10710301Y-14331103D02*
X10691253Y-14340627D01*
X10891253Y-14464436D02*
X10900777Y-14473960D01*
X10900777Y-14473960D02*
X10891253Y-14483484D01*
X10891253Y-14483484D02*
X10881729Y-14473960D01*
X10881729Y-14473960D02*
X10891253Y-14464436D01*
X10891253Y-14464436D02*
X10891253Y-14483484D01*
X11024586Y-14283484D02*
X11043634Y-14283484D01*
X11043634Y-14283484D02*
X11062682Y-14293008D01*
X11062682Y-14293008D02*
X11072205Y-14302531D01*
X11072205Y-14302531D02*
X11081729Y-14321579D01*
X11081729Y-14321579D02*
X11091253Y-14359674D01*
X11091253Y-14359674D02*
X11091253Y-14407293D01*
X11091253Y-14407293D02*
X11081729Y-14445388D01*
X11081729Y-14445388D02*
X11072205Y-14464436D01*
X11072205Y-14464436D02*
X11062682Y-14473960D01*
X11062682Y-14473960D02*
X11043634Y-14483484D01*
X11043634Y-14483484D02*
X11024586Y-14483484D01*
X11024586Y-14483484D02*
X11005539Y-14473960D01*
X11005539Y-14473960D02*
X10996015Y-14464436D01*
X10996015Y-14464436D02*
X10986491Y-14445388D01*
X10986491Y-14445388D02*
X10976967Y-14407293D01*
X10976967Y-14407293D02*
X10976967Y-14359674D01*
X10976967Y-14359674D02*
X10986491Y-14321579D01*
X10986491Y-14321579D02*
X10996015Y-14302531D01*
X10996015Y-14302531D02*
X11005539Y-14293008D01*
X11005539Y-14293008D02*
X11024586Y-14283484D01*
X11215062Y-14283484D02*
X11234110Y-14283484D01*
X11234110Y-14283484D02*
X11253158Y-14293008D01*
X11253158Y-14293008D02*
X11262682Y-14302531D01*
X11262682Y-14302531D02*
X11272205Y-14321579D01*
X11272205Y-14321579D02*
X11281729Y-14359674D01*
X11281729Y-14359674D02*
X11281729Y-14407293D01*
X11281729Y-14407293D02*
X11272205Y-14445388D01*
X11272205Y-14445388D02*
X11262682Y-14464436D01*
X11262682Y-14464436D02*
X11253158Y-14473960D01*
X11253158Y-14473960D02*
X11234110Y-14483484D01*
X11234110Y-14483484D02*
X11215062Y-14483484D01*
X11215062Y-14483484D02*
X11196015Y-14473960D01*
X11196015Y-14473960D02*
X11186491Y-14464436D01*
X11186491Y-14464436D02*
X11176967Y-14445388D01*
X11176967Y-14445388D02*
X11167444Y-14407293D01*
X11167444Y-14407293D02*
X11167444Y-14359674D01*
X11167444Y-14359674D02*
X11176967Y-14321579D01*
X11176967Y-14321579D02*
X11186491Y-14302531D01*
X11186491Y-14302531D02*
X11196015Y-14293008D01*
X11196015Y-14293008D02*
X11215062Y-14283484D01*
X11405539Y-14283484D02*
X11424586Y-14283484D01*
X11424586Y-14283484D02*
X11443634Y-14293008D01*
X11443634Y-14293008D02*
X11453158Y-14302531D01*
X11453158Y-14302531D02*
X11462682Y-14321579D01*
X11462682Y-14321579D02*
X11472205Y-14359674D01*
X11472205Y-14359674D02*
X11472205Y-14407293D01*
X11472205Y-14407293D02*
X11462682Y-14445388D01*
X11462682Y-14445388D02*
X11453158Y-14464436D01*
X11453158Y-14464436D02*
X11443634Y-14473960D01*
X11443634Y-14473960D02*
X11424586Y-14483484D01*
X11424586Y-14483484D02*
X11405539Y-14483484D01*
X11405539Y-14483484D02*
X11386491Y-14473960D01*
X11386491Y-14473960D02*
X11376967Y-14464436D01*
X11376967Y-14464436D02*
X11367443Y-14445388D01*
X11367443Y-14445388D02*
X11357920Y-14407293D01*
X11357920Y-14407293D02*
X11357920Y-14359674D01*
X11357920Y-14359674D02*
X11367443Y-14321579D01*
X11367443Y-14321579D02*
X11376967Y-14302531D01*
X11376967Y-14302531D02*
X11386491Y-14293008D01*
X11386491Y-14293008D02*
X11405539Y-14283484D01*
X11557920Y-14483484D02*
X11557920Y-14350150D01*
X11557920Y-14369198D02*
X11567443Y-14359674D01*
X11567443Y-14359674D02*
X11586491Y-14350150D01*
X11586491Y-14350150D02*
X11615063Y-14350150D01*
X11615063Y-14350150D02*
X11634110Y-14359674D01*
X11634110Y-14359674D02*
X11643634Y-14378722D01*
X11643634Y-14378722D02*
X11643634Y-14483484D01*
X11643634Y-14378722D02*
X11653158Y-14359674D01*
X11653158Y-14359674D02*
X11672205Y-14350150D01*
X11672205Y-14350150D02*
X11700777Y-14350150D01*
X11700777Y-14350150D02*
X11719824Y-14359674D01*
X11719824Y-14359674D02*
X11729348Y-14378722D01*
X11729348Y-14378722D02*
X11729348Y-14483484D01*
X11824586Y-14483484D02*
X11824586Y-14350150D01*
X11824586Y-14369198D02*
X11834110Y-14359674D01*
X11834110Y-14359674D02*
X11853158Y-14350150D01*
X11853158Y-14350150D02*
X11881729Y-14350150D01*
X11881729Y-14350150D02*
X11900777Y-14359674D01*
X11900777Y-14359674D02*
X11910301Y-14378722D01*
X11910301Y-14378722D02*
X11910301Y-14483484D01*
X11910301Y-14378722D02*
X11919824Y-14359674D01*
X11919824Y-14359674D02*
X11938872Y-14350150D01*
X11938872Y-14350150D02*
X11967443Y-14350150D01*
X11967443Y-14350150D02*
X11986491Y-14359674D01*
X11986491Y-14359674D02*
X11996015Y-14378722D01*
X11996015Y-14378722D02*
X11996015Y-14483484D01*
X12386491Y-14273960D02*
X12215063Y-14531103D01*
X12643634Y-14283484D02*
X12662682Y-14283484D01*
X12662682Y-14283484D02*
X12681729Y-14293008D01*
X12681729Y-14293008D02*
X12691253Y-14302531D01*
X12691253Y-14302531D02*
X12700777Y-14321579D01*
X12700777Y-14321579D02*
X12710301Y-14359674D01*
X12710301Y-14359674D02*
X12710301Y-14407293D01*
X12710301Y-14407293D02*
X12700777Y-14445388D01*
X12700777Y-14445388D02*
X12691253Y-14464436D01*
X12691253Y-14464436D02*
X12681729Y-14473960D01*
X12681729Y-14473960D02*
X12662682Y-14483484D01*
X12662682Y-14483484D02*
X12643634Y-14483484D01*
X12643634Y-14483484D02*
X12624586Y-14473960D01*
X12624586Y-14473960D02*
X12615063Y-14464436D01*
X12615063Y-14464436D02*
X12605539Y-14445388D01*
X12605539Y-14445388D02*
X12596015Y-14407293D01*
X12596015Y-14407293D02*
X12596015Y-14359674D01*
X12596015Y-14359674D02*
X12605539Y-14321579D01*
X12605539Y-14321579D02*
X12615063Y-14302531D01*
X12615063Y-14302531D02*
X12624586Y-14293008D01*
X12624586Y-14293008D02*
X12643634Y-14283484D01*
X12796015Y-14464436D02*
X12805539Y-14473960D01*
X12805539Y-14473960D02*
X12796015Y-14483484D01*
X12796015Y-14483484D02*
X12786491Y-14473960D01*
X12786491Y-14473960D02*
X12796015Y-14464436D01*
X12796015Y-14464436D02*
X12796015Y-14483484D01*
X12929348Y-14283484D02*
X12948396Y-14283484D01*
X12948396Y-14283484D02*
X12967444Y-14293008D01*
X12967444Y-14293008D02*
X12976967Y-14302531D01*
X12976967Y-14302531D02*
X12986491Y-14321579D01*
X12986491Y-14321579D02*
X12996015Y-14359674D01*
X12996015Y-14359674D02*
X12996015Y-14407293D01*
X12996015Y-14407293D02*
X12986491Y-14445388D01*
X12986491Y-14445388D02*
X12976967Y-14464436D01*
X12976967Y-14464436D02*
X12967444Y-14473960D01*
X12967444Y-14473960D02*
X12948396Y-14483484D01*
X12948396Y-14483484D02*
X12929348Y-14483484D01*
X12929348Y-14483484D02*
X12910301Y-14473960D01*
X12910301Y-14473960D02*
X12900777Y-14464436D01*
X12900777Y-14464436D02*
X12891253Y-14445388D01*
X12891253Y-14445388D02*
X12881729Y-14407293D01*
X12881729Y-14407293D02*
X12881729Y-14359674D01*
X12881729Y-14359674D02*
X12891253Y-14321579D01*
X12891253Y-14321579D02*
X12900777Y-14302531D01*
X12900777Y-14302531D02*
X12910301Y-14293008D01*
X12910301Y-14293008D02*
X12929348Y-14283484D01*
X13062682Y-14283484D02*
X13186491Y-14283484D01*
X13186491Y-14283484D02*
X13119825Y-14359674D01*
X13119825Y-14359674D02*
X13148396Y-14359674D01*
X13148396Y-14359674D02*
X13167444Y-14369198D01*
X13167444Y-14369198D02*
X13176967Y-14378722D01*
X13176967Y-14378722D02*
X13186491Y-14397769D01*
X13186491Y-14397769D02*
X13186491Y-14445388D01*
X13186491Y-14445388D02*
X13176967Y-14464436D01*
X13176967Y-14464436D02*
X13167444Y-14473960D01*
X13167444Y-14473960D02*
X13148396Y-14483484D01*
X13148396Y-14483484D02*
X13091253Y-14483484D01*
X13091253Y-14483484D02*
X13072206Y-14473960D01*
X13072206Y-14473960D02*
X13062682Y-14464436D01*
X13281729Y-14483484D02*
X13319825Y-14483484D01*
X13319825Y-14483484D02*
X13338872Y-14473960D01*
X13338872Y-14473960D02*
X13348396Y-14464436D01*
X13348396Y-14464436D02*
X13367444Y-14435865D01*
X13367444Y-14435865D02*
X13376967Y-14397769D01*
X13376967Y-14397769D02*
X13376967Y-14321579D01*
X13376967Y-14321579D02*
X13367444Y-14302531D01*
X13367444Y-14302531D02*
X13357920Y-14293008D01*
X13357920Y-14293008D02*
X13338872Y-14283484D01*
X13338872Y-14283484D02*
X13300777Y-14283484D01*
X13300777Y-14283484D02*
X13281729Y-14293008D01*
X13281729Y-14293008D02*
X13272206Y-14302531D01*
X13272206Y-14302531D02*
X13262682Y-14321579D01*
X13262682Y-14321579D02*
X13262682Y-14369198D01*
X13262682Y-14369198D02*
X13272206Y-14388246D01*
X13272206Y-14388246D02*
X13281729Y-14397769D01*
X13281729Y-14397769D02*
X13300777Y-14407293D01*
X13300777Y-14407293D02*
X13338872Y-14407293D01*
X13338872Y-14407293D02*
X13357920Y-14397769D01*
X13357920Y-14397769D02*
X13367444Y-14388246D01*
X13367444Y-14388246D02*
X13376967Y-14369198D01*
X13548396Y-14350150D02*
X13548396Y-14483484D01*
X13500777Y-14273960D02*
X13453158Y-14416817D01*
X13453158Y-14416817D02*
X13576967Y-14416817D01*
X13643634Y-14283484D02*
X13643634Y-14321579D01*
X13719825Y-14283484D02*
X13719825Y-14321579D01*
X14015063Y-14559674D02*
X14005539Y-14550150D01*
X14005539Y-14550150D02*
X13986491Y-14521579D01*
X13986491Y-14521579D02*
X13976968Y-14502531D01*
X13976968Y-14502531D02*
X13967444Y-14473960D01*
X13967444Y-14473960D02*
X13957920Y-14426341D01*
X13957920Y-14426341D02*
X13957920Y-14388246D01*
X13957920Y-14388246D02*
X13967444Y-14340627D01*
X13967444Y-14340627D02*
X13976968Y-14312055D01*
X13976968Y-14312055D02*
X13986491Y-14293008D01*
X13986491Y-14293008D02*
X14005539Y-14264436D01*
X14005539Y-14264436D02*
X14015063Y-14254912D01*
X14081729Y-14302531D02*
X14091253Y-14293008D01*
X14091253Y-14293008D02*
X14110301Y-14283484D01*
X14110301Y-14283484D02*
X14157920Y-14283484D01*
X14157920Y-14283484D02*
X14176968Y-14293008D01*
X14176968Y-14293008D02*
X14186491Y-14302531D01*
X14186491Y-14302531D02*
X14196015Y-14321579D01*
X14196015Y-14321579D02*
X14196015Y-14340627D01*
X14196015Y-14340627D02*
X14186491Y-14369198D01*
X14186491Y-14369198D02*
X14072206Y-14483484D01*
X14072206Y-14483484D02*
X14196015Y-14483484D01*
X14434110Y-14483484D02*
X14434110Y-14283484D01*
X14519825Y-14483484D02*
X14519825Y-14378722D01*
X14519825Y-14378722D02*
X14510301Y-14359674D01*
X14510301Y-14359674D02*
X14491253Y-14350150D01*
X14491253Y-14350150D02*
X14462682Y-14350150D01*
X14462682Y-14350150D02*
X14443634Y-14359674D01*
X14443634Y-14359674D02*
X14434110Y-14369198D01*
X14643634Y-14483484D02*
X14624587Y-14473960D01*
X14624587Y-14473960D02*
X14615063Y-14464436D01*
X14615063Y-14464436D02*
X14605539Y-14445388D01*
X14605539Y-14445388D02*
X14605539Y-14388246D01*
X14605539Y-14388246D02*
X14615063Y-14369198D01*
X14615063Y-14369198D02*
X14624587Y-14359674D01*
X14624587Y-14359674D02*
X14643634Y-14350150D01*
X14643634Y-14350150D02*
X14672206Y-14350150D01*
X14672206Y-14350150D02*
X14691253Y-14359674D01*
X14691253Y-14359674D02*
X14700777Y-14369198D01*
X14700777Y-14369198D02*
X14710301Y-14388246D01*
X14710301Y-14388246D02*
X14710301Y-14445388D01*
X14710301Y-14445388D02*
X14700777Y-14464436D01*
X14700777Y-14464436D02*
X14691253Y-14473960D01*
X14691253Y-14473960D02*
X14672206Y-14483484D01*
X14672206Y-14483484D02*
X14643634Y-14483484D01*
X14824587Y-14483484D02*
X14805539Y-14473960D01*
X14805539Y-14473960D02*
X14796015Y-14454912D01*
X14796015Y-14454912D02*
X14796015Y-14283484D01*
X14976968Y-14473960D02*
X14957920Y-14483484D01*
X14957920Y-14483484D02*
X14919825Y-14483484D01*
X14919825Y-14483484D02*
X14900777Y-14473960D01*
X14900777Y-14473960D02*
X14891253Y-14454912D01*
X14891253Y-14454912D02*
X14891253Y-14378722D01*
X14891253Y-14378722D02*
X14900777Y-14359674D01*
X14900777Y-14359674D02*
X14919825Y-14350150D01*
X14919825Y-14350150D02*
X14957920Y-14350150D01*
X14957920Y-14350150D02*
X14976968Y-14359674D01*
X14976968Y-14359674D02*
X14986491Y-14378722D01*
X14986491Y-14378722D02*
X14986491Y-14397769D01*
X14986491Y-14397769D02*
X14891253Y-14416817D01*
X15062682Y-14473960D02*
X15081730Y-14483484D01*
X15081730Y-14483484D02*
X15119825Y-14483484D01*
X15119825Y-14483484D02*
X15138872Y-14473960D01*
X15138872Y-14473960D02*
X15148396Y-14454912D01*
X15148396Y-14454912D02*
X15148396Y-14445388D01*
X15148396Y-14445388D02*
X15138872Y-14426341D01*
X15138872Y-14426341D02*
X15119825Y-14416817D01*
X15119825Y-14416817D02*
X15091253Y-14416817D01*
X15091253Y-14416817D02*
X15072206Y-14407293D01*
X15072206Y-14407293D02*
X15062682Y-14388246D01*
X15062682Y-14388246D02*
X15062682Y-14378722D01*
X15062682Y-14378722D02*
X15072206Y-14359674D01*
X15072206Y-14359674D02*
X15091253Y-14350150D01*
X15091253Y-14350150D02*
X15119825Y-14350150D01*
X15119825Y-14350150D02*
X15138872Y-14359674D01*
X15215063Y-14559674D02*
X15224587Y-14550150D01*
X15224587Y-14550150D02*
X15243634Y-14521579D01*
X15243634Y-14521579D02*
X15253158Y-14502531D01*
X15253158Y-14502531D02*
X15262682Y-14473960D01*
X15262682Y-14473960D02*
X15272206Y-14426341D01*
X15272206Y-14426341D02*
X15272206Y-14388246D01*
X15272206Y-14388246D02*
X15262682Y-14340627D01*
X15262682Y-14340627D02*
X15253158Y-14312055D01*
X15253158Y-14312055D02*
X15243634Y-14293008D01*
X15243634Y-14293008D02*
X15224587Y-14264436D01*
X15224587Y-14264436D02*
X15215063Y-14254912D01*
D12*
X10387930Y-14708070D02*
X10440000Y-14656000D01*
X10387930Y-14603930D01*
X10335860Y-14656000D01*
X10387930Y-14708070D01*
D10*
X10805539Y-14747484D02*
X10691253Y-14747484D01*
X10748396Y-14747484D02*
X10748396Y-14547484D01*
X10748396Y-14547484D02*
X10729348Y-14576055D01*
X10729348Y-14576055D02*
X10710301Y-14595103D01*
X10710301Y-14595103D02*
X10691253Y-14604627D01*
X10891253Y-14728436D02*
X10900777Y-14737960D01*
X10900777Y-14737960D02*
X10891253Y-14747484D01*
X10891253Y-14747484D02*
X10881729Y-14737960D01*
X10881729Y-14737960D02*
X10891253Y-14728436D01*
X10891253Y-14728436D02*
X10891253Y-14747484D01*
X11024586Y-14547484D02*
X11043634Y-14547484D01*
X11043634Y-14547484D02*
X11062682Y-14557008D01*
X11062682Y-14557008D02*
X11072205Y-14566531D01*
X11072205Y-14566531D02*
X11081729Y-14585579D01*
X11081729Y-14585579D02*
X11091253Y-14623674D01*
X11091253Y-14623674D02*
X11091253Y-14671293D01*
X11091253Y-14671293D02*
X11081729Y-14709388D01*
X11081729Y-14709388D02*
X11072205Y-14728436D01*
X11072205Y-14728436D02*
X11062682Y-14737960D01*
X11062682Y-14737960D02*
X11043634Y-14747484D01*
X11043634Y-14747484D02*
X11024586Y-14747484D01*
X11024586Y-14747484D02*
X11005539Y-14737960D01*
X11005539Y-14737960D02*
X10996015Y-14728436D01*
X10996015Y-14728436D02*
X10986491Y-14709388D01*
X10986491Y-14709388D02*
X10976967Y-14671293D01*
X10976967Y-14671293D02*
X10976967Y-14623674D01*
X10976967Y-14623674D02*
X10986491Y-14585579D01*
X10986491Y-14585579D02*
X10996015Y-14566531D01*
X10996015Y-14566531D02*
X11005539Y-14557008D01*
X11005539Y-14557008D02*
X11024586Y-14547484D01*
X11262682Y-14614150D02*
X11262682Y-14747484D01*
X11215062Y-14537960D02*
X11167444Y-14680817D01*
X11167444Y-14680817D02*
X11291253Y-14680817D01*
X11472205Y-14747484D02*
X11357920Y-14747484D01*
X11415062Y-14747484D02*
X11415062Y-14547484D01*
X11415062Y-14547484D02*
X11396015Y-14576055D01*
X11396015Y-14576055D02*
X11376967Y-14595103D01*
X11376967Y-14595103D02*
X11357920Y-14604627D01*
X11557920Y-14747484D02*
X11557920Y-14614150D01*
X11557920Y-14633198D02*
X11567443Y-14623674D01*
X11567443Y-14623674D02*
X11586491Y-14614150D01*
X11586491Y-14614150D02*
X11615063Y-14614150D01*
X11615063Y-14614150D02*
X11634110Y-14623674D01*
X11634110Y-14623674D02*
X11643634Y-14642722D01*
X11643634Y-14642722D02*
X11643634Y-14747484D01*
X11643634Y-14642722D02*
X11653158Y-14623674D01*
X11653158Y-14623674D02*
X11672205Y-14614150D01*
X11672205Y-14614150D02*
X11700777Y-14614150D01*
X11700777Y-14614150D02*
X11719824Y-14623674D01*
X11719824Y-14623674D02*
X11729348Y-14642722D01*
X11729348Y-14642722D02*
X11729348Y-14747484D01*
X11824586Y-14747484D02*
X11824586Y-14614150D01*
X11824586Y-14633198D02*
X11834110Y-14623674D01*
X11834110Y-14623674D02*
X11853158Y-14614150D01*
X11853158Y-14614150D02*
X11881729Y-14614150D01*
X11881729Y-14614150D02*
X11900777Y-14623674D01*
X11900777Y-14623674D02*
X11910301Y-14642722D01*
X11910301Y-14642722D02*
X11910301Y-14747484D01*
X11910301Y-14642722D02*
X11919824Y-14623674D01*
X11919824Y-14623674D02*
X11938872Y-14614150D01*
X11938872Y-14614150D02*
X11967443Y-14614150D01*
X11967443Y-14614150D02*
X11986491Y-14623674D01*
X11986491Y-14623674D02*
X11996015Y-14642722D01*
X11996015Y-14642722D02*
X11996015Y-14747484D01*
X12386491Y-14537960D02*
X12215063Y-14795103D01*
X12643634Y-14547484D02*
X12662682Y-14547484D01*
X12662682Y-14547484D02*
X12681729Y-14557008D01*
X12681729Y-14557008D02*
X12691253Y-14566531D01*
X12691253Y-14566531D02*
X12700777Y-14585579D01*
X12700777Y-14585579D02*
X12710301Y-14623674D01*
X12710301Y-14623674D02*
X12710301Y-14671293D01*
X12710301Y-14671293D02*
X12700777Y-14709388D01*
X12700777Y-14709388D02*
X12691253Y-14728436D01*
X12691253Y-14728436D02*
X12681729Y-14737960D01*
X12681729Y-14737960D02*
X12662682Y-14747484D01*
X12662682Y-14747484D02*
X12643634Y-14747484D01*
X12643634Y-14747484D02*
X12624586Y-14737960D01*
X12624586Y-14737960D02*
X12615063Y-14728436D01*
X12615063Y-14728436D02*
X12605539Y-14709388D01*
X12605539Y-14709388D02*
X12596015Y-14671293D01*
X12596015Y-14671293D02*
X12596015Y-14623674D01*
X12596015Y-14623674D02*
X12605539Y-14585579D01*
X12605539Y-14585579D02*
X12615063Y-14566531D01*
X12615063Y-14566531D02*
X12624586Y-14557008D01*
X12624586Y-14557008D02*
X12643634Y-14547484D01*
X12796015Y-14728436D02*
X12805539Y-14737960D01*
X12805539Y-14737960D02*
X12796015Y-14747484D01*
X12796015Y-14747484D02*
X12786491Y-14737960D01*
X12786491Y-14737960D02*
X12796015Y-14728436D01*
X12796015Y-14728436D02*
X12796015Y-14747484D01*
X12929348Y-14547484D02*
X12948396Y-14547484D01*
X12948396Y-14547484D02*
X12967444Y-14557008D01*
X12967444Y-14557008D02*
X12976967Y-14566531D01*
X12976967Y-14566531D02*
X12986491Y-14585579D01*
X12986491Y-14585579D02*
X12996015Y-14623674D01*
X12996015Y-14623674D02*
X12996015Y-14671293D01*
X12996015Y-14671293D02*
X12986491Y-14709388D01*
X12986491Y-14709388D02*
X12976967Y-14728436D01*
X12976967Y-14728436D02*
X12967444Y-14737960D01*
X12967444Y-14737960D02*
X12948396Y-14747484D01*
X12948396Y-14747484D02*
X12929348Y-14747484D01*
X12929348Y-14747484D02*
X12910301Y-14737960D01*
X12910301Y-14737960D02*
X12900777Y-14728436D01*
X12900777Y-14728436D02*
X12891253Y-14709388D01*
X12891253Y-14709388D02*
X12881729Y-14671293D01*
X12881729Y-14671293D02*
X12881729Y-14623674D01*
X12881729Y-14623674D02*
X12891253Y-14585579D01*
X12891253Y-14585579D02*
X12900777Y-14566531D01*
X12900777Y-14566531D02*
X12910301Y-14557008D01*
X12910301Y-14557008D02*
X12929348Y-14547484D01*
X13167444Y-14614150D02*
X13167444Y-14747484D01*
X13119825Y-14537960D02*
X13072206Y-14680817D01*
X13072206Y-14680817D02*
X13196015Y-14680817D01*
X13376967Y-14747484D02*
X13262682Y-14747484D01*
X13319825Y-14747484D02*
X13319825Y-14547484D01*
X13319825Y-14547484D02*
X13300777Y-14576055D01*
X13300777Y-14576055D02*
X13281729Y-14595103D01*
X13281729Y-14595103D02*
X13262682Y-14604627D01*
X13500777Y-14547484D02*
X13519825Y-14547484D01*
X13519825Y-14547484D02*
X13538872Y-14557008D01*
X13538872Y-14557008D02*
X13548396Y-14566531D01*
X13548396Y-14566531D02*
X13557920Y-14585579D01*
X13557920Y-14585579D02*
X13567444Y-14623674D01*
X13567444Y-14623674D02*
X13567444Y-14671293D01*
X13567444Y-14671293D02*
X13557920Y-14709388D01*
X13557920Y-14709388D02*
X13548396Y-14728436D01*
X13548396Y-14728436D02*
X13538872Y-14737960D01*
X13538872Y-14737960D02*
X13519825Y-14747484D01*
X13519825Y-14747484D02*
X13500777Y-14747484D01*
X13500777Y-14747484D02*
X13481729Y-14737960D01*
X13481729Y-14737960D02*
X13472206Y-14728436D01*
X13472206Y-14728436D02*
X13462682Y-14709388D01*
X13462682Y-14709388D02*
X13453158Y-14671293D01*
X13453158Y-14671293D02*
X13453158Y-14623674D01*
X13453158Y-14623674D02*
X13462682Y-14585579D01*
X13462682Y-14585579D02*
X13472206Y-14566531D01*
X13472206Y-14566531D02*
X13481729Y-14557008D01*
X13481729Y-14557008D02*
X13500777Y-14547484D01*
X13643634Y-14547484D02*
X13643634Y-14585579D01*
X13719825Y-14547484D02*
X13719825Y-14585579D01*
X14015063Y-14823674D02*
X14005539Y-14814150D01*
X14005539Y-14814150D02*
X13986491Y-14785579D01*
X13986491Y-14785579D02*
X13976968Y-14766531D01*
X13976968Y-14766531D02*
X13967444Y-14737960D01*
X13967444Y-14737960D02*
X13957920Y-14690341D01*
X13957920Y-14690341D02*
X13957920Y-14652246D01*
X13957920Y-14652246D02*
X13967444Y-14604627D01*
X13967444Y-14604627D02*
X13976968Y-14576055D01*
X13976968Y-14576055D02*
X13986491Y-14557008D01*
X13986491Y-14557008D02*
X14005539Y-14528436D01*
X14005539Y-14528436D02*
X14015063Y-14518912D01*
X14081729Y-14566531D02*
X14091253Y-14557008D01*
X14091253Y-14557008D02*
X14110301Y-14547484D01*
X14110301Y-14547484D02*
X14157920Y-14547484D01*
X14157920Y-14547484D02*
X14176968Y-14557008D01*
X14176968Y-14557008D02*
X14186491Y-14566531D01*
X14186491Y-14566531D02*
X14196015Y-14585579D01*
X14196015Y-14585579D02*
X14196015Y-14604627D01*
X14196015Y-14604627D02*
X14186491Y-14633198D01*
X14186491Y-14633198D02*
X14072206Y-14747484D01*
X14072206Y-14747484D02*
X14196015Y-14747484D01*
X14434110Y-14747484D02*
X14434110Y-14547484D01*
X14519825Y-14747484D02*
X14519825Y-14642722D01*
X14519825Y-14642722D02*
X14510301Y-14623674D01*
X14510301Y-14623674D02*
X14491253Y-14614150D01*
X14491253Y-14614150D02*
X14462682Y-14614150D01*
X14462682Y-14614150D02*
X14443634Y-14623674D01*
X14443634Y-14623674D02*
X14434110Y-14633198D01*
X14643634Y-14747484D02*
X14624587Y-14737960D01*
X14624587Y-14737960D02*
X14615063Y-14728436D01*
X14615063Y-14728436D02*
X14605539Y-14709388D01*
X14605539Y-14709388D02*
X14605539Y-14652246D01*
X14605539Y-14652246D02*
X14615063Y-14633198D01*
X14615063Y-14633198D02*
X14624587Y-14623674D01*
X14624587Y-14623674D02*
X14643634Y-14614150D01*
X14643634Y-14614150D02*
X14672206Y-14614150D01*
X14672206Y-14614150D02*
X14691253Y-14623674D01*
X14691253Y-14623674D02*
X14700777Y-14633198D01*
X14700777Y-14633198D02*
X14710301Y-14652246D01*
X14710301Y-14652246D02*
X14710301Y-14709388D01*
X14710301Y-14709388D02*
X14700777Y-14728436D01*
X14700777Y-14728436D02*
X14691253Y-14737960D01*
X14691253Y-14737960D02*
X14672206Y-14747484D01*
X14672206Y-14747484D02*
X14643634Y-14747484D01*
X14824587Y-14747484D02*
X14805539Y-14737960D01*
X14805539Y-14737960D02*
X14796015Y-14718912D01*
X14796015Y-14718912D02*
X14796015Y-14547484D01*
X14976968Y-14737960D02*
X14957920Y-14747484D01*
X14957920Y-14747484D02*
X14919825Y-14747484D01*
X14919825Y-14747484D02*
X14900777Y-14737960D01*
X14900777Y-14737960D02*
X14891253Y-14718912D01*
X14891253Y-14718912D02*
X14891253Y-14642722D01*
X14891253Y-14642722D02*
X14900777Y-14623674D01*
X14900777Y-14623674D02*
X14919825Y-14614150D01*
X14919825Y-14614150D02*
X14957920Y-14614150D01*
X14957920Y-14614150D02*
X14976968Y-14623674D01*
X14976968Y-14623674D02*
X14986491Y-14642722D01*
X14986491Y-14642722D02*
X14986491Y-14661769D01*
X14986491Y-14661769D02*
X14891253Y-14680817D01*
X15062682Y-14737960D02*
X15081730Y-14747484D01*
X15081730Y-14747484D02*
X15119825Y-14747484D01*
X15119825Y-14747484D02*
X15138872Y-14737960D01*
X15138872Y-14737960D02*
X15148396Y-14718912D01*
X15148396Y-14718912D02*
X15148396Y-14709388D01*
X15148396Y-14709388D02*
X15138872Y-14690341D01*
X15138872Y-14690341D02*
X15119825Y-14680817D01*
X15119825Y-14680817D02*
X15091253Y-14680817D01*
X15091253Y-14680817D02*
X15072206Y-14671293D01*
X15072206Y-14671293D02*
X15062682Y-14652246D01*
X15062682Y-14652246D02*
X15062682Y-14642722D01*
X15062682Y-14642722D02*
X15072206Y-14623674D01*
X15072206Y-14623674D02*
X15091253Y-14614150D01*
X15091253Y-14614150D02*
X15119825Y-14614150D01*
X15119825Y-14614150D02*
X15138872Y-14623674D01*
X15215063Y-14823674D02*
X15224587Y-14814150D01*
X15224587Y-14814150D02*
X15243634Y-14785579D01*
X15243634Y-14785579D02*
X15253158Y-14766531D01*
X15253158Y-14766531D02*
X15262682Y-14737960D01*
X15262682Y-14737960D02*
X15272206Y-14690341D01*
X15272206Y-14690341D02*
X15272206Y-14652246D01*
X15272206Y-14652246D02*
X15262682Y-14604627D01*
X15262682Y-14604627D02*
X15253158Y-14576055D01*
X15253158Y-14576055D02*
X15243634Y-14557008D01*
X15243634Y-14557008D02*
X15224587Y-14528436D01*
X15224587Y-14528436D02*
X15215063Y-14518912D01*
D13*
X10333320Y-14866660D02*
X10440000Y-14973340D01*
X10440000Y-14866660D02*
X10333320Y-14973340D01*
X10440000Y-14920000D02*
G75*
G02*
X10333320Y-14920000I-53340J0D01*
G01*
X10333320Y-14920000D02*
G75*
G02*
X10440000Y-14920000I53340J0D01*
G01*
D10*
X10805539Y-15011484D02*
X10691253Y-15011484D01*
X10748396Y-15011484D02*
X10748396Y-14811484D01*
X10748396Y-14811484D02*
X10729348Y-14840055D01*
X10729348Y-14840055D02*
X10710301Y-14859103D01*
X10710301Y-14859103D02*
X10691253Y-14868627D01*
X10891253Y-14992436D02*
X10900777Y-15001960D01*
X10900777Y-15001960D02*
X10891253Y-15011484D01*
X10891253Y-15011484D02*
X10881729Y-15001960D01*
X10881729Y-15001960D02*
X10891253Y-14992436D01*
X10891253Y-14992436D02*
X10891253Y-15011484D01*
X11024586Y-14811484D02*
X11043634Y-14811484D01*
X11043634Y-14811484D02*
X11062682Y-14821008D01*
X11062682Y-14821008D02*
X11072205Y-14830531D01*
X11072205Y-14830531D02*
X11081729Y-14849579D01*
X11081729Y-14849579D02*
X11091253Y-14887674D01*
X11091253Y-14887674D02*
X11091253Y-14935293D01*
X11091253Y-14935293D02*
X11081729Y-14973388D01*
X11081729Y-14973388D02*
X11072205Y-14992436D01*
X11072205Y-14992436D02*
X11062682Y-15001960D01*
X11062682Y-15001960D02*
X11043634Y-15011484D01*
X11043634Y-15011484D02*
X11024586Y-15011484D01*
X11024586Y-15011484D02*
X11005539Y-15001960D01*
X11005539Y-15001960D02*
X10996015Y-14992436D01*
X10996015Y-14992436D02*
X10986491Y-14973388D01*
X10986491Y-14973388D02*
X10976967Y-14935293D01*
X10976967Y-14935293D02*
X10976967Y-14887674D01*
X10976967Y-14887674D02*
X10986491Y-14849579D01*
X10986491Y-14849579D02*
X10996015Y-14830531D01*
X10996015Y-14830531D02*
X11005539Y-14821008D01*
X11005539Y-14821008D02*
X11024586Y-14811484D01*
X11262682Y-14811484D02*
X11224586Y-14811484D01*
X11224586Y-14811484D02*
X11205539Y-14821008D01*
X11205539Y-14821008D02*
X11196015Y-14830531D01*
X11196015Y-14830531D02*
X11176967Y-14859103D01*
X11176967Y-14859103D02*
X11167444Y-14897198D01*
X11167444Y-14897198D02*
X11167444Y-14973388D01*
X11167444Y-14973388D02*
X11176967Y-14992436D01*
X11176967Y-14992436D02*
X11186491Y-15001960D01*
X11186491Y-15001960D02*
X11205539Y-15011484D01*
X11205539Y-15011484D02*
X11243634Y-15011484D01*
X11243634Y-15011484D02*
X11262682Y-15001960D01*
X11262682Y-15001960D02*
X11272205Y-14992436D01*
X11272205Y-14992436D02*
X11281729Y-14973388D01*
X11281729Y-14973388D02*
X11281729Y-14925769D01*
X11281729Y-14925769D02*
X11272205Y-14906722D01*
X11272205Y-14906722D02*
X11262682Y-14897198D01*
X11262682Y-14897198D02*
X11243634Y-14887674D01*
X11243634Y-14887674D02*
X11205539Y-14887674D01*
X11205539Y-14887674D02*
X11186491Y-14897198D01*
X11186491Y-14897198D02*
X11176967Y-14906722D01*
X11176967Y-14906722D02*
X11167444Y-14925769D01*
X11348396Y-14811484D02*
X11481729Y-14811484D01*
X11481729Y-14811484D02*
X11396015Y-15011484D01*
X11557920Y-15011484D02*
X11557920Y-14878150D01*
X11557920Y-14897198D02*
X11567443Y-14887674D01*
X11567443Y-14887674D02*
X11586491Y-14878150D01*
X11586491Y-14878150D02*
X11615063Y-14878150D01*
X11615063Y-14878150D02*
X11634110Y-14887674D01*
X11634110Y-14887674D02*
X11643634Y-14906722D01*
X11643634Y-14906722D02*
X11643634Y-15011484D01*
X11643634Y-14906722D02*
X11653158Y-14887674D01*
X11653158Y-14887674D02*
X11672205Y-14878150D01*
X11672205Y-14878150D02*
X11700777Y-14878150D01*
X11700777Y-14878150D02*
X11719824Y-14887674D01*
X11719824Y-14887674D02*
X11729348Y-14906722D01*
X11729348Y-14906722D02*
X11729348Y-15011484D01*
X11824586Y-15011484D02*
X11824586Y-14878150D01*
X11824586Y-14897198D02*
X11834110Y-14887674D01*
X11834110Y-14887674D02*
X11853158Y-14878150D01*
X11853158Y-14878150D02*
X11881729Y-14878150D01*
X11881729Y-14878150D02*
X11900777Y-14887674D01*
X11900777Y-14887674D02*
X11910301Y-14906722D01*
X11910301Y-14906722D02*
X11910301Y-15011484D01*
X11910301Y-14906722D02*
X11919824Y-14887674D01*
X11919824Y-14887674D02*
X11938872Y-14878150D01*
X11938872Y-14878150D02*
X11967443Y-14878150D01*
X11967443Y-14878150D02*
X11986491Y-14887674D01*
X11986491Y-14887674D02*
X11996015Y-14906722D01*
X11996015Y-14906722D02*
X11996015Y-15011484D01*
X12386491Y-14801960D02*
X12215063Y-15059103D01*
X12643634Y-14811484D02*
X12662682Y-14811484D01*
X12662682Y-14811484D02*
X12681729Y-14821008D01*
X12681729Y-14821008D02*
X12691253Y-14830531D01*
X12691253Y-14830531D02*
X12700777Y-14849579D01*
X12700777Y-14849579D02*
X12710301Y-14887674D01*
X12710301Y-14887674D02*
X12710301Y-14935293D01*
X12710301Y-14935293D02*
X12700777Y-14973388D01*
X12700777Y-14973388D02*
X12691253Y-14992436D01*
X12691253Y-14992436D02*
X12681729Y-15001960D01*
X12681729Y-15001960D02*
X12662682Y-15011484D01*
X12662682Y-15011484D02*
X12643634Y-15011484D01*
X12643634Y-15011484D02*
X12624586Y-15001960D01*
X12624586Y-15001960D02*
X12615063Y-14992436D01*
X12615063Y-14992436D02*
X12605539Y-14973388D01*
X12605539Y-14973388D02*
X12596015Y-14935293D01*
X12596015Y-14935293D02*
X12596015Y-14887674D01*
X12596015Y-14887674D02*
X12605539Y-14849579D01*
X12605539Y-14849579D02*
X12615063Y-14830531D01*
X12615063Y-14830531D02*
X12624586Y-14821008D01*
X12624586Y-14821008D02*
X12643634Y-14811484D01*
X12796015Y-14992436D02*
X12805539Y-15001960D01*
X12805539Y-15001960D02*
X12796015Y-15011484D01*
X12796015Y-15011484D02*
X12786491Y-15001960D01*
X12786491Y-15001960D02*
X12796015Y-14992436D01*
X12796015Y-14992436D02*
X12796015Y-15011484D01*
X12929348Y-14811484D02*
X12948396Y-14811484D01*
X12948396Y-14811484D02*
X12967444Y-14821008D01*
X12967444Y-14821008D02*
X12976967Y-14830531D01*
X12976967Y-14830531D02*
X12986491Y-14849579D01*
X12986491Y-14849579D02*
X12996015Y-14887674D01*
X12996015Y-14887674D02*
X12996015Y-14935293D01*
X12996015Y-14935293D02*
X12986491Y-14973388D01*
X12986491Y-14973388D02*
X12976967Y-14992436D01*
X12976967Y-14992436D02*
X12967444Y-15001960D01*
X12967444Y-15001960D02*
X12948396Y-15011484D01*
X12948396Y-15011484D02*
X12929348Y-15011484D01*
X12929348Y-15011484D02*
X12910301Y-15001960D01*
X12910301Y-15001960D02*
X12900777Y-14992436D01*
X12900777Y-14992436D02*
X12891253Y-14973388D01*
X12891253Y-14973388D02*
X12881729Y-14935293D01*
X12881729Y-14935293D02*
X12881729Y-14887674D01*
X12881729Y-14887674D02*
X12891253Y-14849579D01*
X12891253Y-14849579D02*
X12900777Y-14830531D01*
X12900777Y-14830531D02*
X12910301Y-14821008D01*
X12910301Y-14821008D02*
X12929348Y-14811484D01*
X13167444Y-14878150D02*
X13167444Y-15011484D01*
X13119825Y-14801960D02*
X13072206Y-14944817D01*
X13072206Y-14944817D02*
X13196015Y-14944817D01*
X13262682Y-14830531D02*
X13272206Y-14821008D01*
X13272206Y-14821008D02*
X13291253Y-14811484D01*
X13291253Y-14811484D02*
X13338872Y-14811484D01*
X13338872Y-14811484D02*
X13357920Y-14821008D01*
X13357920Y-14821008D02*
X13367444Y-14830531D01*
X13367444Y-14830531D02*
X13376967Y-14849579D01*
X13376967Y-14849579D02*
X13376967Y-14868627D01*
X13376967Y-14868627D02*
X13367444Y-14897198D01*
X13367444Y-14897198D02*
X13253158Y-15011484D01*
X13253158Y-15011484D02*
X13376967Y-15011484D01*
X13500777Y-14811484D02*
X13519825Y-14811484D01*
X13519825Y-14811484D02*
X13538872Y-14821008D01*
X13538872Y-14821008D02*
X13548396Y-14830531D01*
X13548396Y-14830531D02*
X13557920Y-14849579D01*
X13557920Y-14849579D02*
X13567444Y-14887674D01*
X13567444Y-14887674D02*
X13567444Y-14935293D01*
X13567444Y-14935293D02*
X13557920Y-14973388D01*
X13557920Y-14973388D02*
X13548396Y-14992436D01*
X13548396Y-14992436D02*
X13538872Y-15001960D01*
X13538872Y-15001960D02*
X13519825Y-15011484D01*
X13519825Y-15011484D02*
X13500777Y-15011484D01*
X13500777Y-15011484D02*
X13481729Y-15001960D01*
X13481729Y-15001960D02*
X13472206Y-14992436D01*
X13472206Y-14992436D02*
X13462682Y-14973388D01*
X13462682Y-14973388D02*
X13453158Y-14935293D01*
X13453158Y-14935293D02*
X13453158Y-14887674D01*
X13453158Y-14887674D02*
X13462682Y-14849579D01*
X13462682Y-14849579D02*
X13472206Y-14830531D01*
X13472206Y-14830531D02*
X13481729Y-14821008D01*
X13481729Y-14821008D02*
X13500777Y-14811484D01*
X13643634Y-14811484D02*
X13643634Y-14849579D01*
X13719825Y-14811484D02*
X13719825Y-14849579D01*
X14015063Y-15087674D02*
X14005539Y-15078150D01*
X14005539Y-15078150D02*
X13986491Y-15049579D01*
X13986491Y-15049579D02*
X13976968Y-15030531D01*
X13976968Y-15030531D02*
X13967444Y-15001960D01*
X13967444Y-15001960D02*
X13957920Y-14954341D01*
X13957920Y-14954341D02*
X13957920Y-14916246D01*
X13957920Y-14916246D02*
X13967444Y-14868627D01*
X13967444Y-14868627D02*
X13976968Y-14840055D01*
X13976968Y-14840055D02*
X13986491Y-14821008D01*
X13986491Y-14821008D02*
X14005539Y-14792436D01*
X14005539Y-14792436D02*
X14015063Y-14782912D01*
X14176968Y-14878150D02*
X14176968Y-15011484D01*
X14129348Y-14801960D02*
X14081729Y-14944817D01*
X14081729Y-14944817D02*
X14205539Y-14944817D01*
X14434110Y-15011484D02*
X14434110Y-14811484D01*
X14519825Y-15011484D02*
X14519825Y-14906722D01*
X14519825Y-14906722D02*
X14510301Y-14887674D01*
X14510301Y-14887674D02*
X14491253Y-14878150D01*
X14491253Y-14878150D02*
X14462682Y-14878150D01*
X14462682Y-14878150D02*
X14443634Y-14887674D01*
X14443634Y-14887674D02*
X14434110Y-14897198D01*
X14643634Y-15011484D02*
X14624587Y-15001960D01*
X14624587Y-15001960D02*
X14615063Y-14992436D01*
X14615063Y-14992436D02*
X14605539Y-14973388D01*
X14605539Y-14973388D02*
X14605539Y-14916246D01*
X14605539Y-14916246D02*
X14615063Y-14897198D01*
X14615063Y-14897198D02*
X14624587Y-14887674D01*
X14624587Y-14887674D02*
X14643634Y-14878150D01*
X14643634Y-14878150D02*
X14672206Y-14878150D01*
X14672206Y-14878150D02*
X14691253Y-14887674D01*
X14691253Y-14887674D02*
X14700777Y-14897198D01*
X14700777Y-14897198D02*
X14710301Y-14916246D01*
X14710301Y-14916246D02*
X14710301Y-14973388D01*
X14710301Y-14973388D02*
X14700777Y-14992436D01*
X14700777Y-14992436D02*
X14691253Y-15001960D01*
X14691253Y-15001960D02*
X14672206Y-15011484D01*
X14672206Y-15011484D02*
X14643634Y-15011484D01*
X14824587Y-15011484D02*
X14805539Y-15001960D01*
X14805539Y-15001960D02*
X14796015Y-14982912D01*
X14796015Y-14982912D02*
X14796015Y-14811484D01*
X14976968Y-15001960D02*
X14957920Y-15011484D01*
X14957920Y-15011484D02*
X14919825Y-15011484D01*
X14919825Y-15011484D02*
X14900777Y-15001960D01*
X14900777Y-15001960D02*
X14891253Y-14982912D01*
X14891253Y-14982912D02*
X14891253Y-14906722D01*
X14891253Y-14906722D02*
X14900777Y-14887674D01*
X14900777Y-14887674D02*
X14919825Y-14878150D01*
X14919825Y-14878150D02*
X14957920Y-14878150D01*
X14957920Y-14878150D02*
X14976968Y-14887674D01*
X14976968Y-14887674D02*
X14986491Y-14906722D01*
X14986491Y-14906722D02*
X14986491Y-14925769D01*
X14986491Y-14925769D02*
X14891253Y-14944817D01*
X15062682Y-15001960D02*
X15081730Y-15011484D01*
X15081730Y-15011484D02*
X15119825Y-15011484D01*
X15119825Y-15011484D02*
X15138872Y-15001960D01*
X15138872Y-15001960D02*
X15148396Y-14982912D01*
X15148396Y-14982912D02*
X15148396Y-14973388D01*
X15148396Y-14973388D02*
X15138872Y-14954341D01*
X15138872Y-14954341D02*
X15119825Y-14944817D01*
X15119825Y-14944817D02*
X15091253Y-14944817D01*
X15091253Y-14944817D02*
X15072206Y-14935293D01*
X15072206Y-14935293D02*
X15062682Y-14916246D01*
X15062682Y-14916246D02*
X15062682Y-14906722D01*
X15062682Y-14906722D02*
X15072206Y-14887674D01*
X15072206Y-14887674D02*
X15091253Y-14878150D01*
X15091253Y-14878150D02*
X15119825Y-14878150D01*
X15119825Y-14878150D02*
X15138872Y-14887674D01*
X15215063Y-15087674D02*
X15224587Y-15078150D01*
X15224587Y-15078150D02*
X15243634Y-15049579D01*
X15243634Y-15049579D02*
X15253158Y-15030531D01*
X15253158Y-15030531D02*
X15262682Y-15001960D01*
X15262682Y-15001960D02*
X15272206Y-14954341D01*
X15272206Y-14954341D02*
X15272206Y-14916246D01*
X15272206Y-14916246D02*
X15262682Y-14868627D01*
X15262682Y-14868627D02*
X15253158Y-14840055D01*
X15253158Y-14840055D02*
X15243634Y-14821008D01*
X15243634Y-14821008D02*
X15224587Y-14792436D01*
X15224587Y-14792436D02*
X15215063Y-14782912D01*
D14*
X10320000Y-15124000D02*
X10440000Y-15244000D01*
X10440000Y-15124000D02*
X10320000Y-15244000D01*
X10380000Y-15124000D02*
X10380000Y-15244000D01*
X10320000Y-15184000D02*
X10440000Y-15184000D01*
D10*
X10805539Y-15275484D02*
X10691253Y-15275484D01*
X10748396Y-15275484D02*
X10748396Y-15075484D01*
X10748396Y-15075484D02*
X10729348Y-15104055D01*
X10729348Y-15104055D02*
X10710301Y-15123103D01*
X10710301Y-15123103D02*
X10691253Y-15132627D01*
X10891253Y-15256436D02*
X10900777Y-15265960D01*
X10900777Y-15265960D02*
X10891253Y-15275484D01*
X10891253Y-15275484D02*
X10881729Y-15265960D01*
X10881729Y-15265960D02*
X10891253Y-15256436D01*
X10891253Y-15256436D02*
X10891253Y-15275484D01*
X10976967Y-15094531D02*
X10986491Y-15085008D01*
X10986491Y-15085008D02*
X11005539Y-15075484D01*
X11005539Y-15075484D02*
X11053158Y-15075484D01*
X11053158Y-15075484D02*
X11072205Y-15085008D01*
X11072205Y-15085008D02*
X11081729Y-15094531D01*
X11081729Y-15094531D02*
X11091253Y-15113579D01*
X11091253Y-15113579D02*
X11091253Y-15132627D01*
X11091253Y-15132627D02*
X11081729Y-15161198D01*
X11081729Y-15161198D02*
X10967444Y-15275484D01*
X10967444Y-15275484D02*
X11091253Y-15275484D01*
X11215062Y-15075484D02*
X11234110Y-15075484D01*
X11234110Y-15075484D02*
X11253158Y-15085008D01*
X11253158Y-15085008D02*
X11262682Y-15094531D01*
X11262682Y-15094531D02*
X11272205Y-15113579D01*
X11272205Y-15113579D02*
X11281729Y-15151674D01*
X11281729Y-15151674D02*
X11281729Y-15199293D01*
X11281729Y-15199293D02*
X11272205Y-15237388D01*
X11272205Y-15237388D02*
X11262682Y-15256436D01*
X11262682Y-15256436D02*
X11253158Y-15265960D01*
X11253158Y-15265960D02*
X11234110Y-15275484D01*
X11234110Y-15275484D02*
X11215062Y-15275484D01*
X11215062Y-15275484D02*
X11196015Y-15265960D01*
X11196015Y-15265960D02*
X11186491Y-15256436D01*
X11186491Y-15256436D02*
X11176967Y-15237388D01*
X11176967Y-15237388D02*
X11167444Y-15199293D01*
X11167444Y-15199293D02*
X11167444Y-15151674D01*
X11167444Y-15151674D02*
X11176967Y-15113579D01*
X11176967Y-15113579D02*
X11186491Y-15094531D01*
X11186491Y-15094531D02*
X11196015Y-15085008D01*
X11196015Y-15085008D02*
X11215062Y-15075484D01*
X11405539Y-15075484D02*
X11424586Y-15075484D01*
X11424586Y-15075484D02*
X11443634Y-15085008D01*
X11443634Y-15085008D02*
X11453158Y-15094531D01*
X11453158Y-15094531D02*
X11462682Y-15113579D01*
X11462682Y-15113579D02*
X11472205Y-15151674D01*
X11472205Y-15151674D02*
X11472205Y-15199293D01*
X11472205Y-15199293D02*
X11462682Y-15237388D01*
X11462682Y-15237388D02*
X11453158Y-15256436D01*
X11453158Y-15256436D02*
X11443634Y-15265960D01*
X11443634Y-15265960D02*
X11424586Y-15275484D01*
X11424586Y-15275484D02*
X11405539Y-15275484D01*
X11405539Y-15275484D02*
X11386491Y-15265960D01*
X11386491Y-15265960D02*
X11376967Y-15256436D01*
X11376967Y-15256436D02*
X11367443Y-15237388D01*
X11367443Y-15237388D02*
X11357920Y-15199293D01*
X11357920Y-15199293D02*
X11357920Y-15151674D01*
X11357920Y-15151674D02*
X11367443Y-15113579D01*
X11367443Y-15113579D02*
X11376967Y-15094531D01*
X11376967Y-15094531D02*
X11386491Y-15085008D01*
X11386491Y-15085008D02*
X11405539Y-15075484D01*
X11557920Y-15275484D02*
X11557920Y-15142150D01*
X11557920Y-15161198D02*
X11567443Y-15151674D01*
X11567443Y-15151674D02*
X11586491Y-15142150D01*
X11586491Y-15142150D02*
X11615063Y-15142150D01*
X11615063Y-15142150D02*
X11634110Y-15151674D01*
X11634110Y-15151674D02*
X11643634Y-15170722D01*
X11643634Y-15170722D02*
X11643634Y-15275484D01*
X11643634Y-15170722D02*
X11653158Y-15151674D01*
X11653158Y-15151674D02*
X11672205Y-15142150D01*
X11672205Y-15142150D02*
X11700777Y-15142150D01*
X11700777Y-15142150D02*
X11719824Y-15151674D01*
X11719824Y-15151674D02*
X11729348Y-15170722D01*
X11729348Y-15170722D02*
X11729348Y-15275484D01*
X11824586Y-15275484D02*
X11824586Y-15142150D01*
X11824586Y-15161198D02*
X11834110Y-15151674D01*
X11834110Y-15151674D02*
X11853158Y-15142150D01*
X11853158Y-15142150D02*
X11881729Y-15142150D01*
X11881729Y-15142150D02*
X11900777Y-15151674D01*
X11900777Y-15151674D02*
X11910301Y-15170722D01*
X11910301Y-15170722D02*
X11910301Y-15275484D01*
X11910301Y-15170722D02*
X11919824Y-15151674D01*
X11919824Y-15151674D02*
X11938872Y-15142150D01*
X11938872Y-15142150D02*
X11967443Y-15142150D01*
X11967443Y-15142150D02*
X11986491Y-15151674D01*
X11986491Y-15151674D02*
X11996015Y-15170722D01*
X11996015Y-15170722D02*
X11996015Y-15275484D01*
X12386491Y-15065960D02*
X12215063Y-15323103D01*
X12643634Y-15075484D02*
X12662682Y-15075484D01*
X12662682Y-15075484D02*
X12681729Y-15085008D01*
X12681729Y-15085008D02*
X12691253Y-15094531D01*
X12691253Y-15094531D02*
X12700777Y-15113579D01*
X12700777Y-15113579D02*
X12710301Y-15151674D01*
X12710301Y-15151674D02*
X12710301Y-15199293D01*
X12710301Y-15199293D02*
X12700777Y-15237388D01*
X12700777Y-15237388D02*
X12691253Y-15256436D01*
X12691253Y-15256436D02*
X12681729Y-15265960D01*
X12681729Y-15265960D02*
X12662682Y-15275484D01*
X12662682Y-15275484D02*
X12643634Y-15275484D01*
X12643634Y-15275484D02*
X12624586Y-15265960D01*
X12624586Y-15265960D02*
X12615063Y-15256436D01*
X12615063Y-15256436D02*
X12605539Y-15237388D01*
X12605539Y-15237388D02*
X12596015Y-15199293D01*
X12596015Y-15199293D02*
X12596015Y-15151674D01*
X12596015Y-15151674D02*
X12605539Y-15113579D01*
X12605539Y-15113579D02*
X12615063Y-15094531D01*
X12615063Y-15094531D02*
X12624586Y-15085008D01*
X12624586Y-15085008D02*
X12643634Y-15075484D01*
X12796015Y-15256436D02*
X12805539Y-15265960D01*
X12805539Y-15265960D02*
X12796015Y-15275484D01*
X12796015Y-15275484D02*
X12786491Y-15265960D01*
X12786491Y-15265960D02*
X12796015Y-15256436D01*
X12796015Y-15256436D02*
X12796015Y-15275484D01*
X12929348Y-15075484D02*
X12948396Y-15075484D01*
X12948396Y-15075484D02*
X12967444Y-15085008D01*
X12967444Y-15085008D02*
X12976967Y-15094531D01*
X12976967Y-15094531D02*
X12986491Y-15113579D01*
X12986491Y-15113579D02*
X12996015Y-15151674D01*
X12996015Y-15151674D02*
X12996015Y-15199293D01*
X12996015Y-15199293D02*
X12986491Y-15237388D01*
X12986491Y-15237388D02*
X12976967Y-15256436D01*
X12976967Y-15256436D02*
X12967444Y-15265960D01*
X12967444Y-15265960D02*
X12948396Y-15275484D01*
X12948396Y-15275484D02*
X12929348Y-15275484D01*
X12929348Y-15275484D02*
X12910301Y-15265960D01*
X12910301Y-15265960D02*
X12900777Y-15256436D01*
X12900777Y-15256436D02*
X12891253Y-15237388D01*
X12891253Y-15237388D02*
X12881729Y-15199293D01*
X12881729Y-15199293D02*
X12881729Y-15151674D01*
X12881729Y-15151674D02*
X12891253Y-15113579D01*
X12891253Y-15113579D02*
X12900777Y-15094531D01*
X12900777Y-15094531D02*
X12910301Y-15085008D01*
X12910301Y-15085008D02*
X12929348Y-15075484D01*
X13167444Y-15142150D02*
X13167444Y-15275484D01*
X13119825Y-15065960D02*
X13072206Y-15208817D01*
X13072206Y-15208817D02*
X13196015Y-15208817D01*
X13253158Y-15075484D02*
X13386491Y-15075484D01*
X13386491Y-15075484D02*
X13300777Y-15275484D01*
X13453158Y-15094531D02*
X13462682Y-15085008D01*
X13462682Y-15085008D02*
X13481729Y-15075484D01*
X13481729Y-15075484D02*
X13529348Y-15075484D01*
X13529348Y-15075484D02*
X13548396Y-15085008D01*
X13548396Y-15085008D02*
X13557920Y-15094531D01*
X13557920Y-15094531D02*
X13567444Y-15113579D01*
X13567444Y-15113579D02*
X13567444Y-15132627D01*
X13567444Y-15132627D02*
X13557920Y-15161198D01*
X13557920Y-15161198D02*
X13443634Y-15275484D01*
X13443634Y-15275484D02*
X13567444Y-15275484D01*
X13643634Y-15075484D02*
X13643634Y-15113579D01*
X13719825Y-15075484D02*
X13719825Y-15113579D01*
X14015063Y-15351674D02*
X14005539Y-15342150D01*
X14005539Y-15342150D02*
X13986491Y-15313579D01*
X13986491Y-15313579D02*
X13976968Y-15294531D01*
X13976968Y-15294531D02*
X13967444Y-15265960D01*
X13967444Y-15265960D02*
X13957920Y-15218341D01*
X13957920Y-15218341D02*
X13957920Y-15180246D01*
X13957920Y-15180246D02*
X13967444Y-15132627D01*
X13967444Y-15132627D02*
X13976968Y-15104055D01*
X13976968Y-15104055D02*
X13986491Y-15085008D01*
X13986491Y-15085008D02*
X14005539Y-15056436D01*
X14005539Y-15056436D02*
X14015063Y-15046912D01*
X14176968Y-15142150D02*
X14176968Y-15275484D01*
X14129348Y-15065960D02*
X14081729Y-15208817D01*
X14081729Y-15208817D02*
X14205539Y-15208817D01*
X14434110Y-15275484D02*
X14434110Y-15075484D01*
X14519825Y-15275484D02*
X14519825Y-15170722D01*
X14519825Y-15170722D02*
X14510301Y-15151674D01*
X14510301Y-15151674D02*
X14491253Y-15142150D01*
X14491253Y-15142150D02*
X14462682Y-15142150D01*
X14462682Y-15142150D02*
X14443634Y-15151674D01*
X14443634Y-15151674D02*
X14434110Y-15161198D01*
X14643634Y-15275484D02*
X14624587Y-15265960D01*
X14624587Y-15265960D02*
X14615063Y-15256436D01*
X14615063Y-15256436D02*
X14605539Y-15237388D01*
X14605539Y-15237388D02*
X14605539Y-15180246D01*
X14605539Y-15180246D02*
X14615063Y-15161198D01*
X14615063Y-15161198D02*
X14624587Y-15151674D01*
X14624587Y-15151674D02*
X14643634Y-15142150D01*
X14643634Y-15142150D02*
X14672206Y-15142150D01*
X14672206Y-15142150D02*
X14691253Y-15151674D01*
X14691253Y-15151674D02*
X14700777Y-15161198D01*
X14700777Y-15161198D02*
X14710301Y-15180246D01*
X14710301Y-15180246D02*
X14710301Y-15237388D01*
X14710301Y-15237388D02*
X14700777Y-15256436D01*
X14700777Y-15256436D02*
X14691253Y-15265960D01*
X14691253Y-15265960D02*
X14672206Y-15275484D01*
X14672206Y-15275484D02*
X14643634Y-15275484D01*
X14824587Y-15275484D02*
X14805539Y-15265960D01*
X14805539Y-15265960D02*
X14796015Y-15246912D01*
X14796015Y-15246912D02*
X14796015Y-15075484D01*
X14976968Y-15265960D02*
X14957920Y-15275484D01*
X14957920Y-15275484D02*
X14919825Y-15275484D01*
X14919825Y-15275484D02*
X14900777Y-15265960D01*
X14900777Y-15265960D02*
X14891253Y-15246912D01*
X14891253Y-15246912D02*
X14891253Y-15170722D01*
X14891253Y-15170722D02*
X14900777Y-15151674D01*
X14900777Y-15151674D02*
X14919825Y-15142150D01*
X14919825Y-15142150D02*
X14957920Y-15142150D01*
X14957920Y-15142150D02*
X14976968Y-15151674D01*
X14976968Y-15151674D02*
X14986491Y-15170722D01*
X14986491Y-15170722D02*
X14986491Y-15189769D01*
X14986491Y-15189769D02*
X14891253Y-15208817D01*
X15062682Y-15265960D02*
X15081730Y-15275484D01*
X15081730Y-15275484D02*
X15119825Y-15275484D01*
X15119825Y-15275484D02*
X15138872Y-15265960D01*
X15138872Y-15265960D02*
X15148396Y-15246912D01*
X15148396Y-15246912D02*
X15148396Y-15237388D01*
X15148396Y-15237388D02*
X15138872Y-15218341D01*
X15138872Y-15218341D02*
X15119825Y-15208817D01*
X15119825Y-15208817D02*
X15091253Y-15208817D01*
X15091253Y-15208817D02*
X15072206Y-15199293D01*
X15072206Y-15199293D02*
X15062682Y-15180246D01*
X15062682Y-15180246D02*
X15062682Y-15170722D01*
X15062682Y-15170722D02*
X15072206Y-15151674D01*
X15072206Y-15151674D02*
X15091253Y-15142150D01*
X15091253Y-15142150D02*
X15119825Y-15142150D01*
X15119825Y-15142150D02*
X15138872Y-15151674D01*
X15215063Y-15351674D02*
X15224587Y-15342150D01*
X15224587Y-15342150D02*
X15243634Y-15313579D01*
X15243634Y-15313579D02*
X15253158Y-15294531D01*
X15253158Y-15294531D02*
X15262682Y-15265960D01*
X15262682Y-15265960D02*
X15272206Y-15218341D01*
X15272206Y-15218341D02*
X15272206Y-15180246D01*
X15272206Y-15180246D02*
X15262682Y-15132627D01*
X15262682Y-15132627D02*
X15253158Y-15104055D01*
X15253158Y-15104055D02*
X15243634Y-15085008D01*
X15243634Y-15085008D02*
X15224587Y-15056436D01*
X15224587Y-15056436D02*
X15215063Y-15046912D01*
M02*
