G04 #@! TF.GenerationSoftware,KiCad,Pcbnew,8.0.5*
G04 #@! TF.CreationDate,2024-11-21T15:42:30-05:00*
G04 #@! TF.ProjectId,Power_Daughterboard,506f7765-725f-4446-9175-676874657262,rev?*
G04 #@! TF.SameCoordinates,Original*
G04 #@! TF.FileFunction,Legend,Top*
G04 #@! TF.FilePolarity,Positive*
%FSLAX46Y46*%
G04 Gerber Fmt 4.6, Leading zero omitted, Abs format (unit mm)*
G04 Created by KiCad (PCBNEW 8.0.5) date 2024-11-21 15:42:30*
%MOMM*%
%LPD*%
G01*
G04 APERTURE LIST*
%ADD10C,0.150000*%
%ADD11C,0.254000*%
%ADD12C,0.120000*%
%ADD13C,0.100000*%
%ADD14C,0.200000*%
%ADD15C,0.152400*%
%ADD16C,0.508000*%
%ADD17C,1.295400*%
%ADD18C,2.895600*%
%ADD19C,1.803400*%
%ADD20C,4.600000*%
%ADD21C,1.400000*%
%ADD22R,1.800000X1.800000*%
%ADD23C,1.800000*%
%ADD24C,1.574800*%
%ADD25C,1.320800*%
%ADD26C,1.549400*%
%ADD27R,1.371600X1.371600*%
%ADD28C,1.371600*%
%ADD29R,1.500000X1.500000*%
%ADD30C,1.500000*%
G04 APERTURE END LIST*
D10*
X158990588Y-80299819D02*
X158419160Y-80299819D01*
X158704874Y-80299819D02*
X158704874Y-79299819D01*
X158704874Y-79299819D02*
X158609636Y-79442676D01*
X158609636Y-79442676D02*
X158514398Y-79537914D01*
X158514398Y-79537914D02*
X158419160Y-79585533D01*
X159419160Y-79633152D02*
X159419160Y-80633152D01*
X159895350Y-80156961D02*
X159942969Y-80252200D01*
X159942969Y-80252200D02*
X160038207Y-80299819D01*
X159419160Y-80156961D02*
X159466779Y-80252200D01*
X159466779Y-80252200D02*
X159562017Y-80299819D01*
X159562017Y-80299819D02*
X159752493Y-80299819D01*
X159752493Y-80299819D02*
X159847731Y-80252200D01*
X159847731Y-80252200D02*
X159895350Y-80156961D01*
X159895350Y-80156961D02*
X159895350Y-79633152D01*
X147207255Y-78509819D02*
X147302493Y-78509819D01*
X147302493Y-78509819D02*
X147397731Y-78557438D01*
X147397731Y-78557438D02*
X147445350Y-78605057D01*
X147445350Y-78605057D02*
X147492969Y-78700295D01*
X147492969Y-78700295D02*
X147540588Y-78890771D01*
X147540588Y-78890771D02*
X147540588Y-79128866D01*
X147540588Y-79128866D02*
X147492969Y-79319342D01*
X147492969Y-79319342D02*
X147445350Y-79414580D01*
X147445350Y-79414580D02*
X147397731Y-79462200D01*
X147397731Y-79462200D02*
X147302493Y-79509819D01*
X147302493Y-79509819D02*
X147207255Y-79509819D01*
X147207255Y-79509819D02*
X147112017Y-79462200D01*
X147112017Y-79462200D02*
X147064398Y-79414580D01*
X147064398Y-79414580D02*
X147016779Y-79319342D01*
X147016779Y-79319342D02*
X146969160Y-79128866D01*
X146969160Y-79128866D02*
X146969160Y-78890771D01*
X146969160Y-78890771D02*
X147016779Y-78700295D01*
X147016779Y-78700295D02*
X147064398Y-78605057D01*
X147064398Y-78605057D02*
X147112017Y-78557438D01*
X147112017Y-78557438D02*
X147207255Y-78509819D01*
X147969160Y-79414580D02*
X148016779Y-79462200D01*
X148016779Y-79462200D02*
X147969160Y-79509819D01*
X147969160Y-79509819D02*
X147921541Y-79462200D01*
X147921541Y-79462200D02*
X147969160Y-79414580D01*
X147969160Y-79414580D02*
X147969160Y-79509819D01*
X148969159Y-79509819D02*
X148397731Y-79509819D01*
X148683445Y-79509819D02*
X148683445Y-78509819D01*
X148683445Y-78509819D02*
X148588207Y-78652676D01*
X148588207Y-78652676D02*
X148492969Y-78747914D01*
X148492969Y-78747914D02*
X148397731Y-78795533D01*
X149397731Y-78843152D02*
X149397731Y-79843152D01*
X149873921Y-79366961D02*
X149921540Y-79462200D01*
X149921540Y-79462200D02*
X150016778Y-79509819D01*
X149397731Y-79366961D02*
X149445350Y-79462200D01*
X149445350Y-79462200D02*
X149540588Y-79509819D01*
X149540588Y-79509819D02*
X149731064Y-79509819D01*
X149731064Y-79509819D02*
X149826302Y-79462200D01*
X149826302Y-79462200D02*
X149873921Y-79366961D01*
X149873921Y-79366961D02*
X149873921Y-78843152D01*
D11*
X139397380Y-97574318D02*
X139397380Y-96304318D01*
X139397380Y-96304318D02*
X139881190Y-96304318D01*
X139881190Y-96304318D02*
X140002142Y-96364794D01*
X140002142Y-96364794D02*
X140062619Y-96425270D01*
X140062619Y-96425270D02*
X140123095Y-96546222D01*
X140123095Y-96546222D02*
X140123095Y-96727651D01*
X140123095Y-96727651D02*
X140062619Y-96848603D01*
X140062619Y-96848603D02*
X140002142Y-96909080D01*
X140002142Y-96909080D02*
X139881190Y-96969556D01*
X139881190Y-96969556D02*
X139397380Y-96969556D01*
X140606904Y-97513842D02*
X140788333Y-97574318D01*
X140788333Y-97574318D02*
X141090714Y-97574318D01*
X141090714Y-97574318D02*
X141211666Y-97513842D01*
X141211666Y-97513842D02*
X141272142Y-97453365D01*
X141272142Y-97453365D02*
X141332619Y-97332413D01*
X141332619Y-97332413D02*
X141332619Y-97211461D01*
X141332619Y-97211461D02*
X141272142Y-97090508D01*
X141272142Y-97090508D02*
X141211666Y-97030032D01*
X141211666Y-97030032D02*
X141090714Y-96969556D01*
X141090714Y-96969556D02*
X140848809Y-96909080D01*
X140848809Y-96909080D02*
X140727857Y-96848603D01*
X140727857Y-96848603D02*
X140667380Y-96788127D01*
X140667380Y-96788127D02*
X140606904Y-96667175D01*
X140606904Y-96667175D02*
X140606904Y-96546222D01*
X140606904Y-96546222D02*
X140667380Y-96425270D01*
X140667380Y-96425270D02*
X140727857Y-96364794D01*
X140727857Y-96364794D02*
X140848809Y-96304318D01*
X140848809Y-96304318D02*
X141151190Y-96304318D01*
X141151190Y-96304318D02*
X141332619Y-96364794D01*
X141876904Y-96304318D02*
X141876904Y-97332413D01*
X141876904Y-97332413D02*
X141937381Y-97453365D01*
X141937381Y-97453365D02*
X141997857Y-97513842D01*
X141997857Y-97513842D02*
X142118809Y-97574318D01*
X142118809Y-97574318D02*
X142360714Y-97574318D01*
X142360714Y-97574318D02*
X142481666Y-97513842D01*
X142481666Y-97513842D02*
X142542143Y-97453365D01*
X142542143Y-97453365D02*
X142602619Y-97332413D01*
X142602619Y-97332413D02*
X142602619Y-96304318D01*
D10*
X161944326Y-92994819D02*
X161944326Y-91994819D01*
X161944326Y-91994819D02*
X162182421Y-91994819D01*
X162182421Y-91994819D02*
X162325278Y-92042438D01*
X162325278Y-92042438D02*
X162420516Y-92137676D01*
X162420516Y-92137676D02*
X162468135Y-92232914D01*
X162468135Y-92232914D02*
X162515754Y-92423390D01*
X162515754Y-92423390D02*
X162515754Y-92566247D01*
X162515754Y-92566247D02*
X162468135Y-92756723D01*
X162468135Y-92756723D02*
X162420516Y-92851961D01*
X162420516Y-92851961D02*
X162325278Y-92947200D01*
X162325278Y-92947200D02*
X162182421Y-92994819D01*
X162182421Y-92994819D02*
X161944326Y-92994819D01*
X163515754Y-92899580D02*
X163468135Y-92947200D01*
X163468135Y-92947200D02*
X163325278Y-92994819D01*
X163325278Y-92994819D02*
X163230040Y-92994819D01*
X163230040Y-92994819D02*
X163087183Y-92947200D01*
X163087183Y-92947200D02*
X162991945Y-92851961D01*
X162991945Y-92851961D02*
X162944326Y-92756723D01*
X162944326Y-92756723D02*
X162896707Y-92566247D01*
X162896707Y-92566247D02*
X162896707Y-92423390D01*
X162896707Y-92423390D02*
X162944326Y-92232914D01*
X162944326Y-92232914D02*
X162991945Y-92137676D01*
X162991945Y-92137676D02*
X163087183Y-92042438D01*
X163087183Y-92042438D02*
X163230040Y-91994819D01*
X163230040Y-91994819D02*
X163325278Y-91994819D01*
X163325278Y-91994819D02*
X163468135Y-92042438D01*
X163468135Y-92042438D02*
X163515754Y-92090057D01*
X163944326Y-92994819D02*
X163944326Y-91994819D01*
X163944326Y-91994819D02*
X164325278Y-91994819D01*
X164325278Y-91994819D02*
X164420516Y-92042438D01*
X164420516Y-92042438D02*
X164468135Y-92090057D01*
X164468135Y-92090057D02*
X164515754Y-92185295D01*
X164515754Y-92185295D02*
X164515754Y-92328152D01*
X164515754Y-92328152D02*
X164468135Y-92423390D01*
X164468135Y-92423390D02*
X164420516Y-92471009D01*
X164420516Y-92471009D02*
X164325278Y-92518628D01*
X164325278Y-92518628D02*
X163944326Y-92518628D01*
X164849088Y-91994819D02*
X165515754Y-92994819D01*
X165515754Y-91994819D02*
X164849088Y-92994819D01*
X165896707Y-92994819D02*
X165896707Y-91994819D01*
X165896707Y-91994819D02*
X166230040Y-92709104D01*
X166230040Y-92709104D02*
X166563373Y-91994819D01*
X166563373Y-91994819D02*
X166563373Y-92994819D01*
X153738095Y-105669104D02*
X154214285Y-105669104D01*
X153642857Y-105954819D02*
X153976190Y-104954819D01*
X153976190Y-104954819D02*
X154309523Y-105954819D01*
X155214285Y-105859580D02*
X155166666Y-105907200D01*
X155166666Y-105907200D02*
X155023809Y-105954819D01*
X155023809Y-105954819D02*
X154928571Y-105954819D01*
X154928571Y-105954819D02*
X154785714Y-105907200D01*
X154785714Y-105907200D02*
X154690476Y-105811961D01*
X154690476Y-105811961D02*
X154642857Y-105716723D01*
X154642857Y-105716723D02*
X154595238Y-105526247D01*
X154595238Y-105526247D02*
X154595238Y-105383390D01*
X154595238Y-105383390D02*
X154642857Y-105192914D01*
X154642857Y-105192914D02*
X154690476Y-105097676D01*
X154690476Y-105097676D02*
X154785714Y-105002438D01*
X154785714Y-105002438D02*
X154928571Y-104954819D01*
X154928571Y-104954819D02*
X155023809Y-104954819D01*
X155023809Y-104954819D02*
X155166666Y-105002438D01*
X155166666Y-105002438D02*
X155214285Y-105050057D01*
X155642857Y-105954819D02*
X155642857Y-104954819D01*
X155642857Y-104954819D02*
X156023809Y-104954819D01*
X156023809Y-104954819D02*
X156119047Y-105002438D01*
X156119047Y-105002438D02*
X156166666Y-105050057D01*
X156166666Y-105050057D02*
X156214285Y-105145295D01*
X156214285Y-105145295D02*
X156214285Y-105288152D01*
X156214285Y-105288152D02*
X156166666Y-105383390D01*
X156166666Y-105383390D02*
X156119047Y-105431009D01*
X156119047Y-105431009D02*
X156023809Y-105478628D01*
X156023809Y-105478628D02*
X155642857Y-105478628D01*
X156642857Y-105431009D02*
X156976190Y-105431009D01*
X157119047Y-105954819D02*
X156642857Y-105954819D01*
X156642857Y-105954819D02*
X156642857Y-104954819D01*
X156642857Y-104954819D02*
X157119047Y-104954819D01*
X157547619Y-105954819D02*
X157547619Y-104954819D01*
X157547619Y-104954819D02*
X157880952Y-105669104D01*
X157880952Y-105669104D02*
X158214285Y-104954819D01*
X158214285Y-104954819D02*
X158214285Y-105954819D01*
X132431009Y-102809523D02*
X132431009Y-103142856D01*
X132954819Y-103142856D02*
X131954819Y-103142856D01*
X131954819Y-103142856D02*
X131954819Y-102666666D01*
X131954819Y-102285713D02*
X132764342Y-102285713D01*
X132764342Y-102285713D02*
X132859580Y-102238094D01*
X132859580Y-102238094D02*
X132907200Y-102190475D01*
X132907200Y-102190475D02*
X132954819Y-102095237D01*
X132954819Y-102095237D02*
X132954819Y-101904761D01*
X132954819Y-101904761D02*
X132907200Y-101809523D01*
X132907200Y-101809523D02*
X132859580Y-101761904D01*
X132859580Y-101761904D02*
X132764342Y-101714285D01*
X132764342Y-101714285D02*
X131954819Y-101714285D01*
X132907200Y-101285713D02*
X132954819Y-101142856D01*
X132954819Y-101142856D02*
X132954819Y-100904761D01*
X132954819Y-100904761D02*
X132907200Y-100809523D01*
X132907200Y-100809523D02*
X132859580Y-100761904D01*
X132859580Y-100761904D02*
X132764342Y-100714285D01*
X132764342Y-100714285D02*
X132669104Y-100714285D01*
X132669104Y-100714285D02*
X132573866Y-100761904D01*
X132573866Y-100761904D02*
X132526247Y-100809523D01*
X132526247Y-100809523D02*
X132478628Y-100904761D01*
X132478628Y-100904761D02*
X132431009Y-101095237D01*
X132431009Y-101095237D02*
X132383390Y-101190475D01*
X132383390Y-101190475D02*
X132335771Y-101238094D01*
X132335771Y-101238094D02*
X132240533Y-101285713D01*
X132240533Y-101285713D02*
X132145295Y-101285713D01*
X132145295Y-101285713D02*
X132050057Y-101238094D01*
X132050057Y-101238094D02*
X132002438Y-101190475D01*
X132002438Y-101190475D02*
X131954819Y-101095237D01*
X131954819Y-101095237D02*
X131954819Y-100857142D01*
X131954819Y-100857142D02*
X132002438Y-100714285D01*
X132431009Y-100285713D02*
X132431009Y-99952380D01*
X132954819Y-99809523D02*
X132954819Y-100285713D01*
X132954819Y-100285713D02*
X131954819Y-100285713D01*
X131954819Y-100285713D02*
X131954819Y-99809523D01*
D11*
X117367142Y-101574318D02*
X117367142Y-100304318D01*
X117367142Y-100304318D02*
X117790476Y-101211461D01*
X117790476Y-101211461D02*
X118213809Y-100304318D01*
X118213809Y-100304318D02*
X118213809Y-101574318D01*
X119060476Y-100304318D02*
X119302381Y-100304318D01*
X119302381Y-100304318D02*
X119423333Y-100364794D01*
X119423333Y-100364794D02*
X119544286Y-100485746D01*
X119544286Y-100485746D02*
X119604762Y-100727651D01*
X119604762Y-100727651D02*
X119604762Y-101150984D01*
X119604762Y-101150984D02*
X119544286Y-101392889D01*
X119544286Y-101392889D02*
X119423333Y-101513842D01*
X119423333Y-101513842D02*
X119302381Y-101574318D01*
X119302381Y-101574318D02*
X119060476Y-101574318D01*
X119060476Y-101574318D02*
X118939524Y-101513842D01*
X118939524Y-101513842D02*
X118818571Y-101392889D01*
X118818571Y-101392889D02*
X118758095Y-101150984D01*
X118758095Y-101150984D02*
X118758095Y-100727651D01*
X118758095Y-100727651D02*
X118818571Y-100485746D01*
X118818571Y-100485746D02*
X118939524Y-100364794D01*
X118939524Y-100364794D02*
X119060476Y-100304318D01*
X119967619Y-100304318D02*
X120390952Y-101574318D01*
X120390952Y-101574318D02*
X120814286Y-100304318D01*
D12*
X158380000Y-81080000D02*
X160620000Y-81080000D01*
X158380000Y-85920000D02*
X158380000Y-81080000D01*
X158380000Y-85920000D02*
X160620000Y-85920000D01*
X160620000Y-85920000D02*
X160620000Y-81080000D01*
D13*
X110600000Y-91600000D02*
X110600000Y-91600000D01*
X110700000Y-91600000D02*
X110700000Y-91600000D01*
D14*
X111150000Y-72900000D02*
X144850000Y-72900000D01*
X111150000Y-95100000D02*
X111150000Y-72900000D01*
X144850000Y-72900000D02*
X144850000Y-95100000D01*
X144850000Y-95100000D02*
X111150000Y-95100000D01*
D13*
X110600000Y-91600000D02*
G75*
G02*
X110700000Y-91600000I50000J0D01*
G01*
X110700000Y-91600000D02*
G75*
G02*
X110600000Y-91600000I-50000J0D01*
G01*
D12*
X146380000Y-80080000D02*
X148620000Y-80080000D01*
X146380000Y-84920000D02*
X146380000Y-80080000D01*
X146380000Y-84920000D02*
X148620000Y-84920000D01*
X148620000Y-84920000D02*
X148620000Y-80080000D01*
D15*
X161072999Y-81077600D02*
X161072999Y-91542400D01*
X161072999Y-91542400D02*
X167168999Y-91542400D01*
X167168999Y-81077600D02*
X161072999Y-81077600D01*
X167168999Y-86742037D02*
X167168999Y-81077600D01*
X167168999Y-91542400D02*
X167168999Y-88417963D01*
D16*
X164881000Y-80442600D02*
G75*
G02*
X164119000Y-80442600I-381000J0D01*
G01*
X164119000Y-80442600D02*
G75*
G02*
X164881000Y-80442600I381000J0D01*
G01*
D15*
X109638402Y-106357099D02*
X109638402Y-127616899D01*
X109638402Y-127616899D02*
X163181602Y-127616899D01*
X163181602Y-106357099D02*
X109638402Y-106357099D01*
X163181602Y-127616899D02*
X163181602Y-106357099D01*
D16*
X107481324Y-115028775D02*
G75*
G02*
X108241402Y-115066999I379078J-38224D01*
G01*
D15*
X128612400Y-97016900D02*
X128612400Y-105983100D01*
X128612400Y-97016900D02*
X133387600Y-97016900D01*
X128612400Y-105983100D02*
X133387600Y-105983100D01*
X133387600Y-97016900D02*
X133387600Y-105983100D01*
D14*
X110750000Y-98000000D02*
X110750000Y-104000000D01*
X110750000Y-104000000D02*
X121600000Y-104000000D01*
X114200000Y-98000000D02*
X110750000Y-98000000D01*
D13*
X115250000Y-96600000D02*
X115250000Y-96600000D01*
X115250000Y-96700000D02*
X115250000Y-96700000D01*
D14*
X123800000Y-104000000D02*
X127250000Y-104000000D01*
X127250000Y-98000000D02*
X116400000Y-98000000D01*
X127250000Y-104000000D02*
X127250000Y-98000000D01*
D13*
X115250000Y-96600000D02*
G75*
G02*
X115250000Y-96700000I0J-50000D01*
G01*
X115250000Y-96700000D02*
G75*
G02*
X115250000Y-96600000I0J50000D01*
G01*
D17*
X166660000Y-87580000D03*
D18*
X107459996Y-119489999D03*
D19*
X113909996Y-119489999D03*
D20*
X135500000Y-116500000D03*
D19*
X158910007Y-119489999D03*
D18*
X165360007Y-119489999D03*
%LPC*%
D21*
X159500000Y-84750000D03*
X159500000Y-82250000D03*
D22*
X114000000Y-91600000D03*
D23*
X114000000Y-76400000D03*
X142000000Y-76400000D03*
X142000000Y-84000000D03*
D21*
X147500000Y-83750000D03*
X147500000Y-81250000D03*
D24*
X164500000Y-82500000D03*
X164500000Y-85040000D03*
X164500000Y-87580000D03*
X164500000Y-90120000D03*
D25*
X122060000Y-113330000D03*
X129060003Y-113330000D03*
D26*
X147510000Y-109489998D03*
X156110003Y-109489998D03*
D27*
X131000000Y-104040000D03*
D28*
X131000000Y-98960000D03*
D29*
X115250000Y-98000000D03*
D30*
X122750000Y-104000000D03*
%LPD*%
M02*
