%TF.GenerationSoftware,KiCad,Pcbnew,8.0.5*%
%TF.CreationDate,2024-11-19T11:11:42-05:00*%
%TF.ProjectId,Power_Daughterboard,506f7765-725f-4446-9175-676874657262,rev?*%
%TF.SameCoordinates,Original*%
%TF.FileFunction,Copper,L2,Bot*%
%TF.FilePolarity,Positive*%
%FSLAX46Y46*%
G04 Gerber Fmt 4.6, Leading zero omitted, Abs format (unit mm)*
G04 Created by KiCad (PCBNEW 8.0.5) date 2024-11-19 11:11:42*
%MOMM*%
%LPD*%
G01*
G04 APERTURE LIST*
%TA.AperFunction,ComponentPad*%
%ADD10C,1.400000*%
%TD*%
%TA.AperFunction,ComponentPad*%
%ADD11R,1.800000X1.800000*%
%TD*%
%TA.AperFunction,ComponentPad*%
%ADD12C,1.800000*%
%TD*%
%TA.AperFunction,ComponentPad*%
%ADD13C,1.574800*%
%TD*%
%TA.AperFunction,ComponentPad*%
%ADD14C,1.320800*%
%TD*%
%TA.AperFunction,ComponentPad*%
%ADD15C,1.549400*%
%TD*%
%TA.AperFunction,ComponentPad*%
%ADD16R,1.371600X1.371600*%
%TD*%
%TA.AperFunction,ComponentPad*%
%ADD17C,1.371600*%
%TD*%
%TA.AperFunction,ComponentPad*%
%ADD18R,1.500000X1.500000*%
%TD*%
%TA.AperFunction,ComponentPad*%
%ADD19C,1.500000*%
%TD*%
%TA.AperFunction,Conductor*%
%ADD20C,0.750000*%
%TD*%
G04 APERTURE END LIST*
D10*
%TO.P,C2,1*%
%TO.N,Net-(PSU1-DC+)*%
X159500000Y-84750000D03*
%TO.P,C2,2*%
%TO.N,Net-(PSU1-DC-)*%
X159500000Y-82250000D03*
%TD*%
D11*
%TO.P,PSU,1,AC1*%
%TO.N,Net-(PSU1-AC1)*%
X114000000Y-91600000D03*
D12*
%TO.P,PSU,2,AC2*%
%TO.N,Net-(PSU1-AC2)*%
X114000000Y-76400000D03*
%TO.P,PSU,3,DC-*%
%TO.N,Net-(PSU1-DC-)*%
X142000000Y-76400000D03*
%TO.P,PSU,4,DC+*%
%TO.N,Net-(PSU1-DC+)*%
X142000000Y-84000000D03*
%TD*%
D10*
%TO.P,C1,1*%
%TO.N,Net-(PSU1-DC+)*%
X147500000Y-83750000D03*
%TO.P,C1,2*%
%TO.N,Net-(PSU1-DC-)*%
X147500000Y-81250000D03*
%TD*%
D13*
%TO.P,DCPXM,1,1*%
%TO.N,Net-(PSU1-DC-)*%
X164500000Y-82500000D03*
%TO.P,DCPXM,2,2*%
%TO.N,Net-(PSU1-DC+)*%
X164500000Y-85040000D03*
%TO.P,DCPXM,3,3*%
%TO.N,unconnected-(PXM1-Pad3)*%
X164500000Y-87580000D03*
%TO.P,DCPXM,4,4*%
%TO.N,unconnected-(PXM1-Pad4)*%
X164500000Y-90120000D03*
%TD*%
D14*
%TO.P,ACPEM,1,1*%
%TO.N,Net-(PSU1-AC2)*%
X122060000Y-113330000D03*
%TO.P,ACPEM,2,2*%
%TO.N,Net-(PEM1-Pad2)*%
X129060003Y-113330000D03*
D15*
%TO.P,ACPEM,3,3*%
X147510000Y-109489998D03*
%TO.P,ACPEM,4,4*%
%TO.N,Net-(FUSE1-Pad1)*%
X156110003Y-109489998D03*
%TD*%
D16*
%TO.P,FUSE,1,1*%
%TO.N,Net-(FUSE1-Pad1)*%
X131000000Y-104040000D03*
D17*
%TO.P,FUSE,2,2*%
%TO.N,Net-(PSU1-AC1)*%
X131000000Y-98960000D03*
%TD*%
D18*
%TO.P,MOV,1,1*%
%TO.N,Net-(PSU1-AC2)*%
X115250000Y-98000000D03*
D19*
%TO.P,MOV,2,2*%
%TO.N,Net-(PSU1-AC1)*%
X122750000Y-104000000D03*
%TD*%
D20*
%TO.N,Net-(PSU1-AC1)*%
X125960000Y-104000000D02*
X131000000Y-98960000D01*
X122750000Y-104000000D02*
X125960000Y-104000000D01*
X122750000Y-104000000D02*
X122750000Y-100350000D01*
X122750000Y-100350000D02*
X114000000Y-91600000D01*
%TO.N,Net-(FUSE1-Pad1)*%
X156110003Y-109489998D02*
X150660005Y-104040000D01*
X150660005Y-104040000D02*
X131000000Y-104040000D01*
%TO.N,Net-(PSU1-AC2)*%
X111500000Y-78900000D02*
X114000000Y-76400000D01*
X111500000Y-94250000D02*
X111500000Y-78900000D01*
X115250000Y-106520000D02*
X115250000Y-98000000D01*
X115250000Y-98000000D02*
X111500000Y-94250000D01*
X122060000Y-113330000D02*
X115250000Y-106520000D01*
%TO.N,Net-(PEM1-Pad2)*%
X129060003Y-113330000D02*
X132900005Y-109489998D01*
X132900005Y-109489998D02*
X147510000Y-109489998D01*
%TO.N,Net-(PSU1-DC-)*%
X164500000Y-82500000D02*
X159750000Y-82500000D01*
X159500000Y-82250000D02*
X148500000Y-82250000D01*
X159750000Y-82500000D02*
X159500000Y-82250000D01*
X142000000Y-76400000D02*
X146850000Y-81250000D01*
X146850000Y-81250000D02*
X147500000Y-81250000D01*
X148500000Y-82250000D02*
X147500000Y-81250000D01*
%TO.N,Net-(PSU1-DC+)*%
X147250000Y-84000000D02*
X147500000Y-83750000D01*
X147500000Y-83750000D02*
X158500000Y-83750000D01*
X159790000Y-85040000D02*
X159500000Y-84750000D01*
X158500000Y-83750000D02*
X159500000Y-84750000D01*
X142000000Y-84000000D02*
X147250000Y-84000000D01*
X164500000Y-85040000D02*
X159790000Y-85040000D01*
%TD*%
M02*
