M48
; DRILL file {KiCad 8.0.5} date 2024-11-21T16:33:16-0500
; FORMAT={-:-/ absolute / metric / decimal}
; #@! TF.CreationDate,2024-11-21T16:33:16-05:00
; #@! TF.GenerationSoftware,Kicad,Pcbnew,8.0.5
; #@! TF.FileFunction,Plated,1,2,PTH
FMAT,2
METRIC
; #@! TA.AperFunction,Plated,PTH,ComponentDrill
T1C0.700
; #@! TA.AperFunction,Plated,PTH,ComponentDrill
T2C0.813
; #@! TA.AperFunction,Plated,PTH,ComponentDrill
T3C0.864
; #@! TA.AperFunction,Plated,PTH,ComponentDrill
T4C1.000
; #@! TA.AperFunction,Plated,PTH,ComponentDrill
T5C1.041
; #@! TA.AperFunction,Plated,PTH,ComponentDrill
T6C1.067
; #@! TA.AperFunction,Plated,PTH,ComponentDrill
T7C1.200
%
G90
G05
T1
X147.5Y-81.25
X147.5Y-83.75
X159.5Y-82.25
X159.5Y-84.75
T2
X122.06Y-113.33
X129.06Y-113.33
T3
X131.0Y-98.96
X131.0Y-104.04
T4
X115.25Y-98.0
X122.75Y-104.0
T5
X147.51Y-109.49
X156.11Y-109.49
T6
X164.5Y-82.5
X164.5Y-85.04
X164.5Y-87.58
X164.5Y-90.12
T7
X114.0Y-76.4
X114.0Y-91.6
X142.0Y-76.4
X142.0Y-84.0
M30
